G04 #@! TF.FileFunction,Copper,L1,Top,Signal*
%FSLAX46Y46*%
G04 Gerber Fmt 4.6, Leading zero omitted, Abs format (unit mm)*
G04 Created by KiCad (PCBNEW 4.0.2+dfsg1-stable) date Fri 05 Oct 2018 02:59:10 AM EDT*
%MOMM*%
G01*
G04 APERTURE LIST*
%ADD10C,0.100000*%
%ADD11C,4.470400*%
%ADD12C,1.727200*%
%ADD13R,1.727200X2.032000*%
%ADD14O,1.727200X2.032000*%
%ADD15R,0.450000X1.000000*%
%ADD16R,0.600000X1.000000*%
%ADD17R,0.350000X1.000000*%
%ADD18R,0.500000X1.000000*%
%ADD19C,0.250000*%
G04 APERTURE END LIST*
D10*
D11*
X152908000Y-106680000D03*
D10*
G36*
X128924237Y-112581078D02*
X127702922Y-111359763D01*
X129139763Y-109922922D01*
X130361078Y-111144237D01*
X128924237Y-112581078D01*
X128924237Y-112581078D01*
G37*
D12*
X130720288Y-113155814D02*
X130935814Y-112940288D01*
X132516339Y-114951865D02*
X132731865Y-114736339D01*
X134312391Y-116747917D02*
X134527917Y-116532391D01*
D10*
G36*
X119646000Y-120620962D02*
X120512026Y-120120962D01*
X120737026Y-120510674D01*
X119871000Y-121010674D01*
X119646000Y-120620962D01*
X119646000Y-120620962D01*
G37*
G36*
X120096000Y-121400384D02*
X120962026Y-120900384D01*
X121262026Y-121420000D01*
X120396000Y-121920000D01*
X120096000Y-121400384D01*
X120096000Y-121400384D01*
G37*
G36*
X120596000Y-122266411D02*
X121462026Y-121766411D01*
X121637026Y-122069519D01*
X120771000Y-122569519D01*
X120596000Y-122266411D01*
X120596000Y-122266411D01*
G37*
G36*
X120971000Y-122915930D02*
X121837026Y-122415930D01*
X122087026Y-122848942D01*
X121221000Y-123348942D01*
X120971000Y-122915930D01*
X120971000Y-122915930D01*
G37*
D13*
X153924000Y-78232000D03*
D14*
X151384000Y-78232000D03*
X148844000Y-78232000D03*
X146304000Y-78232000D03*
D15*
X150627000Y-72636000D03*
D16*
X149652000Y-72636000D03*
D17*
X148777000Y-72636000D03*
D18*
X147952000Y-72636000D03*
D19*
X128524000Y-111760000D02*
X128016000Y-111760000D01*
X120191513Y-119584487D02*
X128016000Y-111760000D01*
X120191513Y-119584487D02*
X120191513Y-120565818D01*
X128524000Y-111760000D02*
X129032000Y-111252000D01*
X120679013Y-121410192D02*
X120905808Y-121410192D01*
X120905808Y-121410192D02*
X129267949Y-113048051D01*
X129267949Y-113048051D02*
X130828051Y-113048051D01*
X121116513Y-122167965D02*
X121164035Y-122167965D01*
X121164035Y-122167965D02*
X122936000Y-120396000D01*
X122936000Y-120396000D02*
X127072204Y-120396000D01*
X127072204Y-120396000D02*
X132624102Y-114844102D01*
X121529013Y-122882436D02*
X124513564Y-122882436D01*
X130156308Y-120904000D02*
X134420154Y-116640154D01*
X126492000Y-120904000D02*
X130156308Y-120904000D01*
X124513564Y-122882436D02*
X126492000Y-120904000D01*
X153924000Y-78232000D02*
X153924000Y-75933000D01*
X153924000Y-75933000D02*
X150627000Y-72636000D01*
X149652000Y-72636000D02*
X149652000Y-76500000D01*
X149652000Y-76500000D02*
X151384000Y-78232000D01*
X148844000Y-78232000D02*
X148844000Y-72703000D01*
X148844000Y-72703000D02*
X148777000Y-72636000D01*
X147952000Y-72636000D02*
X147952000Y-76584000D01*
X147952000Y-76584000D02*
X146304000Y-78232000D01*
M02*
