G04 #@! TF.FileFunction,Legend,Top*
%FSLAX46Y46*%
G04 Gerber Fmt 4.6, Leading zero omitted, Abs format (unit mm)*
G04 Created by KiCad (PCBNEW 4.0.2+dfsg1-stable) date Fri 05 Oct 2018 02:59:10 AM EDT*
%MOMM*%
G01*
G04 APERTURE LIST*
%ADD10C,0.100000*%
%ADD11C,0.381000*%
%ADD12C,0.150000*%
%ADD13C,0.190500*%
G04 APERTURE END LIST*
D10*
D11*
X154610145Y-106680000D02*
G75*
G03X154610145Y-106680000I-1702145J0D01*
G01*
D12*
X129032000Y-113048051D02*
X134420154Y-118436205D01*
X130828051Y-111252000D02*
X136216205Y-116640154D01*
X129032000Y-109059969D02*
X130128016Y-110155984D01*
X134420154Y-118436205D02*
X136216205Y-116640154D01*
X130828051Y-111252000D02*
X129032000Y-113048051D01*
X127935984Y-112348016D02*
X126839969Y-111252000D01*
X126839969Y-111252000D02*
X129032000Y-109059969D01*
X119271000Y-119971443D02*
X119920519Y-119596443D01*
X119920519Y-119596443D02*
X122170519Y-123493557D01*
X122170519Y-123493557D02*
X120871481Y-124243557D01*
X120871481Y-124243557D02*
X118621481Y-120346443D01*
X118621481Y-120346443D02*
X119271000Y-119971443D01*
X152654000Y-76962000D02*
X145034000Y-76962000D01*
X152654000Y-79502000D02*
X145034000Y-79502000D01*
X155474000Y-79782000D02*
X153924000Y-79782000D01*
X145034000Y-76962000D02*
X145034000Y-79502000D01*
X152654000Y-79502000D02*
X152654000Y-76962000D01*
X153924000Y-76682000D02*
X155474000Y-76682000D01*
X155474000Y-76682000D02*
X155474000Y-79782000D01*
X151602000Y-72136000D02*
X151602000Y-72886000D01*
X151602000Y-72886000D02*
X147102000Y-72886000D01*
X147102000Y-72886000D02*
X147102000Y-71386000D01*
X147102000Y-71386000D02*
X151602000Y-71386000D01*
X151602000Y-71386000D02*
X151602000Y-72136000D01*
D13*
X152345572Y-104723474D02*
X152345572Y-103961474D01*
X152635857Y-103961474D01*
X152708429Y-103997760D01*
X152744714Y-104034046D01*
X152781000Y-104106617D01*
X152781000Y-104215474D01*
X152744714Y-104288046D01*
X152708429Y-104324331D01*
X152635857Y-104360617D01*
X152345572Y-104360617D01*
X153506714Y-104723474D02*
X153071286Y-104723474D01*
X153289000Y-104723474D02*
X153289000Y-103961474D01*
X153216429Y-104070331D01*
X153143857Y-104142903D01*
X153071286Y-104179189D01*
D12*
X125223725Y-108487549D02*
X124516618Y-107780442D01*
X124785992Y-107511067D01*
X124887008Y-107477396D01*
X124954351Y-107477396D01*
X125055366Y-107511067D01*
X125156381Y-107612083D01*
X125190053Y-107713098D01*
X125190053Y-107780441D01*
X125156381Y-107881456D01*
X124887007Y-108150831D01*
X125257396Y-107174350D02*
X125257396Y-107107007D01*
X125291068Y-107005992D01*
X125459427Y-106837632D01*
X125560443Y-106803961D01*
X125627786Y-106803961D01*
X125728801Y-106837632D01*
X125796145Y-106904976D01*
X125863488Y-107039663D01*
X125863488Y-107847785D01*
X126301221Y-107410052D01*
X118119635Y-122381981D02*
X118985660Y-121881981D01*
X119176137Y-122211896D01*
X119182517Y-122318184D01*
X119165087Y-122383233D01*
X119106418Y-122472092D01*
X118982700Y-122543520D01*
X118876412Y-122549900D01*
X118811363Y-122532470D01*
X118722505Y-122473801D01*
X118532029Y-122143886D01*
X119438041Y-122665528D02*
X119747565Y-123201640D01*
X119250984Y-123103440D01*
X119322413Y-123227159D01*
X119328793Y-123333447D01*
X119311363Y-123398495D01*
X119252693Y-123487354D01*
X119046497Y-123606402D01*
X118940209Y-123612781D01*
X118875160Y-123595352D01*
X118786302Y-123536683D01*
X118643445Y-123289246D01*
X118637065Y-123182958D01*
X118654495Y-123117909D01*
X159476381Y-78970095D02*
X158476381Y-78970095D01*
X158476381Y-78589142D01*
X158524000Y-78493904D01*
X158571619Y-78446285D01*
X158666857Y-78398666D01*
X158809714Y-78398666D01*
X158904952Y-78446285D01*
X158952571Y-78493904D01*
X159000190Y-78589142D01*
X159000190Y-78970095D01*
X158809714Y-77541523D02*
X159476381Y-77541523D01*
X158428762Y-77779619D02*
X159143048Y-78017714D01*
X159143048Y-77398666D01*
X148613905Y-70838381D02*
X148613905Y-69838381D01*
X148994858Y-69838381D01*
X149090096Y-69886000D01*
X149137715Y-69933619D01*
X149185334Y-70028857D01*
X149185334Y-70171714D01*
X149137715Y-70266952D01*
X149090096Y-70314571D01*
X148994858Y-70362190D01*
X148613905Y-70362190D01*
X150090096Y-69838381D02*
X149613905Y-69838381D01*
X149566286Y-70314571D01*
X149613905Y-70266952D01*
X149709143Y-70219333D01*
X149947239Y-70219333D01*
X150042477Y-70266952D01*
X150090096Y-70314571D01*
X150137715Y-70409810D01*
X150137715Y-70647905D01*
X150090096Y-70743143D01*
X150042477Y-70790762D01*
X149947239Y-70838381D01*
X149709143Y-70838381D01*
X149613905Y-70790762D01*
X149566286Y-70743143D01*
M02*
