<?xml version="1.0" encoding="UTF-8" standalone="no"?>
<!-- Created with FreeCAD (http://www.freecadweb.org) -->
<svg xmlns="http://www.w3.org/2000/svg"
     xmlns:xlink="http://www.w3.org/1999/xlink" xmlns:ev="http://www.w3.org/2001/xml-events"
     version="1.1" baseProfile="full"
     width="277" height="190">
<g>
</g>
<path
   d="M 10,10 L 267,10 L 267,180 L 10,180 L 10,10 z "
   style="fill:#ffffff;fill-opacity:1;fill-rule:evenodd;stroke:none;stroke-width:1px;stroke-linecap:butt;stroke-linejoin:miter;stroke-opacity:1" />
<g>
<line x1="170.001" y1="167.948" x2="170.001" y2="47.4307" stroke="#33334d" stroke-width="1px" />
<line x1="109.743" y1="107.689" x2="230.259" y2="107.689" stroke="#33334d" stroke-width="1px" />
<line x1="230.259" y1="167.948" x2="230.259" y2="47.4307" stroke="#33334d" stroke-width="1px" />
<line x1="109.743" y1="47.4307" x2="230.259" y2="47.4307" stroke="#33334d" stroke-width="1px" />
<line x1="218.208" y1="167.948" x2="218.208" y2="47.4307" stroke="#33334d" stroke-width="1px" />
<line x1="109.743" y1="59.4823" x2="230.259" y2="59.4823" stroke="#33334d" stroke-width="1px" />
<line x1="206.156" y1="167.948" x2="206.156" y2="47.4307" stroke="#33334d" stroke-width="1px" />
<line x1="109.743" y1="71.534" x2="230.259" y2="71.534" stroke="#33334d" stroke-width="1px" />
<line x1="194.104" y1="167.948" x2="194.104" y2="47.4307" stroke="#33334d" stroke-width="1px" />
<line x1="109.743" y1="83.5857" x2="230.259" y2="83.5857" stroke="#33334d" stroke-width="1px" />
<line x1="182.053" y1="167.948" x2="182.053" y2="47.4307" stroke="#33334d" stroke-width="1px" />
<line x1="109.743" y1="95.6374" x2="230.259" y2="95.6374" stroke="#33334d" stroke-width="1px" />
<line x1="157.95" y1="167.948" x2="157.95" y2="47.4307" stroke="#33334d" stroke-width="1px" />
<line x1="109.743" y1="119.741" x2="230.259" y2="119.741" stroke="#33334d" stroke-width="1px" />
<line x1="145.898" y1="167.948" x2="145.898" y2="47.4307" stroke="#33334d" stroke-width="1px" />
<line x1="109.743" y1="131.792" x2="230.259" y2="131.792" stroke="#33334d" stroke-width="1px" />
<line x1="133.847" y1="167.948" x2="133.847" y2="47.4307" stroke="#33334d" stroke-width="1px" />
<line x1="109.743" y1="143.844" x2="230.259" y2="143.844" stroke="#33334d" stroke-width="1px" />
<line x1="121.795" y1="167.948" x2="121.795" y2="47.4307" stroke="#33334d" stroke-width="1px" />
<line x1="109.743" y1="155.896" x2="230.259" y2="155.896" stroke="#33334d" stroke-width="1px" />
<line x1="109.743" y1="167.948" x2="109.743" y2="47.4307" stroke="#33334d" stroke-width="1px" />
<line x1="109.743" y1="167.948" x2="230.259" y2="167.948" stroke="#33334d" stroke-width="1px" />
<line x1="229.054" y1="167.948" x2="229.054" y2="47.4307" stroke="#33334d" stroke-width="1px" />
<line x1="109.743" y1="48.6358" x2="230.259" y2="48.6358" stroke="#33334d" stroke-width="1px" />
<line x1="227.849" y1="167.948" x2="227.849" y2="47.4307" stroke="#33334d" stroke-width="1px" />
<line x1="109.743" y1="49.841" x2="230.259" y2="49.841" stroke="#33334d" stroke-width="1px" />
<line x1="226.644" y1="167.948" x2="226.644" y2="47.4307" stroke="#33334d" stroke-width="1px" />
<line x1="109.743" y1="51.0462" x2="230.259" y2="51.0462" stroke="#33334d" stroke-width="1px" />
<line x1="225.438" y1="167.948" x2="225.438" y2="47.4307" stroke="#33334d" stroke-width="1px" />
<line x1="109.743" y1="52.2513" x2="230.259" y2="52.2513" stroke="#33334d" stroke-width="1px" />
<line x1="224.233" y1="167.948" x2="224.233" y2="47.4307" stroke="#33334d" stroke-width="1px" />
<line x1="109.743" y1="53.4565" x2="230.259" y2="53.4565" stroke="#33334d" stroke-width="1px" />
<line x1="223.028" y1="167.948" x2="223.028" y2="47.4307" stroke="#33334d" stroke-width="1px" />
<line x1="109.743" y1="54.6617" x2="230.259" y2="54.6617" stroke="#33334d" stroke-width="1px" />
<line x1="221.823" y1="167.948" x2="221.823" y2="47.4307" stroke="#33334d" stroke-width="1px" />
<line x1="109.743" y1="55.8668" x2="230.259" y2="55.8668" stroke="#33334d" stroke-width="1px" />
<line x1="220.618" y1="167.948" x2="220.618" y2="47.4307" stroke="#33334d" stroke-width="1px" />
<line x1="109.743" y1="57.072" x2="230.259" y2="57.072" stroke="#33334d" stroke-width="1px" />
<line x1="219.413" y1="167.948" x2="219.413" y2="47.4307" stroke="#33334d" stroke-width="1px" />
<line x1="109.743" y1="58.2772" x2="230.259" y2="58.2772" stroke="#33334d" stroke-width="1px" />
<line x1="217.002" y1="167.948" x2="217.002" y2="47.4307" stroke="#33334d" stroke-width="1px" />
<line x1="109.743" y1="60.6875" x2="230.259" y2="60.6875" stroke="#33334d" stroke-width="1px" />
<line x1="215.797" y1="167.948" x2="215.797" y2="47.4307" stroke="#33334d" stroke-width="1px" />
<line x1="109.743" y1="61.8927" x2="230.259" y2="61.8927" stroke="#33334d" stroke-width="1px" />
<line x1="214.592" y1="167.948" x2="214.592" y2="47.4307" stroke="#33334d" stroke-width="1px" />
<line x1="109.743" y1="63.0978" x2="230.259" y2="63.0978" stroke="#33334d" stroke-width="1px" />
<line x1="213.387" y1="167.948" x2="213.387" y2="47.4307" stroke="#33334d" stroke-width="1px" />
<line x1="109.743" y1="64.303" x2="230.259" y2="64.303" stroke="#33334d" stroke-width="1px" />
<line x1="212.182" y1="167.948" x2="212.182" y2="47.4307" stroke="#33334d" stroke-width="1px" />
<line x1="109.743" y1="65.5082" x2="230.259" y2="65.5082" stroke="#33334d" stroke-width="1px" />
<line x1="210.977" y1="167.948" x2="210.977" y2="47.4307" stroke="#33334d" stroke-width="1px" />
<line x1="109.743" y1="66.7133" x2="230.259" y2="66.7133" stroke="#33334d" stroke-width="1px" />
<line x1="209.771" y1="167.948" x2="209.771" y2="47.4307" stroke="#33334d" stroke-width="1px" />
<line x1="109.743" y1="67.9185" x2="230.259" y2="67.9185" stroke="#33334d" stroke-width="1px" />
<line x1="208.566" y1="167.948" x2="208.566" y2="47.4307" stroke="#33334d" stroke-width="1px" />
<line x1="109.743" y1="69.1237" x2="230.259" y2="69.1237" stroke="#33334d" stroke-width="1px" />
<line x1="207.361" y1="167.948" x2="207.361" y2="47.4307" stroke="#33334d" stroke-width="1px" />
<line x1="109.743" y1="70.3289" x2="230.259" y2="70.3289" stroke="#33334d" stroke-width="1px" />
<line x1="204.951" y1="167.948" x2="204.951" y2="47.4307" stroke="#33334d" stroke-width="1px" />
<line x1="109.743" y1="72.7392" x2="230.259" y2="72.7392" stroke="#33334d" stroke-width="1px" />
<line x1="203.746" y1="167.948" x2="203.746" y2="47.4307" stroke="#33334d" stroke-width="1px" />
<line x1="109.743" y1="73.9444" x2="230.259" y2="73.9444" stroke="#33334d" stroke-width="1px" />
<line x1="202.541" y1="167.948" x2="202.541" y2="47.4307" stroke="#33334d" stroke-width="1px" />
<line x1="109.743" y1="75.1495" x2="230.259" y2="75.1495" stroke="#33334d" stroke-width="1px" />
<line x1="201.335" y1="167.948" x2="201.335" y2="47.4307" stroke="#33334d" stroke-width="1px" />
<line x1="109.743" y1="76.3547" x2="230.259" y2="76.3547" stroke="#33334d" stroke-width="1px" />
<line x1="200.13" y1="167.948" x2="200.13" y2="47.4307" stroke="#33334d" stroke-width="1px" />
<line x1="109.743" y1="77.5599" x2="230.259" y2="77.5599" stroke="#33334d" stroke-width="1px" />
<line x1="198.925" y1="167.948" x2="198.925" y2="47.4307" stroke="#33334d" stroke-width="1px" />
<line x1="109.743" y1="78.765" x2="230.259" y2="78.765" stroke="#33334d" stroke-width="1px" />
<line x1="197.72" y1="167.948" x2="197.72" y2="47.4307" stroke="#33334d" stroke-width="1px" />
<line x1="109.743" y1="79.9702" x2="230.259" y2="79.9702" stroke="#33334d" stroke-width="1px" />
<line x1="196.515" y1="167.948" x2="196.515" y2="47.4307" stroke="#33334d" stroke-width="1px" />
<line x1="109.743" y1="81.1754" x2="230.259" y2="81.1754" stroke="#33334d" stroke-width="1px" />
<line x1="195.31" y1="167.948" x2="195.31" y2="47.4307" stroke="#33334d" stroke-width="1px" />
<line x1="109.743" y1="82.3805" x2="230.259" y2="82.3805" stroke="#33334d" stroke-width="1px" />
<line x1="192.899" y1="167.948" x2="192.899" y2="47.4307" stroke="#33334d" stroke-width="1px" />
<line x1="109.743" y1="84.7909" x2="230.259" y2="84.7909" stroke="#33334d" stroke-width="1px" />
<line x1="191.694" y1="167.948" x2="191.694" y2="47.4307" stroke="#33334d" stroke-width="1px" />
<line x1="109.743" y1="85.996" x2="230.259" y2="85.996" stroke="#33334d" stroke-width="1px" />
<line x1="190.489" y1="167.948" x2="190.489" y2="47.4307" stroke="#33334d" stroke-width="1px" />
<line x1="109.743" y1="87.2012" x2="230.259" y2="87.2012" stroke="#33334d" stroke-width="1px" />
<line x1="189.284" y1="167.948" x2="189.284" y2="47.4307" stroke="#33334d" stroke-width="1px" />
<line x1="109.743" y1="88.4064" x2="230.259" y2="88.4064" stroke="#33334d" stroke-width="1px" />
<line x1="188.079" y1="167.948" x2="188.079" y2="47.4307" stroke="#33334d" stroke-width="1px" />
<line x1="109.743" y1="89.6116" x2="230.259" y2="89.6116" stroke="#33334d" stroke-width="1px" />
<line x1="186.873" y1="167.948" x2="186.873" y2="47.4307" stroke="#33334d" stroke-width="1px" />
<line x1="109.743" y1="90.8167" x2="230.259" y2="90.8167" stroke="#33334d" stroke-width="1px" />
<line x1="185.668" y1="167.948" x2="185.668" y2="47.4307" stroke="#33334d" stroke-width="1px" />
<line x1="109.743" y1="92.0219" x2="230.259" y2="92.0219" stroke="#33334d" stroke-width="1px" />
<line x1="184.463" y1="167.948" x2="184.463" y2="47.4307" stroke="#33334d" stroke-width="1px" />
<line x1="109.743" y1="93.2271" x2="230.259" y2="93.2271" stroke="#33334d" stroke-width="1px" />
<line x1="183.258" y1="167.948" x2="183.258" y2="47.4307" stroke="#33334d" stroke-width="1px" />
<line x1="109.743" y1="94.4322" x2="230.259" y2="94.4322" stroke="#33334d" stroke-width="1px" />
<line x1="180.848" y1="167.948" x2="180.848" y2="47.4307" stroke="#33334d" stroke-width="1px" />
<line x1="109.743" y1="96.8426" x2="230.259" y2="96.8426" stroke="#33334d" stroke-width="1px" />
<line x1="179.643" y1="167.948" x2="179.643" y2="47.4307" stroke="#33334d" stroke-width="1px" />
<line x1="109.743" y1="98.0477" x2="230.259" y2="98.0477" stroke="#33334d" stroke-width="1px" />
<line x1="178.437" y1="167.948" x2="178.437" y2="47.4307" stroke="#33334d" stroke-width="1px" />
<line x1="109.743" y1="99.2529" x2="230.259" y2="99.2529" stroke="#33334d" stroke-width="1px" />
<line x1="177.232" y1="167.948" x2="177.232" y2="47.4307" stroke="#33334d" stroke-width="1px" />
<line x1="109.743" y1="100.458" x2="230.259" y2="100.458" stroke="#33334d" stroke-width="1px" />
<line x1="176.027" y1="167.948" x2="176.027" y2="47.4307" stroke="#33334d" stroke-width="1px" />
<line x1="109.743" y1="101.663" x2="230.259" y2="101.663" stroke="#33334d" stroke-width="1px" />
<line x1="174.822" y1="167.948" x2="174.822" y2="47.4307" stroke="#33334d" stroke-width="1px" />
<line x1="109.743" y1="102.868" x2="230.259" y2="102.868" stroke="#33334d" stroke-width="1px" />
<line x1="173.617" y1="167.948" x2="173.617" y2="47.4307" stroke="#33334d" stroke-width="1px" />
<line x1="109.743" y1="104.074" x2="230.259" y2="104.074" stroke="#33334d" stroke-width="1px" />
<line x1="172.412" y1="167.948" x2="172.412" y2="47.4307" stroke="#33334d" stroke-width="1px" />
<line x1="109.743" y1="105.279" x2="230.259" y2="105.279" stroke="#33334d" stroke-width="1px" />
<line x1="171.206" y1="167.948" x2="171.206" y2="47.4307" stroke="#33334d" stroke-width="1px" />
<line x1="109.743" y1="106.484" x2="230.259" y2="106.484" stroke="#33334d" stroke-width="1px" />
<line x1="168.796" y1="167.948" x2="168.796" y2="47.4307" stroke="#33334d" stroke-width="1px" />
<line x1="109.743" y1="108.894" x2="230.259" y2="108.894" stroke="#33334d" stroke-width="1px" />
<line x1="167.591" y1="167.948" x2="167.591" y2="47.4307" stroke="#33334d" stroke-width="1px" />
<line x1="109.743" y1="110.099" x2="230.259" y2="110.099" stroke="#33334d" stroke-width="1px" />
<line x1="166.386" y1="167.948" x2="166.386" y2="47.4307" stroke="#33334d" stroke-width="1px" />
<line x1="109.743" y1="111.305" x2="230.259" y2="111.305" stroke="#33334d" stroke-width="1px" />
<line x1="165.181" y1="167.948" x2="165.181" y2="47.4307" stroke="#33334d" stroke-width="1px" />
<line x1="109.743" y1="112.51" x2="230.259" y2="112.51" stroke="#33334d" stroke-width="1px" />
<line x1="163.976" y1="167.948" x2="163.976" y2="47.4307" stroke="#33334d" stroke-width="1px" />
<line x1="109.743" y1="113.715" x2="230.259" y2="113.715" stroke="#33334d" stroke-width="1px" />
<line x1="162.77" y1="167.948" x2="162.77" y2="47.4307" stroke="#33334d" stroke-width="1px" />
<line x1="109.743" y1="114.92" x2="230.259" y2="114.92" stroke="#33334d" stroke-width="1px" />
<line x1="161.565" y1="167.948" x2="161.565" y2="47.4307" stroke="#33334d" stroke-width="1px" />
<line x1="109.743" y1="116.125" x2="230.259" y2="116.125" stroke="#33334d" stroke-width="1px" />
<line x1="160.36" y1="167.948" x2="160.36" y2="47.4307" stroke="#33334d" stroke-width="1px" />
<line x1="109.743" y1="117.33" x2="230.259" y2="117.33" stroke="#33334d" stroke-width="1px" />
<line x1="159.155" y1="167.948" x2="159.155" y2="47.4307" stroke="#33334d" stroke-width="1px" />
<line x1="109.743" y1="118.536" x2="230.259" y2="118.536" stroke="#33334d" stroke-width="1px" />
<line x1="156.745" y1="167.948" x2="156.745" y2="47.4307" stroke="#33334d" stroke-width="1px" />
<line x1="109.743" y1="120.946" x2="230.259" y2="120.946" stroke="#33334d" stroke-width="1px" />
<line x1="155.539" y1="167.948" x2="155.539" y2="47.4307" stroke="#33334d" stroke-width="1px" />
<line x1="109.743" y1="122.151" x2="230.259" y2="122.151" stroke="#33334d" stroke-width="1px" />
<line x1="154.334" y1="167.948" x2="154.334" y2="47.4307" stroke="#33334d" stroke-width="1px" />
<line x1="109.743" y1="123.356" x2="230.259" y2="123.356" stroke="#33334d" stroke-width="1px" />
<line x1="153.129" y1="167.948" x2="153.129" y2="47.4307" stroke="#33334d" stroke-width="1px" />
<line x1="109.743" y1="124.561" x2="230.259" y2="124.561" stroke="#33334d" stroke-width="1px" />
<line x1="151.924" y1="167.948" x2="151.924" y2="47.4307" stroke="#33334d" stroke-width="1px" />
<line x1="109.743" y1="125.767" x2="230.259" y2="125.767" stroke="#33334d" stroke-width="1px" />
<line x1="150.719" y1="167.948" x2="150.719" y2="47.4307" stroke="#33334d" stroke-width="1px" />
<line x1="109.743" y1="126.972" x2="230.259" y2="126.972" stroke="#33334d" stroke-width="1px" />
<line x1="149.514" y1="167.948" x2="149.514" y2="47.4307" stroke="#33334d" stroke-width="1px" />
<line x1="109.743" y1="128.177" x2="230.259" y2="128.177" stroke="#33334d" stroke-width="1px" />
<line x1="148.308" y1="167.948" x2="148.308" y2="47.4307" stroke="#33334d" stroke-width="1px" />
<line x1="109.743" y1="129.382" x2="230.259" y2="129.382" stroke="#33334d" stroke-width="1px" />
<line x1="147.103" y1="167.948" x2="147.103" y2="47.4307" stroke="#33334d" stroke-width="1px" />
<line x1="109.743" y1="130.587" x2="230.259" y2="130.587" stroke="#33334d" stroke-width="1px" />
<line x1="144.693" y1="167.948" x2="144.693" y2="47.4307" stroke="#33334d" stroke-width="1px" />
<line x1="109.743" y1="132.998" x2="230.259" y2="132.998" stroke="#33334d" stroke-width="1px" />
<line x1="143.488" y1="167.948" x2="143.488" y2="47.4307" stroke="#33334d" stroke-width="1px" />
<line x1="109.743" y1="134.203" x2="230.259" y2="134.203" stroke="#33334d" stroke-width="1px" />
<line x1="142.283" y1="167.948" x2="142.283" y2="47.4307" stroke="#33334d" stroke-width="1px" />
<line x1="109.743" y1="135.408" x2="230.259" y2="135.408" stroke="#33334d" stroke-width="1px" />
<line x1="141.078" y1="167.948" x2="141.078" y2="47.4307" stroke="#33334d" stroke-width="1px" />
<line x1="109.743" y1="136.613" x2="230.259" y2="136.613" stroke="#33334d" stroke-width="1px" />
<line x1="139.872" y1="167.948" x2="139.872" y2="47.4307" stroke="#33334d" stroke-width="1px" />
<line x1="109.743" y1="137.818" x2="230.259" y2="137.818" stroke="#33334d" stroke-width="1px" />
<line x1="138.667" y1="167.948" x2="138.667" y2="47.4307" stroke="#33334d" stroke-width="1px" />
<line x1="109.743" y1="139.023" x2="230.259" y2="139.023" stroke="#33334d" stroke-width="1px" />
<line x1="137.462" y1="167.948" x2="137.462" y2="47.4307" stroke="#33334d" stroke-width="1px" />
<line x1="109.743" y1="140.229" x2="230.259" y2="140.229" stroke="#33334d" stroke-width="1px" />
<line x1="136.257" y1="167.948" x2="136.257" y2="47.4307" stroke="#33334d" stroke-width="1px" />
<line x1="109.743" y1="141.434" x2="230.259" y2="141.434" stroke="#33334d" stroke-width="1px" />
<line x1="135.052" y1="167.948" x2="135.052" y2="47.4307" stroke="#33334d" stroke-width="1px" />
<line x1="109.743" y1="142.639" x2="230.259" y2="142.639" stroke="#33334d" stroke-width="1px" />
<line x1="132.641" y1="167.948" x2="132.641" y2="47.4307" stroke="#33334d" stroke-width="1px" />
<line x1="109.743" y1="145.049" x2="230.259" y2="145.049" stroke="#33334d" stroke-width="1px" />
<line x1="131.436" y1="167.948" x2="131.436" y2="47.4307" stroke="#33334d" stroke-width="1px" />
<line x1="109.743" y1="146.254" x2="230.259" y2="146.254" stroke="#33334d" stroke-width="1px" />
<line x1="130.231" y1="167.948" x2="130.231" y2="47.4307" stroke="#33334d" stroke-width="1px" />
<line x1="109.743" y1="147.46" x2="230.259" y2="147.46" stroke="#33334d" stroke-width="1px" />
<line x1="129.026" y1="167.948" x2="129.026" y2="47.4307" stroke="#33334d" stroke-width="1px" />
<line x1="109.743" y1="148.665" x2="230.259" y2="148.665" stroke="#33334d" stroke-width="1px" />
<line x1="127.821" y1="167.948" x2="127.821" y2="47.4307" stroke="#33334d" stroke-width="1px" />
<line x1="109.743" y1="149.87" x2="230.259" y2="149.87" stroke="#33334d" stroke-width="1px" />
<line x1="126.616" y1="167.948" x2="126.616" y2="47.4307" stroke="#33334d" stroke-width="1px" />
<line x1="109.743" y1="151.075" x2="230.259" y2="151.075" stroke="#33334d" stroke-width="1px" />
<line x1="125.411" y1="167.948" x2="125.411" y2="47.4307" stroke="#33334d" stroke-width="1px" />
<line x1="109.743" y1="152.28" x2="230.259" y2="152.28" stroke="#33334d" stroke-width="1px" />
<line x1="124.205" y1="167.948" x2="124.205" y2="47.4307" stroke="#33334d" stroke-width="1px" />
<line x1="109.743" y1="153.486" x2="230.259" y2="153.486" stroke="#33334d" stroke-width="1px" />
<line x1="123" y1="167.948" x2="123" y2="47.4307" stroke="#33334d" stroke-width="1px" />
<line x1="109.743" y1="154.691" x2="230.259" y2="154.691" stroke="#33334d" stroke-width="1px" />
<line x1="120.59" y1="167.948" x2="120.59" y2="47.4307" stroke="#33334d" stroke-width="1px" />
<line x1="109.743" y1="157.101" x2="230.259" y2="157.101" stroke="#33334d" stroke-width="1px" />
<line x1="119.385" y1="167.948" x2="119.385" y2="47.4307" stroke="#33334d" stroke-width="1px" />
<line x1="109.743" y1="158.306" x2="230.259" y2="158.306" stroke="#33334d" stroke-width="1px" />
<line x1="118.18" y1="167.948" x2="118.18" y2="47.4307" stroke="#33334d" stroke-width="1px" />
<line x1="109.743" y1="159.511" x2="230.259" y2="159.511" stroke="#33334d" stroke-width="1px" />
<line x1="116.974" y1="167.948" x2="116.974" y2="47.4307" stroke="#33334d" stroke-width="1px" />
<line x1="109.743" y1="160.717" x2="230.259" y2="160.717" stroke="#33334d" stroke-width="1px" />
<line x1="115.769" y1="167.948" x2="115.769" y2="47.4307" stroke="#33334d" stroke-width="1px" />
<line x1="109.743" y1="161.922" x2="230.259" y2="161.922" stroke="#33334d" stroke-width="1px" />
<line x1="114.564" y1="167.948" x2="114.564" y2="47.4307" stroke="#33334d" stroke-width="1px" />
<line x1="109.743" y1="163.127" x2="230.259" y2="163.127" stroke="#33334d" stroke-width="1px" />
<line x1="113.359" y1="167.948" x2="113.359" y2="47.4307" stroke="#33334d" stroke-width="1px" />
<line x1="109.743" y1="164.332" x2="230.259" y2="164.332" stroke="#33334d" stroke-width="1px" />
<line x1="112.154" y1="167.948" x2="112.154" y2="47.4307" stroke="#33334d" stroke-width="1px" />
<line x1="109.743" y1="165.537" x2="230.259" y2="165.537" stroke="#33334d" stroke-width="1px" />
<line x1="110.949" y1="167.948" x2="110.949" y2="47.4307" stroke="#33334d" stroke-width="1px" />
<line x1="109.743" y1="166.742" x2="230.259" y2="166.742" stroke="#33334d" stroke-width="1px" />
<line x1="139.872" y1="170.311" x2="200.13" y2="170.311" stroke="#191919" stroke-width="1px" />
<line x1="139.872" y1="159.874" x2="139.872" y2="170.311" stroke="#191919" stroke-width="1px" />
<line x1="109.743" y1="107.689" x2="139.872" y2="159.874" stroke="#191919" stroke-width="1px" />
<line x1="139.872" y1="55.5038" x2="109.743" y2="107.689" stroke="#191919" stroke-width="1px" />
<line x1="200.13" y1="55.5038" x2="139.872" y2="55.5038" stroke="#191919" stroke-width="1px" />
<line x1="230.259" y1="107.689" x2="200.13" y2="55.5038" stroke="#191919" stroke-width="1px" />
<line x1="200.13" y1="159.874" x2="230.259" y2="107.689" stroke="#191919" stroke-width="1px" />
<line x1="200.13" y1="170.311" x2="200.13" y2="159.874" stroke="#191919" stroke-width="1px" />
</g>
</svg>