G04 #@! TF.FileFunction,Copper,L2,Bot,Signal*
%FSLAX46Y46*%
G04 Gerber Fmt 4.6, Leading zero omitted, Abs format (unit mm)*
G04 Created by KiCad (PCBNEW 4.0.2+dfsg1-stable) date Fri 05 Oct 2018 02:53:01 AM EDT*
%MOMM*%
G01*
G04 APERTURE LIST*
%ADD10C,0.100000*%
%ADD11C,4.470400*%
%ADD12C,1.727200*%
%ADD13R,1.727200X2.032000*%
%ADD14O,1.727200X2.032000*%
%ADD15C,0.254000*%
G04 APERTURE END LIST*
D10*
D11*
X151892000Y-106172000D03*
D10*
G36*
X127908237Y-112073078D02*
X126686922Y-110851763D01*
X128123763Y-109414922D01*
X129345078Y-110636237D01*
X127908237Y-112073078D01*
X127908237Y-112073078D01*
G37*
D12*
X129704288Y-112647814D02*
X129919814Y-112432288D01*
X131500339Y-114443865D02*
X131715865Y-114228339D01*
X133296391Y-116239917D02*
X133511917Y-116024391D01*
D13*
X152908000Y-77724000D03*
D14*
X150368000Y-77724000D03*
X147828000Y-77724000D03*
X145288000Y-77724000D03*
D15*
G36*
X197710131Y-105003600D02*
X172907873Y-147962370D01*
X172893348Y-148005160D01*
X172868243Y-148042732D01*
X172850762Y-148130615D01*
X172821961Y-148215460D01*
X172824916Y-148260549D01*
X172816100Y-148304870D01*
X172816100Y-156280124D01*
X124186100Y-156280124D01*
X124186100Y-148304870D01*
X124177284Y-148260549D01*
X124180239Y-148215460D01*
X124151438Y-148130615D01*
X124133957Y-148042732D01*
X124108852Y-148005160D01*
X124094327Y-147962370D01*
X102663344Y-110842819D01*
X126039544Y-110842819D01*
X126087068Y-111095390D01*
X126229113Y-111309572D01*
X127450428Y-112530887D01*
X127648131Y-112665972D01*
X127899293Y-112720456D01*
X128151864Y-112672932D01*
X128187006Y-112649626D01*
X128182817Y-112670685D01*
X128296891Y-113244175D01*
X128621747Y-113730355D01*
X129107927Y-114055211D01*
X129681417Y-114169285D01*
X130052726Y-114095427D01*
X129978868Y-114466736D01*
X130092942Y-115040226D01*
X130417798Y-115526406D01*
X130903978Y-115851262D01*
X131477468Y-115965336D01*
X131848778Y-115891478D01*
X131774920Y-116262788D01*
X131888994Y-116836278D01*
X132213850Y-117322458D01*
X132700030Y-117647314D01*
X133273520Y-117761388D01*
X133847010Y-117647314D01*
X134333190Y-117322458D01*
X134594458Y-117061190D01*
X134919314Y-116575010D01*
X135033388Y-116001520D01*
X134919314Y-115428030D01*
X134594458Y-114941850D01*
X134108278Y-114616994D01*
X133534788Y-114502920D01*
X133163478Y-114576778D01*
X133237336Y-114205468D01*
X133123262Y-113631978D01*
X132798406Y-113145798D01*
X132312226Y-112820942D01*
X131738736Y-112706868D01*
X131367427Y-112780726D01*
X131441285Y-112409417D01*
X131327211Y-111835927D01*
X131002355Y-111349747D01*
X130516175Y-111024891D01*
X129942685Y-110910817D01*
X129925785Y-110914179D01*
X129937972Y-110896343D01*
X129992456Y-110645181D01*
X129944932Y-110392610D01*
X129802887Y-110178428D01*
X128581572Y-108957113D01*
X128383869Y-108822028D01*
X128132707Y-108767544D01*
X127880136Y-108815068D01*
X127665954Y-108957113D01*
X126229113Y-110393954D01*
X126094028Y-110591657D01*
X126039544Y-110842819D01*
X102663344Y-110842819D01*
X101147204Y-108216787D01*
X150026818Y-108216787D01*
X150276253Y-108611951D01*
X151332973Y-109044541D01*
X152474800Y-109039812D01*
X153507747Y-108611951D01*
X153757182Y-108216787D01*
X151892000Y-106351605D01*
X150026818Y-108216787D01*
X101147204Y-108216787D01*
X99643891Y-105612973D01*
X149019459Y-105612973D01*
X149024188Y-106754800D01*
X149452049Y-107787747D01*
X149847213Y-108037182D01*
X151712395Y-106172000D01*
X152071605Y-106172000D01*
X153936787Y-108037182D01*
X154331951Y-107787747D01*
X154764541Y-106731027D01*
X154759812Y-105589200D01*
X154331951Y-104556253D01*
X153936787Y-104306818D01*
X152071605Y-106172000D01*
X151712395Y-106172000D01*
X149847213Y-104306818D01*
X149452049Y-104556253D01*
X149019459Y-105612973D01*
X99643891Y-105612973D01*
X99292069Y-105003600D01*
X99798051Y-104127213D01*
X150026818Y-104127213D01*
X151892000Y-105992395D01*
X153757182Y-104127213D01*
X153507747Y-103732049D01*
X152451027Y-103299459D01*
X151309200Y-103304188D01*
X150276253Y-103732049D01*
X150026818Y-104127213D01*
X99798051Y-104127213D01*
X115148616Y-77539255D01*
X143789400Y-77539255D01*
X143789400Y-77908745D01*
X143903474Y-78482234D01*
X144228330Y-78968415D01*
X144714511Y-79293271D01*
X145288000Y-79407345D01*
X145861489Y-79293271D01*
X146347670Y-78968415D01*
X146558000Y-78653634D01*
X146768330Y-78968415D01*
X147254511Y-79293271D01*
X147828000Y-79407345D01*
X148401489Y-79293271D01*
X148887670Y-78968415D01*
X149098000Y-78653634D01*
X149308330Y-78968415D01*
X149794511Y-79293271D01*
X150368000Y-79407345D01*
X150941489Y-79293271D01*
X151427670Y-78968415D01*
X151437243Y-78954087D01*
X151441238Y-78975317D01*
X151580310Y-79191441D01*
X151792510Y-79336431D01*
X152044400Y-79387440D01*
X153771600Y-79387440D01*
X154006917Y-79343162D01*
X154223041Y-79204090D01*
X154368031Y-78991890D01*
X154419040Y-78740000D01*
X154419040Y-76708000D01*
X154374762Y-76472683D01*
X154235690Y-76256559D01*
X154023490Y-76111569D01*
X153771600Y-76060560D01*
X152044400Y-76060560D01*
X151809083Y-76104838D01*
X151592959Y-76243910D01*
X151447969Y-76456110D01*
X151439600Y-76497439D01*
X151427670Y-76479585D01*
X150941489Y-76154729D01*
X150368000Y-76040655D01*
X149794511Y-76154729D01*
X149308330Y-76479585D01*
X149098000Y-76794366D01*
X148887670Y-76479585D01*
X148401489Y-76154729D01*
X147828000Y-76040655D01*
X147254511Y-76154729D01*
X146768330Y-76479585D01*
X146558000Y-76794366D01*
X146347670Y-76479585D01*
X145861489Y-76154729D01*
X145288000Y-76040655D01*
X144714511Y-76154729D01*
X144228330Y-76479585D01*
X143903474Y-76965766D01*
X143789400Y-77539255D01*
X115148616Y-77539255D01*
X123896585Y-62387330D01*
X173105615Y-62387330D01*
X197710131Y-105003600D01*
X197710131Y-105003600D01*
G37*
X197710131Y-105003600D02*
X172907873Y-147962370D01*
X172893348Y-148005160D01*
X172868243Y-148042732D01*
X172850762Y-148130615D01*
X172821961Y-148215460D01*
X172824916Y-148260549D01*
X172816100Y-148304870D01*
X172816100Y-156280124D01*
X124186100Y-156280124D01*
X124186100Y-148304870D01*
X124177284Y-148260549D01*
X124180239Y-148215460D01*
X124151438Y-148130615D01*
X124133957Y-148042732D01*
X124108852Y-148005160D01*
X124094327Y-147962370D01*
X102663344Y-110842819D01*
X126039544Y-110842819D01*
X126087068Y-111095390D01*
X126229113Y-111309572D01*
X127450428Y-112530887D01*
X127648131Y-112665972D01*
X127899293Y-112720456D01*
X128151864Y-112672932D01*
X128187006Y-112649626D01*
X128182817Y-112670685D01*
X128296891Y-113244175D01*
X128621747Y-113730355D01*
X129107927Y-114055211D01*
X129681417Y-114169285D01*
X130052726Y-114095427D01*
X129978868Y-114466736D01*
X130092942Y-115040226D01*
X130417798Y-115526406D01*
X130903978Y-115851262D01*
X131477468Y-115965336D01*
X131848778Y-115891478D01*
X131774920Y-116262788D01*
X131888994Y-116836278D01*
X132213850Y-117322458D01*
X132700030Y-117647314D01*
X133273520Y-117761388D01*
X133847010Y-117647314D01*
X134333190Y-117322458D01*
X134594458Y-117061190D01*
X134919314Y-116575010D01*
X135033388Y-116001520D01*
X134919314Y-115428030D01*
X134594458Y-114941850D01*
X134108278Y-114616994D01*
X133534788Y-114502920D01*
X133163478Y-114576778D01*
X133237336Y-114205468D01*
X133123262Y-113631978D01*
X132798406Y-113145798D01*
X132312226Y-112820942D01*
X131738736Y-112706868D01*
X131367427Y-112780726D01*
X131441285Y-112409417D01*
X131327211Y-111835927D01*
X131002355Y-111349747D01*
X130516175Y-111024891D01*
X129942685Y-110910817D01*
X129925785Y-110914179D01*
X129937972Y-110896343D01*
X129992456Y-110645181D01*
X129944932Y-110392610D01*
X129802887Y-110178428D01*
X128581572Y-108957113D01*
X128383869Y-108822028D01*
X128132707Y-108767544D01*
X127880136Y-108815068D01*
X127665954Y-108957113D01*
X126229113Y-110393954D01*
X126094028Y-110591657D01*
X126039544Y-110842819D01*
X102663344Y-110842819D01*
X101147204Y-108216787D01*
X150026818Y-108216787D01*
X150276253Y-108611951D01*
X151332973Y-109044541D01*
X152474800Y-109039812D01*
X153507747Y-108611951D01*
X153757182Y-108216787D01*
X151892000Y-106351605D01*
X150026818Y-108216787D01*
X101147204Y-108216787D01*
X99643891Y-105612973D01*
X149019459Y-105612973D01*
X149024188Y-106754800D01*
X149452049Y-107787747D01*
X149847213Y-108037182D01*
X151712395Y-106172000D01*
X152071605Y-106172000D01*
X153936787Y-108037182D01*
X154331951Y-107787747D01*
X154764541Y-106731027D01*
X154759812Y-105589200D01*
X154331951Y-104556253D01*
X153936787Y-104306818D01*
X152071605Y-106172000D01*
X151712395Y-106172000D01*
X149847213Y-104306818D01*
X149452049Y-104556253D01*
X149019459Y-105612973D01*
X99643891Y-105612973D01*
X99292069Y-105003600D01*
X99798051Y-104127213D01*
X150026818Y-104127213D01*
X151892000Y-105992395D01*
X153757182Y-104127213D01*
X153507747Y-103732049D01*
X152451027Y-103299459D01*
X151309200Y-103304188D01*
X150276253Y-103732049D01*
X150026818Y-104127213D01*
X99798051Y-104127213D01*
X115148616Y-77539255D01*
X143789400Y-77539255D01*
X143789400Y-77908745D01*
X143903474Y-78482234D01*
X144228330Y-78968415D01*
X144714511Y-79293271D01*
X145288000Y-79407345D01*
X145861489Y-79293271D01*
X146347670Y-78968415D01*
X146558000Y-78653634D01*
X146768330Y-78968415D01*
X147254511Y-79293271D01*
X147828000Y-79407345D01*
X148401489Y-79293271D01*
X148887670Y-78968415D01*
X149098000Y-78653634D01*
X149308330Y-78968415D01*
X149794511Y-79293271D01*
X150368000Y-79407345D01*
X150941489Y-79293271D01*
X151427670Y-78968415D01*
X151437243Y-78954087D01*
X151441238Y-78975317D01*
X151580310Y-79191441D01*
X151792510Y-79336431D01*
X152044400Y-79387440D01*
X153771600Y-79387440D01*
X154006917Y-79343162D01*
X154223041Y-79204090D01*
X154368031Y-78991890D01*
X154419040Y-78740000D01*
X154419040Y-76708000D01*
X154374762Y-76472683D01*
X154235690Y-76256559D01*
X154023490Y-76111569D01*
X153771600Y-76060560D01*
X152044400Y-76060560D01*
X151809083Y-76104838D01*
X151592959Y-76243910D01*
X151447969Y-76456110D01*
X151439600Y-76497439D01*
X151427670Y-76479585D01*
X150941489Y-76154729D01*
X150368000Y-76040655D01*
X149794511Y-76154729D01*
X149308330Y-76479585D01*
X149098000Y-76794366D01*
X148887670Y-76479585D01*
X148401489Y-76154729D01*
X147828000Y-76040655D01*
X147254511Y-76154729D01*
X146768330Y-76479585D01*
X146558000Y-76794366D01*
X146347670Y-76479585D01*
X145861489Y-76154729D01*
X145288000Y-76040655D01*
X144714511Y-76154729D01*
X144228330Y-76479585D01*
X143903474Y-76965766D01*
X143789400Y-77539255D01*
X115148616Y-77539255D01*
X123896585Y-62387330D01*
X173105615Y-62387330D01*
X197710131Y-105003600D01*
M02*
