G04 #@! TF.FileFunction,Legend,Top*
%FSLAX46Y46*%
G04 Gerber Fmt 4.6, Leading zero omitted, Abs format (unit mm)*
G04 Created by KiCad (PCBNEW 4.0.2+dfsg1-stable) date Fri 05 Oct 2018 02:53:01 AM EDT*
%MOMM*%
G01*
G04 APERTURE LIST*
%ADD10C,0.100000*%
%ADD11C,0.381000*%
%ADD12C,0.150000*%
%ADD13C,0.190500*%
G04 APERTURE END LIST*
D10*
D11*
X153594145Y-106172000D02*
G75*
G03X153594145Y-106172000I-1702145J0D01*
G01*
D12*
X128016000Y-112540051D02*
X133404154Y-117928205D01*
X129812051Y-110744000D02*
X135200205Y-116132154D01*
X128016000Y-108551969D02*
X129112016Y-109647984D01*
X133404154Y-117928205D02*
X135200205Y-116132154D01*
X129812051Y-110744000D02*
X128016000Y-112540051D01*
X126919984Y-111840016D02*
X125823969Y-110744000D01*
X125823969Y-110744000D02*
X128016000Y-108551969D01*
X118255000Y-119463443D02*
X118904519Y-119088443D01*
X118904519Y-119088443D02*
X121154519Y-122985557D01*
X121154519Y-122985557D02*
X119855481Y-123735557D01*
X119855481Y-123735557D02*
X117605481Y-119838443D01*
X117605481Y-119838443D02*
X118255000Y-119463443D01*
X151638000Y-76454000D02*
X144018000Y-76454000D01*
X151638000Y-78994000D02*
X144018000Y-78994000D01*
X154458000Y-79274000D02*
X152908000Y-79274000D01*
X144018000Y-76454000D02*
X144018000Y-78994000D01*
X151638000Y-78994000D02*
X151638000Y-76454000D01*
X152908000Y-76174000D02*
X154458000Y-76174000D01*
X154458000Y-76174000D02*
X154458000Y-79274000D01*
X150586000Y-71628000D02*
X150586000Y-72378000D01*
X150586000Y-72378000D02*
X146086000Y-72378000D01*
X146086000Y-72378000D02*
X146086000Y-70878000D01*
X146086000Y-70878000D02*
X150586000Y-70878000D01*
X150586000Y-70878000D02*
X150586000Y-71628000D01*
D13*
X151329572Y-104215474D02*
X151329572Y-103453474D01*
X151619857Y-103453474D01*
X151692429Y-103489760D01*
X151728714Y-103526046D01*
X151765000Y-103598617D01*
X151765000Y-103707474D01*
X151728714Y-103780046D01*
X151692429Y-103816331D01*
X151619857Y-103852617D01*
X151329572Y-103852617D01*
X152490714Y-104215474D02*
X152055286Y-104215474D01*
X152273000Y-104215474D02*
X152273000Y-103453474D01*
X152200429Y-103562331D01*
X152127857Y-103634903D01*
X152055286Y-103671189D01*
D12*
X124207725Y-107979549D02*
X123500618Y-107272442D01*
X123769992Y-107003067D01*
X123871008Y-106969396D01*
X123938351Y-106969396D01*
X124039366Y-107003067D01*
X124140381Y-107104083D01*
X124174053Y-107205098D01*
X124174053Y-107272441D01*
X124140381Y-107373456D01*
X123871007Y-107642831D01*
X124241396Y-106666350D02*
X124241396Y-106599007D01*
X124275068Y-106497992D01*
X124443427Y-106329632D01*
X124544443Y-106295961D01*
X124611786Y-106295961D01*
X124712801Y-106329632D01*
X124780145Y-106396976D01*
X124847488Y-106531663D01*
X124847488Y-107339785D01*
X125285221Y-106902052D01*
X117103635Y-121873981D02*
X117969660Y-121373981D01*
X118160137Y-121703896D01*
X118166517Y-121810184D01*
X118149087Y-121875233D01*
X118090418Y-121964092D01*
X117966700Y-122035520D01*
X117860412Y-122041900D01*
X117795363Y-122024470D01*
X117706505Y-121965801D01*
X117516029Y-121635886D01*
X118422041Y-122157528D02*
X118731565Y-122693640D01*
X118234984Y-122595440D01*
X118306413Y-122719159D01*
X118312793Y-122825447D01*
X118295363Y-122890495D01*
X118236693Y-122979354D01*
X118030497Y-123098402D01*
X117924209Y-123104781D01*
X117859160Y-123087352D01*
X117770302Y-123028683D01*
X117627445Y-122781246D01*
X117621065Y-122674958D01*
X117638495Y-122609909D01*
X158460381Y-78462095D02*
X157460381Y-78462095D01*
X157460381Y-78081142D01*
X157508000Y-77985904D01*
X157555619Y-77938285D01*
X157650857Y-77890666D01*
X157793714Y-77890666D01*
X157888952Y-77938285D01*
X157936571Y-77985904D01*
X157984190Y-78081142D01*
X157984190Y-78462095D01*
X157793714Y-77033523D02*
X158460381Y-77033523D01*
X157412762Y-77271619D02*
X158127048Y-77509714D01*
X158127048Y-76890666D01*
X147597905Y-70330381D02*
X147597905Y-69330381D01*
X147978858Y-69330381D01*
X148074096Y-69378000D01*
X148121715Y-69425619D01*
X148169334Y-69520857D01*
X148169334Y-69663714D01*
X148121715Y-69758952D01*
X148074096Y-69806571D01*
X147978858Y-69854190D01*
X147597905Y-69854190D01*
X149074096Y-69330381D02*
X148597905Y-69330381D01*
X148550286Y-69806571D01*
X148597905Y-69758952D01*
X148693143Y-69711333D01*
X148931239Y-69711333D01*
X149026477Y-69758952D01*
X149074096Y-69806571D01*
X149121715Y-69901810D01*
X149121715Y-70139905D01*
X149074096Y-70235143D01*
X149026477Y-70282762D01*
X148931239Y-70330381D01*
X148693143Y-70330381D01*
X148597905Y-70282762D01*
X148550286Y-70235143D01*
M02*
