G04 #@! TF.FileFunction,Soldermask,Top*
%FSLAX46Y46*%
G04 Gerber Fmt 4.6, Leading zero omitted, Abs format (unit mm)*
G04 Created by KiCad (PCBNEW 4.0.2+dfsg1-stable) date Fri 05 Oct 2018 02:53:01 AM EDT*
%MOMM*%
G01*
G04 APERTURE LIST*
%ADD10C,0.100000*%
%ADD11C,4.870400*%
%ADD12C,2.127200*%
%ADD13R,2.127200X2.432000*%
%ADD14O,2.127200X2.432000*%
%ADD15R,0.850000X1.400000*%
%ADD16R,1.000000X1.400000*%
%ADD17R,0.750000X1.400000*%
%ADD18R,0.900000X1.400000*%
G04 APERTURE END LIST*
D10*
D11*
X151892000Y-106172000D03*
D10*
G36*
X127908237Y-112355921D02*
X126404079Y-110851763D01*
X128123763Y-109132079D01*
X129627921Y-110636237D01*
X127908237Y-112355921D01*
X127908237Y-112355921D01*
G37*
D12*
X129704288Y-112647814D02*
X129919814Y-112432288D01*
X131500339Y-114443865D02*
X131715865Y-114228339D01*
X133296391Y-116239917D02*
X133511917Y-116024391D01*
D10*
G36*
X118356795Y-120039757D02*
X119569231Y-119339757D01*
X119994231Y-120075879D01*
X118781795Y-120775879D01*
X118356795Y-120039757D01*
X118356795Y-120039757D01*
G37*
G36*
X118806795Y-120819179D02*
X120019231Y-120119179D01*
X120519231Y-120985205D01*
X119306795Y-121685205D01*
X118806795Y-120819179D01*
X118806795Y-120819179D01*
G37*
G36*
X119306795Y-121685205D02*
X120519231Y-120985205D01*
X120894231Y-121634725D01*
X119681795Y-122334725D01*
X119306795Y-121685205D01*
X119306795Y-121685205D01*
G37*
G36*
X119681795Y-122334725D02*
X120894231Y-121634725D01*
X121344231Y-122414147D01*
X120131795Y-123114147D01*
X119681795Y-122334725D01*
X119681795Y-122334725D01*
G37*
D13*
X152908000Y-77724000D03*
D14*
X150368000Y-77724000D03*
X147828000Y-77724000D03*
X145288000Y-77724000D03*
D15*
X149611000Y-72128000D03*
D16*
X148636000Y-72128000D03*
D17*
X147761000Y-72128000D03*
D18*
X146936000Y-72128000D03*
M02*
