G04 #@! TF.FileFunction,Copper,L1,Top,Signal*
%FSLAX46Y46*%
G04 Gerber Fmt 4.6, Leading zero omitted, Abs format (unit mm)*
G04 Created by KiCad (PCBNEW 4.0.2+dfsg1-stable) date Fri 05 Oct 2018 02:53:01 AM EDT*
%MOMM*%
G01*
G04 APERTURE LIST*
%ADD10C,0.100000*%
%ADD11C,4.470400*%
%ADD12C,1.727200*%
%ADD13R,1.727200X2.032000*%
%ADD14O,1.727200X2.032000*%
%ADD15R,0.450000X1.000000*%
%ADD16R,0.600000X1.000000*%
%ADD17R,0.350000X1.000000*%
%ADD18R,0.500000X1.000000*%
%ADD19C,0.250000*%
%ADD20C,0.254000*%
G04 APERTURE END LIST*
D10*
D11*
X151892000Y-106172000D03*
D10*
G36*
X127908237Y-112073078D02*
X126686922Y-110851763D01*
X128123763Y-109414922D01*
X129345078Y-110636237D01*
X127908237Y-112073078D01*
X127908237Y-112073078D01*
G37*
D12*
X129704288Y-112647814D02*
X129919814Y-112432288D01*
X131500339Y-114443865D02*
X131715865Y-114228339D01*
X133296391Y-116239917D02*
X133511917Y-116024391D01*
D10*
G36*
X118630000Y-120112962D02*
X119496026Y-119612962D01*
X119721026Y-120002674D01*
X118855000Y-120502674D01*
X118630000Y-120112962D01*
X118630000Y-120112962D01*
G37*
G36*
X119080000Y-120892384D02*
X119946026Y-120392384D01*
X120246026Y-120912000D01*
X119380000Y-121412000D01*
X119080000Y-120892384D01*
X119080000Y-120892384D01*
G37*
G36*
X119580000Y-121758411D02*
X120446026Y-121258411D01*
X120621026Y-121561519D01*
X119755000Y-122061519D01*
X119580000Y-121758411D01*
X119580000Y-121758411D01*
G37*
G36*
X119955000Y-122407930D02*
X120821026Y-121907930D01*
X121071026Y-122340942D01*
X120205000Y-122840942D01*
X119955000Y-122407930D01*
X119955000Y-122407930D01*
G37*
D13*
X152908000Y-77724000D03*
D14*
X150368000Y-77724000D03*
X147828000Y-77724000D03*
X145288000Y-77724000D03*
D15*
X149611000Y-72128000D03*
D16*
X148636000Y-72128000D03*
D17*
X147761000Y-72128000D03*
D18*
X146936000Y-72128000D03*
D19*
X127508000Y-111252000D02*
X127000000Y-111252000D01*
X119175513Y-119076487D02*
X127000000Y-111252000D01*
X119175513Y-119076487D02*
X119175513Y-120057818D01*
X127508000Y-111252000D02*
X128016000Y-110744000D01*
X119663013Y-120902192D02*
X119889808Y-120902192D01*
X119889808Y-120902192D02*
X128251949Y-112540051D01*
X128251949Y-112540051D02*
X129812051Y-112540051D01*
X120100513Y-121659965D02*
X120148035Y-121659965D01*
X120148035Y-121659965D02*
X121920000Y-119888000D01*
X121920000Y-119888000D02*
X126056204Y-119888000D01*
X126056204Y-119888000D02*
X131608102Y-114336102D01*
X120513013Y-122374436D02*
X123497564Y-122374436D01*
X129140308Y-120396000D02*
X133404154Y-116132154D01*
X125476000Y-120396000D02*
X129140308Y-120396000D01*
X123497564Y-122374436D02*
X125476000Y-120396000D01*
X152908000Y-77724000D02*
X152908000Y-75425000D01*
X152908000Y-75425000D02*
X149611000Y-72128000D01*
X148636000Y-72128000D02*
X148636000Y-75992000D01*
X148636000Y-75992000D02*
X150368000Y-77724000D01*
X147828000Y-77724000D02*
X147828000Y-72195000D01*
X147828000Y-72195000D02*
X147761000Y-72128000D01*
X146936000Y-72128000D02*
X146936000Y-76076000D01*
X146936000Y-76076000D02*
X145288000Y-77724000D01*
D20*
G36*
X197710131Y-105003600D02*
X172907873Y-147962370D01*
X172893348Y-148005160D01*
X172868243Y-148042732D01*
X172850762Y-148130615D01*
X172821961Y-148215460D01*
X172824916Y-148260549D01*
X172816100Y-148304870D01*
X172816100Y-156280124D01*
X124186100Y-156280124D01*
X124186100Y-148304870D01*
X124177284Y-148260549D01*
X124180239Y-148215460D01*
X124151438Y-148130615D01*
X124133957Y-148042732D01*
X124108852Y-148005160D01*
X124094327Y-147962370D01*
X108061694Y-120193034D01*
X117987530Y-120193034D01*
X118069300Y-120436682D01*
X118294300Y-120826394D01*
X118448941Y-121006457D01*
X118519300Y-121216104D01*
X118819300Y-121735720D01*
X118956758Y-121895776D01*
X119019301Y-122082132D01*
X119194301Y-122385240D01*
X119331759Y-122545295D01*
X119394301Y-122731650D01*
X119644301Y-123164662D01*
X119800305Y-123346313D01*
X120028807Y-123463946D01*
X120285072Y-123483412D01*
X120528720Y-123401642D01*
X120991535Y-123134436D01*
X123497564Y-123134436D01*
X123788403Y-123076584D01*
X124034965Y-122911837D01*
X125790802Y-121156000D01*
X129140308Y-121156000D01*
X129431147Y-121098148D01*
X129677709Y-120933401D01*
X132920034Y-117691076D01*
X133273520Y-117761388D01*
X133847010Y-117647314D01*
X134333190Y-117322458D01*
X134594458Y-117061190D01*
X134919314Y-116575010D01*
X135033388Y-116001520D01*
X134919314Y-115428030D01*
X134594458Y-114941850D01*
X134108278Y-114616994D01*
X133534788Y-114502920D01*
X133163478Y-114576778D01*
X133237336Y-114205468D01*
X133123262Y-113631978D01*
X132798406Y-113145798D01*
X132312226Y-112820942D01*
X131738736Y-112706868D01*
X131367427Y-112780726D01*
X131441285Y-112409417D01*
X131327211Y-111835927D01*
X131002355Y-111349747D01*
X130516175Y-111024891D01*
X129942685Y-110910817D01*
X129925785Y-110914179D01*
X129937972Y-110896343D01*
X129992456Y-110645181D01*
X129944932Y-110392610D01*
X129802887Y-110178428D01*
X128581572Y-108957113D01*
X128383869Y-108822028D01*
X128132707Y-108767544D01*
X127880136Y-108815068D01*
X127665954Y-108957113D01*
X126229113Y-110393954D01*
X126094028Y-110591657D01*
X126039544Y-110842819D01*
X126086235Y-111090963D01*
X118638112Y-118539086D01*
X118473365Y-118785648D01*
X118415513Y-119076487D01*
X118415513Y-119489196D01*
X118306280Y-119552262D01*
X118124629Y-119708266D01*
X118006996Y-119936768D01*
X117987530Y-120193034D01*
X108061694Y-120193034D01*
X101147204Y-108216787D01*
X150026818Y-108216787D01*
X150276253Y-108611951D01*
X151332973Y-109044541D01*
X152474800Y-109039812D01*
X153507747Y-108611951D01*
X153757182Y-108216787D01*
X151892000Y-106351605D01*
X150026818Y-108216787D01*
X101147204Y-108216787D01*
X99643891Y-105612973D01*
X149019459Y-105612973D01*
X149024188Y-106754800D01*
X149452049Y-107787747D01*
X149847213Y-108037182D01*
X151712395Y-106172000D01*
X152071605Y-106172000D01*
X153936787Y-108037182D01*
X154331951Y-107787747D01*
X154764541Y-106731027D01*
X154759812Y-105589200D01*
X154331951Y-104556253D01*
X153936787Y-104306818D01*
X152071605Y-106172000D01*
X151712395Y-106172000D01*
X149847213Y-104306818D01*
X149452049Y-104556253D01*
X149019459Y-105612973D01*
X99643891Y-105612973D01*
X99292069Y-105003600D01*
X99798051Y-104127213D01*
X150026818Y-104127213D01*
X151892000Y-105992395D01*
X153757182Y-104127213D01*
X153507747Y-103732049D01*
X152451027Y-103299459D01*
X151309200Y-103304188D01*
X150276253Y-103732049D01*
X150026818Y-104127213D01*
X99798051Y-104127213D01*
X115148616Y-77539255D01*
X143789400Y-77539255D01*
X143789400Y-77908745D01*
X143903474Y-78482234D01*
X144228330Y-78968415D01*
X144714511Y-79293271D01*
X145288000Y-79407345D01*
X145861489Y-79293271D01*
X146347670Y-78968415D01*
X146558000Y-78653634D01*
X146768330Y-78968415D01*
X147254511Y-79293271D01*
X147828000Y-79407345D01*
X148401489Y-79293271D01*
X148887670Y-78968415D01*
X149098000Y-78653634D01*
X149308330Y-78968415D01*
X149794511Y-79293271D01*
X150368000Y-79407345D01*
X150941489Y-79293271D01*
X151427670Y-78968415D01*
X151437243Y-78954087D01*
X151441238Y-78975317D01*
X151580310Y-79191441D01*
X151792510Y-79336431D01*
X152044400Y-79387440D01*
X153771600Y-79387440D01*
X154006917Y-79343162D01*
X154223041Y-79204090D01*
X154368031Y-78991890D01*
X154419040Y-78740000D01*
X154419040Y-76708000D01*
X154374762Y-76472683D01*
X154235690Y-76256559D01*
X154023490Y-76111569D01*
X153771600Y-76060560D01*
X153668000Y-76060560D01*
X153668000Y-75425000D01*
X153610148Y-75134161D01*
X153445401Y-74887599D01*
X150483440Y-71925638D01*
X150483440Y-71628000D01*
X150439162Y-71392683D01*
X150300090Y-71176559D01*
X150087890Y-71031569D01*
X149836000Y-70980560D01*
X149386000Y-70980560D01*
X149152740Y-71024451D01*
X148936000Y-70980560D01*
X148336000Y-70980560D01*
X148128658Y-71019574D01*
X147936000Y-70980560D01*
X147586000Y-70980560D01*
X147378658Y-71019574D01*
X147186000Y-70980560D01*
X146686000Y-70980560D01*
X146450683Y-71024838D01*
X146234559Y-71163910D01*
X146089569Y-71376110D01*
X146038560Y-71628000D01*
X146038560Y-72628000D01*
X146082838Y-72863317D01*
X146176000Y-73008095D01*
X146176000Y-75761198D01*
X145795579Y-76141619D01*
X145288000Y-76040655D01*
X144714511Y-76154729D01*
X144228330Y-76479585D01*
X143903474Y-76965766D01*
X143789400Y-77539255D01*
X115148616Y-77539255D01*
X123896585Y-62387330D01*
X173105615Y-62387330D01*
X197710131Y-105003600D01*
X197710131Y-105003600D01*
G37*
X197710131Y-105003600D02*
X172907873Y-147962370D01*
X172893348Y-148005160D01*
X172868243Y-148042732D01*
X172850762Y-148130615D01*
X172821961Y-148215460D01*
X172824916Y-148260549D01*
X172816100Y-148304870D01*
X172816100Y-156280124D01*
X124186100Y-156280124D01*
X124186100Y-148304870D01*
X124177284Y-148260549D01*
X124180239Y-148215460D01*
X124151438Y-148130615D01*
X124133957Y-148042732D01*
X124108852Y-148005160D01*
X124094327Y-147962370D01*
X108061694Y-120193034D01*
X117987530Y-120193034D01*
X118069300Y-120436682D01*
X118294300Y-120826394D01*
X118448941Y-121006457D01*
X118519300Y-121216104D01*
X118819300Y-121735720D01*
X118956758Y-121895776D01*
X119019301Y-122082132D01*
X119194301Y-122385240D01*
X119331759Y-122545295D01*
X119394301Y-122731650D01*
X119644301Y-123164662D01*
X119800305Y-123346313D01*
X120028807Y-123463946D01*
X120285072Y-123483412D01*
X120528720Y-123401642D01*
X120991535Y-123134436D01*
X123497564Y-123134436D01*
X123788403Y-123076584D01*
X124034965Y-122911837D01*
X125790802Y-121156000D01*
X129140308Y-121156000D01*
X129431147Y-121098148D01*
X129677709Y-120933401D01*
X132920034Y-117691076D01*
X133273520Y-117761388D01*
X133847010Y-117647314D01*
X134333190Y-117322458D01*
X134594458Y-117061190D01*
X134919314Y-116575010D01*
X135033388Y-116001520D01*
X134919314Y-115428030D01*
X134594458Y-114941850D01*
X134108278Y-114616994D01*
X133534788Y-114502920D01*
X133163478Y-114576778D01*
X133237336Y-114205468D01*
X133123262Y-113631978D01*
X132798406Y-113145798D01*
X132312226Y-112820942D01*
X131738736Y-112706868D01*
X131367427Y-112780726D01*
X131441285Y-112409417D01*
X131327211Y-111835927D01*
X131002355Y-111349747D01*
X130516175Y-111024891D01*
X129942685Y-110910817D01*
X129925785Y-110914179D01*
X129937972Y-110896343D01*
X129992456Y-110645181D01*
X129944932Y-110392610D01*
X129802887Y-110178428D01*
X128581572Y-108957113D01*
X128383869Y-108822028D01*
X128132707Y-108767544D01*
X127880136Y-108815068D01*
X127665954Y-108957113D01*
X126229113Y-110393954D01*
X126094028Y-110591657D01*
X126039544Y-110842819D01*
X126086235Y-111090963D01*
X118638112Y-118539086D01*
X118473365Y-118785648D01*
X118415513Y-119076487D01*
X118415513Y-119489196D01*
X118306280Y-119552262D01*
X118124629Y-119708266D01*
X118006996Y-119936768D01*
X117987530Y-120193034D01*
X108061694Y-120193034D01*
X101147204Y-108216787D01*
X150026818Y-108216787D01*
X150276253Y-108611951D01*
X151332973Y-109044541D01*
X152474800Y-109039812D01*
X153507747Y-108611951D01*
X153757182Y-108216787D01*
X151892000Y-106351605D01*
X150026818Y-108216787D01*
X101147204Y-108216787D01*
X99643891Y-105612973D01*
X149019459Y-105612973D01*
X149024188Y-106754800D01*
X149452049Y-107787747D01*
X149847213Y-108037182D01*
X151712395Y-106172000D01*
X152071605Y-106172000D01*
X153936787Y-108037182D01*
X154331951Y-107787747D01*
X154764541Y-106731027D01*
X154759812Y-105589200D01*
X154331951Y-104556253D01*
X153936787Y-104306818D01*
X152071605Y-106172000D01*
X151712395Y-106172000D01*
X149847213Y-104306818D01*
X149452049Y-104556253D01*
X149019459Y-105612973D01*
X99643891Y-105612973D01*
X99292069Y-105003600D01*
X99798051Y-104127213D01*
X150026818Y-104127213D01*
X151892000Y-105992395D01*
X153757182Y-104127213D01*
X153507747Y-103732049D01*
X152451027Y-103299459D01*
X151309200Y-103304188D01*
X150276253Y-103732049D01*
X150026818Y-104127213D01*
X99798051Y-104127213D01*
X115148616Y-77539255D01*
X143789400Y-77539255D01*
X143789400Y-77908745D01*
X143903474Y-78482234D01*
X144228330Y-78968415D01*
X144714511Y-79293271D01*
X145288000Y-79407345D01*
X145861489Y-79293271D01*
X146347670Y-78968415D01*
X146558000Y-78653634D01*
X146768330Y-78968415D01*
X147254511Y-79293271D01*
X147828000Y-79407345D01*
X148401489Y-79293271D01*
X148887670Y-78968415D01*
X149098000Y-78653634D01*
X149308330Y-78968415D01*
X149794511Y-79293271D01*
X150368000Y-79407345D01*
X150941489Y-79293271D01*
X151427670Y-78968415D01*
X151437243Y-78954087D01*
X151441238Y-78975317D01*
X151580310Y-79191441D01*
X151792510Y-79336431D01*
X152044400Y-79387440D01*
X153771600Y-79387440D01*
X154006917Y-79343162D01*
X154223041Y-79204090D01*
X154368031Y-78991890D01*
X154419040Y-78740000D01*
X154419040Y-76708000D01*
X154374762Y-76472683D01*
X154235690Y-76256559D01*
X154023490Y-76111569D01*
X153771600Y-76060560D01*
X153668000Y-76060560D01*
X153668000Y-75425000D01*
X153610148Y-75134161D01*
X153445401Y-74887599D01*
X150483440Y-71925638D01*
X150483440Y-71628000D01*
X150439162Y-71392683D01*
X150300090Y-71176559D01*
X150087890Y-71031569D01*
X149836000Y-70980560D01*
X149386000Y-70980560D01*
X149152740Y-71024451D01*
X148936000Y-70980560D01*
X148336000Y-70980560D01*
X148128658Y-71019574D01*
X147936000Y-70980560D01*
X147586000Y-70980560D01*
X147378658Y-71019574D01*
X147186000Y-70980560D01*
X146686000Y-70980560D01*
X146450683Y-71024838D01*
X146234559Y-71163910D01*
X146089569Y-71376110D01*
X146038560Y-71628000D01*
X146038560Y-72628000D01*
X146082838Y-72863317D01*
X146176000Y-73008095D01*
X146176000Y-75761198D01*
X145795579Y-76141619D01*
X145288000Y-76040655D01*
X144714511Y-76154729D01*
X144228330Y-76479585D01*
X143903474Y-76965766D01*
X143789400Y-77539255D01*
X115148616Y-77539255D01*
X123896585Y-62387330D01*
X173105615Y-62387330D01*
X197710131Y-105003600D01*
M02*
