  0
SECTION
  2
HEADER
  9
$ACADVER
  1
AC1009
  9
$INSBASE
 10
0.0
 20
0.0
 30
0.0
  9
$EXTMIN
 10
0.0
 20
0.0
 30
0.0
  9
$EXTMAX
 10
0.0
 20
0.0
 30
0.0
  0
ENDSEC
  0
SECTION
  2
TABLES
  0
TABLE
  2
VPORT
 70
0
  0
ENDTAB
  0
TABLE
  2
LTYPE
 70
1
  0
LTYPE
  2
CONTINUOUS
 70
0
  3
Solid line
 72
65
 73
0
 40
0.0
  0
ENDTAB
  0
TABLE
  2
LAYER
 70
1
  0
LAYER
  2
0
 70
64
 62
7
  6
continuous
  0
ENDTAB
  0
TABLE
  2
STYLE
 70
1
  0
STYLE
  2
STANDARD
 70
0
 40
0
 41
1.0
 50
0.0
 71
0
 42
1
 3
ARIAL.TTF
 4

  0
ENDTAB
  0
TABLE
  2
VIEW
 70
0
  0
ENDTAB
  0
ENDSEC
  0
SECTION
  2
BLOCKS
  0
BLOCK
  8
0
  2
ARRAY002
 70
0
 10
0.0
 20
0.0
 30
0.0
  3
ARRAY002
  0
POLYLINE
  8
0
 62
4
 70
1
 66
1
 10
0.0
 20
0.0
 30
0.0
  0
VERTEX
  8
0
 10
-10.0
 20
35.8079299144
 30
0.0
  0
VERTEX
  8
0
 10
10.0
 20
35.8079299144
 30
0.0
  0
VERTEX
  8
0
 10
10.0
 20
42.1579299145
 30
0.0
  0
VERTEX
  8
0
 10
-10.0
 20
42.1579299145
 30
0.0
  0
SEQEND
  8
0
  0
POLYLINE
  8
0
 62
4
 70
1
 66
1
 10
0.0
 20
0.0
 30
0.0
  0
VERTEX
  8
0
 10
-36.0105769628
 20
9.24371091938
 30
0.0
  0
VERTEX
  8
0
 10
-26.0105769628
 20
26.5642189951
 30
0.0
  0
VERTEX
  8
0
 10
-31.5098382769
 20
29.7392189951
 30
0.0
  0
VERTEX
  8
0
 10
-41.5098382769
 20
12.4187109194
 30
0.0
  0
SEQEND
  8
0
  0
POLYLINE
  8
0
 62
4
 70
1
 66
1
 10
0.0
 20
0.0
 30
0.0
  0
VERTEX
  8
0
 10
-26.0105769628
 20
-26.5642189951
 30
0.0
  0
VERTEX
  8
0
 10
-36.0105769628
 20
-9.24371091938
 30
0.0
  0
VERTEX
  8
0
 10
-41.5098382769
 20
-12.4187109194
 30
0.0
  0
VERTEX
  8
0
 10
-31.5098382769
 20
-29.7392189951
 30
0.0
  0
SEQEND
  8
0
  0
POLYLINE
  8
0
 62
4
 70
1
 66
1
 10
0.0
 20
0.0
 30
0.0
  0
VERTEX
  8
0
 10
10.0
 20
-35.8079299144
 30
0.0
  0
VERTEX
  8
0
 10
-10.0
 20
-35.8079299144
 30
0.0
  0
VERTEX
  8
0
 10
-10.0
 20
-42.1579299145
 30
0.0
  0
VERTEX
  8
0
 10
10.0
 20
-42.1579299145
 30
0.0
  0
SEQEND
  8
0
  0
POLYLINE
  8
0
 62
4
 70
1
 66
1
 10
0.0
 20
0.0
 30
0.0
  0
VERTEX
  8
0
 10
36.0105769628
 20
-9.24371091938
 30
0.0
  0
VERTEX
  8
0
 10
26.0105769628
 20
-26.5642189951
 30
0.0
  0
VERTEX
  8
0
 10
31.5098382769
 20
-29.7392189951
 30
0.0
  0
VERTEX
  8
0
 10
41.5098382769
 20
-12.4187109194
 30
0.0
  0
SEQEND
  8
0
  0
POLYLINE
  8
0
 62
4
 70
1
 66
1
 10
0.0
 20
0.0
 30
0.0
  0
VERTEX
  8
0
 10
26.0105769628
 20
26.5642189951
 30
0.0
  0
VERTEX
  8
0
 10
36.0105769628
 20
9.24371091938
 30
0.0
  0
VERTEX
  8
0
 10
41.5098382769
 20
12.4187109194
 30
0.0
  0
VERTEX
  8
0
 10
31.5098382769
 20
29.7392189951
 30
0.0
  0
SEQEND
  8
0
  0
ENDBLK
  0
BLOCK
  8
0
  2
ARRAY003
 70
0
 10
0.0
 20
0.0
 30
0.0
  3
ARRAY003
  0
POLYLINE
  8
0
 62
40
 70
1
 66
1
 10
0.0
 20
0.0
 30
0.0
  0
VERTEX
  8
0
 10
-2.0
 20
33.1410161514
 30
0.0
  0
VERTEX
  8
0
 10
2.0
 20
33.1410161514
 30
0.0
  0
VERTEX
  8
0
 10
2.0
 20
34.6410161514
 30
0.0
  0
VERTEX
  8
0
 10
-2.0
 20
34.6410161514
 30
0.0
  0
SEQEND
  8
0
  0
POLYLINE
  8
0
 62
40
 70
1
 66
1
 10
0.0
 20
0.0
 30
0.0
  0
VERTEX
  8
0
 10
-29.7009618943
 20
14.8384572681
 30
0.0
  0
VERTEX
  8
0
 10
-27.7009618943
 20
18.3025588833
 30
0.0
  0
VERTEX
  8
0
 10
-29.0
 20
19.0525588833
 30
0.0
  0
VERTEX
  8
0
 10
-31.0
 20
15.5884572681
 30
0.0
  0
SEQEND
  8
0
  0
POLYLINE
  8
0
 62
40
 70
1
 66
1
 10
0.0
 20
0.0
 30
0.0
  0
VERTEX
  8
0
 10
-27.7009618943
 20
-18.3025588833
 30
0.0
  0
VERTEX
  8
0
 10
-29.7009618943
 20
-14.8384572681
 30
0.0
  0
VERTEX
  8
0
 10
-31.0
 20
-15.5884572681
 30
0.0
  0
VERTEX
  8
0
 10
-29.0
 20
-19.0525588833
 30
0.0
  0
SEQEND
  8
0
  0
POLYLINE
  8
0
 62
40
 70
1
 66
1
 10
0.0
 20
0.0
 30
0.0
  0
VERTEX
  8
0
 10
2.0
 20
-33.1410161514
 30
0.0
  0
VERTEX
  8
0
 10
-2.0
 20
-33.1410161514
 30
0.0
  0
VERTEX
  8
0
 10
-2.0
 20
-34.6410161514
 30
0.0
  0
VERTEX
  8
0
 10
2.0
 20
-34.6410161514
 30
0.0
  0
SEQEND
  8
0
  0
POLYLINE
  8
0
 62
40
 70
1
 66
1
 10
0.0
 20
0.0
 30
0.0
  0
VERTEX
  8
0
 10
29.7009618943
 20
-14.8384572681
 30
0.0
  0
VERTEX
  8
0
 10
27.7009618943
 20
-18.3025588833
 30
0.0
  0
VERTEX
  8
0
 10
29.0
 20
-19.0525588833
 30
0.0
  0
VERTEX
  8
0
 10
31.0
 20
-15.5884572681
 30
0.0
  0
SEQEND
  8
0
  0
POLYLINE
  8
0
 62
40
 70
1
 66
1
 10
0.0
 20
0.0
 30
0.0
  0
VERTEX
  8
0
 10
27.7009618943
 20
18.3025588833
 30
0.0
  0
VERTEX
  8
0
 10
29.7009618943
 20
14.8384572681
 30
0.0
  0
VERTEX
  8
0
 10
31.0
 20
15.5884572681
 30
0.0
  0
VERTEX
  8
0
 10
29.0
 20
19.0525588833
 30
0.0
  0
SEQEND
  8
0
  0
ENDBLK
  0
BLOCK
  8
0
  2
ARRAY001
 70
0
 10
0.0
 20
0.0
 30
0.0
  3
ARRAY001
  0
ENDBLK
  0
BLOCK
  8
0
  2
ARRAY
 70
0
 10
0.0
 20
0.0
 30
0.0
  3
ARRAY
  0
CIRCLE
  8
0
 62
2
 10
17.1132486541
 20
29.6410161514
 30
0.0
 40
3.0
  0
CIRCLE
  8
0
 62
2
 10
-17.1132486541
 20
29.6410161514
 30
0.0
 40
3.0
  0
CIRCLE
  8
0
 62
2
 10
-34.2264973081
 20
-2.83861822936e-12
 30
0.0
 40
3.0
  0
CIRCLE
  8
0
 62
2
 10
-17.1132486541
 20
-29.6410161514
 30
0.0
 40
3.0
  0
CIRCLE
  8
0
 62
2
 10
17.1132486541
 20
-29.6410161514
 30
0.0
 40
3.0
  0
CIRCLE
  8
0
 62
2
 10
34.2264973081
 20
2.85105272724e-12
 30
0.0
 40
3.0
  0
ENDBLK
  0
BLOCK
  8
0
  2
ARRAY004
 70
0
 10
0.0
 20
0.0
 30
0.0
  3
ARRAY004
  0
ENDBLK
  0
ENDSEC
  0
SECTION
  2
ENTITIES
  0
INSERT
  2
ARRAY002
  8
0
 62
4
 10
0.0
 20
0.0
 30
0.0
  0
POLYLINE
  8
0
 62
0
 70
1
 66
1
 10
0.0
 20
0.0
 30
0.0
  0
VERTEX
  8
0
 10
58.556624327
 20
2.5
 30
0.0
  0
VERTEX
  8
0
 10
31.443375673
 20
49.4615242271
 30
0.0
 42
0.267949192431
  0
VERTEX
  8
0
 10
27.1132486541
 20
51.9615242271
 30
0.0
  0
VERTEX
  8
0
 10
-27.1132486541
 20
51.9615242271
 30
0.0
 42
0.267949192431
  0
VERTEX
  8
0
 10
-31.443375673
 20
49.4615242271
 30
0.0
  0
VERTEX
  8
0
 10
-58.556624327
 20
2.5
 30
0.0
 42
0.267949192431
  0
VERTEX
  8
0
 10
-58.556624327
 20
-2.5
 30
0.0
  0
VERTEX
  8
0
 10
-31.443375673
 20
-49.4615242271
 30
0.0
 42
0.267949192431
  0
VERTEX
  8
0
 10
-27.1132486541
 20
-51.9615242271
 30
0.0
  0
VERTEX
  8
0
 10
27.1132486541
 20
-51.9615242271
 30
0.0
 42
0.267949192431
  0
VERTEX
  8
0
 10
31.443375673
 20
-49.4615242271
 30
0.0
  0
VERTEX
  8
0
 10
58.556624327
 20
-2.5
 30
0.0
 42
0.267949192431
  0
SEQEND
  8
0
  0
INSERT
  2
ARRAY003
  8
0
 62
40
 10
0.0
 20
0.0
 30
0.0
  0
INSERT
  2
ARRAY001
  8
0
 62
0
 10
0.0
 20
0.0
 30
0.0
  0
INSERT
  2
ARRAY
  8
0
 62
2
 10
0.0
 20
0.0
 30
0.0
  0
POLYLINE
  8
0
 62
92
 70
1
 66
1
 10
0.0
 20
0.0
 30
0.0
  0
VERTEX
  8
0
 10
25.0
 20
-51.9615242271
 30
0.0
  0
VERTEX
  8
0
 10
25.0
 20
-43.3012701892
 30
0.0
  0
VERTEX
  8
0
 10
50.0
 20
0.0
 30
0.0
  0
VERTEX
  8
0
 10
25.0
 20
43.3012701892
 30
0.0
  0
VERTEX
  8
0
 10
-25.0
 20
43.3012701892
 30
0.0
  0
VERTEX
  8
0
 10
-50.0
 20
6.12323399574e-15
 30
0.0
  0
VERTEX
  8
0
 10
-25.0
 20
-43.3012701892
 30
0.0
  0
VERTEX
  8
0
 10
-25.0
 20
-51.9615242271
 30
0.0
  0
SEQEND
  8
0
  0
POLYLINE
  8
0
 62
2
 70
1
 66
1
 10
0.0
 20
0.0
 30
0.0
  0
VERTEX
  8
0
 10
28.556624327
 20
2.5
 30
0.0
  0
VERTEX
  8
0
 10
16.443375673
 20
23.4807621135
 30
0.0
 42
0.267949192431
  0
VERTEX
  8
0
 10
12.1132486541
 20
25.9807621135
 30
0.0
  0
VERTEX
  8
0
 10
-12.1132486541
 20
25.9807621135
 30
0.0
 42
0.267949192431
  0
VERTEX
  8
0
 10
-16.443375673
 20
23.4807621135
 30
0.0
  0
VERTEX
  8
0
 10
-28.556624327
 20
2.5
 30
0.0
 42
0.267949192431
  0
VERTEX
  8
0
 10
-28.556624327
 20
-2.5
 30
0.0
  0
VERTEX
  8
0
 10
-16.443375673
 20
-23.4807621135
 30
0.0
 42
0.267949192431
  0
VERTEX
  8
0
 10
-12.1132486541
 20
-25.9807621135
 30
0.0
  0
VERTEX
  8
0
 10
12.1132486541
 20
-25.9807621135
 30
0.0
 42
0.267949192431
  0
VERTEX
  8
0
 10
16.443375673
 20
-23.4807621135
 30
0.0
  0
VERTEX
  8
0
 10
28.556624327
 20
-2.5
 30
0.0
 42
0.267949192431
  0
SEQEND
  8
0
  0
POLYLINE
  8
0
 62
0
 70
1
 66
1
 10
0.0
 20
0.0
 30
0.0
  0
VERTEX
  8
0
 10
38.556624327
 20
2.5
 30
0.0
  0
VERTEX
  8
0
 10
21.443375673
 20
32.1410161514
 30
0.0
 42
0.267949192431
  0
VERTEX
  8
0
 10
17.1132486541
 20
34.6410161514
 30
0.0
  0
VERTEX
  8
0
 10
-17.1132486541
 20
34.6410161514
 30
0.0
 42
0.267949192431
  0
VERTEX
  8
0
 10
-21.443375673
 20
32.1410161514
 30
0.0
  0
VERTEX
  8
0
 10
-38.556624327
 20
2.5
 30
0.0
 42
0.267949192431
  0
VERTEX
  8
0
 10
-38.556624327
 20
-2.5
 30
0.0
  0
VERTEX
  8
0
 10
-21.443375673
 20
-32.1410161514
 30
0.0
 42
0.267949192431
  0
VERTEX
  8
0
 10
-17.1132486541
 20
-34.6410161514
 30
0.0
  0
VERTEX
  8
0
 10
17.1132486541
 20
-34.6410161514
 30
0.0
 42
0.267949192431
  0
VERTEX
  8
0
 10
21.443375673
 20
-32.1410161514
 30
0.0
  0
VERTEX
  8
0
 10
38.556624327
 20
-2.5
 30
0.0
 42
0.267949192431
  0
SEQEND
  8
0
  0
INSERT
  2
ARRAY004
  8
0
 62
92
 10
0.0
 20
0.0
 30
0.0
  0
ENDSEC
  0
EOF
