  0
SECTION
  2
HEADER
  9
$ACADVER
  1
AC1024
  9
$ACADMAINTVER
 70
     6
  9
$DWGCODEPAGE
  3
UNDEFINED
  9
$INSBASE
 10
0.0
 20
0.0
 30
0.0
  9
$EXTMIN
 10
1.000000000000000E+20
 20
1.000000000000000E+20
 30
1.000000000000000E+20
  9
$EXTMAX
 10
-1.000000000000000E+20
 20
-1.000000000000000E+20
 30
-1.000000000000000E+20
  9
$LIMMIN
 10
0.0
 20
0.0
  9
$LIMMAX
 10
12.0
 20
9.0
  9
$ORTHOMODE
 70
     0
  9
$REGENMODE
 70
     1
  9
$FILLMODE
 70
     1
  9
$QTEXTMODE
 70
     0
  9
$MIRRTEXT
 70
     1
  9
$LTSCALE
 40
1.0
  9
$ATTMODE
 70
     1
  9
$TEXTSIZE
 40
0.2
  9
$TRACEWID
 40
0.05
  9
$TEXTSTYLE
  7
Standard
  9
$CLAYER
  8
0
  9
$CELTYPE
  6
ByLayer
  9
$CECOLOR
 62
   256
  9
$CELTSCALE
 40
1.0
  9
$DISPSILH
 70
     0
  9
$DIMSCALE
 40
1.0
  9
$DIMASZ
 40
0.18
  9
$DIMEXO
 40
0.0625
  9
$DIMDLI
 40
0.38
  9
$DIMRND
 40
0.0
  9
$DIMDLE
 40
0.0
  9
$DIMEXE
 40
0.18
  9
$DIMTP
 40
0.0
  9
$DIMTM
 40
0.0
  9
$DIMTXT
 40
0.18
  9
$DIMCEN
 40
0.09
  9
$DIMTSZ
 40
0.0
  9
$DIMTOL
 70
     0
  9
$DIMLIM
 70
     0
  9
$DIMTIH
 70
     1
  9
$DIMTOH
 70
     1
  9
$DIMSE1
 70
     0
  9
$DIMSE2
 70
     0
  9
$DIMTAD
 70
     0
  9
$DIMZIN
 70
     0
  9
$DIMBLK
  1

  9
$DIMASO
 70
     1
  9
$DIMSHO
 70
     1
  9
$DIMPOST
  1

  9
$DIMAPOST
  1

  9
$DIMALT
 70
     0
  9
$DIMALTD
 70
     2
  9
$DIMALTF
 40
25.4
  9
$DIMLFAC
 40
1.0
  9
$DIMTOFL
 70
     0
  9
$DIMTVP
 40
0.0
  9
$DIMTIX
 70
     0
  9
$DIMSOXD
 70
     0
  9
$DIMSAH
 70
     0
  9
$DIMBLK1
  1

  9
$DIMBLK2
  1

  9
$DIMSTYLE
  2
Standard
  9
$DIMCLRD
 70
     0
  9
$DIMCLRE
 70
     0
  9
$DIMCLRT
 70
     0
  9
$DIMTFAC
 40
1.0
  9
$DIMGAP
 40
0.09
  9
$DIMJUST
 70
     0
  9
$DIMSD1
 70
     0
  9
$DIMSD2
 70
     0
  9
$DIMTOLJ
 70
     1
  9
$DIMTZIN
 70
     0
  9
$DIMALTZ
 70
     0
  9
$DIMALTTZ
 70
     0
  9
$DIMUPT
 70
     0
  9
$DIMDEC
 70
     4
  9
$DIMTDEC
 70
     4
  9
$DIMALTU
 70
     2
  9
$DIMALTTD
 70
     2
  9
$DIMTXSTY
  7
Standard
  9
$DIMAUNIT
 70
     0
  9
$DIMADEC
 70
     0
  9
$DIMALTRND
 40
0.0
  9
$DIMAZIN
 70
     0
  9
$DIMDSEP
 70
    46
  9
$DIMATFIT
 70
     3
  9
$DIMFRAC
 70
     0
  9
$DIMLDRBLK
  1

  9
$DIMLUNIT
 70
     2
  9
$DIMLWD
 70
    -2
  9
$DIMLWE
 70
    -2
  9
$DIMTMOVE
 70
     0
  9
$DIMFXL
 40
1.0
  9
$DIMFXLON
 70
     0
  9
$DIMJOGANG
 40
0.7853981633974483
  9
$DIMTFILL
 70
     0
  9
$DIMTFILLCLR
 70
     0
  9
$DIMARCSYM
 70
     0
  9
$DIMLTYPE
  6

  9
$DIMLTEX1
  6

  9
$DIMLTEX2
  6

  9
$DIMTXTDIRECTION
 70
     0
  9
$LUNITS
 70
     2
  9
$LUPREC
 70
     4
  9
$SKETCHINC
 40
0.1
  9
$FILLETRAD
 40
0.5
  9
$AUNITS
 70
     0
  9
$AUPREC
 70
     0
  9
$MENU
  1
.
  9
$ELEVATION
 40
0.0
  9
$PELEVATION
 40
0.0
  9
$THICKNESS
 40
0.0
  9
$LIMCHECK
 70
     0
  9
$CHAMFERA
 40
0.5
  9
$CHAMFERB
 40
0.5
  9
$CHAMFERC
 40
1.0
  9
$CHAMFERD
 40
0.0
  9
$SKPOLY
 70
     0
  9
$TDCREATE
 40
2458406.965706007
  9
$TDUCREATE
 40
2458407.174039352
  9
$TDUPDATE
 40
2458406.965706007
  9
$TDUUPDATE
 40
2458407.174039352
  9
$TDINDWG
 40
0.0000000116
  9
$TDUSRTIMER
 40
0.0000000116
  9
$USRTIMER
 70
     1
  9
$ANGBASE
 50
0.0
  9
$ANGDIR
 70
     0
  9
$PDMODE
 70
     0
  9
$PDSIZE
 40
0.0
  9
$PLINEWID
 40
0.0
  9
$SPLFRAME
 70
     0
  9
$SPLINETYPE
 70
     6
  9
$SPLINESEGS
 70
     8
  9
$HANDSEED
  5
E0
  9
$SURFTAB1
 70
     6
  9
$SURFTAB2
 70
     6
  9
$SURFTYPE
 70
     6
  9
$SURFU
 70
     6
  9
$SURFV
 70
     6
  9
$UCSBASE
  2

  9
$UCSNAME
  2

  9
$UCSORG
 10
0.0
 20
0.0
 30
0.0
  9
$UCSXDIR
 10
1.0
 20
0.0
 30
0.0
  9
$UCSYDIR
 10
0.0
 20
1.0
 30
0.0
  9
$UCSORTHOREF
  2

  9
$UCSORTHOVIEW
 70
     0
  9
$UCSORGTOP
 10
0.0
 20
0.0
 30
0.0
  9
$UCSORGBOTTOM
 10
0.0
 20
0.0
 30
0.0
  9
$UCSORGLEFT
 10
0.0
 20
0.0
 30
0.0
  9
$UCSORGRIGHT
 10
0.0
 20
0.0
 30
0.0
  9
$UCSORGFRONT
 10
0.0
 20
0.0
 30
0.0
  9
$UCSORGBACK
 10
0.0
 20
0.0
 30
0.0
  9
$PUCSBASE
  2

  9
$PUCSNAME
  2

  9
$PUCSORG
 10
0.0
 20
0.0
 30
0.0
  9
$PUCSXDIR
 10
1.0
 20
0.0
 30
0.0
  9
$PUCSYDIR
 10
0.0
 20
1.0
 30
0.0
  9
$PUCSORTHOREF
  2

  9
$PUCSORTHOVIEW
 70
     0
  9
$PUCSORGTOP
 10
0.0
 20
0.0
 30
0.0
  9
$PUCSORGBOTTOM
 10
0.0
 20
0.0
 30
0.0
  9
$PUCSORGLEFT
 10
0.0
 20
0.0
 30
0.0
  9
$PUCSORGRIGHT
 10
0.0
 20
0.0
 30
0.0
  9
$PUCSORGFRONT
 10
0.0
 20
0.0
 30
0.0
  9
$PUCSORGBACK
 10
0.0
 20
0.0
 30
0.0
  9
$USERI1
 70
     0
  9
$USERI2
 70
     0
  9
$USERI3
 70
     0
  9
$USERI4
 70
     0
  9
$USERI5
 70
     0
  9
$USERR1
 40
0.0
  9
$USERR2
 40
0.0
  9
$USERR3
 40
0.0
  9
$USERR4
 40
0.0
  9
$USERR5
 40
0.0
  9
$WORLDVIEW
 70
     1
  9
$SHADEDGE
 70
     3
  9
$SHADEDIF
 70
    70
  9
$TILEMODE
 70
     1
  9
$MAXACTVP
 70
    64
  9
$PINSBASE
 10
0.0
 20
0.0
 30
0.0
  9
$PLIMCHECK
 70
     0
  9
$PEXTMIN
 10
1.000000000000000E+20
 20
1.000000000000000E+20
 30
1.000000000000000E+20
  9
$PEXTMAX
 10
-1.000000000000000E+20
 20
-1.000000000000000E+20
 30
-1.000000000000000E+20
  9
$PLIMMIN
 10
0.0
 20
0.0
  9
$PLIMMAX
 10
12.0
 20
9.0
  9
$UNITMODE
 70
     0
  9
$VISRETAIN
 70
     1
  9
$PLINEGEN
 70
     0
  9
$PSLTSCALE
 70
     1
  9
$TREEDEPTH
 70
  3020
  9
$CMLSTYLE
  2
Standard
  9
$CMLJUST
 70
     0
  9
$CMLSCALE
 40
1.0
  9
$PROXYGRAPHICS
 70
     1
  9
$MEASUREMENT
 70
     0
  9
$CELWEIGHT
370
    -1
  9
$ENDCAPS
280
     0
  9
$JOINSTYLE
280
     0
  9
$LWDISPLAY
290
     1
  9
$INSUNITS
 70
     1
  9
$HYPERLINKBASE
  1

  9
$STYLESHEET
  1

  9
$XEDIT
290
     1
  9
$CEPSNTYPE
380
     0
  9
$PSTYLEMODE
290
     1
  9
$FINGERPRINTGUID
  2
{AAED12E5-FFD0-E780-1D1F-A8E3C4F88199}
  9
$VERSIONGUID
  2
{FAEB1C32-E019-11D5-929B-00C0DF256EC4}
  9
$EXTNAMES
290
     1
  9
$PSVPSCALE
 40
0.0
  9
$OLESTARTUP
290
     0
  9
$SORTENTS
280
   127
  9
$INDEXCTL
280
     0
  9
$HIDETEXT
280
     1
  9
$XCLIPFRAME
280
     2
  9
$HALOGAP
280
     0
  9
$OBSCOLOR
 70
   257
  9
$OBSLTYPE
280
     0
  9
$INTERSECTIONDISPLAY
280
     0
  9
$INTERSECTIONCOLOR
 70
   257
  9
$DIMASSOC
280
     2
  9
$PROJECTNAME
  1

  9
$CAMERADISPLAY
290
     0
  9
$LENSLENGTH
 40
50.0
  9
$CAMERAHEIGHT
 40
0.0
  9
$STEPSPERSEC
 40
2.0
  9
$STEPSIZE
 40
6.0
  9
$3DDWFPREC
 40
2.0
  9
$PSOLWIDTH
 40
0.25
  9
$PSOLHEIGHT
 40
4.0
  9
$LOFTANG1
 40
1.570796326794897
  9
$LOFTANG2
 40
1.570796326794897
  9
$LOFTMAG1
 40
0.0
  9
$LOFTMAG2
 40
0.0
  9
$LOFTPARAM
 70
     7
  9
$LOFTNORMALS
280
     1
  9
$LATITUDE
 40
37.795
  9
$LONGITUDE
 40
-122.394
  9
$NORTHDIRECTION
 40
0.0
  9
$TIMEZONE
 70
 -8000
  9
$LIGHTGLYPHDISPLAY
280
     1
  9
$TILEMODELIGHTSYNCH
280
     1
  9
$CMATERIAL
347
3C
  9
$SOLIDHIST
280
     1
  9
$SHOWHIST
280
     1
  9
$DWFFRAME
280
     2
  9
$DGNFRAME
280
     2
  9
$REALWORLDSCALE
290
     1
  9
$INTERFERECOLOR
 62
   256
  9
$CSHADOW
280
     0
  9
$SHADOWPLANELOCATION
 40
0.0
  0
ENDSEC
  0
SECTION
  2
CLASSES
  0
CLASS
  1
ACDBDICTIONARYWDFLT
  2
AcDbDictionaryWithDefault
  3
ObjectDBX Classes
 90
        0
 91
        4
280
     0
281
     0
  0
CLASS
  1
VISUALSTYLE
  2
AcDbVisualStyle
  3
ObjectDBX Classes
 90
     4095
 91
        4
280
     0
281
     0
  0
CLASS
  1
MATERIAL
  2
AcDbMaterial
  3
ObjectDBX Classes
 90
     1153
 91
        4
280
     0
281
     0
  0
CLASS
  1
SUN
  2
AcDbSun
  3
SCENEOE
 90
     1024
 91
        4
280
     0
281
     0
  0
ENDSEC
  0
SECTION
  2
TABLES
  0
TABLE
  2
VPORT
  5
8
330
0
100
AcDbSymbolTable
 70
     1
  0
VPORT
  5
29
330
8
100
AcDbSymbolTableRecord
100
AcDbViewportTableRecord
  2
*Active
 70
     0
 10
0.0
 20
0.0
 11
1.0
 21
1.0
 12
0.0
 22
0.0
 13
0.0
 23
0.0
 14
0.5
 24
0.5
 15
0.5
 25
0.5
 16
0.0
 26
0.0
 36
1.0
 17
88.19444442239583
 27
88.19444442239583
 37
0.0
 40
176.3888888447917
 41
1.0
 42
50.0
 43
0.0
 44
0.0
 50
0.0
 51
0.0
 71
     0
 72
   100
 73
     1
 74
     3
 75
     0
 76
     0
 77
     0
 78
     0
281
     0
 65
     1
110
0.0
120
0.0
130
0.0
111
1.0
121
0.0
131
0.0
112
0.0
122
1.0
132
0.0
 79
     0
146
0.0
 60
     3
 61
     5
292
     1
282
     1
141
0.0
142
0.0
 63
   250
361
3F
  0
ENDTAB
  0
TABLE
  2
LTYPE
  5
5
330
0
100
AcDbSymbolTable
 70
     1
  0
LTYPE
  5
14
330
5
100
AcDbSymbolTableRecord
100
AcDbLinetypeTableRecord
  2
ByBlock
 70
     0
  3

 72
    65
 73
     0
 40
0.0
  0
LTYPE
  5
15
330
5
100
AcDbSymbolTableRecord
100
AcDbLinetypeTableRecord
  2
ByLayer
 70
     0
  3

 72
    65
 73
     0
 40
0.0
  0
LTYPE
  5
16
330
5
100
AcDbSymbolTableRecord
100
AcDbLinetypeTableRecord
  2
Continuous
 70
     0
  3
Solid line
 72
    65
 73
     0
 40
0.0
  0
ENDTAB
  0
TABLE
  2
LAYER
  5
2
330
0
100
AcDbSymbolTable
 70
     4
  0
LAYER
  5
10
330
2
100
AcDbSymbolTableRecord
100
AcDbLayerTableRecord
  2
0
 70
     0
 62
     7
  6
Continuous
370
    -3
390
F
347
3E
  0
LAYER
  5
40
330
2
100
AcDbSymbolTableRecord
100
AcDbLayerTableRecord
  2
Layer 4
 70
     0
 62
     7
  6
Continuous
370
    -3
390
F
347
3E
  0
LAYER
  5
A9
330
2
100
AcDbSymbolTableRecord
100
AcDbLayerTableRecord
  2
Layer 6
 70
     0
 62
     7
  6
Continuous
370
    -3
390
F
347
3E
  0
LAYER
  5
AB
330
2
100
AcDbSymbolTableRecord
100
AcDbLayerTableRecord
  2
Layer 5
 70
     0
 62
     7
  6
Continuous
370
    -3
390
F
347
3E
  0
ENDTAB
  0
TABLE
  2
STYLE
  5
3
330
0
100
AcDbSymbolTable
 70
     1
  0
STYLE
  5
11
330
3
100
AcDbSymbolTableRecord
100
AcDbTextStyleTableRecord
  2
Standard
 70
     0
 40
0.0
 41
1.0
 50
0.0
 71
     0
 42
0.2
  3
txt
  4

  0
ENDTAB
  0
TABLE
  2
VIEW
  5
6
330
0
100
AcDbSymbolTable
 70
     0
  0
ENDTAB
  0
TABLE
  2
UCS
  5
7
330
0
100
AcDbSymbolTable
 70
     0
  0
ENDTAB
  0
TABLE
  2
APPID
  5
9
330
0
100
AcDbSymbolTable
 70
     1
  0
APPID
  5
12
330
9
100
AcDbSymbolTableRecord
100
AcDbRegAppTableRecord
  2
ACAD
 70
     0
  0
ENDTAB
  0
TABLE
  2
DIMSTYLE
  5
A
330
0
100
AcDbSymbolTable
 70
     1
100
AcDbDimStyleTable
  0
DIMSTYLE
105
27
330
A
100
AcDbSymbolTableRecord
100
AcDbDimStyleTableRecord
  2
Standard
 70
     0
178
     0
340
11
  0
ENDTAB
  0
TABLE
  2
BLOCK_RECORD
  5
1
330
0
100
AcDbSymbolTable
 70
     6
  0
BLOCK_RECORD
  5
1F
330
1
100
AcDbSymbolTableRecord
100
AcDbBlockTableRecord
  2
*Model_Space
340
22
 70
     0
280
     1
281
     0
  0
BLOCK_RECORD
  5
1B
330
1
100
AcDbSymbolTableRecord
100
AcDbBlockTableRecord
  2
*Paper_Space
340
1E
 70
     0
280
     1
281
     0
  0
BLOCK_RECORD
  5
23
330
1
100
AcDbSymbolTableRecord
100
AcDbBlockTableRecord
  2
*Paper_Space0
340
26
 70
     0
280
     1
281
     0
  0
BLOCK_RECORD
  5
AC
330
1
100
AcDbSymbolTableRecord
100
AcDbBlockTableRecord
  2
block 2
340
0
102
{BLKREFS
331
AD
102
}
 70
     0
280
     1
281
     0
  0
BLOCK_RECORD
  5
B0
330
1
100
AcDbSymbolTableRecord
100
AcDbBlockTableRecord
  2
block 3
340
0
102
{BLKREFS
331
B1
102
}
 70
     0
280
     1
281
     0
  0
BLOCK_RECORD
  5
B4
330
1
100
AcDbSymbolTableRecord
100
AcDbBlockTableRecord
  2
block 4
340
0
102
{BLKREFS
331
B5
102
}
 70
     0
280
     1
281
     0
  0
BLOCK_RECORD
  5
B8
330
1
100
AcDbSymbolTableRecord
100
AcDbBlockTableRecord
  2
block 5
340
0
102
{BLKREFS
331
B9
102
}
 70
     0
280
     1
281
     0
  0
BLOCK_RECORD
  5
BC
330
1
100
AcDbSymbolTableRecord
100
AcDbBlockTableRecord
  2
block 6
340
0
102
{BLKREFS
331
BD
102
}
 70
     0
280
     1
281
     0
  0
ENDTAB
  0
ENDSEC
  0
SECTION
  2
BLOCKS
  0
BLOCK
  5
20
330
1F
100
AcDbEntity
  8
0
100
AcDbBlockBegin
  2
*Model_Space
 70
     0
 10
0.0
 20
0.0
 30
0.0
  3
*Model_Space
  1

  0
ENDBLK
  5
21
330
1F
100
AcDbEntity
  8
0
100
AcDbBlockEnd
  0
BLOCK
  5
1C
330
1B
100
AcDbEntity
 67
     1
  8
0
100
AcDbBlockBegin
  2
*Paper_Space
 70
     0
 10
0.0
 20
0.0
 30
0.0
  3
*Paper_Space
  1

  0
ENDBLK
  5
1D
330
1B
100
AcDbEntity
 67
     1
  8
0
100
AcDbBlockEnd
  0
BLOCK
  5
24
330
23
100
AcDbEntity
  8
0
100
AcDbBlockBegin
  2
*Paper_Space0
 70
     0
 10
0.0
 20
0.0
 30
0.0
  3
*Paper_Space0
  1

  0
ENDBLK
  5
25
330
23
100
AcDbEntity
  8
0
100
AcDbBlockEnd
  0
BLOCK
  5
AE
330
AC
100
AcDbEntity
  8
0
100
AcDbBlockBegin
  2
block 2
 70
     0
 10
0.0
 20
0.0
 30
0.0
  3
block 2
  1

  0
INSERT
  5
B1
330
AC
100
AcDbEntity
  8
Layer 5
100
AcDbBlockReference
  2
block 3
 10
0.0
 20
0.0
 30
0.0
  0
ENDBLK
  5
AF
330
AC
100
AcDbEntity
  8
0
100
AcDbBlockEnd
  0
BLOCK
  5
B2
330
B0
100
AcDbEntity
  8
0
100
AcDbBlockBegin
  2
block 3
 70
     0
 10
0.0
 20
0.0
 30
0.0
  3
block 3
  1

  0
INSERT
  5
B5
330
B0
100
AcDbEntity
  8
Layer 5
100
AcDbBlockReference
  2
block 4
 10
0.0
 20
0.0
 30
0.0
  0
POLYLINE
  5
D7
330
B0
100
AcDbEntity
  8
Layer 5
370
     0
100
AcDb2dPolyline
 66
     1
 10
0.0
 20
0.0
 30
0.0
  0
VERTEX
  5
D8
330
D7
100
AcDbEntity
  8
Layer 5
370
     0
100
AcDbVertex
100
AcDb2dVertex
 10
73.41273317144125
 20
123.7600022739123
 30
0.0
  0
VERTEX
  5
D9
330
D7
100
AcDbEntity
  8
Layer 5
370
     0
100
AcDbVertex
100
AcDb2dVertex
 10
84.90903879398448
 20
123.7600022739123
 30
0.0
  0
VERTEX
  5
DA
330
D7
100
AcDbEntity
  8
Layer 5
370
     0
100
AcDbVertex
100
AcDb2dVertex
 10
84.90903879398448
 20
112.263696651369
 30
0.0
  0
VERTEX
  5
DB
330
D7
100
AcDbEntity
  8
Layer 5
370
     0
100
AcDbVertex
100
AcDb2dVertex
 10
73.41273317144125
 20
112.263696651369
 30
0.0
  0
VERTEX
  5
DC
330
D7
100
AcDbEntity
  8
Layer 5
370
     0
100
AcDbVertex
100
AcDb2dVertex
 10
73.41273317144125
 20
123.7600022739123
 30
0.0
  0
SEQEND
  5
DD
330
D7
100
AcDbEntity
  8
Layer 5
370
     0
  0
ENDBLK
  5
B3
330
B0
100
AcDbEntity
  8
0
100
AcDbBlockEnd
  0
BLOCK
  5
B6
330
B4
100
AcDbEntity
  8
0
100
AcDbBlockBegin
  2
block 4
 70
     0
 10
0.0
 20
0.0
 30
0.0
  3
block 4
  1

  0
INSERT
  5
B9
330
B4
100
AcDbEntity
  8
Layer 5
100
AcDbBlockReference
  2
block 5
 10
0.0
 20
0.0
 30
0.0
  0
POLYLINE
  5
D0
330
B4
100
AcDbEntity
  8
Layer 5
370
     0
100
AcDb2dPolyline
 66
     1
 10
0.0
 20
0.0
 30
0.0
  0
VERTEX
  5
D1
330
D0
100
AcDbEntity
  8
Layer 5
370
     0
100
AcDbVertex
100
AcDb2dVertex
 10
73.41273317144125
 20
123.7600022739123
 30
0.0
  0
VERTEX
  5
D2
330
D0
100
AcDbEntity
  8
Layer 5
370
     0
100
AcDbVertex
100
AcDb2dVertex
 10
84.90903879398448
 20
123.7600022739123
 30
0.0
  0
VERTEX
  5
D3
330
D0
100
AcDbEntity
  8
Layer 5
370
     0
100
AcDbVertex
100
AcDb2dVertex
 10
84.90903879398448
 20
112.263696651369
 30
0.0
  0
VERTEX
  5
D4
330
D0
100
AcDbEntity
  8
Layer 5
370
     0
100
AcDbVertex
100
AcDb2dVertex
 10
73.41273317144125
 20
112.263696651369
 30
0.0
  0
VERTEX
  5
D5
330
D0
100
AcDbEntity
  8
Layer 5
370
     0
100
AcDbVertex
100
AcDb2dVertex
 10
73.41273317144125
 20
123.7600022739123
 30
0.0
  0
SEQEND
  5
D6
330
D0
100
AcDbEntity
  8
Layer 5
370
     0
  0
ENDBLK
  5
B7
330
B4
100
AcDbEntity
  8
0
100
AcDbBlockEnd
  0
BLOCK
  5
BA
330
B8
100
AcDbEntity
  8
0
100
AcDbBlockBegin
  2
block 5
 70
     0
 10
0.0
 20
0.0
 30
0.0
  3
block 5
  1

  0
INSERT
  5
BD
330
B8
100
AcDbEntity
  8
Layer 5
100
AcDbBlockReference
  2
block 6
 10
0.0
 20
0.0
 30
0.0
  0
POLYLINE
  5
C9
330
B8
100
AcDbEntity
  8
Layer 5
370
     0
100
AcDb2dPolyline
 66
     1
 10
0.0
 20
0.0
 30
0.0
  0
VERTEX
  5
CA
330
C9
100
AcDbEntity
  8
Layer 5
370
     0
100
AcDbVertex
100
AcDb2dVertex
 10
75.93332110069171
 20
114.8794549148662
 30
0.0
  0
VERTEX
  5
CB
330
C9
100
AcDbEntity
  8
Layer 5
370
     0
100
AcDbVertex
100
AcDb2dVertex
 10
82.40464514388229
 20
114.8794549148662
 30
0.0
  0
VERTEX
  5
CC
330
C9
100
AcDbEntity
  8
Layer 5
370
     0
100
AcDbVertex
100
AcDb2dVertex
 10
82.40464514388229
 20
121.1285364624681
 30
0.0
  0
VERTEX
  5
CD
330
C9
100
AcDbEntity
  8
Layer 5
370
     0
100
AcDbVertex
100
AcDb2dVertex
 10
75.93332110069171
 20
121.1285364624681
 30
0.0
  0
VERTEX
  5
CE
330
C9
100
AcDbEntity
  8
Layer 5
370
     0
100
AcDbVertex
100
AcDb2dVertex
 10
75.93332110069171
 20
114.8794549148662
 30
0.0
  0
SEQEND
  5
CF
330
C9
100
AcDbEntity
  8
Layer 5
370
     0
  0
ENDBLK
  5
BB
330
B8
100
AcDbEntity
  8
0
100
AcDbBlockEnd
  0
BLOCK
  5
BE
330
BC
100
AcDbEntity
  8
0
100
AcDbBlockBegin
  2
block 6
 70
     0
 10
0.0
 20
0.0
 30
0.0
  3
block 6
  1

  0
SPLINE
  5
C0
330
BC
100
AcDbEntity
  8
Layer 5
370
     0
100
AcDbSpline
210
0.0
220
0.0
230
1.0
 70
    11
 71
     3
 72
   632
 73
   628
 74
     0
 42
0.0000000001
 43
0.0000000001
 12
1.0
 22
0.0
 32
0.0
 13
1.0
 23
0.0
 33
0.0
 40
0.0
 40
0.0
 40
0.0
 40
0.0
 40
1.0
 40
1.0
 40
1.0
 40
2.0
 40
2.0
 40
2.0
 40
3.0
 40
3.0
 40
3.0
 40
4.0
 40
4.0
 40
4.0
 40
5.0
 40
5.0
 40
5.0
 40
6.0
 40
6.0
 40
6.0
 40
7.0
 40
7.0
 40
7.0
 40
8.0
 40
8.0
 40
8.0
 40
9.0
 40
9.0
 40
9.0
 40
10.0
 40
10.0
 40
10.0
 40
11.0
 40
11.0
 40
11.0
 40
12.0
 40
12.0
 40
12.0
 40
13.0
 40
13.0
 40
13.0
 40
14.0
 40
14.0
 40
14.0
 40
15.0
 40
15.0
 40
15.0
 40
16.0
 40
16.0
 40
16.0
 40
17.0
 40
17.0
 40
17.0
 40
18.0
 40
18.0
 40
18.0
 40
19.0
 40
19.0
 40
19.0
 40
20.0
 40
20.0
 40
20.0
 40
21.0
 40
21.0
 40
21.0
 40
22.0
 40
22.0
 40
22.0
 40
23.0
 40
23.0
 40
23.0
 40
24.0
 40
24.0
 40
24.0
 40
25.0
 40
25.0
 40
25.0
 40
26.0
 40
26.0
 40
26.0
 40
27.0
 40
27.0
 40
27.0
 40
28.0
 40
28.0
 40
28.0
 40
29.0
 40
29.0
 40
29.0
 40
30.0
 40
30.0
 40
30.0
 40
31.0
 40
31.0
 40
31.0
 40
32.0
 40
32.0
 40
32.0
 40
33.0
 40
33.0
 40
33.0
 40
34.0
 40
34.0
 40
34.0
 40
35.0
 40
35.0
 40
35.0
 40
36.0
 40
36.0
 40
36.0
 40
37.0
 40
37.0
 40
37.0
 40
38.0
 40
38.0
 40
38.0
 40
39.0
 40
39.0
 40
39.0
 40
40.0
 40
40.0
 40
40.0
 40
41.0
 40
41.0
 40
41.0
 40
42.0
 40
42.0
 40
42.0
 40
43.0
 40
43.0
 40
43.0
 40
44.0
 40
44.0
 40
44.0
 40
45.0
 40
45.0
 40
45.0
 40
46.0
 40
46.0
 40
46.0
 40
47.0
 40
47.0
 40
47.0
 40
48.0
 40
48.0
 40
48.0
 40
49.0
 40
49.0
 40
49.0
 40
50.0
 40
50.0
 40
50.0
 40
51.0
 40
51.0
 40
51.0
 40
52.0
 40
52.0
 40
52.0
 40
53.0
 40
53.0
 40
53.0
 40
54.0
 40
54.0
 40
54.0
 40
55.0
 40
55.0
 40
55.0
 40
56.0
 40
56.0
 40
56.0
 40
57.0
 40
57.0
 40
57.0
 40
58.0
 40
58.0
 40
58.0
 40
59.0
 40
59.0
 40
59.0
 40
60.0
 40
60.0
 40
60.0
 40
61.0
 40
61.0
 40
61.0
 40
62.0
 40
62.0
 40
62.0
 40
63.0
 40
63.0
 40
63.0
 40
64.0
 40
64.0
 40
64.0
 40
65.0
 40
65.0
 40
65.0
 40
66.0
 40
66.0
 40
66.0
 40
67.0
 40
67.0
 40
67.0
 40
68.0
 40
68.0
 40
68.0
 40
69.0
 40
69.0
 40
69.0
 40
70.0
 40
70.0
 40
70.0
 40
71.0
 40
71.0
 40
71.0
 40
72.0
 40
72.0
 40
72.0
 40
73.0
 40
73.0
 40
73.0
 40
74.0
 40
74.0
 40
74.0
 40
75.0
 40
75.0
 40
75.0
 40
76.0
 40
76.0
 40
76.0
 40
77.0
 40
77.0
 40
77.0
 40
78.0
 40
78.0
 40
78.0
 40
79.0
 40
79.0
 40
79.0
 40
80.0
 40
80.0
 40
80.0
 40
81.0
 40
81.0
 40
81.0
 40
82.0
 40
82.0
 40
82.0
 40
83.0
 40
83.0
 40
83.0
 40
84.0
 40
84.0
 40
84.0
 40
85.0
 40
85.0
 40
85.0
 40
86.0
 40
86.0
 40
86.0
 40
87.0
 40
87.0
 40
87.0
 40
88.0
 40
88.0
 40
88.0
 40
89.0
 40
89.0
 40
89.0
 40
90.0
 40
90.0
 40
90.0
 40
91.0
 40
91.0
 40
91.0
 40
92.0
 40
92.0
 40
92.0
 40
93.0
 40
93.0
 40
93.0
 40
94.0
 40
94.0
 40
94.0
 40
95.0
 40
95.0
 40
95.0
 40
96.0
 40
96.0
 40
96.0
 40
97.0
 40
97.0
 40
97.0
 40
98.0
 40
98.0
 40
98.0
 40
99.0
 40
99.0
 40
99.0
 40
100.0
 40
100.0
 40
100.0
 40
101.0
 40
101.0
 40
101.0
 40
102.0
 40
102.0
 40
102.0
 40
103.0
 40
103.0
 40
103.0
 40
104.0
 40
104.0
 40
104.0
 40
105.0
 40
105.0
 40
105.0
 40
106.0
 40
106.0
 40
106.0
 40
107.0
 40
107.0
 40
107.0
 40
108.0
 40
108.0
 40
108.0
 40
109.0
 40
109.0
 40
109.0
 40
110.0
 40
110.0
 40
110.0
 40
111.0
 40
111.0
 40
111.0
 40
112.0
 40
112.0
 40
112.0
 40
113.0
 40
113.0
 40
113.0
 40
114.0
 40
114.0
 40
114.0
 40
115.0
 40
115.0
 40
115.0
 40
116.0
 40
116.0
 40
116.0
 40
117.0
 40
117.0
 40
117.0
 40
118.0
 40
118.0
 40
118.0
 40
119.0
 40
119.0
 40
119.0
 40
120.0
 40
120.0
 40
120.0
 40
121.0
 40
121.0
 40
121.0
 40
122.0
 40
122.0
 40
122.0
 40
123.0
 40
123.0
 40
123.0
 40
124.0
 40
124.0
 40
124.0
 40
125.0
 40
125.0
 40
125.0
 40
126.0
 40
126.0
 40
126.0
 40
127.0
 40
127.0
 40
127.0
 40
128.0
 40
128.0
 40
128.0
 40
129.0
 40
129.0
 40
129.0
 40
130.0
 40
130.0
 40
130.0
 40
131.0
 40
131.0
 40
131.0
 40
132.0
 40
132.0
 40
132.0
 40
133.0
 40
133.0
 40
133.0
 40
134.0
 40
134.0
 40
134.0
 40
135.0
 40
135.0
 40
135.0
 40
136.0
 40
136.0
 40
136.0
 40
137.0
 40
137.0
 40
137.0
 40
138.0
 40
138.0
 40
138.0
 40
139.0
 40
139.0
 40
139.0
 40
140.0
 40
140.0
 40
140.0
 40
141.0
 40
141.0
 40
141.0
 40
142.0
 40
142.0
 40
142.0
 40
143.0
 40
143.0
 40
143.0
 40
144.0
 40
144.0
 40
144.0
 40
145.0
 40
145.0
 40
145.0
 40
146.0
 40
146.0
 40
146.0
 40
147.0
 40
147.0
 40
147.0
 40
148.0
 40
148.0
 40
148.0
 40
149.0
 40
149.0
 40
149.0
 40
150.0
 40
150.0
 40
150.0
 40
151.0
 40
151.0
 40
151.0
 40
152.0
 40
152.0
 40
152.0
 40
153.0
 40
153.0
 40
153.0
 40
154.0
 40
154.0
 40
154.0
 40
155.0
 40
155.0
 40
155.0
 40
156.0
 40
156.0
 40
156.0
 40
157.0
 40
157.0
 40
157.0
 40
158.0
 40
158.0
 40
158.0
 40
159.0
 40
159.0
 40
159.0
 40
160.0
 40
160.0
 40
160.0
 40
161.0
 40
161.0
 40
161.0
 40
162.0
 40
162.0
 40
162.0
 40
163.0
 40
163.0
 40
163.0
 40
164.0
 40
164.0
 40
164.0
 40
165.0
 40
165.0
 40
165.0
 40
166.0
 40
166.0
 40
166.0
 40
167.0
 40
167.0
 40
167.0
 40
168.0
 40
168.0
 40
168.0
 40
169.0
 40
169.0
 40
169.0
 40
170.0
 40
170.0
 40
170.0
 40
171.0
 40
171.0
 40
171.0
 40
172.0
 40
172.0
 40
172.0
 40
173.0
 40
173.0
 40
173.0
 40
174.0
 40
174.0
 40
174.0
 40
175.0
 40
175.0
 40
175.0
 40
176.0
 40
176.0
 40
176.0
 40
177.0
 40
177.0
 40
177.0
 40
178.0
 40
178.0
 40
178.0
 40
179.0
 40
179.0
 40
179.0
 40
180.0
 40
180.0
 40
180.0
 40
181.0
 40
181.0
 40
181.0
 40
182.0
 40
182.0
 40
182.0
 40
183.0
 40
183.0
 40
183.0
 40
184.0
 40
184.0
 40
184.0
 40
185.0
 40
185.0
 40
185.0
 40
186.0
 40
186.0
 40
186.0
 40
187.0
 40
187.0
 40
187.0
 40
188.0
 40
188.0
 40
188.0
 40
189.0
 40
189.0
 40
189.0
 40
190.0
 40
190.0
 40
190.0
 40
191.0
 40
191.0
 40
191.0
 40
192.0
 40
192.0
 40
192.0
 40
193.0
 40
193.0
 40
193.0
 40
194.0
 40
194.0
 40
194.0
 40
195.0
 40
195.0
 40
195.0
 40
196.0
 40
196.0
 40
196.0
 40
197.0
 40
197.0
 40
197.0
 40
198.0
 40
198.0
 40
198.0
 40
199.0
 40
199.0
 40
199.0
 40
200.0
 40
200.0
 40
200.0
 40
201.0
 40
201.0
 40
201.0
 40
202.0
 40
202.0
 40
202.0
 40
203.0
 40
203.0
 40
203.0
 40
204.0
 40
204.0
 40
204.0
 40
205.0
 40
205.0
 40
205.0
 40
206.0
 40
206.0
 40
206.0
 40
207.0
 40
207.0
 40
207.0
 40
208.0
 40
208.0
 40
208.0
 40
209.0
 40
209.0
 40
209.0
 40
209.0
 10
81.2517541140909
 20
114.8794542131875
 30
0.0
 10
81.24374094208113
 20
114.8809485551595
 30
0.0
 10
81.2357511593651
 20
114.8836273309632
 30
0.0
 10
81.2277225504212
 20
114.8837576093288
 30
0.0
 10
81.03023925942806
 20
114.8869497801284
 30
0.0
 10
80.84323250085379
 20
114.9376369523241
 30
0.0
 10
80.66073285916863
 20
115.0086381938545
 30
0.0
 10
80.57161731137325
 20
115.0433109505704
 30
0.0
 10
80.48513446247266
 20
115.0835940971576
 30
0.0
 10
80.40366393920466
 20
115.133940253452
 30
0.0
 10
80.36060612070979
 20
115.1605539951422
 30
0.0
 10
80.3188595060176
 20
115.1891492777922
 30
0.0
 10
80.28734009387405
 20
115.2297502848803
 30
0.0
 10
80.27874499623755
 20
115.2408213731441
 30
0.0
 10
80.26737873508782
 20
115.2418292178081
 30
0.0
 10
80.25549182826111
 20
115.2424155874002
 30
0.0
 10
80.1812139805811
 20
115.246101973975
 30
0.0
 10
80.10676398769982
 20
115.2544713649272
 30
0.0
 10
80.0326704476542
 20
115.252080043543
 30
0.0
 10
79.89336568572506
 20
115.2475811129064
 30
0.0
 10
79.76301294205349
 20
115.2803686925529
 30
0.0
 10
79.63756165876238
 20
115.3360221134726
 30
0.0
 10
79.56466705391
 20
115.3683536018926
 30
0.0
 10
79.49225192957758
 20
115.4026432419782
 30
0.0
 10
79.4228105200418
 20
115.4417307278733
 30
0.0
 10
79.2364324656811
 20
115.5466499536128
 30
0.0
 10
79.05028409418433
 20
115.6520977773891
 30
0.0
 10
78.87117169000807
 20
115.7693754381159
 30
0.0
 10
78.82055351622863
 20
115.8025154944178
 30
0.0
 10
78.76234785558378
 20
115.8177136235488
 30
0.0
 10
78.70442193089168
 20
115.8321452855264
 30
0.0
 10
78.59558219174785
 20
115.8592651715317
 30
0.0
 10
78.48483061173978
 20
115.8760764602468
 30
0.0
 10
78.37344705301683
 20
115.8877299419228
 30
0.0
 10
78.21733100237256
 20
115.9040624517967
 30
0.0
 10
78.06073219670701
 20
115.9159573109833
 30
0.0
 10
77.90480372819813
 20
115.9338110605171
 30
0.0
 10
77.7872542838792
 20
115.9472692600923
 30
0.0
 10
77.6701913368683
 20
115.9655982800732
 30
0.0
 10
77.55334263578754
 20
115.9844484135171
 30
0.0
 10
77.37398511181355
 20
116.0133769936018
 30
0.0
 10
77.19492229293968
 20
116.0441984692225
 30
0.0
 10
77.01587116871285
 20
116.0749970233358
 30
0.0
 10
76.81421101765693
 20
116.1096852169852
 30
0.0
 10
76.61269213793469
 20
116.1451936731639
 30
0.0
 10
76.41115407899187
 20
116.1805716170838
 30
0.0
 10
76.40317973320931
 20
116.1819702968449
 30
0.0
 10
76.3949752367774
 20
116.1846067380268
 30
0.0
 10
76.38796219096454
 20
116.1885768367336
 30
0.0
 10
76.27381542108829
 20
116.2531822759112
 30
0.0
 10
76.16794986452688
 20
116.3285902942609
 30
0.0
 10
76.08063155005678
 20
116.4276233703564
 30
0.0
 10
76.02419599115673
 20
116.4916309791877
 30
0.0
 10
75.97818410487184
 20
116.562229690974
 30
0.0
 10
75.95421054665026
 20
116.6448724856405
 30
0.0
 10
75.94454983279455
 20
116.6781736941759
 30
0.0
 10
75.93846814865566
 20
116.712827271671
 30
0.0
 10
75.93422626635638
 20
116.7472895247439
 30
0.0
 10
75.93032493217316
 20
116.7789656451553
 30
0.0
 10
75.93899300440548
 20
116.8069359658781
 30
0.0
 10
75.96090503028314
 20
116.8334159208088
 30
0.0
 10
75.98259860015816
 20
116.8596123975001
 30
0.0
 10
76.00458734291905
 20
116.8672111112265
 30
0.0
 10
76.03811449203128
 20
116.8656978239261
 30
0.0
 10
76.21884028968455
 20
116.8575391705098
 30
0.0
 10
76.39969613181087
 20
116.8523004365146
 30
0.0
 10
76.58050613092155
 20
116.8460466071741
 30
0.0
 10
76.59243934854965
 20
116.8456363589632
 30
0.0
 10
76.60437630846484
 20
116.8446441851259
 30
0.0
 10
76.616298299232
 20
116.8448317672613
 30
0.0
 10
76.62926953371336
 20
116.8450310440431
 30
0.0
 10
76.63866594855043
 20
116.8397965201207
 30
0.0
 10
76.64729613012737
 20
116.8302317023691
 30
0.0
 10
76.66820381973496
 20
116.8070510412031
 30
0.0
 10
76.69102802806569
 20
116.7855300843154
 30
0.0
 10
76.71111194675046
 20
116.7616865705669
 30
0.0
 10
76.73300105112047
 20
116.7356973230173
 30
0.0
 10
76.76066122980937
 20
116.7253316558506
 30
0.0
 10
76.7932991179765
 20
116.7242548127701
 30
0.0
 10
76.87407217250731
 20
116.7215874977206
 30
0.0
 10
76.95483727467818
 20
116.7185791667693
 30
0.0
 10
77.03561453928185
 20
116.716076980133
 30
0.0
 10
77.24215322921056
 20
116.709681411673
 30
0.0
 10
77.44870314600021
 20
116.7036839289912
 30
0.0
 10
77.65523809364214
 20
116.6971658006324
 30
0.0
 10
77.87186692485801
 20
116.690329110094
 30
0.0
 10
78.08849201378712
 20
116.683331501215
 30
0.0
 10
78.30508997113571
 20
116.6755830960096
 30
0.0
 10
78.32659549108925
 20
116.674813120462
 30
0.0
 10
78.34334970992812
 20
116.6801355881286
 30
0.0
 10
78.36066667517218
 20
116.6927662744938
 30
0.0
 10
78.38951128769239
 20
116.7138161710073
 30
0.0
 10
78.41991877281534
 20
116.7329228850024
 30
0.0
 10
78.45078655923768
 20
116.7509298344098
 30
0.0
 10
78.47643104859861
 20
116.7658905622102
 30
0.0
 10
78.50289556659527
 20
116.7706385888245
 30
0.0
 10
78.5315133029671
 20
116.7537847315947
 30
0.0
 10
78.54424362772325
 20
116.7462856562596
 30
0.0
 10
78.56138470547928
 20
116.7449711779555
 30
0.0
 10
78.57677439292532
 20
116.7435570612606
 30
0.0
 10
78.60966535324981
 20
116.7405332933755
 30
0.0
 10
78.64272471648846
 20
116.7374449710399
 30
0.0
 10
78.67570408834288
 20
116.7375750155126
 30
0.0
 10
78.98154015338574
 20
116.7387706762049
 30
0.0
 10
79.2873762184286
 20
116.7406483687005
 30
0.0
 10
79.59320854118437
 20
116.7423730952151
 30
0.0
 10
79.6004171214919
 20
116.7424109858711
 30
0.0
 10
79.60761728165406
 20
116.7429746678485
 30
0.0
 10
79.6175619415347
 20
116.7434153221409
 30
0.0
 10
79.61399788096594
 20
116.7505584124265
 30
0.0
 10
79.61199388628468
 20
116.7563641029
 30
0.0
 10
79.60857156483567
 20
116.7611617148167
 30
0.0
 10
79.57712933736079
 20
116.8052846817454
 30
0.0
 10
79.54493584577347
 20
116.848878582851
 30
0.0
 10
79.51412933930057
 20
116.8934342517125
 30
0.0
 10
79.50459539541659
 20
116.9072184980414
 30
0.0
 10
79.49331754579711
 20
116.9140205724252
 30
0.0
 10
79.47741797174896
 20
116.9116175563939
 30
0.0
 10
79.44021215452905
 20
116.9059961735544
 30
0.0
 10
79.4176527130027
 20
116.9238001038926
 30
0.0
 10
79.39546843574679
 20
116.9524028711164
 30
0.0
 10
79.33019265941284
 20
117.0365556785819
 30
0.0
 10
79.26133738557633
 20
117.1179303057458
 30
0.0
 10
79.19486969083722
 20
117.2011751408315
 30
0.0
 10
79.18237700130462
 20
117.2168179004348
 30
0.0
 10
79.16911012615161
 20
117.2279806747299
 30
0.0
 10
79.1491333304319
 20
117.2255472526169
 30
0.0
 10
79.11466359278478
 20
117.2213357763994
 30
0.0
 10
79.09572528170376
 20
117.2380745583042
 30
0.0
 10
79.08104054756876
 20
117.2672863827349
 30
0.0
 10
79.06624494818192
 20
117.2967288256014
 30
0.0
 10
79.04671254904171
 20
117.3237486054297
 30
0.0
 10
79.03040693685551
 20
117.3524818849123
 30
0.0
 10
79.02321800355432
 20
117.365150929719
 30
0.0
 10
79.01411301931635
 20
117.3693661482236
 30
0.0
 10
78.99983479110516
 20
117.3709987209215
 30
0.0
 10
78.94882180604861
 20
117.3768235906159
 30
0.0
 10
78.8980193246351
 20
117.3844952789381
 30
0.0
 10
78.84716351563179
 20
117.3916612907316
 30
0.0
 10
78.82423265212208
 20
117.3948955622595
 30
0.0
 10
78.80594924126362
 20
117.4061121319299
 30
0.0
 10
78.79187777440869
 20
117.4245676879896
 30
0.0
 10
78.78520621228344
 20
117.4333237039664
 30
0.0
 10
78.7764268070129
 20
117.4407081717626
 30
0.0
 10
78.77093172635934
 20
117.450077922805
 30
0.0
 10
78.75365265177065
 20
117.4795353348191
 30
0.0
 10
78.72655989734619
 20
117.4895408068635
 30
0.0
 10
78.69468824243953
 20
117.4967718408932
 30
0.0
 10
78.35737112369456
 20
117.5732758815442
 30
0.0
 10
78.02031502946689
 20
117.650910560651
 30
0.0
 10
77.6832163667249
 20
117.7283613999094
 30
0.0
 10
77.64299099169271
 20
117.7376006386933
 30
0.0
 10
77.60292606721538
 20
117.7475181669934
 30
0.0
 10
77.56280781514823
 20
117.7572209815777
 30
0.0
 10
77.5023605245986
 20
117.7718402256904
 30
0.0
 10
77.46871830016168
 20
117.8134951543513
 30
0.0
 10
77.46787160773091
 20
117.8788364207075
 30
0.0
 10
77.46678307000373
 20
117.9623993501867
 30
0.0
 10
77.46761105099971
 20
118.0459852011739
 30
0.0
 10
77.4676451993683
 20
118.1295630998011
 30
0.0
 10
77.4676451993683
 20
118.1332305410478
 30
0.0
 10
77.4678444761504
 20
118.1369092091558
 30
0.0
 10
77.46817052290422
 20
118.1405691658284
 30
0.0
 10
77.47332832994333
 20
118.1987593895394
 30
0.0
 10
77.50664871769928
 20
118.2374597826243
 30
0.0
 10
77.56324472715389
 20
118.2508337807423
 30
0.0
 10
77.73287277274889
 20
118.2909253690147
 30
0.0
 10
77.90233615771616
 20
118.3317219105981
 30
0.0
 10
78.07218640160093
 20
118.3708437787551
 30
0.0
 10
78.2858681818152
 20
118.4200670150602
 30
0.0
 10
78.49982969798157
 20
118.4680487476578
 30
0.0
 10
78.71378372957409
 20
118.5160805333435
 30
0.0
 10
78.73244978927686
 20
118.5202728303404
 30
0.0
 10
78.74825346722089
 20
118.5261893860658
 30
0.0
 10
78.75895640800238
 20
118.5433725645503
 30
0.0
 10
78.76568925007705
 20
118.5541943229436
 30
0.0
 10
78.77581774980598
 20
118.5628549106021
 30
0.0
 10
78.78304878383574
 20
118.5734240646237
 30
0.0
 10
78.80324029327133
 20
118.6029352720135
 30
0.0
 10
78.83208818029253
 20
118.6164430568911
 30
0.0
 10
78.86640869424605
 20
118.620727507705
 30
0.0
 10
78.91102564305659
 20
118.626295562955
 30
0.0
 10
78.95555464812328
 20
118.6327758006578
 30
0.0
 10
79.00029088233168
 20
118.6371173213483
 30
0.0
 10
79.01483340956118
 20
118.6385276957561
 30
0.0
 10
79.02344441191724
 20
118.6436359174928
 30
0.0
 10
79.0306408297923
 20
118.6560327109213
 30
0.0
 10
79.05091279839822
 20
118.6909660243688
 30
0.0
 10
79.07288984651208
 20
118.7249109062658
 30
0.0
 10
79.09301586592572
 20
118.7599246788833
 30
0.0
 10
79.10117451934201
 20
118.77411496335
 30
0.0
 10
79.11080482711589
 20
118.782526688924
 30
0.0
 10
79.12770405957518
 20
118.780917037734
 30
0.0
 10
79.16185196054134
 20
118.7776598446982
 30
0.0
 10
79.18472996424734
 20
118.792451701798
 30
0.0
 10
79.20600580133727
 20
118.8198012706672
 30
0.0
 10
79.27254226059998
 20
118.9053111249513
 30
0.0
 10
79.34245145600899
 20
118.9881803279804
 30
0.0
 10
79.41014147523477
 20
119.0728046636063
 30
0.0
 10
79.4226458594144
 20
119.0884319862759
 30
0.0
 10
79.43521105575739
 20
119.0959464985448
 30
0.0
 10
79.45595455252365
 20
119.0961686968349
 30
0.0
 10
79.51152751427334
 20
119.0967627848938
 30
0.0
 10
79.4951989805795
 20
119.0901791665127
 30
0.0
 10
79.52690550707267
 20
119.1331219096829
 30
0.0
 10
79.55308280454305
 20
119.1685763365931
 30
0.0
 10
79.57842463644391
 20
119.2046519831431
 30
0.0
 10
79.60402655729054
 20
119.2405316274119
 30
0.0
 10
79.60867494551364
 20
119.2470539658436
 30
0.0
 10
79.61278304105312
 20
119.2539631631924
 30
0.0
 10
79.61919825651968
 20
119.2638694646315
 30
0.0
 10
79.60926903357284
 20
119.2646319556052
 30
0.0
 10
79.60243655310695
 20
119.2655820287137
 30
0.0
 10
79.59560360485564
 20
119.2656203871555
 30
0.0
 10
79.28793194804602
 20
119.2673717774651
 30
0.0
 10
78.9802602912364
 20
119.269418340661
 30
0.0
 10
78.67258442435394
 20
119.2702687753785
 30
0.0
 10
78.63329415328245
 20
119.2703801084165
 30
0.0
 10
78.59395382912281
 20
119.2645206225673
 30
0.0
 10
78.5547051909941
 20
119.2607460583555
 30
0.0
 10
78.54573071901463
 20
119.2598839289909
 30
0.0
 10
78.53572898925741
 20
119.2582055132774
 30
0.0
 10
78.52843994977954
 20
119.2534574866634
 30
0.0
 10
78.50439388474759
 20
119.237791805552
 30
0.0
 10
78.48063083016903
 20
119.2414704736597
 30
0.0
 10
78.45796800796471
 20
119.2539098356029
 30
0.0
 10
78.42987091727016
 20
119.2693299291307
 30
0.0
 10
78.40097671944724
 20
119.2844782390665
 30
0.0
 10
78.37618687487704
 20
119.3044204186315
 30
0.0
 10
78.34864177151282
 20
119.3265817743797
 30
0.0
 10
78.32051427473644
 20
119.3337014753716
 30
0.0
 10
78.28545044903045
 20
119.3323832547804
 30
0.0
 10
78.02756898500462
 20
119.3226841824833
 30
0.0
 10
77.76962670881512
 20
119.3147365004958
 30
0.0
 10
77.51169519170048
 20
119.306397749518
 30
0.0
 10
77.3767632921152
 20
119.3020370496069
 30
0.0
 10
77.24181969788289
 20
119.2980056709507
 30
0.0
 10
77.10688358822475
 20
119.2938054215942
 30
0.0
 10
77.00407220563032
 20
119.290605766221
 30
0.0
 10
76.90127251768259
 20
119.2871109379613
 30
0.0
 10
76.79845318272854
 20
119.2842943992182
 30
0.0
 10
76.76273819908708
 20
119.2833171945289
 30
0.0
 10
76.73252203838628
 20
119.2730165495984
 30
0.0
 10
76.70903497747307
 20
119.2441111249145
 30
0.0
 10
76.69170631758197
 20
119.2227852347361
 30
0.0
 10
76.67084026091685
 20
119.204364294831
 30
0.0
 10
76.65291002839304
 20
119.1834795267311
 30
0.0
 10
76.64063579486309
 20
119.1691858615861
 30
0.0
 10
76.62690908619645
 20
119.1629586960404
 30
0.0
 10
76.60790201059216
 20
119.1624067087101
 30
0.0
 10
76.4894824845487
 20
119.1589848550468
 30
0.0
 10
76.37109336458707
 20
119.1545624074005
 30
0.0
 10
76.25269676005159
 20
119.1504239057792
 30
0.0
 10
76.17284711483478
 20
119.1476302885438
 30
0.0
 10
76.09298250046963
 20
119.145193124144
 30
0.0
 10
76.0131712136946
 20
119.1415486044049
 30
0.0
 10
75.99780819004299
 20
119.1408473933806
 30
0.0
 10
75.98654951964409
 20
119.1439127942085
 30
0.0
 10
75.97788893198563
 20
119.1567736312235
 30
0.0
 10
75.97381545260083
 20
119.162820699208
 30
0.0
 10
75.96887984385147
 20
119.1685113143566
 30
0.0
 10
75.96345727000796
 20
119.1733931277307
 30
0.0
 10
75.93345582302305
 20
119.2004213277047
 30
0.0
 10
75.93102240091034
 20
119.2351015689946
 30
0.0
 10
75.93496162574922
 20
119.271955143452
 30
0.0
 10
75.94636250305365
 20
119.3786178071412
 30
0.0
 10
75.99162733529897
 20
119.4704385606421
 30
0.0
 10
76.05774606177661
 20
119.5531431030438
 30
0.0
 10
76.10738749865254
 20
119.6152309186512
 30
0.0
 10
76.16488773820026
 20
119.6693668421977
 30
0.0
 10
76.2291180131071
 20
119.7158118982015
 30
0.0
 10
76.274439915229
 20
119.7485840409142
 30
0.0
 10
76.3219809935338
 20
119.7783328835275
 30
0.0
 10
76.3690089107355
 20
119.8086828309881
 30
0.0
 10
76.41731622230108
 20
119.8398570171573
 30
0.0
 10
76.4744833983069
 20
119.8379638877279
 30
0.0
 10
76.52801774922034
 20
119.8476592177383
 30
0.0
 10
76.74471160267305
 20
119.8868924189332
 30
0.0
 10
76.96179652511546
 20
119.9239831608281
 30
0.0
 10
77.17891559592678
 20
119.9608175560647
 30
0.0
 10
77.36256131300146
 20
119.991972563013
 30
0.0
 10
77.54617662399431
 20
120.0235032020178
 30
0.0
 10
77.73033971224496
 20
120.0513317836212
 30
0.0
 10
77.83370682445681
 20
120.0669511539311
 30
0.0
 10
77.9380207352761
 20
120.0768111445689
 30
0.0
 10
78.04214659617456
 20
120.0867749836705
 30
0.0
 10
78.23767173550209
 20
120.1054831441018
 30
0.0
 10
78.43359542839349
 20
120.1207151877085
 30
0.0
 10
78.62668387110665
 20
120.1588219605205
 30
0.0
 10
78.66534964803711
 20
120.1664552904012
 30
0.0
 10
78.70365897213223
 20
120.1761122619698
 30
0.0
 10
78.74181158795957
 20
120.1860601963518
 30
0.0
 10
78.7999639210146
 20
120.2012276855081
 30
0.0
 10
78.85268198557941
 20
120.2275088314425
 30
0.0
 10
78.90418146794433
 20
120.2590235657275
 30
0.0
 10
79.05371015792043
 20
120.3505346449802
 30
0.0
 10
79.20525453722485
 20
120.4387571895438
 30
0.0
 10
79.3559325770918
 20
120.5283821561552
 30
0.0
 10
79.44755452159671
 20
120.5828820171115
 30
0.0
 10
79.54143727522698
 20
120.6329528814193
 30
0.0
 10
79.64006010311195
 20
120.6737335182828
 30
0.0
 10
79.72595681631296
 20
120.7092534352153
 30
0.0
 10
79.8134701974923
 20
120.7393779098849
 30
0.0
 10
79.90635656721274
 20
120.7505140203849
 30
0.0
 10
79.92636423680037
 20
120.7529128263432
 30
0.0
 10
79.94659737917874
 20
120.7536519280232
 30
0.0
 10
79.96675427245965
 20
120.7544452928645
 30
0.0
 10
80.06032641627024
 20
120.7581361234047
 30
0.0
 10
80.15390277015368
 20
120.7618643768151
 30
0.0
 10
80.24749783547223
 20
120.7648881447002
 30
0.0
 10
80.26809959311873
 20
120.7655552073556
 30
0.0
 10
80.28295647245501
 20
120.7719507758155
 30
0.0
 10
80.29662190117222
 20
120.78891175601
 30
0.0
 10
80.32393311159964
 20
120.8228215539665
 30
0.0
 10
80.36025762023408
 20
120.8469564983142
 30
0.0
 10
80.39694232399127
 20
120.8698723926762
 30
0.0
 10
80.47974229471099
 20
120.9216057679775
 30
0.0
 10
80.5677159771897
 20
120.9629196807369
 30
0.0
 10
80.65854081456656
 20
120.9983628807859
 30
0.0
 10
80.7853832930446
 20
121.0478583684696
 30
0.0
 10
80.91470924672417
 20
121.0891760235157
 30
0.0
 10
81.04984790766572
 20
121.1085395519557
 30
0.0
 10
81.18012019216697
 20
121.1272051438727
 30
0.0
 10
81.31133506520311
 20
121.1319035851842
 30
0.0
 10
81.44279880032374
 20
121.126350966868
 30
0.0
 10
81.46838575202233
 20
121.1252741237876
 30
0.0
 10
81.49399609301435
 20
121.1215000273618
 30
0.0
 10
81.51924998117103
 20
121.1170195742671
 30
0.0
 10
81.53253603554494
 20
121.1146628690373
 30
0.0
 10
81.5461093104451
 20
121.1098652571206
 30
0.0
 10
81.55774314511446
 20
121.1030748773836
 30
0.0
 10
81.5855071722671
 20
121.0868726458757
 30
0.0
 10
81.58975653914024
 20
121.0568445350957
 30
0.0
 10
81.5685649035074
 20
121.0329668729786
 30
0.0
 10
81.55540515131945
 20
121.0181399319381
 30
0.0
 10
81.53967444797188
 20
121.0089357770947
 30
0.0
 10
81.51855952922227
 20
121.0077859594181
 30
0.0
 10
81.46355820180955
 20
121.0047930654005
 30
0.0
 10
81.4086476248569
 20
121.0001788255463
 30
0.0
 10
81.35370710960784
 20
120.9961165730225
 30
0.0
 10
81.34833412106707
 20
120.9957189550301
 30
0.0
 10
81.34301165340054
 20
120.994633691804
 30
0.0
 10
81.33579184623173
 20
120.993603627311
 30
0.0
 10
81.31613267711981
 20
120.9068171853785
 30
0.0
 10
81.29655864503682
 20
120.8204077788601
 30
0.0
 10
81.27622586426756
 20
120.7306331207693
 30
0.0
 10
81.30528472271757
 20
120.7274175606759
 30
0.0
 10
81.33123935411275
 20
120.7245434842705
 30
0.0
 10
81.35886491664697
 20
120.7214860358025
 30
0.0
 10
81.3671999253377
 20
120.6781671927903
 30
0.0
 10
81.37532723710062
 20
120.6360065876001
 30
0.0
 10
81.38341338370685
 20
120.5938384978361
 30
0.0
 10
81.38670098282421
 20
120.5767203415881
 30
0.0
 10
81.3893449085803
 20
120.5594562361477
 30
0.0
 10
81.3933117327861
 20
120.5424999338119
 30
0.0
 10
81.39651513044637
 20
120.5288153258741
 30
0.0
 10
81.3957563817601
 20
120.5170888696016
 30
0.0
 10
81.38331327752988
 20
120.5083515650599
 30
0.0
 10
81.38257791813703
 20
120.5078341938843
 30
0.0
 10
81.38196886092979
 20
120.5070913499172
 30
0.0
 10
81.38140471116667
 20
120.5063747019595
 30
0.0
 10
81.35647733754955
 20
120.474487610119
 30
0.0
 10
81.32648758521135
 20
120.4536327803152
 30
0.0
 10
81.2832838175242
 20
120.45919007649
 30
0.0
 10
81.27550547402274
 20
120.4601902026873
 30
0.0
 10
81.26721256606055
 20
120.4572085355307
 30
0.0
 10
81.25582338340284
 20
120.4555918675527
 30
0.0
 10
81.25874377061001
 20
120.4484908779956
 30
0.0
 10
81.25961712683554
 20
120.4420560155224
 30
0.0
 10
81.26326164657462
 20
120.4383623782667
 30
0.0
 10
81.27288025970145
 20
120.4286212052407
 30
0.0
 10
81.28686331502676
 20
120.4218149207841
 30
0.0
 10
81.29310170743312
 20
120.4105216342305
 30
0.0
 10
81.29868519961694
 20
120.4004127815082
 30
0.0
 10
81.29625926207808
 20
120.3858814811396
 30
0.0
 10
81.29753163965356
 20
120.371446544661
 30
0.0
 10
81.30843853507544
 20
120.3708066135862
 30
0.0
 10
81.31836682245076
 20
120.3698860109877
 30
0.0
 10
81.32830727225856
 20
120.3696829919185
 30
0.0
 10
81.54317348630413
 20
120.3652914181399
 30
0.0
 10
81.75803970034939
 20
120.3609887236772
 30
0.0
 10
81.97290497882311
 20
120.3566504774881
 30
0.0
 10
82.07574770307123
 20
120.3545772504974
 30
0.0
 10
82.17862036561478
 20
120.3533469736508
 30
0.0
 10
82.28140508441447
 20
120.3497253754197
 30
0.0
 10
82.30560458321258
 20
120.3488749407018
 30
0.0
 10
82.32998090507121
 20
120.3414025291615
 30
0.0
 10
82.353406686035
 20
120.3341789797059
 30
0.0
 10
82.37092713813401
 20
120.328776052869
 30
0.0
 10
82.38264891654754
 20
120.314819193553
 30
0.0
 10
82.38517870255014
 20
120.2958345716703
 30
0.0
 10
82.39172396248975
 20
120.2467338952641
 30
0.0
 10
82.39795112803516
 20
120.1975836335548
 30
0.0
 10
82.40367589155265
 20
120.1483828509716
 30
0.0
 10
82.40743876111775
 20
120.1160363934039
 30
0.0
 10
82.40049494761428
 20
120.0871847640953
 30
0.0
 10
82.37813478287
 20
120.0614906894319
 30
0.0
 10
82.36770409346677
 20
120.0495036764283
 30
0.0
 10
82.36054135617454
 20
120.0330600674097
 30
0.0
 10
82.35660634140818
 20
120.0174481816736
 30
0.0
 10
82.3518274409266
 20
119.9984794645108
 30
0.0
 10
82.34095235494384
 20
119.9919112830635
 30
0.0
 10
82.32351610430192
 20
119.9864311715577
 30
0.0
 10
82.2342429126672
 20
119.9583953608126
 30
0.0
 10
82.14523916569517
 20
119.9294440931131
 30
0.0
 10
82.0566292944287
 20
119.899369671532
 30
0.0
 10
82.01670657685689
 20
119.8858193181398
 30
0.0
 10
81.97790280309377
 20
119.8689659286958
 30
0.0
 10
81.93865369717929
 20
119.8534494712781
 30
0.0
 10
81.93379901538601
 20
119.8515296780542
 30
0.0
 10
81.92933446701122
 20
119.8486209854938
 30
0.0
 10
81.91848557703712
 20
119.8429037065501
 30
0.0
 10
81.94033679075145
 20
119.8391904222878
 30
0.0
 10
81.955871959604
 20
119.8359753299805
 30
0.0
 10
81.97156056222335
 20
119.8340054836681
 30
0.0
 10
82.0025962837741
 20
119.8301121018445
 30
0.0
 10
82.02955571922482
 20
119.8178416106017
 30
0.0
 10
82.05304605463937
 20
119.7972594999618
 30
0.0
 10
82.09034355789022
 20
119.7645753009933
 30
0.0
 10
82.1275652798297
 20
119.7317919314197
 30
0.0
 10
82.16542599727215
 20
119.6997668427468
 30
0.0
 10
82.19306372223916
 20
119.6763911148715
 30
0.0
 10
82.20824618054348
 20
119.6480297251584
 30
0.0
 10
82.20764460791042
 20
119.6112299460765
 30
0.0
 10
82.20700093454883
 20
119.5718437789012
 30
0.0
 10
82.20749865871814
 20
119.5324346902183
 30
0.0
 10
82.20749865871814
 20
119.4890779565501
 30
0.0
 10
81.89492600931352
 20
119.4980220224478
 30
0.0
 10
81.58068991334373
 20
119.5092273652572
 30
0.0
 10
81.26244863472668
 20
119.5191448935573
 30
0.0
 10
81.2480637513365
 20
119.4520751583994
 30
0.0
 10
81.23374669689775
 20
119.3853277277079
 30
0.0
 10
81.21920416966826
 20
119.3175188908703
 30
0.0
 10
81.19956838985009
 20
119.312874244934
 30
0.0
 10
81.18100571082529
 20
119.3080532437235
 30
0.0
 10
81.16225123959225
 20
119.3041827834079
 30
0.0
 10
81.14890016298216
 20
119.3014354769739
 30
0.0
 10
81.13742303658026
 20
119.2965723750349
 30
0.0
 10
81.13306233666952
 20
119.2826042888579
 30
0.0
 10
81.12159643712859
 20
119.2458583051513
 30
0.0
 10
81.09602118007702
 20
119.2382591236395
 30
0.0
 10
81.05970415601644
 20
119.2386656295633
 30
0.0
 10
80.95779326122803
 20
119.2398037525932
 30
0.0
 10
80.85584026571141
 20
119.2369217238275
 30
0.0
 10
80.75390270712826
 20
119.2355309964264
 30
0.0
 10
80.74390097737104
 20
119.2353967418808
 30
0.0
 10
80.73390673218766
 20
119.2346305086203
 30
0.0
 10
80.7230695368606
 20
119.2341131374444
 30
0.0
 10
80.7184248909246
 20
119.2240805338192
 30
0.0
 10
80.71412172867588
 20
119.2150368295307
 30
0.0
 10
80.71002860228444
 20
119.2058972291377
 30
0.0
 10
80.60497933207196
 20
118.9713802661262
 30
0.0
 10
80.50009846477431
 20
118.7367828439445
 30
0.0
 10
80.39460479798234
 20
118.5024651577151
 30
0.0
 10
80.38692141501315
 20
118.4854007968423
 30
0.0
 10
80.3853463799776
 20
118.4705743235878
 30
0.0
 10
80.39192204599873
 20
118.4527320348079
 30
0.0
 10
80.41031632210934
 20
118.4028075874785
 30
0.0
 10
80.42743026828421
 20
118.3523924327679
 30
0.0
 10
80.44405818493713
 20
118.3018430235118
 30
0.0
 10
80.44922768662296
 20
118.2861123201642
 30
0.0
 10
80.45745510456287
 20
118.2751909233798
 30
0.0
 10
80.47192138269521
 20
118.2665340780084
 30
0.0
 10
80.5215469148516
 20
118.2368352884835
 30
0.0
 10
80.57006519784566
 20
118.2052929548317
 30
0.0
 10
80.61968698771496
 20
118.1755829384459
 30
0.0
 10
80.63399234750666
 20
118.1670145046045
 30
0.0
 10
80.63948742816054
 20
118.1572770738655
 30
0.0
 10
80.63934194675402
 20
118.1405191127399
 30
0.0
 10
80.63857524570747
 20
118.0495988470453
 30
0.0
 10
80.63860986186216
 20
117.9586668867038
 30
0.0
 10
80.63932276753313
 20
117.8677461532231
 30
0.0
 10
80.63944906971876
 20
117.8511650151577
 30
0.0
 10
80.63440212793179
 20
117.8411862069081
 30
0.0
 10
80.61990544371761
 20
117.8325256192497
 30
0.0
 10
80.56947110978646
 20
117.8023936600059
 30
0.0
 10
80.52009069742782
 20
117.7704990835916
 30
0.0
 10
80.46985189799167
 20
117.7400378030934
 30
0.0
 10
80.45725957006786
 20
117.7324002631398
 30
0.0
 10
80.44977546388077
 20
117.7229771845077
 30
0.0
 10
80.44515373945241
 20
117.7089169445137
 30
0.0
 10
80.427664161221
 20
117.6557544833691
 30
0.0
 10
80.40934285970684
 20
117.6028600635301
 30
0.0
 10
80.39051213937667
 20
117.5501569681134
 30
0.0
 10
80.38588667266121
 20
117.5372123974271
 30
0.0
 10
80.38548811909735
 20
117.5261642306712
 30
0.0
 10
80.39125919341623
 20
117.5133230406629
 30
0.0
 10
80.49997590487546
 20
117.2713982205615
 30
0.0
 10
80.60831324199104
 20
117.0292975129717
 30
0.0
 10
80.71678857593962
 20
116.7872622954042
 30
0.0
 10
80.71863960464017
 20
116.7831312783571
 30
0.0
 10
80.72121476587296
 20
116.7793333248515
 30
0.0
 10
80.72494722935623
 20
116.7727422218966
 30
0.0
 10
80.73394134834236
 20
116.7727422218966
 30
0.0
 10
80.74391594651907
 20
116.7728535549345
 30
0.0
 10
80.75387978562061
 20
116.7727267849628
 30
0.0
 10
80.86224378653127
 20
116.7713131360536
 30
0.0
 10
80.97061152972869
 20
116.7690939598707
 30
0.0
 10
81.07897599842511
 20
116.7690326799213
 30
0.0
 10
81.1026352045396
 20
116.7690177107733
 30
0.0
 10
81.1172277848579
 20
116.7622306055373
 30
0.0
 10
81.12505290694652
 20
116.7401773083259
 30
0.0
 10
81.12716823466569
 20
116.7342027471521
 30
0.0
 10
81.13175160065227
 20
116.7291328838568
 30
0.0
 10
81.13414666432385
 20
116.7232238127053
 30
0.0
 10
81.1388179740546
 20
116.7116816640672
 30
0.0
 10
81.14781209304074
 20
116.7069182005191
 30
0.0
 10
81.15926208786179
 20
116.7044618568984
 30
0.0
 10
81.17890160996706
 20
116.700262075328
 30
0.0
 10
81.19841108759961
 20
116.6954527687642
 30
0.0
 10
81.21924252810972
 20
116.690605103759
 30
0.0
 10
81.23354742011566
 20
116.6234932678726
 30
0.0
 10
81.24766098769946
 20
116.5572978245117
 30
0.0
 10
81.26224187337073
 20
116.4888832049679
 30
0.0
 10
81.57831356110727
 20
116.4990687745735
 30
0.0
 10
81.89272648013727
 20
116.5091972743024
 30
0.0
 10
82.2087523248585
 20
116.5193753593341
 30
0.0
 10
82.20951855811896
 20
116.5111820897631
 30
0.0
 10
82.2107142188112
 20
116.5050391256748
 30
0.0
 10
82.21055704275766
 20
116.4989349878136
 30
0.0
 10
82.20961772872408
 20
116.462211925615
 30
0.0
 10
82.20804316147462
 20
116.4255000902776
 30
0.0
 10
82.20732651351655
 20
116.3887732857919
 30
0.0
 10
82.2067558147511
 20
116.3593771537272
 30
0.0
 10
82.19502561619186
 20
116.335058837317
 30
0.0
 10
82.17363470377725
 20
116.3159633501824
 30
0.0
 10
82.1311597464803
 20
116.2780563219385
 30
0.0
 10
82.08825161946478
 20
116.2406011748484
 30
0.0
 10
82.04472695066819
 20
116.2039052442306
 30
0.0
 10
82.02550095127515
 20
116.1877030127224
 30
0.0
 10
82.00225573565834
 20
116.1786899484082
 30
0.0
 10
81.97723199815134
 20
116.1748080273385
 30
0.0
 10
81.96036644627488
 20
116.1721984838442
 30
0.0
 10
81.94351305683121
 20
116.1694930442461
 30
0.0
 10
81.9252076600366
 20
116.1614684114822
 30
0.0
 10
81.93453063249179
 20
116.1570960169244
 30
0.0
 10
81.94368520203247
 20
116.1523365295563
 30
0.0
 10
81.95319715998065
 20
116.148420226225
 30
0.0
 10
82.06871968811035
 20
116.1008101495037
 30
0.0
 10
82.18758314294755
 20
116.0628378651305
 30
0.0
 10
82.3069003500818
 20
116.0261915198154
 30
0.0
 10
82.31128350371475
 20
116.0248464015367
 30
0.0
 10
82.31558713374923
 20
116.0228077907007
 30
0.0
 10
82.3200713291307
 20
116.0222904195248
 30
0.0
 10
82.34200206644348
 20
116.0197536167338
 30
0.0
 10
82.35286966785237
 20
116.0077053237806
 30
0.0
 10
82.35843819088817
 20
115.9861689299592
 30
0.0
 10
82.36243869567681
 20
115.9706987833428
 30
0.0
 10
82.37092246027507
 20
115.9552286367265
 30
0.0
 10
82.3810855761587
 20
115.9427628448815
 30
0.0
 10
82.3991383685817
 20
115.9206246445341
 30
0.0
 10
82.40679508775615
 20
115.8961414336036
 30
0.0
 10
82.40412403041957
 20
115.8686307125012
 30
0.0
 10
82.40048746304042
 20
115.8312101815657
 30
0.0
 10
82.39525668140483
 20
115.7939468266835
 30
0.0
 10
82.39070418928586
 20
115.7566144733847
 30
0.0
 10
82.38914833347118
 20
115.7438652033005
 30
0.0
 10
82.38713311192899
 20
115.7311580339449
 30
0.0
 10
82.38607498028364
 20
115.7183701715261
 30
0.0
 10
82.38430487853886
 20
115.6969717745373
 30
0.0
 10
82.37362813376635
 20
115.6806584438844
 30
0.0
 10
82.354019485529
 20
115.6741784400742
 30
0.0
 10
82.33077801219926
 20
115.666495057105
 30
0.0
 10
82.30627913044209
 20
115.6587887526281
 30
0.0
 10
82.28215260624013
 20
115.6581986407489
 30
0.0
 10
82.06180207061585
 20
115.6527875276596
 30
0.0
 10
81.84141036983489
 20
115.6489554257851
 30
0.0
 10
81.62103457377349
 20
115.6445907496944
 30
0.0
 10
81.52278270008644
 20
115.6426440587826
 30
0.0
 10
81.42453176197093
 20
115.6405670895049
 30
0.0
 10
81.32628456614249
 20
115.6384517617857
 30
0.0
 10
81.31724039406788
 20
115.6382602034707
 30
0.0
 10
81.30821212671283
 20
115.6373519971976
 30
0.0
 10
81.30026818701243
 20
115.6368460867757
 30
0.0
 10
81.29832126220744
 20
115.6336576582632
 30
0.0
 10
81.29646695900588
 20
115.6320522171461
 30
0.0
 10
81.2966157149134
 20
115.6306572796718
 30
0.0
 10
81.29934851998551
 20
115.605518700733
 30
0.0
 10
81.29099479985966
 20
115.5865382889231
 30
0.0
 10
81.26819304525114
 20
115.573677685801
 30
0.0
 10
81.26241869643093
 20
115.5704242350523
 30
0.0
 10
81.25947538771578
 20
115.5621507402039
 30
0.0
 10
81.25177282552602
 20
115.5513250056306
 30
0.0
 10
81.27632877715978
 20
115.5494550316021
 30
0.0
 10
81.29441618573715
 20
115.5470101487352
 30
0.0
 10
81.31250359431452
 20
115.5470101487352
 30
0.0
 10
81.32913525325453
 20
115.5470101487352
 30
0.0
 10
81.34243253448938
 20
115.5430975876911
 30
0.0
 10
81.35352280197378
 20
115.5297004341721
 30
0.0
 10
81.36631861675222
 20
115.5142340298428
 30
0.0
 10
81.38747095837176
 20
115.5022664299529
 30
0.0
 10
81.39279061932305
 20
115.4850142530522
 30
0.0
 10
81.39810560241573
 20
115.4677737707982
 30
0.0
 10
81.38869749293161
 20
115.4458196441919
 30
0.0
 10
81.38511051085518
 20
115.4260458675411
 30
0.0
 10
81.37677175987737
 20
115.3801181827133
 30
0.0
 10
81.36805036005525
 20
115.3342632385888
 30
0.0
 10
81.35915213717324
 20
115.2866150373192
 30
0.0
 10
81.3318905120482
 20
115.2837100870458
 30
0.0
 10
81.30588629535094
 20
115.280943367498
 30
0.0
 10
81.2762408334156
 20
115.2777818366734
 30
0.0
 10
81.29642485827702
 20
115.1883750921718
 30
0.0
 10
81.31594556277051
 20
115.1019151647788
 30
0.0
 10
81.33580307309268
 20
115.013964637701
 30
0.0
 10
81.36121787958969
 20
115.0116617278467
 30
0.0
 10
81.3857279882078
 20
115.0091478465634
 30
0.0
 10
81.41028393984155
 20
115.0072968178628
 30
0.0
 10
81.445995648982
 20
115.0046028390182
 30
0.0
 10
81.48183272473655
 20
115.0032923368942
 30
0.0
 10
81.51741064711719
 20
114.9995023357486
 30
0.0
 10
81.5304628085543
 20
114.9981151167413
 30
0.0
 10
81.54421945551668
 20
114.9934054485688
 30
0.0
 10
81.55538269759755
 20
114.9865268911947
 30
0.0
 10
81.57244284839717
 20
114.9760115325486
 30
0.0
 10
81.5841459153759
 20
114.9600088117154
 30
0.0
 10
81.58121102680678
 20
114.9383304448813
 30
0.0
 10
81.57829110738538
 20
114.9168132302807
 30
0.0
 10
81.56334160644599
 20
114.9038415280139
 30
0.0
 10
81.54398556258022
 20
114.898127991357
 30
0.0
 10
81.52300162387519
 20
114.8919352080731
 30
0.0
 10
81.50104375498188
 20
114.8890190309391
 30
0.0
 10
81.47948818193953
 20
114.8847846332137
 30
0.0
 10
81.46973110419395
 20
114.8828685822766
 30
0.0
 10
81.45992069885888
 20
114.8812245488249
 30
0.0
 10
81.45014116739141
 20
114.8794542131875
 30
0.0
 10
81.45014116739141
 20
114.8794542131875
 30
0.0
 10
81.2517541140909
 20
114.8794542131875
 30
0.0
 10
81.2517541140909
 20
114.8794542131875
 30
0.0
  0
HATCH
  5
C1
330
BC
100
AcDbEntity
  8
Layer 5
 62
     7
420
 16777215
100
AcDbHatch
 10
0.0
 20
0.0
 30
0.0
210
0.0
220
0.0
230
1.0
  2
SOLID
 70
     1
 71
     0
 91
        1
 92
        1
 93
        1
 72
     4
 94
        3
 73
     0
 74
     1
 95
      632
 96
      628
 40
0.0
 40
0.0
 40
0.0
 40
0.0
 40
1.0
 40
1.0
 40
1.0
 40
2.0
 40
2.0
 40
2.0
 40
3.0
 40
3.0
 40
3.0
 40
4.0
 40
4.0
 40
4.0
 40
5.0
 40
5.0
 40
5.0
 40
6.0
 40
6.0
 40
6.0
 40
7.0
 40
7.0
 40
7.0
 40
8.0
 40
8.0
 40
8.0
 40
9.0
 40
9.0
 40
9.0
 40
10.0
 40
10.0
 40
10.0
 40
11.0
 40
11.0
 40
11.0
 40
12.0
 40
12.0
 40
12.0
 40
13.0
 40
13.0
 40
13.0
 40
14.0
 40
14.0
 40
14.0
 40
15.0
 40
15.0
 40
15.0
 40
16.0
 40
16.0
 40
16.0
 40
17.0
 40
17.0
 40
17.0
 40
18.0
 40
18.0
 40
18.0
 40
19.0
 40
19.0
 40
19.0
 40
20.0
 40
20.0
 40
20.0
 40
21.0
 40
21.0
 40
21.0
 40
22.0
 40
22.0
 40
22.0
 40
23.0
 40
23.0
 40
23.0
 40
24.0
 40
24.0
 40
24.0
 40
25.0
 40
25.0
 40
25.0
 40
26.0
 40
26.0
 40
26.0
 40
27.0
 40
27.0
 40
27.0
 40
28.0
 40
28.0
 40
28.0
 40
29.0
 40
29.0
 40
29.0
 40
30.0
 40
30.0
 40
30.0
 40
31.0
 40
31.0
 40
31.0
 40
32.0
 40
32.0
 40
32.0
 40
33.0
 40
33.0
 40
33.0
 40
34.0
 40
34.0
 40
34.0
 40
35.0
 40
35.0
 40
35.0
 40
36.0
 40
36.0
 40
36.0
 40
37.0
 40
37.0
 40
37.0
 40
38.0
 40
38.0
 40
38.0
 40
39.0
 40
39.0
 40
39.0
 40
40.0
 40
40.0
 40
40.0
 40
41.0
 40
41.0
 40
41.0
 40
42.0
 40
42.0
 40
42.0
 40
43.0
 40
43.0
 40
43.0
 40
44.0
 40
44.0
 40
44.0
 40
45.0
 40
45.0
 40
45.0
 40
46.0
 40
46.0
 40
46.0
 40
47.0
 40
47.0
 40
47.0
 40
48.0
 40
48.0
 40
48.0
 40
49.0
 40
49.0
 40
49.0
 40
50.0
 40
50.0
 40
50.0
 40
51.0
 40
51.0
 40
51.0
 40
52.0
 40
52.0
 40
52.0
 40
53.0
 40
53.0
 40
53.0
 40
54.0
 40
54.0
 40
54.0
 40
55.0
 40
55.0
 40
55.0
 40
56.0
 40
56.0
 40
56.0
 40
57.0
 40
57.0
 40
57.0
 40
58.0
 40
58.0
 40
58.0
 40
59.0
 40
59.0
 40
59.0
 40
60.0
 40
60.0
 40
60.0
 40
61.0
 40
61.0
 40
61.0
 40
62.0
 40
62.0
 40
62.0
 40
63.0
 40
63.0
 40
63.0
 40
64.0
 40
64.0
 40
64.0
 40
65.0
 40
65.0
 40
65.0
 40
66.0
 40
66.0
 40
66.0
 40
67.0
 40
67.0
 40
67.0
 40
68.0
 40
68.0
 40
68.0
 40
69.0
 40
69.0
 40
69.0
 40
70.0
 40
70.0
 40
70.0
 40
71.0
 40
71.0
 40
71.0
 40
72.0
 40
72.0
 40
72.0
 40
73.0
 40
73.0
 40
73.0
 40
74.0
 40
74.0
 40
74.0
 40
75.0
 40
75.0
 40
75.0
 40
76.0
 40
76.0
 40
76.0
 40
77.0
 40
77.0
 40
77.0
 40
78.0
 40
78.0
 40
78.0
 40
79.0
 40
79.0
 40
79.0
 40
80.0
 40
80.0
 40
80.0
 40
81.0
 40
81.0
 40
81.0
 40
82.0
 40
82.0
 40
82.0
 40
83.0
 40
83.0
 40
83.0
 40
84.0
 40
84.0
 40
84.0
 40
85.0
 40
85.0
 40
85.0
 40
86.0
 40
86.0
 40
86.0
 40
87.0
 40
87.0
 40
87.0
 40
88.0
 40
88.0
 40
88.0
 40
89.0
 40
89.0
 40
89.0
 40
90.0
 40
90.0
 40
90.0
 40
91.0
 40
91.0
 40
91.0
 40
92.0
 40
92.0
 40
92.0
 40
93.0
 40
93.0
 40
93.0
 40
94.0
 40
94.0
 40
94.0
 40
95.0
 40
95.0
 40
95.0
 40
96.0
 40
96.0
 40
96.0
 40
97.0
 40
97.0
 40
97.0
 40
98.0
 40
98.0
 40
98.0
 40
99.0
 40
99.0
 40
99.0
 40
100.0
 40
100.0
 40
100.0
 40
101.0
 40
101.0
 40
101.0
 40
102.0
 40
102.0
 40
102.0
 40
103.0
 40
103.0
 40
103.0
 40
104.0
 40
104.0
 40
104.0
 40
105.0
 40
105.0
 40
105.0
 40
106.0
 40
106.0
 40
106.0
 40
107.0
 40
107.0
 40
107.0
 40
108.0
 40
108.0
 40
108.0
 40
109.0
 40
109.0
 40
109.0
 40
110.0
 40
110.0
 40
110.0
 40
111.0
 40
111.0
 40
111.0
 40
112.0
 40
112.0
 40
112.0
 40
113.0
 40
113.0
 40
113.0
 40
114.0
 40
114.0
 40
114.0
 40
115.0
 40
115.0
 40
115.0
 40
116.0
 40
116.0
 40
116.0
 40
117.0
 40
117.0
 40
117.0
 40
118.0
 40
118.0
 40
118.0
 40
119.0
 40
119.0
 40
119.0
 40
120.0
 40
120.0
 40
120.0
 40
121.0
 40
121.0
 40
121.0
 40
122.0
 40
122.0
 40
122.0
 40
123.0
 40
123.0
 40
123.0
 40
124.0
 40
124.0
 40
124.0
 40
125.0
 40
125.0
 40
125.0
 40
126.0
 40
126.0
 40
126.0
 40
127.0
 40
127.0
 40
127.0
 40
128.0
 40
128.0
 40
128.0
 40
129.0
 40
129.0
 40
129.0
 40
130.0
 40
130.0
 40
130.0
 40
131.0
 40
131.0
 40
131.0
 40
132.0
 40
132.0
 40
132.0
 40
133.0
 40
133.0
 40
133.0
 40
134.0
 40
134.0
 40
134.0
 40
135.0
 40
135.0
 40
135.0
 40
136.0
 40
136.0
 40
136.0
 40
137.0
 40
137.0
 40
137.0
 40
138.0
 40
138.0
 40
138.0
 40
139.0
 40
139.0
 40
139.0
 40
140.0
 40
140.0
 40
140.0
 40
141.0
 40
141.0
 40
141.0
 40
142.0
 40
142.0
 40
142.0
 40
143.0
 40
143.0
 40
143.0
 40
144.0
 40
144.0
 40
144.0
 40
145.0
 40
145.0
 40
145.0
 40
146.0
 40
146.0
 40
146.0
 40
147.0
 40
147.0
 40
147.0
 40
148.0
 40
148.0
 40
148.0
 40
149.0
 40
149.0
 40
149.0
 40
150.0
 40
150.0
 40
150.0
 40
151.0
 40
151.0
 40
151.0
 40
152.0
 40
152.0
 40
152.0
 40
153.0
 40
153.0
 40
153.0
 40
154.0
 40
154.0
 40
154.0
 40
155.0
 40
155.0
 40
155.0
 40
156.0
 40
156.0
 40
156.0
 40
157.0
 40
157.0
 40
157.0
 40
158.0
 40
158.0
 40
158.0
 40
159.0
 40
159.0
 40
159.0
 40
160.0
 40
160.0
 40
160.0
 40
161.0
 40
161.0
 40
161.0
 40
162.0
 40
162.0
 40
162.0
 40
163.0
 40
163.0
 40
163.0
 40
164.0
 40
164.0
 40
164.0
 40
165.0
 40
165.0
 40
165.0
 40
166.0
 40
166.0
 40
166.0
 40
167.0
 40
167.0
 40
167.0
 40
168.0
 40
168.0
 40
168.0
 40
169.0
 40
169.0
 40
169.0
 40
170.0
 40
170.0
 40
170.0
 40
171.0
 40
171.0
 40
171.0
 40
172.0
 40
172.0
 40
172.0
 40
173.0
 40
173.0
 40
173.0
 40
174.0
 40
174.0
 40
174.0
 40
175.0
 40
175.0
 40
175.0
 40
176.0
 40
176.0
 40
176.0
 40
177.0
 40
177.0
 40
177.0
 40
178.0
 40
178.0
 40
178.0
 40
179.0
 40
179.0
 40
179.0
 40
180.0
 40
180.0
 40
180.0
 40
181.0
 40
181.0
 40
181.0
 40
182.0
 40
182.0
 40
182.0
 40
183.0
 40
183.0
 40
183.0
 40
184.0
 40
184.0
 40
184.0
 40
185.0
 40
185.0
 40
185.0
 40
186.0
 40
186.0
 40
186.0
 40
187.0
 40
187.0
 40
187.0
 40
188.0
 40
188.0
 40
188.0
 40
189.0
 40
189.0
 40
189.0
 40
190.0
 40
190.0
 40
190.0
 40
191.0
 40
191.0
 40
191.0
 40
192.0
 40
192.0
 40
192.0
 40
193.0
 40
193.0
 40
193.0
 40
194.0
 40
194.0
 40
194.0
 40
195.0
 40
195.0
 40
195.0
 40
196.0
 40
196.0
 40
196.0
 40
197.0
 40
197.0
 40
197.0
 40
198.0
 40
198.0
 40
198.0
 40
199.0
 40
199.0
 40
199.0
 40
200.0
 40
200.0
 40
200.0
 40
201.0
 40
201.0
 40
201.0
 40
202.0
 40
202.0
 40
202.0
 40
203.0
 40
203.0
 40
203.0
 40
204.0
 40
204.0
 40
204.0
 40
205.0
 40
205.0
 40
205.0
 40
206.0
 40
206.0
 40
206.0
 40
207.0
 40
207.0
 40
207.0
 40
208.0
 40
208.0
 40
208.0
 40
209.0
 40
209.0
 40
209.0
 40
209.0
 10
81.2517541140909
 20
114.8794542131875
 10
81.24374094208113
 20
114.8809485551595
 10
81.2357511593651
 20
114.8836273309632
 10
81.2277225504212
 20
114.8837576093288
 10
81.03023925942806
 20
114.8869497801284
 10
80.84323250085379
 20
114.9376369523241
 10
80.66073285916863
 20
115.0086381938545
 10
80.57161731137325
 20
115.0433109505704
 10
80.48513446247266
 20
115.0835940971576
 10
80.40366393920466
 20
115.133940253452
 10
80.36060612070979
 20
115.1605539951422
 10
80.3188595060176
 20
115.1891492777922
 10
80.28734009387405
 20
115.2297502848803
 10
80.27874499623755
 20
115.2408213731441
 10
80.26737873508782
 20
115.2418292178081
 10
80.25549182826111
 20
115.2424155874002
 10
80.1812139805811
 20
115.246101973975
 10
80.10676398769982
 20
115.2544713649272
 10
80.0326704476542
 20
115.252080043543
 10
79.89336568572506
 20
115.2475811129064
 10
79.76301294205349
 20
115.2803686925529
 10
79.63756165876238
 20
115.3360221134726
 10
79.56466705391
 20
115.3683536018926
 10
79.49225192957758
 20
115.4026432419782
 10
79.4228105200418
 20
115.4417307278733
 10
79.2364324656811
 20
115.5466499536128
 10
79.05028409418433
 20
115.6520977773891
 10
78.87117169000807
 20
115.7693754381159
 10
78.82055351622863
 20
115.8025154944178
 10
78.76234785558378
 20
115.8177136235488
 10
78.70442193089168
 20
115.8321452855264
 10
78.59558219174785
 20
115.8592651715317
 10
78.48483061173978
 20
115.8760764602468
 10
78.37344705301683
 20
115.8877299419228
 10
78.21733100237256
 20
115.9040624517967
 10
78.06073219670701
 20
115.9159573109833
 10
77.90480372819813
 20
115.9338110605171
 10
77.7872542838792
 20
115.9472692600923
 10
77.6701913368683
 20
115.9655982800732
 10
77.55334263578754
 20
115.9844484135171
 10
77.37398511181355
 20
116.0133769936018
 10
77.19492229293968
 20
116.0441984692225
 10
77.01587116871285
 20
116.0749970233358
 10
76.81421101765693
 20
116.1096852169852
 10
76.61269213793469
 20
116.1451936731639
 10
76.41115407899187
 20
116.1805716170838
 10
76.40317973320931
 20
116.1819702968449
 10
76.3949752367774
 20
116.1846067380268
 10
76.38796219096454
 20
116.1885768367336
 10
76.27381542108829
 20
116.2531822759112
 10
76.16794986452688
 20
116.3285902942609
 10
76.08063155005678
 20
116.4276233703564
 10
76.02419599115673
 20
116.4916309791877
 10
75.97818410487184
 20
116.562229690974
 10
75.95421054665026
 20
116.6448724856405
 10
75.94454983279455
 20
116.6781736941759
 10
75.93846814865566
 20
116.712827271671
 10
75.93422626635638
 20
116.7472895247439
 10
75.93032493217316
 20
116.7789656451553
 10
75.93899300440548
 20
116.8069359658781
 10
75.96090503028314
 20
116.8334159208088
 10
75.98259860015816
 20
116.8596123975001
 10
76.00458734291905
 20
116.8672111112265
 10
76.03811449203128
 20
116.8656978239261
 10
76.21884028968455
 20
116.8575391705098
 10
76.39969613181087
 20
116.8523004365146
 10
76.58050613092155
 20
116.8460466071741
 10
76.59243934854965
 20
116.8456363589632
 10
76.60437630846484
 20
116.8446441851259
 10
76.616298299232
 20
116.8448317672613
 10
76.62926953371336
 20
116.8450310440431
 10
76.63866594855043
 20
116.8397965201207
 10
76.64729613012737
 20
116.8302317023691
 10
76.66820381973496
 20
116.8070510412031
 10
76.69102802806569
 20
116.7855300843154
 10
76.71111194675046
 20
116.7616865705669
 10
76.73300105112047
 20
116.7356973230173
 10
76.76066122980937
 20
116.7253316558506
 10
76.7932991179765
 20
116.7242548127701
 10
76.87407217250731
 20
116.7215874977206
 10
76.95483727467818
 20
116.7185791667693
 10
77.03561453928185
 20
116.716076980133
 10
77.24215322921056
 20
116.709681411673
 10
77.44870314600021
 20
116.7036839289912
 10
77.65523809364214
 20
116.6971658006324
 10
77.87186692485801
 20
116.690329110094
 10
78.08849201378712
 20
116.683331501215
 10
78.30508997113571
 20
116.6755830960096
 10
78.32659549108925
 20
116.674813120462
 10
78.34334970992812
 20
116.6801355881286
 10
78.36066667517218
 20
116.6927662744938
 10
78.38951128769239
 20
116.7138161710073
 10
78.41991877281534
 20
116.7329228850024
 10
78.45078655923768
 20
116.7509298344098
 10
78.47643104859861
 20
116.7658905622102
 10
78.50289556659527
 20
116.7706385888245
 10
78.5315133029671
 20
116.7537847315947
 10
78.54424362772325
 20
116.7462856562596
 10
78.56138470547928
 20
116.7449711779555
 10
78.57677439292532
 20
116.7435570612606
 10
78.60966535324981
 20
116.7405332933755
 10
78.64272471648846
 20
116.7374449710399
 10
78.67570408834288
 20
116.7375750155126
 10
78.98154015338574
 20
116.7387706762049
 10
79.2873762184286
 20
116.7406483687005
 10
79.59320854118437
 20
116.7423730952151
 10
79.6004171214919
 20
116.7424109858711
 10
79.60761728165406
 20
116.7429746678485
 10
79.6175619415347
 20
116.7434153221409
 10
79.61399788096594
 20
116.7505584124265
 10
79.61199388628468
 20
116.7563641029
 10
79.60857156483567
 20
116.7611617148167
 10
79.57712933736079
 20
116.8052846817454
 10
79.54493584577347
 20
116.848878582851
 10
79.51412933930057
 20
116.8934342517125
 10
79.50459539541659
 20
116.9072184980414
 10
79.49331754579711
 20
116.9140205724252
 10
79.47741797174896
 20
116.9116175563939
 10
79.44021215452905
 20
116.9059961735544
 10
79.4176527130027
 20
116.9238001038926
 10
79.39546843574679
 20
116.9524028711164
 10
79.33019265941284
 20
117.0365556785819
 10
79.26133738557633
 20
117.1179303057458
 10
79.19486969083722
 20
117.2011751408315
 10
79.18237700130462
 20
117.2168179004348
 10
79.16911012615161
 20
117.2279806747299
 10
79.1491333304319
 20
117.2255472526169
 10
79.11466359278478
 20
117.2213357763994
 10
79.09572528170376
 20
117.2380745583042
 10
79.08104054756876
 20
117.2672863827349
 10
79.06624494818192
 20
117.2967288256014
 10
79.04671254904171
 20
117.3237486054297
 10
79.03040693685551
 20
117.3524818849123
 10
79.02321800355432
 20
117.365150929719
 10
79.01411301931635
 20
117.3693661482236
 10
78.99983479110516
 20
117.3709987209215
 10
78.94882180604861
 20
117.3768235906159
 10
78.8980193246351
 20
117.3844952789381
 10
78.84716351563179
 20
117.3916612907316
 10
78.82423265212208
 20
117.3948955622595
 10
78.80594924126362
 20
117.4061121319299
 10
78.79187777440869
 20
117.4245676879896
 10
78.78520621228344
 20
117.4333237039664
 10
78.7764268070129
 20
117.4407081717626
 10
78.77093172635934
 20
117.450077922805
 10
78.75365265177065
 20
117.4795353348191
 10
78.72655989734619
 20
117.4895408068635
 10
78.69468824243953
 20
117.4967718408932
 10
78.35737112369456
 20
117.5732758815442
 10
78.02031502946689
 20
117.650910560651
 10
77.6832163667249
 20
117.7283613999094
 10
77.64299099169271
 20
117.7376006386933
 10
77.60292606721538
 20
117.7475181669934
 10
77.56280781514823
 20
117.7572209815777
 10
77.5023605245986
 20
117.7718402256904
 10
77.46871830016168
 20
117.8134951543513
 10
77.46787160773091
 20
117.8788364207075
 10
77.46678307000373
 20
117.9623993501867
 10
77.46761105099971
 20
118.0459852011739
 10
77.4676451993683
 20
118.1295630998011
 10
77.4676451993683
 20
118.1332305410478
 10
77.4678444761504
 20
118.1369092091558
 10
77.46817052290422
 20
118.1405691658284
 10
77.47332832994333
 20
118.1987593895394
 10
77.50664871769928
 20
118.2374597826243
 10
77.56324472715389
 20
118.2508337807423
 10
77.73287277274889
 20
118.2909253690147
 10
77.90233615771616
 20
118.3317219105981
 10
78.07218640160093
 20
118.3708437787551
 10
78.2858681818152
 20
118.4200670150602
 10
78.49982969798157
 20
118.4680487476578
 10
78.71378372957409
 20
118.5160805333435
 10
78.73244978927686
 20
118.5202728303404
 10
78.74825346722089
 20
118.5261893860658
 10
78.75895640800238
 20
118.5433725645503
 10
78.76568925007705
 20
118.5541943229436
 10
78.77581774980598
 20
118.5628549106021
 10
78.78304878383574
 20
118.5734240646237
 10
78.80324029327133
 20
118.6029352720135
 10
78.83208818029253
 20
118.6164430568911
 10
78.86640869424605
 20
118.620727507705
 10
78.91102564305659
 20
118.626295562955
 10
78.95555464812328
 20
118.6327758006578
 10
79.00029088233168
 20
118.6371173213483
 10
79.01483340956118
 20
118.6385276957561
 10
79.02344441191724
 20
118.6436359174928
 10
79.0306408297923
 20
118.6560327109213
 10
79.05091279839822
 20
118.6909660243688
 10
79.07288984651208
 20
118.7249109062658
 10
79.09301586592572
 20
118.7599246788833
 10
79.10117451934201
 20
118.77411496335
 10
79.11080482711589
 20
118.782526688924
 10
79.12770405957518
 20
118.780917037734
 10
79.16185196054134
 20
118.7776598446982
 10
79.18472996424734
 20
118.792451701798
 10
79.20600580133727
 20
118.8198012706672
 10
79.27254226059998
 20
118.9053111249513
 10
79.34245145600899
 20
118.9881803279804
 10
79.41014147523477
 20
119.0728046636063
 10
79.4226458594144
 20
119.0884319862759
 10
79.43521105575739
 20
119.0959464985448
 10
79.45595455252365
 20
119.0961686968349
 10
79.51152751427334
 20
119.0967627848938
 10
79.4951989805795
 20
119.0901791665127
 10
79.52690550707267
 20
119.1331219096829
 10
79.55308280454305
 20
119.1685763365931
 10
79.57842463644391
 20
119.2046519831431
 10
79.60402655729054
 20
119.2405316274119
 10
79.60867494551364
 20
119.2470539658436
 10
79.61278304105312
 20
119.2539631631924
 10
79.61919825651968
 20
119.2638694646315
 10
79.60926903357284
 20
119.2646319556052
 10
79.60243655310695
 20
119.2655820287137
 10
79.59560360485564
 20
119.2656203871555
 10
79.28793194804602
 20
119.2673717774651
 10
78.9802602912364
 20
119.269418340661
 10
78.67258442435394
 20
119.2702687753785
 10
78.63329415328245
 20
119.2703801084165
 10
78.59395382912281
 20
119.2645206225673
 10
78.5547051909941
 20
119.2607460583555
 10
78.54573071901463
 20
119.2598839289909
 10
78.53572898925741
 20
119.2582055132774
 10
78.52843994977954
 20
119.2534574866634
 10
78.50439388474759
 20
119.237791805552
 10
78.48063083016903
 20
119.2414704736597
 10
78.45796800796471
 20
119.2539098356029
 10
78.42987091727016
 20
119.2693299291307
 10
78.40097671944724
 20
119.2844782390665
 10
78.37618687487704
 20
119.3044204186315
 10
78.34864177151282
 20
119.3265817743797
 10
78.32051427473644
 20
119.3337014753716
 10
78.28545044903045
 20
119.3323832547804
 10
78.02756898500462
 20
119.3226841824833
 10
77.76962670881512
 20
119.3147365004958
 10
77.51169519170048
 20
119.306397749518
 10
77.3767632921152
 20
119.3020370496069
 10
77.24181969788289
 20
119.2980056709507
 10
77.10688358822475
 20
119.2938054215942
 10
77.00407220563032
 20
119.290605766221
 10
76.90127251768259
 20
119.2871109379613
 10
76.79845318272854
 20
119.2842943992182
 10
76.76273819908708
 20
119.2833171945289
 10
76.73252203838628
 20
119.2730165495984
 10
76.70903497747307
 20
119.2441111249145
 10
76.69170631758197
 20
119.2227852347361
 10
76.67084026091685
 20
119.204364294831
 10
76.65291002839304
 20
119.1834795267311
 10
76.64063579486309
 20
119.1691858615861
 10
76.62690908619645
 20
119.1629586960404
 10
76.60790201059216
 20
119.1624067087101
 10
76.4894824845487
 20
119.1589848550468
 10
76.37109336458707
 20
119.1545624074005
 10
76.25269676005159
 20
119.1504239057792
 10
76.17284711483478
 20
119.1476302885438
 10
76.09298250046963
 20
119.145193124144
 10
76.0131712136946
 20
119.1415486044049
 10
75.99780819004299
 20
119.1408473933806
 10
75.98654951964409
 20
119.1439127942085
 10
75.97788893198563
 20
119.1567736312235
 10
75.97381545260083
 20
119.162820699208
 10
75.96887984385147
 20
119.1685113143566
 10
75.96345727000796
 20
119.1733931277307
 10
75.93345582302305
 20
119.2004213277047
 10
75.93102240091034
 20
119.2351015689946
 10
75.93496162574922
 20
119.271955143452
 10
75.94636250305365
 20
119.3786178071412
 10
75.99162733529897
 20
119.4704385606421
 10
76.05774606177661
 20
119.5531431030438
 10
76.10738749865254
 20
119.6152309186512
 10
76.16488773820026
 20
119.6693668421977
 10
76.2291180131071
 20
119.7158118982015
 10
76.274439915229
 20
119.7485840409142
 10
76.3219809935338
 20
119.7783328835275
 10
76.3690089107355
 20
119.8086828309881
 10
76.41731622230108
 20
119.8398570171573
 10
76.4744833983069
 20
119.8379638877279
 10
76.52801774922034
 20
119.8476592177383
 10
76.74471160267305
 20
119.8868924189332
 10
76.96179652511546
 20
119.9239831608281
 10
77.17891559592678
 20
119.9608175560647
 10
77.36256131300146
 20
119.991972563013
 10
77.54617662399431
 20
120.0235032020178
 10
77.73033971224496
 20
120.0513317836212
 10
77.83370682445681
 20
120.0669511539311
 10
77.9380207352761
 20
120.0768111445689
 10
78.04214659617456
 20
120.0867749836705
 10
78.23767173550209
 20
120.1054831441018
 10
78.43359542839349
 20
120.1207151877085
 10
78.62668387110665
 20
120.1588219605205
 10
78.66534964803711
 20
120.1664552904012
 10
78.70365897213223
 20
120.1761122619698
 10
78.74181158795957
 20
120.1860601963518
 10
78.7999639210146
 20
120.2012276855081
 10
78.85268198557941
 20
120.2275088314425
 10
78.90418146794433
 20
120.2590235657275
 10
79.05371015792043
 20
120.3505346449802
 10
79.20525453722485
 20
120.4387571895438
 10
79.3559325770918
 20
120.5283821561552
 10
79.44755452159671
 20
120.5828820171115
 10
79.54143727522698
 20
120.6329528814193
 10
79.64006010311195
 20
120.6737335182828
 10
79.72595681631296
 20
120.7092534352153
 10
79.8134701974923
 20
120.7393779098849
 10
79.90635656721274
 20
120.7505140203849
 10
79.92636423680037
 20
120.7529128263432
 10
79.94659737917874
 20
120.7536519280232
 10
79.96675427245965
 20
120.7544452928645
 10
80.06032641627024
 20
120.7581361234047
 10
80.15390277015368
 20
120.7618643768151
 10
80.24749783547223
 20
120.7648881447002
 10
80.26809959311873
 20
120.7655552073556
 10
80.28295647245501
 20
120.7719507758155
 10
80.29662190117222
 20
120.78891175601
 10
80.32393311159964
 20
120.8228215539665
 10
80.36025762023408
 20
120.8469564983142
 10
80.39694232399127
 20
120.8698723926762
 10
80.47974229471099
 20
120.9216057679775
 10
80.5677159771897
 20
120.9629196807369
 10
80.65854081456656
 20
120.9983628807859
 10
80.7853832930446
 20
121.0478583684696
 10
80.91470924672417
 20
121.0891760235157
 10
81.04984790766572
 20
121.1085395519557
 10
81.18012019216697
 20
121.1272051438727
 10
81.31133506520311
 20
121.1319035851842
 10
81.44279880032374
 20
121.126350966868
 10
81.46838575202233
 20
121.1252741237876
 10
81.49399609301435
 20
121.1215000273618
 10
81.51924998117103
 20
121.1170195742671
 10
81.53253603554494
 20
121.1146628690373
 10
81.5461093104451
 20
121.1098652571206
 10
81.55774314511446
 20
121.1030748773836
 10
81.5855071722671
 20
121.0868726458757
 10
81.58975653914024
 20
121.0568445350957
 10
81.5685649035074
 20
121.0329668729786
 10
81.55540515131945
 20
121.0181399319381
 10
81.53967444797188
 20
121.0089357770947
 10
81.51855952922227
 20
121.0077859594181
 10
81.46355820180955
 20
121.0047930654005
 10
81.4086476248569
 20
121.0001788255463
 10
81.35370710960784
 20
120.9961165730225
 10
81.34833412106707
 20
120.9957189550301
 10
81.34301165340054
 20
120.994633691804
 10
81.33579184623173
 20
120.993603627311
 10
81.31613267711981
 20
120.9068171853785
 10
81.29655864503682
 20
120.8204077788601
 10
81.27622586426756
 20
120.7306331207693
 10
81.30528472271757
 20
120.7274175606759
 10
81.33123935411275
 20
120.7245434842705
 10
81.35886491664697
 20
120.7214860358025
 10
81.3671999253377
 20
120.6781671927903
 10
81.37532723710062
 20
120.6360065876001
 10
81.38341338370685
 20
120.5938384978361
 10
81.38670098282421
 20
120.5767203415881
 10
81.3893449085803
 20
120.5594562361477
 10
81.3933117327861
 20
120.5424999338119
 10
81.39651513044637
 20
120.5288153258741
 10
81.3957563817601
 20
120.5170888696016
 10
81.38331327752988
 20
120.5083515650599
 10
81.38257791813703
 20
120.5078341938843
 10
81.38196886092979
 20
120.5070913499172
 10
81.38140471116667
 20
120.5063747019595
 10
81.35647733754955
 20
120.474487610119
 10
81.32648758521135
 20
120.4536327803152
 10
81.2832838175242
 20
120.45919007649
 10
81.27550547402274
 20
120.4601902026873
 10
81.26721256606055
 20
120.4572085355307
 10
81.25582338340284
 20
120.4555918675527
 10
81.25874377061001
 20
120.4484908779956
 10
81.25961712683554
 20
120.4420560155224
 10
81.26326164657462
 20
120.4383623782667
 10
81.27288025970145
 20
120.4286212052407
 10
81.28686331502676
 20
120.4218149207841
 10
81.29310170743312
 20
120.4105216342305
 10
81.29868519961694
 20
120.4004127815082
 10
81.29625926207808
 20
120.3858814811396
 10
81.29753163965356
 20
120.371446544661
 10
81.30843853507544
 20
120.3708066135862
 10
81.31836682245076
 20
120.3698860109877
 10
81.32830727225856
 20
120.3696829919185
 10
81.54317348630413
 20
120.3652914181399
 10
81.75803970034939
 20
120.3609887236772
 10
81.97290497882311
 20
120.3566504774881
 10
82.07574770307123
 20
120.3545772504974
 10
82.17862036561478
 20
120.3533469736508
 10
82.28140508441447
 20
120.3497253754197
 10
82.30560458321258
 20
120.3488749407018
 10
82.32998090507121
 20
120.3414025291615
 10
82.353406686035
 20
120.3341789797059
 10
82.37092713813401
 20
120.328776052869
 10
82.38264891654754
 20
120.314819193553
 10
82.38517870255014
 20
120.2958345716703
 10
82.39172396248975
 20
120.2467338952641
 10
82.39795112803516
 20
120.1975836335548
 10
82.40367589155265
 20
120.1483828509716
 10
82.40743876111775
 20
120.1160363934039
 10
82.40049494761428
 20
120.0871847640953
 10
82.37813478287
 20
120.0614906894319
 10
82.36770409346677
 20
120.0495036764283
 10
82.36054135617454
 20
120.0330600674097
 10
82.35660634140818
 20
120.0174481816736
 10
82.3518274409266
 20
119.9984794645108
 10
82.34095235494384
 20
119.9919112830635
 10
82.32351610430192
 20
119.9864311715577
 10
82.2342429126672
 20
119.9583953608126
 10
82.14523916569517
 20
119.9294440931131
 10
82.0566292944287
 20
119.899369671532
 10
82.01670657685689
 20
119.8858193181398
 10
81.97790280309377
 20
119.8689659286958
 10
81.93865369717929
 20
119.8534494712781
 10
81.93379901538601
 20
119.8515296780542
 10
81.92933446701122
 20
119.8486209854938
 10
81.91848557703712
 20
119.8429037065501
 10
81.94033679075145
 20
119.8391904222878
 10
81.955871959604
 20
119.8359753299805
 10
81.97156056222335
 20
119.8340054836681
 10
82.0025962837741
 20
119.8301121018445
 10
82.02955571922482
 20
119.8178416106017
 10
82.05304605463937
 20
119.7972594999618
 10
82.09034355789022
 20
119.7645753009933
 10
82.1275652798297
 20
119.7317919314197
 10
82.16542599727215
 20
119.6997668427468
 10
82.19306372223916
 20
119.6763911148715
 10
82.20824618054348
 20
119.6480297251584
 10
82.20764460791042
 20
119.6112299460765
 10
82.20700093454883
 20
119.5718437789012
 10
82.20749865871814
 20
119.5324346902183
 10
82.20749865871814
 20
119.4890779565501
 10
81.89492600931352
 20
119.4980220224478
 10
81.58068991334373
 20
119.5092273652572
 10
81.26244863472668
 20
119.5191448935573
 10
81.2480637513365
 20
119.4520751583994
 10
81.23374669689775
 20
119.3853277277079
 10
81.21920416966826
 20
119.3175188908703
 10
81.19956838985009
 20
119.312874244934
 10
81.18100571082529
 20
119.3080532437235
 10
81.16225123959225
 20
119.3041827834079
 10
81.14890016298216
 20
119.3014354769739
 10
81.13742303658026
 20
119.2965723750349
 10
81.13306233666952
 20
119.2826042888579
 10
81.12159643712859
 20
119.2458583051513
 10
81.09602118007702
 20
119.2382591236395
 10
81.05970415601644
 20
119.2386656295633
 10
80.95779326122803
 20
119.2398037525932
 10
80.85584026571141
 20
119.2369217238275
 10
80.75390270712826
 20
119.2355309964264
 10
80.74390097737104
 20
119.2353967418808
 10
80.73390673218766
 20
119.2346305086203
 10
80.7230695368606
 20
119.2341131374444
 10
80.7184248909246
 20
119.2240805338192
 10
80.71412172867588
 20
119.2150368295307
 10
80.71002860228444
 20
119.2058972291377
 10
80.60497933207196
 20
118.9713802661262
 10
80.50009846477431
 20
118.7367828439445
 10
80.39460479798234
 20
118.5024651577151
 10
80.38692141501315
 20
118.4854007968423
 10
80.3853463799776
 20
118.4705743235878
 10
80.39192204599873
 20
118.4527320348079
 10
80.41031632210934
 20
118.4028075874785
 10
80.42743026828421
 20
118.3523924327679
 10
80.44405818493713
 20
118.3018430235118
 10
80.44922768662296
 20
118.2861123201642
 10
80.45745510456287
 20
118.2751909233798
 10
80.47192138269521
 20
118.2665340780084
 10
80.5215469148516
 20
118.2368352884835
 10
80.57006519784566
 20
118.2052929548317
 10
80.61968698771496
 20
118.1755829384459
 10
80.63399234750666
 20
118.1670145046045
 10
80.63948742816054
 20
118.1572770738655
 10
80.63934194675402
 20
118.1405191127399
 10
80.63857524570747
 20
118.0495988470453
 10
80.63860986186216
 20
117.9586668867038
 10
80.63932276753313
 20
117.8677461532231
 10
80.63944906971876
 20
117.8511650151577
 10
80.63440212793179
 20
117.8411862069081
 10
80.61990544371761
 20
117.8325256192497
 10
80.56947110978646
 20
117.8023936600059
 10
80.52009069742782
 20
117.7704990835916
 10
80.46985189799167
 20
117.7400378030934
 10
80.45725957006786
 20
117.7324002631398
 10
80.44977546388077
 20
117.7229771845077
 10
80.44515373945241
 20
117.7089169445137
 10
80.427664161221
 20
117.6557544833691
 10
80.40934285970684
 20
117.6028600635301
 10
80.39051213937667
 20
117.5501569681134
 10
80.38588667266121
 20
117.5372123974271
 10
80.38548811909735
 20
117.5261642306712
 10
80.39125919341623
 20
117.5133230406629
 10
80.49997590487546
 20
117.2713982205615
 10
80.60831324199104
 20
117.0292975129717
 10
80.71678857593962
 20
116.7872622954042
 10
80.71863960464017
 20
116.7831312783571
 10
80.72121476587296
 20
116.7793333248515
 10
80.72494722935623
 20
116.7727422218966
 10
80.73394134834236
 20
116.7727422218966
 10
80.74391594651907
 20
116.7728535549345
 10
80.75387978562061
 20
116.7727267849628
 10
80.86224378653127
 20
116.7713131360536
 10
80.97061152972869
 20
116.7690939598707
 10
81.07897599842511
 20
116.7690326799213
 10
81.1026352045396
 20
116.7690177107733
 10
81.1172277848579
 20
116.7622306055373
 10
81.12505290694652
 20
116.7401773083259
 10
81.12716823466569
 20
116.7342027471521
 10
81.13175160065227
 20
116.7291328838568
 10
81.13414666432385
 20
116.7232238127053
 10
81.1388179740546
 20
116.7116816640672
 10
81.14781209304074
 20
116.7069182005191
 10
81.15926208786179
 20
116.7044618568984
 10
81.17890160996706
 20
116.700262075328
 10
81.19841108759961
 20
116.6954527687642
 10
81.21924252810972
 20
116.690605103759
 10
81.23354742011566
 20
116.6234932678726
 10
81.24766098769946
 20
116.5572978245117
 10
81.26224187337073
 20
116.4888832049679
 10
81.57831356110727
 20
116.4990687745735
 10
81.89272648013727
 20
116.5091972743024
 10
82.2087523248585
 20
116.5193753593341
 10
82.20951855811896
 20
116.5111820897631
 10
82.2107142188112
 20
116.5050391256748
 10
82.21055704275766
 20
116.4989349878136
 10
82.20961772872408
 20
116.462211925615
 10
82.20804316147462
 20
116.4255000902776
 10
82.20732651351655
 20
116.3887732857919
 10
82.2067558147511
 20
116.3593771537272
 10
82.19502561619186
 20
116.335058837317
 10
82.17363470377725
 20
116.3159633501824
 10
82.1311597464803
 20
116.2780563219385
 10
82.08825161946478
 20
116.2406011748484
 10
82.04472695066819
 20
116.2039052442306
 10
82.02550095127515
 20
116.1877030127224
 10
82.00225573565834
 20
116.1786899484082
 10
81.97723199815134
 20
116.1748080273385
 10
81.96036644627488
 20
116.1721984838442
 10
81.94351305683121
 20
116.1694930442461
 10
81.9252076600366
 20
116.1614684114822
 10
81.93453063249179
 20
116.1570960169244
 10
81.94368520203247
 20
116.1523365295563
 10
81.95319715998065
 20
116.148420226225
 10
82.06871968811035
 20
116.1008101495037
 10
82.18758314294755
 20
116.0628378651305
 10
82.3069003500818
 20
116.0261915198154
 10
82.31128350371475
 20
116.0248464015367
 10
82.31558713374923
 20
116.0228077907007
 10
82.3200713291307
 20
116.0222904195248
 10
82.34200206644348
 20
116.0197536167338
 10
82.35286966785237
 20
116.0077053237806
 10
82.35843819088817
 20
115.9861689299592
 10
82.36243869567681
 20
115.9706987833428
 10
82.37092246027507
 20
115.9552286367265
 10
82.3810855761587
 20
115.9427628448815
 10
82.3991383685817
 20
115.9206246445341
 10
82.40679508775615
 20
115.8961414336036
 10
82.40412403041957
 20
115.8686307125012
 10
82.40048746304042
 20
115.8312101815657
 10
82.39525668140483
 20
115.7939468266835
 10
82.39070418928586
 20
115.7566144733847
 10
82.38914833347118
 20
115.7438652033005
 10
82.38713311192899
 20
115.7311580339449
 10
82.38607498028364
 20
115.7183701715261
 10
82.38430487853886
 20
115.6969717745373
 10
82.37362813376635
 20
115.6806584438844
 10
82.354019485529
 20
115.6741784400742
 10
82.33077801219926
 20
115.666495057105
 10
82.30627913044209
 20
115.6587887526281
 10
82.28215260624013
 20
115.6581986407489
 10
82.06180207061585
 20
115.6527875276596
 10
81.84141036983489
 20
115.6489554257851
 10
81.62103457377349
 20
115.6445907496944
 10
81.52278270008644
 20
115.6426440587826
 10
81.42453176197093
 20
115.6405670895049
 10
81.32628456614249
 20
115.6384517617857
 10
81.31724039406788
 20
115.6382602034707
 10
81.30821212671283
 20
115.6373519971976
 10
81.30026818701243
 20
115.6368460867757
 10
81.29832126220744
 20
115.6336576582632
 10
81.29646695900588
 20
115.6320522171461
 10
81.2966157149134
 20
115.6306572796718
 10
81.29934851998551
 20
115.605518700733
 10
81.29099479985966
 20
115.5865382889231
 10
81.26819304525114
 20
115.573677685801
 10
81.26241869643093
 20
115.5704242350523
 10
81.25947538771578
 20
115.5621507402039
 10
81.25177282552602
 20
115.5513250056306
 10
81.27632877715978
 20
115.5494550316021
 10
81.29441618573715
 20
115.5470101487352
 10
81.31250359431452
 20
115.5470101487352
 10
81.32913525325453
 20
115.5470101487352
 10
81.34243253448938
 20
115.5430975876911
 10
81.35352280197378
 20
115.5297004341721
 10
81.36631861675222
 20
115.5142340298428
 10
81.38747095837176
 20
115.5022664299529
 10
81.39279061932305
 20
115.4850142530522
 10
81.39810560241573
 20
115.4677737707982
 10
81.38869749293161
 20
115.4458196441919
 10
81.38511051085518
 20
115.4260458675411
 10
81.37677175987737
 20
115.3801181827133
 10
81.36805036005525
 20
115.3342632385888
 10
81.35915213717324
 20
115.2866150373192
 10
81.3318905120482
 20
115.2837100870458
 10
81.30588629535094
 20
115.280943367498
 10
81.2762408334156
 20
115.2777818366734
 10
81.29642485827702
 20
115.1883750921718
 10
81.31594556277051
 20
115.1019151647788
 10
81.33580307309268
 20
115.013964637701
 10
81.36121787958969
 20
115.0116617278467
 10
81.3857279882078
 20
115.0091478465634
 10
81.41028393984155
 20
115.0072968178628
 10
81.445995648982
 20
115.0046028390182
 10
81.48183272473655
 20
115.0032923368942
 10
81.51741064711719
 20
114.9995023357486
 10
81.5304628085543
 20
114.9981151167413
 10
81.54421945551668
 20
114.9934054485688
 10
81.55538269759755
 20
114.9865268911947
 10
81.57244284839717
 20
114.9760115325486
 10
81.5841459153759
 20
114.9600088117154
 10
81.58121102680678
 20
114.9383304448813
 10
81.57829110738538
 20
114.9168132302807
 10
81.56334160644599
 20
114.9038415280139
 10
81.54398556258022
 20
114.898127991357
 10
81.52300162387519
 20
114.8919352080731
 10
81.50104375498188
 20
114.8890190309391
 10
81.47948818193953
 20
114.8847846332137
 10
81.46973110419395
 20
114.8828685822766
 10
81.45992069885888
 20
114.8812245488249
 10
81.45014116739141
 20
114.8794542131875
 10
81.45014116739141
 20
114.8794542131875
 10
81.2517541140909
 20
114.8794542131875
 10
81.2517541140909
 20
114.8794542131875
 97
        0
 97
        0
 75
     2
 76
     1
 98
        0
  0
POLYLINE
  5
C2
330
BC
100
AcDbEntity
  8
Layer 5
370
     0
100
AcDb2dPolyline
 66
     1
 10
0.0
 20
0.0
 30
0.0
  0
VERTEX
  5
C3
330
C2
100
AcDbEntity
  8
Layer 5
370
     0
100
AcDbVertex
100
AcDb2dVertex
 10
75.93332110069171
 20
114.8794549148662
 30
0.0
  0
VERTEX
  5
C4
330
C2
100
AcDbEntity
  8
Layer 5
370
     0
100
AcDbVertex
100
AcDb2dVertex
 10
82.40464514388229
 20
114.8794549148662
 30
0.0
  0
VERTEX
  5
C5
330
C2
100
AcDbEntity
  8
Layer 5
370
     0
100
AcDbVertex
100
AcDb2dVertex
 10
82.40464514388229
 20
121.1285364624681
 30
0.0
  0
VERTEX
  5
C6
330
C2
100
AcDbEntity
  8
Layer 5
370
     0
100
AcDbVertex
100
AcDb2dVertex
 10
75.93332110069171
 20
121.1285364624681
 30
0.0
  0
VERTEX
  5
C7
330
C2
100
AcDbEntity
  8
Layer 5
370
     0
100
AcDbVertex
100
AcDb2dVertex
 10
75.93332110069171
 20
114.8794549148662
 30
0.0
  0
SEQEND
  5
C8
330
C2
100
AcDbEntity
  8
Layer 5
370
     0
  0
ENDBLK
  5
BF
330
BC
100
AcDbEntity
  8
0
100
AcDbBlockEnd
  0
ENDSEC
  0
SECTION
  2
ENTITIES
  0
POLYLINE
  5
41
330
1F
100
AcDbEntity
  8
Layer 4
 62
     7
420
 16777215
370
    35
100
AcDb2dPolyline
 66
     1
 10
0.0
 20
0.0
 30
0.0
  0
VERTEX
  5
42
330
41
100
AcDbEntity
  8
Layer 4
 62
     7
420
 16777215
370
    35
100
AcDbVertex
100
AcDb2dVertex
 10
101.778603463301
 20
118.0118494626408
 30
0.0
  0
VERTEX
  5
43
330
41
100
AcDbEntity
  8
Layer 4
 62
     7
420
 16777215
370
    35
100
AcDbVertex
100
AcDb2dVertex
 10
100.1378063238892
 20
118.0118494626408
 30
0.0
  0
VERTEX
  5
44
330
41
100
AcDbEntity
  8
Layer 4
 62
     7
420
 16777215
370
    35
100
AcDbVertex
100
AcDb2dVertex
 10
100.1378063238892
 20
119.4768469085438
 30
0.0
  0
VERTEX
  5
45
330
41
100
AcDbEntity
  8
Layer 4
 62
     7
420
 16777215
370
    35
100
AcDbVertex
100
AcDb2dVertex
 10
97.15453879768657
 20
119.4768469085438
 30
0.0
  0
VERTEX
  5
46
330
41
100
AcDbEntity
  8
Layer 4
 62
     7
420
 16777215
370
    35
100
AcDbVertex
100
AcDb2dVertex
 10
97.15453879768657
 20
116.5468520167378
 30
0.0
  0
VERTEX
  5
47
330
41
100
AcDbEntity
  8
Layer 4
 62
     7
420
 16777215
370
    35
100
AcDbVertex
100
AcDb2dVertex
 10
94.18192579836318
 20
116.5468520167378
 30
0.0
  0
VERTEX
  5
48
330
41
100
AcDbEntity
  8
Layer 4
 62
     7
420
 16777215
370
    35
100
AcDbVertex
100
AcDb2dVertex
 10
94.18192579836318
 20
119.4768469085438
 30
0.0
  0
VERTEX
  5
49
330
41
100
AcDbEntity
  8
Layer 4
 62
     7
420
 16777215
370
    35
100
AcDbVertex
100
AcDb2dVertex
 10
91.18800374528206
 20
119.4768469085438
 30
0.0
  0
VERTEX
  5
4A
330
41
100
AcDbEntity
  8
Layer 4
 62
     7
420
 16777215
370
    35
100
AcDbVertex
100
AcDb2dVertex
 10
91.18800374528206
 20
116.5468520167378
 30
0.0
  0
VERTEX
  5
4B
330
41
100
AcDbEntity
  8
Layer 4
 62
     7
420
 16777215
370
    35
100
AcDbVertex
100
AcDb2dVertex
 10
88.21539074595867
 20
116.5468520167378
 30
0.0
  0
VERTEX
  5
4C
330
41
100
AcDbEntity
  8
Layer 4
 62
     7
420
 16777215
370
    35
100
AcDbVertex
100
AcDb2dVertex
 10
88.21539074595867
 20
119.4768469085438
 30
0.0
  0
VERTEX
  5
4D
330
41
100
AcDbEntity
  8
Layer 4
 62
     7
420
 16777215
370
    35
100
AcDbVertex
100
AcDb2dVertex
 10
85.24277774663528
 20
119.4768469085438
 30
0.0
  0
VERTEX
  5
4E
330
41
100
AcDbEntity
  8
Layer 4
 62
     7
420
 16777215
370
    35
100
AcDbVertex
100
AcDb2dVertex
 10
85.24277774663528
 20
118.0118494626408
 30
0.0
  0
VERTEX
  5
4F
330
41
100
AcDbEntity
  8
Layer 4
 62
     7
420
 16777215
370
    35
100
AcDbVertex
100
AcDb2dVertex
 10
81.94951915444999
 20
118.0118494626408
 30
0.0
  0
SEQEND
  5
50
330
41
100
AcDbEntity
  8
Layer 4
 62
     7
420
 16777215
370
    35
  0
POLYLINE
  5
51
330
1F
100
AcDbEntity
  8
Layer 4
 62
     7
420
 16777215
370
    35
100
AcDb2dPolyline
 66
     1
 10
0.0
 20
0.0
 30
0.0
  0
VERTEX
  5
52
330
51
100
AcDbEntity
  8
Layer 4
 62
     7
420
 16777215
370
    35
100
AcDbVertex
100
AcDb2dVertex
 10
107.0063600219224
 20
114.9239661784505
 30
0.0
  0
VERTEX
  5
53
330
51
100
AcDbEntity
  8
Layer 4
 62
     7
420
 16777215
370
    35
100
AcDbVertex
100
AcDb2dVertex
 10
107.8388292630368
 20
113.4853585321579
 30
0.0
  0
VERTEX
  5
54
330
51
100
AcDbEntity
  8
Layer 4
 62
     7
420
 16777215
370
    35
100
AcDbVertex
100
AcDb2dVertex
 10
106.6123240261341
 20
112.7756251406942
 30
0.0
  0
VERTEX
  5
55
330
51
100
AcDbEntity
  8
Layer 4
 62
     7
420
 16777215
370
    35
100
AcDbVertex
100
AcDb2dVertex
 10
108.1064995871099
 20
110.193508852477
 30
0.0
  0
VERTEX
  5
56
330
51
100
AcDbEntity
  8
Layer 4
 62
     7
420
 16777215
370
    35
100
AcDbVertex
100
AcDb2dVertex
 10
110.6425066558948
 20
111.6610027070068
 30
0.0
  0
VERTEX
  5
57
330
51
100
AcDbEntity
  8
Layer 4
 62
     7
420
 16777215
370
    35
100
AcDbVertex
100
AcDb2dVertex
 10
112.1420185581596
 20
109.0696645749025
 30
0.0
  0
VERTEX
  5
58
330
51
100
AcDbEntity
  8
Layer 4
 62
     7
420
 16777215
370
    35
100
AcDbVertex
100
AcDb2dVertex
 10
109.6060114893747
 20
107.6021707203728
 30
0.0
  0
VERTEX
  5
59
330
51
100
AcDbEntity
  8
Layer 4
 62
     7
420
 16777215
370
    35
100
AcDbVertex
100
AcDb2dVertex
 10
111.0948507090615
 20
105.029276276042
 30
0.0
  0
VERTEX
  5
5A
330
51
100
AcDbEntity
  8
Layer 4
 62
     7
420
 16777215
370
    35
100
AcDbVertex
100
AcDb2dVertex
 10
113.6308577778464
 20
106.4967701305717
 30
0.0
  0
VERTEX
  5
5B
330
51
100
AcDbEntity
  8
Layer 4
 62
     7
420
 16777215
370
    35
100
AcDbVertex
100
AcDb2dVertex
 10
115.1196969975326
 20
103.9238756862406
 30
0.0
  0
VERTEX
  5
5C
330
51
100
AcDbEntity
  8
Layer 4
 62
     7
420
 16777215
370
    35
100
AcDbVertex
100
AcDb2dVertex
 10
112.5836899287477
 20
102.4563818317109
 30
0.0
  0
VERTEX
  5
5D
330
51
100
AcDbEntity
  8
Layer 4
 62
     7
420
 16777215
370
    35
100
AcDbVertex
100
AcDb2dVertex
 10
114.0725291484346
 20
99.88348738738004
 30
0.0
  0
VERTEX
  5
5E
330
51
100
AcDbEntity
  8
Layer 4
 62
     7
420
 16777215
370
    35
100
AcDbVertex
100
AcDb2dVertex
 10
116.6085362172195
 20
101.3509812419095
 30
0.0
  0
VERTEX
  5
5F
330
51
100
AcDbEntity
  8
Layer 4
 62
     7
420
 16777215
370
    35
100
AcDbVertex
100
AcDb2dVertex
 10
118.1080481194836
 20
98.7596431098065
 30
0.0
  0
VERTEX
  5
60
330
51
100
AcDbEntity
  8
Layer 4
 62
     7
420
 16777215
370
    35
100
AcDbVertex
100
AcDb2dVertex
 10
115.5720410506987
 20
97.29214925527675
 30
0.0
  0
VERTEX
  5
61
330
51
100
AcDbEntity
  8
Layer 4
 62
     7
420
 16777215
370
    35
100
AcDbVertex
100
AcDb2dVertex
 10
117.0608802703856
 20
94.71925481094563
 30
0.0
  0
VERTEX
  5
62
330
51
100
AcDbEntity
  8
Layer 4
 62
     7
420
 16777215
370
    35
100
AcDbVertex
100
AcDb2dVertex
 10
119.5968873391705
 20
96.18674866547536
 30
0.0
  0
VERTEX
  5
63
330
51
100
AcDbEntity
  8
Layer 4
 62
     7
420
 16777215
370
    35
100
AcDbVertex
100
AcDb2dVertex
 10
121.0910629001463
 20
93.60463237725784
 30
0.0
  0
VERTEX
  5
64
330
51
100
AcDbEntity
  8
Layer 4
 62
     7
420
 16777215
370
    35
100
AcDbVertex
100
AcDb2dVertex
 10
119.8230593657538
 20
92.87088544999297
 30
0.0
  0
VERTEX
  5
65
330
51
100
AcDbEntity
  8
Layer 4
 62
     7
420
 16777215
370
    35
100
AcDbVertex
100
AcDb2dVertex
 10
120.6448559242903
 20
91.45072149147308
 30
0.0
  0
SEQEND
  5
66
330
51
100
AcDbEntity
  8
Layer 4
 62
     7
420
 16777215
370
    35
  0
POLYLINE
  5
67
330
1F
100
AcDbEntity
  8
Layer 4
 62
     7
420
 16777215
370
    35
100
AcDb2dPolyline
 66
     1
 10
0.0
 20
0.0
 30
0.0
  0
VERTEX
  5
68
330
67
100
AcDbEntity
  8
Layer 4
 62
     7
420
 16777215
370
    35
100
AcDbVertex
100
AcDb2dVertex
 10
68.9656239922285
 20
115.0200290910406
 30
0.0
  0
VERTEX
  5
69
330
67
100
AcDbEntity
  8
Layer 4
 62
     7
420
 16777215
370
    35
100
AcDbVertex
100
AcDb2dVertex
 10
68.13315475104928
 20
113.5814214447851
 30
0.0
  0
VERTEX
  5
6A
330
67
100
AcDbEntity
  8
Layer 4
 62
     7
420
 16777215
370
    35
100
AcDbVertex
100
AcDb2dVertex
 10
69.35965998792022
 20
112.8716880532663
 30
0.0
  0
VERTEX
  5
6B
330
67
100
AcDbEntity
  8
Layer 4
 62
     7
420
 16777215
370
    35
100
AcDbVertex
100
AcDb2dVertex
 10
67.86548442682859
 20
110.2895717651165
 30
0.0
  0
VERTEX
  5
6C
330
67
100
AcDbEntity
  8
Layer 4
 62
     7
420
 16777215
370
    35
100
AcDbVertex
100
AcDb2dVertex
 10
65.32947735810946
 20
111.7570656197598
 30
0.0
  0
VERTEX
  5
6D
330
67
100
AcDbEntity
  8
Layer 4
 62
     7
420
 16777215
370
    35
100
AcDbVertex
100
AcDb2dVertex
 10
63.82996545572854
 20
109.1657274877229
 30
0.0
  0
VERTEX
  5
6E
330
67
100
AcDbEntity
  8
Layer 4
 62
     7
420
 16777215
370
    35
100
AcDbVertex
100
AcDb2dVertex
 10
66.36597252444736
 20
107.6982336330793
 30
0.0
  0
VERTEX
  5
6F
330
67
100
AcDbEntity
  8
Layer 4
 62
     7
420
 16777215
370
    35
100
AcDbVertex
100
AcDb2dVertex
 10
64.877133304645
 20
105.1253391888155
 30
0.0
  0
VERTEX
  5
70
330
67
100
AcDbEntity
  8
Layer 4
 62
     7
420
 16777215
370
    35
100
AcDbVertex
100
AcDb2dVertex
 10
62.34112623592618
 20
106.5928330434592
 30
0.0
  0
VERTEX
  5
71
330
67
100
AcDbEntity
  8
Layer 4
 62
     7
420
 16777215
370
    35
100
AcDbVertex
100
AcDb2dVertex
 10
60.85228701612447
 20
104.0199385991948
 30
0.0
  0
VERTEX
  5
72
330
67
100
AcDbEntity
  8
Layer 4
 62
     7
420
 16777215
370
    35
100
AcDbVertex
100
AcDb2dVertex
 10
63.38829408484329
 20
102.5524447445511
 30
0.0
  0
VERTEX
  5
73
330
67
100
AcDbEntity
  8
Layer 4
 62
     7
420
 16777215
370
    35
100
AcDbVertex
100
AcDb2dVertex
 10
61.89945486504093
 20
99.97955030028706
 30
0.0
  0
VERTEX
  5
74
330
67
100
AcDbEntity
  8
Layer 4
 62
     7
420
 16777215
370
    35
100
AcDbVertex
100
AcDb2dVertex
 10
59.36344779632179
 20
101.4470441549304
 30
0.0
  0
VERTEX
  5
75
330
67
100
AcDbEntity
  8
Layer 4
 62
     7
420
 16777215
370
    35
100
AcDbVertex
100
AcDb2dVertex
 10
57.86393589394152
 20
98.85570602289481
 30
0.0
  0
VERTEX
  5
76
330
67
100
AcDbEntity
  8
Layer 4
 62
     7
420
 16777215
370
    35
100
AcDbVertex
100
AcDb2dVertex
 10
60.39994296266066
 20
97.38821216825116
 30
0.0
  0
VERTEX
  5
77
330
67
100
AcDbEntity
  8
Layer 4
 62
     7
420
 16777215
370
    35
100
AcDbVertex
100
AcDb2dVertex
 10
58.91110374285798
 20
94.81531772398708
 30
0.0
  0
VERTEX
  5
78
330
67
100
AcDbEntity
  8
Layer 4
 62
     7
420
 16777215
370
    35
100
AcDbVertex
100
AcDb2dVertex
 10
56.37509667413917
 20
96.2828115786304
 30
0.0
  0
VERTEX
  5
79
330
67
100
AcDbEntity
  8
Layer 4
 62
     7
420
 16777215
370
    35
100
AcDbVertex
100
AcDb2dVertex
 10
54.88092111304753
 20
93.70069529047994
 30
0.0
  0
VERTEX
  5
7A
330
67
100
AcDbEntity
  8
Layer 4
 62
     7
420
 16777215
370
    35
100
AcDbVertex
100
AcDb2dVertex
 10
56.14892464740694
 20
92.96694836315827
 30
0.0
  0
VERTEX
  5
7B
330
67
100
AcDbEntity
  8
Layer 4
 62
     7
420
 16777215
370
    35
100
AcDbVertex
100
AcDb2dVertex
 10
55.32712808880659
 20
91.54678440467528
 30
0.0
  0
SEQEND
  5
7C
330
67
100
AcDbEntity
  8
Layer 4
 62
     7
420
 16777215
370
    35
  0
POLYLINE
  5
7D
330
1F
100
AcDbEntity
  8
Layer 4
 62
     7
420
 16777215
370
    35
100
AcDb2dPolyline
 66
     1
 10
0.0
 20
0.0
 30
0.0
  0
VERTEX
  5
7E
330
7D
100
AcDbEntity
  8
Layer 4
 62
     7
420
 16777215
370
    35
100
AcDbVertex
100
AcDb2dVertex
 10
107.2251042344047
 20
61.70190158517556
 30
0.0
  0
VERTEX
  5
7F
330
7D
100
AcDbEntity
  8
Layer 4
 62
     7
420
 16777215
370
    35
100
AcDbVertex
100
AcDb2dVertex
 10
108.0575734755191
 20
63.14050923146857
 30
0.0
  0
VERTEX
  5
80
330
7D
100
AcDbEntity
  8
Layer 4
 62
     7
420
 16777215
370
    35
100
AcDbVertex
100
AcDb2dVertex
 10
106.8310682386164
 20
63.85024262293185
 30
0.0
  0
VERTEX
  5
81
330
7D
100
AcDbEntity
  8
Layer 4
 62
     7
420
 16777215
370
    35
100
AcDbVertex
100
AcDb2dVertex
 10
108.3252437995922
 20
66.43235891114938
 30
0.0
  0
VERTEX
  5
82
330
7D
100
AcDbEntity
  8
Layer 4
 62
     7
420
 16777215
370
    35
100
AcDbVertex
100
AcDb2dVertex
 10
110.8612508683771
 20
64.96486505661964
 30
0.0
  0
VERTEX
  5
83
330
7D
100
AcDbEntity
  8
Layer 4
 62
     7
420
 16777215
370
    35
100
AcDbVertex
100
AcDb2dVertex
 10
112.3607627706418
 20
67.55620318872356
 30
0.0
  0
VERTEX
  5
84
330
7D
100
AcDbEntity
  8
Layer 4
 62
     7
420
 16777215
370
    35
100
AcDbVertex
100
AcDb2dVertex
 10
109.8247557018569
 20
69.0236970432533
 30
0.0
  0
VERTEX
  5
85
330
7D
100
AcDbEntity
  8
Layer 4
 62
     7
420
 16777215
370
    35
100
AcDbVertex
100
AcDb2dVertex
 10
111.3135949215438
 20
71.59659148758443
 30
0.0
  0
VERTEX
  5
86
330
7D
100
AcDbEntity
  8
Layer 4
 62
     7
420
 16777215
370
    35
100
AcDbVertex
100
AcDb2dVertex
 10
113.8496019903287
 20
70.1290976330547
 30
0.0
  0
VERTEX
  5
87
330
7D
100
AcDbEntity
  8
Layer 4
 62
     7
420
 16777215
370
    35
100
AcDbVertex
100
AcDb2dVertex
 10
115.3384412100149
 20
72.70199207738519
 30
0.0
  0
VERTEX
  5
88
330
7D
100
AcDbEntity
  8
Layer 4
 62
     7
420
 16777215
370
    35
100
AcDbVertex
100
AcDb2dVertex
 10
112.80243414123
 20
74.16948593191493
 30
0.0
  0
VERTEX
  5
89
330
7D
100
AcDbEntity
  8
Layer 4
 62
     7
420
 16777215
370
    35
100
AcDbVertex
100
AcDb2dVertex
 10
114.2912733609168
 20
76.74238037624606
 30
0.0
  0
VERTEX
  5
8A
330
7D
100
AcDbEntity
  8
Layer 4
 62
     7
420
 16777215
370
    35
100
AcDbVertex
100
AcDb2dVertex
 10
116.8272804297018
 20
75.27488652171697
 30
0.0
  0
VERTEX
  5
8B
330
7D
100
AcDbEntity
  8
Layer 4
 62
     7
420
 16777215
370
    35
100
AcDbVertex
100
AcDb2dVertex
 10
118.3267923319659
 20
77.8662246538196
 30
0.0
  0
VERTEX
  5
8C
330
7D
100
AcDbEntity
  8
Layer 4
 62
     7
420
 16777215
370
    35
100
AcDbVertex
100
AcDb2dVertex
 10
115.790785263181
 20
79.33371850834935
 30
0.0
  0
VERTEX
  5
8D
330
7D
100
AcDbEntity
  8
Layer 4
 62
     7
420
 16777215
370
    35
100
AcDbVertex
100
AcDb2dVertex
 10
117.2796244828678
 20
81.90661295268048
 30
0.0
  0
VERTEX
  5
8E
330
7D
100
AcDbEntity
  8
Layer 4
 62
     7
420
 16777215
370
    35
100
AcDbVertex
100
AcDb2dVertex
 10
119.8156315516527
 20
80.43911909815074
 30
0.0
  0
VERTEX
  5
8F
330
7D
100
AcDbEntity
  8
Layer 4
 62
     7
420
 16777215
370
    35
100
AcDbVertex
100
AcDb2dVertex
 10
121.3098071126285
 20
83.02123538636826
 30
0.0
  0
VERTEX
  5
90
330
7D
100
AcDbEntity
  8
Layer 4
 62
     7
420
 16777215
370
    35
100
AcDbVertex
100
AcDb2dVertex
 10
120.0418035782361
 20
83.75498231363314
 30
0.0
  0
VERTEX
  5
91
330
7D
100
AcDbEntity
  8
Layer 4
 62
     7
420
 16777215
370
    35
100
AcDbVertex
100
AcDb2dVertex
 10
120.8636001367726
 20
85.17514627215272
 30
0.0
  0
SEQEND
  5
92
330
7D
100
AcDbEntity
  8
Layer 4
 62
     7
420
 16777215
370
    35
  0
POLYLINE
  5
93
330
1F
100
AcDbEntity
  8
Layer 4
 62
     7
420
 16777215
370
    35
100
AcDb2dPolyline
 66
     1
 10
0.0
 20
0.0
 30
0.0
  0
VERTEX
  5
94
330
93
100
AcDbEntity
  8
Layer 4
 62
     7
420
 16777215
370
    35
100
AcDbVertex
100
AcDb2dVertex
 10
69.18436820471076
 20
61.60583867258586
 30
0.0
  0
VERTEX
  5
95
330
93
100
AcDbEntity
  8
Layer 4
 62
     7
420
 16777215
370
    35
100
AcDbVertex
100
AcDb2dVertex
 10
68.35189896353154
 20
63.04444631884101
 30
0.0
  0
VERTEX
  5
96
330
93
100
AcDbEntity
  8
Layer 4
 62
     7
420
 16777215
370
    35
100
AcDbVertex
100
AcDb2dVertex
 10
69.57840420040249
 20
63.75417971036012
 30
0.0
  0
VERTEX
  5
97
330
93
100
AcDbEntity
  8
Layer 4
 62
     7
420
 16777215
370
    35
100
AcDbVertex
100
AcDb2dVertex
 10
68.08422863931085
 20
66.33629599850963
 30
0.0
  0
VERTEX
  5
98
330
93
100
AcDbEntity
  8
Layer 4
 62
     7
420
 16777215
370
    35
100
AcDbVertex
100
AcDb2dVertex
 10
65.54822157059172
 20
64.8688021438663
 30
0.0
  0
VERTEX
  5
99
330
93
100
AcDbEntity
  8
Layer 4
 62
     7
420
 16777215
370
    35
100
AcDbVertex
100
AcDb2dVertex
 10
64.0487096682108
 20
67.4601402759035
 30
0.0
  0
VERTEX
  5
9A
330
93
100
AcDbEntity
  8
Layer 4
 62
     7
420
 16777215
370
    35
100
AcDbVertex
100
AcDb2dVertex
 10
66.58471673692962
 20
68.92763413054682
 30
0.0
  0
VERTEX
  5
9B
330
93
100
AcDbEntity
  8
Layer 4
 62
     7
420
 16777215
370
    35
100
AcDbVertex
100
AcDb2dVertex
 10
65.09587751712726
 20
71.50052857481057
 30
0.0
  0
VERTEX
  5
9C
330
93
100
AcDbEntity
  8
Layer 4
 62
     7
420
 16777215
370
    35
100
AcDbVertex
100
AcDb2dVertex
 10
62.55987044840845
 20
70.03303472016725
 30
0.0
  0
VERTEX
  5
9D
330
93
100
AcDbEntity
  8
Layer 4
 62
     7
420
 16777215
370
    35
100
AcDbVertex
100
AcDb2dVertex
 10
61.07103122860673
 20
72.605929164431
 30
0.0
  0
VERTEX
  5
9E
330
93
100
AcDbEntity
  8
Layer 4
 62
     7
420
 16777215
370
    35
100
AcDbVertex
100
AcDb2dVertex
 10
63.60703829732554
 20
74.07342301907497
 30
0.0
  0
VERTEX
  5
9F
330
93
100
AcDbEntity
  8
Layer 4
 62
     7
420
 16777215
370
    35
100
AcDbVertex
100
AcDb2dVertex
 10
62.11819907752319
 20
76.64631746333872
 30
0.0
  0
VERTEX
  5
A0
330
93
100
AcDbEntity
  8
Layer 4
 62
     7
420
 16777215
370
    35
100
AcDbVertex
100
AcDb2dVertex
 10
59.58219200880405
 20
75.17882360869604
 30
0.0
  0
VERTEX
  5
A1
330
93
100
AcDbEntity
  8
Layer 4
 62
     7
420
 16777215
370
    35
100
AcDbVertex
100
AcDb2dVertex
 10
58.08268010642378
 20
77.7701617407313
 30
0.0
  0
VERTEX
  5
A2
330
93
100
AcDbEntity
  8
Layer 4
 62
     7
420
 16777215
370
    35
100
AcDbVertex
100
AcDb2dVertex
 10
60.61868717514292
 20
79.23765559537527
 30
0.0
  0
VERTEX
  5
A3
330
93
100
AcDbEntity
  8
Layer 4
 62
     7
420
 16777215
370
    35
100
AcDbVertex
100
AcDb2dVertex
 10
59.12984795534024
 20
81.81055003963903
 30
0.0
  0
VERTEX
  5
A4
330
93
100
AcDbEntity
  8
Layer 4
 62
     7
420
 16777215
370
    35
100
AcDbVertex
100
AcDb2dVertex
 10
56.59384088662142
 20
80.3430561849957
 30
0.0
  0
VERTEX
  5
A5
330
93
100
AcDbEntity
  8
Layer 4
 62
     7
420
 16777215
370
    35
100
AcDbVertex
100
AcDb2dVertex
 10
55.09966532552979
 20
82.92517247314585
 30
0.0
  0
VERTEX
  5
A6
330
93
100
AcDbEntity
  8
Layer 4
 62
     7
420
 16777215
370
    35
100
AcDbVertex
100
AcDb2dVertex
 10
56.3676688598892
 20
83.65891940046784
 30
0.0
  0
VERTEX
  5
A7
330
93
100
AcDbEntity
  8
Layer 4
 62
     7
420
 16777215
370
    35
100
AcDbVertex
100
AcDb2dVertex
 10
55.54587230128885
 20
85.07908335895083
 30
0.0
  0
SEQEND
  5
A8
330
93
100
AcDbEntity
  8
Layer 4
 62
     7
420
 16777215
370
    35
  0
MTEXT
  5
AA
330
1F
100
AcDbEntity
  8
Layer 6
 62
     7
420
 16777215
100
AcDbMText
 10
77.18596746846258
 20
57.44834525473514
 30
0.0
 40
1.9981333328338
 41
0.0
 46
0.0
 71
     7
 72
     1
  1
\fRadioStars-Regular|b0|i0|c0|p34;\W1;MAGFEST
 73
     1
 44
1.0
  0
INSERT
  5
AD
330
1F
100
AcDbEntity
  8
Layer 5
100
AcDbBlockReference
  2
block 2
 10
0.0
 20
0.0
 30
0.0
  0
ENDSEC
  0
SECTION
  2
OBJECTS
  0
DICTIONARY
  5
C
330
0
100
AcDbDictionary
281
     1
  3
ACAD_GROUP
350
D
  3
ACAD_LAYOUT
350
1A
  3
ACAD_MATERIAL
350
3B
  3
ACAD_MLEADERSTYLE
350
DF
  3
ACAD_MLINESTYLE
350
17
  3
ACAD_PLOTSETTINGS
350
19
  3
ACAD_PLOTSTYLENAME
350
E
  3
ACAD_TABLESTYLE
350
DE
  3
ACAD_VISUALSTYLE
350
2A
  0
SUN
  5
3F
330
29
100
AcDbSun
 90
        1
290
     0
 63
     7
421
 16777215
 40
1.0
291
     1
 91
  2455826
 92
 54000000
292
     0
 70
     2
 71
   256
280
     1
  0
DICTIONARY
  5
D
102
{ACAD_REACTORS
330
C
102
}
330
C
100
AcDbDictionary
281
     1
  0
DICTIONARY
  5
1A
102
{ACAD_REACTORS
330
C
102
}
330
C
100
AcDbDictionary
281
     1
  3
Layout1
350
1E
  3
Layout2
350
26
  3
Model
350
22
  0
DICTIONARY
  5
3B
102
{ACAD_REACTORS
330
C
102
}
330
C
100
AcDbDictionary
281
     1
  3
ByBlock
350
3D
  3
ByLayer
350
3C
  3
Global
350
3E
  0
DICTIONARY
  5
DF
102
{ACAD_REACTORS
330
C
102
}
330
C
100
AcDbDictionary
281
     1
  0
DICTIONARY
  5
17
102
{ACAD_REACTORS
330
C
102
}
330
C
100
AcDbDictionary
281
     1
  3
Standard
350
18
  0
DICTIONARY
  5
19
102
{ACAD_REACTORS
330
C
102
}
330
C
100
AcDbDictionary
281
     1
  0
ACDBDICTIONARYWDFLT
  5
E
102
{ACAD_REACTORS
330
C
102
}
330
C
100
AcDbDictionary
281
     1
  3
Normal
350
F
100
AcDbDictionaryWithDefault
340
F
  0
DICTIONARY
  5
DE
102
{ACAD_REACTORS
330
C
102
}
330
C
100
AcDbDictionary
281
     1
  0
DICTIONARY
  5
2A
102
{ACAD_REACTORS
330
C
102
}
330
C
100
AcDbDictionary
281
     1
  3
2dWireframe
350
2F
  3
3D Hidden
350
31
  3
3dWireframe
350
30
  3
Basic
350
32
  3
Brighten
350
36
  3
ColorChange
350
3A
  3
Conceptual
350
34
  3
Dim
350
35
  3
Facepattern
350
39
  3
Flat
350
2B
  3
FlatWithEdges
350
2C
  3
Gouraud
350
2D
  3
GouraudWithEdges
350
2E
  3
Linepattern
350
38
  3
Realistic
350
33
  3
Thicken
350
37
  0
LAYOUT
  5
1E
102
{ACAD_REACTORS
330
1A
102
}
330
1A
100
AcDbPlotSettings
  1

  2
none_device
  4

  6

 40
0.0
 41
0.0
 42
0.0
 43
0.0
 44
0.0
 45
0.0
 46
0.0
 47
0.0
 48
0.0
 49
0.0
140
0.0
141
0.0
142
1.0
143
1.0
 70
   688
 72
     0
 73
     0
 74
     5
  7

 75
    16
 76
     0
 77
     2
 78
   300
147
1.0
148
0.0
149
0.0
100
AcDbLayout
  1
Layout1
 70
     1
 71
     1
 10
0.0
 20
0.0
 11
12.0
 21
9.0
 12
0.0
 22
0.0
 32
0.0
 14
1.000000000000000E+20
 24
1.000000000000000E+20
 34
1.000000000000000E+20
 15
-1.000000000000000E+20
 25
-1.000000000000000E+20
 35
-1.000000000000000E+20
146
0.0
 13
0.0
 23
0.0
 33
0.0
 16
1.0
 26
0.0
 36
0.0
 17
0.0
 27
1.0
 37
0.0
 76
     0
330
1B
  0
LAYOUT
  5
26
102
{ACAD_REACTORS
330
1A
102
}
330
1A
100
AcDbPlotSettings
  1

  2
none_device
  4

  6

 40
0.0
 41
0.0
 42
0.0
 43
0.0
 44
0.0
 45
0.0
 46
0.0
 47
0.0
 48
0.0
 49
0.0
140
0.0
141
0.0
142
1.0
143
1.0
 70
   688
 72
     0
 73
     0
 74
     5
  7

 75
    16
 76
     0
 77
     2
 78
   300
147
1.0
148
0.0
149
0.0
100
AcDbLayout
  1
Layout2
 70
     1
 71
     2
 10
0.0
 20
0.0
 11
0.0
 21
0.0
 12
0.0
 22
0.0
 32
0.0
 14
0.0
 24
0.0
 34
0.0
 15
0.0
 25
0.0
 35
0.0
146
0.0
 13
0.0
 23
0.0
 33
0.0
 16
1.0
 26
0.0
 36
0.0
 17
0.0
 27
1.0
 37
0.0
 76
     0
330
23
  0
LAYOUT
  5
22
102
{ACAD_REACTORS
330
1A
102
}
330
1A
100
AcDbPlotSettings
  1

  2
none_device
  4

  6

 40
0.0
 41
0.0
 42
0.0
 43
0.0
 44
0.0
 45
0.0
 46
0.0
 47
0.0
 48
0.0
 49
0.0
140
0.0
141
0.0
142
1.0
143
1.0
 70
  1712
 72
     0
 73
     0
 74
     0
  7

 75
     0
 76
     0
 77
     2
 78
   300
147
1.0
148
0.0
149
0.0
100
AcDbLayout
  1
Model
 70
     1
 71
     0
 10
0.0
 20
0.0
 11
12.0
 21
9.0
 12
0.0
 22
0.0
 32
0.0
 14
1.000000000000000E+20
 24
1.000000000000000E+20
 34
1.000000000000000E+20
 15
-1.000000000000000E+20
 25
-1.000000000000000E+20
 35
-1.000000000000000E+20
146
0.0
 13
0.0
 23
0.0
 33
0.0
 16
1.0
 26
0.0
 36
0.0
 17
0.0
 27
1.0
 37
0.0
 76
     0
330
1F
331
29
  0
MATERIAL
  5
3D
102
{ACAD_REACTORS
330
3B
102
}
330
3B
100
AcDbMaterial
  1
ByBlock
 72
     1
 94
      127
  0
MATERIAL
  5
3C
102
{ACAD_REACTORS
330
3B
102
}
330
3B
100
AcDbMaterial
  1
ByLayer
 72
     1
 94
      127
  0
MATERIAL
  5
3E
102
{ACAD_REACTORS
330
3B
102
}
330
3B
100
AcDbMaterial
  1
Global
 72
     1
 94
      127
  0
MLINESTYLE
  5
18
102
{ACAD_REACTORS
330
17
102
}
330
17
100
AcDbMlineStyle
  2
Standard
 70
     0
  3

 62
   256
 51
90.0
 52
90.0
 71
     2
 49
0.5
 62
   256
  6
BYLAYER
 49
-0.5
 62
   256
  6
BYLAYER
  0
ACDBPLACEHOLDER
  5
F
102
{ACAD_REACTORS
330
E
102
}
330
E
  0
VISUALSTYLE
  5
2F
102
{ACAD_REACTORS
330
2A
102
}
330
2A
100
AcDbVisualStyle
  2
2dWireframe
 70
     4
177
     2
291
     0
 71
     0
176
     1
 72
     2
176
     1
 73
     0
176
     1
 90
        0
176
     1
 40
-0.6
176
     1
 41
-30.0
176
     1
 62
     5
 63
     7
421
 16777215
176
     1
 74
     1
176
     1
 91
        4
176
     1
 64
     7
176
     1
 65
   257
176
     1
 75
     1
176
     1
175
     1
176
     1
 42
1.0
176
     1
 92
        0
176
     1
 66
   257
176
     1
 43
1.0
176
     1
 76
     1
176
     1
 77
     6
176
     1
 78
     2
176
     1
 67
     7
176
     1
 79
     5
176
     1
170
     0
176
     1
171
     0
176
     1
290
     0
176
     1
 93
        1
176
     1
 44
0.0
176
     1
173
     0
176
     1
  0
VISUALSTYLE
  5
31
102
{ACAD_REACTORS
330
2A
102
}
330
2A
100
AcDbVisualStyle
  2
3D Hidden
 70
     6
177
     2
291
     0
 71
     1
176
     1
 72
     2
176
     1
 73
     2
176
     1
 90
        0
176
     1
 40
-0.6
176
     1
 41
-30.0
176
     1
 62
     5
 63
     7
421
 16777215
176
     1
 74
     2
176
     1
 91
        2
176
     1
 64
     7
176
     1
 65
   257
176
     1
 75
     2
176
     1
175
     1
176
     1
 42
40.0
176
     1
 92
        0
176
     1
 66
   257
176
     1
 43
1.0
176
     1
 76
     1
176
     1
 77
     6
176
     1
 78
     2
176
     1
 67
     7
176
     1
 79
     3
176
     1
170
     0
176
     1
171
     0
176
     1
290
     0
176
     1
 93
        1
176
     1
 44
0.0
176
     1
173
     0
176
     1
  0
VISUALSTYLE
  5
30
102
{ACAD_REACTORS
330
2A
102
}
330
2A
100
AcDbVisualStyle
  2
3dWireframe
 70
     5
177
     2
291
     0
 71
     0
176
     1
 72
     2
176
     1
 73
     0
176
     1
 90
        0
176
     1
 40
-0.6
176
     1
 41
-30.0
176
     1
 62
     5
 63
     7
421
 16777215
176
     1
 74
     1
176
     1
 91
        4
176
     1
 64
     7
176
     1
 65
   257
176
     1
 75
     1
176
     1
175
     1
176
     1
 42
1.0
176
     1
 92
        0
176
     1
 66
   257
176
     1
 43
1.0
176
     1
 76
     1
176
     1
 77
     6
176
     1
 78
     2
176
     1
 67
     7
176
     1
 79
     5
176
     1
170
     0
176
     1
171
     0
176
     1
290
     0
176
     1
 93
        1
176
     1
 44
0.0
176
     1
173
     0
176
     1
  0
VISUALSTYLE
  5
32
102
{ACAD_REACTORS
330
2A
102
}
330
2A
100
AcDbVisualStyle
  2
Basic
 70
     7
177
     2
291
     1
 71
     1
176
     1
 72
     0
176
     1
 73
     1
176
     1
 90
        0
176
     1
 40
-0.6
176
     1
 41
-30.0
176
     1
 62
     5
 63
     7
421
 16777215
176
     1
 74
     0
176
     1
 91
        4
176
     1
 64
     7
176
     1
 65
   257
176
     1
 75
     1
176
     1
175
     1
176
     1
 42
1.0
176
     1
 92
        8
176
     1
 66
     7
176
     1
 43
1.0
176
     1
 76
     1
176
     1
 77
     6
176
     1
 78
     2
176
     1
 67
     7
176
     1
 79
     5
176
     1
170
     0
176
     1
171
     0
176
     1
290
     0
176
     1
 93
        1
176
     1
 44
0.0
176
     1
173
     0
176
     1
  0
VISUALSTYLE
  5
36
102
{ACAD_REACTORS
330
2A
102
}
330
2A
100
AcDbVisualStyle
  2
Brighten
 70
    12
177
     2
291
     1
 71
     2
176
     1
 72
     2
176
     1
 73
     0
176
     1
 90
        0
176
     1
 40
-0.6
176
     1
 41
-30.0
176
     1
 62
     5
 63
     7
421
 16777215
176
     1
 74
     1
176
     1
 91
        4
176
     1
 64
     7
176
     1
 65
   257
176
     1
 75
     1
176
     1
175
     1
176
     1
 42
1.0
176
     1
 92
        8
176
     1
 66
     7
176
     1
 43
1.0
176
     1
 76
     1
176
     1
 77
     6
176
     1
 78
     2
176
     1
 67
     7
176
     1
 79
     5
176
     1
170
     0
176
     1
171
     0
176
     1
290
     0
176
     1
 93
        1
176
     1
 44
50.0
176
     1
173
     0
176
     1
  0
VISUALSTYLE
  5
3A
102
{ACAD_REACTORS
330
2A
102
}
330
2A
100
AcDbVisualStyle
  2
ColorChange
 70
    16
177
     2
291
     1
 71
     2
176
     1
 72
     2
176
     1
 73
     3
176
     1
 90
        0
176
     1
 40
-0.6
176
     1
 41
-30.0
176
     1
 62
     5
 63
     8
421
  8421504
176
     1
 74
     1
176
     1
 91
        4
176
     1
 64
     7
176
     1
 65
   257
176
     1
 75
     1
176
     1
175
     1
176
     1
 42
1.0
176
     1
 92
        8
176
     1
 66
     8
424
  8421504
176
     1
 43
1.0
176
     1
 76
     1
176
     1
 77
     6
176
     1
 78
     2
176
     1
 67
     7
176
     1
 79
     5
176
     1
170
     0
176
     1
171
     0
176
     1
290
     0
176
     1
 93
        1
176
     1
 44
0.0
176
     1
173
     0
176
     1
  0
VISUALSTYLE
  5
34
102
{ACAD_REACTORS
330
2A
102
}
330
2A
100
AcDbVisualStyle
  2
Conceptual
 70
     9
177
     2
291
     0
 71
     3
176
     1
 72
     2
176
     1
 73
     0
176
     1
 90
        0
176
     1
 40
-0.6
176
     1
 41
-30.0
176
     1
 62
     5
 63
     7
421
 16777215
176
     1
 74
     2
176
     1
 91
        2
176
     1
 64
     7
176
     1
 65
   257
176
     1
 75
     1
176
     1
175
     1
176
     1
 42
40.0
176
     1
 92
        8
176
     1
 66
     7
176
     1
 43
1.0
176
     1
 76
     1
176
     1
 77
     6
176
     1
 78
     2
176
     1
 67
     7
176
     1
 79
     3
176
     1
170
     0
176
     1
171
     0
176
     1
290
     0
176
     1
 93
        1
176
     1
 44
0.0
176
     1
173
     0
176
     1
  0
VISUALSTYLE
  5
35
102
{ACAD_REACTORS
330
2A
102
}
330
2A
100
AcDbVisualStyle
  2
Dim
 70
    11
177
     2
291
     1
 71
     2
176
     1
 72
     2
176
     1
 73
     0
176
     1
 90
        0
176
     1
 40
-0.6
176
     1
 41
-30.0
176
     1
 62
     5
 63
     7
421
 16777215
176
     1
 74
     1
176
     1
 91
        4
176
     1
 64
     7
176
     1
 65
   257
176
     1
 75
     1
176
     1
175
     1
176
     1
 42
1.0
176
     1
 92
        8
176
     1
 66
     7
176
     1
 43
1.0
176
     1
 76
     1
176
     1
 77
     6
176
     1
 78
     2
176
     1
 67
     7
176
     1
 79
     5
176
     1
170
     0
176
     1
171
     0
176
     1
290
     0
176
     1
 93
        1
176
     1
 44
-50.0
176
     1
173
     0
176
     1
  0
VISUALSTYLE
  5
39
102
{ACAD_REACTORS
330
2A
102
}
330
2A
100
AcDbVisualStyle
  2
Facepattern
 70
    15
177
     2
291
     1
 71
     2
176
     1
 72
     2
176
     1
 73
     0
176
     1
 90
        0
176
     1
 40
-0.6
176
     1
 41
-30.0
176
     1
 62
     5
 63
     7
421
 16777215
176
     1
 74
     1
176
     1
 91
        4
176
     1
 64
     7
176
     1
 65
   257
176
     1
 75
     1
176
     1
175
     1
176
     1
 42
1.0
176
     1
 92
        8
176
     1
 66
     7
176
     1
 43
1.0
176
     1
 76
     1
176
     1
 77
     6
176
     1
 78
     2
176
     1
 67
     7
176
     1
 79
     5
176
     1
170
     0
176
     1
171
     0
176
     1
290
     0
176
     1
 93
        1
176
     1
 44
0.0
176
     1
173
     0
176
     1
  0
VISUALSTYLE
  5
2B
102
{ACAD_REACTORS
330
2A
102
}
330
2A
100
AcDbVisualStyle
  2
Flat
 70
     0
177
     2
291
     1
 71
     2
176
     1
 72
     1
176
     1
 73
     1
176
     1
 90
        2
176
     1
 40
-0.6
176
     1
 41
30.0
176
     1
 62
     5
 63
     7
421
 16777215
176
     1
 74
     0
176
     1
 91
        4
176
     1
 64
     7
176
     1
 65
   257
176
     1
 75
     1
176
     1
175
     1
176
     1
 42
1.0
176
     1
 92
        8
176
     1
 66
     7
176
     1
 43
1.0
176
     1
 76
     1
176
     1
 77
     6
176
     1
 78
     2
176
     1
 67
     7
176
     1
 79
     5
176
     1
170
     0
176
     1
171
     0
176
     1
290
     0
176
     1
 93
       13
176
     1
 44
0.0
176
     1
173
     0
176
     1
  0
VISUALSTYLE
  5
2C
102
{ACAD_REACTORS
330
2A
102
}
330
2A
100
AcDbVisualStyle
  2
FlatWithEdges
 70
     1
177
     2
291
     1
 71
     2
176
     1
 72
     1
176
     1
 73
     1
176
     1
 90
        2
176
     1
 40
-0.6
176
     1
 41
30.0
176
     1
 62
     5
 63
     7
421
 16777215
176
     1
 74
     1
176
     1
 91
        4
176
     1
 64
     7
176
     1
 65
   257
176
     1
 75
     1
176
     1
175
     1
176
     1
 42
1.0
176
     1
 92
        0
176
     1
 66
   257
176
     1
 43
1.0
176
     1
 76
     1
176
     1
 77
     6
176
     1
 78
     2
176
     1
 67
     7
176
     1
 79
     5
176
     1
170
     0
176
     1
171
     0
176
     1
290
     0
176
     1
 93
       13
176
     1
 44
0.0
176
     1
173
     0
176
     1
  0
VISUALSTYLE
  5
2D
102
{ACAD_REACTORS
330
2A
102
}
330
2A
100
AcDbVisualStyle
  2
Gouraud
 70
     2
177
     2
291
     1
 71
     2
176
     1
 72
     2
176
     1
 73
     1
176
     1
 90
        2
176
     1
 40
-0.6
176
     1
 41
30.0
176
     1
 62
     5
 63
     7
421
 16777215
176
     1
 74
     0
176
     1
 91
        4
176
     1
 64
     7
176
     1
 65
   257
176
     1
 75
     1
176
     1
175
     1
176
     1
 42
1.0
176
     1
 92
        0
176
     1
 66
     7
176
     1
 43
1.0
176
     1
 76
     1
176
     1
 77
     6
176
     1
 78
     2
176
     1
 67
     7
176
     1
 79
     5
176
     1
170
     0
176
     1
171
     0
176
     1
290
     0
176
     1
 93
       13
176
     1
 44
0.0
176
     1
173
     0
176
     1
  0
VISUALSTYLE
  5
2E
102
{ACAD_REACTORS
330
2A
102
}
330
2A
100
AcDbVisualStyle
  2
GouraudWithEdges
 70
     3
177
     2
291
     1
 71
     2
176
     1
 72
     2
176
     1
 73
     1
176
     1
 90
        2
176
     1
 40
-0.6
176
     1
 41
30.0
176
     1
 62
     5
 63
     7
421
 16777215
176
     1
 74
     1
176
     1
 91
        4
176
     1
 64
     7
176
     1
 65
   257
176
     1
 75
     1
176
     1
175
     1
176
     1
 42
1.0
176
     1
 92
        0
176
     1
 66
   257
176
     1
 43
1.0
176
     1
 76
     1
176
     1
 77
     6
176
     1
 78
     2
176
     1
 67
     7
176
     1
 79
     5
176
     1
170
     0
176
     1
171
     0
176
     1
290
     0
176
     1
 93
       13
176
     1
 44
0.0
176
     1
173
     0
176
     1
  0
VISUALSTYLE
  5
38
102
{ACAD_REACTORS
330
2A
102
}
330
2A
100
AcDbVisualStyle
  2
Linepattern
 70
    14
177
     2
291
     1
 71
     2
176
     1
 72
     2
176
     1
 73
     0
176
     1
 90
        0
176
     1
 40
-0.6
176
     1
 41
-30.0
176
     1
 62
     5
 63
     7
421
 16777215
176
     1
 74
     1
176
     1
 91
        4
176
     1
 64
     7
176
     1
 65
   257
176
     1
 75
     7
176
     1
175
     7
176
     1
 42
1.0
176
     1
 92
        8
176
     1
 66
     7
176
     1
 43
1.0
176
     1
 76
     1
176
     1
 77
     6
176
     1
 78
     2
176
     1
 67
     7
176
     1
 79
     5
176
     1
170
     0
176
     1
171
     0
176
     1
290
     0
176
     1
 93
        1
176
     1
 44
0.0
176
     1
173
     0
176
     1
  0
VISUALSTYLE
  5
33
102
{ACAD_REACTORS
330
2A
102
}
330
2A
100
AcDbVisualStyle
  2
Realistic
 70
     8
177
     2
291
     0
 71
     2
176
     1
 72
     2
176
     1
 73
     0
176
     1
 90
        0
176
     1
 40
-0.6
176
     1
 41
-30.0
176
     1
 62
     5
 63
     7
421
 16777215
176
     1
 74
     1
176
     1
 91
        0
176
     1
 64
     7
176
     1
 65
   257
176
     1
 75
     1
176
     1
175
     1
176
     1
 42
1.0
176
     1
 92
        8
176
     1
 66
     8
424
  7895160
176
     1
 43
1.0
176
     1
 76
     1
176
     1
 77
     6
176
     1
 78
     2
176
     1
 67
     7
176
     1
 79
     5
176
     1
170
     0
176
     1
171
     0
176
     1
290
     0
176
     1
 93
       13
176
     1
 44
0.0
176
     1
173
     0
176
     1
  0
VISUALSTYLE
  5
37
102
{ACAD_REACTORS
330
2A
102
}
330
2A
100
AcDbVisualStyle
  2
Thicken
 70
    13
177
     2
291
     1
 71
     2
176
     1
 72
     2
176
     1
 73
     0
176
     1
 90
        0
176
     1
 40
-0.6
176
     1
 41
-30.0
176
     1
 62
     5
 63
     7
421
 16777215
176
     1
 74
     1
176
     1
 91
        4
176
     1
 64
     7
176
     1
 65
   257
176
     1
 75
     1
176
     1
175
     1
176
     1
 42
1.0
176
     1
 92
       12
176
     1
 66
     7
176
     1
 43
1.0
176
     1
 76
     1
176
     1
 77
     6
176
     1
 78
     2
176
     1
 67
     7
176
     1
 79
     5
176
     1
170
     0
176
     1
171
     0
176
     1
290
     0
176
     1
 93
        1
176
     1
 44
0.0
176
     1
173
     0
176
     1
  0
ENDSEC
  0
EOF
