M48
;DRILL file {KiCad 4.0.2+dfsg1-stable} date Fri 28 Sep 2018 02:00:58 AM EDT
;FORMAT={-:-/ absolute / inch / decimal}
FMAT,2
INCH,TZ
T1C0.014
T2C0.016
T3C0.030
T4C0.031
T5C0.035
T6C0.157
T7C0.236
%
G90
G05
M72
T1
X2.4504Y-2.2878
X2.5382Y-1.5496
X2.6315Y-2.3594
X2.6516Y-1.5972
X2.6713Y-2.4295
X2.7012Y-2.4807
X2.7079Y-2.1114
X2.7102Y-1.8209
X2.7528Y-1.9878
X2.7614Y-2.7736
X2.7929Y-2.0689
X2.7965Y-1.802
X2.839Y-2.3626
X2.8677Y-2.4409
X2.9315Y-2.0035
X2.9358Y-2.222
X2.9465Y-1.7783
X3.05Y-2.5012
X3.0929Y-2.0909
X3.1051Y-3.024
X3.1087Y-3.565
X3.1197Y-2.0535
X3.1209Y-2.7157
X3.135Y-1.7138
X3.1854Y-1.8898
X3.2276Y-2.2933
X3.2957Y-3.0744
X3.3417Y-1.1063
X3.413Y-1.087
X3.4134Y-2.8874
X3.4272Y-2.6768
X3.4681Y-3.2413
X3.4831Y-1.9535
X3.4898Y-1.8634
X3.498Y-3.0768
X3.511Y-3.1673
X3.5209Y-1.0843
X3.628Y-2.8752
X3.6524Y-3.2276
X3.75Y-1.65
X3.7547Y-1.5713
X3.7921Y-1.6701
X3.8213Y-1.902
X3.8303Y-1.326
X3.8315Y-2.3555
X3.835Y-2.1327
X3.8476Y-3.2969
X3.8571Y-3.3358
X3.8831Y-2.2598
X3.9114Y-1.7614
X3.9201Y-1.6571
X4.0185Y-1.7705
X4.052Y-2.2394
X4.0531Y-1.8272
X4.0602Y-1.6205
X4.089Y-2.8169
X4.1031Y-1.5433
X4.1142Y-1.9669
X4.1909Y-1.5421
X4.2295Y-2.5232
X4.2323Y-1.7563
X4.4461Y-2.1075
T3
X2.3135Y-1.87
X2.3135Y-2.51
X4.5065Y-1.87
X4.5065Y-2.51
T4
X3.15Y-2.48
X3.2996Y-2.48
T5
X3.5861Y-3.7602
X3.8539Y-3.7602
T6
X2.87Y-1.23
X2.87Y-3.1
X3.95Y-1.23
X3.95Y-3.1
T7
X2.075Y-2.175
X2.725Y-1.
X2.75Y-3.325
X4.075Y-1.
X4.075Y-3.325
X4.75Y-2.175
T2
X2.8822Y-3.7681G85X2.8822Y-3.7445
G05
X2.9275Y-3.65G85X2.9157Y-3.65
G05
X3.1243Y-3.65G85X3.1125Y-3.65
G05
X3.1578Y-3.7681G85X3.1578Y-3.7445
G05
T0
M30
