G04 #@! TF.FileFunction,Paste,Top*
%FSLAX46Y46*%
G04 Gerber Fmt 4.6, Leading zero omitted, Abs format (unit mm)*
G04 Created by KiCad (PCBNEW 4.0.2+dfsg1-stable) date Fri 28 Sep 2018 02:00:57 AM EDT*
%MOMM*%
G01*
G04 APERTURE LIST*
%ADD10C,0.100000*%
%ADD11O,3.000000X1.000000*%
%ADD12O,1.000000X3.000000*%
%ADD13R,1.000000X1.250000*%
%ADD14R,0.700000X1.300000*%
%ADD15R,1.300000X0.700000*%
%ADD16R,1.000000X3.100000*%
%ADD17R,1.060000X0.650000*%
%ADD18R,4.470400X4.470400*%
%ADD19R,0.450000X1.000000*%
%ADD20R,0.600000X1.000000*%
%ADD21R,0.350000X1.000000*%
%ADD22R,0.500000X1.000000*%
G04 APERTURE END LIST*
D10*
D11*
X76836000Y-40434000D03*
X76836000Y-42434000D03*
X76836000Y-44434000D03*
X76836000Y-46434000D03*
X76836000Y-48434000D03*
X76836000Y-50434000D03*
X76836000Y-52434000D03*
X76836000Y-54434000D03*
D12*
X79836000Y-55434000D03*
X81836000Y-55434000D03*
X83836000Y-55434000D03*
X85836000Y-55434000D03*
X87836000Y-55434000D03*
X89836000Y-55434000D03*
D11*
X92836000Y-54434000D03*
X92836000Y-52434000D03*
X92836000Y-50434000D03*
X92836000Y-48434000D03*
X92836000Y-46434000D03*
X92836000Y-44434000D03*
X92836000Y-42434000D03*
X92836000Y-40434000D03*
D10*
G36*
X103508462Y-62621266D02*
X104133462Y-61538734D01*
X104999488Y-62038734D01*
X104374488Y-63121266D01*
X103508462Y-62621266D01*
X103508462Y-62621266D01*
G37*
G36*
X105240512Y-63621266D02*
X105865512Y-62538734D01*
X106731538Y-63038734D01*
X106106538Y-64121266D01*
X105240512Y-63621266D01*
X105240512Y-63621266D01*
G37*
G36*
X76597281Y-68558602D02*
X75713398Y-67674719D01*
X76420505Y-66967612D01*
X77304388Y-67851495D01*
X76597281Y-68558602D01*
X76597281Y-68558602D01*
G37*
G36*
X78011495Y-67144388D02*
X77127612Y-66260505D01*
X77834719Y-65553398D01*
X78718602Y-66437281D01*
X78011495Y-67144388D01*
X78011495Y-67144388D01*
G37*
D13*
X70170000Y-55550000D03*
X68170000Y-55550000D03*
D10*
G36*
X69408858Y-48069619D02*
X68489619Y-48988858D01*
X67994644Y-48493883D01*
X68913883Y-47574644D01*
X69408858Y-48069619D01*
X69408858Y-48069619D01*
G37*
G36*
X68065356Y-46726117D02*
X67146117Y-47645356D01*
X66651142Y-47150381D01*
X67570381Y-46231142D01*
X68065356Y-46726117D01*
X68065356Y-46726117D01*
G37*
G36*
X101700776Y-64053296D02*
X102995829Y-64166598D01*
X102934820Y-64863934D01*
X101639767Y-64750632D01*
X101700776Y-64053296D01*
X101700776Y-64053296D01*
G37*
G36*
X101535180Y-65946066D02*
X102830233Y-66059368D01*
X102769224Y-66756704D01*
X101474171Y-66643402D01*
X101535180Y-65946066D01*
X101535180Y-65946066D01*
G37*
D14*
X73472000Y-64008000D03*
X75372000Y-64008000D03*
X71440000Y-67310000D03*
X73340000Y-67310000D03*
X68900000Y-64516000D03*
X70800000Y-64516000D03*
X74488000Y-60706000D03*
X76388000Y-60706000D03*
D15*
X72390000Y-56962000D03*
X72390000Y-58862000D03*
X66802000Y-62926000D03*
X66802000Y-61026000D03*
D10*
G36*
X103740482Y-72591538D02*
X104240482Y-73457564D01*
X101555804Y-75007564D01*
X101055804Y-74141538D01*
X103740482Y-72591538D01*
X103740482Y-72591538D01*
G37*
G36*
X101740482Y-69127436D02*
X102240482Y-69993462D01*
X99555804Y-71543462D01*
X99055804Y-70677436D01*
X101740482Y-69127436D01*
X101740482Y-69127436D01*
G37*
G36*
X94024196Y-73582436D02*
X94524196Y-74448462D01*
X91839518Y-75998462D01*
X91339518Y-75132436D01*
X94024196Y-73582436D01*
X94024196Y-73582436D01*
G37*
G36*
X96024196Y-77046538D02*
X96524196Y-77912564D01*
X93839518Y-79462564D01*
X93339518Y-78596538D01*
X96024196Y-77046538D01*
X96024196Y-77046538D01*
G37*
D16*
X65238000Y-50663000D03*
X61238000Y-50663000D03*
X61238000Y-59573000D03*
X65238000Y-59573000D03*
X107836000Y-59527000D03*
X111836000Y-59527000D03*
X111836000Y-50617000D03*
X107836000Y-50617000D03*
D10*
G36*
X80015482Y-78596538D02*
X79515482Y-79462564D01*
X76830804Y-77912564D01*
X77330804Y-77046538D01*
X80015482Y-78596538D01*
X80015482Y-78596538D01*
G37*
G36*
X82015482Y-75132436D02*
X81515482Y-75998462D01*
X78830804Y-74448462D01*
X79330804Y-73582436D01*
X82015482Y-75132436D01*
X82015482Y-75132436D01*
G37*
G36*
X74299196Y-70677436D02*
X73799196Y-71543462D01*
X71114518Y-69993462D01*
X71614518Y-69127436D01*
X74299196Y-70677436D01*
X74299196Y-70677436D01*
G37*
G36*
X72299196Y-74141538D02*
X71799196Y-75007564D01*
X69114518Y-73457564D01*
X69614518Y-72591538D01*
X72299196Y-74141538D01*
X72299196Y-74141538D01*
G37*
D17*
X68750000Y-60518000D03*
X68750000Y-61468000D03*
X68750000Y-62418000D03*
X70950000Y-62418000D03*
X70950000Y-60518000D03*
D10*
G36*
X90493290Y-65670397D02*
X91930131Y-64233556D01*
X94516444Y-66819869D01*
X93079603Y-68256710D01*
X90493290Y-65670397D01*
X90493290Y-65670397D01*
G37*
G36*
X86757502Y-71274077D02*
X88194343Y-69837236D01*
X88912764Y-70555657D01*
X87475923Y-71992498D01*
X86757502Y-71274077D01*
X86757502Y-71274077D01*
G37*
G36*
X88373949Y-72890523D02*
X89810790Y-71453682D01*
X90529211Y-72172103D01*
X89092370Y-73608944D01*
X88373949Y-72890523D01*
X88373949Y-72890523D01*
G37*
G36*
X85141056Y-69657630D02*
X86577897Y-68220789D01*
X87296318Y-68939210D01*
X85859477Y-70376051D01*
X85141056Y-69657630D01*
X85141056Y-69657630D01*
G37*
G36*
X104626602Y-37448719D02*
X103742719Y-38332602D01*
X103035612Y-37625495D01*
X103919495Y-36741612D01*
X104626602Y-37448719D01*
X104626602Y-37448719D01*
G37*
G36*
X103212388Y-36034505D02*
X102328505Y-36918388D01*
X101621398Y-36211281D01*
X102505281Y-35327398D01*
X103212388Y-36034505D01*
X103212388Y-36034505D01*
G37*
D13*
X74025000Y-52070000D03*
X72025000Y-52070000D03*
D18*
X85050000Y-44760000D03*
D13*
X87500000Y-76020000D03*
X85500000Y-76020000D03*
D14*
X77140000Y-58480000D03*
X79040000Y-58480000D03*
D10*
G36*
X65530000Y-41240962D02*
X66396026Y-41740962D01*
X66171026Y-42130674D01*
X65305000Y-41630674D01*
X65530000Y-41240962D01*
X65530000Y-41240962D01*
G37*
G36*
X65080000Y-42020384D02*
X65946026Y-42520384D01*
X65646026Y-43040000D01*
X64780000Y-42540000D01*
X65080000Y-42020384D01*
X65080000Y-42020384D01*
G37*
G36*
X64580000Y-42886411D02*
X65446026Y-43386411D01*
X65271026Y-43689519D01*
X64405000Y-43189519D01*
X64580000Y-42886411D01*
X64580000Y-42886411D01*
G37*
G36*
X64205000Y-43535930D02*
X65071026Y-44035930D01*
X64821026Y-44468942D01*
X63955000Y-43968942D01*
X64205000Y-43535930D01*
X64205000Y-43535930D01*
G37*
G36*
X65030000Y-67240962D02*
X65896026Y-66740962D01*
X66121026Y-67130674D01*
X65255000Y-67630674D01*
X65030000Y-67240962D01*
X65030000Y-67240962D01*
G37*
G36*
X65480000Y-68020384D02*
X66346026Y-67520384D01*
X66646026Y-68040000D01*
X65780000Y-68540000D01*
X65480000Y-68020384D01*
X65480000Y-68020384D01*
G37*
G36*
X65980000Y-68886411D02*
X66846026Y-68386411D01*
X67021026Y-68689519D01*
X66155000Y-69189519D01*
X65980000Y-68886411D01*
X65980000Y-68886411D01*
G37*
G36*
X66355000Y-69535930D02*
X67221026Y-69035930D01*
X67471026Y-69468942D01*
X66605000Y-69968942D01*
X66355000Y-69535930D01*
X66355000Y-69535930D01*
G37*
D19*
X85505000Y-79540000D03*
D20*
X86480000Y-79540000D03*
D21*
X87355000Y-79540000D03*
D22*
X88180000Y-79540000D03*
D10*
G36*
X107030000Y-69339038D02*
X106163974Y-68839038D01*
X106388974Y-68449326D01*
X107255000Y-68949326D01*
X107030000Y-69339038D01*
X107030000Y-69339038D01*
G37*
G36*
X107480000Y-68559616D02*
X106613974Y-68059616D01*
X106913974Y-67540000D01*
X107780000Y-68040000D01*
X107480000Y-68559616D01*
X107480000Y-68559616D01*
G37*
G36*
X107980000Y-67693589D02*
X107113974Y-67193589D01*
X107288974Y-66890481D01*
X108155000Y-67390481D01*
X107980000Y-67693589D01*
X107980000Y-67693589D01*
G37*
G36*
X108355000Y-67044070D02*
X107488974Y-66544070D01*
X107738974Y-66111058D01*
X108605000Y-66611058D01*
X108355000Y-67044070D01*
X108355000Y-67044070D01*
G37*
G36*
X109030000Y-43839038D02*
X108163974Y-44339038D01*
X107938974Y-43949326D01*
X108805000Y-43449326D01*
X109030000Y-43839038D01*
X109030000Y-43839038D01*
G37*
G36*
X108580000Y-43059616D02*
X107713974Y-43559616D01*
X107413974Y-43040000D01*
X108280000Y-42540000D01*
X108580000Y-43059616D01*
X108580000Y-43059616D01*
G37*
G36*
X108080000Y-42193589D02*
X107213974Y-42693589D01*
X107038974Y-42390481D01*
X107905000Y-41890481D01*
X108080000Y-42193589D01*
X108080000Y-42193589D01*
G37*
G36*
X107705000Y-41544070D02*
X106838974Y-42044070D01*
X106588974Y-41611058D01*
X107455000Y-41111058D01*
X107705000Y-41544070D01*
X107705000Y-41544070D01*
G37*
D19*
X87555000Y-30540000D03*
D20*
X86580000Y-30540000D03*
D21*
X85705000Y-30540000D03*
D22*
X84880000Y-30540000D03*
M02*
