G04 #@! TF.FileFunction,Copper,L1,Top,Signal*
%FSLAX46Y46*%
G04 Gerber Fmt 4.6, Leading zero omitted, Abs format (unit mm)*
G04 Created by KiCad (PCBNEW 4.0.2+dfsg1-stable) date Fri 28 Sep 2018 02:00:57 AM EDT*
%MOMM*%
G01*
G04 APERTURE LIST*
%ADD10C,0.100000*%
%ADD11O,3.000000X1.000000*%
%ADD12O,1.000000X3.000000*%
%ADD13R,1.000000X1.250000*%
%ADD14R,0.700000X1.300000*%
%ADD15R,1.300000X0.700000*%
%ADD16R,1.000000X3.100000*%
%ADD17O,0.900000X1.560000*%
%ADD18O,1.250000X0.850000*%
%ADD19C,1.200000*%
%ADD20R,1.060000X0.650000*%
%ADD21R,1.300000X1.300000*%
%ADD22C,1.300000*%
%ADD23C,1.524000*%
%ADD24C,4.470400*%
%ADD25C,6.500000*%
%ADD26R,4.470400X4.470400*%
%ADD27R,0.450000X1.000000*%
%ADD28R,0.600000X1.000000*%
%ADD29R,0.350000X1.000000*%
%ADD30R,0.500000X1.000000*%
%ADD31C,0.600000*%
%ADD32C,0.381000*%
%ADD33C,0.254000*%
G04 APERTURE END LIST*
D10*
D11*
X76836000Y-40434000D03*
X76836000Y-42434000D03*
X76836000Y-44434000D03*
X76836000Y-46434000D03*
X76836000Y-48434000D03*
X76836000Y-50434000D03*
X76836000Y-52434000D03*
X76836000Y-54434000D03*
D12*
X79836000Y-55434000D03*
X81836000Y-55434000D03*
X83836000Y-55434000D03*
X85836000Y-55434000D03*
X87836000Y-55434000D03*
X89836000Y-55434000D03*
D11*
X92836000Y-54434000D03*
X92836000Y-52434000D03*
X92836000Y-50434000D03*
X92836000Y-48434000D03*
X92836000Y-46434000D03*
X92836000Y-44434000D03*
X92836000Y-42434000D03*
X92836000Y-40434000D03*
D10*
G36*
X103508462Y-62621266D02*
X104133462Y-61538734D01*
X104999488Y-62038734D01*
X104374488Y-63121266D01*
X103508462Y-62621266D01*
X103508462Y-62621266D01*
G37*
G36*
X105240512Y-63621266D02*
X105865512Y-62538734D01*
X106731538Y-63038734D01*
X106106538Y-64121266D01*
X105240512Y-63621266D01*
X105240512Y-63621266D01*
G37*
G36*
X76597281Y-68558602D02*
X75713398Y-67674719D01*
X76420505Y-66967612D01*
X77304388Y-67851495D01*
X76597281Y-68558602D01*
X76597281Y-68558602D01*
G37*
G36*
X78011495Y-67144388D02*
X77127612Y-66260505D01*
X77834719Y-65553398D01*
X78718602Y-66437281D01*
X78011495Y-67144388D01*
X78011495Y-67144388D01*
G37*
D13*
X70170000Y-55550000D03*
X68170000Y-55550000D03*
D10*
G36*
X69408858Y-48069619D02*
X68489619Y-48988858D01*
X67994644Y-48493883D01*
X68913883Y-47574644D01*
X69408858Y-48069619D01*
X69408858Y-48069619D01*
G37*
G36*
X68065356Y-46726117D02*
X67146117Y-47645356D01*
X66651142Y-47150381D01*
X67570381Y-46231142D01*
X68065356Y-46726117D01*
X68065356Y-46726117D01*
G37*
G36*
X101700776Y-64053296D02*
X102995829Y-64166598D01*
X102934820Y-64863934D01*
X101639767Y-64750632D01*
X101700776Y-64053296D01*
X101700776Y-64053296D01*
G37*
G36*
X101535180Y-65946066D02*
X102830233Y-66059368D01*
X102769224Y-66756704D01*
X101474171Y-66643402D01*
X101535180Y-65946066D01*
X101535180Y-65946066D01*
G37*
D14*
X73472000Y-64008000D03*
X75372000Y-64008000D03*
X71440000Y-67310000D03*
X73340000Y-67310000D03*
X68900000Y-64516000D03*
X70800000Y-64516000D03*
X74488000Y-60706000D03*
X76388000Y-60706000D03*
D15*
X72390000Y-56962000D03*
X72390000Y-58862000D03*
X66802000Y-62926000D03*
X66802000Y-61026000D03*
D10*
G36*
X103740482Y-72591538D02*
X104240482Y-73457564D01*
X101555804Y-75007564D01*
X101055804Y-74141538D01*
X103740482Y-72591538D01*
X103740482Y-72591538D01*
G37*
G36*
X101740482Y-69127436D02*
X102240482Y-69993462D01*
X99555804Y-71543462D01*
X99055804Y-70677436D01*
X101740482Y-69127436D01*
X101740482Y-69127436D01*
G37*
G36*
X94024196Y-73582436D02*
X94524196Y-74448462D01*
X91839518Y-75998462D01*
X91339518Y-75132436D01*
X94024196Y-73582436D01*
X94024196Y-73582436D01*
G37*
G36*
X96024196Y-77046538D02*
X96524196Y-77912564D01*
X93839518Y-79462564D01*
X93339518Y-78596538D01*
X96024196Y-77046538D01*
X96024196Y-77046538D01*
G37*
D16*
X65238000Y-50663000D03*
X61238000Y-50663000D03*
X61238000Y-59573000D03*
X65238000Y-59573000D03*
X107836000Y-59527000D03*
X111836000Y-59527000D03*
X111836000Y-50617000D03*
X107836000Y-50617000D03*
D10*
G36*
X80015482Y-78596538D02*
X79515482Y-79462564D01*
X76830804Y-77912564D01*
X77330804Y-77046538D01*
X80015482Y-78596538D01*
X80015482Y-78596538D01*
G37*
G36*
X82015482Y-75132436D02*
X81515482Y-75998462D01*
X78830804Y-74448462D01*
X79330804Y-73582436D01*
X82015482Y-75132436D01*
X82015482Y-75132436D01*
G37*
G36*
X74299196Y-70677436D02*
X73799196Y-71543462D01*
X71114518Y-69993462D01*
X71614518Y-69127436D01*
X74299196Y-70677436D01*
X74299196Y-70677436D01*
G37*
G36*
X72299196Y-74141538D02*
X71799196Y-75007564D01*
X69114518Y-73457564D01*
X69614518Y-72591538D01*
X72299196Y-74141538D01*
X72299196Y-74141538D01*
G37*
D17*
X73208000Y-95410000D03*
X80208000Y-95410000D03*
D18*
X74208000Y-92710000D03*
X79208000Y-92710000D03*
D19*
X97888000Y-95510000D03*
X91088000Y-95510000D03*
D20*
X68750000Y-60518000D03*
X68750000Y-61468000D03*
X68750000Y-62418000D03*
X70950000Y-62418000D03*
X70950000Y-60518000D03*
D10*
G36*
X90493290Y-65670397D02*
X91930131Y-64233556D01*
X94516444Y-66819869D01*
X93079603Y-68256710D01*
X90493290Y-65670397D01*
X90493290Y-65670397D01*
G37*
G36*
X86757502Y-71274077D02*
X88194343Y-69837236D01*
X88912764Y-70555657D01*
X87475923Y-71992498D01*
X86757502Y-71274077D01*
X86757502Y-71274077D01*
G37*
G36*
X88373949Y-72890523D02*
X89810790Y-71453682D01*
X90529211Y-72172103D01*
X89092370Y-73608944D01*
X88373949Y-72890523D01*
X88373949Y-72890523D01*
G37*
G36*
X85141056Y-69657630D02*
X86577897Y-68220789D01*
X87296318Y-68939210D01*
X85859477Y-70376051D01*
X85141056Y-69657630D01*
X85141056Y-69657630D01*
G37*
D21*
X80010000Y-62992000D03*
D22*
X83810000Y-62992000D03*
D10*
G36*
X104626602Y-37448719D02*
X103742719Y-38332602D01*
X103035612Y-37625495D01*
X103919495Y-36741612D01*
X104626602Y-37448719D01*
X104626602Y-37448719D01*
G37*
G36*
X103212388Y-36034505D02*
X102328505Y-36918388D01*
X101621398Y-36211281D01*
X102505281Y-35327398D01*
X103212388Y-36034505D01*
X103212388Y-36034505D01*
G37*
D23*
X114464000Y-47498000D03*
X58764000Y-47498000D03*
X58764000Y-63754000D03*
X114464000Y-63754000D03*
D24*
X72898000Y-31242000D03*
X72898000Y-78740000D03*
X100330000Y-78740000D03*
X100330000Y-31242000D03*
D13*
X74025000Y-52070000D03*
X72025000Y-52070000D03*
D25*
X103505000Y-84455000D03*
X52705000Y-55245000D03*
X120650000Y-55245000D03*
X69850000Y-84455000D03*
X69215000Y-25400000D03*
X103505000Y-25400000D03*
D26*
X85050000Y-44760000D03*
D13*
X87500000Y-76020000D03*
X85500000Y-76020000D03*
D14*
X77140000Y-58480000D03*
X79040000Y-58480000D03*
D10*
G36*
X65530000Y-41240962D02*
X66396026Y-41740962D01*
X66171026Y-42130674D01*
X65305000Y-41630674D01*
X65530000Y-41240962D01*
X65530000Y-41240962D01*
G37*
G36*
X65080000Y-42020384D02*
X65946026Y-42520384D01*
X65646026Y-43040000D01*
X64780000Y-42540000D01*
X65080000Y-42020384D01*
X65080000Y-42020384D01*
G37*
G36*
X64580000Y-42886411D02*
X65446026Y-43386411D01*
X65271026Y-43689519D01*
X64405000Y-43189519D01*
X64580000Y-42886411D01*
X64580000Y-42886411D01*
G37*
G36*
X64205000Y-43535930D02*
X65071026Y-44035930D01*
X64821026Y-44468942D01*
X63955000Y-43968942D01*
X64205000Y-43535930D01*
X64205000Y-43535930D01*
G37*
G36*
X65030000Y-67240962D02*
X65896026Y-66740962D01*
X66121026Y-67130674D01*
X65255000Y-67630674D01*
X65030000Y-67240962D01*
X65030000Y-67240962D01*
G37*
G36*
X65480000Y-68020384D02*
X66346026Y-67520384D01*
X66646026Y-68040000D01*
X65780000Y-68540000D01*
X65480000Y-68020384D01*
X65480000Y-68020384D01*
G37*
G36*
X65980000Y-68886411D02*
X66846026Y-68386411D01*
X67021026Y-68689519D01*
X66155000Y-69189519D01*
X65980000Y-68886411D01*
X65980000Y-68886411D01*
G37*
G36*
X66355000Y-69535930D02*
X67221026Y-69035930D01*
X67471026Y-69468942D01*
X66605000Y-69968942D01*
X66355000Y-69535930D01*
X66355000Y-69535930D01*
G37*
D27*
X85505000Y-79540000D03*
D28*
X86480000Y-79540000D03*
D29*
X87355000Y-79540000D03*
D30*
X88180000Y-79540000D03*
D10*
G36*
X107030000Y-69339038D02*
X106163974Y-68839038D01*
X106388974Y-68449326D01*
X107255000Y-68949326D01*
X107030000Y-69339038D01*
X107030000Y-69339038D01*
G37*
G36*
X107480000Y-68559616D02*
X106613974Y-68059616D01*
X106913974Y-67540000D01*
X107780000Y-68040000D01*
X107480000Y-68559616D01*
X107480000Y-68559616D01*
G37*
G36*
X107980000Y-67693589D02*
X107113974Y-67193589D01*
X107288974Y-66890481D01*
X108155000Y-67390481D01*
X107980000Y-67693589D01*
X107980000Y-67693589D01*
G37*
G36*
X108355000Y-67044070D02*
X107488974Y-66544070D01*
X107738974Y-66111058D01*
X108605000Y-66611058D01*
X108355000Y-67044070D01*
X108355000Y-67044070D01*
G37*
G36*
X109030000Y-43839038D02*
X108163974Y-44339038D01*
X107938974Y-43949326D01*
X108805000Y-43449326D01*
X109030000Y-43839038D01*
X109030000Y-43839038D01*
G37*
G36*
X108580000Y-43059616D02*
X107713974Y-43559616D01*
X107413974Y-43040000D01*
X108280000Y-42540000D01*
X108580000Y-43059616D01*
X108580000Y-43059616D01*
G37*
G36*
X108080000Y-42193589D02*
X107213974Y-42693589D01*
X107038974Y-42390481D01*
X107905000Y-41890481D01*
X108080000Y-42193589D01*
X108080000Y-42193589D01*
G37*
G36*
X107705000Y-41544070D02*
X106838974Y-42044070D01*
X106588974Y-41611058D01*
X107455000Y-41111058D01*
X107705000Y-41544070D01*
X107705000Y-41544070D01*
G37*
D27*
X87555000Y-30540000D03*
D28*
X86580000Y-30540000D03*
D29*
X85705000Y-30540000D03*
D30*
X84880000Y-30540000D03*
D31*
X92770000Y-81980000D03*
X89430000Y-27540000D03*
X86690000Y-27610000D03*
X88090000Y-82330000D03*
X69920000Y-50490000D03*
X74460000Y-50890000D03*
X71030000Y-45770000D03*
X74840000Y-45170000D03*
X102920000Y-56880000D03*
X104500000Y-49960000D03*
X103130000Y-41160000D03*
X104220000Y-39200000D03*
X64470000Y-39360000D03*
X102950000Y-46410000D03*
X95370000Y-39910000D03*
X99570000Y-42090000D03*
X84880000Y-28100000D03*
X72840000Y-62000000D03*
X74570000Y-56440000D03*
X88850000Y-78150000D03*
X78870000Y-76810000D03*
X83710000Y-78090000D03*
X79270000Y-68980000D03*
X92150000Y-73030000D03*
X66840000Y-59930000D03*
X62240000Y-58110000D03*
X68780000Y-53630000D03*
X70940000Y-52550000D03*
X79630000Y-43530000D03*
X88640000Y-47330000D03*
X88470000Y-49620000D03*
X70140000Y-70450000D03*
X67850000Y-61710000D03*
X87050000Y-67990000D03*
X112930000Y-53530000D03*
X106450000Y-39170000D03*
X107500000Y-44610000D03*
X67350000Y-40570000D03*
X107430000Y-64090000D03*
X77470000Y-63530000D03*
X97290000Y-33680000D03*
X95250000Y-41910000D03*
X103860000Y-71550000D03*
X89180000Y-80450000D03*
X98630000Y-57400000D03*
X97410000Y-54170000D03*
X102070000Y-44970000D03*
X99350000Y-44740000D03*
X68840000Y-46250000D03*
X80910000Y-48000000D03*
X97060000Y-48310000D03*
X68610000Y-63010000D03*
X72110000Y-60010000D03*
X96320000Y-42420000D03*
X97320000Y-59830000D03*
X78960000Y-90550000D03*
X86700000Y-73340000D03*
X97970000Y-84730000D03*
X97730000Y-83740000D03*
X78560000Y-53110000D03*
X81980000Y-58250000D03*
X79240000Y-52160000D03*
D32*
X96125000Y-63240000D02*
X96125000Y-62605000D01*
X96125000Y-62605000D02*
X96760000Y-61970000D01*
X96760000Y-61970000D02*
X97395000Y-61970000D01*
X97395000Y-61970000D02*
X97395000Y-61335000D01*
X97395000Y-61335000D02*
X98030000Y-61970000D01*
X98030000Y-61970000D02*
X97395000Y-61970000D01*
X97395000Y-61970000D02*
X97395000Y-62605000D01*
X97395000Y-62605000D02*
X96760000Y-63240000D01*
X96760000Y-63240000D02*
X96125000Y-63240000D01*
X97880000Y-58140000D02*
X97880000Y-58100000D01*
X110260354Y-71079999D02*
X102290000Y-75360000D01*
X102290000Y-75360000D02*
X100460000Y-75550000D01*
X100460000Y-75550000D02*
X98770000Y-75620000D01*
X98770000Y-75620000D02*
X95850000Y-76220000D01*
X95850000Y-76220000D02*
X92450000Y-77750000D01*
X92450000Y-77750000D02*
X91760000Y-79450000D01*
X91760000Y-79450000D02*
X92770000Y-81980000D01*
X64740000Y-69290000D02*
X64680000Y-70430000D01*
X64680000Y-70430000D02*
X65410000Y-71970000D01*
X65410000Y-71970000D02*
X66510000Y-72400000D01*
X66510000Y-72400000D02*
X70120000Y-75040000D01*
X70120000Y-75040000D02*
X71490000Y-75510000D01*
X71490000Y-75510000D02*
X72480000Y-75550000D01*
X72480000Y-75550000D02*
X74940000Y-76200000D01*
X74940000Y-76200000D02*
X75670000Y-77840000D01*
X75670000Y-77840000D02*
X75820000Y-78760000D01*
X75820000Y-78760000D02*
X79340000Y-80720000D01*
X79340000Y-80720000D02*
X86576785Y-80938537D01*
X65363013Y-42530192D02*
X63630000Y-41730000D01*
X63630000Y-41730000D02*
X62990000Y-38890000D01*
X62990000Y-38890000D02*
X65110000Y-34640000D01*
X65110000Y-34640000D02*
X70350000Y-29540000D01*
X70350000Y-29540000D02*
X72820000Y-27890000D01*
X72820000Y-27890000D02*
X74941119Y-26313649D01*
X107996987Y-43049808D02*
X106760000Y-43700000D01*
X106760000Y-43700000D02*
X103625696Y-44344035D01*
X103625696Y-44344035D02*
X103625696Y-44344033D01*
X107196987Y-68049808D02*
X104930000Y-66230000D01*
X104930000Y-66230000D02*
X103349821Y-64675104D01*
X110300000Y-68840000D02*
X107196987Y-68049808D01*
X66063013Y-68030192D02*
X64740000Y-69290000D01*
X86576785Y-80938537D02*
X86576785Y-80938543D01*
X86480000Y-79540000D02*
X86576785Y-80938543D01*
X86576785Y-80938543D02*
X86600000Y-81274000D01*
X86600000Y-81274000D02*
X88090000Y-82330000D01*
X66063013Y-68030192D02*
X66980000Y-67380000D01*
X66980000Y-67380000D02*
X67160000Y-66090000D01*
X65363013Y-42530192D02*
X67160000Y-43060000D01*
X67160000Y-43060000D02*
X69778999Y-43555189D01*
X69778999Y-43555189D02*
X69778999Y-43555191D01*
X74941119Y-26313649D02*
X82620000Y-26070000D01*
X82620000Y-26070000D02*
X86270000Y-26560000D01*
X86270000Y-26560000D02*
X86690000Y-27610000D01*
X86690000Y-27610000D02*
X86640000Y-27780000D01*
X94725759Y-32662227D02*
X94200000Y-28510000D01*
X94200000Y-28510000D02*
X93330000Y-27540000D01*
X93330000Y-27540000D02*
X89430000Y-27540000D01*
X86640000Y-27780000D02*
X86580000Y-30540000D01*
X77140000Y-58480000D02*
X76836000Y-54434000D01*
X65810000Y-64880000D02*
X63870000Y-61660000D01*
X63870000Y-61660000D02*
X63650000Y-60620000D01*
X63650000Y-60620000D02*
X63720000Y-57740000D01*
X63720000Y-57740000D02*
X68701751Y-48281751D01*
X67160000Y-66090000D02*
X65810000Y-64880000D01*
X74025000Y-52070000D02*
X74870000Y-54060000D01*
X74870000Y-54060000D02*
X76836000Y-54434000D01*
X68701751Y-48281751D02*
X69920000Y-50490000D01*
X74460000Y-50890000D02*
X74025000Y-52070000D01*
X70583365Y-46027947D02*
X71030000Y-45770000D01*
X74840000Y-45170000D02*
X76836000Y-44434000D01*
X104253975Y-62330000D02*
X102920000Y-56880000D01*
X104500000Y-49960000D02*
X103625696Y-44344033D01*
X103625696Y-44344033D02*
X103130000Y-41160000D01*
X102317798Y-64458615D02*
X104253975Y-62330000D01*
X103349821Y-64675104D02*
X102317798Y-64458615D01*
X96850000Y-39702143D02*
X94725759Y-32662227D01*
X94725759Y-32662227D02*
X94710000Y-32610000D01*
X96970000Y-39730000D02*
X96850000Y-39702143D01*
X96850000Y-39702143D02*
X103130000Y-41160000D01*
X104220000Y-39200000D02*
X103831107Y-37537107D01*
X69778999Y-43555191D02*
X69430192Y-45434478D01*
X70583365Y-46027947D02*
X69430192Y-45434478D01*
X68701751Y-48281751D02*
X70583365Y-46027947D01*
X70583365Y-46027947D02*
X70590000Y-46020000D01*
X110260000Y-71100000D02*
X110260354Y-71079999D01*
X110260354Y-71079999D02*
X110300000Y-68840000D01*
X64470000Y-39360000D02*
X64690000Y-38570000D01*
X105986025Y-63330000D02*
X105986025Y-62106025D01*
X105650000Y-61770000D02*
X105640000Y-61770000D01*
X105986025Y-62106025D02*
X105650000Y-61770000D01*
X99570000Y-42090000D02*
X101850000Y-42720000D01*
X101850000Y-42720000D02*
X102850000Y-44260000D01*
X102850000Y-44260000D02*
X102950000Y-46410000D01*
X95370000Y-39910000D02*
X99570000Y-42090000D01*
X84880000Y-28190000D02*
X84880000Y-28100000D01*
X84880000Y-30540000D02*
X84880000Y-28190000D01*
X84880000Y-28190000D02*
X84880000Y-28100000D01*
X84880000Y-28100000D02*
X84730000Y-27950000D01*
X72840000Y-62000000D02*
X74400000Y-62420000D01*
X74570000Y-56440000D02*
X74570000Y-56410000D01*
X83710000Y-78090000D02*
X88850000Y-78150000D01*
X79270000Y-68980000D02*
X77670000Y-76020000D01*
X77670000Y-76020000D02*
X78870000Y-76810000D01*
X85322144Y-78190341D02*
X83710000Y-78090000D01*
X83810000Y-62992000D02*
X79270000Y-68980000D01*
X85322144Y-78190341D02*
X85500000Y-76020000D01*
X92931857Y-74790449D02*
X92150000Y-73030000D01*
X85500000Y-76020000D02*
X86218687Y-69298420D01*
X66802000Y-61026000D02*
X66840000Y-59930000D01*
X62240000Y-58110000D02*
X60738000Y-59573000D01*
X68170000Y-55550000D02*
X68780000Y-53630000D01*
X70940000Y-52550000D02*
X72025000Y-52070000D01*
X68170000Y-55550000D02*
X66802000Y-61026000D01*
X85050000Y-44760000D02*
X79630000Y-43530000D01*
X85050000Y-44760000D02*
X88640000Y-47330000D01*
X88470000Y-49620000D02*
X91070000Y-52140000D01*
X91070000Y-52140000D02*
X92836000Y-52434000D01*
X52705000Y-55245000D02*
X60738000Y-59573000D01*
X72706857Y-70335449D02*
X70140000Y-70450000D01*
X67821530Y-61257331D02*
X67850000Y-61710000D01*
X68750000Y-61468000D02*
X67821530Y-61257331D01*
X67821530Y-61257331D02*
X66802000Y-61026000D01*
X86218687Y-69298420D02*
X87050000Y-67990000D01*
X92836000Y-52434000D02*
X92836000Y-54434000D01*
X107430000Y-64090000D02*
X105986025Y-63330000D01*
X112236000Y-50917000D02*
X112930000Y-53530000D01*
X102416893Y-36122893D02*
X104160000Y-35870000D01*
X104160000Y-35870000D02*
X105390000Y-36770000D01*
X105390000Y-36770000D02*
X106450000Y-39170000D01*
X73340000Y-67310000D02*
X75372000Y-64008000D01*
X75372000Y-64008000D02*
X76508893Y-67763107D01*
X77470000Y-63530000D02*
X77923107Y-66348893D01*
X77470000Y-63530000D02*
X76388000Y-60706000D01*
X76836000Y-48434000D02*
X73940000Y-49350000D01*
X73940000Y-49350000D02*
X73000000Y-51070000D01*
X73000000Y-51070000D02*
X73000000Y-53330000D01*
X73000000Y-53330000D02*
X72390000Y-56962000D01*
X70170000Y-55550000D02*
X71602731Y-56461269D01*
X71602731Y-56461269D02*
X72390000Y-56962000D01*
X70950000Y-60518000D02*
X71590000Y-61010000D01*
X71590000Y-61010000D02*
X74488000Y-60706000D01*
X70950000Y-60518000D02*
X70830000Y-58570000D01*
X70830000Y-58570000D02*
X72390000Y-56962000D01*
X97290000Y-33680000D02*
X96560000Y-32930000D01*
X91560000Y-26190000D02*
X89690000Y-26190000D01*
X94700000Y-26880000D02*
X91560000Y-26190000D01*
X96560000Y-32930000D02*
X94700000Y-26880000D01*
X87555000Y-28325000D02*
X87555000Y-30540000D01*
X89690000Y-26190000D02*
X87555000Y-28325000D01*
X92836000Y-42434000D02*
X95250000Y-41910000D01*
X83000000Y-27630635D02*
X76280000Y-27610000D01*
X76280000Y-27610000D02*
X75380000Y-28900000D01*
X75380000Y-28900000D02*
X75640000Y-31260000D01*
X75640000Y-31260000D02*
X75380000Y-33160000D01*
X75380000Y-33160000D02*
X73440000Y-34340000D01*
X73440000Y-34340000D02*
X67073070Y-36063064D01*
X67073070Y-36063064D02*
X67073070Y-36063063D01*
X67073070Y-36063063D02*
X65700000Y-38980000D01*
X65700000Y-38980000D02*
X65850513Y-41685818D01*
X85660000Y-27840000D02*
X85410000Y-27400000D01*
X85410000Y-27400000D02*
X84160000Y-27290000D01*
X84160000Y-27290000D02*
X83000000Y-27630635D01*
X83000000Y-27630635D02*
X82921116Y-27653799D01*
X82921116Y-27653799D02*
X82900000Y-27660000D01*
X85705000Y-30540000D02*
X85660000Y-28770000D01*
X85660000Y-28770000D02*
X85660000Y-27840000D01*
X85660000Y-27840000D02*
X85660000Y-27820000D01*
X63030000Y-55470000D02*
X62890000Y-62000000D01*
X62890000Y-62000000D02*
X65575513Y-67185818D01*
X64925513Y-43287965D02*
X65940000Y-44030000D01*
X65940000Y-44030000D02*
X66150000Y-45480000D01*
X66150000Y-45480000D02*
X64530000Y-46200000D01*
X64530000Y-46200000D02*
X63030000Y-47130000D01*
X63030000Y-47130000D02*
X63030000Y-55470000D01*
X85505000Y-79540000D02*
X79400000Y-79950000D01*
X79400000Y-79950000D02*
X76490000Y-78280000D01*
X76490000Y-78280000D02*
X76350000Y-78010000D01*
X76350000Y-78010000D02*
X76350000Y-77350000D01*
X76350000Y-77350000D02*
X75510000Y-74510000D01*
X75510000Y-74510000D02*
X71320000Y-72160000D01*
X71320000Y-72160000D02*
X68130000Y-71750000D01*
X68130000Y-71750000D02*
X66011654Y-71498089D01*
X66011654Y-71498089D02*
X66011654Y-71498088D01*
X66500513Y-68787965D02*
X65470000Y-69720000D01*
X65470000Y-69720000D02*
X65440000Y-70280000D01*
X65440000Y-70280000D02*
X66011654Y-71498088D01*
X103860000Y-71550000D02*
X106709487Y-68894182D01*
X89180000Y-80450000D02*
X88300000Y-81140000D01*
X88300000Y-81140000D02*
X87330000Y-80670000D01*
X87330000Y-80670000D02*
X87355000Y-79540000D01*
X109930000Y-63890000D02*
X110300000Y-52990000D01*
X110300000Y-52990000D02*
X110260000Y-50780000D01*
X110260000Y-50780000D02*
X108484487Y-43894182D01*
X107634487Y-67292035D02*
X108770000Y-67560000D01*
X108770000Y-67560000D02*
X109710000Y-66980000D01*
X109710000Y-66980000D02*
X109930000Y-63890000D01*
X76836000Y-46434000D02*
X78810000Y-45460000D01*
X78810000Y-45460000D02*
X78820000Y-43020000D01*
X78820000Y-43020000D02*
X78750000Y-41090000D01*
X78750000Y-41090000D02*
X76836000Y-40434000D01*
X76836000Y-42434000D02*
X74350000Y-43140000D01*
X74350000Y-43140000D02*
X70120000Y-52430000D01*
X70120000Y-52430000D02*
X69270000Y-54480000D01*
X69270000Y-54480000D02*
X69200000Y-55350000D01*
X69200000Y-55350000D02*
X68750000Y-60518000D01*
X68900000Y-64516000D02*
X69860000Y-62780000D01*
X69860000Y-62780000D02*
X69860000Y-61530000D01*
X69860000Y-61530000D02*
X69710000Y-60600000D01*
X69710000Y-60600000D02*
X68750000Y-60518000D01*
X102152202Y-66351385D02*
X100380000Y-64170000D01*
X100380000Y-64170000D02*
X98630000Y-57400000D01*
X97410000Y-54170000D02*
X95120000Y-51040000D01*
X95120000Y-51040000D02*
X92836000Y-50434000D01*
X102152202Y-66351385D02*
X103290000Y-68780000D01*
X103290000Y-68780000D02*
X102648143Y-73799551D01*
X102070000Y-44970000D02*
X99350000Y-44740000D01*
X67358249Y-46938249D02*
X68840000Y-46250000D01*
X80910000Y-48000000D02*
X92836000Y-48434000D01*
X97060000Y-48310000D02*
X92836000Y-48434000D01*
X67358249Y-46938249D02*
X64738000Y-50663000D01*
X92836000Y-46434000D02*
X96700000Y-46600000D01*
X96700000Y-46600000D02*
X98980000Y-47780000D01*
X98980000Y-47780000D02*
X99480000Y-51660000D01*
X99480000Y-51660000D02*
X96090000Y-59890000D01*
X96090000Y-59890000D02*
X89650000Y-63400000D01*
X89650000Y-63400000D02*
X83440000Y-69680000D01*
X83440000Y-69680000D02*
X83170000Y-74940000D01*
X83170000Y-74940000D02*
X80730000Y-78450000D01*
X80730000Y-78450000D02*
X78423143Y-78254551D01*
X92836000Y-44434000D02*
X96340000Y-45390000D01*
X96340000Y-45390000D02*
X102340000Y-48770000D01*
X102340000Y-48770000D02*
X108236000Y-59827000D01*
X70800000Y-64516000D02*
X73472000Y-64008000D01*
X70800000Y-64516000D02*
X70950000Y-62418000D01*
X71440000Y-67310000D02*
X68270000Y-66000000D01*
X68270000Y-66000000D02*
X66802000Y-62926000D01*
X68750000Y-62418000D02*
X68610000Y-63010000D01*
X72110000Y-60010000D02*
X72390000Y-58862000D01*
X66802000Y-62926000D02*
X68750000Y-62418000D01*
X92836000Y-40434000D02*
X95630000Y-40990000D01*
X95630000Y-40990000D02*
X96320000Y-42420000D01*
X97320000Y-59830000D02*
X97114876Y-59497663D01*
X97114876Y-59497663D02*
X97114876Y-59497664D01*
X89451580Y-72531313D02*
X93570000Y-69840000D01*
X93570000Y-69840000D02*
X96010000Y-67510000D01*
X96010000Y-67510000D02*
X96010000Y-64920000D01*
X96010000Y-64920000D02*
X94450000Y-62900000D01*
X94450000Y-62900000D02*
X94450000Y-61840000D01*
X94450000Y-61840000D02*
X96550000Y-60500000D01*
X96550000Y-60500000D02*
X97114876Y-59497664D01*
X87500000Y-76020000D02*
X89884165Y-75610000D01*
X89884165Y-75610000D02*
X89884165Y-75609998D01*
X89451580Y-72531313D02*
X89884165Y-75609998D01*
X89884165Y-75609998D02*
X90390000Y-79210000D01*
X90390000Y-79210000D02*
X92348676Y-90380575D01*
X92348676Y-90380575D02*
X88650000Y-90580000D01*
X88650000Y-90580000D02*
X78960000Y-90550000D01*
X86700000Y-73340000D02*
X87835133Y-70914867D01*
X87835133Y-70914867D02*
X92504867Y-66245133D01*
X116760000Y-64170000D02*
X113330000Y-72050000D01*
X113330000Y-72050000D02*
X102990000Y-80640000D01*
X102990000Y-80640000D02*
X101870000Y-81170000D01*
X101870000Y-81170000D02*
X101010000Y-81640000D01*
X101010000Y-81640000D02*
X99700000Y-82600000D01*
X99700000Y-82600000D02*
X98190000Y-83870000D01*
X98190000Y-83870000D02*
X97880000Y-84160000D01*
X97880000Y-84160000D02*
X97970000Y-84730000D01*
X97730000Y-83740000D02*
X100140000Y-81860000D01*
X100140000Y-81860000D02*
X102940000Y-80360000D01*
X102940000Y-80360000D02*
X113110134Y-71860674D01*
X116760000Y-64170000D02*
X116790000Y-64010000D01*
X116790000Y-64010000D02*
X116780000Y-63400000D01*
X116780000Y-63400000D02*
X116850000Y-55730000D01*
X116850000Y-55730000D02*
X116980000Y-51910000D01*
X116980000Y-51910000D02*
X115580000Y-49000000D01*
X115580000Y-49000000D02*
X115090000Y-48080000D01*
X115090000Y-48080000D02*
X114464000Y-47498000D01*
X114464000Y-47498000D02*
X116670000Y-51970000D01*
X116670000Y-51970000D02*
X116510000Y-55940000D01*
X116510000Y-55940000D02*
X116450000Y-64090000D01*
X116450000Y-64090000D02*
X113110134Y-71860674D01*
X76836000Y-52434000D02*
X78560000Y-53110000D01*
X79040000Y-58480000D02*
X81980000Y-58250000D01*
X76836000Y-50434000D02*
X78990000Y-51740000D01*
X78990000Y-51740000D02*
X79240000Y-52160000D01*
D33*
G36*
X106054208Y-21415157D02*
X125500126Y-55096474D01*
X105989479Y-88889906D01*
X105974636Y-88899824D01*
X105865816Y-89062685D01*
X105827604Y-89254792D01*
X105827604Y-97006047D01*
X67388977Y-97006047D01*
X67388977Y-95537000D01*
X72123000Y-95537000D01*
X72123000Y-95867000D01*
X72254192Y-96272544D01*
X72530592Y-96597013D01*
X72913999Y-96784408D01*
X73081000Y-96657502D01*
X73081000Y-95537000D01*
X73335000Y-95537000D01*
X73335000Y-96657502D01*
X73502001Y-96784408D01*
X73885408Y-96597013D01*
X74161808Y-96272544D01*
X74293000Y-95867000D01*
X74293000Y-95537000D01*
X79123000Y-95537000D01*
X79123000Y-95867000D01*
X79254192Y-96272544D01*
X79530592Y-96597013D01*
X79913999Y-96784408D01*
X80081000Y-96657502D01*
X80081000Y-95537000D01*
X80335000Y-95537000D01*
X80335000Y-96657502D01*
X80502001Y-96784408D01*
X80885408Y-96597013D01*
X81161808Y-96272544D01*
X81293000Y-95867000D01*
X81293000Y-95713387D01*
X90060822Y-95713387D01*
X90216844Y-96090989D01*
X90505492Y-96380140D01*
X90882821Y-96536821D01*
X91291387Y-96537178D01*
X91668989Y-96381156D01*
X91958140Y-96092508D01*
X92114821Y-95715179D01*
X92114822Y-95713387D01*
X96860822Y-95713387D01*
X97016844Y-96090989D01*
X97305492Y-96380140D01*
X97682821Y-96536821D01*
X98091387Y-96537178D01*
X98468989Y-96381156D01*
X98758140Y-96092508D01*
X98914821Y-95715179D01*
X98915178Y-95306613D01*
X98759156Y-94929011D01*
X98470508Y-94639860D01*
X98093179Y-94483179D01*
X97684613Y-94482822D01*
X97307011Y-94638844D01*
X97017860Y-94927492D01*
X96861179Y-95304821D01*
X96860822Y-95713387D01*
X92114822Y-95713387D01*
X92115178Y-95306613D01*
X91959156Y-94929011D01*
X91670508Y-94639860D01*
X91293179Y-94483179D01*
X90884613Y-94482822D01*
X90507011Y-94638844D01*
X90217860Y-94927492D01*
X90061179Y-95304821D01*
X90060822Y-95713387D01*
X81293000Y-95713387D01*
X81293000Y-95537000D01*
X80335000Y-95537000D01*
X80081000Y-95537000D01*
X79123000Y-95537000D01*
X74293000Y-95537000D01*
X73335000Y-95537000D01*
X73081000Y-95537000D01*
X72123000Y-95537000D01*
X67388977Y-95537000D01*
X67388977Y-94953000D01*
X72123000Y-94953000D01*
X72123000Y-95283000D01*
X73081000Y-95283000D01*
X73081000Y-94162498D01*
X73335000Y-94162498D01*
X73335000Y-95283000D01*
X74293000Y-95283000D01*
X74293000Y-94953000D01*
X79123000Y-94953000D01*
X79123000Y-95283000D01*
X80081000Y-95283000D01*
X80081000Y-94162498D01*
X80335000Y-94162498D01*
X80335000Y-95283000D01*
X81293000Y-95283000D01*
X81293000Y-94953000D01*
X81161808Y-94547456D01*
X80885408Y-94222987D01*
X80502001Y-94035592D01*
X80335000Y-94162498D01*
X80081000Y-94162498D01*
X79913999Y-94035592D01*
X79530592Y-94222987D01*
X79254192Y-94547456D01*
X79123000Y-94953000D01*
X74293000Y-94953000D01*
X74161808Y-94547456D01*
X73885408Y-94222987D01*
X73502001Y-94035592D01*
X73335000Y-94162498D01*
X73081000Y-94162498D01*
X72913999Y-94035592D01*
X72530592Y-94222987D01*
X72254192Y-94547456D01*
X72123000Y-94953000D01*
X67388977Y-94953000D01*
X67388977Y-93000062D01*
X72988460Y-93000062D01*
X72990094Y-93029452D01*
X73189826Y-93394671D01*
X73514118Y-93655655D01*
X73913599Y-93772672D01*
X74081000Y-93615606D01*
X74081000Y-92837000D01*
X74335000Y-92837000D01*
X74335000Y-93615606D01*
X74502401Y-93772672D01*
X74901882Y-93655655D01*
X75226174Y-93394671D01*
X75425906Y-93029452D01*
X75427540Y-93000062D01*
X77988460Y-93000062D01*
X77990094Y-93029452D01*
X78189826Y-93394671D01*
X78514118Y-93655655D01*
X78913599Y-93772672D01*
X79081000Y-93615606D01*
X79081000Y-92837000D01*
X79335000Y-92837000D01*
X79335000Y-93615606D01*
X79502401Y-93772672D01*
X79901882Y-93655655D01*
X80226174Y-93394671D01*
X80425906Y-93029452D01*
X80427540Y-93000062D01*
X80300257Y-92837000D01*
X79335000Y-92837000D01*
X79081000Y-92837000D01*
X78115743Y-92837000D01*
X77988460Y-93000062D01*
X75427540Y-93000062D01*
X75300257Y-92837000D01*
X74335000Y-92837000D01*
X74081000Y-92837000D01*
X73115743Y-92837000D01*
X72988460Y-93000062D01*
X67388977Y-93000062D01*
X67388977Y-92419938D01*
X72988460Y-92419938D01*
X73115743Y-92583000D01*
X74081000Y-92583000D01*
X74081000Y-91804394D01*
X74335000Y-91804394D01*
X74335000Y-92583000D01*
X75300257Y-92583000D01*
X75427540Y-92419938D01*
X77988460Y-92419938D01*
X78115743Y-92583000D01*
X79081000Y-92583000D01*
X79081000Y-91804394D01*
X79335000Y-91804394D01*
X79335000Y-92583000D01*
X80300257Y-92583000D01*
X80427540Y-92419938D01*
X80425906Y-92390548D01*
X80226174Y-92025329D01*
X79901882Y-91764345D01*
X79502401Y-91647328D01*
X79335000Y-91804394D01*
X79081000Y-91804394D01*
X78913599Y-91647328D01*
X78514118Y-91764345D01*
X78189826Y-92025329D01*
X77990094Y-92390548D01*
X77988460Y-92419938D01*
X75427540Y-92419938D01*
X75425906Y-92390548D01*
X75226174Y-92025329D01*
X74901882Y-91764345D01*
X74502401Y-91647328D01*
X74335000Y-91804394D01*
X74081000Y-91804394D01*
X73913599Y-91647328D01*
X73514118Y-91764345D01*
X73189826Y-92025329D01*
X72990094Y-92390548D01*
X72988460Y-92419938D01*
X67388977Y-92419938D01*
X67388977Y-89254792D01*
X67350765Y-89062685D01*
X67241945Y-88899824D01*
X67227102Y-88889906D01*
X66269897Y-87231978D01*
X67252627Y-87231978D01*
X67625658Y-87732608D01*
X69049262Y-88334333D01*
X70594772Y-88345466D01*
X72026896Y-87764311D01*
X72074342Y-87732608D01*
X72447373Y-87231978D01*
X69850000Y-84634605D01*
X67252627Y-87231978D01*
X66269897Y-87231978D01*
X65096602Y-85199772D01*
X65959534Y-85199772D01*
X66540689Y-86631896D01*
X66572392Y-86679342D01*
X67073022Y-87052373D01*
X69670395Y-84455000D01*
X70029605Y-84455000D01*
X72626978Y-87052373D01*
X73127608Y-86679342D01*
X73729333Y-85255738D01*
X73740466Y-83710228D01*
X73159311Y-82278104D01*
X73127608Y-82230658D01*
X72626978Y-81857627D01*
X70029605Y-84455000D01*
X69670395Y-84455000D01*
X67073022Y-81857627D01*
X66572392Y-82230658D01*
X65970667Y-83654262D01*
X65959534Y-85199772D01*
X65096602Y-85199772D01*
X63063319Y-81678022D01*
X67252627Y-81678022D01*
X69850000Y-84275395D01*
X72447373Y-81678022D01*
X72398398Y-81612295D01*
X73480800Y-81607812D01*
X74513747Y-81179951D01*
X74763182Y-80784787D01*
X72898000Y-78919605D01*
X72883858Y-78933748D01*
X72704253Y-78754143D01*
X72718395Y-78740000D01*
X70853213Y-76874818D01*
X70458049Y-77124253D01*
X70025459Y-78180973D01*
X70030188Y-79322800D01*
X70458049Y-80355747D01*
X70853211Y-80605181D01*
X70813802Y-80644590D01*
X70650738Y-80575667D01*
X69105228Y-80564534D01*
X67673104Y-81145689D01*
X67625658Y-81177392D01*
X67252627Y-81678022D01*
X63063319Y-81678022D01*
X52850824Y-63989469D01*
X57574794Y-63989469D01*
X57755427Y-64426635D01*
X58089606Y-64761397D01*
X58526456Y-64942793D01*
X58999469Y-64943206D01*
X59436635Y-64762573D01*
X59771397Y-64428394D01*
X59952793Y-63991544D01*
X59953206Y-63518531D01*
X59772573Y-63081365D01*
X59438394Y-62746603D01*
X59001544Y-62565207D01*
X58528531Y-62564794D01*
X58091365Y-62745427D01*
X57756603Y-63079606D01*
X57575207Y-63516456D01*
X57574794Y-63989469D01*
X52850824Y-63989469D01*
X50465952Y-59858750D01*
X60103000Y-59858750D01*
X60103000Y-61249309D01*
X60199673Y-61482698D01*
X60378301Y-61661327D01*
X60611690Y-61758000D01*
X60952250Y-61758000D01*
X61111000Y-61599250D01*
X61111000Y-59700000D01*
X60261750Y-59700000D01*
X60103000Y-59858750D01*
X50465952Y-59858750D01*
X49405490Y-58021978D01*
X50107627Y-58021978D01*
X50480658Y-58522608D01*
X51904262Y-59124333D01*
X53449772Y-59135466D01*
X54881896Y-58554311D01*
X54929342Y-58522608D01*
X55302373Y-58021978D01*
X55177086Y-57896691D01*
X60103000Y-57896691D01*
X60103000Y-59287250D01*
X60261750Y-59446000D01*
X61111000Y-59446000D01*
X61111000Y-57546750D01*
X61365000Y-57546750D01*
X61365000Y-59446000D01*
X61385000Y-59446000D01*
X61385000Y-59700000D01*
X61365000Y-59700000D01*
X61365000Y-61599250D01*
X61523750Y-61758000D01*
X61864310Y-61758000D01*
X62097699Y-61661327D01*
X62276327Y-61482698D01*
X62283838Y-61464566D01*
X62272642Y-61986764D01*
X62278424Y-62019483D01*
X62274736Y-62052506D01*
X62299228Y-62137206D01*
X62314570Y-62224024D01*
X62332433Y-62252040D01*
X62341663Y-62283960D01*
X64743871Y-66922707D01*
X64690168Y-66968828D01*
X64611067Y-67122482D01*
X64597977Y-67294805D01*
X64652963Y-67458644D01*
X64877963Y-67848356D01*
X64982866Y-67970506D01*
X65053109Y-68006667D01*
X65047977Y-68074227D01*
X65065739Y-68127150D01*
X64314174Y-68842810D01*
X64249705Y-68934364D01*
X64182713Y-69024035D01*
X64180538Y-69032589D01*
X64175456Y-69039807D01*
X64150938Y-69149033D01*
X64123353Y-69257545D01*
X64063353Y-70397545D01*
X64067935Y-70429196D01*
X64063270Y-70460834D01*
X64085065Y-70547527D01*
X64097873Y-70635996D01*
X64114219Y-70663484D01*
X64122016Y-70694499D01*
X64852016Y-72234499D01*
X64918457Y-72323922D01*
X64982205Y-72415307D01*
X64990113Y-72420365D01*
X64995709Y-72427896D01*
X65091295Y-72485075D01*
X65185181Y-72545120D01*
X66210347Y-72945867D01*
X69755492Y-75538437D01*
X69839521Y-75577492D01*
X69919621Y-75624084D01*
X71289620Y-76094084D01*
X71378188Y-76106036D01*
X71465071Y-76126997D01*
X71679155Y-76135647D01*
X71282253Y-76300049D01*
X71032818Y-76695213D01*
X72898000Y-78560395D01*
X72912143Y-78546253D01*
X73091748Y-78725858D01*
X73077605Y-78740000D01*
X74942787Y-80605182D01*
X75337951Y-80355747D01*
X75723799Y-79413207D01*
X79039595Y-81259503D01*
X79064918Y-81267663D01*
X79086581Y-81283103D01*
X79178820Y-81304364D01*
X79268921Y-81333396D01*
X79295438Y-81331244D01*
X79321361Y-81337219D01*
X86044767Y-81540253D01*
X86047180Y-81549129D01*
X86066211Y-81573744D01*
X86077325Y-81602813D01*
X86139362Y-81668360D01*
X86194549Y-81739741D01*
X86221552Y-81755200D01*
X86242943Y-81777802D01*
X87419872Y-82611921D01*
X87473320Y-82741275D01*
X87677650Y-82945961D01*
X87944756Y-83056874D01*
X88233975Y-83057126D01*
X88501275Y-82946680D01*
X88705961Y-82742350D01*
X88816874Y-82475244D01*
X88817126Y-82186025D01*
X88706680Y-81918725D01*
X88508275Y-81719975D01*
X88590261Y-81671878D01*
X88681017Y-81625935D01*
X89253489Y-81177065D01*
X89323975Y-81177126D01*
X89591275Y-81066680D01*
X89795961Y-80862350D01*
X89906874Y-80595244D01*
X89907126Y-80306025D01*
X89796680Y-80038725D01*
X89592350Y-79834039D01*
X89325244Y-79723126D01*
X89036025Y-79722874D01*
X88983731Y-79744481D01*
X88906250Y-79667000D01*
X88305000Y-79667000D01*
X88305000Y-79687000D01*
X88055000Y-79687000D01*
X88055000Y-79667000D01*
X88033000Y-79667000D01*
X88033000Y-79413000D01*
X88055000Y-79413000D01*
X88055000Y-78563750D01*
X88305000Y-78563750D01*
X88305000Y-79413000D01*
X88906250Y-79413000D01*
X89065000Y-79254250D01*
X89065000Y-78913690D01*
X88968327Y-78680301D01*
X88789698Y-78501673D01*
X88556309Y-78405000D01*
X88463750Y-78405000D01*
X88305000Y-78563750D01*
X88055000Y-78563750D01*
X87896250Y-78405000D01*
X87803691Y-78405000D01*
X87570302Y-78501673D01*
X87467339Y-78604635D01*
X87180000Y-78604635D01*
X87021763Y-78634409D01*
X86981075Y-78660591D01*
X86949381Y-78638936D01*
X86780000Y-78604635D01*
X86180000Y-78604635D01*
X86021763Y-78634409D01*
X85955325Y-78677161D01*
X85899381Y-78638936D01*
X85730000Y-78604635D01*
X85280000Y-78604635D01*
X85121763Y-78634409D01*
X84976433Y-78727927D01*
X84878936Y-78870619D01*
X84859938Y-78964430D01*
X80122091Y-79282615D01*
X80267628Y-79030538D01*
X80677869Y-79065296D01*
X80758342Y-79056259D01*
X80839293Y-79057750D01*
X80877016Y-79042933D01*
X80917301Y-79038409D01*
X80988186Y-78999266D01*
X81063550Y-78969664D01*
X81092737Y-78941533D01*
X81128217Y-78921941D01*
X81178723Y-78858658D01*
X81237027Y-78802463D01*
X82972633Y-76305750D01*
X84365000Y-76305750D01*
X84365000Y-76771310D01*
X84461673Y-77004699D01*
X84640302Y-77183327D01*
X84873691Y-77280000D01*
X85214250Y-77280000D01*
X85373000Y-77121250D01*
X85373000Y-76147000D01*
X84523750Y-76147000D01*
X84365000Y-76305750D01*
X82972633Y-76305750D01*
X83677027Y-75292463D01*
X83687391Y-75268690D01*
X84365000Y-75268690D01*
X84365000Y-75734250D01*
X84523750Y-75893000D01*
X85373000Y-75893000D01*
X85373000Y-74918750D01*
X85214250Y-74760000D01*
X84873691Y-74760000D01*
X84640302Y-74856673D01*
X84461673Y-75035301D01*
X84365000Y-75268690D01*
X83687391Y-75268690D01*
X83697310Y-75245939D01*
X83727632Y-75205242D01*
X83744998Y-75136553D01*
X83773314Y-75071603D01*
X83774248Y-75020858D01*
X83786688Y-74971655D01*
X83863051Y-73483975D01*
X85972874Y-73483975D01*
X86083320Y-73751275D01*
X86287650Y-73955961D01*
X86554756Y-74066874D01*
X86843975Y-74067126D01*
X87111275Y-73956680D01*
X87315961Y-73752350D01*
X87426874Y-73485244D01*
X87427085Y-73243245D01*
X87942918Y-72141203D01*
X89220614Y-70863507D01*
X89311450Y-70730563D01*
X89348087Y-70561671D01*
X89316130Y-70391832D01*
X89282362Y-70340914D01*
X91915235Y-67708042D01*
X92771753Y-68564560D01*
X92904697Y-68655396D01*
X93073589Y-68692033D01*
X93243428Y-68660076D01*
X93387453Y-68564560D01*
X94824294Y-67127719D01*
X94915130Y-66994775D01*
X94951767Y-66825883D01*
X94919810Y-66656044D01*
X94824294Y-66512019D01*
X92237981Y-63925706D01*
X92105037Y-63834870D01*
X91936145Y-63798233D01*
X91766306Y-63830190D01*
X91622281Y-63925706D01*
X90185440Y-65362547D01*
X90094604Y-65495491D01*
X90057967Y-65664383D01*
X90089924Y-65834222D01*
X90185440Y-65978247D01*
X91041958Y-66834765D01*
X88410196Y-69466528D01*
X88369249Y-69438550D01*
X88200357Y-69401913D01*
X88030518Y-69433870D01*
X87886493Y-69529386D01*
X86449652Y-70966227D01*
X86358816Y-71099171D01*
X86322179Y-71268063D01*
X86354136Y-71437902D01*
X86449652Y-71581927D01*
X86716297Y-71848572D01*
X86311200Y-72714034D01*
X86288725Y-72723320D01*
X86084039Y-72927650D01*
X85973126Y-73194756D01*
X85972874Y-73483975D01*
X83863051Y-73483975D01*
X84019126Y-70443403D01*
X85253309Y-70443403D01*
X85253309Y-70667909D01*
X85499778Y-70914377D01*
X85733167Y-71011050D01*
X85985786Y-71011051D01*
X86219175Y-70914378D01*
X86397804Y-70735750D01*
X86824854Y-70308699D01*
X86824854Y-70084192D01*
X86218687Y-69478025D01*
X85253309Y-70443403D01*
X84019126Y-70443403D01*
X84044619Y-69946778D01*
X84542538Y-69443247D01*
X84506056Y-69531321D01*
X84506057Y-69783940D01*
X84602730Y-70017329D01*
X84849198Y-70263798D01*
X85073704Y-70263798D01*
X86039082Y-69298420D01*
X86398292Y-69298420D01*
X87004459Y-69904587D01*
X87228966Y-69904587D01*
X87656017Y-69477537D01*
X87834645Y-69298908D01*
X87931318Y-69065519D01*
X87931317Y-68812900D01*
X87834644Y-68579511D01*
X87588176Y-68333042D01*
X87363670Y-68333042D01*
X86398292Y-69298420D01*
X86039082Y-69298420D01*
X86024940Y-69284278D01*
X86204545Y-69104673D01*
X86218687Y-69118815D01*
X87184065Y-68153437D01*
X87184065Y-67928931D01*
X86937596Y-67682463D01*
X86704207Y-67585790D01*
X86451588Y-67585789D01*
X86329135Y-67636511D01*
X90025237Y-63898745D01*
X93836143Y-61821683D01*
X93832500Y-61840000D01*
X93832500Y-62900000D01*
X93848442Y-62980149D01*
X93854040Y-63061674D01*
X93871744Y-63097294D01*
X93879504Y-63136307D01*
X93924904Y-63204252D01*
X93961275Y-63277431D01*
X95392500Y-65130684D01*
X95392500Y-67245842D01*
X93184637Y-69354170D01*
X90246801Y-71273993D01*
X90118640Y-71145832D01*
X89985696Y-71054996D01*
X89816804Y-71018359D01*
X89646965Y-71050316D01*
X89502940Y-71145832D01*
X88066099Y-72582673D01*
X87975263Y-72715617D01*
X87938626Y-72884509D01*
X87970583Y-73054348D01*
X88066099Y-73198373D01*
X88784520Y-73916794D01*
X88917464Y-74007630D01*
X89039160Y-74034029D01*
X89189350Y-75102922D01*
X88405762Y-75237674D01*
X88405591Y-75236763D01*
X88312073Y-75091433D01*
X88169381Y-74993936D01*
X88000000Y-74959635D01*
X87000000Y-74959635D01*
X86841763Y-74989409D01*
X86696433Y-75082927D01*
X86610281Y-75209014D01*
X86538327Y-75035301D01*
X86359698Y-74856673D01*
X86126309Y-74760000D01*
X85785750Y-74760000D01*
X85627000Y-74918750D01*
X85627000Y-75893000D01*
X85647000Y-75893000D01*
X85647000Y-76147000D01*
X85627000Y-76147000D01*
X85627000Y-77121250D01*
X85785750Y-77280000D01*
X86126309Y-77280000D01*
X86359698Y-77183327D01*
X86538327Y-77004699D01*
X86611058Y-76829110D01*
X86687927Y-76948567D01*
X86830619Y-77046064D01*
X87000000Y-77080365D01*
X88000000Y-77080365D01*
X88158237Y-77050591D01*
X88303567Y-76957073D01*
X88401064Y-76814381D01*
X88435365Y-76645000D01*
X88435365Y-76485711D01*
X89361273Y-76326485D01*
X89778507Y-79295921D01*
X89782022Y-79305987D01*
X89781779Y-79316647D01*
X91620211Y-89801456D01*
X88634326Y-89962449D01*
X79371706Y-89933772D01*
X79105244Y-89823126D01*
X78816025Y-89822874D01*
X78548725Y-89933320D01*
X78344039Y-90137650D01*
X78233126Y-90404756D01*
X78232874Y-90693975D01*
X78343320Y-90961275D01*
X78547650Y-91165961D01*
X78814756Y-91276874D01*
X79103975Y-91277126D01*
X79366239Y-91168761D01*
X88648088Y-91197497D01*
X88665592Y-91194072D01*
X88683246Y-91196604D01*
X92381922Y-90997179D01*
X92418045Y-90987947D01*
X92455323Y-90988796D01*
X92533806Y-90958362D01*
X92615355Y-90937521D01*
X92645194Y-90915169D01*
X92679961Y-90901687D01*
X92740826Y-90843532D01*
X92808189Y-90793071D01*
X92827205Y-90760999D01*
X92854163Y-90735241D01*
X92888136Y-90658231D01*
X92931067Y-90585824D01*
X92936362Y-90548915D01*
X92951411Y-90514802D01*
X92953328Y-90430647D01*
X92965280Y-90347329D01*
X92956048Y-90311206D01*
X92956897Y-90273928D01*
X92423515Y-87231978D01*
X100907627Y-87231978D01*
X101280658Y-87732608D01*
X102704262Y-88334333D01*
X104249772Y-88345466D01*
X105681896Y-87764311D01*
X105729342Y-87732608D01*
X106102373Y-87231978D01*
X103505000Y-84634605D01*
X100907627Y-87231978D01*
X92423515Y-87231978D01*
X91836467Y-83883975D01*
X97002874Y-83883975D01*
X97113320Y-84151275D01*
X97279805Y-84318050D01*
X97300210Y-84447283D01*
X97243126Y-84584756D01*
X97242874Y-84873975D01*
X97353320Y-85141275D01*
X97557650Y-85345961D01*
X97824756Y-85456874D01*
X98113975Y-85457126D01*
X98381275Y-85346680D01*
X98585961Y-85142350D01*
X98696874Y-84875244D01*
X98697126Y-84586025D01*
X98594358Y-84337306D01*
X98599939Y-84332085D01*
X99746912Y-83367412D01*
X99625667Y-83654262D01*
X99614534Y-85199772D01*
X100195689Y-86631896D01*
X100227392Y-86679342D01*
X100728022Y-87052373D01*
X103325395Y-84455000D01*
X103684605Y-84455000D01*
X106281978Y-87052373D01*
X106782608Y-86679342D01*
X107384333Y-85255738D01*
X107395466Y-83710228D01*
X106814311Y-82278104D01*
X106782608Y-82230658D01*
X106281978Y-81857627D01*
X103684605Y-84455000D01*
X103325395Y-84455000D01*
X103311253Y-84440858D01*
X103490858Y-84261253D01*
X103505000Y-84275395D01*
X106102373Y-81678022D01*
X105729342Y-81177392D01*
X104305738Y-80575667D01*
X104036111Y-80573725D01*
X113724591Y-72524978D01*
X113739225Y-72506927D01*
X113758778Y-72494361D01*
X113814640Y-72413903D01*
X113876321Y-72337820D01*
X113882934Y-72315539D01*
X113896188Y-72296450D01*
X117326188Y-64416450D01*
X117340988Y-64348415D01*
X117366924Y-64283798D01*
X117396924Y-64123798D01*
X117396237Y-64061335D01*
X117407417Y-63999878D01*
X117397546Y-63397747D01*
X117446607Y-58021978D01*
X118052627Y-58021978D01*
X118425658Y-58522608D01*
X119849262Y-59124333D01*
X121394772Y-59135466D01*
X122826896Y-58554311D01*
X122874342Y-58522608D01*
X123247373Y-58021978D01*
X120650000Y-55424605D01*
X118052627Y-58021978D01*
X117446607Y-58021978D01*
X117451116Y-57528001D01*
X117873022Y-57842373D01*
X120470395Y-55245000D01*
X120829605Y-55245000D01*
X123426978Y-57842373D01*
X123927608Y-57469342D01*
X124529333Y-56045738D01*
X124540466Y-54500228D01*
X123959311Y-53068104D01*
X123927608Y-53020658D01*
X123426978Y-52647627D01*
X120829605Y-55245000D01*
X120470395Y-55245000D01*
X117873022Y-52647627D01*
X117564943Y-52877184D01*
X117578867Y-52468022D01*
X118052627Y-52468022D01*
X120650000Y-55065395D01*
X123247373Y-52468022D01*
X122874342Y-51967392D01*
X121450738Y-51365667D01*
X119905228Y-51354534D01*
X118473104Y-51935689D01*
X118425658Y-51967392D01*
X118052627Y-52468022D01*
X117578867Y-52468022D01*
X117597143Y-51931003D01*
X117592615Y-51903354D01*
X117596542Y-51875614D01*
X117573278Y-51785282D01*
X117558203Y-51693234D01*
X117543440Y-51669425D01*
X117536452Y-51642291D01*
X116136452Y-48732291D01*
X116128729Y-48722020D01*
X116125017Y-48709719D01*
X115635017Y-47789719D01*
X115631886Y-47785893D01*
X115652793Y-47735544D01*
X115653206Y-47262531D01*
X115472573Y-46825365D01*
X115138394Y-46490603D01*
X114701544Y-46309207D01*
X114228531Y-46308794D01*
X113791365Y-46489427D01*
X113456603Y-46823606D01*
X113275207Y-47260456D01*
X113274794Y-47733469D01*
X113455427Y-48170635D01*
X113789606Y-48505397D01*
X114226456Y-48686793D01*
X114361936Y-48686911D01*
X116046671Y-52102203D01*
X115893001Y-55915134D01*
X115894607Y-55925338D01*
X115892517Y-55935454D01*
X115837652Y-63388017D01*
X115686397Y-63022857D01*
X115444213Y-62953392D01*
X114643605Y-63754000D01*
X115444213Y-64554608D01*
X115597029Y-64510776D01*
X112601030Y-71481392D01*
X103179631Y-79354990D01*
X103202541Y-79299027D01*
X103197812Y-78157200D01*
X102769951Y-77124253D01*
X102374787Y-76874818D01*
X100509605Y-78740000D01*
X100523748Y-78754143D01*
X100344143Y-78933748D01*
X100330000Y-78919605D01*
X98464818Y-80784787D01*
X98714253Y-81179951D01*
X99562616Y-81527246D01*
X97658086Y-83012937D01*
X97586025Y-83012874D01*
X97318725Y-83123320D01*
X97114039Y-83327650D01*
X97003126Y-83594756D01*
X97002874Y-83883975D01*
X91836467Y-83883975D01*
X91000031Y-79113678D01*
X90580855Y-76130416D01*
X91182466Y-76130416D01*
X91226437Y-76206575D01*
X91352746Y-76425349D01*
X91553162Y-76579134D01*
X91797174Y-76644516D01*
X92047631Y-76611542D01*
X93251890Y-75916263D01*
X93309997Y-75699406D01*
X92885372Y-74963934D01*
X91240573Y-75913559D01*
X91182466Y-76130416D01*
X90580855Y-76130416D01*
X90495658Y-75524077D01*
X90495658Y-75524076D01*
X90434679Y-75090091D01*
X90693463Y-75090091D01*
X90726436Y-75340549D01*
X90852746Y-75559323D01*
X90896716Y-75635482D01*
X91113573Y-75693589D01*
X92597343Y-74836934D01*
X93105342Y-74836934D01*
X93529967Y-75572406D01*
X93746824Y-75630513D01*
X94951083Y-74935233D01*
X95104867Y-74734818D01*
X95170251Y-74490807D01*
X95137278Y-74240349D01*
X95010968Y-74021575D01*
X94966998Y-73945416D01*
X94750141Y-73887309D01*
X93105342Y-74836934D01*
X92597343Y-74836934D01*
X92758372Y-74743964D01*
X92333747Y-74008492D01*
X92116890Y-73950385D01*
X90912631Y-74645665D01*
X90758847Y-74846080D01*
X90693463Y-75090091D01*
X90434679Y-75090091D01*
X90264859Y-73881492D01*
X92553717Y-73881492D01*
X92978342Y-74616964D01*
X94623141Y-73667339D01*
X94681248Y-73450482D01*
X94637277Y-73374323D01*
X94510968Y-73155549D01*
X94310552Y-73001764D01*
X94066540Y-72936382D01*
X93816083Y-72969356D01*
X92611824Y-73664635D01*
X92553717Y-73881492D01*
X90264859Y-73881492D01*
X90162685Y-73154329D01*
X90837061Y-72479953D01*
X90927897Y-72347009D01*
X90938711Y-72297158D01*
X93907795Y-70356915D01*
X93948435Y-70317098D01*
X93996456Y-70286589D01*
X96436456Y-67956589D01*
X96440618Y-67950660D01*
X96446638Y-67946638D01*
X96509680Y-67852290D01*
X96574896Y-67759397D01*
X96576472Y-67752329D01*
X96580496Y-67746307D01*
X96602641Y-67634974D01*
X96627335Y-67524236D01*
X96626087Y-67517105D01*
X96627500Y-67510000D01*
X96627500Y-64920000D01*
X96611558Y-64839851D01*
X96605960Y-64758326D01*
X96588256Y-64722706D01*
X96580496Y-64683693D01*
X96535096Y-64615748D01*
X96498725Y-64542569D01*
X95941469Y-63820994D01*
X96125000Y-63857500D01*
X96760000Y-63857500D01*
X96996307Y-63810496D01*
X97196638Y-63676638D01*
X97831639Y-63041638D01*
X97965496Y-62841307D01*
X98012500Y-62605000D01*
X98012500Y-62587500D01*
X98030000Y-62587500D01*
X98266308Y-62540496D01*
X98466639Y-62406639D01*
X98600496Y-62206308D01*
X98647500Y-61970000D01*
X98600496Y-61733693D01*
X98466639Y-61533362D01*
X97831638Y-60898362D01*
X97631307Y-60764504D01*
X97395000Y-60717500D01*
X97158693Y-60764504D01*
X97070623Y-60823351D01*
X97087954Y-60803169D01*
X97226730Y-60556919D01*
X97463975Y-60557126D01*
X97731275Y-60446680D01*
X97935961Y-60242350D01*
X98046874Y-59975244D01*
X98047126Y-59686025D01*
X97936680Y-59418725D01*
X97732350Y-59214039D01*
X97642420Y-59176696D01*
X97640345Y-59173335D01*
X97616586Y-59147797D01*
X97600834Y-59116676D01*
X97572363Y-59092227D01*
X97551514Y-59061025D01*
X97510135Y-59033376D01*
X97476231Y-58996934D01*
X97444503Y-58982431D01*
X97418045Y-58959710D01*
X97382390Y-58948019D01*
X97351183Y-58927167D01*
X97302368Y-58917457D01*
X97257104Y-58896766D01*
X97222244Y-58895508D01*
X97189102Y-58884641D01*
X97171394Y-58885987D01*
X97353941Y-58442812D01*
X97443362Y-58576638D01*
X97643693Y-58710496D01*
X97880000Y-58757500D01*
X98116307Y-58710496D01*
X98299344Y-58588194D01*
X99782151Y-64324540D01*
X99787139Y-64334884D01*
X99788208Y-64346321D01*
X99839291Y-64443040D01*
X99886799Y-64541564D01*
X99895368Y-64549214D01*
X99900731Y-64559368D01*
X101091265Y-66024784D01*
X101040463Y-66605457D01*
X101056332Y-66765687D01*
X101136828Y-66918615D01*
X101270479Y-67028178D01*
X101436227Y-67077110D01*
X101826281Y-67111235D01*
X102654740Y-68879569D01*
X102554170Y-69666057D01*
X102117519Y-68909754D01*
X102012616Y-68787604D01*
X101858961Y-68708502D01*
X101686638Y-68695413D01*
X101522799Y-68750399D01*
X98838121Y-70300399D01*
X98715972Y-70405302D01*
X98636871Y-70558956D01*
X98623781Y-70731279D01*
X98678767Y-70895118D01*
X99178767Y-71761144D01*
X99283670Y-71883294D01*
X99437325Y-71962396D01*
X99609648Y-71975485D01*
X99773487Y-71920499D01*
X102458165Y-70370499D01*
X102464824Y-70364780D01*
X102125111Y-73021457D01*
X100838121Y-73764501D01*
X100715972Y-73869404D01*
X100636871Y-74023058D01*
X100623781Y-74195381D01*
X100678767Y-74359220D01*
X100976852Y-74875519D01*
X100415303Y-74933822D01*
X98744445Y-75003029D01*
X98695783Y-75014821D01*
X98645714Y-75015137D01*
X95725713Y-75615137D01*
X95662959Y-75641595D01*
X95596600Y-75656889D01*
X92196600Y-77186888D01*
X92104149Y-77252778D01*
X92010258Y-77316487D01*
X92006285Y-77322526D01*
X92000395Y-77326724D01*
X91940222Y-77422939D01*
X91877833Y-77517768D01*
X91187834Y-79217768D01*
X91166314Y-79330136D01*
X91142551Y-79442050D01*
X91143698Y-79448229D01*
X91142515Y-79454404D01*
X91165633Y-79566440D01*
X91186509Y-79678943D01*
X92045167Y-81829840D01*
X92043126Y-81834756D01*
X92042874Y-82123975D01*
X92153320Y-82391275D01*
X92357650Y-82595961D01*
X92624756Y-82706874D01*
X92913975Y-82707126D01*
X93181275Y-82596680D01*
X93385961Y-82392350D01*
X93496874Y-82125244D01*
X93497126Y-81836025D01*
X93386680Y-81568725D01*
X93193413Y-81375121D01*
X92425650Y-79451910D01*
X92929090Y-78211552D01*
X93865333Y-77790242D01*
X93121835Y-78219501D01*
X92999686Y-78324404D01*
X92920585Y-78478058D01*
X92907495Y-78650381D01*
X92962481Y-78814220D01*
X93462481Y-79680246D01*
X93567384Y-79802396D01*
X93721039Y-79881498D01*
X93893362Y-79894587D01*
X94057201Y-79839601D01*
X96741879Y-78289601D01*
X96864028Y-78184698D01*
X96865945Y-78180973D01*
X97457459Y-78180973D01*
X97462188Y-79322800D01*
X97890049Y-80355747D01*
X98285213Y-80605182D01*
X100150395Y-78740000D01*
X98285213Y-76874818D01*
X97890049Y-77124253D01*
X97457459Y-78180973D01*
X96865945Y-78180973D01*
X96943129Y-78031044D01*
X96956219Y-77858721D01*
X96901233Y-77694882D01*
X96401233Y-76828856D01*
X96334277Y-76750892D01*
X98845411Y-76234906D01*
X98874423Y-76233704D01*
X98714253Y-76300049D01*
X98464818Y-76695213D01*
X100330000Y-78560395D01*
X102195182Y-76695213D01*
X101945747Y-76300049D01*
X101393349Y-76073914D01*
X102353769Y-75974198D01*
X102467782Y-75938954D01*
X102582136Y-75904025D01*
X110444220Y-71682164D01*
X110486174Y-71674588D01*
X110688843Y-71544297D01*
X110826225Y-71346366D01*
X110841127Y-71277811D01*
X110851608Y-71258111D01*
X110856562Y-71206806D01*
X110877403Y-71110927D01*
X110877757Y-71090927D01*
X110877757Y-71090926D01*
X110917403Y-68850927D01*
X110908518Y-68801722D01*
X110911167Y-68751787D01*
X110887311Y-68684282D01*
X110874588Y-68613826D01*
X110847547Y-68571763D01*
X110830886Y-68524619D01*
X110783015Y-68471383D01*
X110744297Y-68411157D01*
X110703220Y-68382646D01*
X110669784Y-68345463D01*
X110605182Y-68314599D01*
X110546366Y-68273775D01*
X110497502Y-68263153D01*
X110452385Y-68241598D01*
X109311961Y-67951185D01*
X110034254Y-67505515D01*
X110070967Y-67471368D01*
X110114527Y-67446545D01*
X110158350Y-67390095D01*
X110210677Y-67341426D01*
X110231526Y-67295834D01*
X110262274Y-67256226D01*
X110281160Y-67187295D01*
X110310876Y-67122313D01*
X110312691Y-67072213D01*
X110325941Y-67023853D01*
X110488957Y-64734213D01*
X113663392Y-64734213D01*
X113732857Y-64976397D01*
X114256302Y-65163144D01*
X114811368Y-65135362D01*
X115195143Y-64976397D01*
X115264608Y-64734213D01*
X114464000Y-63933605D01*
X113663392Y-64734213D01*
X110488957Y-64734213D01*
X110545941Y-63933853D01*
X110544485Y-63922294D01*
X110547145Y-63910949D01*
X110559522Y-63546302D01*
X113054856Y-63546302D01*
X113082638Y-64101368D01*
X113241603Y-64485143D01*
X113483787Y-64554608D01*
X114284395Y-63754000D01*
X113483787Y-62953392D01*
X113241603Y-63022857D01*
X113054856Y-63546302D01*
X110559522Y-63546302D01*
X110585745Y-62773787D01*
X113663392Y-62773787D01*
X114464000Y-63574395D01*
X115264608Y-62773787D01*
X115195143Y-62531603D01*
X114671698Y-62344856D01*
X114116632Y-62372638D01*
X113732857Y-62531603D01*
X113663392Y-62773787D01*
X110585745Y-62773787D01*
X110748572Y-57977000D01*
X110900635Y-57977000D01*
X110900635Y-61077000D01*
X110930409Y-61235237D01*
X111023927Y-61380567D01*
X111166619Y-61478064D01*
X111336000Y-61512365D01*
X112336000Y-61512365D01*
X112494237Y-61482591D01*
X112639567Y-61389073D01*
X112737064Y-61246381D01*
X112771365Y-61077000D01*
X112771365Y-57977000D01*
X112741591Y-57818763D01*
X112648073Y-57673433D01*
X112505381Y-57575936D01*
X112336000Y-57541635D01*
X111336000Y-57541635D01*
X111177763Y-57571409D01*
X111032433Y-57664927D01*
X110934936Y-57807619D01*
X110900635Y-57977000D01*
X110748572Y-57977000D01*
X110917145Y-53010949D01*
X110914509Y-52994864D01*
X110917399Y-52978825D01*
X110911272Y-52640297D01*
X110976301Y-52705327D01*
X111209690Y-52802000D01*
X111550250Y-52802000D01*
X111709000Y-52643250D01*
X111709000Y-50744000D01*
X111963000Y-50744000D01*
X111963000Y-52643250D01*
X112121750Y-52802000D01*
X112462310Y-52802000D01*
X112695699Y-52705327D01*
X112874327Y-52526698D01*
X112971000Y-52293309D01*
X112971000Y-50902750D01*
X112812250Y-50744000D01*
X111963000Y-50744000D01*
X111709000Y-50744000D01*
X111689000Y-50744000D01*
X111689000Y-50490000D01*
X111709000Y-50490000D01*
X111709000Y-48590750D01*
X111963000Y-48590750D01*
X111963000Y-50490000D01*
X112812250Y-50490000D01*
X112971000Y-50331250D01*
X112971000Y-48940691D01*
X112874327Y-48707302D01*
X112695699Y-48528673D01*
X112462310Y-48432000D01*
X112121750Y-48432000D01*
X111963000Y-48590750D01*
X111709000Y-48590750D01*
X111550250Y-48432000D01*
X111209690Y-48432000D01*
X110976301Y-48528673D01*
X110797673Y-48707302D01*
X110701000Y-48940691D01*
X110701000Y-50017165D01*
X109210692Y-44237431D01*
X109247682Y-44216075D01*
X109369832Y-44111172D01*
X109448933Y-43957518D01*
X109462023Y-43785195D01*
X109407037Y-43621356D01*
X109182037Y-43231644D01*
X109077134Y-43109494D01*
X109006891Y-43073333D01*
X109012023Y-43005773D01*
X108957037Y-42841934D01*
X108657037Y-42322318D01*
X108552134Y-42200168D01*
X108509116Y-42178022D01*
X108512023Y-42139745D01*
X108457037Y-41975906D01*
X108313367Y-41727064D01*
X108351054Y-41586414D01*
X108318080Y-41335957D01*
X108271801Y-41255799D01*
X108054944Y-41197692D01*
X107319472Y-41622317D01*
X107330472Y-41641370D01*
X107110502Y-41768370D01*
X107099502Y-41749317D01*
X106364030Y-42173942D01*
X106305923Y-42390799D01*
X106352203Y-42470957D01*
X106552618Y-42624741D01*
X106693267Y-42662429D01*
X106836937Y-42911272D01*
X106866926Y-42946191D01*
X106550082Y-43112732D01*
X104136163Y-43608743D01*
X103818568Y-41568714D01*
X105942920Y-41568714D01*
X105975894Y-41819171D01*
X106022173Y-41899329D01*
X106239030Y-41957436D01*
X106974502Y-41532811D01*
X106673877Y-41012113D01*
X106457020Y-40954007D01*
X106380861Y-40997977D01*
X106162087Y-41124287D01*
X106008302Y-41324702D01*
X105942920Y-41568714D01*
X103818568Y-41568714D01*
X103799180Y-41444184D01*
X103856874Y-41305244D01*
X103857126Y-41016025D01*
X103803035Y-40885113D01*
X106893847Y-40885113D01*
X107194472Y-41405811D01*
X107929944Y-40981186D01*
X107988051Y-40764329D01*
X107941771Y-40684171D01*
X107741356Y-40530387D01*
X107497345Y-40465003D01*
X107246887Y-40497977D01*
X107028113Y-40624286D01*
X106951954Y-40668257D01*
X106893847Y-40885113D01*
X103803035Y-40885113D01*
X103746680Y-40748725D01*
X103542350Y-40544039D01*
X103275244Y-40433126D01*
X102986025Y-40432874D01*
X102893386Y-40471152D01*
X97337893Y-39181484D01*
X96677052Y-36991397D01*
X101727994Y-36991397D01*
X101727994Y-37215903D01*
X101968806Y-37456715D01*
X102202195Y-37553388D01*
X102454814Y-37553388D01*
X102630403Y-37480657D01*
X102600289Y-37619481D01*
X102632246Y-37789320D01*
X102727762Y-37933345D01*
X103434869Y-38640452D01*
X103458804Y-38656806D01*
X103530706Y-38964255D01*
X103493126Y-39054756D01*
X103492874Y-39343975D01*
X103603320Y-39611275D01*
X103807650Y-39815961D01*
X104074756Y-39926874D01*
X104363975Y-39927126D01*
X104631275Y-39816680D01*
X104835961Y-39612350D01*
X104946874Y-39345244D01*
X104947126Y-39056025D01*
X104836680Y-38788725D01*
X104733900Y-38685766D01*
X104595794Y-38095227D01*
X104934452Y-37756569D01*
X105025288Y-37623625D01*
X105061925Y-37454733D01*
X105029968Y-37284894D01*
X104934452Y-37140869D01*
X104227345Y-36433762D01*
X104094401Y-36342926D01*
X103925509Y-36306289D01*
X103775434Y-36334527D01*
X103847388Y-36160814D01*
X103847388Y-35908195D01*
X103750715Y-35674806D01*
X103509903Y-35433994D01*
X103285397Y-35433994D01*
X102596498Y-36122893D01*
X102610641Y-36137035D01*
X102431035Y-36316641D01*
X102416893Y-36302498D01*
X101727994Y-36991397D01*
X96677052Y-36991397D01*
X96403545Y-36084972D01*
X100986398Y-36084972D01*
X100986398Y-36337591D01*
X101083071Y-36570980D01*
X101323883Y-36811792D01*
X101548389Y-36811792D01*
X102237288Y-36122893D01*
X101636777Y-35522383D01*
X101412271Y-35522383D01*
X101261699Y-35672955D01*
X101083070Y-35851583D01*
X100986398Y-36084972D01*
X96403545Y-36084972D01*
X96111851Y-35118271D01*
X101816383Y-35118271D01*
X101816383Y-35342777D01*
X102416893Y-35943288D01*
X103105792Y-35254389D01*
X103105792Y-35029883D01*
X102864980Y-34789071D01*
X102631591Y-34692398D01*
X102378972Y-34692398D01*
X102145583Y-34789070D01*
X101966955Y-34967699D01*
X101816383Y-35118271D01*
X96111851Y-35118271D01*
X95331872Y-32533359D01*
X95009635Y-29988461D01*
X95969764Y-33111461D01*
X95981766Y-33133715D01*
X95986363Y-33158577D01*
X96038588Y-33239071D01*
X96084135Y-33323522D01*
X96103739Y-33339488D01*
X96117501Y-33360699D01*
X96562879Y-33818278D01*
X96562874Y-33823975D01*
X96673320Y-34091275D01*
X96877650Y-34295961D01*
X97144756Y-34406874D01*
X97433975Y-34407126D01*
X97701275Y-34296680D01*
X97905961Y-34092350D01*
X98016874Y-33825244D01*
X98017126Y-33536025D01*
X97914144Y-33286787D01*
X98464818Y-33286787D01*
X98714253Y-33681951D01*
X99770973Y-34114541D01*
X100912800Y-34109812D01*
X101945747Y-33681951D01*
X102195182Y-33286787D01*
X100330000Y-31421605D01*
X98464818Y-33286787D01*
X97914144Y-33286787D01*
X97906680Y-33268725D01*
X97702350Y-33064039D01*
X97450311Y-32959382D01*
X97106443Y-32606092D01*
X96515203Y-30682973D01*
X97457459Y-30682973D01*
X97462188Y-31824800D01*
X97890049Y-32857747D01*
X98285213Y-33107182D01*
X100150395Y-31242000D01*
X100509605Y-31242000D01*
X102374787Y-33107182D01*
X102769951Y-32857747D01*
X103202541Y-31801027D01*
X103197812Y-30659200D01*
X102769951Y-29626253D01*
X102374787Y-29376818D01*
X100509605Y-31242000D01*
X100150395Y-31242000D01*
X98285213Y-29376818D01*
X97890049Y-29626253D01*
X97457459Y-30682973D01*
X96515203Y-30682973D01*
X96058424Y-29197213D01*
X98464818Y-29197213D01*
X100330000Y-31062395D01*
X102195182Y-29197213D01*
X102080632Y-29015739D01*
X102704262Y-29279333D01*
X104249772Y-29290466D01*
X105681896Y-28709311D01*
X105729342Y-28677608D01*
X106102373Y-28176978D01*
X103505000Y-25579605D01*
X100907627Y-28176978D01*
X101122163Y-28464898D01*
X100889027Y-28369459D01*
X99747200Y-28374188D01*
X98714253Y-28802049D01*
X98464818Y-29197213D01*
X96058424Y-29197213D01*
X95290236Y-26698539D01*
X95250588Y-26625025D01*
X95220176Y-26547250D01*
X95193883Y-26519886D01*
X95175865Y-26486478D01*
X95111105Y-26433736D01*
X95053242Y-26373516D01*
X95018473Y-26358295D01*
X94989047Y-26334329D01*
X94909039Y-26310385D01*
X94832530Y-26276890D01*
X94231298Y-26144772D01*
X99614534Y-26144772D01*
X100195689Y-27576896D01*
X100227392Y-27624342D01*
X100728022Y-27997373D01*
X103325395Y-25400000D01*
X103684605Y-25400000D01*
X106281978Y-27997373D01*
X106782608Y-27624342D01*
X107384333Y-26200738D01*
X107395466Y-24655228D01*
X106814311Y-23223104D01*
X106782608Y-23175658D01*
X106281978Y-22802627D01*
X103684605Y-25400000D01*
X103325395Y-25400000D01*
X100728022Y-22802627D01*
X100227392Y-23175658D01*
X99625667Y-24599262D01*
X99614534Y-26144772D01*
X94231298Y-26144772D01*
X91692531Y-25586890D01*
X91625629Y-25585554D01*
X91560000Y-25572500D01*
X89690000Y-25572500D01*
X89453693Y-25619504D01*
X89253362Y-25753362D01*
X87417018Y-27589706D01*
X87417126Y-27466025D01*
X87306680Y-27198725D01*
X87112918Y-27004626D01*
X86843334Y-26330666D01*
X86797682Y-26260506D01*
X86760852Y-26185340D01*
X86732525Y-26160370D01*
X86711930Y-26128718D01*
X86642908Y-26081372D01*
X86580113Y-26026018D01*
X86544381Y-26013787D01*
X86513245Y-25992429D01*
X86431363Y-25975101D01*
X86352161Y-25947990D01*
X82702160Y-25457990D01*
X82650990Y-25461213D01*
X82600416Y-25452811D01*
X74921536Y-25696460D01*
X74856832Y-25711478D01*
X74790492Y-25714802D01*
X74740614Y-25738453D01*
X74686838Y-25750934D01*
X74632805Y-25789571D01*
X74572789Y-25818029D01*
X72653072Y-27244704D01*
X73094333Y-26200738D01*
X73105466Y-24655228D01*
X72524311Y-23223104D01*
X72492608Y-23175658D01*
X71991978Y-22802627D01*
X69394605Y-25400000D01*
X69408748Y-25414143D01*
X69229143Y-25593748D01*
X69215000Y-25579605D01*
X66617627Y-28176978D01*
X66990658Y-28677608D01*
X68414262Y-29279333D01*
X69722794Y-29288759D01*
X64679313Y-34197490D01*
X64620731Y-34282646D01*
X64557431Y-34364366D01*
X62437431Y-38614366D01*
X62413781Y-38701047D01*
X62381511Y-38784891D01*
X62382308Y-38816399D01*
X62374012Y-38846806D01*
X62385333Y-38935931D01*
X62387606Y-39025751D01*
X63027607Y-41865751D01*
X63044177Y-41903057D01*
X63050539Y-41943379D01*
X63092654Y-42012198D01*
X63125410Y-42085944D01*
X63154997Y-42114071D01*
X63176304Y-42148887D01*
X63241552Y-42196353D01*
X63300034Y-42251947D01*
X63338131Y-42266610D01*
X63371141Y-42290623D01*
X64200239Y-42673446D01*
X64059293Y-42917571D01*
X63918644Y-42955259D01*
X63718229Y-43109043D01*
X63671949Y-43189201D01*
X63730056Y-43406058D01*
X64465528Y-43830683D01*
X64476528Y-43811630D01*
X64696498Y-43938630D01*
X64685498Y-43957683D01*
X64702819Y-43967683D01*
X64577819Y-44184189D01*
X64560498Y-44174189D01*
X64259873Y-44694887D01*
X64317980Y-44911743D01*
X64394139Y-44955714D01*
X64612913Y-45082023D01*
X64863371Y-45114997D01*
X65107382Y-45049613D01*
X65307797Y-44895829D01*
X65354077Y-44815671D01*
X65296703Y-44601549D01*
X65408152Y-44665894D01*
X65471843Y-45105662D01*
X64279209Y-45635721D01*
X64244450Y-45660252D01*
X64204615Y-45675185D01*
X62704615Y-46605185D01*
X62652571Y-46653799D01*
X62593362Y-46693362D01*
X62565370Y-46735254D01*
X62528545Y-46769653D01*
X62499068Y-46834482D01*
X62459504Y-46893693D01*
X62449674Y-46943115D01*
X62428818Y-46988982D01*
X62426393Y-47060154D01*
X62412500Y-47130000D01*
X62412500Y-55463387D01*
X62360955Y-57867611D01*
X62276327Y-57663302D01*
X62097699Y-57484673D01*
X61864310Y-57388000D01*
X61523750Y-57388000D01*
X61365000Y-57546750D01*
X61111000Y-57546750D01*
X60952250Y-57388000D01*
X60611690Y-57388000D01*
X60378301Y-57484673D01*
X60199673Y-57663302D01*
X60103000Y-57896691D01*
X55177086Y-57896691D01*
X52705000Y-55424605D01*
X50107627Y-58021978D01*
X49405490Y-58021978D01*
X48232194Y-55989772D01*
X48814534Y-55989772D01*
X49395689Y-57421896D01*
X49427392Y-57469342D01*
X49928022Y-57842373D01*
X52525395Y-55245000D01*
X52884605Y-55245000D01*
X55481978Y-57842373D01*
X55982608Y-57469342D01*
X56584333Y-56045738D01*
X56595466Y-54500228D01*
X56014311Y-53068104D01*
X55982608Y-53020658D01*
X55481978Y-52647627D01*
X52884605Y-55245000D01*
X52525395Y-55245000D01*
X49928022Y-52647627D01*
X49427392Y-53020658D01*
X48825667Y-54444262D01*
X48814534Y-55989772D01*
X48232194Y-55989772D01*
X47716447Y-55096474D01*
X49233985Y-52468022D01*
X50107627Y-52468022D01*
X52705000Y-55065395D01*
X55302373Y-52468022D01*
X54929342Y-51967392D01*
X53505738Y-51365667D01*
X51960228Y-51354534D01*
X50528104Y-51935689D01*
X50480658Y-51967392D01*
X50107627Y-52468022D01*
X49233985Y-52468022D01*
X51171008Y-49113000D01*
X60302635Y-49113000D01*
X60302635Y-52213000D01*
X60332409Y-52371237D01*
X60425927Y-52516567D01*
X60568619Y-52614064D01*
X60738000Y-52648365D01*
X61738000Y-52648365D01*
X61896237Y-52618591D01*
X62041567Y-52525073D01*
X62139064Y-52382381D01*
X62173365Y-52213000D01*
X62173365Y-49113000D01*
X62143591Y-48954763D01*
X62050073Y-48809433D01*
X61907381Y-48711936D01*
X61738000Y-48677635D01*
X60738000Y-48677635D01*
X60579763Y-48707409D01*
X60434433Y-48800927D01*
X60336936Y-48943619D01*
X60302635Y-49113000D01*
X51171008Y-49113000D01*
X51967481Y-47733469D01*
X57574794Y-47733469D01*
X57755427Y-48170635D01*
X58089606Y-48505397D01*
X58526456Y-48686793D01*
X58999469Y-48687206D01*
X59436635Y-48506573D01*
X59771397Y-48172394D01*
X59952793Y-47735544D01*
X59953206Y-47262531D01*
X59772573Y-46825365D01*
X59438394Y-46490603D01*
X59001544Y-46309207D01*
X58528531Y-46308794D01*
X58091365Y-46489427D01*
X57756603Y-46823606D01*
X57575207Y-47260456D01*
X57574794Y-47733469D01*
X51967481Y-47733469D01*
X54116485Y-44011286D01*
X63308946Y-44011286D01*
X63374328Y-44255298D01*
X63528113Y-44455713D01*
X63746887Y-44582023D01*
X63823046Y-44625993D01*
X64039903Y-44567887D01*
X64340528Y-44047189D01*
X63605056Y-43622564D01*
X63388199Y-43680671D01*
X63341920Y-43760829D01*
X63308946Y-44011286D01*
X54116485Y-44011286D01*
X65367466Y-24524029D01*
X65335667Y-24599262D01*
X65324534Y-26144772D01*
X65905689Y-27576896D01*
X65937392Y-27624342D01*
X66438022Y-27997373D01*
X69035395Y-25400000D01*
X69021253Y-25385858D01*
X69200858Y-25206253D01*
X69215000Y-25220395D01*
X71812373Y-22623022D01*
X100907627Y-22623022D01*
X103505000Y-25220395D01*
X106102373Y-22623022D01*
X105729342Y-22122392D01*
X104305738Y-21520667D01*
X102760228Y-21509534D01*
X101328104Y-22090689D01*
X101280658Y-22122392D01*
X100907627Y-22623022D01*
X71812373Y-22623022D01*
X71439342Y-22122392D01*
X70015738Y-21520667D01*
X68470228Y-21509534D01*
X67038104Y-22090689D01*
X66990658Y-22122392D01*
X66617628Y-22623020D01*
X66520875Y-22526267D01*
X67162376Y-21415156D01*
X106054208Y-21415157D01*
X106054208Y-21415157D01*
G37*
X106054208Y-21415157D02*
X125500126Y-55096474D01*
X105989479Y-88889906D01*
X105974636Y-88899824D01*
X105865816Y-89062685D01*
X105827604Y-89254792D01*
X105827604Y-97006047D01*
X67388977Y-97006047D01*
X67388977Y-95537000D01*
X72123000Y-95537000D01*
X72123000Y-95867000D01*
X72254192Y-96272544D01*
X72530592Y-96597013D01*
X72913999Y-96784408D01*
X73081000Y-96657502D01*
X73081000Y-95537000D01*
X73335000Y-95537000D01*
X73335000Y-96657502D01*
X73502001Y-96784408D01*
X73885408Y-96597013D01*
X74161808Y-96272544D01*
X74293000Y-95867000D01*
X74293000Y-95537000D01*
X79123000Y-95537000D01*
X79123000Y-95867000D01*
X79254192Y-96272544D01*
X79530592Y-96597013D01*
X79913999Y-96784408D01*
X80081000Y-96657502D01*
X80081000Y-95537000D01*
X80335000Y-95537000D01*
X80335000Y-96657502D01*
X80502001Y-96784408D01*
X80885408Y-96597013D01*
X81161808Y-96272544D01*
X81293000Y-95867000D01*
X81293000Y-95713387D01*
X90060822Y-95713387D01*
X90216844Y-96090989D01*
X90505492Y-96380140D01*
X90882821Y-96536821D01*
X91291387Y-96537178D01*
X91668989Y-96381156D01*
X91958140Y-96092508D01*
X92114821Y-95715179D01*
X92114822Y-95713387D01*
X96860822Y-95713387D01*
X97016844Y-96090989D01*
X97305492Y-96380140D01*
X97682821Y-96536821D01*
X98091387Y-96537178D01*
X98468989Y-96381156D01*
X98758140Y-96092508D01*
X98914821Y-95715179D01*
X98915178Y-95306613D01*
X98759156Y-94929011D01*
X98470508Y-94639860D01*
X98093179Y-94483179D01*
X97684613Y-94482822D01*
X97307011Y-94638844D01*
X97017860Y-94927492D01*
X96861179Y-95304821D01*
X96860822Y-95713387D01*
X92114822Y-95713387D01*
X92115178Y-95306613D01*
X91959156Y-94929011D01*
X91670508Y-94639860D01*
X91293179Y-94483179D01*
X90884613Y-94482822D01*
X90507011Y-94638844D01*
X90217860Y-94927492D01*
X90061179Y-95304821D01*
X90060822Y-95713387D01*
X81293000Y-95713387D01*
X81293000Y-95537000D01*
X80335000Y-95537000D01*
X80081000Y-95537000D01*
X79123000Y-95537000D01*
X74293000Y-95537000D01*
X73335000Y-95537000D01*
X73081000Y-95537000D01*
X72123000Y-95537000D01*
X67388977Y-95537000D01*
X67388977Y-94953000D01*
X72123000Y-94953000D01*
X72123000Y-95283000D01*
X73081000Y-95283000D01*
X73081000Y-94162498D01*
X73335000Y-94162498D01*
X73335000Y-95283000D01*
X74293000Y-95283000D01*
X74293000Y-94953000D01*
X79123000Y-94953000D01*
X79123000Y-95283000D01*
X80081000Y-95283000D01*
X80081000Y-94162498D01*
X80335000Y-94162498D01*
X80335000Y-95283000D01*
X81293000Y-95283000D01*
X81293000Y-94953000D01*
X81161808Y-94547456D01*
X80885408Y-94222987D01*
X80502001Y-94035592D01*
X80335000Y-94162498D01*
X80081000Y-94162498D01*
X79913999Y-94035592D01*
X79530592Y-94222987D01*
X79254192Y-94547456D01*
X79123000Y-94953000D01*
X74293000Y-94953000D01*
X74161808Y-94547456D01*
X73885408Y-94222987D01*
X73502001Y-94035592D01*
X73335000Y-94162498D01*
X73081000Y-94162498D01*
X72913999Y-94035592D01*
X72530592Y-94222987D01*
X72254192Y-94547456D01*
X72123000Y-94953000D01*
X67388977Y-94953000D01*
X67388977Y-93000062D01*
X72988460Y-93000062D01*
X72990094Y-93029452D01*
X73189826Y-93394671D01*
X73514118Y-93655655D01*
X73913599Y-93772672D01*
X74081000Y-93615606D01*
X74081000Y-92837000D01*
X74335000Y-92837000D01*
X74335000Y-93615606D01*
X74502401Y-93772672D01*
X74901882Y-93655655D01*
X75226174Y-93394671D01*
X75425906Y-93029452D01*
X75427540Y-93000062D01*
X77988460Y-93000062D01*
X77990094Y-93029452D01*
X78189826Y-93394671D01*
X78514118Y-93655655D01*
X78913599Y-93772672D01*
X79081000Y-93615606D01*
X79081000Y-92837000D01*
X79335000Y-92837000D01*
X79335000Y-93615606D01*
X79502401Y-93772672D01*
X79901882Y-93655655D01*
X80226174Y-93394671D01*
X80425906Y-93029452D01*
X80427540Y-93000062D01*
X80300257Y-92837000D01*
X79335000Y-92837000D01*
X79081000Y-92837000D01*
X78115743Y-92837000D01*
X77988460Y-93000062D01*
X75427540Y-93000062D01*
X75300257Y-92837000D01*
X74335000Y-92837000D01*
X74081000Y-92837000D01*
X73115743Y-92837000D01*
X72988460Y-93000062D01*
X67388977Y-93000062D01*
X67388977Y-92419938D01*
X72988460Y-92419938D01*
X73115743Y-92583000D01*
X74081000Y-92583000D01*
X74081000Y-91804394D01*
X74335000Y-91804394D01*
X74335000Y-92583000D01*
X75300257Y-92583000D01*
X75427540Y-92419938D01*
X77988460Y-92419938D01*
X78115743Y-92583000D01*
X79081000Y-92583000D01*
X79081000Y-91804394D01*
X79335000Y-91804394D01*
X79335000Y-92583000D01*
X80300257Y-92583000D01*
X80427540Y-92419938D01*
X80425906Y-92390548D01*
X80226174Y-92025329D01*
X79901882Y-91764345D01*
X79502401Y-91647328D01*
X79335000Y-91804394D01*
X79081000Y-91804394D01*
X78913599Y-91647328D01*
X78514118Y-91764345D01*
X78189826Y-92025329D01*
X77990094Y-92390548D01*
X77988460Y-92419938D01*
X75427540Y-92419938D01*
X75425906Y-92390548D01*
X75226174Y-92025329D01*
X74901882Y-91764345D01*
X74502401Y-91647328D01*
X74335000Y-91804394D01*
X74081000Y-91804394D01*
X73913599Y-91647328D01*
X73514118Y-91764345D01*
X73189826Y-92025329D01*
X72990094Y-92390548D01*
X72988460Y-92419938D01*
X67388977Y-92419938D01*
X67388977Y-89254792D01*
X67350765Y-89062685D01*
X67241945Y-88899824D01*
X67227102Y-88889906D01*
X66269897Y-87231978D01*
X67252627Y-87231978D01*
X67625658Y-87732608D01*
X69049262Y-88334333D01*
X70594772Y-88345466D01*
X72026896Y-87764311D01*
X72074342Y-87732608D01*
X72447373Y-87231978D01*
X69850000Y-84634605D01*
X67252627Y-87231978D01*
X66269897Y-87231978D01*
X65096602Y-85199772D01*
X65959534Y-85199772D01*
X66540689Y-86631896D01*
X66572392Y-86679342D01*
X67073022Y-87052373D01*
X69670395Y-84455000D01*
X70029605Y-84455000D01*
X72626978Y-87052373D01*
X73127608Y-86679342D01*
X73729333Y-85255738D01*
X73740466Y-83710228D01*
X73159311Y-82278104D01*
X73127608Y-82230658D01*
X72626978Y-81857627D01*
X70029605Y-84455000D01*
X69670395Y-84455000D01*
X67073022Y-81857627D01*
X66572392Y-82230658D01*
X65970667Y-83654262D01*
X65959534Y-85199772D01*
X65096602Y-85199772D01*
X63063319Y-81678022D01*
X67252627Y-81678022D01*
X69850000Y-84275395D01*
X72447373Y-81678022D01*
X72398398Y-81612295D01*
X73480800Y-81607812D01*
X74513747Y-81179951D01*
X74763182Y-80784787D01*
X72898000Y-78919605D01*
X72883858Y-78933748D01*
X72704253Y-78754143D01*
X72718395Y-78740000D01*
X70853213Y-76874818D01*
X70458049Y-77124253D01*
X70025459Y-78180973D01*
X70030188Y-79322800D01*
X70458049Y-80355747D01*
X70853211Y-80605181D01*
X70813802Y-80644590D01*
X70650738Y-80575667D01*
X69105228Y-80564534D01*
X67673104Y-81145689D01*
X67625658Y-81177392D01*
X67252627Y-81678022D01*
X63063319Y-81678022D01*
X52850824Y-63989469D01*
X57574794Y-63989469D01*
X57755427Y-64426635D01*
X58089606Y-64761397D01*
X58526456Y-64942793D01*
X58999469Y-64943206D01*
X59436635Y-64762573D01*
X59771397Y-64428394D01*
X59952793Y-63991544D01*
X59953206Y-63518531D01*
X59772573Y-63081365D01*
X59438394Y-62746603D01*
X59001544Y-62565207D01*
X58528531Y-62564794D01*
X58091365Y-62745427D01*
X57756603Y-63079606D01*
X57575207Y-63516456D01*
X57574794Y-63989469D01*
X52850824Y-63989469D01*
X50465952Y-59858750D01*
X60103000Y-59858750D01*
X60103000Y-61249309D01*
X60199673Y-61482698D01*
X60378301Y-61661327D01*
X60611690Y-61758000D01*
X60952250Y-61758000D01*
X61111000Y-61599250D01*
X61111000Y-59700000D01*
X60261750Y-59700000D01*
X60103000Y-59858750D01*
X50465952Y-59858750D01*
X49405490Y-58021978D01*
X50107627Y-58021978D01*
X50480658Y-58522608D01*
X51904262Y-59124333D01*
X53449772Y-59135466D01*
X54881896Y-58554311D01*
X54929342Y-58522608D01*
X55302373Y-58021978D01*
X55177086Y-57896691D01*
X60103000Y-57896691D01*
X60103000Y-59287250D01*
X60261750Y-59446000D01*
X61111000Y-59446000D01*
X61111000Y-57546750D01*
X61365000Y-57546750D01*
X61365000Y-59446000D01*
X61385000Y-59446000D01*
X61385000Y-59700000D01*
X61365000Y-59700000D01*
X61365000Y-61599250D01*
X61523750Y-61758000D01*
X61864310Y-61758000D01*
X62097699Y-61661327D01*
X62276327Y-61482698D01*
X62283838Y-61464566D01*
X62272642Y-61986764D01*
X62278424Y-62019483D01*
X62274736Y-62052506D01*
X62299228Y-62137206D01*
X62314570Y-62224024D01*
X62332433Y-62252040D01*
X62341663Y-62283960D01*
X64743871Y-66922707D01*
X64690168Y-66968828D01*
X64611067Y-67122482D01*
X64597977Y-67294805D01*
X64652963Y-67458644D01*
X64877963Y-67848356D01*
X64982866Y-67970506D01*
X65053109Y-68006667D01*
X65047977Y-68074227D01*
X65065739Y-68127150D01*
X64314174Y-68842810D01*
X64249705Y-68934364D01*
X64182713Y-69024035D01*
X64180538Y-69032589D01*
X64175456Y-69039807D01*
X64150938Y-69149033D01*
X64123353Y-69257545D01*
X64063353Y-70397545D01*
X64067935Y-70429196D01*
X64063270Y-70460834D01*
X64085065Y-70547527D01*
X64097873Y-70635996D01*
X64114219Y-70663484D01*
X64122016Y-70694499D01*
X64852016Y-72234499D01*
X64918457Y-72323922D01*
X64982205Y-72415307D01*
X64990113Y-72420365D01*
X64995709Y-72427896D01*
X65091295Y-72485075D01*
X65185181Y-72545120D01*
X66210347Y-72945867D01*
X69755492Y-75538437D01*
X69839521Y-75577492D01*
X69919621Y-75624084D01*
X71289620Y-76094084D01*
X71378188Y-76106036D01*
X71465071Y-76126997D01*
X71679155Y-76135647D01*
X71282253Y-76300049D01*
X71032818Y-76695213D01*
X72898000Y-78560395D01*
X72912143Y-78546253D01*
X73091748Y-78725858D01*
X73077605Y-78740000D01*
X74942787Y-80605182D01*
X75337951Y-80355747D01*
X75723799Y-79413207D01*
X79039595Y-81259503D01*
X79064918Y-81267663D01*
X79086581Y-81283103D01*
X79178820Y-81304364D01*
X79268921Y-81333396D01*
X79295438Y-81331244D01*
X79321361Y-81337219D01*
X86044767Y-81540253D01*
X86047180Y-81549129D01*
X86066211Y-81573744D01*
X86077325Y-81602813D01*
X86139362Y-81668360D01*
X86194549Y-81739741D01*
X86221552Y-81755200D01*
X86242943Y-81777802D01*
X87419872Y-82611921D01*
X87473320Y-82741275D01*
X87677650Y-82945961D01*
X87944756Y-83056874D01*
X88233975Y-83057126D01*
X88501275Y-82946680D01*
X88705961Y-82742350D01*
X88816874Y-82475244D01*
X88817126Y-82186025D01*
X88706680Y-81918725D01*
X88508275Y-81719975D01*
X88590261Y-81671878D01*
X88681017Y-81625935D01*
X89253489Y-81177065D01*
X89323975Y-81177126D01*
X89591275Y-81066680D01*
X89795961Y-80862350D01*
X89906874Y-80595244D01*
X89907126Y-80306025D01*
X89796680Y-80038725D01*
X89592350Y-79834039D01*
X89325244Y-79723126D01*
X89036025Y-79722874D01*
X88983731Y-79744481D01*
X88906250Y-79667000D01*
X88305000Y-79667000D01*
X88305000Y-79687000D01*
X88055000Y-79687000D01*
X88055000Y-79667000D01*
X88033000Y-79667000D01*
X88033000Y-79413000D01*
X88055000Y-79413000D01*
X88055000Y-78563750D01*
X88305000Y-78563750D01*
X88305000Y-79413000D01*
X88906250Y-79413000D01*
X89065000Y-79254250D01*
X89065000Y-78913690D01*
X88968327Y-78680301D01*
X88789698Y-78501673D01*
X88556309Y-78405000D01*
X88463750Y-78405000D01*
X88305000Y-78563750D01*
X88055000Y-78563750D01*
X87896250Y-78405000D01*
X87803691Y-78405000D01*
X87570302Y-78501673D01*
X87467339Y-78604635D01*
X87180000Y-78604635D01*
X87021763Y-78634409D01*
X86981075Y-78660591D01*
X86949381Y-78638936D01*
X86780000Y-78604635D01*
X86180000Y-78604635D01*
X86021763Y-78634409D01*
X85955325Y-78677161D01*
X85899381Y-78638936D01*
X85730000Y-78604635D01*
X85280000Y-78604635D01*
X85121763Y-78634409D01*
X84976433Y-78727927D01*
X84878936Y-78870619D01*
X84859938Y-78964430D01*
X80122091Y-79282615D01*
X80267628Y-79030538D01*
X80677869Y-79065296D01*
X80758342Y-79056259D01*
X80839293Y-79057750D01*
X80877016Y-79042933D01*
X80917301Y-79038409D01*
X80988186Y-78999266D01*
X81063550Y-78969664D01*
X81092737Y-78941533D01*
X81128217Y-78921941D01*
X81178723Y-78858658D01*
X81237027Y-78802463D01*
X82972633Y-76305750D01*
X84365000Y-76305750D01*
X84365000Y-76771310D01*
X84461673Y-77004699D01*
X84640302Y-77183327D01*
X84873691Y-77280000D01*
X85214250Y-77280000D01*
X85373000Y-77121250D01*
X85373000Y-76147000D01*
X84523750Y-76147000D01*
X84365000Y-76305750D01*
X82972633Y-76305750D01*
X83677027Y-75292463D01*
X83687391Y-75268690D01*
X84365000Y-75268690D01*
X84365000Y-75734250D01*
X84523750Y-75893000D01*
X85373000Y-75893000D01*
X85373000Y-74918750D01*
X85214250Y-74760000D01*
X84873691Y-74760000D01*
X84640302Y-74856673D01*
X84461673Y-75035301D01*
X84365000Y-75268690D01*
X83687391Y-75268690D01*
X83697310Y-75245939D01*
X83727632Y-75205242D01*
X83744998Y-75136553D01*
X83773314Y-75071603D01*
X83774248Y-75020858D01*
X83786688Y-74971655D01*
X83863051Y-73483975D01*
X85972874Y-73483975D01*
X86083320Y-73751275D01*
X86287650Y-73955961D01*
X86554756Y-74066874D01*
X86843975Y-74067126D01*
X87111275Y-73956680D01*
X87315961Y-73752350D01*
X87426874Y-73485244D01*
X87427085Y-73243245D01*
X87942918Y-72141203D01*
X89220614Y-70863507D01*
X89311450Y-70730563D01*
X89348087Y-70561671D01*
X89316130Y-70391832D01*
X89282362Y-70340914D01*
X91915235Y-67708042D01*
X92771753Y-68564560D01*
X92904697Y-68655396D01*
X93073589Y-68692033D01*
X93243428Y-68660076D01*
X93387453Y-68564560D01*
X94824294Y-67127719D01*
X94915130Y-66994775D01*
X94951767Y-66825883D01*
X94919810Y-66656044D01*
X94824294Y-66512019D01*
X92237981Y-63925706D01*
X92105037Y-63834870D01*
X91936145Y-63798233D01*
X91766306Y-63830190D01*
X91622281Y-63925706D01*
X90185440Y-65362547D01*
X90094604Y-65495491D01*
X90057967Y-65664383D01*
X90089924Y-65834222D01*
X90185440Y-65978247D01*
X91041958Y-66834765D01*
X88410196Y-69466528D01*
X88369249Y-69438550D01*
X88200357Y-69401913D01*
X88030518Y-69433870D01*
X87886493Y-69529386D01*
X86449652Y-70966227D01*
X86358816Y-71099171D01*
X86322179Y-71268063D01*
X86354136Y-71437902D01*
X86449652Y-71581927D01*
X86716297Y-71848572D01*
X86311200Y-72714034D01*
X86288725Y-72723320D01*
X86084039Y-72927650D01*
X85973126Y-73194756D01*
X85972874Y-73483975D01*
X83863051Y-73483975D01*
X84019126Y-70443403D01*
X85253309Y-70443403D01*
X85253309Y-70667909D01*
X85499778Y-70914377D01*
X85733167Y-71011050D01*
X85985786Y-71011051D01*
X86219175Y-70914378D01*
X86397804Y-70735750D01*
X86824854Y-70308699D01*
X86824854Y-70084192D01*
X86218687Y-69478025D01*
X85253309Y-70443403D01*
X84019126Y-70443403D01*
X84044619Y-69946778D01*
X84542538Y-69443247D01*
X84506056Y-69531321D01*
X84506057Y-69783940D01*
X84602730Y-70017329D01*
X84849198Y-70263798D01*
X85073704Y-70263798D01*
X86039082Y-69298420D01*
X86398292Y-69298420D01*
X87004459Y-69904587D01*
X87228966Y-69904587D01*
X87656017Y-69477537D01*
X87834645Y-69298908D01*
X87931318Y-69065519D01*
X87931317Y-68812900D01*
X87834644Y-68579511D01*
X87588176Y-68333042D01*
X87363670Y-68333042D01*
X86398292Y-69298420D01*
X86039082Y-69298420D01*
X86024940Y-69284278D01*
X86204545Y-69104673D01*
X86218687Y-69118815D01*
X87184065Y-68153437D01*
X87184065Y-67928931D01*
X86937596Y-67682463D01*
X86704207Y-67585790D01*
X86451588Y-67585789D01*
X86329135Y-67636511D01*
X90025237Y-63898745D01*
X93836143Y-61821683D01*
X93832500Y-61840000D01*
X93832500Y-62900000D01*
X93848442Y-62980149D01*
X93854040Y-63061674D01*
X93871744Y-63097294D01*
X93879504Y-63136307D01*
X93924904Y-63204252D01*
X93961275Y-63277431D01*
X95392500Y-65130684D01*
X95392500Y-67245842D01*
X93184637Y-69354170D01*
X90246801Y-71273993D01*
X90118640Y-71145832D01*
X89985696Y-71054996D01*
X89816804Y-71018359D01*
X89646965Y-71050316D01*
X89502940Y-71145832D01*
X88066099Y-72582673D01*
X87975263Y-72715617D01*
X87938626Y-72884509D01*
X87970583Y-73054348D01*
X88066099Y-73198373D01*
X88784520Y-73916794D01*
X88917464Y-74007630D01*
X89039160Y-74034029D01*
X89189350Y-75102922D01*
X88405762Y-75237674D01*
X88405591Y-75236763D01*
X88312073Y-75091433D01*
X88169381Y-74993936D01*
X88000000Y-74959635D01*
X87000000Y-74959635D01*
X86841763Y-74989409D01*
X86696433Y-75082927D01*
X86610281Y-75209014D01*
X86538327Y-75035301D01*
X86359698Y-74856673D01*
X86126309Y-74760000D01*
X85785750Y-74760000D01*
X85627000Y-74918750D01*
X85627000Y-75893000D01*
X85647000Y-75893000D01*
X85647000Y-76147000D01*
X85627000Y-76147000D01*
X85627000Y-77121250D01*
X85785750Y-77280000D01*
X86126309Y-77280000D01*
X86359698Y-77183327D01*
X86538327Y-77004699D01*
X86611058Y-76829110D01*
X86687927Y-76948567D01*
X86830619Y-77046064D01*
X87000000Y-77080365D01*
X88000000Y-77080365D01*
X88158237Y-77050591D01*
X88303567Y-76957073D01*
X88401064Y-76814381D01*
X88435365Y-76645000D01*
X88435365Y-76485711D01*
X89361273Y-76326485D01*
X89778507Y-79295921D01*
X89782022Y-79305987D01*
X89781779Y-79316647D01*
X91620211Y-89801456D01*
X88634326Y-89962449D01*
X79371706Y-89933772D01*
X79105244Y-89823126D01*
X78816025Y-89822874D01*
X78548725Y-89933320D01*
X78344039Y-90137650D01*
X78233126Y-90404756D01*
X78232874Y-90693975D01*
X78343320Y-90961275D01*
X78547650Y-91165961D01*
X78814756Y-91276874D01*
X79103975Y-91277126D01*
X79366239Y-91168761D01*
X88648088Y-91197497D01*
X88665592Y-91194072D01*
X88683246Y-91196604D01*
X92381922Y-90997179D01*
X92418045Y-90987947D01*
X92455323Y-90988796D01*
X92533806Y-90958362D01*
X92615355Y-90937521D01*
X92645194Y-90915169D01*
X92679961Y-90901687D01*
X92740826Y-90843532D01*
X92808189Y-90793071D01*
X92827205Y-90760999D01*
X92854163Y-90735241D01*
X92888136Y-90658231D01*
X92931067Y-90585824D01*
X92936362Y-90548915D01*
X92951411Y-90514802D01*
X92953328Y-90430647D01*
X92965280Y-90347329D01*
X92956048Y-90311206D01*
X92956897Y-90273928D01*
X92423515Y-87231978D01*
X100907627Y-87231978D01*
X101280658Y-87732608D01*
X102704262Y-88334333D01*
X104249772Y-88345466D01*
X105681896Y-87764311D01*
X105729342Y-87732608D01*
X106102373Y-87231978D01*
X103505000Y-84634605D01*
X100907627Y-87231978D01*
X92423515Y-87231978D01*
X91836467Y-83883975D01*
X97002874Y-83883975D01*
X97113320Y-84151275D01*
X97279805Y-84318050D01*
X97300210Y-84447283D01*
X97243126Y-84584756D01*
X97242874Y-84873975D01*
X97353320Y-85141275D01*
X97557650Y-85345961D01*
X97824756Y-85456874D01*
X98113975Y-85457126D01*
X98381275Y-85346680D01*
X98585961Y-85142350D01*
X98696874Y-84875244D01*
X98697126Y-84586025D01*
X98594358Y-84337306D01*
X98599939Y-84332085D01*
X99746912Y-83367412D01*
X99625667Y-83654262D01*
X99614534Y-85199772D01*
X100195689Y-86631896D01*
X100227392Y-86679342D01*
X100728022Y-87052373D01*
X103325395Y-84455000D01*
X103684605Y-84455000D01*
X106281978Y-87052373D01*
X106782608Y-86679342D01*
X107384333Y-85255738D01*
X107395466Y-83710228D01*
X106814311Y-82278104D01*
X106782608Y-82230658D01*
X106281978Y-81857627D01*
X103684605Y-84455000D01*
X103325395Y-84455000D01*
X103311253Y-84440858D01*
X103490858Y-84261253D01*
X103505000Y-84275395D01*
X106102373Y-81678022D01*
X105729342Y-81177392D01*
X104305738Y-80575667D01*
X104036111Y-80573725D01*
X113724591Y-72524978D01*
X113739225Y-72506927D01*
X113758778Y-72494361D01*
X113814640Y-72413903D01*
X113876321Y-72337820D01*
X113882934Y-72315539D01*
X113896188Y-72296450D01*
X117326188Y-64416450D01*
X117340988Y-64348415D01*
X117366924Y-64283798D01*
X117396924Y-64123798D01*
X117396237Y-64061335D01*
X117407417Y-63999878D01*
X117397546Y-63397747D01*
X117446607Y-58021978D01*
X118052627Y-58021978D01*
X118425658Y-58522608D01*
X119849262Y-59124333D01*
X121394772Y-59135466D01*
X122826896Y-58554311D01*
X122874342Y-58522608D01*
X123247373Y-58021978D01*
X120650000Y-55424605D01*
X118052627Y-58021978D01*
X117446607Y-58021978D01*
X117451116Y-57528001D01*
X117873022Y-57842373D01*
X120470395Y-55245000D01*
X120829605Y-55245000D01*
X123426978Y-57842373D01*
X123927608Y-57469342D01*
X124529333Y-56045738D01*
X124540466Y-54500228D01*
X123959311Y-53068104D01*
X123927608Y-53020658D01*
X123426978Y-52647627D01*
X120829605Y-55245000D01*
X120470395Y-55245000D01*
X117873022Y-52647627D01*
X117564943Y-52877184D01*
X117578867Y-52468022D01*
X118052627Y-52468022D01*
X120650000Y-55065395D01*
X123247373Y-52468022D01*
X122874342Y-51967392D01*
X121450738Y-51365667D01*
X119905228Y-51354534D01*
X118473104Y-51935689D01*
X118425658Y-51967392D01*
X118052627Y-52468022D01*
X117578867Y-52468022D01*
X117597143Y-51931003D01*
X117592615Y-51903354D01*
X117596542Y-51875614D01*
X117573278Y-51785282D01*
X117558203Y-51693234D01*
X117543440Y-51669425D01*
X117536452Y-51642291D01*
X116136452Y-48732291D01*
X116128729Y-48722020D01*
X116125017Y-48709719D01*
X115635017Y-47789719D01*
X115631886Y-47785893D01*
X115652793Y-47735544D01*
X115653206Y-47262531D01*
X115472573Y-46825365D01*
X115138394Y-46490603D01*
X114701544Y-46309207D01*
X114228531Y-46308794D01*
X113791365Y-46489427D01*
X113456603Y-46823606D01*
X113275207Y-47260456D01*
X113274794Y-47733469D01*
X113455427Y-48170635D01*
X113789606Y-48505397D01*
X114226456Y-48686793D01*
X114361936Y-48686911D01*
X116046671Y-52102203D01*
X115893001Y-55915134D01*
X115894607Y-55925338D01*
X115892517Y-55935454D01*
X115837652Y-63388017D01*
X115686397Y-63022857D01*
X115444213Y-62953392D01*
X114643605Y-63754000D01*
X115444213Y-64554608D01*
X115597029Y-64510776D01*
X112601030Y-71481392D01*
X103179631Y-79354990D01*
X103202541Y-79299027D01*
X103197812Y-78157200D01*
X102769951Y-77124253D01*
X102374787Y-76874818D01*
X100509605Y-78740000D01*
X100523748Y-78754143D01*
X100344143Y-78933748D01*
X100330000Y-78919605D01*
X98464818Y-80784787D01*
X98714253Y-81179951D01*
X99562616Y-81527246D01*
X97658086Y-83012937D01*
X97586025Y-83012874D01*
X97318725Y-83123320D01*
X97114039Y-83327650D01*
X97003126Y-83594756D01*
X97002874Y-83883975D01*
X91836467Y-83883975D01*
X91000031Y-79113678D01*
X90580855Y-76130416D01*
X91182466Y-76130416D01*
X91226437Y-76206575D01*
X91352746Y-76425349D01*
X91553162Y-76579134D01*
X91797174Y-76644516D01*
X92047631Y-76611542D01*
X93251890Y-75916263D01*
X93309997Y-75699406D01*
X92885372Y-74963934D01*
X91240573Y-75913559D01*
X91182466Y-76130416D01*
X90580855Y-76130416D01*
X90495658Y-75524077D01*
X90495658Y-75524076D01*
X90434679Y-75090091D01*
X90693463Y-75090091D01*
X90726436Y-75340549D01*
X90852746Y-75559323D01*
X90896716Y-75635482D01*
X91113573Y-75693589D01*
X92597343Y-74836934D01*
X93105342Y-74836934D01*
X93529967Y-75572406D01*
X93746824Y-75630513D01*
X94951083Y-74935233D01*
X95104867Y-74734818D01*
X95170251Y-74490807D01*
X95137278Y-74240349D01*
X95010968Y-74021575D01*
X94966998Y-73945416D01*
X94750141Y-73887309D01*
X93105342Y-74836934D01*
X92597343Y-74836934D01*
X92758372Y-74743964D01*
X92333747Y-74008492D01*
X92116890Y-73950385D01*
X90912631Y-74645665D01*
X90758847Y-74846080D01*
X90693463Y-75090091D01*
X90434679Y-75090091D01*
X90264859Y-73881492D01*
X92553717Y-73881492D01*
X92978342Y-74616964D01*
X94623141Y-73667339D01*
X94681248Y-73450482D01*
X94637277Y-73374323D01*
X94510968Y-73155549D01*
X94310552Y-73001764D01*
X94066540Y-72936382D01*
X93816083Y-72969356D01*
X92611824Y-73664635D01*
X92553717Y-73881492D01*
X90264859Y-73881492D01*
X90162685Y-73154329D01*
X90837061Y-72479953D01*
X90927897Y-72347009D01*
X90938711Y-72297158D01*
X93907795Y-70356915D01*
X93948435Y-70317098D01*
X93996456Y-70286589D01*
X96436456Y-67956589D01*
X96440618Y-67950660D01*
X96446638Y-67946638D01*
X96509680Y-67852290D01*
X96574896Y-67759397D01*
X96576472Y-67752329D01*
X96580496Y-67746307D01*
X96602641Y-67634974D01*
X96627335Y-67524236D01*
X96626087Y-67517105D01*
X96627500Y-67510000D01*
X96627500Y-64920000D01*
X96611558Y-64839851D01*
X96605960Y-64758326D01*
X96588256Y-64722706D01*
X96580496Y-64683693D01*
X96535096Y-64615748D01*
X96498725Y-64542569D01*
X95941469Y-63820994D01*
X96125000Y-63857500D01*
X96760000Y-63857500D01*
X96996307Y-63810496D01*
X97196638Y-63676638D01*
X97831639Y-63041638D01*
X97965496Y-62841307D01*
X98012500Y-62605000D01*
X98012500Y-62587500D01*
X98030000Y-62587500D01*
X98266308Y-62540496D01*
X98466639Y-62406639D01*
X98600496Y-62206308D01*
X98647500Y-61970000D01*
X98600496Y-61733693D01*
X98466639Y-61533362D01*
X97831638Y-60898362D01*
X97631307Y-60764504D01*
X97395000Y-60717500D01*
X97158693Y-60764504D01*
X97070623Y-60823351D01*
X97087954Y-60803169D01*
X97226730Y-60556919D01*
X97463975Y-60557126D01*
X97731275Y-60446680D01*
X97935961Y-60242350D01*
X98046874Y-59975244D01*
X98047126Y-59686025D01*
X97936680Y-59418725D01*
X97732350Y-59214039D01*
X97642420Y-59176696D01*
X97640345Y-59173335D01*
X97616586Y-59147797D01*
X97600834Y-59116676D01*
X97572363Y-59092227D01*
X97551514Y-59061025D01*
X97510135Y-59033376D01*
X97476231Y-58996934D01*
X97444503Y-58982431D01*
X97418045Y-58959710D01*
X97382390Y-58948019D01*
X97351183Y-58927167D01*
X97302368Y-58917457D01*
X97257104Y-58896766D01*
X97222244Y-58895508D01*
X97189102Y-58884641D01*
X97171394Y-58885987D01*
X97353941Y-58442812D01*
X97443362Y-58576638D01*
X97643693Y-58710496D01*
X97880000Y-58757500D01*
X98116307Y-58710496D01*
X98299344Y-58588194D01*
X99782151Y-64324540D01*
X99787139Y-64334884D01*
X99788208Y-64346321D01*
X99839291Y-64443040D01*
X99886799Y-64541564D01*
X99895368Y-64549214D01*
X99900731Y-64559368D01*
X101091265Y-66024784D01*
X101040463Y-66605457D01*
X101056332Y-66765687D01*
X101136828Y-66918615D01*
X101270479Y-67028178D01*
X101436227Y-67077110D01*
X101826281Y-67111235D01*
X102654740Y-68879569D01*
X102554170Y-69666057D01*
X102117519Y-68909754D01*
X102012616Y-68787604D01*
X101858961Y-68708502D01*
X101686638Y-68695413D01*
X101522799Y-68750399D01*
X98838121Y-70300399D01*
X98715972Y-70405302D01*
X98636871Y-70558956D01*
X98623781Y-70731279D01*
X98678767Y-70895118D01*
X99178767Y-71761144D01*
X99283670Y-71883294D01*
X99437325Y-71962396D01*
X99609648Y-71975485D01*
X99773487Y-71920499D01*
X102458165Y-70370499D01*
X102464824Y-70364780D01*
X102125111Y-73021457D01*
X100838121Y-73764501D01*
X100715972Y-73869404D01*
X100636871Y-74023058D01*
X100623781Y-74195381D01*
X100678767Y-74359220D01*
X100976852Y-74875519D01*
X100415303Y-74933822D01*
X98744445Y-75003029D01*
X98695783Y-75014821D01*
X98645714Y-75015137D01*
X95725713Y-75615137D01*
X95662959Y-75641595D01*
X95596600Y-75656889D01*
X92196600Y-77186888D01*
X92104149Y-77252778D01*
X92010258Y-77316487D01*
X92006285Y-77322526D01*
X92000395Y-77326724D01*
X91940222Y-77422939D01*
X91877833Y-77517768D01*
X91187834Y-79217768D01*
X91166314Y-79330136D01*
X91142551Y-79442050D01*
X91143698Y-79448229D01*
X91142515Y-79454404D01*
X91165633Y-79566440D01*
X91186509Y-79678943D01*
X92045167Y-81829840D01*
X92043126Y-81834756D01*
X92042874Y-82123975D01*
X92153320Y-82391275D01*
X92357650Y-82595961D01*
X92624756Y-82706874D01*
X92913975Y-82707126D01*
X93181275Y-82596680D01*
X93385961Y-82392350D01*
X93496874Y-82125244D01*
X93497126Y-81836025D01*
X93386680Y-81568725D01*
X93193413Y-81375121D01*
X92425650Y-79451910D01*
X92929090Y-78211552D01*
X93865333Y-77790242D01*
X93121835Y-78219501D01*
X92999686Y-78324404D01*
X92920585Y-78478058D01*
X92907495Y-78650381D01*
X92962481Y-78814220D01*
X93462481Y-79680246D01*
X93567384Y-79802396D01*
X93721039Y-79881498D01*
X93893362Y-79894587D01*
X94057201Y-79839601D01*
X96741879Y-78289601D01*
X96864028Y-78184698D01*
X96865945Y-78180973D01*
X97457459Y-78180973D01*
X97462188Y-79322800D01*
X97890049Y-80355747D01*
X98285213Y-80605182D01*
X100150395Y-78740000D01*
X98285213Y-76874818D01*
X97890049Y-77124253D01*
X97457459Y-78180973D01*
X96865945Y-78180973D01*
X96943129Y-78031044D01*
X96956219Y-77858721D01*
X96901233Y-77694882D01*
X96401233Y-76828856D01*
X96334277Y-76750892D01*
X98845411Y-76234906D01*
X98874423Y-76233704D01*
X98714253Y-76300049D01*
X98464818Y-76695213D01*
X100330000Y-78560395D01*
X102195182Y-76695213D01*
X101945747Y-76300049D01*
X101393349Y-76073914D01*
X102353769Y-75974198D01*
X102467782Y-75938954D01*
X102582136Y-75904025D01*
X110444220Y-71682164D01*
X110486174Y-71674588D01*
X110688843Y-71544297D01*
X110826225Y-71346366D01*
X110841127Y-71277811D01*
X110851608Y-71258111D01*
X110856562Y-71206806D01*
X110877403Y-71110927D01*
X110877757Y-71090927D01*
X110877757Y-71090926D01*
X110917403Y-68850927D01*
X110908518Y-68801722D01*
X110911167Y-68751787D01*
X110887311Y-68684282D01*
X110874588Y-68613826D01*
X110847547Y-68571763D01*
X110830886Y-68524619D01*
X110783015Y-68471383D01*
X110744297Y-68411157D01*
X110703220Y-68382646D01*
X110669784Y-68345463D01*
X110605182Y-68314599D01*
X110546366Y-68273775D01*
X110497502Y-68263153D01*
X110452385Y-68241598D01*
X109311961Y-67951185D01*
X110034254Y-67505515D01*
X110070967Y-67471368D01*
X110114527Y-67446545D01*
X110158350Y-67390095D01*
X110210677Y-67341426D01*
X110231526Y-67295834D01*
X110262274Y-67256226D01*
X110281160Y-67187295D01*
X110310876Y-67122313D01*
X110312691Y-67072213D01*
X110325941Y-67023853D01*
X110488957Y-64734213D01*
X113663392Y-64734213D01*
X113732857Y-64976397D01*
X114256302Y-65163144D01*
X114811368Y-65135362D01*
X115195143Y-64976397D01*
X115264608Y-64734213D01*
X114464000Y-63933605D01*
X113663392Y-64734213D01*
X110488957Y-64734213D01*
X110545941Y-63933853D01*
X110544485Y-63922294D01*
X110547145Y-63910949D01*
X110559522Y-63546302D01*
X113054856Y-63546302D01*
X113082638Y-64101368D01*
X113241603Y-64485143D01*
X113483787Y-64554608D01*
X114284395Y-63754000D01*
X113483787Y-62953392D01*
X113241603Y-63022857D01*
X113054856Y-63546302D01*
X110559522Y-63546302D01*
X110585745Y-62773787D01*
X113663392Y-62773787D01*
X114464000Y-63574395D01*
X115264608Y-62773787D01*
X115195143Y-62531603D01*
X114671698Y-62344856D01*
X114116632Y-62372638D01*
X113732857Y-62531603D01*
X113663392Y-62773787D01*
X110585745Y-62773787D01*
X110748572Y-57977000D01*
X110900635Y-57977000D01*
X110900635Y-61077000D01*
X110930409Y-61235237D01*
X111023927Y-61380567D01*
X111166619Y-61478064D01*
X111336000Y-61512365D01*
X112336000Y-61512365D01*
X112494237Y-61482591D01*
X112639567Y-61389073D01*
X112737064Y-61246381D01*
X112771365Y-61077000D01*
X112771365Y-57977000D01*
X112741591Y-57818763D01*
X112648073Y-57673433D01*
X112505381Y-57575936D01*
X112336000Y-57541635D01*
X111336000Y-57541635D01*
X111177763Y-57571409D01*
X111032433Y-57664927D01*
X110934936Y-57807619D01*
X110900635Y-57977000D01*
X110748572Y-57977000D01*
X110917145Y-53010949D01*
X110914509Y-52994864D01*
X110917399Y-52978825D01*
X110911272Y-52640297D01*
X110976301Y-52705327D01*
X111209690Y-52802000D01*
X111550250Y-52802000D01*
X111709000Y-52643250D01*
X111709000Y-50744000D01*
X111963000Y-50744000D01*
X111963000Y-52643250D01*
X112121750Y-52802000D01*
X112462310Y-52802000D01*
X112695699Y-52705327D01*
X112874327Y-52526698D01*
X112971000Y-52293309D01*
X112971000Y-50902750D01*
X112812250Y-50744000D01*
X111963000Y-50744000D01*
X111709000Y-50744000D01*
X111689000Y-50744000D01*
X111689000Y-50490000D01*
X111709000Y-50490000D01*
X111709000Y-48590750D01*
X111963000Y-48590750D01*
X111963000Y-50490000D01*
X112812250Y-50490000D01*
X112971000Y-50331250D01*
X112971000Y-48940691D01*
X112874327Y-48707302D01*
X112695699Y-48528673D01*
X112462310Y-48432000D01*
X112121750Y-48432000D01*
X111963000Y-48590750D01*
X111709000Y-48590750D01*
X111550250Y-48432000D01*
X111209690Y-48432000D01*
X110976301Y-48528673D01*
X110797673Y-48707302D01*
X110701000Y-48940691D01*
X110701000Y-50017165D01*
X109210692Y-44237431D01*
X109247682Y-44216075D01*
X109369832Y-44111172D01*
X109448933Y-43957518D01*
X109462023Y-43785195D01*
X109407037Y-43621356D01*
X109182037Y-43231644D01*
X109077134Y-43109494D01*
X109006891Y-43073333D01*
X109012023Y-43005773D01*
X108957037Y-42841934D01*
X108657037Y-42322318D01*
X108552134Y-42200168D01*
X108509116Y-42178022D01*
X108512023Y-42139745D01*
X108457037Y-41975906D01*
X108313367Y-41727064D01*
X108351054Y-41586414D01*
X108318080Y-41335957D01*
X108271801Y-41255799D01*
X108054944Y-41197692D01*
X107319472Y-41622317D01*
X107330472Y-41641370D01*
X107110502Y-41768370D01*
X107099502Y-41749317D01*
X106364030Y-42173942D01*
X106305923Y-42390799D01*
X106352203Y-42470957D01*
X106552618Y-42624741D01*
X106693267Y-42662429D01*
X106836937Y-42911272D01*
X106866926Y-42946191D01*
X106550082Y-43112732D01*
X104136163Y-43608743D01*
X103818568Y-41568714D01*
X105942920Y-41568714D01*
X105975894Y-41819171D01*
X106022173Y-41899329D01*
X106239030Y-41957436D01*
X106974502Y-41532811D01*
X106673877Y-41012113D01*
X106457020Y-40954007D01*
X106380861Y-40997977D01*
X106162087Y-41124287D01*
X106008302Y-41324702D01*
X105942920Y-41568714D01*
X103818568Y-41568714D01*
X103799180Y-41444184D01*
X103856874Y-41305244D01*
X103857126Y-41016025D01*
X103803035Y-40885113D01*
X106893847Y-40885113D01*
X107194472Y-41405811D01*
X107929944Y-40981186D01*
X107988051Y-40764329D01*
X107941771Y-40684171D01*
X107741356Y-40530387D01*
X107497345Y-40465003D01*
X107246887Y-40497977D01*
X107028113Y-40624286D01*
X106951954Y-40668257D01*
X106893847Y-40885113D01*
X103803035Y-40885113D01*
X103746680Y-40748725D01*
X103542350Y-40544039D01*
X103275244Y-40433126D01*
X102986025Y-40432874D01*
X102893386Y-40471152D01*
X97337893Y-39181484D01*
X96677052Y-36991397D01*
X101727994Y-36991397D01*
X101727994Y-37215903D01*
X101968806Y-37456715D01*
X102202195Y-37553388D01*
X102454814Y-37553388D01*
X102630403Y-37480657D01*
X102600289Y-37619481D01*
X102632246Y-37789320D01*
X102727762Y-37933345D01*
X103434869Y-38640452D01*
X103458804Y-38656806D01*
X103530706Y-38964255D01*
X103493126Y-39054756D01*
X103492874Y-39343975D01*
X103603320Y-39611275D01*
X103807650Y-39815961D01*
X104074756Y-39926874D01*
X104363975Y-39927126D01*
X104631275Y-39816680D01*
X104835961Y-39612350D01*
X104946874Y-39345244D01*
X104947126Y-39056025D01*
X104836680Y-38788725D01*
X104733900Y-38685766D01*
X104595794Y-38095227D01*
X104934452Y-37756569D01*
X105025288Y-37623625D01*
X105061925Y-37454733D01*
X105029968Y-37284894D01*
X104934452Y-37140869D01*
X104227345Y-36433762D01*
X104094401Y-36342926D01*
X103925509Y-36306289D01*
X103775434Y-36334527D01*
X103847388Y-36160814D01*
X103847388Y-35908195D01*
X103750715Y-35674806D01*
X103509903Y-35433994D01*
X103285397Y-35433994D01*
X102596498Y-36122893D01*
X102610641Y-36137035D01*
X102431035Y-36316641D01*
X102416893Y-36302498D01*
X101727994Y-36991397D01*
X96677052Y-36991397D01*
X96403545Y-36084972D01*
X100986398Y-36084972D01*
X100986398Y-36337591D01*
X101083071Y-36570980D01*
X101323883Y-36811792D01*
X101548389Y-36811792D01*
X102237288Y-36122893D01*
X101636777Y-35522383D01*
X101412271Y-35522383D01*
X101261699Y-35672955D01*
X101083070Y-35851583D01*
X100986398Y-36084972D01*
X96403545Y-36084972D01*
X96111851Y-35118271D01*
X101816383Y-35118271D01*
X101816383Y-35342777D01*
X102416893Y-35943288D01*
X103105792Y-35254389D01*
X103105792Y-35029883D01*
X102864980Y-34789071D01*
X102631591Y-34692398D01*
X102378972Y-34692398D01*
X102145583Y-34789070D01*
X101966955Y-34967699D01*
X101816383Y-35118271D01*
X96111851Y-35118271D01*
X95331872Y-32533359D01*
X95009635Y-29988461D01*
X95969764Y-33111461D01*
X95981766Y-33133715D01*
X95986363Y-33158577D01*
X96038588Y-33239071D01*
X96084135Y-33323522D01*
X96103739Y-33339488D01*
X96117501Y-33360699D01*
X96562879Y-33818278D01*
X96562874Y-33823975D01*
X96673320Y-34091275D01*
X96877650Y-34295961D01*
X97144756Y-34406874D01*
X97433975Y-34407126D01*
X97701275Y-34296680D01*
X97905961Y-34092350D01*
X98016874Y-33825244D01*
X98017126Y-33536025D01*
X97914144Y-33286787D01*
X98464818Y-33286787D01*
X98714253Y-33681951D01*
X99770973Y-34114541D01*
X100912800Y-34109812D01*
X101945747Y-33681951D01*
X102195182Y-33286787D01*
X100330000Y-31421605D01*
X98464818Y-33286787D01*
X97914144Y-33286787D01*
X97906680Y-33268725D01*
X97702350Y-33064039D01*
X97450311Y-32959382D01*
X97106443Y-32606092D01*
X96515203Y-30682973D01*
X97457459Y-30682973D01*
X97462188Y-31824800D01*
X97890049Y-32857747D01*
X98285213Y-33107182D01*
X100150395Y-31242000D01*
X100509605Y-31242000D01*
X102374787Y-33107182D01*
X102769951Y-32857747D01*
X103202541Y-31801027D01*
X103197812Y-30659200D01*
X102769951Y-29626253D01*
X102374787Y-29376818D01*
X100509605Y-31242000D01*
X100150395Y-31242000D01*
X98285213Y-29376818D01*
X97890049Y-29626253D01*
X97457459Y-30682973D01*
X96515203Y-30682973D01*
X96058424Y-29197213D01*
X98464818Y-29197213D01*
X100330000Y-31062395D01*
X102195182Y-29197213D01*
X102080632Y-29015739D01*
X102704262Y-29279333D01*
X104249772Y-29290466D01*
X105681896Y-28709311D01*
X105729342Y-28677608D01*
X106102373Y-28176978D01*
X103505000Y-25579605D01*
X100907627Y-28176978D01*
X101122163Y-28464898D01*
X100889027Y-28369459D01*
X99747200Y-28374188D01*
X98714253Y-28802049D01*
X98464818Y-29197213D01*
X96058424Y-29197213D01*
X95290236Y-26698539D01*
X95250588Y-26625025D01*
X95220176Y-26547250D01*
X95193883Y-26519886D01*
X95175865Y-26486478D01*
X95111105Y-26433736D01*
X95053242Y-26373516D01*
X95018473Y-26358295D01*
X94989047Y-26334329D01*
X94909039Y-26310385D01*
X94832530Y-26276890D01*
X94231298Y-26144772D01*
X99614534Y-26144772D01*
X100195689Y-27576896D01*
X100227392Y-27624342D01*
X100728022Y-27997373D01*
X103325395Y-25400000D01*
X103684605Y-25400000D01*
X106281978Y-27997373D01*
X106782608Y-27624342D01*
X107384333Y-26200738D01*
X107395466Y-24655228D01*
X106814311Y-23223104D01*
X106782608Y-23175658D01*
X106281978Y-22802627D01*
X103684605Y-25400000D01*
X103325395Y-25400000D01*
X100728022Y-22802627D01*
X100227392Y-23175658D01*
X99625667Y-24599262D01*
X99614534Y-26144772D01*
X94231298Y-26144772D01*
X91692531Y-25586890D01*
X91625629Y-25585554D01*
X91560000Y-25572500D01*
X89690000Y-25572500D01*
X89453693Y-25619504D01*
X89253362Y-25753362D01*
X87417018Y-27589706D01*
X87417126Y-27466025D01*
X87306680Y-27198725D01*
X87112918Y-27004626D01*
X86843334Y-26330666D01*
X86797682Y-26260506D01*
X86760852Y-26185340D01*
X86732525Y-26160370D01*
X86711930Y-26128718D01*
X86642908Y-26081372D01*
X86580113Y-26026018D01*
X86544381Y-26013787D01*
X86513245Y-25992429D01*
X86431363Y-25975101D01*
X86352161Y-25947990D01*
X82702160Y-25457990D01*
X82650990Y-25461213D01*
X82600416Y-25452811D01*
X74921536Y-25696460D01*
X74856832Y-25711478D01*
X74790492Y-25714802D01*
X74740614Y-25738453D01*
X74686838Y-25750934D01*
X74632805Y-25789571D01*
X74572789Y-25818029D01*
X72653072Y-27244704D01*
X73094333Y-26200738D01*
X73105466Y-24655228D01*
X72524311Y-23223104D01*
X72492608Y-23175658D01*
X71991978Y-22802627D01*
X69394605Y-25400000D01*
X69408748Y-25414143D01*
X69229143Y-25593748D01*
X69215000Y-25579605D01*
X66617627Y-28176978D01*
X66990658Y-28677608D01*
X68414262Y-29279333D01*
X69722794Y-29288759D01*
X64679313Y-34197490D01*
X64620731Y-34282646D01*
X64557431Y-34364366D01*
X62437431Y-38614366D01*
X62413781Y-38701047D01*
X62381511Y-38784891D01*
X62382308Y-38816399D01*
X62374012Y-38846806D01*
X62385333Y-38935931D01*
X62387606Y-39025751D01*
X63027607Y-41865751D01*
X63044177Y-41903057D01*
X63050539Y-41943379D01*
X63092654Y-42012198D01*
X63125410Y-42085944D01*
X63154997Y-42114071D01*
X63176304Y-42148887D01*
X63241552Y-42196353D01*
X63300034Y-42251947D01*
X63338131Y-42266610D01*
X63371141Y-42290623D01*
X64200239Y-42673446D01*
X64059293Y-42917571D01*
X63918644Y-42955259D01*
X63718229Y-43109043D01*
X63671949Y-43189201D01*
X63730056Y-43406058D01*
X64465528Y-43830683D01*
X64476528Y-43811630D01*
X64696498Y-43938630D01*
X64685498Y-43957683D01*
X64702819Y-43967683D01*
X64577819Y-44184189D01*
X64560498Y-44174189D01*
X64259873Y-44694887D01*
X64317980Y-44911743D01*
X64394139Y-44955714D01*
X64612913Y-45082023D01*
X64863371Y-45114997D01*
X65107382Y-45049613D01*
X65307797Y-44895829D01*
X65354077Y-44815671D01*
X65296703Y-44601549D01*
X65408152Y-44665894D01*
X65471843Y-45105662D01*
X64279209Y-45635721D01*
X64244450Y-45660252D01*
X64204615Y-45675185D01*
X62704615Y-46605185D01*
X62652571Y-46653799D01*
X62593362Y-46693362D01*
X62565370Y-46735254D01*
X62528545Y-46769653D01*
X62499068Y-46834482D01*
X62459504Y-46893693D01*
X62449674Y-46943115D01*
X62428818Y-46988982D01*
X62426393Y-47060154D01*
X62412500Y-47130000D01*
X62412500Y-55463387D01*
X62360955Y-57867611D01*
X62276327Y-57663302D01*
X62097699Y-57484673D01*
X61864310Y-57388000D01*
X61523750Y-57388000D01*
X61365000Y-57546750D01*
X61111000Y-57546750D01*
X60952250Y-57388000D01*
X60611690Y-57388000D01*
X60378301Y-57484673D01*
X60199673Y-57663302D01*
X60103000Y-57896691D01*
X55177086Y-57896691D01*
X52705000Y-55424605D01*
X50107627Y-58021978D01*
X49405490Y-58021978D01*
X48232194Y-55989772D01*
X48814534Y-55989772D01*
X49395689Y-57421896D01*
X49427392Y-57469342D01*
X49928022Y-57842373D01*
X52525395Y-55245000D01*
X52884605Y-55245000D01*
X55481978Y-57842373D01*
X55982608Y-57469342D01*
X56584333Y-56045738D01*
X56595466Y-54500228D01*
X56014311Y-53068104D01*
X55982608Y-53020658D01*
X55481978Y-52647627D01*
X52884605Y-55245000D01*
X52525395Y-55245000D01*
X49928022Y-52647627D01*
X49427392Y-53020658D01*
X48825667Y-54444262D01*
X48814534Y-55989772D01*
X48232194Y-55989772D01*
X47716447Y-55096474D01*
X49233985Y-52468022D01*
X50107627Y-52468022D01*
X52705000Y-55065395D01*
X55302373Y-52468022D01*
X54929342Y-51967392D01*
X53505738Y-51365667D01*
X51960228Y-51354534D01*
X50528104Y-51935689D01*
X50480658Y-51967392D01*
X50107627Y-52468022D01*
X49233985Y-52468022D01*
X51171008Y-49113000D01*
X60302635Y-49113000D01*
X60302635Y-52213000D01*
X60332409Y-52371237D01*
X60425927Y-52516567D01*
X60568619Y-52614064D01*
X60738000Y-52648365D01*
X61738000Y-52648365D01*
X61896237Y-52618591D01*
X62041567Y-52525073D01*
X62139064Y-52382381D01*
X62173365Y-52213000D01*
X62173365Y-49113000D01*
X62143591Y-48954763D01*
X62050073Y-48809433D01*
X61907381Y-48711936D01*
X61738000Y-48677635D01*
X60738000Y-48677635D01*
X60579763Y-48707409D01*
X60434433Y-48800927D01*
X60336936Y-48943619D01*
X60302635Y-49113000D01*
X51171008Y-49113000D01*
X51967481Y-47733469D01*
X57574794Y-47733469D01*
X57755427Y-48170635D01*
X58089606Y-48505397D01*
X58526456Y-48686793D01*
X58999469Y-48687206D01*
X59436635Y-48506573D01*
X59771397Y-48172394D01*
X59952793Y-47735544D01*
X59953206Y-47262531D01*
X59772573Y-46825365D01*
X59438394Y-46490603D01*
X59001544Y-46309207D01*
X58528531Y-46308794D01*
X58091365Y-46489427D01*
X57756603Y-46823606D01*
X57575207Y-47260456D01*
X57574794Y-47733469D01*
X51967481Y-47733469D01*
X54116485Y-44011286D01*
X63308946Y-44011286D01*
X63374328Y-44255298D01*
X63528113Y-44455713D01*
X63746887Y-44582023D01*
X63823046Y-44625993D01*
X64039903Y-44567887D01*
X64340528Y-44047189D01*
X63605056Y-43622564D01*
X63388199Y-43680671D01*
X63341920Y-43760829D01*
X63308946Y-44011286D01*
X54116485Y-44011286D01*
X65367466Y-24524029D01*
X65335667Y-24599262D01*
X65324534Y-26144772D01*
X65905689Y-27576896D01*
X65937392Y-27624342D01*
X66438022Y-27997373D01*
X69035395Y-25400000D01*
X69021253Y-25385858D01*
X69200858Y-25206253D01*
X69215000Y-25220395D01*
X71812373Y-22623022D01*
X100907627Y-22623022D01*
X103505000Y-25220395D01*
X106102373Y-22623022D01*
X105729342Y-22122392D01*
X104305738Y-21520667D01*
X102760228Y-21509534D01*
X101328104Y-22090689D01*
X101280658Y-22122392D01*
X100907627Y-22623022D01*
X71812373Y-22623022D01*
X71439342Y-22122392D01*
X70015738Y-21520667D01*
X68470228Y-21509534D01*
X67038104Y-22090689D01*
X66990658Y-22122392D01*
X66617628Y-22623020D01*
X66520875Y-22526267D01*
X67162376Y-21415156D01*
X106054208Y-21415157D01*
G36*
X96258826Y-39880525D02*
X96297148Y-39952475D01*
X96325935Y-40028734D01*
X96353293Y-40057887D01*
X96372090Y-40093179D01*
X96435026Y-40144983D01*
X96490808Y-40204426D01*
X96527248Y-40220894D01*
X96558113Y-40246300D01*
X96636076Y-40270076D01*
X96710365Y-40303648D01*
X102584020Y-41667175D01*
X103015546Y-44439022D01*
X103830820Y-49675816D01*
X103773126Y-49814756D01*
X103772874Y-50103975D01*
X103847716Y-50285106D01*
X102884875Y-48479453D01*
X102850443Y-48437413D01*
X102825893Y-48388929D01*
X102774839Y-48345103D01*
X102732211Y-48293055D01*
X102684312Y-48267392D01*
X102643077Y-48231994D01*
X96699849Y-44883975D01*
X98622874Y-44883975D01*
X98733320Y-45151275D01*
X98937650Y-45355961D01*
X99204756Y-45466874D01*
X99493975Y-45467126D01*
X99685332Y-45388059D01*
X101623714Y-45551966D01*
X101657650Y-45585961D01*
X101924756Y-45696874D01*
X102213975Y-45697126D01*
X102481275Y-45586680D01*
X102685961Y-45382350D01*
X102796874Y-45115244D01*
X102797126Y-44826025D01*
X102686680Y-44558725D01*
X102482350Y-44354039D01*
X102215244Y-44243126D01*
X101926025Y-44242874D01*
X101734668Y-44321941D01*
X99796286Y-44158034D01*
X99762350Y-44124039D01*
X99495244Y-44013126D01*
X99206025Y-44012874D01*
X98938725Y-44123320D01*
X98734039Y-44327650D01*
X98623126Y-44594756D01*
X98622874Y-44883975D01*
X96699849Y-44883975D01*
X96643077Y-44851994D01*
X96570695Y-44828274D01*
X96502533Y-44794274D01*
X94778873Y-44324006D01*
X94730188Y-44079252D01*
X94529240Y-43778512D01*
X94228500Y-43577564D01*
X93873752Y-43507000D01*
X91798248Y-43507000D01*
X91443500Y-43577564D01*
X91142760Y-43778512D01*
X90941812Y-44079252D01*
X90871248Y-44434000D01*
X90941812Y-44788748D01*
X91142760Y-45089488D01*
X91443500Y-45290436D01*
X91798248Y-45361000D01*
X93873752Y-45361000D01*
X93881805Y-45359398D01*
X96063299Y-45954577D01*
X94605023Y-45891929D01*
X94529240Y-45778512D01*
X94228500Y-45577564D01*
X93873752Y-45507000D01*
X91798248Y-45507000D01*
X91443500Y-45577564D01*
X91142760Y-45778512D01*
X90941812Y-46079252D01*
X90871248Y-46434000D01*
X90941812Y-46788748D01*
X91142760Y-47089488D01*
X91443500Y-47290436D01*
X91798248Y-47361000D01*
X93873752Y-47361000D01*
X94228500Y-47290436D01*
X94479567Y-47122678D01*
X96537269Y-47211079D01*
X97462723Y-47690041D01*
X97205244Y-47583126D01*
X96916025Y-47582874D01*
X96648725Y-47693320D01*
X96637385Y-47704640D01*
X94512058Y-47767032D01*
X94228500Y-47577564D01*
X93873752Y-47507000D01*
X91798248Y-47507000D01*
X91443500Y-47577564D01*
X91176880Y-47755714D01*
X87437058Y-47619617D01*
X87644898Y-47533527D01*
X87823527Y-47354899D01*
X87920200Y-47121510D01*
X87920200Y-45045750D01*
X87761450Y-44887000D01*
X85177000Y-44887000D01*
X85177000Y-44907000D01*
X84923000Y-44907000D01*
X84923000Y-44887000D01*
X82338550Y-44887000D01*
X82179800Y-45045750D01*
X82179800Y-47121510D01*
X82276473Y-47354899D01*
X82356298Y-47434723D01*
X81335876Y-47397589D01*
X81322350Y-47384039D01*
X81055244Y-47273126D01*
X80766025Y-47272874D01*
X80498725Y-47383320D01*
X80294039Y-47587650D01*
X80183126Y-47854756D01*
X80182874Y-48143975D01*
X80293320Y-48411275D01*
X80497650Y-48615961D01*
X80764756Y-48726874D01*
X81053975Y-48727126D01*
X81285251Y-48631565D01*
X91074826Y-48987818D01*
X91142760Y-49089488D01*
X91443500Y-49290436D01*
X91798248Y-49361000D01*
X93873752Y-49361000D01*
X94228500Y-49290436D01*
X94529240Y-49089488D01*
X94588827Y-49000310D01*
X96678937Y-48938952D01*
X96914756Y-49036874D01*
X97203975Y-49037126D01*
X97471275Y-48926680D01*
X97675961Y-48722350D01*
X97786874Y-48455244D01*
X97787126Y-48166025D01*
X97676680Y-47898725D01*
X97474384Y-47696077D01*
X98408906Y-48179732D01*
X98846616Y-51576366D01*
X97970760Y-53702707D01*
X97822350Y-53554039D01*
X97681754Y-53495658D01*
X95618360Y-50675385D01*
X95553195Y-50615547D01*
X95494708Y-50549184D01*
X95465145Y-50534695D01*
X95440893Y-50512426D01*
X95357796Y-50482084D01*
X95278358Y-50443151D01*
X94776063Y-50309880D01*
X94730188Y-50079252D01*
X94529240Y-49778512D01*
X94228500Y-49577564D01*
X93873752Y-49507000D01*
X91798248Y-49507000D01*
X91443500Y-49577564D01*
X91142760Y-49778512D01*
X90941812Y-50079252D01*
X90871248Y-50434000D01*
X90941812Y-50788748D01*
X91142760Y-51089488D01*
X91443500Y-51290436D01*
X91623381Y-51326217D01*
X91284322Y-51433998D01*
X90943632Y-51721237D01*
X90741881Y-52132126D01*
X90868046Y-52307000D01*
X92709000Y-52307000D01*
X92709000Y-52287000D01*
X92963000Y-52287000D01*
X92963000Y-52307000D01*
X94803954Y-52307000D01*
X94930119Y-52132126D01*
X94728368Y-51721237D01*
X94475192Y-51507782D01*
X94750578Y-51580849D01*
X96682954Y-54222044D01*
X96682874Y-54313975D01*
X96793320Y-54581275D01*
X96997650Y-54785961D01*
X97264756Y-54896874D01*
X97478796Y-54897060D01*
X95602371Y-59452512D01*
X89354486Y-62857803D01*
X89285422Y-62915429D01*
X89210921Y-62965816D01*
X83000921Y-69245816D01*
X82944046Y-69331977D01*
X82882368Y-69414758D01*
X82878002Y-69432029D01*
X82868189Y-69446894D01*
X82848617Y-69548253D01*
X82823312Y-69648345D01*
X82562349Y-74732287D01*
X82405223Y-74958317D01*
X82362703Y-74869795D01*
X82233165Y-74755399D01*
X79548487Y-73205399D01*
X79396562Y-73152066D01*
X79223943Y-73160389D01*
X79068163Y-73235215D01*
X78953767Y-73364754D01*
X78453767Y-74230780D01*
X78400434Y-74382703D01*
X78408757Y-74555322D01*
X78483583Y-74711103D01*
X78613121Y-74825499D01*
X81297799Y-76375499D01*
X81396076Y-76409999D01*
X80426622Y-77804583D01*
X79357635Y-77714013D01*
X77548487Y-76669501D01*
X77396562Y-76616168D01*
X77223943Y-76624491D01*
X77068163Y-76699317D01*
X76953767Y-76828856D01*
X76878409Y-76959380D01*
X76102142Y-74334859D01*
X76047938Y-74231732D01*
X75995175Y-74128016D01*
X75991994Y-74125295D01*
X75990045Y-74121588D01*
X75900571Y-74047113D01*
X75812065Y-73971425D01*
X71622065Y-71621425D01*
X71510242Y-71585013D01*
X71398718Y-71547538D01*
X69040204Y-71244406D01*
X72328717Y-71244406D01*
X72386824Y-71461263D01*
X73591083Y-72156542D01*
X73841540Y-72189516D01*
X74085552Y-72124134D01*
X74285968Y-71970349D01*
X74412277Y-71751575D01*
X74456248Y-71675416D01*
X74398141Y-71458559D01*
X72753342Y-70508934D01*
X72328717Y-71244406D01*
X69040204Y-71244406D01*
X68208718Y-71137538D01*
X68205750Y-71137742D01*
X68202919Y-71136820D01*
X66425006Y-70925393D01*
X66209261Y-70465680D01*
X66318644Y-70549613D01*
X66562655Y-70614997D01*
X66813113Y-70582023D01*
X67031887Y-70455714D01*
X67108046Y-70411743D01*
X67166153Y-70194887D01*
X66865528Y-69674189D01*
X66848207Y-69684189D01*
X66769110Y-69547189D01*
X67085498Y-69547189D01*
X67386123Y-70067887D01*
X67602980Y-70125993D01*
X67679139Y-70082023D01*
X67759186Y-70035807D01*
X70468463Y-70035807D01*
X70533847Y-70279818D01*
X70687631Y-70480233D01*
X71891890Y-71175513D01*
X72108747Y-71117406D01*
X72533372Y-70381934D01*
X72372344Y-70288964D01*
X72880342Y-70288964D01*
X74525141Y-71238589D01*
X74741998Y-71180482D01*
X74785968Y-71104323D01*
X74912278Y-70885549D01*
X74945251Y-70635091D01*
X74879867Y-70391080D01*
X74726083Y-70190665D01*
X73521824Y-69495385D01*
X73304967Y-69553492D01*
X72880342Y-70288964D01*
X72372344Y-70288964D01*
X70888573Y-69432309D01*
X70671716Y-69490416D01*
X70627746Y-69566575D01*
X70501436Y-69785349D01*
X70468463Y-70035807D01*
X67759186Y-70035807D01*
X67897913Y-69955713D01*
X68051698Y-69755298D01*
X68117080Y-69511286D01*
X68084106Y-69260829D01*
X68037827Y-69180671D01*
X67820970Y-69122564D01*
X67085498Y-69547189D01*
X66769110Y-69547189D01*
X66723207Y-69467683D01*
X66740528Y-69457683D01*
X66729528Y-69438630D01*
X66949498Y-69311630D01*
X66960498Y-69330683D01*
X67541083Y-68995482D01*
X70957466Y-68995482D01*
X71015573Y-69212339D01*
X72660372Y-70161964D01*
X73084997Y-69426492D01*
X73026890Y-69209635D01*
X71822631Y-68514356D01*
X71572174Y-68481382D01*
X71328162Y-68546764D01*
X71127746Y-68700549D01*
X71001437Y-68919323D01*
X70957466Y-68995482D01*
X67541083Y-68995482D01*
X67695970Y-68906058D01*
X67754077Y-68689201D01*
X67707797Y-68609043D01*
X67507382Y-68455259D01*
X67366733Y-68417571D01*
X67223063Y-68168728D01*
X67118160Y-68046579D01*
X67111977Y-68043396D01*
X67337167Y-67883724D01*
X67343635Y-67876887D01*
X67352107Y-67872790D01*
X67426190Y-67789622D01*
X67502746Y-67708699D01*
X67506105Y-67699908D01*
X67512365Y-67692880D01*
X67548989Y-67587671D01*
X67588741Y-67483632D01*
X67588480Y-67474226D01*
X67591575Y-67465336D01*
X67751653Y-66318111D01*
X67775477Y-66349983D01*
X67833721Y-66436998D01*
X67847274Y-66446038D01*
X67857028Y-66459087D01*
X67947047Y-66512585D01*
X68034163Y-66570690D01*
X70654635Y-67653598D01*
X70654635Y-67960000D01*
X70684409Y-68118237D01*
X70777927Y-68263567D01*
X70920619Y-68361064D01*
X71090000Y-68395365D01*
X71790000Y-68395365D01*
X71948237Y-68365591D01*
X72093567Y-68272073D01*
X72191064Y-68129381D01*
X72225365Y-67960000D01*
X72225365Y-66660000D01*
X72195591Y-66501763D01*
X72102073Y-66356433D01*
X71959381Y-66258936D01*
X71790000Y-66224635D01*
X71090000Y-66224635D01*
X70931763Y-66254409D01*
X70786433Y-66347927D01*
X70773732Y-66366516D01*
X68922184Y-65601365D01*
X69250000Y-65601365D01*
X69408237Y-65571591D01*
X69553567Y-65478073D01*
X69651064Y-65335381D01*
X69685365Y-65166000D01*
X69685365Y-64371809D01*
X70043270Y-63724597D01*
X70014635Y-63866000D01*
X70014635Y-65166000D01*
X70044409Y-65324237D01*
X70137927Y-65469567D01*
X70280619Y-65567064D01*
X70450000Y-65601365D01*
X71150000Y-65601365D01*
X71308237Y-65571591D01*
X71453567Y-65478073D01*
X71551064Y-65335381D01*
X71585365Y-65166000D01*
X71585365Y-64995248D01*
X72709865Y-64781458D01*
X72716409Y-64816237D01*
X72809927Y-64961567D01*
X72952619Y-65059064D01*
X73122000Y-65093365D01*
X73822000Y-65093365D01*
X73980237Y-65063591D01*
X74008569Y-65045360D01*
X73282861Y-66224635D01*
X72990000Y-66224635D01*
X72831763Y-66254409D01*
X72686433Y-66347927D01*
X72588936Y-66490619D01*
X72554635Y-66660000D01*
X72554635Y-67960000D01*
X72584409Y-68118237D01*
X72677927Y-68263567D01*
X72820619Y-68361064D01*
X72990000Y-68395365D01*
X73690000Y-68395365D01*
X73848237Y-68365591D01*
X73993567Y-68272073D01*
X74091064Y-68129381D01*
X74125365Y-67960000D01*
X74125365Y-67211998D01*
X75178657Y-65500399D01*
X75665151Y-67107266D01*
X75405548Y-67366869D01*
X75314712Y-67499813D01*
X75278075Y-67668705D01*
X75310032Y-67838544D01*
X75405548Y-67982569D01*
X76289431Y-68866452D01*
X76422375Y-68957288D01*
X76591267Y-68993925D01*
X76761106Y-68961968D01*
X76905131Y-68866452D01*
X77612238Y-68159345D01*
X77703074Y-68026401D01*
X77739711Y-67857509D01*
X77707754Y-67687670D01*
X77612238Y-67543645D01*
X76859831Y-66791238D01*
X76769327Y-66492305D01*
X76819762Y-66568355D01*
X77703645Y-67452238D01*
X77836589Y-67543074D01*
X78005481Y-67579711D01*
X78175320Y-67547754D01*
X78319345Y-67452238D01*
X79026452Y-66745131D01*
X79117288Y-66612187D01*
X79153925Y-66443295D01*
X79121968Y-66273456D01*
X79026452Y-66129431D01*
X78414967Y-65517946D01*
X78140569Y-63810841D01*
X78196874Y-63675244D01*
X78197126Y-63386025D01*
X78086680Y-63118725D01*
X77903319Y-62935045D01*
X77676098Y-62342000D01*
X78924635Y-62342000D01*
X78924635Y-63642000D01*
X78954409Y-63800237D01*
X79047927Y-63945567D01*
X79190619Y-64043064D01*
X79360000Y-64077365D01*
X80660000Y-64077365D01*
X80818237Y-64047591D01*
X80963567Y-63954073D01*
X81006651Y-63891016D01*
X83090590Y-63891016D01*
X83146271Y-64121611D01*
X83629078Y-64289622D01*
X84139428Y-64260083D01*
X84473729Y-64121611D01*
X84529410Y-63891016D01*
X83810000Y-63171605D01*
X83090590Y-63891016D01*
X81006651Y-63891016D01*
X81061064Y-63811381D01*
X81095365Y-63642000D01*
X81095365Y-62811078D01*
X82512378Y-62811078D01*
X82541917Y-63321428D01*
X82680389Y-63655729D01*
X82910984Y-63711410D01*
X83630395Y-62992000D01*
X83989605Y-62992000D01*
X84709016Y-63711410D01*
X84939611Y-63655729D01*
X85107622Y-63172922D01*
X85078083Y-62662572D01*
X84939611Y-62328271D01*
X84709016Y-62272590D01*
X83989605Y-62992000D01*
X83630395Y-62992000D01*
X82910984Y-62272590D01*
X82680389Y-62328271D01*
X82512378Y-62811078D01*
X81095365Y-62811078D01*
X81095365Y-62342000D01*
X81065591Y-62183763D01*
X81007176Y-62092984D01*
X83090590Y-62092984D01*
X83810000Y-62812395D01*
X84529410Y-62092984D01*
X84473729Y-61862389D01*
X83990922Y-61694378D01*
X83480572Y-61723917D01*
X83146271Y-61862389D01*
X83090590Y-62092984D01*
X81007176Y-62092984D01*
X80972073Y-62038433D01*
X80829381Y-61940936D01*
X80660000Y-61906635D01*
X79360000Y-61906635D01*
X79201763Y-61936409D01*
X79056433Y-62029927D01*
X78958936Y-62172619D01*
X78924635Y-62342000D01*
X77676098Y-62342000D01*
X77173365Y-61029877D01*
X77173365Y-60056000D01*
X77143591Y-59897763D01*
X77050073Y-59752433D01*
X76907381Y-59654936D01*
X76738000Y-59620635D01*
X76038000Y-59620635D01*
X75879763Y-59650409D01*
X75734433Y-59743927D01*
X75636936Y-59886619D01*
X75602635Y-60056000D01*
X75602635Y-61356000D01*
X75632409Y-61514237D01*
X75725927Y-61659567D01*
X75868619Y-61757064D01*
X76038000Y-61791365D01*
X76142578Y-61791365D01*
X76748302Y-63372292D01*
X76743126Y-63384756D01*
X76742874Y-63673975D01*
X76853320Y-63941275D01*
X76921691Y-64009765D01*
X77176627Y-65595790D01*
X76819762Y-65952655D01*
X76728926Y-66085599D01*
X76694392Y-66244798D01*
X76157365Y-64471023D01*
X76157365Y-63358000D01*
X76127591Y-63199763D01*
X76034073Y-63054433D01*
X75891381Y-62956936D01*
X75722000Y-62922635D01*
X75022000Y-62922635D01*
X74863763Y-62952409D01*
X74718433Y-63045927D01*
X74620936Y-63188619D01*
X74586635Y-63358000D01*
X74586635Y-64106002D01*
X74257365Y-64641066D01*
X74257365Y-63358000D01*
X74227591Y-63199763D01*
X74134073Y-63054433D01*
X73991381Y-62956936D01*
X73822000Y-62922635D01*
X73122000Y-62922635D01*
X72963763Y-62952409D01*
X72818433Y-63045927D01*
X72720936Y-63188619D01*
X72686635Y-63358000D01*
X72686635Y-63528752D01*
X71562135Y-63742542D01*
X71555591Y-63707763D01*
X71484735Y-63597651D01*
X71515186Y-63171744D01*
X71638237Y-63148591D01*
X71783567Y-63055073D01*
X71881064Y-62912381D01*
X71915365Y-62743000D01*
X71915365Y-62093000D01*
X71885591Y-61934763D01*
X71792073Y-61789433D01*
X71649381Y-61691936D01*
X71480000Y-61657635D01*
X70477500Y-61657635D01*
X70477500Y-61530000D01*
X70467812Y-61481296D01*
X70469621Y-61431674D01*
X70444894Y-61278365D01*
X70925919Y-61278365D01*
X71213651Y-61499559D01*
X71314737Y-61549522D01*
X71414501Y-61602036D01*
X71422470Y-61602770D01*
X71429645Y-61606316D01*
X71542131Y-61613789D01*
X71654422Y-61624130D01*
X73712465Y-61408241D01*
X73732409Y-61514237D01*
X73825927Y-61659567D01*
X73968619Y-61757064D01*
X74138000Y-61791365D01*
X74838000Y-61791365D01*
X74996237Y-61761591D01*
X75141567Y-61668073D01*
X75239064Y-61525381D01*
X75273365Y-61356000D01*
X75273365Y-60056000D01*
X75243591Y-59897763D01*
X75150073Y-59752433D01*
X75007381Y-59654936D01*
X74838000Y-59620635D01*
X74138000Y-59620635D01*
X73979763Y-59650409D01*
X73834433Y-59743927D01*
X73736936Y-59886619D01*
X73702635Y-60056000D01*
X73702635Y-60167497D01*
X72792126Y-60263009D01*
X72836874Y-60155244D01*
X72837126Y-59866025D01*
X72801656Y-59780180D01*
X72834049Y-59647365D01*
X73040000Y-59647365D01*
X73198237Y-59617591D01*
X73343567Y-59524073D01*
X73441064Y-59381381D01*
X73475365Y-59212000D01*
X73475365Y-58512000D01*
X73445591Y-58353763D01*
X73352073Y-58208433D01*
X73209381Y-58110936D01*
X73040000Y-58076635D01*
X72168979Y-58076635D01*
X72488420Y-57747365D01*
X73040000Y-57747365D01*
X73198237Y-57717591D01*
X73343567Y-57624073D01*
X73441064Y-57481381D01*
X73475365Y-57312000D01*
X73475365Y-56612000D01*
X73445591Y-56453763D01*
X73352073Y-56308433D01*
X73209381Y-56210936D01*
X73144498Y-56197797D01*
X73608971Y-53432278D01*
X73607424Y-53380654D01*
X73617500Y-53330000D01*
X73617500Y-53130365D01*
X73804392Y-53130365D01*
X74301618Y-54301347D01*
X74335772Y-54351495D01*
X74359455Y-54407345D01*
X74402921Y-54450091D01*
X74437243Y-54500486D01*
X74487982Y-54533742D01*
X74531240Y-54576284D01*
X74587767Y-54599146D01*
X74638752Y-54632564D01*
X74698353Y-54643872D01*
X74754600Y-54666621D01*
X74923927Y-54698833D01*
X74941812Y-54788748D01*
X75142760Y-55089488D01*
X75443500Y-55290436D01*
X75798248Y-55361000D01*
X76286411Y-55361000D01*
X76452234Y-57567979D01*
X76388936Y-57660619D01*
X76354635Y-57830000D01*
X76354635Y-59130000D01*
X76384409Y-59288237D01*
X76477927Y-59433567D01*
X76620619Y-59531064D01*
X76790000Y-59565365D01*
X77490000Y-59565365D01*
X77648237Y-59535591D01*
X77793567Y-59442073D01*
X77891064Y-59299381D01*
X77925365Y-59130000D01*
X77925365Y-57830000D01*
X78254635Y-57830000D01*
X78254635Y-59130000D01*
X78284409Y-59288237D01*
X78377927Y-59433567D01*
X78520619Y-59531064D01*
X78690000Y-59565365D01*
X79390000Y-59565365D01*
X79548237Y-59535591D01*
X79693567Y-59442073D01*
X79791064Y-59299381D01*
X79825365Y-59130000D01*
X79825365Y-59037947D01*
X81639963Y-58895988D01*
X81834756Y-58976874D01*
X82123975Y-58977126D01*
X82391275Y-58866680D01*
X82595961Y-58662350D01*
X82706874Y-58395244D01*
X82707126Y-58106025D01*
X82596680Y-57838725D01*
X82392350Y-57634039D01*
X82125244Y-57523126D01*
X81836025Y-57522874D01*
X81568725Y-57633320D01*
X81536696Y-57665294D01*
X79819649Y-57799620D01*
X79795591Y-57671763D01*
X79702073Y-57526433D01*
X79559381Y-57428936D01*
X79390000Y-57394635D01*
X78690000Y-57394635D01*
X78531763Y-57424409D01*
X78386433Y-57517927D01*
X78288936Y-57660619D01*
X78254635Y-57830000D01*
X77925365Y-57830000D01*
X77895591Y-57671763D01*
X77802073Y-57526433D01*
X77681398Y-57443979D01*
X77524891Y-55361000D01*
X77873752Y-55361000D01*
X78228500Y-55290436D01*
X78529240Y-55089488D01*
X78730188Y-54788748D01*
X78800752Y-54434000D01*
X78793243Y-54396248D01*
X78909000Y-54396248D01*
X78909000Y-56471752D01*
X78979564Y-56826500D01*
X79180512Y-57127240D01*
X79481252Y-57328188D01*
X79836000Y-57398752D01*
X80190748Y-57328188D01*
X80491488Y-57127240D01*
X80692436Y-56826500D01*
X80763000Y-56471752D01*
X80763000Y-54396248D01*
X80909000Y-54396248D01*
X80909000Y-56471752D01*
X80979564Y-56826500D01*
X81180512Y-57127240D01*
X81481252Y-57328188D01*
X81836000Y-57398752D01*
X82190748Y-57328188D01*
X82491488Y-57127240D01*
X82692436Y-56826500D01*
X82763000Y-56471752D01*
X82763000Y-54396248D01*
X82909000Y-54396248D01*
X82909000Y-56471752D01*
X82979564Y-56826500D01*
X83180512Y-57127240D01*
X83481252Y-57328188D01*
X83836000Y-57398752D01*
X84190748Y-57328188D01*
X84491488Y-57127240D01*
X84692436Y-56826500D01*
X84763000Y-56471752D01*
X84763000Y-54396248D01*
X84909000Y-54396248D01*
X84909000Y-56471752D01*
X84979564Y-56826500D01*
X85180512Y-57127240D01*
X85481252Y-57328188D01*
X85836000Y-57398752D01*
X86190748Y-57328188D01*
X86491488Y-57127240D01*
X86692436Y-56826500D01*
X86763000Y-56471752D01*
X86763000Y-54396248D01*
X86909000Y-54396248D01*
X86909000Y-56471752D01*
X86979564Y-56826500D01*
X87180512Y-57127240D01*
X87481252Y-57328188D01*
X87836000Y-57398752D01*
X88190748Y-57328188D01*
X88491488Y-57127240D01*
X88692436Y-56826500D01*
X88763000Y-56471752D01*
X88763000Y-54396248D01*
X88909000Y-54396248D01*
X88909000Y-56471752D01*
X88979564Y-56826500D01*
X89180512Y-57127240D01*
X89481252Y-57328188D01*
X89836000Y-57398752D01*
X90190748Y-57328188D01*
X90491488Y-57127240D01*
X90692436Y-56826500D01*
X90763000Y-56471752D01*
X90763000Y-54778885D01*
X90943632Y-55146763D01*
X91284322Y-55434002D01*
X91709000Y-55569000D01*
X92709000Y-55569000D01*
X92709000Y-54561000D01*
X92963000Y-54561000D01*
X92963000Y-55569000D01*
X93963000Y-55569000D01*
X94387678Y-55434002D01*
X94728368Y-55146763D01*
X94930119Y-54735874D01*
X94803954Y-54561000D01*
X92963000Y-54561000D01*
X92709000Y-54561000D01*
X92689000Y-54561000D01*
X92689000Y-54307000D01*
X92709000Y-54307000D01*
X92709000Y-52561000D01*
X92963000Y-52561000D01*
X92963000Y-54307000D01*
X94803954Y-54307000D01*
X94930119Y-54132126D01*
X94728368Y-53721237D01*
X94387680Y-53434000D01*
X94728368Y-53146763D01*
X94930119Y-52735874D01*
X94803954Y-52561000D01*
X92963000Y-52561000D01*
X92709000Y-52561000D01*
X90868046Y-52561000D01*
X90741881Y-52735874D01*
X90943632Y-53146763D01*
X91284320Y-53434000D01*
X90943632Y-53721237D01*
X90741881Y-54132126D01*
X90868045Y-54306998D01*
X90745247Y-54306998D01*
X90692436Y-54041500D01*
X90491488Y-53740760D01*
X90190748Y-53539812D01*
X89836000Y-53469248D01*
X89481252Y-53539812D01*
X89180512Y-53740760D01*
X88979564Y-54041500D01*
X88909000Y-54396248D01*
X88763000Y-54396248D01*
X88692436Y-54041500D01*
X88491488Y-53740760D01*
X88190748Y-53539812D01*
X87836000Y-53469248D01*
X87481252Y-53539812D01*
X87180512Y-53740760D01*
X86979564Y-54041500D01*
X86909000Y-54396248D01*
X86763000Y-54396248D01*
X86692436Y-54041500D01*
X86491488Y-53740760D01*
X86190748Y-53539812D01*
X85836000Y-53469248D01*
X85481252Y-53539812D01*
X85180512Y-53740760D01*
X84979564Y-54041500D01*
X84909000Y-54396248D01*
X84763000Y-54396248D01*
X84692436Y-54041500D01*
X84491488Y-53740760D01*
X84190748Y-53539812D01*
X83836000Y-53469248D01*
X83481252Y-53539812D01*
X83180512Y-53740760D01*
X82979564Y-54041500D01*
X82909000Y-54396248D01*
X82763000Y-54396248D01*
X82692436Y-54041500D01*
X82491488Y-53740760D01*
X82190748Y-53539812D01*
X81836000Y-53469248D01*
X81481252Y-53539812D01*
X81180512Y-53740760D01*
X80979564Y-54041500D01*
X80909000Y-54396248D01*
X80763000Y-54396248D01*
X80692436Y-54041500D01*
X80491488Y-53740760D01*
X80190748Y-53539812D01*
X79836000Y-53469248D01*
X79481252Y-53539812D01*
X79180512Y-53740760D01*
X78979564Y-54041500D01*
X78909000Y-54396248D01*
X78793243Y-54396248D01*
X78730188Y-54079252D01*
X78568326Y-53837008D01*
X78703975Y-53837126D01*
X78971275Y-53726680D01*
X79175961Y-53522350D01*
X79286874Y-53255244D01*
X79287126Y-52966025D01*
X79254479Y-52887013D01*
X79383975Y-52887126D01*
X79651275Y-52776680D01*
X79855961Y-52572350D01*
X79966874Y-52305244D01*
X79967126Y-52016025D01*
X79856680Y-51748725D01*
X79652350Y-51544039D01*
X79572147Y-51510735D01*
X79520613Y-51424159D01*
X79500536Y-51401871D01*
X79487846Y-51374683D01*
X79420482Y-51313001D01*
X79359356Y-51245144D01*
X79332275Y-51232234D01*
X79310149Y-51211975D01*
X78696146Y-50839696D01*
X78730188Y-50788748D01*
X78800752Y-50434000D01*
X78730188Y-50079252D01*
X78529240Y-49778512D01*
X78228500Y-49577564D01*
X77873752Y-49507000D01*
X75798248Y-49507000D01*
X75443500Y-49577564D01*
X75142760Y-49778512D01*
X74941812Y-50079252D01*
X74897963Y-50299696D01*
X74872350Y-50274039D01*
X74605244Y-50163126D01*
X74316025Y-50162874D01*
X74165454Y-50225089D01*
X74362844Y-49863908D01*
X75952822Y-49361000D01*
X77873752Y-49361000D01*
X78228500Y-49290436D01*
X78529240Y-49089488D01*
X78730188Y-48788748D01*
X78800752Y-48434000D01*
X78730188Y-48079252D01*
X78529240Y-47778512D01*
X78228500Y-47577564D01*
X77873752Y-47507000D01*
X75798248Y-47507000D01*
X75443500Y-47577564D01*
X75142760Y-47778512D01*
X74941812Y-48079252D01*
X74876810Y-48406036D01*
X73753779Y-48761249D01*
X73653804Y-48816215D01*
X73552712Y-48869048D01*
X73548458Y-48874134D01*
X73542649Y-48877328D01*
X73471338Y-48966346D01*
X73398140Y-49053867D01*
X72458140Y-50773867D01*
X72448117Y-50805837D01*
X72445335Y-50810000D01*
X72310750Y-50810000D01*
X72152000Y-50968750D01*
X72152000Y-51943000D01*
X72172000Y-51943000D01*
X72172000Y-52197000D01*
X72152000Y-52197000D01*
X72152000Y-53171250D01*
X72310750Y-53330000D01*
X72373851Y-53330000D01*
X71935331Y-55940995D01*
X71934130Y-55940231D01*
X71105365Y-55413106D01*
X71105365Y-54925000D01*
X71075591Y-54766763D01*
X70982073Y-54621433D01*
X70839381Y-54523936D01*
X70670000Y-54489635D01*
X69934482Y-54489635D01*
X70686372Y-52676254D01*
X70904589Y-52197002D01*
X71048748Y-52197002D01*
X70890000Y-52355750D01*
X70890000Y-52821310D01*
X70986673Y-53054699D01*
X71165302Y-53233327D01*
X71398691Y-53330000D01*
X71739250Y-53330000D01*
X71898000Y-53171250D01*
X71898000Y-52197000D01*
X71878000Y-52197000D01*
X71878000Y-51943000D01*
X71898000Y-51943000D01*
X71898000Y-50968750D01*
X71739250Y-50810000D01*
X71536130Y-50810000D01*
X74113016Y-45150597D01*
X74112874Y-45313975D01*
X74223320Y-45581275D01*
X74427650Y-45785961D01*
X74694756Y-45896874D01*
X74983975Y-45897126D01*
X75093836Y-45851733D01*
X74941812Y-46079252D01*
X74871248Y-46434000D01*
X74941812Y-46788748D01*
X75142760Y-47089488D01*
X75443500Y-47290436D01*
X75798248Y-47361000D01*
X77873752Y-47361000D01*
X78228500Y-47290436D01*
X78529240Y-47089488D01*
X78730188Y-46788748D01*
X78800752Y-46434000D01*
X78749878Y-46178242D01*
X79083233Y-46013760D01*
X79162028Y-45953271D01*
X79244845Y-45898424D01*
X79257041Y-45880333D01*
X79274349Y-45867046D01*
X79323995Y-45781012D01*
X79379523Y-45698643D01*
X79383868Y-45677258D01*
X79394772Y-45658362D01*
X79407715Y-45559885D01*
X79427495Y-45462531D01*
X79437495Y-43022531D01*
X79435077Y-43010109D01*
X79437094Y-42997618D01*
X79415364Y-42398490D01*
X82179800Y-42398490D01*
X82179800Y-44474250D01*
X82338550Y-44633000D01*
X84923000Y-44633000D01*
X84923000Y-42048550D01*
X85177000Y-42048550D01*
X85177000Y-44633000D01*
X87761450Y-44633000D01*
X87920200Y-44474250D01*
X87920200Y-42398490D01*
X87823527Y-42165101D01*
X87644898Y-41986473D01*
X87411509Y-41889800D01*
X85335750Y-41889800D01*
X85177000Y-42048550D01*
X84923000Y-42048550D01*
X84764250Y-41889800D01*
X82688491Y-41889800D01*
X82455102Y-41986473D01*
X82276473Y-42165101D01*
X82179800Y-42398490D01*
X79415364Y-42398490D01*
X79367094Y-41067618D01*
X79365194Y-41059597D01*
X79366294Y-41051426D01*
X79337497Y-40942677D01*
X79311556Y-40833170D01*
X79306728Y-40826483D01*
X79304619Y-40818517D01*
X79236387Y-40729051D01*
X79170525Y-40637823D01*
X79163511Y-40633496D01*
X79158510Y-40626938D01*
X79061216Y-40570383D01*
X78965474Y-40511314D01*
X78957335Y-40510000D01*
X78950208Y-40505857D01*
X78796910Y-40453316D01*
X78800752Y-40434000D01*
X78730188Y-40079252D01*
X78591707Y-39872000D01*
X91080293Y-39872000D01*
X90941812Y-40079252D01*
X90871248Y-40434000D01*
X90941812Y-40788748D01*
X91142760Y-41089488D01*
X91443500Y-41290436D01*
X91798248Y-41361000D01*
X93873752Y-41361000D01*
X94102149Y-41315569D01*
X94610992Y-41416827D01*
X94041688Y-41540405D01*
X93873752Y-41507000D01*
X91798248Y-41507000D01*
X91443500Y-41577564D01*
X91142760Y-41778512D01*
X90941812Y-42079252D01*
X90871248Y-42434000D01*
X90941812Y-42788748D01*
X91142760Y-43089488D01*
X91443500Y-43290436D01*
X91798248Y-43361000D01*
X93873752Y-43361000D01*
X94228500Y-43290436D01*
X94529240Y-43089488D01*
X94730188Y-42788748D01*
X94758052Y-42648666D01*
X95004384Y-42595195D01*
X95104756Y-42636874D01*
X95393975Y-42637126D01*
X95592882Y-42554939D01*
X95592874Y-42563975D01*
X95703320Y-42831275D01*
X95907650Y-43035961D01*
X96174756Y-43146874D01*
X96463975Y-43147126D01*
X96731275Y-43036680D01*
X96935961Y-42832350D01*
X97046874Y-42565244D01*
X97047126Y-42276025D01*
X96936680Y-42008725D01*
X96732350Y-41804039D01*
X96702417Y-41791609D01*
X96186143Y-40721651D01*
X96160046Y-40687029D01*
X96143460Y-40646978D01*
X96088182Y-40591690D01*
X96041117Y-40529251D01*
X96003760Y-40507254D01*
X95973107Y-40476595D01*
X95900869Y-40446666D01*
X95833501Y-40406997D01*
X95790572Y-40400970D01*
X95750518Y-40384375D01*
X94751330Y-40185539D01*
X94730188Y-40079252D01*
X94529240Y-39778512D01*
X94347000Y-39656743D01*
X94347000Y-33544567D01*
X96258826Y-39880525D01*
X96258826Y-39880525D01*
G37*
X96258826Y-39880525D02*
X96297148Y-39952475D01*
X96325935Y-40028734D01*
X96353293Y-40057887D01*
X96372090Y-40093179D01*
X96435026Y-40144983D01*
X96490808Y-40204426D01*
X96527248Y-40220894D01*
X96558113Y-40246300D01*
X96636076Y-40270076D01*
X96710365Y-40303648D01*
X102584020Y-41667175D01*
X103015546Y-44439022D01*
X103830820Y-49675816D01*
X103773126Y-49814756D01*
X103772874Y-50103975D01*
X103847716Y-50285106D01*
X102884875Y-48479453D01*
X102850443Y-48437413D01*
X102825893Y-48388929D01*
X102774839Y-48345103D01*
X102732211Y-48293055D01*
X102684312Y-48267392D01*
X102643077Y-48231994D01*
X96699849Y-44883975D01*
X98622874Y-44883975D01*
X98733320Y-45151275D01*
X98937650Y-45355961D01*
X99204756Y-45466874D01*
X99493975Y-45467126D01*
X99685332Y-45388059D01*
X101623714Y-45551966D01*
X101657650Y-45585961D01*
X101924756Y-45696874D01*
X102213975Y-45697126D01*
X102481275Y-45586680D01*
X102685961Y-45382350D01*
X102796874Y-45115244D01*
X102797126Y-44826025D01*
X102686680Y-44558725D01*
X102482350Y-44354039D01*
X102215244Y-44243126D01*
X101926025Y-44242874D01*
X101734668Y-44321941D01*
X99796286Y-44158034D01*
X99762350Y-44124039D01*
X99495244Y-44013126D01*
X99206025Y-44012874D01*
X98938725Y-44123320D01*
X98734039Y-44327650D01*
X98623126Y-44594756D01*
X98622874Y-44883975D01*
X96699849Y-44883975D01*
X96643077Y-44851994D01*
X96570695Y-44828274D01*
X96502533Y-44794274D01*
X94778873Y-44324006D01*
X94730188Y-44079252D01*
X94529240Y-43778512D01*
X94228500Y-43577564D01*
X93873752Y-43507000D01*
X91798248Y-43507000D01*
X91443500Y-43577564D01*
X91142760Y-43778512D01*
X90941812Y-44079252D01*
X90871248Y-44434000D01*
X90941812Y-44788748D01*
X91142760Y-45089488D01*
X91443500Y-45290436D01*
X91798248Y-45361000D01*
X93873752Y-45361000D01*
X93881805Y-45359398D01*
X96063299Y-45954577D01*
X94605023Y-45891929D01*
X94529240Y-45778512D01*
X94228500Y-45577564D01*
X93873752Y-45507000D01*
X91798248Y-45507000D01*
X91443500Y-45577564D01*
X91142760Y-45778512D01*
X90941812Y-46079252D01*
X90871248Y-46434000D01*
X90941812Y-46788748D01*
X91142760Y-47089488D01*
X91443500Y-47290436D01*
X91798248Y-47361000D01*
X93873752Y-47361000D01*
X94228500Y-47290436D01*
X94479567Y-47122678D01*
X96537269Y-47211079D01*
X97462723Y-47690041D01*
X97205244Y-47583126D01*
X96916025Y-47582874D01*
X96648725Y-47693320D01*
X96637385Y-47704640D01*
X94512058Y-47767032D01*
X94228500Y-47577564D01*
X93873752Y-47507000D01*
X91798248Y-47507000D01*
X91443500Y-47577564D01*
X91176880Y-47755714D01*
X87437058Y-47619617D01*
X87644898Y-47533527D01*
X87823527Y-47354899D01*
X87920200Y-47121510D01*
X87920200Y-45045750D01*
X87761450Y-44887000D01*
X85177000Y-44887000D01*
X85177000Y-44907000D01*
X84923000Y-44907000D01*
X84923000Y-44887000D01*
X82338550Y-44887000D01*
X82179800Y-45045750D01*
X82179800Y-47121510D01*
X82276473Y-47354899D01*
X82356298Y-47434723D01*
X81335876Y-47397589D01*
X81322350Y-47384039D01*
X81055244Y-47273126D01*
X80766025Y-47272874D01*
X80498725Y-47383320D01*
X80294039Y-47587650D01*
X80183126Y-47854756D01*
X80182874Y-48143975D01*
X80293320Y-48411275D01*
X80497650Y-48615961D01*
X80764756Y-48726874D01*
X81053975Y-48727126D01*
X81285251Y-48631565D01*
X91074826Y-48987818D01*
X91142760Y-49089488D01*
X91443500Y-49290436D01*
X91798248Y-49361000D01*
X93873752Y-49361000D01*
X94228500Y-49290436D01*
X94529240Y-49089488D01*
X94588827Y-49000310D01*
X96678937Y-48938952D01*
X96914756Y-49036874D01*
X97203975Y-49037126D01*
X97471275Y-48926680D01*
X97675961Y-48722350D01*
X97786874Y-48455244D01*
X97787126Y-48166025D01*
X97676680Y-47898725D01*
X97474384Y-47696077D01*
X98408906Y-48179732D01*
X98846616Y-51576366D01*
X97970760Y-53702707D01*
X97822350Y-53554039D01*
X97681754Y-53495658D01*
X95618360Y-50675385D01*
X95553195Y-50615547D01*
X95494708Y-50549184D01*
X95465145Y-50534695D01*
X95440893Y-50512426D01*
X95357796Y-50482084D01*
X95278358Y-50443151D01*
X94776063Y-50309880D01*
X94730188Y-50079252D01*
X94529240Y-49778512D01*
X94228500Y-49577564D01*
X93873752Y-49507000D01*
X91798248Y-49507000D01*
X91443500Y-49577564D01*
X91142760Y-49778512D01*
X90941812Y-50079252D01*
X90871248Y-50434000D01*
X90941812Y-50788748D01*
X91142760Y-51089488D01*
X91443500Y-51290436D01*
X91623381Y-51326217D01*
X91284322Y-51433998D01*
X90943632Y-51721237D01*
X90741881Y-52132126D01*
X90868046Y-52307000D01*
X92709000Y-52307000D01*
X92709000Y-52287000D01*
X92963000Y-52287000D01*
X92963000Y-52307000D01*
X94803954Y-52307000D01*
X94930119Y-52132126D01*
X94728368Y-51721237D01*
X94475192Y-51507782D01*
X94750578Y-51580849D01*
X96682954Y-54222044D01*
X96682874Y-54313975D01*
X96793320Y-54581275D01*
X96997650Y-54785961D01*
X97264756Y-54896874D01*
X97478796Y-54897060D01*
X95602371Y-59452512D01*
X89354486Y-62857803D01*
X89285422Y-62915429D01*
X89210921Y-62965816D01*
X83000921Y-69245816D01*
X82944046Y-69331977D01*
X82882368Y-69414758D01*
X82878002Y-69432029D01*
X82868189Y-69446894D01*
X82848617Y-69548253D01*
X82823312Y-69648345D01*
X82562349Y-74732287D01*
X82405223Y-74958317D01*
X82362703Y-74869795D01*
X82233165Y-74755399D01*
X79548487Y-73205399D01*
X79396562Y-73152066D01*
X79223943Y-73160389D01*
X79068163Y-73235215D01*
X78953767Y-73364754D01*
X78453767Y-74230780D01*
X78400434Y-74382703D01*
X78408757Y-74555322D01*
X78483583Y-74711103D01*
X78613121Y-74825499D01*
X81297799Y-76375499D01*
X81396076Y-76409999D01*
X80426622Y-77804583D01*
X79357635Y-77714013D01*
X77548487Y-76669501D01*
X77396562Y-76616168D01*
X77223943Y-76624491D01*
X77068163Y-76699317D01*
X76953767Y-76828856D01*
X76878409Y-76959380D01*
X76102142Y-74334859D01*
X76047938Y-74231732D01*
X75995175Y-74128016D01*
X75991994Y-74125295D01*
X75990045Y-74121588D01*
X75900571Y-74047113D01*
X75812065Y-73971425D01*
X71622065Y-71621425D01*
X71510242Y-71585013D01*
X71398718Y-71547538D01*
X69040204Y-71244406D01*
X72328717Y-71244406D01*
X72386824Y-71461263D01*
X73591083Y-72156542D01*
X73841540Y-72189516D01*
X74085552Y-72124134D01*
X74285968Y-71970349D01*
X74412277Y-71751575D01*
X74456248Y-71675416D01*
X74398141Y-71458559D01*
X72753342Y-70508934D01*
X72328717Y-71244406D01*
X69040204Y-71244406D01*
X68208718Y-71137538D01*
X68205750Y-71137742D01*
X68202919Y-71136820D01*
X66425006Y-70925393D01*
X66209261Y-70465680D01*
X66318644Y-70549613D01*
X66562655Y-70614997D01*
X66813113Y-70582023D01*
X67031887Y-70455714D01*
X67108046Y-70411743D01*
X67166153Y-70194887D01*
X66865528Y-69674189D01*
X66848207Y-69684189D01*
X66769110Y-69547189D01*
X67085498Y-69547189D01*
X67386123Y-70067887D01*
X67602980Y-70125993D01*
X67679139Y-70082023D01*
X67759186Y-70035807D01*
X70468463Y-70035807D01*
X70533847Y-70279818D01*
X70687631Y-70480233D01*
X71891890Y-71175513D01*
X72108747Y-71117406D01*
X72533372Y-70381934D01*
X72372344Y-70288964D01*
X72880342Y-70288964D01*
X74525141Y-71238589D01*
X74741998Y-71180482D01*
X74785968Y-71104323D01*
X74912278Y-70885549D01*
X74945251Y-70635091D01*
X74879867Y-70391080D01*
X74726083Y-70190665D01*
X73521824Y-69495385D01*
X73304967Y-69553492D01*
X72880342Y-70288964D01*
X72372344Y-70288964D01*
X70888573Y-69432309D01*
X70671716Y-69490416D01*
X70627746Y-69566575D01*
X70501436Y-69785349D01*
X70468463Y-70035807D01*
X67759186Y-70035807D01*
X67897913Y-69955713D01*
X68051698Y-69755298D01*
X68117080Y-69511286D01*
X68084106Y-69260829D01*
X68037827Y-69180671D01*
X67820970Y-69122564D01*
X67085498Y-69547189D01*
X66769110Y-69547189D01*
X66723207Y-69467683D01*
X66740528Y-69457683D01*
X66729528Y-69438630D01*
X66949498Y-69311630D01*
X66960498Y-69330683D01*
X67541083Y-68995482D01*
X70957466Y-68995482D01*
X71015573Y-69212339D01*
X72660372Y-70161964D01*
X73084997Y-69426492D01*
X73026890Y-69209635D01*
X71822631Y-68514356D01*
X71572174Y-68481382D01*
X71328162Y-68546764D01*
X71127746Y-68700549D01*
X71001437Y-68919323D01*
X70957466Y-68995482D01*
X67541083Y-68995482D01*
X67695970Y-68906058D01*
X67754077Y-68689201D01*
X67707797Y-68609043D01*
X67507382Y-68455259D01*
X67366733Y-68417571D01*
X67223063Y-68168728D01*
X67118160Y-68046579D01*
X67111977Y-68043396D01*
X67337167Y-67883724D01*
X67343635Y-67876887D01*
X67352107Y-67872790D01*
X67426190Y-67789622D01*
X67502746Y-67708699D01*
X67506105Y-67699908D01*
X67512365Y-67692880D01*
X67548989Y-67587671D01*
X67588741Y-67483632D01*
X67588480Y-67474226D01*
X67591575Y-67465336D01*
X67751653Y-66318111D01*
X67775477Y-66349983D01*
X67833721Y-66436998D01*
X67847274Y-66446038D01*
X67857028Y-66459087D01*
X67947047Y-66512585D01*
X68034163Y-66570690D01*
X70654635Y-67653598D01*
X70654635Y-67960000D01*
X70684409Y-68118237D01*
X70777927Y-68263567D01*
X70920619Y-68361064D01*
X71090000Y-68395365D01*
X71790000Y-68395365D01*
X71948237Y-68365591D01*
X72093567Y-68272073D01*
X72191064Y-68129381D01*
X72225365Y-67960000D01*
X72225365Y-66660000D01*
X72195591Y-66501763D01*
X72102073Y-66356433D01*
X71959381Y-66258936D01*
X71790000Y-66224635D01*
X71090000Y-66224635D01*
X70931763Y-66254409D01*
X70786433Y-66347927D01*
X70773732Y-66366516D01*
X68922184Y-65601365D01*
X69250000Y-65601365D01*
X69408237Y-65571591D01*
X69553567Y-65478073D01*
X69651064Y-65335381D01*
X69685365Y-65166000D01*
X69685365Y-64371809D01*
X70043270Y-63724597D01*
X70014635Y-63866000D01*
X70014635Y-65166000D01*
X70044409Y-65324237D01*
X70137927Y-65469567D01*
X70280619Y-65567064D01*
X70450000Y-65601365D01*
X71150000Y-65601365D01*
X71308237Y-65571591D01*
X71453567Y-65478073D01*
X71551064Y-65335381D01*
X71585365Y-65166000D01*
X71585365Y-64995248D01*
X72709865Y-64781458D01*
X72716409Y-64816237D01*
X72809927Y-64961567D01*
X72952619Y-65059064D01*
X73122000Y-65093365D01*
X73822000Y-65093365D01*
X73980237Y-65063591D01*
X74008569Y-65045360D01*
X73282861Y-66224635D01*
X72990000Y-66224635D01*
X72831763Y-66254409D01*
X72686433Y-66347927D01*
X72588936Y-66490619D01*
X72554635Y-66660000D01*
X72554635Y-67960000D01*
X72584409Y-68118237D01*
X72677927Y-68263567D01*
X72820619Y-68361064D01*
X72990000Y-68395365D01*
X73690000Y-68395365D01*
X73848237Y-68365591D01*
X73993567Y-68272073D01*
X74091064Y-68129381D01*
X74125365Y-67960000D01*
X74125365Y-67211998D01*
X75178657Y-65500399D01*
X75665151Y-67107266D01*
X75405548Y-67366869D01*
X75314712Y-67499813D01*
X75278075Y-67668705D01*
X75310032Y-67838544D01*
X75405548Y-67982569D01*
X76289431Y-68866452D01*
X76422375Y-68957288D01*
X76591267Y-68993925D01*
X76761106Y-68961968D01*
X76905131Y-68866452D01*
X77612238Y-68159345D01*
X77703074Y-68026401D01*
X77739711Y-67857509D01*
X77707754Y-67687670D01*
X77612238Y-67543645D01*
X76859831Y-66791238D01*
X76769327Y-66492305D01*
X76819762Y-66568355D01*
X77703645Y-67452238D01*
X77836589Y-67543074D01*
X78005481Y-67579711D01*
X78175320Y-67547754D01*
X78319345Y-67452238D01*
X79026452Y-66745131D01*
X79117288Y-66612187D01*
X79153925Y-66443295D01*
X79121968Y-66273456D01*
X79026452Y-66129431D01*
X78414967Y-65517946D01*
X78140569Y-63810841D01*
X78196874Y-63675244D01*
X78197126Y-63386025D01*
X78086680Y-63118725D01*
X77903319Y-62935045D01*
X77676098Y-62342000D01*
X78924635Y-62342000D01*
X78924635Y-63642000D01*
X78954409Y-63800237D01*
X79047927Y-63945567D01*
X79190619Y-64043064D01*
X79360000Y-64077365D01*
X80660000Y-64077365D01*
X80818237Y-64047591D01*
X80963567Y-63954073D01*
X81006651Y-63891016D01*
X83090590Y-63891016D01*
X83146271Y-64121611D01*
X83629078Y-64289622D01*
X84139428Y-64260083D01*
X84473729Y-64121611D01*
X84529410Y-63891016D01*
X83810000Y-63171605D01*
X83090590Y-63891016D01*
X81006651Y-63891016D01*
X81061064Y-63811381D01*
X81095365Y-63642000D01*
X81095365Y-62811078D01*
X82512378Y-62811078D01*
X82541917Y-63321428D01*
X82680389Y-63655729D01*
X82910984Y-63711410D01*
X83630395Y-62992000D01*
X83989605Y-62992000D01*
X84709016Y-63711410D01*
X84939611Y-63655729D01*
X85107622Y-63172922D01*
X85078083Y-62662572D01*
X84939611Y-62328271D01*
X84709016Y-62272590D01*
X83989605Y-62992000D01*
X83630395Y-62992000D01*
X82910984Y-62272590D01*
X82680389Y-62328271D01*
X82512378Y-62811078D01*
X81095365Y-62811078D01*
X81095365Y-62342000D01*
X81065591Y-62183763D01*
X81007176Y-62092984D01*
X83090590Y-62092984D01*
X83810000Y-62812395D01*
X84529410Y-62092984D01*
X84473729Y-61862389D01*
X83990922Y-61694378D01*
X83480572Y-61723917D01*
X83146271Y-61862389D01*
X83090590Y-62092984D01*
X81007176Y-62092984D01*
X80972073Y-62038433D01*
X80829381Y-61940936D01*
X80660000Y-61906635D01*
X79360000Y-61906635D01*
X79201763Y-61936409D01*
X79056433Y-62029927D01*
X78958936Y-62172619D01*
X78924635Y-62342000D01*
X77676098Y-62342000D01*
X77173365Y-61029877D01*
X77173365Y-60056000D01*
X77143591Y-59897763D01*
X77050073Y-59752433D01*
X76907381Y-59654936D01*
X76738000Y-59620635D01*
X76038000Y-59620635D01*
X75879763Y-59650409D01*
X75734433Y-59743927D01*
X75636936Y-59886619D01*
X75602635Y-60056000D01*
X75602635Y-61356000D01*
X75632409Y-61514237D01*
X75725927Y-61659567D01*
X75868619Y-61757064D01*
X76038000Y-61791365D01*
X76142578Y-61791365D01*
X76748302Y-63372292D01*
X76743126Y-63384756D01*
X76742874Y-63673975D01*
X76853320Y-63941275D01*
X76921691Y-64009765D01*
X77176627Y-65595790D01*
X76819762Y-65952655D01*
X76728926Y-66085599D01*
X76694392Y-66244798D01*
X76157365Y-64471023D01*
X76157365Y-63358000D01*
X76127591Y-63199763D01*
X76034073Y-63054433D01*
X75891381Y-62956936D01*
X75722000Y-62922635D01*
X75022000Y-62922635D01*
X74863763Y-62952409D01*
X74718433Y-63045927D01*
X74620936Y-63188619D01*
X74586635Y-63358000D01*
X74586635Y-64106002D01*
X74257365Y-64641066D01*
X74257365Y-63358000D01*
X74227591Y-63199763D01*
X74134073Y-63054433D01*
X73991381Y-62956936D01*
X73822000Y-62922635D01*
X73122000Y-62922635D01*
X72963763Y-62952409D01*
X72818433Y-63045927D01*
X72720936Y-63188619D01*
X72686635Y-63358000D01*
X72686635Y-63528752D01*
X71562135Y-63742542D01*
X71555591Y-63707763D01*
X71484735Y-63597651D01*
X71515186Y-63171744D01*
X71638237Y-63148591D01*
X71783567Y-63055073D01*
X71881064Y-62912381D01*
X71915365Y-62743000D01*
X71915365Y-62093000D01*
X71885591Y-61934763D01*
X71792073Y-61789433D01*
X71649381Y-61691936D01*
X71480000Y-61657635D01*
X70477500Y-61657635D01*
X70477500Y-61530000D01*
X70467812Y-61481296D01*
X70469621Y-61431674D01*
X70444894Y-61278365D01*
X70925919Y-61278365D01*
X71213651Y-61499559D01*
X71314737Y-61549522D01*
X71414501Y-61602036D01*
X71422470Y-61602770D01*
X71429645Y-61606316D01*
X71542131Y-61613789D01*
X71654422Y-61624130D01*
X73712465Y-61408241D01*
X73732409Y-61514237D01*
X73825927Y-61659567D01*
X73968619Y-61757064D01*
X74138000Y-61791365D01*
X74838000Y-61791365D01*
X74996237Y-61761591D01*
X75141567Y-61668073D01*
X75239064Y-61525381D01*
X75273365Y-61356000D01*
X75273365Y-60056000D01*
X75243591Y-59897763D01*
X75150073Y-59752433D01*
X75007381Y-59654936D01*
X74838000Y-59620635D01*
X74138000Y-59620635D01*
X73979763Y-59650409D01*
X73834433Y-59743927D01*
X73736936Y-59886619D01*
X73702635Y-60056000D01*
X73702635Y-60167497D01*
X72792126Y-60263009D01*
X72836874Y-60155244D01*
X72837126Y-59866025D01*
X72801656Y-59780180D01*
X72834049Y-59647365D01*
X73040000Y-59647365D01*
X73198237Y-59617591D01*
X73343567Y-59524073D01*
X73441064Y-59381381D01*
X73475365Y-59212000D01*
X73475365Y-58512000D01*
X73445591Y-58353763D01*
X73352073Y-58208433D01*
X73209381Y-58110936D01*
X73040000Y-58076635D01*
X72168979Y-58076635D01*
X72488420Y-57747365D01*
X73040000Y-57747365D01*
X73198237Y-57717591D01*
X73343567Y-57624073D01*
X73441064Y-57481381D01*
X73475365Y-57312000D01*
X73475365Y-56612000D01*
X73445591Y-56453763D01*
X73352073Y-56308433D01*
X73209381Y-56210936D01*
X73144498Y-56197797D01*
X73608971Y-53432278D01*
X73607424Y-53380654D01*
X73617500Y-53330000D01*
X73617500Y-53130365D01*
X73804392Y-53130365D01*
X74301618Y-54301347D01*
X74335772Y-54351495D01*
X74359455Y-54407345D01*
X74402921Y-54450091D01*
X74437243Y-54500486D01*
X74487982Y-54533742D01*
X74531240Y-54576284D01*
X74587767Y-54599146D01*
X74638752Y-54632564D01*
X74698353Y-54643872D01*
X74754600Y-54666621D01*
X74923927Y-54698833D01*
X74941812Y-54788748D01*
X75142760Y-55089488D01*
X75443500Y-55290436D01*
X75798248Y-55361000D01*
X76286411Y-55361000D01*
X76452234Y-57567979D01*
X76388936Y-57660619D01*
X76354635Y-57830000D01*
X76354635Y-59130000D01*
X76384409Y-59288237D01*
X76477927Y-59433567D01*
X76620619Y-59531064D01*
X76790000Y-59565365D01*
X77490000Y-59565365D01*
X77648237Y-59535591D01*
X77793567Y-59442073D01*
X77891064Y-59299381D01*
X77925365Y-59130000D01*
X77925365Y-57830000D01*
X78254635Y-57830000D01*
X78254635Y-59130000D01*
X78284409Y-59288237D01*
X78377927Y-59433567D01*
X78520619Y-59531064D01*
X78690000Y-59565365D01*
X79390000Y-59565365D01*
X79548237Y-59535591D01*
X79693567Y-59442073D01*
X79791064Y-59299381D01*
X79825365Y-59130000D01*
X79825365Y-59037947D01*
X81639963Y-58895988D01*
X81834756Y-58976874D01*
X82123975Y-58977126D01*
X82391275Y-58866680D01*
X82595961Y-58662350D01*
X82706874Y-58395244D01*
X82707126Y-58106025D01*
X82596680Y-57838725D01*
X82392350Y-57634039D01*
X82125244Y-57523126D01*
X81836025Y-57522874D01*
X81568725Y-57633320D01*
X81536696Y-57665294D01*
X79819649Y-57799620D01*
X79795591Y-57671763D01*
X79702073Y-57526433D01*
X79559381Y-57428936D01*
X79390000Y-57394635D01*
X78690000Y-57394635D01*
X78531763Y-57424409D01*
X78386433Y-57517927D01*
X78288936Y-57660619D01*
X78254635Y-57830000D01*
X77925365Y-57830000D01*
X77895591Y-57671763D01*
X77802073Y-57526433D01*
X77681398Y-57443979D01*
X77524891Y-55361000D01*
X77873752Y-55361000D01*
X78228500Y-55290436D01*
X78529240Y-55089488D01*
X78730188Y-54788748D01*
X78800752Y-54434000D01*
X78793243Y-54396248D01*
X78909000Y-54396248D01*
X78909000Y-56471752D01*
X78979564Y-56826500D01*
X79180512Y-57127240D01*
X79481252Y-57328188D01*
X79836000Y-57398752D01*
X80190748Y-57328188D01*
X80491488Y-57127240D01*
X80692436Y-56826500D01*
X80763000Y-56471752D01*
X80763000Y-54396248D01*
X80909000Y-54396248D01*
X80909000Y-56471752D01*
X80979564Y-56826500D01*
X81180512Y-57127240D01*
X81481252Y-57328188D01*
X81836000Y-57398752D01*
X82190748Y-57328188D01*
X82491488Y-57127240D01*
X82692436Y-56826500D01*
X82763000Y-56471752D01*
X82763000Y-54396248D01*
X82909000Y-54396248D01*
X82909000Y-56471752D01*
X82979564Y-56826500D01*
X83180512Y-57127240D01*
X83481252Y-57328188D01*
X83836000Y-57398752D01*
X84190748Y-57328188D01*
X84491488Y-57127240D01*
X84692436Y-56826500D01*
X84763000Y-56471752D01*
X84763000Y-54396248D01*
X84909000Y-54396248D01*
X84909000Y-56471752D01*
X84979564Y-56826500D01*
X85180512Y-57127240D01*
X85481252Y-57328188D01*
X85836000Y-57398752D01*
X86190748Y-57328188D01*
X86491488Y-57127240D01*
X86692436Y-56826500D01*
X86763000Y-56471752D01*
X86763000Y-54396248D01*
X86909000Y-54396248D01*
X86909000Y-56471752D01*
X86979564Y-56826500D01*
X87180512Y-57127240D01*
X87481252Y-57328188D01*
X87836000Y-57398752D01*
X88190748Y-57328188D01*
X88491488Y-57127240D01*
X88692436Y-56826500D01*
X88763000Y-56471752D01*
X88763000Y-54396248D01*
X88909000Y-54396248D01*
X88909000Y-56471752D01*
X88979564Y-56826500D01*
X89180512Y-57127240D01*
X89481252Y-57328188D01*
X89836000Y-57398752D01*
X90190748Y-57328188D01*
X90491488Y-57127240D01*
X90692436Y-56826500D01*
X90763000Y-56471752D01*
X90763000Y-54778885D01*
X90943632Y-55146763D01*
X91284322Y-55434002D01*
X91709000Y-55569000D01*
X92709000Y-55569000D01*
X92709000Y-54561000D01*
X92963000Y-54561000D01*
X92963000Y-55569000D01*
X93963000Y-55569000D01*
X94387678Y-55434002D01*
X94728368Y-55146763D01*
X94930119Y-54735874D01*
X94803954Y-54561000D01*
X92963000Y-54561000D01*
X92709000Y-54561000D01*
X92689000Y-54561000D01*
X92689000Y-54307000D01*
X92709000Y-54307000D01*
X92709000Y-52561000D01*
X92963000Y-52561000D01*
X92963000Y-54307000D01*
X94803954Y-54307000D01*
X94930119Y-54132126D01*
X94728368Y-53721237D01*
X94387680Y-53434000D01*
X94728368Y-53146763D01*
X94930119Y-52735874D01*
X94803954Y-52561000D01*
X92963000Y-52561000D01*
X92709000Y-52561000D01*
X90868046Y-52561000D01*
X90741881Y-52735874D01*
X90943632Y-53146763D01*
X91284320Y-53434000D01*
X90943632Y-53721237D01*
X90741881Y-54132126D01*
X90868045Y-54306998D01*
X90745247Y-54306998D01*
X90692436Y-54041500D01*
X90491488Y-53740760D01*
X90190748Y-53539812D01*
X89836000Y-53469248D01*
X89481252Y-53539812D01*
X89180512Y-53740760D01*
X88979564Y-54041500D01*
X88909000Y-54396248D01*
X88763000Y-54396248D01*
X88692436Y-54041500D01*
X88491488Y-53740760D01*
X88190748Y-53539812D01*
X87836000Y-53469248D01*
X87481252Y-53539812D01*
X87180512Y-53740760D01*
X86979564Y-54041500D01*
X86909000Y-54396248D01*
X86763000Y-54396248D01*
X86692436Y-54041500D01*
X86491488Y-53740760D01*
X86190748Y-53539812D01*
X85836000Y-53469248D01*
X85481252Y-53539812D01*
X85180512Y-53740760D01*
X84979564Y-54041500D01*
X84909000Y-54396248D01*
X84763000Y-54396248D01*
X84692436Y-54041500D01*
X84491488Y-53740760D01*
X84190748Y-53539812D01*
X83836000Y-53469248D01*
X83481252Y-53539812D01*
X83180512Y-53740760D01*
X82979564Y-54041500D01*
X82909000Y-54396248D01*
X82763000Y-54396248D01*
X82692436Y-54041500D01*
X82491488Y-53740760D01*
X82190748Y-53539812D01*
X81836000Y-53469248D01*
X81481252Y-53539812D01*
X81180512Y-53740760D01*
X80979564Y-54041500D01*
X80909000Y-54396248D01*
X80763000Y-54396248D01*
X80692436Y-54041500D01*
X80491488Y-53740760D01*
X80190748Y-53539812D01*
X79836000Y-53469248D01*
X79481252Y-53539812D01*
X79180512Y-53740760D01*
X78979564Y-54041500D01*
X78909000Y-54396248D01*
X78793243Y-54396248D01*
X78730188Y-54079252D01*
X78568326Y-53837008D01*
X78703975Y-53837126D01*
X78971275Y-53726680D01*
X79175961Y-53522350D01*
X79286874Y-53255244D01*
X79287126Y-52966025D01*
X79254479Y-52887013D01*
X79383975Y-52887126D01*
X79651275Y-52776680D01*
X79855961Y-52572350D01*
X79966874Y-52305244D01*
X79967126Y-52016025D01*
X79856680Y-51748725D01*
X79652350Y-51544039D01*
X79572147Y-51510735D01*
X79520613Y-51424159D01*
X79500536Y-51401871D01*
X79487846Y-51374683D01*
X79420482Y-51313001D01*
X79359356Y-51245144D01*
X79332275Y-51232234D01*
X79310149Y-51211975D01*
X78696146Y-50839696D01*
X78730188Y-50788748D01*
X78800752Y-50434000D01*
X78730188Y-50079252D01*
X78529240Y-49778512D01*
X78228500Y-49577564D01*
X77873752Y-49507000D01*
X75798248Y-49507000D01*
X75443500Y-49577564D01*
X75142760Y-49778512D01*
X74941812Y-50079252D01*
X74897963Y-50299696D01*
X74872350Y-50274039D01*
X74605244Y-50163126D01*
X74316025Y-50162874D01*
X74165454Y-50225089D01*
X74362844Y-49863908D01*
X75952822Y-49361000D01*
X77873752Y-49361000D01*
X78228500Y-49290436D01*
X78529240Y-49089488D01*
X78730188Y-48788748D01*
X78800752Y-48434000D01*
X78730188Y-48079252D01*
X78529240Y-47778512D01*
X78228500Y-47577564D01*
X77873752Y-47507000D01*
X75798248Y-47507000D01*
X75443500Y-47577564D01*
X75142760Y-47778512D01*
X74941812Y-48079252D01*
X74876810Y-48406036D01*
X73753779Y-48761249D01*
X73653804Y-48816215D01*
X73552712Y-48869048D01*
X73548458Y-48874134D01*
X73542649Y-48877328D01*
X73471338Y-48966346D01*
X73398140Y-49053867D01*
X72458140Y-50773867D01*
X72448117Y-50805837D01*
X72445335Y-50810000D01*
X72310750Y-50810000D01*
X72152000Y-50968750D01*
X72152000Y-51943000D01*
X72172000Y-51943000D01*
X72172000Y-52197000D01*
X72152000Y-52197000D01*
X72152000Y-53171250D01*
X72310750Y-53330000D01*
X72373851Y-53330000D01*
X71935331Y-55940995D01*
X71934130Y-55940231D01*
X71105365Y-55413106D01*
X71105365Y-54925000D01*
X71075591Y-54766763D01*
X70982073Y-54621433D01*
X70839381Y-54523936D01*
X70670000Y-54489635D01*
X69934482Y-54489635D01*
X70686372Y-52676254D01*
X70904589Y-52197002D01*
X71048748Y-52197002D01*
X70890000Y-52355750D01*
X70890000Y-52821310D01*
X70986673Y-53054699D01*
X71165302Y-53233327D01*
X71398691Y-53330000D01*
X71739250Y-53330000D01*
X71898000Y-53171250D01*
X71898000Y-52197000D01*
X71878000Y-52197000D01*
X71878000Y-51943000D01*
X71898000Y-51943000D01*
X71898000Y-50968750D01*
X71739250Y-50810000D01*
X71536130Y-50810000D01*
X74113016Y-45150597D01*
X74112874Y-45313975D01*
X74223320Y-45581275D01*
X74427650Y-45785961D01*
X74694756Y-45896874D01*
X74983975Y-45897126D01*
X75093836Y-45851733D01*
X74941812Y-46079252D01*
X74871248Y-46434000D01*
X74941812Y-46788748D01*
X75142760Y-47089488D01*
X75443500Y-47290436D01*
X75798248Y-47361000D01*
X77873752Y-47361000D01*
X78228500Y-47290436D01*
X78529240Y-47089488D01*
X78730188Y-46788748D01*
X78800752Y-46434000D01*
X78749878Y-46178242D01*
X79083233Y-46013760D01*
X79162028Y-45953271D01*
X79244845Y-45898424D01*
X79257041Y-45880333D01*
X79274349Y-45867046D01*
X79323995Y-45781012D01*
X79379523Y-45698643D01*
X79383868Y-45677258D01*
X79394772Y-45658362D01*
X79407715Y-45559885D01*
X79427495Y-45462531D01*
X79437495Y-43022531D01*
X79435077Y-43010109D01*
X79437094Y-42997618D01*
X79415364Y-42398490D01*
X82179800Y-42398490D01*
X82179800Y-44474250D01*
X82338550Y-44633000D01*
X84923000Y-44633000D01*
X84923000Y-42048550D01*
X85177000Y-42048550D01*
X85177000Y-44633000D01*
X87761450Y-44633000D01*
X87920200Y-44474250D01*
X87920200Y-42398490D01*
X87823527Y-42165101D01*
X87644898Y-41986473D01*
X87411509Y-41889800D01*
X85335750Y-41889800D01*
X85177000Y-42048550D01*
X84923000Y-42048550D01*
X84764250Y-41889800D01*
X82688491Y-41889800D01*
X82455102Y-41986473D01*
X82276473Y-42165101D01*
X82179800Y-42398490D01*
X79415364Y-42398490D01*
X79367094Y-41067618D01*
X79365194Y-41059597D01*
X79366294Y-41051426D01*
X79337497Y-40942677D01*
X79311556Y-40833170D01*
X79306728Y-40826483D01*
X79304619Y-40818517D01*
X79236387Y-40729051D01*
X79170525Y-40637823D01*
X79163511Y-40633496D01*
X79158510Y-40626938D01*
X79061216Y-40570383D01*
X78965474Y-40511314D01*
X78957335Y-40510000D01*
X78950208Y-40505857D01*
X78796910Y-40453316D01*
X78800752Y-40434000D01*
X78730188Y-40079252D01*
X78591707Y-39872000D01*
X91080293Y-39872000D01*
X90941812Y-40079252D01*
X90871248Y-40434000D01*
X90941812Y-40788748D01*
X91142760Y-41089488D01*
X91443500Y-41290436D01*
X91798248Y-41361000D01*
X93873752Y-41361000D01*
X94102149Y-41315569D01*
X94610992Y-41416827D01*
X94041688Y-41540405D01*
X93873752Y-41507000D01*
X91798248Y-41507000D01*
X91443500Y-41577564D01*
X91142760Y-41778512D01*
X90941812Y-42079252D01*
X90871248Y-42434000D01*
X90941812Y-42788748D01*
X91142760Y-43089488D01*
X91443500Y-43290436D01*
X91798248Y-43361000D01*
X93873752Y-43361000D01*
X94228500Y-43290436D01*
X94529240Y-43089488D01*
X94730188Y-42788748D01*
X94758052Y-42648666D01*
X95004384Y-42595195D01*
X95104756Y-42636874D01*
X95393975Y-42637126D01*
X95592882Y-42554939D01*
X95592874Y-42563975D01*
X95703320Y-42831275D01*
X95907650Y-43035961D01*
X96174756Y-43146874D01*
X96463975Y-43147126D01*
X96731275Y-43036680D01*
X96935961Y-42832350D01*
X97046874Y-42565244D01*
X97047126Y-42276025D01*
X96936680Y-42008725D01*
X96732350Y-41804039D01*
X96702417Y-41791609D01*
X96186143Y-40721651D01*
X96160046Y-40687029D01*
X96143460Y-40646978D01*
X96088182Y-40591690D01*
X96041117Y-40529251D01*
X96003760Y-40507254D01*
X95973107Y-40476595D01*
X95900869Y-40446666D01*
X95833501Y-40406997D01*
X95790572Y-40400970D01*
X95750518Y-40384375D01*
X94751330Y-40185539D01*
X94730188Y-40079252D01*
X94529240Y-39778512D01*
X94347000Y-39656743D01*
X94347000Y-33544567D01*
X96258826Y-39880525D01*
G36*
X107561937Y-44167008D02*
X107786937Y-44556720D01*
X107891840Y-44678870D01*
X108045494Y-44757971D01*
X108069998Y-44759832D01*
X109643916Y-50863821D01*
X109682310Y-52985103D01*
X109313244Y-63857595D01*
X109141675Y-66267364D01*
X109031887Y-66124287D01*
X108813113Y-65997977D01*
X108736954Y-65954007D01*
X108520097Y-66012113D01*
X108219472Y-66532811D01*
X108236793Y-66542811D01*
X108111793Y-66759317D01*
X108094472Y-66749317D01*
X108085932Y-66764109D01*
X108069289Y-66760182D01*
X107863502Y-66641370D01*
X107874502Y-66622317D01*
X107139030Y-66197692D01*
X106922173Y-66255799D01*
X106875894Y-66335957D01*
X106842920Y-66586414D01*
X106880607Y-66727064D01*
X106771356Y-66916291D01*
X105340874Y-65767982D01*
X105337162Y-65764329D01*
X107205923Y-65764329D01*
X107264030Y-65981186D01*
X107999502Y-66405811D01*
X108300127Y-65885113D01*
X108242020Y-65668257D01*
X108165861Y-65624286D01*
X107947087Y-65497977D01*
X107696629Y-65465003D01*
X107452618Y-65530387D01*
X107252203Y-65684171D01*
X107205923Y-65764329D01*
X105337162Y-65764329D01*
X103897001Y-64347210D01*
X105545385Y-64347210D01*
X105603492Y-64564067D01*
X105898425Y-64734347D01*
X106148882Y-64767320D01*
X106392893Y-64701938D01*
X106593309Y-64548154D01*
X106719618Y-64329379D01*
X106826089Y-64144967D01*
X106767982Y-63928110D01*
X106032510Y-63503485D01*
X105545385Y-64347210D01*
X103897001Y-64347210D01*
X103782924Y-64234959D01*
X103736816Y-64204685D01*
X103698219Y-64165275D01*
X103637081Y-64139201D01*
X103581520Y-64102721D01*
X103527333Y-64092396D01*
X103497296Y-64079587D01*
X104071059Y-63448797D01*
X104156806Y-63498303D01*
X104308730Y-63551636D01*
X104481349Y-63543313D01*
X104619000Y-63477195D01*
X104594458Y-63663611D01*
X104659841Y-63907622D01*
X104813625Y-64108038D01*
X105108558Y-64278317D01*
X105325415Y-64220210D01*
X105812540Y-63376485D01*
X105795219Y-63366485D01*
X105843121Y-63283515D01*
X106159510Y-63283515D01*
X106894982Y-63708140D01*
X107111839Y-63650033D01*
X107218309Y-63465621D01*
X107344619Y-63246846D01*
X107377592Y-62996389D01*
X107312209Y-62752378D01*
X107158425Y-62551962D01*
X106863492Y-62381683D01*
X106646635Y-62439790D01*
X106159510Y-63283515D01*
X105843121Y-63283515D01*
X105922219Y-63146515D01*
X105939540Y-63156515D01*
X106426665Y-62312790D01*
X106368558Y-62095933D01*
X106073625Y-61925653D01*
X105823168Y-61892680D01*
X105579157Y-61958062D01*
X105428376Y-62073760D01*
X105421535Y-61931873D01*
X105346709Y-61776093D01*
X105217170Y-61661697D01*
X104645313Y-61331535D01*
X103611896Y-57109479D01*
X103646874Y-57025244D01*
X103647126Y-56736025D01*
X103536680Y-56468725D01*
X103332350Y-56264039D01*
X103065244Y-56153126D01*
X102776025Y-56152874D01*
X102508725Y-56263320D01*
X102304039Y-56467650D01*
X102193126Y-56734756D01*
X102192874Y-57023975D01*
X102303320Y-57291275D01*
X102411451Y-57399595D01*
X103485956Y-61789519D01*
X103131425Y-62403584D01*
X103078092Y-62555508D01*
X103084940Y-62697526D01*
X102208826Y-63660717D01*
X101738720Y-63619588D01*
X101578491Y-63635457D01*
X101425563Y-63715953D01*
X101316000Y-63849604D01*
X101267068Y-64015351D01*
X101245961Y-64256607D01*
X100944157Y-63885120D01*
X99325113Y-57621733D01*
X99356874Y-57545244D01*
X99357126Y-57256025D01*
X99246680Y-56988725D01*
X99042350Y-56784039D01*
X98775244Y-56673126D01*
X98486025Y-56672874D01*
X98218725Y-56783320D01*
X98014039Y-56987650D01*
X97903126Y-57254756D01*
X97902924Y-57487060D01*
X97880000Y-57482500D01*
X97737855Y-57510774D01*
X100050960Y-51895182D01*
X100058548Y-51856640D01*
X100076019Y-51821455D01*
X100081620Y-51739440D01*
X100097499Y-51658783D01*
X100089759Y-51620270D01*
X100092436Y-51581078D01*
X99624377Y-47948938D01*
X101879915Y-49219558D01*
X106900635Y-58635111D01*
X106900635Y-61077000D01*
X106930409Y-61235237D01*
X107023927Y-61380567D01*
X107166619Y-61478064D01*
X107336000Y-61512365D01*
X108336000Y-61512365D01*
X108494237Y-61482591D01*
X108639567Y-61389073D01*
X108737064Y-61246381D01*
X108771365Y-61077000D01*
X108771365Y-60110176D01*
X108826732Y-60006837D01*
X108850587Y-59767084D01*
X108780875Y-59536453D01*
X108771365Y-59518619D01*
X108771365Y-57977000D01*
X108741591Y-57818763D01*
X108648073Y-57673433D01*
X108505381Y-57575936D01*
X108336000Y-57541635D01*
X107717165Y-57541635D01*
X103905526Y-50393520D01*
X104087650Y-50575961D01*
X104354756Y-50686874D01*
X104643975Y-50687126D01*
X104911275Y-50576680D01*
X105115961Y-50372350D01*
X105226874Y-50105244D01*
X105227126Y-49816025D01*
X105116680Y-49548725D01*
X105050605Y-49482535D01*
X104985914Y-49067000D01*
X106900635Y-49067000D01*
X106900635Y-52167000D01*
X106930409Y-52325237D01*
X107023927Y-52470567D01*
X107166619Y-52568064D01*
X107336000Y-52602365D01*
X108336000Y-52602365D01*
X108494237Y-52572591D01*
X108639567Y-52479073D01*
X108737064Y-52336381D01*
X108771365Y-52167000D01*
X108771365Y-49067000D01*
X108741591Y-48908763D01*
X108648073Y-48763433D01*
X108505381Y-48665936D01*
X108336000Y-48631635D01*
X107336000Y-48631635D01*
X107177763Y-48661409D01*
X107032433Y-48754927D01*
X106934936Y-48897619D01*
X106900635Y-49067000D01*
X104985914Y-49067000D01*
X104326363Y-44830464D01*
X106884287Y-44304863D01*
X106964172Y-44271181D01*
X107047303Y-44246592D01*
X107507470Y-44004716D01*
X107561937Y-44167008D01*
X107561937Y-44167008D01*
G37*
X107561937Y-44167008D02*
X107786937Y-44556720D01*
X107891840Y-44678870D01*
X108045494Y-44757971D01*
X108069998Y-44759832D01*
X109643916Y-50863821D01*
X109682310Y-52985103D01*
X109313244Y-63857595D01*
X109141675Y-66267364D01*
X109031887Y-66124287D01*
X108813113Y-65997977D01*
X108736954Y-65954007D01*
X108520097Y-66012113D01*
X108219472Y-66532811D01*
X108236793Y-66542811D01*
X108111793Y-66759317D01*
X108094472Y-66749317D01*
X108085932Y-66764109D01*
X108069289Y-66760182D01*
X107863502Y-66641370D01*
X107874502Y-66622317D01*
X107139030Y-66197692D01*
X106922173Y-66255799D01*
X106875894Y-66335957D01*
X106842920Y-66586414D01*
X106880607Y-66727064D01*
X106771356Y-66916291D01*
X105340874Y-65767982D01*
X105337162Y-65764329D01*
X107205923Y-65764329D01*
X107264030Y-65981186D01*
X107999502Y-66405811D01*
X108300127Y-65885113D01*
X108242020Y-65668257D01*
X108165861Y-65624286D01*
X107947087Y-65497977D01*
X107696629Y-65465003D01*
X107452618Y-65530387D01*
X107252203Y-65684171D01*
X107205923Y-65764329D01*
X105337162Y-65764329D01*
X103897001Y-64347210D01*
X105545385Y-64347210D01*
X105603492Y-64564067D01*
X105898425Y-64734347D01*
X106148882Y-64767320D01*
X106392893Y-64701938D01*
X106593309Y-64548154D01*
X106719618Y-64329379D01*
X106826089Y-64144967D01*
X106767982Y-63928110D01*
X106032510Y-63503485D01*
X105545385Y-64347210D01*
X103897001Y-64347210D01*
X103782924Y-64234959D01*
X103736816Y-64204685D01*
X103698219Y-64165275D01*
X103637081Y-64139201D01*
X103581520Y-64102721D01*
X103527333Y-64092396D01*
X103497296Y-64079587D01*
X104071059Y-63448797D01*
X104156806Y-63498303D01*
X104308730Y-63551636D01*
X104481349Y-63543313D01*
X104619000Y-63477195D01*
X104594458Y-63663611D01*
X104659841Y-63907622D01*
X104813625Y-64108038D01*
X105108558Y-64278317D01*
X105325415Y-64220210D01*
X105812540Y-63376485D01*
X105795219Y-63366485D01*
X105843121Y-63283515D01*
X106159510Y-63283515D01*
X106894982Y-63708140D01*
X107111839Y-63650033D01*
X107218309Y-63465621D01*
X107344619Y-63246846D01*
X107377592Y-62996389D01*
X107312209Y-62752378D01*
X107158425Y-62551962D01*
X106863492Y-62381683D01*
X106646635Y-62439790D01*
X106159510Y-63283515D01*
X105843121Y-63283515D01*
X105922219Y-63146515D01*
X105939540Y-63156515D01*
X106426665Y-62312790D01*
X106368558Y-62095933D01*
X106073625Y-61925653D01*
X105823168Y-61892680D01*
X105579157Y-61958062D01*
X105428376Y-62073760D01*
X105421535Y-61931873D01*
X105346709Y-61776093D01*
X105217170Y-61661697D01*
X104645313Y-61331535D01*
X103611896Y-57109479D01*
X103646874Y-57025244D01*
X103647126Y-56736025D01*
X103536680Y-56468725D01*
X103332350Y-56264039D01*
X103065244Y-56153126D01*
X102776025Y-56152874D01*
X102508725Y-56263320D01*
X102304039Y-56467650D01*
X102193126Y-56734756D01*
X102192874Y-57023975D01*
X102303320Y-57291275D01*
X102411451Y-57399595D01*
X103485956Y-61789519D01*
X103131425Y-62403584D01*
X103078092Y-62555508D01*
X103084940Y-62697526D01*
X102208826Y-63660717D01*
X101738720Y-63619588D01*
X101578491Y-63635457D01*
X101425563Y-63715953D01*
X101316000Y-63849604D01*
X101267068Y-64015351D01*
X101245961Y-64256607D01*
X100944157Y-63885120D01*
X99325113Y-57621733D01*
X99356874Y-57545244D01*
X99357126Y-57256025D01*
X99246680Y-56988725D01*
X99042350Y-56784039D01*
X98775244Y-56673126D01*
X98486025Y-56672874D01*
X98218725Y-56783320D01*
X98014039Y-56987650D01*
X97903126Y-57254756D01*
X97902924Y-57487060D01*
X97880000Y-57482500D01*
X97737855Y-57510774D01*
X100050960Y-51895182D01*
X100058548Y-51856640D01*
X100076019Y-51821455D01*
X100081620Y-51739440D01*
X100097499Y-51658783D01*
X100089759Y-51620270D01*
X100092436Y-51581078D01*
X99624377Y-47948938D01*
X101879915Y-49219558D01*
X106900635Y-58635111D01*
X106900635Y-61077000D01*
X106930409Y-61235237D01*
X107023927Y-61380567D01*
X107166619Y-61478064D01*
X107336000Y-61512365D01*
X108336000Y-61512365D01*
X108494237Y-61482591D01*
X108639567Y-61389073D01*
X108737064Y-61246381D01*
X108771365Y-61077000D01*
X108771365Y-60110176D01*
X108826732Y-60006837D01*
X108850587Y-59767084D01*
X108780875Y-59536453D01*
X108771365Y-59518619D01*
X108771365Y-57977000D01*
X108741591Y-57818763D01*
X108648073Y-57673433D01*
X108505381Y-57575936D01*
X108336000Y-57541635D01*
X107717165Y-57541635D01*
X103905526Y-50393520D01*
X104087650Y-50575961D01*
X104354756Y-50686874D01*
X104643975Y-50687126D01*
X104911275Y-50576680D01*
X105115961Y-50372350D01*
X105226874Y-50105244D01*
X105227126Y-49816025D01*
X105116680Y-49548725D01*
X105050605Y-49482535D01*
X104985914Y-49067000D01*
X106900635Y-49067000D01*
X106900635Y-52167000D01*
X106930409Y-52325237D01*
X107023927Y-52470567D01*
X107166619Y-52568064D01*
X107336000Y-52602365D01*
X108336000Y-52602365D01*
X108494237Y-52572591D01*
X108639567Y-52479073D01*
X108737064Y-52336381D01*
X108771365Y-52167000D01*
X108771365Y-49067000D01*
X108741591Y-48908763D01*
X108648073Y-48763433D01*
X108505381Y-48665936D01*
X108336000Y-48631635D01*
X107336000Y-48631635D01*
X107177763Y-48661409D01*
X107032433Y-48754927D01*
X106934936Y-48897619D01*
X106900635Y-49067000D01*
X104985914Y-49067000D01*
X104326363Y-44830464D01*
X106884287Y-44304863D01*
X106964172Y-44271181D01*
X107047303Y-44246592D01*
X107507470Y-44004716D01*
X107561937Y-44167008D01*
G36*
X69193034Y-50450610D02*
X69192874Y-50633975D01*
X69303320Y-50901275D01*
X69507650Y-51105961D01*
X69774756Y-51216874D01*
X69993786Y-51217065D01*
X69558015Y-52174112D01*
X69555558Y-52184562D01*
X69549589Y-52193488D01*
X68699589Y-54243488D01*
X68690320Y-54290000D01*
X68455750Y-54290000D01*
X68297000Y-54448750D01*
X68297000Y-55423000D01*
X68317000Y-55423000D01*
X68317000Y-55677000D01*
X68297000Y-55677000D01*
X68297000Y-56651250D01*
X68453253Y-56807503D01*
X68195978Y-59762155D01*
X68061763Y-59787409D01*
X67916433Y-59880927D01*
X67818936Y-60023619D01*
X67797067Y-60131612D01*
X67578310Y-60041000D01*
X67087750Y-60041000D01*
X66929000Y-60199750D01*
X66929000Y-60899000D01*
X66949000Y-60899000D01*
X66949000Y-61153000D01*
X66929000Y-61153000D01*
X66929000Y-61852250D01*
X67087750Y-62011000D01*
X67578310Y-62011000D01*
X67616438Y-61995207D01*
X67646438Y-62067635D01*
X67366510Y-62140635D01*
X66152000Y-62140635D01*
X65993763Y-62170409D01*
X65848433Y-62263927D01*
X65750936Y-62406619D01*
X65716635Y-62576000D01*
X65716635Y-63276000D01*
X65746409Y-63434237D01*
X65839927Y-63579567D01*
X65982619Y-63677064D01*
X66152000Y-63711365D01*
X66492754Y-63711365D01*
X67287064Y-65374654D01*
X66291120Y-64481993D01*
X64467308Y-61454841D01*
X64568619Y-61524064D01*
X64738000Y-61558365D01*
X65540219Y-61558365D01*
X65613673Y-61735698D01*
X65792301Y-61914327D01*
X66025690Y-62011000D01*
X66516250Y-62011000D01*
X66675000Y-61852250D01*
X66675000Y-61153000D01*
X66655000Y-61153000D01*
X66655000Y-60899000D01*
X66675000Y-60899000D01*
X66675000Y-60199750D01*
X66516250Y-60041000D01*
X66173365Y-60041000D01*
X66173365Y-58023000D01*
X66143591Y-57864763D01*
X66050073Y-57719433D01*
X65907381Y-57621936D01*
X65738000Y-57587635D01*
X64738000Y-57587635D01*
X64579763Y-57617409D01*
X64434433Y-57710927D01*
X64429186Y-57718607D01*
X65420904Y-55835750D01*
X67035000Y-55835750D01*
X67035000Y-56301310D01*
X67131673Y-56534699D01*
X67310302Y-56713327D01*
X67543691Y-56810000D01*
X67884250Y-56810000D01*
X68043000Y-56651250D01*
X68043000Y-55677000D01*
X67193750Y-55677000D01*
X67035000Y-55835750D01*
X65420904Y-55835750D01*
X65967133Y-54798690D01*
X67035000Y-54798690D01*
X67035000Y-55264250D01*
X67193750Y-55423000D01*
X68043000Y-55423000D01*
X68043000Y-54448750D01*
X67884250Y-54290000D01*
X67543691Y-54290000D01*
X67310302Y-54386673D01*
X67131673Y-54565301D01*
X67035000Y-54798690D01*
X65967133Y-54798690D01*
X68714338Y-49582906D01*
X69193034Y-50450610D01*
X69193034Y-50450610D01*
G37*
X69193034Y-50450610D02*
X69192874Y-50633975D01*
X69303320Y-50901275D01*
X69507650Y-51105961D01*
X69774756Y-51216874D01*
X69993786Y-51217065D01*
X69558015Y-52174112D01*
X69555558Y-52184562D01*
X69549589Y-52193488D01*
X68699589Y-54243488D01*
X68690320Y-54290000D01*
X68455750Y-54290000D01*
X68297000Y-54448750D01*
X68297000Y-55423000D01*
X68317000Y-55423000D01*
X68317000Y-55677000D01*
X68297000Y-55677000D01*
X68297000Y-56651250D01*
X68453253Y-56807503D01*
X68195978Y-59762155D01*
X68061763Y-59787409D01*
X67916433Y-59880927D01*
X67818936Y-60023619D01*
X67797067Y-60131612D01*
X67578310Y-60041000D01*
X67087750Y-60041000D01*
X66929000Y-60199750D01*
X66929000Y-60899000D01*
X66949000Y-60899000D01*
X66949000Y-61153000D01*
X66929000Y-61153000D01*
X66929000Y-61852250D01*
X67087750Y-62011000D01*
X67578310Y-62011000D01*
X67616438Y-61995207D01*
X67646438Y-62067635D01*
X67366510Y-62140635D01*
X66152000Y-62140635D01*
X65993763Y-62170409D01*
X65848433Y-62263927D01*
X65750936Y-62406619D01*
X65716635Y-62576000D01*
X65716635Y-63276000D01*
X65746409Y-63434237D01*
X65839927Y-63579567D01*
X65982619Y-63677064D01*
X66152000Y-63711365D01*
X66492754Y-63711365D01*
X67287064Y-65374654D01*
X66291120Y-64481993D01*
X64467308Y-61454841D01*
X64568619Y-61524064D01*
X64738000Y-61558365D01*
X65540219Y-61558365D01*
X65613673Y-61735698D01*
X65792301Y-61914327D01*
X66025690Y-62011000D01*
X66516250Y-62011000D01*
X66675000Y-61852250D01*
X66675000Y-61153000D01*
X66655000Y-61153000D01*
X66655000Y-60899000D01*
X66675000Y-60899000D01*
X66675000Y-60199750D01*
X66516250Y-60041000D01*
X66173365Y-60041000D01*
X66173365Y-58023000D01*
X66143591Y-57864763D01*
X66050073Y-57719433D01*
X65907381Y-57621936D01*
X65738000Y-57587635D01*
X64738000Y-57587635D01*
X64579763Y-57617409D01*
X64434433Y-57710927D01*
X64429186Y-57718607D01*
X65420904Y-55835750D01*
X67035000Y-55835750D01*
X67035000Y-56301310D01*
X67131673Y-56534699D01*
X67310302Y-56713327D01*
X67543691Y-56810000D01*
X67884250Y-56810000D01*
X68043000Y-56651250D01*
X68043000Y-55677000D01*
X67193750Y-55677000D01*
X67035000Y-55835750D01*
X65420904Y-55835750D01*
X65967133Y-54798690D01*
X67035000Y-54798690D01*
X67035000Y-55264250D01*
X67193750Y-55423000D01*
X68043000Y-55423000D01*
X68043000Y-54448750D01*
X67884250Y-54290000D01*
X67543691Y-54290000D01*
X67310302Y-54386673D01*
X67131673Y-54565301D01*
X67035000Y-54798690D01*
X65967133Y-54798690D01*
X68714338Y-49582906D01*
X69193034Y-50450610D01*
G36*
X68877000Y-61341000D02*
X68897000Y-61341000D01*
X68897000Y-61595000D01*
X68877000Y-61595000D01*
X68877000Y-61615000D01*
X68623000Y-61615000D01*
X68623000Y-61595000D01*
X68603000Y-61595000D01*
X68603000Y-61341000D01*
X68623000Y-61341000D01*
X68623000Y-61321000D01*
X68877000Y-61321000D01*
X68877000Y-61341000D01*
X68877000Y-61341000D01*
G37*
X68877000Y-61341000D02*
X68897000Y-61341000D01*
X68897000Y-61595000D01*
X68877000Y-61595000D01*
X68877000Y-61615000D01*
X68623000Y-61615000D01*
X68623000Y-61595000D01*
X68603000Y-61595000D01*
X68603000Y-61341000D01*
X68623000Y-61341000D01*
X68623000Y-61321000D01*
X68877000Y-61321000D01*
X68877000Y-61341000D01*
G36*
X75043000Y-39745000D02*
X75051685Y-39791159D01*
X75078965Y-39833553D01*
X75097514Y-39846227D01*
X74941812Y-40079252D01*
X74871248Y-40434000D01*
X74941812Y-40788748D01*
X75142760Y-41089488D01*
X75443500Y-41290436D01*
X75798248Y-41361000D01*
X77636140Y-41361000D01*
X78148290Y-41536533D01*
X78149206Y-41561791D01*
X77873752Y-41507000D01*
X75798248Y-41507000D01*
X75443500Y-41577564D01*
X75142760Y-41778512D01*
X74941812Y-42079252D01*
X74888946Y-42345026D01*
X74181307Y-42545989D01*
X74158660Y-42557580D01*
X74133556Y-42561677D01*
X74052115Y-42612111D01*
X73966830Y-42655761D01*
X73950344Y-42675135D01*
X73928717Y-42688528D01*
X73872770Y-42766298D01*
X73810687Y-42839255D01*
X73802871Y-42863461D01*
X73788014Y-42884112D01*
X70519802Y-50061818D01*
X70332350Y-49874039D01*
X70271477Y-49848762D01*
X69551136Y-48543041D01*
X69716708Y-48377469D01*
X69807544Y-48244525D01*
X69844181Y-48075633D01*
X69813660Y-47913426D01*
X70987124Y-46507847D01*
X71005941Y-46496980D01*
X71173975Y-46497126D01*
X71441275Y-46386680D01*
X71645961Y-46182350D01*
X71756874Y-45915244D01*
X71757126Y-45626025D01*
X71646680Y-45358725D01*
X71442350Y-45154039D01*
X71175244Y-45043126D01*
X70886025Y-45042874D01*
X70618725Y-45153320D01*
X70487620Y-45284197D01*
X70121138Y-45095590D01*
X70386130Y-43667878D01*
X70385400Y-43610989D01*
X70396499Y-43555191D01*
X70396499Y-43555189D01*
X70384069Y-43492699D01*
X70383465Y-43428985D01*
X70383053Y-43428015D01*
X70383039Y-43426962D01*
X70360595Y-43374685D01*
X70349495Y-43318882D01*
X70314095Y-43265903D01*
X70289156Y-43207273D01*
X70288402Y-43206533D01*
X70287987Y-43205567D01*
X70247249Y-43165861D01*
X70215637Y-43118551D01*
X70162662Y-43083154D01*
X70117181Y-43038527D01*
X70116198Y-43038131D01*
X70115447Y-43037399D01*
X70062619Y-43016307D01*
X70015306Y-42984693D01*
X69952815Y-42972263D01*
X69893721Y-42948439D01*
X67305036Y-42458982D01*
X66603593Y-42252174D01*
X66773063Y-41958644D01*
X66826396Y-41806720D01*
X66818073Y-41634101D01*
X66743247Y-41478321D01*
X66613708Y-41363925D01*
X66445665Y-41266906D01*
X66325222Y-39101663D01*
X67510109Y-36584502D01*
X73601309Y-34936058D01*
X73679202Y-34897404D01*
X73760895Y-34867573D01*
X75043000Y-34087735D01*
X75043000Y-39745000D01*
X75043000Y-39745000D01*
G37*
X75043000Y-39745000D02*
X75051685Y-39791159D01*
X75078965Y-39833553D01*
X75097514Y-39846227D01*
X74941812Y-40079252D01*
X74871248Y-40434000D01*
X74941812Y-40788748D01*
X75142760Y-41089488D01*
X75443500Y-41290436D01*
X75798248Y-41361000D01*
X77636140Y-41361000D01*
X78148290Y-41536533D01*
X78149206Y-41561791D01*
X77873752Y-41507000D01*
X75798248Y-41507000D01*
X75443500Y-41577564D01*
X75142760Y-41778512D01*
X74941812Y-42079252D01*
X74888946Y-42345026D01*
X74181307Y-42545989D01*
X74158660Y-42557580D01*
X74133556Y-42561677D01*
X74052115Y-42612111D01*
X73966830Y-42655761D01*
X73950344Y-42675135D01*
X73928717Y-42688528D01*
X73872770Y-42766298D01*
X73810687Y-42839255D01*
X73802871Y-42863461D01*
X73788014Y-42884112D01*
X70519802Y-50061818D01*
X70332350Y-49874039D01*
X70271477Y-49848762D01*
X69551136Y-48543041D01*
X69716708Y-48377469D01*
X69807544Y-48244525D01*
X69844181Y-48075633D01*
X69813660Y-47913426D01*
X70987124Y-46507847D01*
X71005941Y-46496980D01*
X71173975Y-46497126D01*
X71441275Y-46386680D01*
X71645961Y-46182350D01*
X71756874Y-45915244D01*
X71757126Y-45626025D01*
X71646680Y-45358725D01*
X71442350Y-45154039D01*
X71175244Y-45043126D01*
X70886025Y-45042874D01*
X70618725Y-45153320D01*
X70487620Y-45284197D01*
X70121138Y-45095590D01*
X70386130Y-43667878D01*
X70385400Y-43610989D01*
X70396499Y-43555191D01*
X70396499Y-43555189D01*
X70384069Y-43492699D01*
X70383465Y-43428985D01*
X70383053Y-43428015D01*
X70383039Y-43426962D01*
X70360595Y-43374685D01*
X70349495Y-43318882D01*
X70314095Y-43265903D01*
X70289156Y-43207273D01*
X70288402Y-43206533D01*
X70287987Y-43205567D01*
X70247249Y-43165861D01*
X70215637Y-43118551D01*
X70162662Y-43083154D01*
X70117181Y-43038527D01*
X70116198Y-43038131D01*
X70115447Y-43037399D01*
X70062619Y-43016307D01*
X70015306Y-42984693D01*
X69952815Y-42972263D01*
X69893721Y-42948439D01*
X67305036Y-42458982D01*
X66603593Y-42252174D01*
X66773063Y-41958644D01*
X66826396Y-41806720D01*
X66818073Y-41634101D01*
X66743247Y-41478321D01*
X66613708Y-41363925D01*
X66445665Y-41266906D01*
X66325222Y-39101663D01*
X67510109Y-36584502D01*
X73601309Y-34936058D01*
X73679202Y-34897404D01*
X73760895Y-34867573D01*
X75043000Y-34087735D01*
X75043000Y-39745000D01*
G36*
X70030188Y-31824800D02*
X70458049Y-32857747D01*
X70853213Y-33107182D01*
X72718395Y-31242000D01*
X72704253Y-31227858D01*
X72883858Y-31048253D01*
X72898000Y-31062395D01*
X72912143Y-31048253D01*
X73091748Y-31227858D01*
X73077605Y-31242000D01*
X73091748Y-31256143D01*
X72912143Y-31435748D01*
X72898000Y-31421605D01*
X71032818Y-33286787D01*
X71282253Y-33681951D01*
X72167963Y-34044535D01*
X66911760Y-35467006D01*
X66889049Y-35478277D01*
X66863975Y-35482043D01*
X66851291Y-35489677D01*
X66836763Y-35492567D01*
X66768967Y-35537867D01*
X66695938Y-35574108D01*
X66679269Y-35593211D01*
X66657544Y-35606287D01*
X66648744Y-35618199D01*
X66636432Y-35626425D01*
X66591130Y-35694224D01*
X66537531Y-35755651D01*
X66529443Y-35779675D01*
X66514373Y-35800072D01*
X65141304Y-38717009D01*
X65133570Y-38748128D01*
X65117260Y-38775743D01*
X65104729Y-38864167D01*
X65083189Y-38950831D01*
X65087953Y-38982544D01*
X65083453Y-39014296D01*
X65192701Y-40978282D01*
X65152963Y-41023280D01*
X64927963Y-41412992D01*
X64874630Y-41564916D01*
X64877570Y-41625899D01*
X64165426Y-41297077D01*
X63640747Y-38968815D01*
X65615788Y-35009415D01*
X70025602Y-30717421D01*
X70030188Y-31824800D01*
X70030188Y-31824800D01*
G37*
X70030188Y-31824800D02*
X70458049Y-32857747D01*
X70853213Y-33107182D01*
X72718395Y-31242000D01*
X72704253Y-31227858D01*
X72883858Y-31048253D01*
X72898000Y-31062395D01*
X72912143Y-31048253D01*
X73091748Y-31227858D01*
X73077605Y-31242000D01*
X73091748Y-31256143D01*
X72912143Y-31435748D01*
X72898000Y-31421605D01*
X71032818Y-33286787D01*
X71282253Y-33681951D01*
X72167963Y-34044535D01*
X66911760Y-35467006D01*
X66889049Y-35478277D01*
X66863975Y-35482043D01*
X66851291Y-35489677D01*
X66836763Y-35492567D01*
X66768967Y-35537867D01*
X66695938Y-35574108D01*
X66679269Y-35593211D01*
X66657544Y-35606287D01*
X66648744Y-35618199D01*
X66636432Y-35626425D01*
X66591130Y-35694224D01*
X66537531Y-35755651D01*
X66529443Y-35779675D01*
X66514373Y-35800072D01*
X65141304Y-38717009D01*
X65133570Y-38748128D01*
X65117260Y-38775743D01*
X65104729Y-38864167D01*
X65083189Y-38950831D01*
X65087953Y-38982544D01*
X65083453Y-39014296D01*
X65192701Y-40978282D01*
X65152963Y-41023280D01*
X64927963Y-41412992D01*
X64874630Y-41564916D01*
X64877570Y-41625899D01*
X64165426Y-41297077D01*
X63640747Y-38968815D01*
X65615788Y-35009415D01*
X70025602Y-30717421D01*
X70030188Y-31824800D01*
G36*
X85033152Y-27986724D02*
X85042500Y-28003177D01*
X85042500Y-28133000D01*
X83480871Y-28133000D01*
X84222064Y-27915348D01*
X85033152Y-27986724D01*
X85033152Y-27986724D01*
G37*
X85033152Y-27986724D02*
X85042500Y-28003177D01*
X85042500Y-28133000D01*
X83480871Y-28133000D01*
X84222064Y-27915348D01*
X85033152Y-27986724D01*
M02*
