G04 #@! TF.FileFunction,Soldermask,Top*
%FSLAX46Y46*%
G04 Gerber Fmt 4.6, Leading zero omitted, Abs format (unit mm)*
G04 Created by KiCad (PCBNEW 4.0.2+dfsg1-stable) date Fri 28 Sep 2018 02:00:57 AM EDT*
%MOMM*%
G01*
G04 APERTURE LIST*
%ADD10C,0.100000*%
%ADD11O,3.240000X1.240000*%
%ADD12O,1.240000X3.240000*%
%ADD13R,1.240000X1.490000*%
%ADD14R,0.940000X1.540000*%
%ADD15R,1.540000X0.940000*%
%ADD16R,1.240000X3.340000*%
%ADD17O,1.140000X1.800000*%
%ADD18O,1.490000X1.090000*%
%ADD19C,1.440000*%
%ADD20R,1.300000X0.890000*%
%ADD21R,1.540000X1.540000*%
%ADD22C,1.540000*%
%ADD23C,1.764000*%
%ADD24C,4.710400*%
%ADD25C,6.740000*%
%ADD26R,4.710400X4.710400*%
%ADD27R,0.690000X1.240000*%
%ADD28R,0.840000X1.240000*%
%ADD29R,0.590000X1.240000*%
%ADD30R,0.740000X1.240000*%
G04 APERTURE END LIST*
D10*
D11*
X76836000Y-40434000D03*
X76836000Y-42434000D03*
X76836000Y-44434000D03*
X76836000Y-46434000D03*
X76836000Y-48434000D03*
X76836000Y-50434000D03*
X76836000Y-52434000D03*
X76836000Y-54434000D03*
D12*
X79836000Y-55434000D03*
X81836000Y-55434000D03*
X83836000Y-55434000D03*
X85836000Y-55434000D03*
X87836000Y-55434000D03*
X89836000Y-55434000D03*
D11*
X92836000Y-54434000D03*
X92836000Y-52434000D03*
X92836000Y-50434000D03*
X92836000Y-48434000D03*
X92836000Y-46434000D03*
X92836000Y-44434000D03*
X92836000Y-42434000D03*
X92836000Y-40434000D03*
D10*
G36*
X103344539Y-62665189D02*
X104089539Y-61374811D01*
X105163411Y-61994811D01*
X104418411Y-63285189D01*
X103344539Y-62665189D01*
X103344539Y-62665189D01*
G37*
G36*
X105076589Y-63665189D02*
X105821589Y-62374811D01*
X106895461Y-62994811D01*
X106150461Y-64285189D01*
X105076589Y-63665189D01*
X105076589Y-63665189D01*
G37*
G36*
X76597281Y-68728308D02*
X75543692Y-67674719D01*
X76420505Y-66797906D01*
X77474094Y-67851495D01*
X76597281Y-68728308D01*
X76597281Y-68728308D01*
G37*
G36*
X78011495Y-67314094D02*
X76957906Y-66260505D01*
X77834719Y-65383692D01*
X78888308Y-66437281D01*
X78011495Y-67314094D01*
X78011495Y-67314094D01*
G37*
D13*
X70170000Y-55550000D03*
X68170000Y-55550000D03*
D10*
G36*
X69578563Y-48069619D02*
X68489619Y-49158563D01*
X67824939Y-48493883D01*
X68913883Y-47404939D01*
X69578563Y-48069619D01*
X69578563Y-48069619D01*
G37*
G36*
X68235061Y-46726117D02*
X67146117Y-47815061D01*
X66481437Y-47150381D01*
X67570381Y-46061437D01*
X68235061Y-46726117D01*
X68235061Y-46726117D01*
G37*
G36*
X101591691Y-63923294D02*
X103125831Y-64057513D01*
X103043905Y-64993936D01*
X101509765Y-64859717D01*
X101591691Y-63923294D01*
X101591691Y-63923294D01*
G37*
G36*
X101426095Y-65816064D02*
X102960235Y-65950283D01*
X102878309Y-66886706D01*
X101344169Y-66752487D01*
X101426095Y-65816064D01*
X101426095Y-65816064D01*
G37*
D14*
X73472000Y-64008000D03*
X75372000Y-64008000D03*
X71440000Y-67310000D03*
X73340000Y-67310000D03*
X68900000Y-64516000D03*
X70800000Y-64516000D03*
X74488000Y-60706000D03*
X76388000Y-60706000D03*
D15*
X72390000Y-56962000D03*
X72390000Y-58862000D03*
X66802000Y-62926000D03*
X66802000Y-61026000D03*
D10*
G36*
X103784405Y-72427615D02*
X104404405Y-73501487D01*
X101511881Y-75171487D01*
X100891881Y-74097615D01*
X103784405Y-72427615D01*
X103784405Y-72427615D01*
G37*
G36*
X101784405Y-68963513D02*
X102404405Y-70037385D01*
X99511881Y-71707385D01*
X98891881Y-70633513D01*
X101784405Y-68963513D01*
X101784405Y-68963513D01*
G37*
G36*
X94068119Y-73418513D02*
X94688119Y-74492385D01*
X91795595Y-76162385D01*
X91175595Y-75088513D01*
X94068119Y-73418513D01*
X94068119Y-73418513D01*
G37*
G36*
X96068119Y-76882615D02*
X96688119Y-77956487D01*
X93795595Y-79626487D01*
X93175595Y-78552615D01*
X96068119Y-76882615D01*
X96068119Y-76882615D01*
G37*
D16*
X65238000Y-50663000D03*
X61238000Y-50663000D03*
X61238000Y-59573000D03*
X65238000Y-59573000D03*
X107836000Y-59527000D03*
X111836000Y-59527000D03*
X111836000Y-50617000D03*
X107836000Y-50617000D03*
D10*
G36*
X80179405Y-78552615D02*
X79559405Y-79626487D01*
X76666881Y-77956487D01*
X77286881Y-76882615D01*
X80179405Y-78552615D01*
X80179405Y-78552615D01*
G37*
G36*
X82179405Y-75088513D02*
X81559405Y-76162385D01*
X78666881Y-74492385D01*
X79286881Y-73418513D01*
X82179405Y-75088513D01*
X82179405Y-75088513D01*
G37*
G36*
X74463119Y-70633513D02*
X73843119Y-71707385D01*
X70950595Y-70037385D01*
X71570595Y-68963513D01*
X74463119Y-70633513D01*
X74463119Y-70633513D01*
G37*
G36*
X72463119Y-74097615D02*
X71843119Y-75171487D01*
X68950595Y-73501487D01*
X69570595Y-72427615D01*
X72463119Y-74097615D01*
X72463119Y-74097615D01*
G37*
D17*
X73208000Y-95410000D03*
X80208000Y-95410000D03*
D18*
X74208000Y-92710000D03*
X79208000Y-92710000D03*
D19*
X97888000Y-95510000D03*
X91088000Y-95510000D03*
D20*
X68750000Y-60518000D03*
X68750000Y-61468000D03*
X68750000Y-62418000D03*
X70950000Y-62418000D03*
X70950000Y-60518000D03*
D10*
G36*
X90323584Y-65670397D02*
X91930131Y-64063850D01*
X94686150Y-66819869D01*
X93079603Y-68426416D01*
X90323584Y-65670397D01*
X90323584Y-65670397D01*
G37*
G36*
X86587797Y-71274077D02*
X88194343Y-69667531D01*
X89082469Y-70555657D01*
X87475923Y-72162203D01*
X86587797Y-71274077D01*
X86587797Y-71274077D01*
G37*
G36*
X88204244Y-72890523D02*
X89810790Y-71283977D01*
X90698916Y-72172103D01*
X89092370Y-73778649D01*
X88204244Y-72890523D01*
X88204244Y-72890523D01*
G37*
G36*
X84971351Y-69657630D02*
X86577897Y-68051084D01*
X87466023Y-68939210D01*
X85859477Y-70545756D01*
X84971351Y-69657630D01*
X84971351Y-69657630D01*
G37*
D21*
X80010000Y-62992000D03*
D22*
X83810000Y-62992000D03*
D10*
G36*
X104796308Y-37448719D02*
X103742719Y-38502308D01*
X102865906Y-37625495D01*
X103919495Y-36571906D01*
X104796308Y-37448719D01*
X104796308Y-37448719D01*
G37*
G36*
X103382094Y-36034505D02*
X102328505Y-37088094D01*
X101451692Y-36211281D01*
X102505281Y-35157692D01*
X103382094Y-36034505D01*
X103382094Y-36034505D01*
G37*
D23*
X114464000Y-47498000D03*
X58764000Y-47498000D03*
X58764000Y-63754000D03*
X114464000Y-63754000D03*
D24*
X72898000Y-31242000D03*
X72898000Y-78740000D03*
X100330000Y-78740000D03*
X100330000Y-31242000D03*
D13*
X74025000Y-52070000D03*
X72025000Y-52070000D03*
D25*
X103505000Y-84455000D03*
X52705000Y-55245000D03*
X120650000Y-55245000D03*
X69850000Y-84455000D03*
X69215000Y-25400000D03*
X103505000Y-25400000D03*
D26*
X85050000Y-44760000D03*
D13*
X87500000Y-76020000D03*
X85500000Y-76020000D03*
D14*
X77140000Y-58480000D03*
X79040000Y-58480000D03*
D10*
G36*
X65486077Y-41077039D02*
X66559949Y-41697039D01*
X66214949Y-42294597D01*
X65141077Y-41674597D01*
X65486077Y-41077039D01*
X65486077Y-41077039D01*
G37*
G36*
X65036077Y-41856461D02*
X66109949Y-42476461D01*
X65689949Y-43203923D01*
X64616077Y-42583923D01*
X65036077Y-41856461D01*
X65036077Y-41856461D01*
G37*
G36*
X64536077Y-42722488D02*
X65609949Y-43342488D01*
X65314949Y-43853442D01*
X64241077Y-43233442D01*
X64536077Y-42722488D01*
X64536077Y-42722488D01*
G37*
G36*
X64161077Y-43372007D02*
X65234949Y-43992007D01*
X64864949Y-44632865D01*
X63791077Y-44012865D01*
X64161077Y-43372007D01*
X64161077Y-43372007D01*
G37*
G36*
X64866077Y-67197039D02*
X65939949Y-66577039D01*
X66284949Y-67174597D01*
X65211077Y-67794597D01*
X64866077Y-67197039D01*
X64866077Y-67197039D01*
G37*
G36*
X65316077Y-67976461D02*
X66389949Y-67356461D01*
X66809949Y-68083923D01*
X65736077Y-68703923D01*
X65316077Y-67976461D01*
X65316077Y-67976461D01*
G37*
G36*
X65816077Y-68842488D02*
X66889949Y-68222488D01*
X67184949Y-68733442D01*
X66111077Y-69353442D01*
X65816077Y-68842488D01*
X65816077Y-68842488D01*
G37*
G36*
X66191077Y-69492007D02*
X67264949Y-68872007D01*
X67634949Y-69512865D01*
X66561077Y-70132865D01*
X66191077Y-69492007D01*
X66191077Y-69492007D01*
G37*
D27*
X85505000Y-79540000D03*
D28*
X86480000Y-79540000D03*
D29*
X87355000Y-79540000D03*
D30*
X88180000Y-79540000D03*
D10*
G36*
X107073923Y-69502961D02*
X106000051Y-68882961D01*
X106345051Y-68285403D01*
X107418923Y-68905403D01*
X107073923Y-69502961D01*
X107073923Y-69502961D01*
G37*
G36*
X107523923Y-68723539D02*
X106450051Y-68103539D01*
X106870051Y-67376077D01*
X107943923Y-67996077D01*
X107523923Y-68723539D01*
X107523923Y-68723539D01*
G37*
G36*
X108023923Y-67857512D02*
X106950051Y-67237512D01*
X107245051Y-66726558D01*
X108318923Y-67346558D01*
X108023923Y-67857512D01*
X108023923Y-67857512D01*
G37*
G36*
X108398923Y-67207993D02*
X107325051Y-66587993D01*
X107695051Y-65947135D01*
X108768923Y-66567135D01*
X108398923Y-67207993D01*
X108398923Y-67207993D01*
G37*
G36*
X109193923Y-43882961D02*
X108120051Y-44502961D01*
X107775051Y-43905403D01*
X108848923Y-43285403D01*
X109193923Y-43882961D01*
X109193923Y-43882961D01*
G37*
G36*
X108743923Y-43103539D02*
X107670051Y-43723539D01*
X107250051Y-42996077D01*
X108323923Y-42376077D01*
X108743923Y-43103539D01*
X108743923Y-43103539D01*
G37*
G36*
X108243923Y-42237512D02*
X107170051Y-42857512D01*
X106875051Y-42346558D01*
X107948923Y-41726558D01*
X108243923Y-42237512D01*
X108243923Y-42237512D01*
G37*
G36*
X107868923Y-41587993D02*
X106795051Y-42207993D01*
X106425051Y-41567135D01*
X107498923Y-40947135D01*
X107868923Y-41587993D01*
X107868923Y-41587993D01*
G37*
D27*
X87555000Y-30540000D03*
D28*
X86580000Y-30540000D03*
D29*
X85705000Y-30540000D03*
D30*
X84880000Y-30540000D03*
M02*
