G04 #@! TF.FileFunction,Soldermask,Bot*
%FSLAX46Y46*%
G04 Gerber Fmt 4.6, Leading zero omitted, Abs format (unit mm)*
G04 Created by KiCad (PCBNEW 4.0.2+dfsg1-stable) date Sun 09 Sep 2018 02:34:44 AM EDT*
%MOMM*%
G01*
G04 APERTURE LIST*
%ADD10C,0.100000*%
%ADD11C,0.010000*%
%ADD12C,8.400000*%
G04 APERTURE END LIST*
D10*
D11*
G36*
X91622571Y-91962285D02*
X90933142Y-91962285D01*
X90933142Y-94030571D01*
X91622571Y-94030571D01*
X91622571Y-94683714D01*
X92312000Y-94683714D01*
X92312000Y-95373142D01*
X93001428Y-95373142D01*
X93001428Y-96752000D01*
X93654571Y-96752000D01*
X93654571Y-97405142D01*
X90933142Y-97405142D01*
X90933142Y-98094571D01*
X95033428Y-98094571D01*
X95033428Y-96715714D01*
X94344000Y-96715714D01*
X94344000Y-95373142D01*
X93690857Y-95373142D01*
X93690857Y-94683714D01*
X93001428Y-94683714D01*
X93001428Y-93994285D01*
X92312000Y-93994285D01*
X92312000Y-91962285D01*
X93654571Y-91962285D01*
X93654571Y-93341142D01*
X95033428Y-93341142D01*
X95033428Y-91962285D01*
X94344000Y-91962285D01*
X94344000Y-91272857D01*
X91622571Y-91272857D01*
X91622571Y-91962285D01*
X91622571Y-91962285D01*
G37*
X91622571Y-91962285D02*
X90933142Y-91962285D01*
X90933142Y-94030571D01*
X91622571Y-94030571D01*
X91622571Y-94683714D01*
X92312000Y-94683714D01*
X92312000Y-95373142D01*
X93001428Y-95373142D01*
X93001428Y-96752000D01*
X93654571Y-96752000D01*
X93654571Y-97405142D01*
X90933142Y-97405142D01*
X90933142Y-98094571D01*
X95033428Y-98094571D01*
X95033428Y-96715714D01*
X94344000Y-96715714D01*
X94344000Y-95373142D01*
X93690857Y-95373142D01*
X93690857Y-94683714D01*
X93001428Y-94683714D01*
X93001428Y-93994285D01*
X92312000Y-93994285D01*
X92312000Y-91962285D01*
X93654571Y-91962285D01*
X93654571Y-93341142D01*
X95033428Y-93341142D01*
X95033428Y-91962285D01*
X94344000Y-91962285D01*
X94344000Y-91272857D01*
X91622571Y-91272857D01*
X91622571Y-91962285D01*
G36*
X86724000Y-91962285D02*
X86034571Y-91962285D01*
X86034571Y-97405142D01*
X86724000Y-97405142D01*
X86724000Y-98094571D01*
X89445428Y-98094571D01*
X89445428Y-97405142D01*
X90134857Y-97405142D01*
X90134857Y-91962285D01*
X89445428Y-91962285D01*
X88756000Y-91962285D01*
X88756000Y-97405142D01*
X87413428Y-97405142D01*
X87413428Y-91962285D01*
X88756000Y-91962285D01*
X89445428Y-91962285D01*
X89445428Y-91272857D01*
X86724000Y-91272857D01*
X86724000Y-91962285D01*
X86724000Y-91962285D01*
G37*
X86724000Y-91962285D02*
X86034571Y-91962285D01*
X86034571Y-97405142D01*
X86724000Y-97405142D01*
X86724000Y-98094571D01*
X89445428Y-98094571D01*
X89445428Y-97405142D01*
X90134857Y-97405142D01*
X90134857Y-91962285D01*
X89445428Y-91962285D01*
X88756000Y-91962285D01*
X88756000Y-97405142D01*
X87413428Y-97405142D01*
X87413428Y-91962285D01*
X88756000Y-91962285D01*
X89445428Y-91962285D01*
X89445428Y-91272857D01*
X86724000Y-91272857D01*
X86724000Y-91962285D01*
G36*
X83204285Y-97405142D02*
X82514857Y-97405142D01*
X82514857Y-98094571D01*
X85236285Y-98094571D01*
X85236285Y-97405142D01*
X84546857Y-97405142D01*
X84546857Y-92651714D01*
X85236285Y-92651714D01*
X85236285Y-91962285D01*
X84546857Y-91962285D01*
X84546857Y-91272857D01*
X83204285Y-91272857D01*
X83204285Y-97405142D01*
X83204285Y-97405142D01*
G37*
X83204285Y-97405142D02*
X82514857Y-97405142D01*
X82514857Y-98094571D01*
X85236285Y-98094571D01*
X85236285Y-97405142D01*
X84546857Y-97405142D01*
X84546857Y-92651714D01*
X85236285Y-92651714D01*
X85236285Y-91962285D01*
X84546857Y-91962285D01*
X84546857Y-91272857D01*
X83204285Y-91272857D01*
X83204285Y-97405142D01*
G36*
X78269428Y-91962285D02*
X77580000Y-91962285D01*
X77580000Y-97405142D01*
X78269428Y-97405142D01*
X78269428Y-98094571D01*
X80990857Y-98094571D01*
X80990857Y-97405142D01*
X81680285Y-97405142D01*
X81680285Y-96715714D01*
X80301428Y-96715714D01*
X80301428Y-97405142D01*
X78958857Y-97405142D01*
X78958857Y-95373142D01*
X80990857Y-95373142D01*
X80990857Y-94683714D01*
X81680285Y-94683714D01*
X81680285Y-91962285D01*
X80990857Y-91962285D01*
X80301428Y-91962285D01*
X80301428Y-94683714D01*
X78958857Y-94683714D01*
X78958857Y-91962285D01*
X80301428Y-91962285D01*
X80990857Y-91962285D01*
X80990857Y-91272857D01*
X78269428Y-91272857D01*
X78269428Y-91962285D01*
X78269428Y-91962285D01*
G37*
X78269428Y-91962285D02*
X77580000Y-91962285D01*
X77580000Y-97405142D01*
X78269428Y-97405142D01*
X78269428Y-98094571D01*
X80990857Y-98094571D01*
X80990857Y-97405142D01*
X81680285Y-97405142D01*
X81680285Y-96715714D01*
X80301428Y-96715714D01*
X80301428Y-97405142D01*
X78958857Y-97405142D01*
X78958857Y-95373142D01*
X80990857Y-95373142D01*
X80990857Y-94683714D01*
X81680285Y-94683714D01*
X81680285Y-91962285D01*
X80990857Y-91962285D01*
X80301428Y-91962285D01*
X80301428Y-94683714D01*
X78958857Y-94683714D01*
X78958857Y-91962285D01*
X80301428Y-91962285D01*
X80990857Y-91962285D01*
X80990857Y-91272857D01*
X78269428Y-91272857D01*
X78269428Y-91962285D01*
G36*
X124126996Y-74795113D02*
X123773128Y-74449284D01*
X123463997Y-74152652D01*
X123212917Y-73917807D01*
X123033208Y-73757329D01*
X122938185Y-73683806D01*
X122928223Y-73680578D01*
X122864486Y-73737269D01*
X122717465Y-73889930D01*
X122499355Y-74125212D01*
X122222353Y-74429766D01*
X121898650Y-74790243D01*
X121540442Y-75193295D01*
X121372578Y-75383483D01*
X120997680Y-75808518D01*
X120647825Y-76203988D01*
X120336116Y-76555168D01*
X120075663Y-76847334D01*
X119879575Y-77065758D01*
X119760957Y-77195717D01*
X119738232Y-77219538D01*
X119704669Y-77235123D01*
X119684451Y-77194703D01*
X119678634Y-77087664D01*
X119688274Y-76903396D01*
X119714427Y-76631284D01*
X119758152Y-76260716D01*
X119820503Y-75781081D01*
X119902538Y-75181765D01*
X120005312Y-74452156D01*
X120033249Y-74256004D01*
X120477417Y-71142692D01*
X118103641Y-68770488D01*
X117617551Y-68286361D01*
X117160662Y-67834476D01*
X116743599Y-67425115D01*
X116376988Y-67068562D01*
X116071455Y-66775101D01*
X115837624Y-66555013D01*
X115686121Y-66418585D01*
X115629373Y-66375902D01*
X115526033Y-66413189D01*
X115502661Y-66464596D01*
X115507073Y-66563473D01*
X115532885Y-66785507D01*
X115577259Y-67110753D01*
X115637359Y-67519264D01*
X115710347Y-67991094D01*
X115791624Y-68495587D01*
X116106809Y-70415502D01*
X115314663Y-72276169D01*
X115106824Y-72759638D01*
X114915221Y-73196359D01*
X114747624Y-73569331D01*
X114611803Y-73861558D01*
X114515527Y-74056042D01*
X114466567Y-74135784D01*
X114464148Y-74136837D01*
X114442840Y-74138962D01*
X114427105Y-74135476D01*
X114419669Y-74111587D01*
X114423257Y-74052503D01*
X114440591Y-73943431D01*
X114474396Y-73769581D01*
X114527394Y-73516161D01*
X114602312Y-73168377D01*
X114701872Y-72711438D01*
X114828798Y-72130554D01*
X114859398Y-71990458D01*
X114975268Y-71455762D01*
X115080817Y-70960854D01*
X115172009Y-70525284D01*
X115244809Y-70168605D01*
X115295179Y-69910369D01*
X115319083Y-69770126D01*
X115320371Y-69757354D01*
X115316870Y-69712332D01*
X115295539Y-69656386D01*
X115247903Y-69580421D01*
X115165486Y-69475335D01*
X115039815Y-69332032D01*
X114862414Y-69141417D01*
X114624808Y-68894389D01*
X114318521Y-68581851D01*
X113935080Y-68194708D01*
X113466007Y-67723859D01*
X112902830Y-67160208D01*
X112875459Y-67132837D01*
X112352770Y-66612013D01*
X111872674Y-66137301D01*
X111443878Y-65717090D01*
X111075091Y-65359765D01*
X110775023Y-65073719D01*
X110552380Y-64867338D01*
X110415872Y-64749011D01*
X110374344Y-64723546D01*
X110309795Y-64699344D01*
X110206177Y-64571799D01*
X110180686Y-64532336D01*
X110095475Y-64426072D01*
X109920110Y-64231282D01*
X109667576Y-63961558D01*
X109350858Y-63630497D01*
X108982939Y-63251694D01*
X108576804Y-62838746D01*
X108229528Y-62489354D01*
X106426116Y-60683494D01*
X106701076Y-60068755D01*
X107672433Y-59828896D01*
X108029390Y-59734792D01*
X108333817Y-59643279D01*
X108558604Y-59563351D01*
X108676640Y-59504009D01*
X108686923Y-59492185D01*
X108681241Y-59459126D01*
X108641897Y-59396082D01*
X108562536Y-59296448D01*
X108436795Y-59153617D01*
X108258314Y-58960986D01*
X108020734Y-58711948D01*
X107717694Y-58399898D01*
X107342835Y-58018230D01*
X106889796Y-57560340D01*
X106352218Y-57019622D01*
X105723741Y-56389472D01*
X105057761Y-55723036D01*
X104350978Y-55016583D01*
X103739466Y-54406266D01*
X103216143Y-53885308D01*
X102773929Y-53446934D01*
X102405741Y-53084368D01*
X102104499Y-52790835D01*
X101863122Y-52559560D01*
X101674527Y-52383766D01*
X101531634Y-52256680D01*
X101427362Y-52171524D01*
X101354629Y-52121523D01*
X101306353Y-52099902D01*
X101275455Y-52099886D01*
X101272377Y-52101103D01*
X101205308Y-52182582D01*
X101095688Y-52373588D01*
X100956297Y-52649464D01*
X100799915Y-52985555D01*
X100720541Y-53165713D01*
X100563339Y-53528560D01*
X100423263Y-53850851D01*
X100311951Y-54105887D01*
X100241040Y-54266967D01*
X100224939Y-54302712D01*
X100213440Y-54315853D01*
X100192025Y-54316722D01*
X100155762Y-54300503D01*
X100099719Y-54262385D01*
X100018964Y-54197551D01*
X99908565Y-54101189D01*
X99763591Y-53968484D01*
X99579107Y-53794623D01*
X99350183Y-53574791D01*
X99071888Y-53304175D01*
X98739288Y-52977960D01*
X98347452Y-52591332D01*
X97891447Y-52139478D01*
X97366342Y-51617584D01*
X96767205Y-51020835D01*
X96089103Y-50344418D01*
X95327104Y-49583518D01*
X94476277Y-48733322D01*
X93531689Y-47789015D01*
X92721813Y-46979191D01*
X91679338Y-45936968D01*
X90734698Y-44993143D01*
X89883338Y-44143241D01*
X89120700Y-43382790D01*
X88442227Y-42707317D01*
X87843362Y-42112348D01*
X87319550Y-41593411D01*
X86866232Y-41146031D01*
X86478854Y-40765737D01*
X86152856Y-40448055D01*
X85883684Y-40188512D01*
X85666779Y-39982635D01*
X85497586Y-39825951D01*
X85371547Y-39713986D01*
X85284107Y-39642268D01*
X85230706Y-39606323D01*
X85206791Y-39601678D01*
X85206554Y-39601902D01*
X85163523Y-39681884D01*
X85072621Y-39876272D01*
X84942205Y-40165664D01*
X84780630Y-40530657D01*
X84596253Y-40951848D01*
X84397430Y-41409835D01*
X84192517Y-41885215D01*
X83989868Y-42358583D01*
X83797843Y-42810539D01*
X83624794Y-43221680D01*
X83479080Y-43572600D01*
X83369056Y-43843900D01*
X83303077Y-44016175D01*
X83294014Y-44042833D01*
X83225544Y-44256601D01*
X84747873Y-45778930D01*
X82813376Y-50335875D01*
X80878880Y-54892821D01*
X82456685Y-56497734D01*
X84034489Y-58102647D01*
X83889946Y-58613975D01*
X83758939Y-59194236D01*
X83660101Y-59871875D01*
X83596573Y-60602058D01*
X83571496Y-61339950D01*
X83588014Y-62040719D01*
X83621428Y-62445096D01*
X83797921Y-63389016D01*
X84116467Y-64336598D01*
X84574149Y-65284439D01*
X85168054Y-66229132D01*
X85895261Y-67167273D01*
X86752855Y-68095457D01*
X87737920Y-69010279D01*
X88847539Y-69908334D01*
X90078794Y-70786217D01*
X91428769Y-71640523D01*
X91570535Y-71724733D01*
X92002773Y-71980228D01*
X92456409Y-72248723D01*
X92890410Y-72505907D01*
X93263739Y-72727470D01*
X93433128Y-72828186D01*
X94464889Y-73523662D01*
X95395261Y-74319646D01*
X96218876Y-75210124D01*
X96930363Y-76189085D01*
X97524351Y-77250516D01*
X97676338Y-77578489D01*
X97760045Y-77797028D01*
X97856350Y-78105421D01*
X97967493Y-78512637D01*
X98095714Y-79027644D01*
X98243253Y-79659410D01*
X98412353Y-80416903D01*
X98586186Y-81219891D01*
X98725593Y-81867068D01*
X98857249Y-82470172D01*
X98977799Y-83014418D01*
X99083891Y-83485026D01*
X99172169Y-83867217D01*
X99239279Y-84146207D01*
X99281866Y-84307216D01*
X99294550Y-84341376D01*
X99342421Y-84443181D01*
X99386886Y-84617825D01*
X99387862Y-84623125D01*
X99437239Y-84870159D01*
X99473341Y-84977203D01*
X99502161Y-84948129D01*
X99529693Y-84786801D01*
X99537816Y-84719936D01*
X99568358Y-84501061D01*
X99598994Y-84349482D01*
X99614383Y-84309817D01*
X99628525Y-84231586D01*
X99652694Y-84025281D01*
X99685461Y-83707515D01*
X99725396Y-83294903D01*
X99771072Y-82804063D01*
X99821061Y-82251607D01*
X99873933Y-81654150D01*
X99928262Y-81028308D01*
X99982618Y-80390697D01*
X100035574Y-79757931D01*
X100085701Y-79146624D01*
X100097672Y-78997028D01*
X99047939Y-77947296D01*
X99015774Y-77942585D01*
X98968213Y-77835919D01*
X98895197Y-77620100D01*
X98696281Y-77107154D01*
X98417669Y-76526595D01*
X98079036Y-75916611D01*
X97733530Y-75365471D01*
X97543181Y-75088331D01*
X97354319Y-74837374D01*
X97143754Y-74585779D01*
X96888304Y-74306726D01*
X96564780Y-73973391D01*
X96304857Y-73712774D01*
X95880215Y-73297450D01*
X95499790Y-72945945D01*
X95137018Y-72638680D01*
X94765326Y-72356076D01*
X94358148Y-72078554D01*
X93888914Y-71786535D01*
X93331056Y-71460441D01*
X92972037Y-71256771D01*
X91476095Y-70365787D01*
X90099760Y-69443109D01*
X88818231Y-68471640D01*
X88257839Y-68007172D01*
X87997109Y-67767467D01*
X87675223Y-67445114D01*
X87320864Y-67071461D01*
X86962722Y-66677856D01*
X86629480Y-66295646D01*
X86349825Y-65956178D01*
X86198136Y-65756352D01*
X85675307Y-64967063D01*
X85273543Y-64214238D01*
X84983903Y-63469795D01*
X84797451Y-62705653D01*
X84705250Y-61893727D01*
X84697213Y-61040152D01*
X84736729Y-60321375D01*
X84809709Y-59700579D01*
X84923410Y-59132990D01*
X85085087Y-58573833D01*
X85107795Y-58505947D01*
X85200858Y-58250821D01*
X85340571Y-57893600D01*
X85351588Y-57866376D01*
X84126433Y-56641221D01*
X83159005Y-55679291D01*
X82191576Y-54717361D01*
X82300256Y-54434094D01*
X82347276Y-54318842D01*
X82446133Y-54082243D01*
X82591683Y-53736441D01*
X82778782Y-53293580D01*
X83002285Y-52765804D01*
X83257050Y-52165255D01*
X83537933Y-51504078D01*
X83839789Y-50794416D01*
X84157474Y-50048414D01*
X84238632Y-49857974D01*
X86068329Y-45565122D01*
X85295303Y-44789491D01*
X84522277Y-44013861D01*
X84598761Y-43808108D01*
X84656934Y-43661554D01*
X84754835Y-43425256D01*
X84881116Y-43125605D01*
X85024431Y-42788992D01*
X85173432Y-42441811D01*
X85316774Y-42110451D01*
X85443108Y-41821304D01*
X85541087Y-41600762D01*
X85599366Y-41475217D01*
X85609800Y-41456548D01*
X85664553Y-41501009D01*
X85811326Y-41638207D01*
X86039753Y-41857997D01*
X86339473Y-42150240D01*
X86700121Y-42504793D01*
X87111331Y-42911513D01*
X87562740Y-43360258D01*
X87938675Y-43735525D01*
X90242601Y-46039451D01*
X89727700Y-47243629D01*
X89560120Y-47635483D01*
X89411047Y-47983941D01*
X89290375Y-48265887D01*
X89208002Y-48458198D01*
X89174841Y-48535409D01*
X89132946Y-48545515D01*
X89035161Y-48487159D01*
X88869811Y-48350862D01*
X88625217Y-48127144D01*
X88356451Y-47870966D01*
X87576020Y-47118920D01*
X85799345Y-51294871D01*
X85436002Y-52148817D01*
X85125273Y-52880514D01*
X84863275Y-53501404D01*
X84646123Y-54022935D01*
X84469935Y-54456551D01*
X84330825Y-54813698D01*
X84224913Y-55105820D01*
X84148312Y-55344362D01*
X84097140Y-55540771D01*
X84067513Y-55706491D01*
X84055547Y-55852966D01*
X84057359Y-55991644D01*
X84069066Y-56133968D01*
X84086783Y-56291384D01*
X84091098Y-56329148D01*
X84126433Y-56641221D01*
X85351588Y-57866376D01*
X85518762Y-57453266D01*
X85727260Y-56948796D01*
X85957894Y-56399169D01*
X86202494Y-55823363D01*
X86452887Y-55240359D01*
X86700904Y-54669133D01*
X86938371Y-54128666D01*
X87157120Y-53637936D01*
X87348978Y-53215922D01*
X87505775Y-52881603D01*
X87619339Y-52653957D01*
X87654431Y-52590921D01*
X87965158Y-52155896D01*
X88295316Y-51862752D01*
X88649360Y-51709004D01*
X89031747Y-51692164D01*
X89204315Y-51725956D01*
X89317549Y-51764269D01*
X89438511Y-51828588D01*
X89585801Y-51933618D01*
X89778016Y-52094068D01*
X90033755Y-52324643D01*
X90371614Y-52640051D01*
X90430530Y-52695591D01*
X91382114Y-53593432D01*
X91541995Y-53466470D01*
X91676887Y-53304727D01*
X91822680Y-53044687D01*
X91961135Y-52730241D01*
X92074019Y-52405277D01*
X92143094Y-52113687D01*
X92155655Y-51989523D01*
X92165389Y-51656973D01*
X90884929Y-50376513D01*
X89604469Y-49096054D01*
X90152666Y-47822541D01*
X90700863Y-46549029D01*
X92181002Y-48001903D01*
X92709867Y-48525591D01*
X93141311Y-48967655D01*
X93484782Y-49344685D01*
X93749730Y-49673267D01*
X93945602Y-49969989D01*
X94081845Y-50251440D01*
X94167911Y-50534207D01*
X94213246Y-50834877D01*
X94227299Y-51170040D01*
X94219519Y-51556282D01*
X94218649Y-51579233D01*
X94195932Y-51911088D01*
X94149069Y-52229592D01*
X94069374Y-52573921D01*
X93948166Y-52983251D01*
X93824586Y-53357081D01*
X93594442Y-53988341D01*
X93339085Y-54609742D01*
X93071171Y-55195057D01*
X92803355Y-55718058D01*
X92548293Y-56152518D01*
X92325358Y-56464153D01*
X91990074Y-56794676D01*
X91648452Y-56982077D01*
X91294949Y-57028370D01*
X90974400Y-56955802D01*
X90828878Y-56893205D01*
X90683565Y-56810243D01*
X90517868Y-56690746D01*
X90311196Y-56518544D01*
X90042955Y-56277466D01*
X89692552Y-55951340D01*
X89678579Y-55938217D01*
X88739156Y-55055734D01*
X88057444Y-56661675D01*
X87796370Y-57279975D01*
X87587332Y-57784427D01*
X87423695Y-58193935D01*
X87298821Y-58527408D01*
X87206076Y-58803750D01*
X87138825Y-59041869D01*
X87090430Y-59260672D01*
X87054258Y-59479064D01*
X87044890Y-59546641D01*
X87022683Y-60147953D01*
X87100724Y-60814312D01*
X87271881Y-61513111D01*
X87529024Y-62211741D01*
X87712580Y-62599803D01*
X87855863Y-62851461D01*
X88032936Y-63105944D01*
X88266756Y-63393071D01*
X88580279Y-63742662D01*
X88651407Y-63819308D01*
X88964137Y-64145089D01*
X89268956Y-64438460D01*
X89584196Y-64712678D01*
X89928193Y-64981004D01*
X90319284Y-65256695D01*
X90775802Y-65553014D01*
X91316082Y-65883217D01*
X91958460Y-66260566D01*
X92297602Y-66456105D01*
X93065729Y-66899714D01*
X93721406Y-67285289D01*
X94280049Y-67623471D01*
X94757079Y-67924897D01*
X95167914Y-68200205D01*
X95527974Y-68460034D01*
X95852676Y-68715024D01*
X96157439Y-68975810D01*
X96457683Y-69253034D01*
X96715770Y-69504495D01*
X97057042Y-69846820D01*
X97314629Y-70116096D01*
X97510611Y-70338677D01*
X97667066Y-70540916D01*
X97806072Y-70749167D01*
X97926466Y-70949678D01*
X98304151Y-71671244D01*
X98604520Y-72413767D01*
X98832412Y-73198941D01*
X98992668Y-74048458D01*
X99090128Y-74984009D01*
X99129633Y-76027289D01*
X99130953Y-76347708D01*
X99127339Y-76787685D01*
X99119329Y-77186143D01*
X99107820Y-77516923D01*
X99093716Y-77753866D01*
X99078552Y-77868833D01*
X99047939Y-77947296D01*
X100097672Y-78997028D01*
X100131570Y-78573393D01*
X100171754Y-78054853D01*
X100204825Y-77607617D01*
X100229355Y-77248301D01*
X100243913Y-76993520D01*
X100244579Y-76978720D01*
X100256119Y-76527909D01*
X100256640Y-76013594D01*
X100246502Y-75516965D01*
X100237141Y-75292738D01*
X100221530Y-74955541D01*
X100211990Y-74673308D01*
X100209310Y-74476476D01*
X100213879Y-74396214D01*
X100268055Y-74434500D01*
X100412601Y-74564434D01*
X100635663Y-74774618D01*
X100925391Y-75053658D01*
X101269933Y-75390158D01*
X101657438Y-75772725D01*
X101992844Y-76106719D01*
X102846792Y-76959882D01*
X103604267Y-77715777D01*
X104271149Y-78380048D01*
X104853319Y-78958337D01*
X105356654Y-79456288D01*
X105787035Y-79879542D01*
X106150342Y-80233744D01*
X106452454Y-80524534D01*
X106699251Y-80757558D01*
X106896612Y-80938457D01*
X107050416Y-81072873D01*
X107166545Y-81166451D01*
X107250877Y-81224832D01*
X107309292Y-81253660D01*
X107347668Y-81258577D01*
X107357751Y-81255562D01*
X107439611Y-81181021D01*
X107582267Y-81015875D01*
X107763858Y-80788825D01*
X107962517Y-80528570D01*
X108156382Y-80263811D01*
X108323588Y-80023248D01*
X108442270Y-79835580D01*
X108450277Y-79821457D01*
X108513541Y-79761128D01*
X108605010Y-79804958D01*
X108682495Y-79878864D01*
X108743549Y-79950298D01*
X108780320Y-80030870D01*
X108791078Y-80144076D01*
X108774095Y-80313408D01*
X108727640Y-80562363D01*
X108649985Y-80914434D01*
X108585758Y-81193311D01*
X108321186Y-82335127D01*
X110885489Y-84926039D01*
X111474353Y-85520287D01*
X111969866Y-86018469D01*
X112380125Y-86428323D01*
X112713225Y-86757585D01*
X112977262Y-87013993D01*
X113180331Y-87205285D01*
X113330527Y-87339197D01*
X113435948Y-87423466D01*
X113504687Y-87465830D01*
X113544842Y-87474027D01*
X113549805Y-87472407D01*
X113607662Y-87394454D01*
X113710208Y-87203313D01*
X113847247Y-86920165D01*
X114008580Y-86566185D01*
X114184009Y-86162550D01*
X114208963Y-86103641D01*
X114768106Y-84779419D01*
X115837337Y-85820853D01*
X116159173Y-86138007D01*
X116442068Y-86423834D01*
X116670514Y-86662078D01*
X116829000Y-86836489D01*
X116902019Y-86930809D01*
X116905102Y-86939934D01*
X116877113Y-87028011D01*
X116800029Y-87227274D01*
X116682748Y-87515860D01*
X116534168Y-87871901D01*
X116363190Y-88273534D01*
X116347864Y-88309175D01*
X116174378Y-88716890D01*
X116021832Y-89084032D01*
X115899370Y-89387890D01*
X115816134Y-89605751D01*
X115781265Y-89714901D01*
X115780876Y-89717844D01*
X115800704Y-89769446D01*
X115870911Y-89866109D01*
X115998516Y-90015231D01*
X116190538Y-90224216D01*
X116453997Y-90500464D01*
X116795911Y-90851377D01*
X117223301Y-91284356D01*
X117743185Y-91806803D01*
X118111774Y-92175629D01*
X118596626Y-92658900D01*
X119053778Y-93112078D01*
X119472260Y-93524470D01*
X119841103Y-93885378D01*
X120149336Y-94184105D01*
X120385991Y-94409953D01*
X120540094Y-94552227D01*
X120596764Y-94598795D01*
X120739640Y-94681248D01*
X120742765Y-94452793D01*
X120731734Y-94319492D01*
X120699072Y-94065632D01*
X120648112Y-93713634D01*
X120582191Y-93285920D01*
X120533601Y-92984537D01*
X119128803Y-91579739D01*
X119069119Y-91542691D01*
X118924727Y-91415678D01*
X118711278Y-91213594D01*
X118444423Y-90951331D01*
X118139812Y-90643780D01*
X118069864Y-90572116D01*
X117049236Y-89523704D01*
X118695269Y-85648705D01*
X118995529Y-84940664D01*
X119278123Y-84271987D01*
X119538037Y-83654693D01*
X119770259Y-83100796D01*
X119969775Y-82622312D01*
X120131572Y-82231259D01*
X120250636Y-81939652D01*
X120321957Y-81759506D01*
X120341302Y-81703182D01*
X120301667Y-81712911D01*
X120199992Y-81813965D01*
X120113605Y-81916260D01*
X120001551Y-82047938D01*
X119807256Y-82267765D01*
X119547182Y-82557475D01*
X119237793Y-82898802D01*
X118895550Y-83273480D01*
X118630627Y-83561680D01*
X118277121Y-83946397D01*
X117946435Y-84308541D01*
X117654502Y-84630489D01*
X117417252Y-84894617D01*
X117250619Y-85083296D01*
X117181026Y-85165367D01*
X116986708Y-85407233D01*
X115681265Y-84099501D01*
X116099578Y-81064084D01*
X116208307Y-80275895D01*
X116298722Y-79620527D01*
X116372003Y-79086973D01*
X116429327Y-78664225D01*
X116471874Y-78341278D01*
X116500821Y-78107122D01*
X116517349Y-77950751D01*
X116522636Y-77861160D01*
X116517860Y-77827340D01*
X116504199Y-77838284D01*
X116482834Y-77882983D01*
X116454942Y-77950434D01*
X116425454Y-78020984D01*
X116374033Y-78141121D01*
X116271551Y-78381444D01*
X116123707Y-78728555D01*
X115936202Y-79169057D01*
X115714739Y-79689551D01*
X115465015Y-80276641D01*
X115192736Y-80916928D01*
X114903599Y-81597016D01*
X114750568Y-81957029D01*
X114458901Y-82642515D01*
X114184044Y-83287108D01*
X113931257Y-83878571D01*
X113705796Y-84404671D01*
X113512918Y-84853170D01*
X113357883Y-85211836D01*
X113245946Y-85468430D01*
X113182365Y-85610719D01*
X113169721Y-85636045D01*
X113111139Y-85597806D01*
X112968844Y-85472860D01*
X112760906Y-85277975D01*
X112505392Y-85029922D01*
X112341773Y-84867557D01*
X111543555Y-84069340D01*
X111565280Y-84014090D01*
X111433631Y-83882441D01*
X111372720Y-83846220D01*
X111227084Y-83721989D01*
X111013666Y-83525325D01*
X110749409Y-83271805D01*
X110479525Y-83005310D01*
X110148146Y-82671925D01*
X109907300Y-82423255D01*
X109743350Y-82242947D01*
X109642657Y-82114648D01*
X109591584Y-82022004D01*
X109576493Y-81948664D01*
X109577273Y-81923452D01*
X109598091Y-81795842D01*
X109646272Y-81556811D01*
X109715491Y-81236116D01*
X109799424Y-80863517D01*
X109837777Y-80697701D01*
X110084802Y-79638076D01*
X109251872Y-78803245D01*
X108922719Y-78477235D01*
X108680602Y-78247378D01*
X108513721Y-78103540D01*
X108410270Y-78035585D01*
X108358451Y-78033379D01*
X108357027Y-78034787D01*
X108294178Y-78116793D01*
X108166616Y-78293537D01*
X107991992Y-78540249D01*
X107787957Y-78832158D01*
X107755579Y-78878784D01*
X107511547Y-79222920D01*
X107334217Y-79454228D01*
X107214430Y-79583628D01*
X107143028Y-79622033D01*
X107133873Y-79619812D01*
X107056758Y-79556881D01*
X106899516Y-79408159D01*
X106681990Y-79193083D01*
X106424020Y-78931088D01*
X106298797Y-78801788D01*
X105545893Y-78020361D01*
X106113254Y-77230610D01*
X105628128Y-76745485D01*
X105477159Y-76889076D01*
X105349478Y-76971552D01*
X105210469Y-77018267D01*
X105126103Y-77036098D01*
X104939028Y-77065007D01*
X104772822Y-77066640D01*
X104611015Y-77030383D01*
X104437137Y-76945623D01*
X104234715Y-76801746D01*
X103987279Y-76588142D01*
X103678360Y-76294193D01*
X103291485Y-75909291D01*
X103139350Y-75755906D01*
X102756194Y-75366050D01*
X102361861Y-74959803D01*
X101983840Y-74565844D01*
X101649623Y-74212845D01*
X101386701Y-73929482D01*
X101356048Y-73895789D01*
X100721580Y-73196048D01*
X100723518Y-73191483D01*
X100134700Y-72602666D01*
X100077159Y-72562698D01*
X99933426Y-72434386D01*
X99719294Y-72232663D01*
X99450559Y-71972453D01*
X99143015Y-71668689D01*
X99079475Y-71605260D01*
X98768938Y-71291934D01*
X98499064Y-71014280D01*
X98284777Y-70788101D01*
X98140998Y-70629196D01*
X98082650Y-70553368D01*
X98082510Y-70549596D01*
X98095349Y-70544159D01*
X95318650Y-67767460D01*
X95261546Y-67726151D01*
X95112545Y-67591855D01*
X94882007Y-67374592D01*
X94580289Y-67084383D01*
X94217746Y-66731248D01*
X93804741Y-66325209D01*
X93351628Y-65876285D01*
X92954383Y-65480167D01*
X90626655Y-63152440D01*
X91121714Y-61979736D01*
X91286749Y-61589444D01*
X91435145Y-61239714D01*
X91556476Y-60955018D01*
X91640317Y-60759830D01*
X91673558Y-60684214D01*
X91696219Y-60652970D01*
X91733910Y-60648736D01*
X91798474Y-60681861D01*
X91901752Y-60762690D01*
X92055590Y-60901572D01*
X92271830Y-61108854D01*
X92562314Y-61394885D01*
X92938887Y-61770010D01*
X93095700Y-61926751D01*
X93459398Y-62287680D01*
X93789528Y-62610007D01*
X94072389Y-62880780D01*
X94294278Y-63087046D01*
X94441491Y-63215854D01*
X94500250Y-63254327D01*
X94540637Y-63177337D01*
X94625574Y-62990684D01*
X94744268Y-62718881D01*
X94885921Y-62386441D01*
X94955279Y-62221198D01*
X95371114Y-61225851D01*
X93196883Y-59051620D01*
X93725051Y-57811971D01*
X93893288Y-57416915D01*
X94041863Y-57067673D01*
X94161415Y-56786272D01*
X94242588Y-56594743D01*
X94275888Y-56515443D01*
X94331242Y-56547311D01*
X94473237Y-56668569D01*
X94686719Y-56865148D01*
X94956531Y-57122979D01*
X95267518Y-57427992D01*
X95385955Y-57545959D01*
X95761880Y-57919342D01*
X96048239Y-58197265D01*
X96255734Y-58389211D01*
X96395068Y-58504663D01*
X96476943Y-58553105D01*
X96512061Y-58544017D01*
X96512135Y-58543848D01*
X96554253Y-58445732D01*
X96641042Y-58242938D01*
X96760183Y-57964273D01*
X96899354Y-57638547D01*
X96911343Y-57610478D01*
X97271768Y-56766614D01*
X95894845Y-55362402D01*
X94517920Y-53958189D01*
X94915951Y-53028916D01*
X95313980Y-52099644D01*
X95211364Y-51501592D01*
X95108748Y-50903542D01*
X97498679Y-53320159D01*
X99888611Y-55736777D01*
X95188803Y-66806376D01*
X95271997Y-67266701D01*
X95309574Y-67509473D01*
X95325899Y-67690803D01*
X95318650Y-67767460D01*
X98095349Y-70544159D01*
X98164020Y-70515081D01*
X98338096Y-70460453D01*
X98449636Y-70429222D01*
X98787413Y-70338197D01*
X100696585Y-65832902D01*
X98203647Y-63339963D01*
X97912878Y-63414938D01*
X97735078Y-63443775D01*
X97633739Y-63427174D01*
X97624568Y-63408865D01*
X97652931Y-63310904D01*
X97729371Y-63107252D01*
X97844351Y-62820052D01*
X97988331Y-62471450D01*
X98151773Y-62083591D01*
X98325140Y-61678620D01*
X98498893Y-61278679D01*
X98663495Y-60905915D01*
X98809405Y-60582471D01*
X98927087Y-60330494D01*
X99007003Y-60172127D01*
X99037871Y-60127638D01*
X99102608Y-60176990D01*
X99255739Y-60316244D01*
X99483509Y-60532194D01*
X99772160Y-60811631D01*
X100107935Y-61141350D01*
X100477075Y-61508143D01*
X100504701Y-61535758D01*
X100921786Y-61952137D01*
X101248349Y-62275629D01*
X101496029Y-62516448D01*
X101676468Y-62684802D01*
X101801304Y-62790907D01*
X101882180Y-62844973D01*
X101930734Y-62857210D01*
X101958608Y-62837833D01*
X101968304Y-62819755D01*
X102011840Y-62719265D01*
X102103313Y-62505966D01*
X102233851Y-62200613D01*
X102394588Y-61823963D01*
X102576655Y-61396771D01*
X102674966Y-61165892D01*
X103326147Y-59636154D01*
X100894426Y-57204433D01*
X100573798Y-57294332D01*
X100375364Y-57340574D01*
X100242068Y-57354174D01*
X100216176Y-57347236D01*
X100234991Y-57275911D01*
X100301984Y-57093256D01*
X100408018Y-56821287D01*
X100543950Y-56482019D01*
X100700641Y-56097468D01*
X100868952Y-55689648D01*
X101039740Y-55280576D01*
X101203868Y-54892267D01*
X101352194Y-54546736D01*
X101475579Y-54265999D01*
X101564881Y-54072071D01*
X101610962Y-53986967D01*
X101611473Y-53986434D01*
X101667857Y-54029391D01*
X101816564Y-54165559D01*
X102047595Y-54385205D01*
X102350949Y-54678599D01*
X102716630Y-55036010D01*
X103134639Y-55447705D01*
X103594973Y-55903955D01*
X104087638Y-56395029D01*
X104134063Y-56441441D01*
X106622861Y-58930240D01*
X106243429Y-59038308D01*
X105863998Y-59146376D01*
X103013804Y-65860066D01*
X102616490Y-66795565D01*
X102235052Y-67692940D01*
X101873321Y-68543219D01*
X101535129Y-69337425D01*
X101224310Y-70066583D01*
X100944695Y-70721719D01*
X100700116Y-71293858D01*
X100494407Y-71774026D01*
X100331398Y-72153245D01*
X100214923Y-72422544D01*
X100148814Y-72572945D01*
X100134700Y-72602666D01*
X100723518Y-73191483D01*
X103610393Y-66386184D01*
X106100410Y-68876202D01*
X105764838Y-69652780D01*
X105621900Y-69988331D01*
X105530144Y-70230547D01*
X105482549Y-70419058D01*
X105472094Y-70593488D01*
X105491757Y-70793466D01*
X105525401Y-71004131D01*
X105621535Y-71578903D01*
X104916293Y-70873661D01*
X104658188Y-70620816D01*
X104437006Y-70414069D01*
X104272227Y-70270879D01*
X104183335Y-70208706D01*
X104174251Y-70208593D01*
X104134956Y-70286404D01*
X104051108Y-70474140D01*
X103933275Y-70747455D01*
X103792021Y-71082006D01*
X103716080Y-71264237D01*
X103294709Y-72279707D01*
X104013845Y-73027389D01*
X104334805Y-73356059D01*
X104575546Y-73585471D01*
X104752821Y-73724360D01*
X104883384Y-73781460D01*
X104983989Y-73765507D01*
X105071391Y-73685234D01*
X105126122Y-73607267D01*
X105180984Y-73499536D01*
X105284161Y-73275478D01*
X105428128Y-72952739D01*
X105605360Y-72548965D01*
X105808335Y-72081800D01*
X106029525Y-71568889D01*
X106261405Y-71027877D01*
X106496454Y-70476409D01*
X106727143Y-69932131D01*
X106945949Y-69412688D01*
X107145346Y-68935725D01*
X107317812Y-68518887D01*
X107455819Y-68179819D01*
X107551844Y-67936166D01*
X107593447Y-67821594D01*
X107641566Y-67670143D01*
X107670278Y-67542266D01*
X107669941Y-67422591D01*
X107630915Y-67295747D01*
X107543559Y-67146363D01*
X107398232Y-66959070D01*
X107185294Y-66718495D01*
X106895103Y-66409269D01*
X106518019Y-66016019D01*
X106354162Y-65845745D01*
X105048995Y-64489263D01*
X105461281Y-63515271D01*
X105621489Y-63133643D01*
X105731424Y-62854682D01*
X105797888Y-62647603D01*
X105827685Y-62481622D01*
X105827620Y-62325957D01*
X105804494Y-62149824D01*
X105786387Y-62044326D01*
X105699207Y-61547374D01*
X107380904Y-63201200D01*
X107845985Y-63661961D01*
X108264534Y-64083300D01*
X108625156Y-64453368D01*
X108916460Y-64760310D01*
X109127053Y-64992278D01*
X109245542Y-65137418D01*
X109253613Y-65149332D01*
X109531537Y-65710512D01*
X109685017Y-66344865D01*
X109713999Y-67050776D01*
X109618427Y-67826627D01*
X109398249Y-68670800D01*
X109374283Y-68744152D01*
X109312146Y-68912031D01*
X109199737Y-69195680D01*
X109044431Y-69577666D01*
X108853608Y-70040558D01*
X108634643Y-70566922D01*
X108394910Y-71139326D01*
X108141789Y-71740336D01*
X107882656Y-72352521D01*
X107624885Y-72958447D01*
X107375855Y-73540682D01*
X107142941Y-74081793D01*
X106933521Y-74564347D01*
X106754970Y-74970912D01*
X106614665Y-75284053D01*
X106530688Y-75464370D01*
X106142666Y-76128907D01*
X105837006Y-76515423D01*
X105628128Y-76745485D01*
X106113254Y-77230610D01*
X108870922Y-73392010D01*
X109481011Y-72543238D01*
X110012311Y-71804240D01*
X110470098Y-71166474D01*
X110859643Y-70621391D01*
X111186221Y-70160445D01*
X111455105Y-69775093D01*
X111671569Y-69456785D01*
X111840887Y-69196978D01*
X111968333Y-68987125D01*
X112059178Y-68818681D01*
X112118700Y-68683099D01*
X112152169Y-68571832D01*
X112164860Y-68476336D01*
X112162046Y-68388065D01*
X112149002Y-68298472D01*
X112131001Y-68199011D01*
X112119519Y-68127650D01*
X112084767Y-67888120D01*
X113119385Y-68919486D01*
X114154004Y-69950854D01*
X112736588Y-76513038D01*
X112493082Y-77641832D01*
X112279048Y-78637686D01*
X112092785Y-79509413D01*
X111932591Y-80265827D01*
X111796763Y-80915744D01*
X111683602Y-81467976D01*
X111591405Y-81931339D01*
X111518469Y-82314646D01*
X111463096Y-82626714D01*
X111423581Y-82876354D01*
X111398224Y-83072382D01*
X111385324Y-83223612D01*
X111383178Y-83338859D01*
X111390086Y-83426937D01*
X111395589Y-83459532D01*
X111431568Y-83679879D01*
X111442525Y-83836294D01*
X111433631Y-83882441D01*
X111565280Y-84014090D01*
X111695624Y-83682593D01*
X111745550Y-83560931D01*
X111848085Y-83315591D01*
X111999045Y-82956465D01*
X112194247Y-82493448D01*
X112429506Y-81936429D01*
X112700638Y-81295303D01*
X113003458Y-80579962D01*
X113333783Y-79800297D01*
X113687429Y-78966202D01*
X114060211Y-78087569D01*
X114447944Y-77174289D01*
X114562240Y-76905185D01*
X115305228Y-75156022D01*
X114448543Y-74299337D01*
X114397227Y-74299337D01*
X114397228Y-74248021D01*
X114448542Y-74248021D01*
X114448543Y-74299337D01*
X115305228Y-75156022D01*
X117276788Y-70514522D01*
X117187323Y-70004640D01*
X117146334Y-69751631D01*
X117122057Y-69562155D01*
X117119261Y-69474056D01*
X117120239Y-69472379D01*
X117175710Y-69514532D01*
X117318001Y-69645082D01*
X117531778Y-69849321D01*
X117801705Y-70112542D01*
X118112449Y-70420036D01*
X118215995Y-70523374D01*
X119289371Y-71596750D01*
X118620342Y-76187585D01*
X118503878Y-76987389D01*
X118393727Y-77745102D01*
X118291657Y-78448455D01*
X118199443Y-79085176D01*
X118118855Y-79642996D01*
X118051666Y-80109642D01*
X117999647Y-80472847D01*
X117964571Y-80720339D01*
X117948211Y-80839848D01*
X117947229Y-80848635D01*
X117984889Y-80846520D01*
X118083726Y-80754852D01*
X118120378Y-80713890D01*
X118205546Y-80616987D01*
X118376269Y-80424098D01*
X118621543Y-80147607D01*
X118930369Y-79799895D01*
X119291745Y-79393348D01*
X119694672Y-78940346D01*
X120128149Y-78453274D01*
X120376344Y-78174508D01*
X120825296Y-77669787D01*
X121252364Y-77188620D01*
X121646084Y-76744004D01*
X121994988Y-76348933D01*
X122287612Y-76016399D01*
X122512487Y-75759398D01*
X122658149Y-75590922D01*
X122698812Y-75542577D01*
X122942546Y-75245068D01*
X124680736Y-77039431D01*
X122309856Y-82622493D01*
X121934234Y-83507205D01*
X121565025Y-84377145D01*
X121207601Y-85219638D01*
X120867333Y-86022013D01*
X120549591Y-86771596D01*
X120259743Y-87455716D01*
X120003161Y-88061699D01*
X119785214Y-88576874D01*
X119611273Y-88988567D01*
X119486707Y-89284106D01*
X119453790Y-89362472D01*
X118968604Y-90519388D01*
X119067858Y-91029169D01*
X119111636Y-91284848D01*
X119133955Y-91480669D01*
X119130465Y-91577319D01*
X119128803Y-91579739D01*
X120533601Y-92984537D01*
X120504641Y-92804909D01*
X120440787Y-92422276D01*
X120135685Y-90620215D01*
X122928993Y-84042710D01*
X123325838Y-83107947D01*
X123708920Y-82205028D01*
X124074121Y-81343682D01*
X124417330Y-80533640D01*
X124734431Y-79784633D01*
X125021309Y-79106391D01*
X125273849Y-78508644D01*
X125487937Y-78001123D01*
X125659457Y-77593558D01*
X125784296Y-77295680D01*
X125858337Y-77117219D01*
X125874096Y-77078187D01*
X126025891Y-76691167D01*
X124512282Y-75177558D01*
X124126996Y-74795113D01*
X124126996Y-74795113D01*
G37*
X124126996Y-74795113D02*
X123773128Y-74449284D01*
X123463997Y-74152652D01*
X123212917Y-73917807D01*
X123033208Y-73757329D01*
X122938185Y-73683806D01*
X122928223Y-73680578D01*
X122864486Y-73737269D01*
X122717465Y-73889930D01*
X122499355Y-74125212D01*
X122222353Y-74429766D01*
X121898650Y-74790243D01*
X121540442Y-75193295D01*
X121372578Y-75383483D01*
X120997680Y-75808518D01*
X120647825Y-76203988D01*
X120336116Y-76555168D01*
X120075663Y-76847334D01*
X119879575Y-77065758D01*
X119760957Y-77195717D01*
X119738232Y-77219538D01*
X119704669Y-77235123D01*
X119684451Y-77194703D01*
X119678634Y-77087664D01*
X119688274Y-76903396D01*
X119714427Y-76631284D01*
X119758152Y-76260716D01*
X119820503Y-75781081D01*
X119902538Y-75181765D01*
X120005312Y-74452156D01*
X120033249Y-74256004D01*
X120477417Y-71142692D01*
X118103641Y-68770488D01*
X117617551Y-68286361D01*
X117160662Y-67834476D01*
X116743599Y-67425115D01*
X116376988Y-67068562D01*
X116071455Y-66775101D01*
X115837624Y-66555013D01*
X115686121Y-66418585D01*
X115629373Y-66375902D01*
X115526033Y-66413189D01*
X115502661Y-66464596D01*
X115507073Y-66563473D01*
X115532885Y-66785507D01*
X115577259Y-67110753D01*
X115637359Y-67519264D01*
X115710347Y-67991094D01*
X115791624Y-68495587D01*
X116106809Y-70415502D01*
X115314663Y-72276169D01*
X115106824Y-72759638D01*
X114915221Y-73196359D01*
X114747624Y-73569331D01*
X114611803Y-73861558D01*
X114515527Y-74056042D01*
X114466567Y-74135784D01*
X114464148Y-74136837D01*
X114442840Y-74138962D01*
X114427105Y-74135476D01*
X114419669Y-74111587D01*
X114423257Y-74052503D01*
X114440591Y-73943431D01*
X114474396Y-73769581D01*
X114527394Y-73516161D01*
X114602312Y-73168377D01*
X114701872Y-72711438D01*
X114828798Y-72130554D01*
X114859398Y-71990458D01*
X114975268Y-71455762D01*
X115080817Y-70960854D01*
X115172009Y-70525284D01*
X115244809Y-70168605D01*
X115295179Y-69910369D01*
X115319083Y-69770126D01*
X115320371Y-69757354D01*
X115316870Y-69712332D01*
X115295539Y-69656386D01*
X115247903Y-69580421D01*
X115165486Y-69475335D01*
X115039815Y-69332032D01*
X114862414Y-69141417D01*
X114624808Y-68894389D01*
X114318521Y-68581851D01*
X113935080Y-68194708D01*
X113466007Y-67723859D01*
X112902830Y-67160208D01*
X112875459Y-67132837D01*
X112352770Y-66612013D01*
X111872674Y-66137301D01*
X111443878Y-65717090D01*
X111075091Y-65359765D01*
X110775023Y-65073719D01*
X110552380Y-64867338D01*
X110415872Y-64749011D01*
X110374344Y-64723546D01*
X110309795Y-64699344D01*
X110206177Y-64571799D01*
X110180686Y-64532336D01*
X110095475Y-64426072D01*
X109920110Y-64231282D01*
X109667576Y-63961558D01*
X109350858Y-63630497D01*
X108982939Y-63251694D01*
X108576804Y-62838746D01*
X108229528Y-62489354D01*
X106426116Y-60683494D01*
X106701076Y-60068755D01*
X107672433Y-59828896D01*
X108029390Y-59734792D01*
X108333817Y-59643279D01*
X108558604Y-59563351D01*
X108676640Y-59504009D01*
X108686923Y-59492185D01*
X108681241Y-59459126D01*
X108641897Y-59396082D01*
X108562536Y-59296448D01*
X108436795Y-59153617D01*
X108258314Y-58960986D01*
X108020734Y-58711948D01*
X107717694Y-58399898D01*
X107342835Y-58018230D01*
X106889796Y-57560340D01*
X106352218Y-57019622D01*
X105723741Y-56389472D01*
X105057761Y-55723036D01*
X104350978Y-55016583D01*
X103739466Y-54406266D01*
X103216143Y-53885308D01*
X102773929Y-53446934D01*
X102405741Y-53084368D01*
X102104499Y-52790835D01*
X101863122Y-52559560D01*
X101674527Y-52383766D01*
X101531634Y-52256680D01*
X101427362Y-52171524D01*
X101354629Y-52121523D01*
X101306353Y-52099902D01*
X101275455Y-52099886D01*
X101272377Y-52101103D01*
X101205308Y-52182582D01*
X101095688Y-52373588D01*
X100956297Y-52649464D01*
X100799915Y-52985555D01*
X100720541Y-53165713D01*
X100563339Y-53528560D01*
X100423263Y-53850851D01*
X100311951Y-54105887D01*
X100241040Y-54266967D01*
X100224939Y-54302712D01*
X100213440Y-54315853D01*
X100192025Y-54316722D01*
X100155762Y-54300503D01*
X100099719Y-54262385D01*
X100018964Y-54197551D01*
X99908565Y-54101189D01*
X99763591Y-53968484D01*
X99579107Y-53794623D01*
X99350183Y-53574791D01*
X99071888Y-53304175D01*
X98739288Y-52977960D01*
X98347452Y-52591332D01*
X97891447Y-52139478D01*
X97366342Y-51617584D01*
X96767205Y-51020835D01*
X96089103Y-50344418D01*
X95327104Y-49583518D01*
X94476277Y-48733322D01*
X93531689Y-47789015D01*
X92721813Y-46979191D01*
X91679338Y-45936968D01*
X90734698Y-44993143D01*
X89883338Y-44143241D01*
X89120700Y-43382790D01*
X88442227Y-42707317D01*
X87843362Y-42112348D01*
X87319550Y-41593411D01*
X86866232Y-41146031D01*
X86478854Y-40765737D01*
X86152856Y-40448055D01*
X85883684Y-40188512D01*
X85666779Y-39982635D01*
X85497586Y-39825951D01*
X85371547Y-39713986D01*
X85284107Y-39642268D01*
X85230706Y-39606323D01*
X85206791Y-39601678D01*
X85206554Y-39601902D01*
X85163523Y-39681884D01*
X85072621Y-39876272D01*
X84942205Y-40165664D01*
X84780630Y-40530657D01*
X84596253Y-40951848D01*
X84397430Y-41409835D01*
X84192517Y-41885215D01*
X83989868Y-42358583D01*
X83797843Y-42810539D01*
X83624794Y-43221680D01*
X83479080Y-43572600D01*
X83369056Y-43843900D01*
X83303077Y-44016175D01*
X83294014Y-44042833D01*
X83225544Y-44256601D01*
X84747873Y-45778930D01*
X82813376Y-50335875D01*
X80878880Y-54892821D01*
X82456685Y-56497734D01*
X84034489Y-58102647D01*
X83889946Y-58613975D01*
X83758939Y-59194236D01*
X83660101Y-59871875D01*
X83596573Y-60602058D01*
X83571496Y-61339950D01*
X83588014Y-62040719D01*
X83621428Y-62445096D01*
X83797921Y-63389016D01*
X84116467Y-64336598D01*
X84574149Y-65284439D01*
X85168054Y-66229132D01*
X85895261Y-67167273D01*
X86752855Y-68095457D01*
X87737920Y-69010279D01*
X88847539Y-69908334D01*
X90078794Y-70786217D01*
X91428769Y-71640523D01*
X91570535Y-71724733D01*
X92002773Y-71980228D01*
X92456409Y-72248723D01*
X92890410Y-72505907D01*
X93263739Y-72727470D01*
X93433128Y-72828186D01*
X94464889Y-73523662D01*
X95395261Y-74319646D01*
X96218876Y-75210124D01*
X96930363Y-76189085D01*
X97524351Y-77250516D01*
X97676338Y-77578489D01*
X97760045Y-77797028D01*
X97856350Y-78105421D01*
X97967493Y-78512637D01*
X98095714Y-79027644D01*
X98243253Y-79659410D01*
X98412353Y-80416903D01*
X98586186Y-81219891D01*
X98725593Y-81867068D01*
X98857249Y-82470172D01*
X98977799Y-83014418D01*
X99083891Y-83485026D01*
X99172169Y-83867217D01*
X99239279Y-84146207D01*
X99281866Y-84307216D01*
X99294550Y-84341376D01*
X99342421Y-84443181D01*
X99386886Y-84617825D01*
X99387862Y-84623125D01*
X99437239Y-84870159D01*
X99473341Y-84977203D01*
X99502161Y-84948129D01*
X99529693Y-84786801D01*
X99537816Y-84719936D01*
X99568358Y-84501061D01*
X99598994Y-84349482D01*
X99614383Y-84309817D01*
X99628525Y-84231586D01*
X99652694Y-84025281D01*
X99685461Y-83707515D01*
X99725396Y-83294903D01*
X99771072Y-82804063D01*
X99821061Y-82251607D01*
X99873933Y-81654150D01*
X99928262Y-81028308D01*
X99982618Y-80390697D01*
X100035574Y-79757931D01*
X100085701Y-79146624D01*
X100097672Y-78997028D01*
X99047939Y-77947296D01*
X99015774Y-77942585D01*
X98968213Y-77835919D01*
X98895197Y-77620100D01*
X98696281Y-77107154D01*
X98417669Y-76526595D01*
X98079036Y-75916611D01*
X97733530Y-75365471D01*
X97543181Y-75088331D01*
X97354319Y-74837374D01*
X97143754Y-74585779D01*
X96888304Y-74306726D01*
X96564780Y-73973391D01*
X96304857Y-73712774D01*
X95880215Y-73297450D01*
X95499790Y-72945945D01*
X95137018Y-72638680D01*
X94765326Y-72356076D01*
X94358148Y-72078554D01*
X93888914Y-71786535D01*
X93331056Y-71460441D01*
X92972037Y-71256771D01*
X91476095Y-70365787D01*
X90099760Y-69443109D01*
X88818231Y-68471640D01*
X88257839Y-68007172D01*
X87997109Y-67767467D01*
X87675223Y-67445114D01*
X87320864Y-67071461D01*
X86962722Y-66677856D01*
X86629480Y-66295646D01*
X86349825Y-65956178D01*
X86198136Y-65756352D01*
X85675307Y-64967063D01*
X85273543Y-64214238D01*
X84983903Y-63469795D01*
X84797451Y-62705653D01*
X84705250Y-61893727D01*
X84697213Y-61040152D01*
X84736729Y-60321375D01*
X84809709Y-59700579D01*
X84923410Y-59132990D01*
X85085087Y-58573833D01*
X85107795Y-58505947D01*
X85200858Y-58250821D01*
X85340571Y-57893600D01*
X85351588Y-57866376D01*
X84126433Y-56641221D01*
X83159005Y-55679291D01*
X82191576Y-54717361D01*
X82300256Y-54434094D01*
X82347276Y-54318842D01*
X82446133Y-54082243D01*
X82591683Y-53736441D01*
X82778782Y-53293580D01*
X83002285Y-52765804D01*
X83257050Y-52165255D01*
X83537933Y-51504078D01*
X83839789Y-50794416D01*
X84157474Y-50048414D01*
X84238632Y-49857974D01*
X86068329Y-45565122D01*
X85295303Y-44789491D01*
X84522277Y-44013861D01*
X84598761Y-43808108D01*
X84656934Y-43661554D01*
X84754835Y-43425256D01*
X84881116Y-43125605D01*
X85024431Y-42788992D01*
X85173432Y-42441811D01*
X85316774Y-42110451D01*
X85443108Y-41821304D01*
X85541087Y-41600762D01*
X85599366Y-41475217D01*
X85609800Y-41456548D01*
X85664553Y-41501009D01*
X85811326Y-41638207D01*
X86039753Y-41857997D01*
X86339473Y-42150240D01*
X86700121Y-42504793D01*
X87111331Y-42911513D01*
X87562740Y-43360258D01*
X87938675Y-43735525D01*
X90242601Y-46039451D01*
X89727700Y-47243629D01*
X89560120Y-47635483D01*
X89411047Y-47983941D01*
X89290375Y-48265887D01*
X89208002Y-48458198D01*
X89174841Y-48535409D01*
X89132946Y-48545515D01*
X89035161Y-48487159D01*
X88869811Y-48350862D01*
X88625217Y-48127144D01*
X88356451Y-47870966D01*
X87576020Y-47118920D01*
X85799345Y-51294871D01*
X85436002Y-52148817D01*
X85125273Y-52880514D01*
X84863275Y-53501404D01*
X84646123Y-54022935D01*
X84469935Y-54456551D01*
X84330825Y-54813698D01*
X84224913Y-55105820D01*
X84148312Y-55344362D01*
X84097140Y-55540771D01*
X84067513Y-55706491D01*
X84055547Y-55852966D01*
X84057359Y-55991644D01*
X84069066Y-56133968D01*
X84086783Y-56291384D01*
X84091098Y-56329148D01*
X84126433Y-56641221D01*
X85351588Y-57866376D01*
X85518762Y-57453266D01*
X85727260Y-56948796D01*
X85957894Y-56399169D01*
X86202494Y-55823363D01*
X86452887Y-55240359D01*
X86700904Y-54669133D01*
X86938371Y-54128666D01*
X87157120Y-53637936D01*
X87348978Y-53215922D01*
X87505775Y-52881603D01*
X87619339Y-52653957D01*
X87654431Y-52590921D01*
X87965158Y-52155896D01*
X88295316Y-51862752D01*
X88649360Y-51709004D01*
X89031747Y-51692164D01*
X89204315Y-51725956D01*
X89317549Y-51764269D01*
X89438511Y-51828588D01*
X89585801Y-51933618D01*
X89778016Y-52094068D01*
X90033755Y-52324643D01*
X90371614Y-52640051D01*
X90430530Y-52695591D01*
X91382114Y-53593432D01*
X91541995Y-53466470D01*
X91676887Y-53304727D01*
X91822680Y-53044687D01*
X91961135Y-52730241D01*
X92074019Y-52405277D01*
X92143094Y-52113687D01*
X92155655Y-51989523D01*
X92165389Y-51656973D01*
X90884929Y-50376513D01*
X89604469Y-49096054D01*
X90152666Y-47822541D01*
X90700863Y-46549029D01*
X92181002Y-48001903D01*
X92709867Y-48525591D01*
X93141311Y-48967655D01*
X93484782Y-49344685D01*
X93749730Y-49673267D01*
X93945602Y-49969989D01*
X94081845Y-50251440D01*
X94167911Y-50534207D01*
X94213246Y-50834877D01*
X94227299Y-51170040D01*
X94219519Y-51556282D01*
X94218649Y-51579233D01*
X94195932Y-51911088D01*
X94149069Y-52229592D01*
X94069374Y-52573921D01*
X93948166Y-52983251D01*
X93824586Y-53357081D01*
X93594442Y-53988341D01*
X93339085Y-54609742D01*
X93071171Y-55195057D01*
X92803355Y-55718058D01*
X92548293Y-56152518D01*
X92325358Y-56464153D01*
X91990074Y-56794676D01*
X91648452Y-56982077D01*
X91294949Y-57028370D01*
X90974400Y-56955802D01*
X90828878Y-56893205D01*
X90683565Y-56810243D01*
X90517868Y-56690746D01*
X90311196Y-56518544D01*
X90042955Y-56277466D01*
X89692552Y-55951340D01*
X89678579Y-55938217D01*
X88739156Y-55055734D01*
X88057444Y-56661675D01*
X87796370Y-57279975D01*
X87587332Y-57784427D01*
X87423695Y-58193935D01*
X87298821Y-58527408D01*
X87206076Y-58803750D01*
X87138825Y-59041869D01*
X87090430Y-59260672D01*
X87054258Y-59479064D01*
X87044890Y-59546641D01*
X87022683Y-60147953D01*
X87100724Y-60814312D01*
X87271881Y-61513111D01*
X87529024Y-62211741D01*
X87712580Y-62599803D01*
X87855863Y-62851461D01*
X88032936Y-63105944D01*
X88266756Y-63393071D01*
X88580279Y-63742662D01*
X88651407Y-63819308D01*
X88964137Y-64145089D01*
X89268956Y-64438460D01*
X89584196Y-64712678D01*
X89928193Y-64981004D01*
X90319284Y-65256695D01*
X90775802Y-65553014D01*
X91316082Y-65883217D01*
X91958460Y-66260566D01*
X92297602Y-66456105D01*
X93065729Y-66899714D01*
X93721406Y-67285289D01*
X94280049Y-67623471D01*
X94757079Y-67924897D01*
X95167914Y-68200205D01*
X95527974Y-68460034D01*
X95852676Y-68715024D01*
X96157439Y-68975810D01*
X96457683Y-69253034D01*
X96715770Y-69504495D01*
X97057042Y-69846820D01*
X97314629Y-70116096D01*
X97510611Y-70338677D01*
X97667066Y-70540916D01*
X97806072Y-70749167D01*
X97926466Y-70949678D01*
X98304151Y-71671244D01*
X98604520Y-72413767D01*
X98832412Y-73198941D01*
X98992668Y-74048458D01*
X99090128Y-74984009D01*
X99129633Y-76027289D01*
X99130953Y-76347708D01*
X99127339Y-76787685D01*
X99119329Y-77186143D01*
X99107820Y-77516923D01*
X99093716Y-77753866D01*
X99078552Y-77868833D01*
X99047939Y-77947296D01*
X100097672Y-78997028D01*
X100131570Y-78573393D01*
X100171754Y-78054853D01*
X100204825Y-77607617D01*
X100229355Y-77248301D01*
X100243913Y-76993520D01*
X100244579Y-76978720D01*
X100256119Y-76527909D01*
X100256640Y-76013594D01*
X100246502Y-75516965D01*
X100237141Y-75292738D01*
X100221530Y-74955541D01*
X100211990Y-74673308D01*
X100209310Y-74476476D01*
X100213879Y-74396214D01*
X100268055Y-74434500D01*
X100412601Y-74564434D01*
X100635663Y-74774618D01*
X100925391Y-75053658D01*
X101269933Y-75390158D01*
X101657438Y-75772725D01*
X101992844Y-76106719D01*
X102846792Y-76959882D01*
X103604267Y-77715777D01*
X104271149Y-78380048D01*
X104853319Y-78958337D01*
X105356654Y-79456288D01*
X105787035Y-79879542D01*
X106150342Y-80233744D01*
X106452454Y-80524534D01*
X106699251Y-80757558D01*
X106896612Y-80938457D01*
X107050416Y-81072873D01*
X107166545Y-81166451D01*
X107250877Y-81224832D01*
X107309292Y-81253660D01*
X107347668Y-81258577D01*
X107357751Y-81255562D01*
X107439611Y-81181021D01*
X107582267Y-81015875D01*
X107763858Y-80788825D01*
X107962517Y-80528570D01*
X108156382Y-80263811D01*
X108323588Y-80023248D01*
X108442270Y-79835580D01*
X108450277Y-79821457D01*
X108513541Y-79761128D01*
X108605010Y-79804958D01*
X108682495Y-79878864D01*
X108743549Y-79950298D01*
X108780320Y-80030870D01*
X108791078Y-80144076D01*
X108774095Y-80313408D01*
X108727640Y-80562363D01*
X108649985Y-80914434D01*
X108585758Y-81193311D01*
X108321186Y-82335127D01*
X110885489Y-84926039D01*
X111474353Y-85520287D01*
X111969866Y-86018469D01*
X112380125Y-86428323D01*
X112713225Y-86757585D01*
X112977262Y-87013993D01*
X113180331Y-87205285D01*
X113330527Y-87339197D01*
X113435948Y-87423466D01*
X113504687Y-87465830D01*
X113544842Y-87474027D01*
X113549805Y-87472407D01*
X113607662Y-87394454D01*
X113710208Y-87203313D01*
X113847247Y-86920165D01*
X114008580Y-86566185D01*
X114184009Y-86162550D01*
X114208963Y-86103641D01*
X114768106Y-84779419D01*
X115837337Y-85820853D01*
X116159173Y-86138007D01*
X116442068Y-86423834D01*
X116670514Y-86662078D01*
X116829000Y-86836489D01*
X116902019Y-86930809D01*
X116905102Y-86939934D01*
X116877113Y-87028011D01*
X116800029Y-87227274D01*
X116682748Y-87515860D01*
X116534168Y-87871901D01*
X116363190Y-88273534D01*
X116347864Y-88309175D01*
X116174378Y-88716890D01*
X116021832Y-89084032D01*
X115899370Y-89387890D01*
X115816134Y-89605751D01*
X115781265Y-89714901D01*
X115780876Y-89717844D01*
X115800704Y-89769446D01*
X115870911Y-89866109D01*
X115998516Y-90015231D01*
X116190538Y-90224216D01*
X116453997Y-90500464D01*
X116795911Y-90851377D01*
X117223301Y-91284356D01*
X117743185Y-91806803D01*
X118111774Y-92175629D01*
X118596626Y-92658900D01*
X119053778Y-93112078D01*
X119472260Y-93524470D01*
X119841103Y-93885378D01*
X120149336Y-94184105D01*
X120385991Y-94409953D01*
X120540094Y-94552227D01*
X120596764Y-94598795D01*
X120739640Y-94681248D01*
X120742765Y-94452793D01*
X120731734Y-94319492D01*
X120699072Y-94065632D01*
X120648112Y-93713634D01*
X120582191Y-93285920D01*
X120533601Y-92984537D01*
X119128803Y-91579739D01*
X119069119Y-91542691D01*
X118924727Y-91415678D01*
X118711278Y-91213594D01*
X118444423Y-90951331D01*
X118139812Y-90643780D01*
X118069864Y-90572116D01*
X117049236Y-89523704D01*
X118695269Y-85648705D01*
X118995529Y-84940664D01*
X119278123Y-84271987D01*
X119538037Y-83654693D01*
X119770259Y-83100796D01*
X119969775Y-82622312D01*
X120131572Y-82231259D01*
X120250636Y-81939652D01*
X120321957Y-81759506D01*
X120341302Y-81703182D01*
X120301667Y-81712911D01*
X120199992Y-81813965D01*
X120113605Y-81916260D01*
X120001551Y-82047938D01*
X119807256Y-82267765D01*
X119547182Y-82557475D01*
X119237793Y-82898802D01*
X118895550Y-83273480D01*
X118630627Y-83561680D01*
X118277121Y-83946397D01*
X117946435Y-84308541D01*
X117654502Y-84630489D01*
X117417252Y-84894617D01*
X117250619Y-85083296D01*
X117181026Y-85165367D01*
X116986708Y-85407233D01*
X115681265Y-84099501D01*
X116099578Y-81064084D01*
X116208307Y-80275895D01*
X116298722Y-79620527D01*
X116372003Y-79086973D01*
X116429327Y-78664225D01*
X116471874Y-78341278D01*
X116500821Y-78107122D01*
X116517349Y-77950751D01*
X116522636Y-77861160D01*
X116517860Y-77827340D01*
X116504199Y-77838284D01*
X116482834Y-77882983D01*
X116454942Y-77950434D01*
X116425454Y-78020984D01*
X116374033Y-78141121D01*
X116271551Y-78381444D01*
X116123707Y-78728555D01*
X115936202Y-79169057D01*
X115714739Y-79689551D01*
X115465015Y-80276641D01*
X115192736Y-80916928D01*
X114903599Y-81597016D01*
X114750568Y-81957029D01*
X114458901Y-82642515D01*
X114184044Y-83287108D01*
X113931257Y-83878571D01*
X113705796Y-84404671D01*
X113512918Y-84853170D01*
X113357883Y-85211836D01*
X113245946Y-85468430D01*
X113182365Y-85610719D01*
X113169721Y-85636045D01*
X113111139Y-85597806D01*
X112968844Y-85472860D01*
X112760906Y-85277975D01*
X112505392Y-85029922D01*
X112341773Y-84867557D01*
X111543555Y-84069340D01*
X111565280Y-84014090D01*
X111433631Y-83882441D01*
X111372720Y-83846220D01*
X111227084Y-83721989D01*
X111013666Y-83525325D01*
X110749409Y-83271805D01*
X110479525Y-83005310D01*
X110148146Y-82671925D01*
X109907300Y-82423255D01*
X109743350Y-82242947D01*
X109642657Y-82114648D01*
X109591584Y-82022004D01*
X109576493Y-81948664D01*
X109577273Y-81923452D01*
X109598091Y-81795842D01*
X109646272Y-81556811D01*
X109715491Y-81236116D01*
X109799424Y-80863517D01*
X109837777Y-80697701D01*
X110084802Y-79638076D01*
X109251872Y-78803245D01*
X108922719Y-78477235D01*
X108680602Y-78247378D01*
X108513721Y-78103540D01*
X108410270Y-78035585D01*
X108358451Y-78033379D01*
X108357027Y-78034787D01*
X108294178Y-78116793D01*
X108166616Y-78293537D01*
X107991992Y-78540249D01*
X107787957Y-78832158D01*
X107755579Y-78878784D01*
X107511547Y-79222920D01*
X107334217Y-79454228D01*
X107214430Y-79583628D01*
X107143028Y-79622033D01*
X107133873Y-79619812D01*
X107056758Y-79556881D01*
X106899516Y-79408159D01*
X106681990Y-79193083D01*
X106424020Y-78931088D01*
X106298797Y-78801788D01*
X105545893Y-78020361D01*
X106113254Y-77230610D01*
X105628128Y-76745485D01*
X105477159Y-76889076D01*
X105349478Y-76971552D01*
X105210469Y-77018267D01*
X105126103Y-77036098D01*
X104939028Y-77065007D01*
X104772822Y-77066640D01*
X104611015Y-77030383D01*
X104437137Y-76945623D01*
X104234715Y-76801746D01*
X103987279Y-76588142D01*
X103678360Y-76294193D01*
X103291485Y-75909291D01*
X103139350Y-75755906D01*
X102756194Y-75366050D01*
X102361861Y-74959803D01*
X101983840Y-74565844D01*
X101649623Y-74212845D01*
X101386701Y-73929482D01*
X101356048Y-73895789D01*
X100721580Y-73196048D01*
X100723518Y-73191483D01*
X100134700Y-72602666D01*
X100077159Y-72562698D01*
X99933426Y-72434386D01*
X99719294Y-72232663D01*
X99450559Y-71972453D01*
X99143015Y-71668689D01*
X99079475Y-71605260D01*
X98768938Y-71291934D01*
X98499064Y-71014280D01*
X98284777Y-70788101D01*
X98140998Y-70629196D01*
X98082650Y-70553368D01*
X98082510Y-70549596D01*
X98095349Y-70544159D01*
X95318650Y-67767460D01*
X95261546Y-67726151D01*
X95112545Y-67591855D01*
X94882007Y-67374592D01*
X94580289Y-67084383D01*
X94217746Y-66731248D01*
X93804741Y-66325209D01*
X93351628Y-65876285D01*
X92954383Y-65480167D01*
X90626655Y-63152440D01*
X91121714Y-61979736D01*
X91286749Y-61589444D01*
X91435145Y-61239714D01*
X91556476Y-60955018D01*
X91640317Y-60759830D01*
X91673558Y-60684214D01*
X91696219Y-60652970D01*
X91733910Y-60648736D01*
X91798474Y-60681861D01*
X91901752Y-60762690D01*
X92055590Y-60901572D01*
X92271830Y-61108854D01*
X92562314Y-61394885D01*
X92938887Y-61770010D01*
X93095700Y-61926751D01*
X93459398Y-62287680D01*
X93789528Y-62610007D01*
X94072389Y-62880780D01*
X94294278Y-63087046D01*
X94441491Y-63215854D01*
X94500250Y-63254327D01*
X94540637Y-63177337D01*
X94625574Y-62990684D01*
X94744268Y-62718881D01*
X94885921Y-62386441D01*
X94955279Y-62221198D01*
X95371114Y-61225851D01*
X93196883Y-59051620D01*
X93725051Y-57811971D01*
X93893288Y-57416915D01*
X94041863Y-57067673D01*
X94161415Y-56786272D01*
X94242588Y-56594743D01*
X94275888Y-56515443D01*
X94331242Y-56547311D01*
X94473237Y-56668569D01*
X94686719Y-56865148D01*
X94956531Y-57122979D01*
X95267518Y-57427992D01*
X95385955Y-57545959D01*
X95761880Y-57919342D01*
X96048239Y-58197265D01*
X96255734Y-58389211D01*
X96395068Y-58504663D01*
X96476943Y-58553105D01*
X96512061Y-58544017D01*
X96512135Y-58543848D01*
X96554253Y-58445732D01*
X96641042Y-58242938D01*
X96760183Y-57964273D01*
X96899354Y-57638547D01*
X96911343Y-57610478D01*
X97271768Y-56766614D01*
X95894845Y-55362402D01*
X94517920Y-53958189D01*
X94915951Y-53028916D01*
X95313980Y-52099644D01*
X95211364Y-51501592D01*
X95108748Y-50903542D01*
X97498679Y-53320159D01*
X99888611Y-55736777D01*
X95188803Y-66806376D01*
X95271997Y-67266701D01*
X95309574Y-67509473D01*
X95325899Y-67690803D01*
X95318650Y-67767460D01*
X98095349Y-70544159D01*
X98164020Y-70515081D01*
X98338096Y-70460453D01*
X98449636Y-70429222D01*
X98787413Y-70338197D01*
X100696585Y-65832902D01*
X98203647Y-63339963D01*
X97912878Y-63414938D01*
X97735078Y-63443775D01*
X97633739Y-63427174D01*
X97624568Y-63408865D01*
X97652931Y-63310904D01*
X97729371Y-63107252D01*
X97844351Y-62820052D01*
X97988331Y-62471450D01*
X98151773Y-62083591D01*
X98325140Y-61678620D01*
X98498893Y-61278679D01*
X98663495Y-60905915D01*
X98809405Y-60582471D01*
X98927087Y-60330494D01*
X99007003Y-60172127D01*
X99037871Y-60127638D01*
X99102608Y-60176990D01*
X99255739Y-60316244D01*
X99483509Y-60532194D01*
X99772160Y-60811631D01*
X100107935Y-61141350D01*
X100477075Y-61508143D01*
X100504701Y-61535758D01*
X100921786Y-61952137D01*
X101248349Y-62275629D01*
X101496029Y-62516448D01*
X101676468Y-62684802D01*
X101801304Y-62790907D01*
X101882180Y-62844973D01*
X101930734Y-62857210D01*
X101958608Y-62837833D01*
X101968304Y-62819755D01*
X102011840Y-62719265D01*
X102103313Y-62505966D01*
X102233851Y-62200613D01*
X102394588Y-61823963D01*
X102576655Y-61396771D01*
X102674966Y-61165892D01*
X103326147Y-59636154D01*
X100894426Y-57204433D01*
X100573798Y-57294332D01*
X100375364Y-57340574D01*
X100242068Y-57354174D01*
X100216176Y-57347236D01*
X100234991Y-57275911D01*
X100301984Y-57093256D01*
X100408018Y-56821287D01*
X100543950Y-56482019D01*
X100700641Y-56097468D01*
X100868952Y-55689648D01*
X101039740Y-55280576D01*
X101203868Y-54892267D01*
X101352194Y-54546736D01*
X101475579Y-54265999D01*
X101564881Y-54072071D01*
X101610962Y-53986967D01*
X101611473Y-53986434D01*
X101667857Y-54029391D01*
X101816564Y-54165559D01*
X102047595Y-54385205D01*
X102350949Y-54678599D01*
X102716630Y-55036010D01*
X103134639Y-55447705D01*
X103594973Y-55903955D01*
X104087638Y-56395029D01*
X104134063Y-56441441D01*
X106622861Y-58930240D01*
X106243429Y-59038308D01*
X105863998Y-59146376D01*
X103013804Y-65860066D01*
X102616490Y-66795565D01*
X102235052Y-67692940D01*
X101873321Y-68543219D01*
X101535129Y-69337425D01*
X101224310Y-70066583D01*
X100944695Y-70721719D01*
X100700116Y-71293858D01*
X100494407Y-71774026D01*
X100331398Y-72153245D01*
X100214923Y-72422544D01*
X100148814Y-72572945D01*
X100134700Y-72602666D01*
X100723518Y-73191483D01*
X103610393Y-66386184D01*
X106100410Y-68876202D01*
X105764838Y-69652780D01*
X105621900Y-69988331D01*
X105530144Y-70230547D01*
X105482549Y-70419058D01*
X105472094Y-70593488D01*
X105491757Y-70793466D01*
X105525401Y-71004131D01*
X105621535Y-71578903D01*
X104916293Y-70873661D01*
X104658188Y-70620816D01*
X104437006Y-70414069D01*
X104272227Y-70270879D01*
X104183335Y-70208706D01*
X104174251Y-70208593D01*
X104134956Y-70286404D01*
X104051108Y-70474140D01*
X103933275Y-70747455D01*
X103792021Y-71082006D01*
X103716080Y-71264237D01*
X103294709Y-72279707D01*
X104013845Y-73027389D01*
X104334805Y-73356059D01*
X104575546Y-73585471D01*
X104752821Y-73724360D01*
X104883384Y-73781460D01*
X104983989Y-73765507D01*
X105071391Y-73685234D01*
X105126122Y-73607267D01*
X105180984Y-73499536D01*
X105284161Y-73275478D01*
X105428128Y-72952739D01*
X105605360Y-72548965D01*
X105808335Y-72081800D01*
X106029525Y-71568889D01*
X106261405Y-71027877D01*
X106496454Y-70476409D01*
X106727143Y-69932131D01*
X106945949Y-69412688D01*
X107145346Y-68935725D01*
X107317812Y-68518887D01*
X107455819Y-68179819D01*
X107551844Y-67936166D01*
X107593447Y-67821594D01*
X107641566Y-67670143D01*
X107670278Y-67542266D01*
X107669941Y-67422591D01*
X107630915Y-67295747D01*
X107543559Y-67146363D01*
X107398232Y-66959070D01*
X107185294Y-66718495D01*
X106895103Y-66409269D01*
X106518019Y-66016019D01*
X106354162Y-65845745D01*
X105048995Y-64489263D01*
X105461281Y-63515271D01*
X105621489Y-63133643D01*
X105731424Y-62854682D01*
X105797888Y-62647603D01*
X105827685Y-62481622D01*
X105827620Y-62325957D01*
X105804494Y-62149824D01*
X105786387Y-62044326D01*
X105699207Y-61547374D01*
X107380904Y-63201200D01*
X107845985Y-63661961D01*
X108264534Y-64083300D01*
X108625156Y-64453368D01*
X108916460Y-64760310D01*
X109127053Y-64992278D01*
X109245542Y-65137418D01*
X109253613Y-65149332D01*
X109531537Y-65710512D01*
X109685017Y-66344865D01*
X109713999Y-67050776D01*
X109618427Y-67826627D01*
X109398249Y-68670800D01*
X109374283Y-68744152D01*
X109312146Y-68912031D01*
X109199737Y-69195680D01*
X109044431Y-69577666D01*
X108853608Y-70040558D01*
X108634643Y-70566922D01*
X108394910Y-71139326D01*
X108141789Y-71740336D01*
X107882656Y-72352521D01*
X107624885Y-72958447D01*
X107375855Y-73540682D01*
X107142941Y-74081793D01*
X106933521Y-74564347D01*
X106754970Y-74970912D01*
X106614665Y-75284053D01*
X106530688Y-75464370D01*
X106142666Y-76128907D01*
X105837006Y-76515423D01*
X105628128Y-76745485D01*
X106113254Y-77230610D01*
X108870922Y-73392010D01*
X109481011Y-72543238D01*
X110012311Y-71804240D01*
X110470098Y-71166474D01*
X110859643Y-70621391D01*
X111186221Y-70160445D01*
X111455105Y-69775093D01*
X111671569Y-69456785D01*
X111840887Y-69196978D01*
X111968333Y-68987125D01*
X112059178Y-68818681D01*
X112118700Y-68683099D01*
X112152169Y-68571832D01*
X112164860Y-68476336D01*
X112162046Y-68388065D01*
X112149002Y-68298472D01*
X112131001Y-68199011D01*
X112119519Y-68127650D01*
X112084767Y-67888120D01*
X113119385Y-68919486D01*
X114154004Y-69950854D01*
X112736588Y-76513038D01*
X112493082Y-77641832D01*
X112279048Y-78637686D01*
X112092785Y-79509413D01*
X111932591Y-80265827D01*
X111796763Y-80915744D01*
X111683602Y-81467976D01*
X111591405Y-81931339D01*
X111518469Y-82314646D01*
X111463096Y-82626714D01*
X111423581Y-82876354D01*
X111398224Y-83072382D01*
X111385324Y-83223612D01*
X111383178Y-83338859D01*
X111390086Y-83426937D01*
X111395589Y-83459532D01*
X111431568Y-83679879D01*
X111442525Y-83836294D01*
X111433631Y-83882441D01*
X111565280Y-84014090D01*
X111695624Y-83682593D01*
X111745550Y-83560931D01*
X111848085Y-83315591D01*
X111999045Y-82956465D01*
X112194247Y-82493448D01*
X112429506Y-81936429D01*
X112700638Y-81295303D01*
X113003458Y-80579962D01*
X113333783Y-79800297D01*
X113687429Y-78966202D01*
X114060211Y-78087569D01*
X114447944Y-77174289D01*
X114562240Y-76905185D01*
X115305228Y-75156022D01*
X114448543Y-74299337D01*
X114397227Y-74299337D01*
X114397228Y-74248021D01*
X114448542Y-74248021D01*
X114448543Y-74299337D01*
X115305228Y-75156022D01*
X117276788Y-70514522D01*
X117187323Y-70004640D01*
X117146334Y-69751631D01*
X117122057Y-69562155D01*
X117119261Y-69474056D01*
X117120239Y-69472379D01*
X117175710Y-69514532D01*
X117318001Y-69645082D01*
X117531778Y-69849321D01*
X117801705Y-70112542D01*
X118112449Y-70420036D01*
X118215995Y-70523374D01*
X119289371Y-71596750D01*
X118620342Y-76187585D01*
X118503878Y-76987389D01*
X118393727Y-77745102D01*
X118291657Y-78448455D01*
X118199443Y-79085176D01*
X118118855Y-79642996D01*
X118051666Y-80109642D01*
X117999647Y-80472847D01*
X117964571Y-80720339D01*
X117948211Y-80839848D01*
X117947229Y-80848635D01*
X117984889Y-80846520D01*
X118083726Y-80754852D01*
X118120378Y-80713890D01*
X118205546Y-80616987D01*
X118376269Y-80424098D01*
X118621543Y-80147607D01*
X118930369Y-79799895D01*
X119291745Y-79393348D01*
X119694672Y-78940346D01*
X120128149Y-78453274D01*
X120376344Y-78174508D01*
X120825296Y-77669787D01*
X121252364Y-77188620D01*
X121646084Y-76744004D01*
X121994988Y-76348933D01*
X122287612Y-76016399D01*
X122512487Y-75759398D01*
X122658149Y-75590922D01*
X122698812Y-75542577D01*
X122942546Y-75245068D01*
X124680736Y-77039431D01*
X122309856Y-82622493D01*
X121934234Y-83507205D01*
X121565025Y-84377145D01*
X121207601Y-85219638D01*
X120867333Y-86022013D01*
X120549591Y-86771596D01*
X120259743Y-87455716D01*
X120003161Y-88061699D01*
X119785214Y-88576874D01*
X119611273Y-88988567D01*
X119486707Y-89284106D01*
X119453790Y-89362472D01*
X118968604Y-90519388D01*
X119067858Y-91029169D01*
X119111636Y-91284848D01*
X119133955Y-91480669D01*
X119130465Y-91577319D01*
X119128803Y-91579739D01*
X120533601Y-92984537D01*
X120504641Y-92804909D01*
X120440787Y-92422276D01*
X120135685Y-90620215D01*
X122928993Y-84042710D01*
X123325838Y-83107947D01*
X123708920Y-82205028D01*
X124074121Y-81343682D01*
X124417330Y-80533640D01*
X124734431Y-79784633D01*
X125021309Y-79106391D01*
X125273849Y-78508644D01*
X125487937Y-78001123D01*
X125659457Y-77593558D01*
X125784296Y-77295680D01*
X125858337Y-77117219D01*
X125874096Y-77078187D01*
X126025891Y-76691167D01*
X124512282Y-75177558D01*
X124126996Y-74795113D01*
G36*
X111388182Y-73615513D02*
X111349431Y-73663382D01*
X111251576Y-73805250D01*
X111089920Y-74040555D01*
X110882568Y-74342907D01*
X110647622Y-74685916D01*
X110493394Y-74911290D01*
X109805529Y-75916845D01*
X110245384Y-76386538D01*
X110464744Y-76614196D01*
X110607292Y-76743583D01*
X110689481Y-76787638D01*
X110725769Y-76764290D01*
X110753152Y-76669676D01*
X110807699Y-76454842D01*
X110884255Y-76141063D01*
X110977662Y-75749618D01*
X111082767Y-75301783D01*
X111141951Y-75046689D01*
X111260704Y-74526128D01*
X111345974Y-74134365D01*
X111399559Y-73859412D01*
X111423255Y-73689279D01*
X111418865Y-73611976D01*
X111388182Y-73615513D01*
X111388182Y-73615513D01*
G37*
X111388182Y-73615513D02*
X111349431Y-73663382D01*
X111251576Y-73805250D01*
X111089920Y-74040555D01*
X110882568Y-74342907D01*
X110647622Y-74685916D01*
X110493394Y-74911290D01*
X109805529Y-75916845D01*
X110245384Y-76386538D01*
X110464744Y-76614196D01*
X110607292Y-76743583D01*
X110689481Y-76787638D01*
X110725769Y-76764290D01*
X110753152Y-76669676D01*
X110807699Y-76454842D01*
X110884255Y-76141063D01*
X110977662Y-75749618D01*
X111082767Y-75301783D01*
X111141951Y-75046689D01*
X111260704Y-74526128D01*
X111345974Y-74134365D01*
X111399559Y-73859412D01*
X111423255Y-73689279D01*
X111418865Y-73611976D01*
X111388182Y-73615513D01*
D12*
X126500000Y-37000000D03*
M02*
