G04 #@! TF.FileFunction,Soldermask,Top*
%FSLAX46Y46*%
G04 Gerber Fmt 4.6, Leading zero omitted, Abs format (unit mm)*
G04 Created by KiCad (PCBNEW 4.0.2+dfsg1-stable) date Sun 09 Sep 2018 02:34:44 AM EDT*
%MOMM*%
G01*
G04 APERTURE LIST*
%ADD10C,0.100000*%
%ADD11C,1.000000*%
%ADD12C,8.400000*%
G04 APERTURE END LIST*
D10*
D11*
X129023810Y-76214285D02*
X129261905Y-75357142D01*
X129261905Y-73928571D01*
X129023810Y-73357142D01*
X128785714Y-73071428D01*
X128309524Y-72785713D01*
X127833333Y-72785713D01*
X127357143Y-73071428D01*
X127119048Y-73357142D01*
X126880952Y-73928571D01*
X126642857Y-75071428D01*
X126404762Y-75642856D01*
X126166667Y-75928571D01*
X125690476Y-76214285D01*
X125214286Y-76214285D01*
X124738095Y-75928571D01*
X124500000Y-75642856D01*
X124261905Y-75071428D01*
X124261905Y-73642856D01*
X124500000Y-72785713D01*
X124261905Y-70214285D02*
X128309524Y-70214285D01*
X128785714Y-69928570D01*
X129023810Y-69642856D01*
X129261905Y-69071427D01*
X129261905Y-67928570D01*
X129023810Y-67357142D01*
X128785714Y-67071427D01*
X128309524Y-66785713D01*
X124261905Y-66785713D01*
X129261905Y-63928571D02*
X124261905Y-63928571D01*
X129261905Y-60499999D01*
X124261905Y-60499999D01*
X129261905Y-57642857D02*
X124261905Y-57642857D01*
X129261905Y-54214285D01*
X124261905Y-54214285D01*
X126880952Y-50214285D02*
X129261905Y-50214285D01*
X124261905Y-52214285D02*
X126880952Y-50214285D01*
X124261905Y-48214285D01*
D12*
X126500000Y-37000000D03*
M02*
