G04 #@! TF.FileFunction,Copper,L2,Bot,Signal*
%FSLAX46Y46*%
G04 Gerber Fmt 4.6, Leading zero omitted, Abs format (unit mm)*
G04 Created by KiCad (PCBNEW 4.0.2+dfsg1-stable) date Mon 15 Oct 2018 12:16:37 AM EDT*
%MOMM*%
G01*
G04 APERTURE LIST*
%ADD10C,0.100000*%
%ADD11C,1.524000*%
%ADD12C,6.500000*%
%ADD13R,1.727200X4.032000*%
%ADD14O,1.727200X4.032000*%
%ADD15C,1.200000*%
%ADD16R,1.200000X2.500000*%
%ADD17C,1.300000*%
%ADD18R,1.727200X1.727200*%
%ADD19O,1.727200X1.727200*%
%ADD20R,0.390000X1.350000*%
%ADD21O,3.500000X1.560000*%
%ADD22O,2.250000X1.500000*%
%ADD23C,0.600000*%
%ADD24C,0.381000*%
%ADD25C,0.254000*%
G04 APERTURE END LIST*
D10*
D11*
X103780000Y-68240000D03*
X48080000Y-68240000D03*
D12*
X59080000Y-46570000D03*
D13*
X88920000Y-55410000D03*
D14*
X91460000Y-55410000D03*
X94000000Y-55410000D03*
X96540000Y-55410000D03*
X99080000Y-55410000D03*
D15*
X94070000Y-123250000D03*
X87270000Y-123250000D03*
D16*
X93170000Y-120450000D03*
X90670000Y-120450000D03*
X88170000Y-120450000D03*
D10*
G36*
X69524259Y-87310117D02*
X70359883Y-86314259D01*
X71355741Y-87149883D01*
X70520117Y-88145741D01*
X69524259Y-87310117D01*
X69524259Y-87310117D01*
G37*
D17*
X73350969Y-89672593D03*
D11*
X48060000Y-84950000D03*
X103760000Y-84950000D03*
D12*
X93300000Y-105840000D03*
X42105000Y-76245000D03*
X110420000Y-76210000D03*
X59070000Y-105830000D03*
X93310000Y-46570000D03*
D18*
X97900000Y-75770000D03*
D19*
X100440000Y-75770000D03*
X97900000Y-78310000D03*
X100440000Y-78310000D03*
D20*
X62790000Y-123700000D03*
X62140000Y-123700000D03*
X61490000Y-123700000D03*
X60840000Y-123700000D03*
X60190000Y-123700000D03*
D21*
X58990000Y-126400000D03*
X63990000Y-126400000D03*
D22*
X58490000Y-123700000D03*
X64490000Y-123700000D03*
D23*
X71522000Y-66946000D03*
X69161237Y-75172213D03*
X65780000Y-75780000D03*
X92140000Y-76890000D03*
X50290000Y-62310000D03*
X54070000Y-76710000D03*
X50140000Y-79480000D03*
X49560000Y-90570000D03*
X73320000Y-44520000D03*
X76200000Y-45340000D03*
X66380000Y-63680000D03*
X61940000Y-63310000D03*
X92380000Y-116690000D03*
X92070000Y-117450000D03*
X92320000Y-77880000D03*
X93900000Y-70960000D03*
X80390000Y-110990000D03*
X72420000Y-112680000D03*
X67670000Y-89330000D03*
X80240000Y-68340000D03*
X62540000Y-97280000D03*
X79400000Y-90480000D03*
X74630000Y-79510000D03*
X45510000Y-61960000D03*
X40980000Y-60910000D03*
X89040000Y-54570000D03*
X62240000Y-83000000D03*
X63950000Y-74860000D03*
X81550000Y-94030000D03*
X56240000Y-80930000D03*
X51640000Y-79110000D03*
X58180000Y-74630000D03*
X60340000Y-73550000D03*
X57250000Y-82710000D03*
X96830000Y-85090000D03*
X88540000Y-49940000D03*
X88630000Y-60730000D03*
X94660000Y-97760000D03*
X98740000Y-96010000D03*
X70390000Y-59950000D03*
X70390000Y-65250000D03*
X90280000Y-87550000D03*
X86670000Y-69680000D03*
X90930000Y-74030000D03*
X94700000Y-74600000D03*
X58010000Y-84010000D03*
X61510000Y-81010000D03*
X90720000Y-59320000D03*
X78040000Y-97090000D03*
X88190000Y-84550000D03*
X78180000Y-103990000D03*
X78210000Y-104760000D03*
X75320000Y-98080000D03*
X75730000Y-95510000D03*
X107700000Y-84510000D03*
X108170000Y-83880000D03*
X66490000Y-71930000D03*
X68050000Y-97720000D03*
X95140000Y-73470000D03*
D24*
X111535000Y-82115000D02*
X111535000Y-80845000D01*
X111535000Y-80845000D02*
X112170000Y-81480000D01*
X112170000Y-81480000D02*
X110900000Y-81480000D01*
X110900000Y-81480000D02*
X110265000Y-82115000D01*
X110265000Y-82115000D02*
X110265000Y-82750000D01*
X110265000Y-82750000D02*
X110900000Y-82750000D01*
X110900000Y-82750000D02*
X111535000Y-82115000D01*
X69161237Y-75172213D02*
X71522000Y-66946000D01*
X69161237Y-74747949D02*
X69161237Y-75172213D01*
X54070000Y-76710000D02*
X63630000Y-76440000D01*
X63630000Y-76440000D02*
X65780000Y-75780000D01*
X92140000Y-76890000D02*
X92320000Y-77880000D01*
X50140000Y-79480000D02*
X51100000Y-70520000D01*
X51100000Y-70520000D02*
X49900000Y-65350000D01*
X49900000Y-65350000D02*
X50290000Y-62310000D01*
X50140000Y-79480000D02*
X50110000Y-85650000D01*
X50110000Y-85650000D02*
X48830000Y-89440000D01*
X48830000Y-89440000D02*
X49560000Y-90570000D01*
X73320000Y-44520000D02*
X76200000Y-45340000D01*
X61940000Y-63310000D02*
X66380000Y-63680000D01*
X90670000Y-120450000D02*
X91020000Y-119050000D01*
X91020000Y-119050000D02*
X92140000Y-116870000D01*
X92140000Y-116870000D02*
X92380000Y-116690000D01*
X92070000Y-117450000D02*
X90670000Y-120450000D01*
X92320000Y-77880000D02*
X93900000Y-70960000D01*
X72420000Y-112680000D02*
X80390000Y-110990000D01*
X72420000Y-112680000D02*
X72390000Y-112680000D01*
X63990000Y-126550000D02*
X64490000Y-123850000D01*
X58990000Y-126550000D02*
X63990000Y-126550000D01*
X58490000Y-123850000D02*
X58990000Y-126550000D01*
X60190000Y-123850000D02*
X58490000Y-123850000D01*
X62240000Y-83000000D02*
X67670000Y-89330000D01*
X80240000Y-68340000D02*
X80300000Y-68450000D01*
X61493576Y-97322061D02*
X62540000Y-97280000D01*
X79400000Y-90480000D02*
X79390000Y-90480000D01*
X79390000Y-90480000D02*
X78826550Y-91338591D01*
X74630000Y-79510000D02*
X74620000Y-79510000D01*
X45510000Y-61960000D02*
X40980000Y-60910000D01*
X89040000Y-54570000D02*
X88920000Y-55410000D01*
X59540000Y-91450000D02*
X62240000Y-83000000D01*
X60400000Y-73520000D02*
X63950000Y-74860000D01*
X62298000Y-99740000D02*
X61493576Y-97322061D01*
X61493576Y-97322061D02*
X59540000Y-91450000D01*
X81550000Y-94030000D02*
X78826550Y-91338591D01*
X78826550Y-91338591D02*
X76450000Y-88990000D01*
X59250000Y-105455000D02*
X41420000Y-81520000D01*
X41420000Y-81520000D02*
X42105000Y-76245000D01*
X62298000Y-99740000D02*
X59250000Y-105455000D01*
X56240000Y-80930000D02*
X51640000Y-79110000D01*
X58180000Y-74630000D02*
X60400000Y-73520000D01*
X60400000Y-73520000D02*
X60340000Y-73550000D01*
X59540000Y-91450000D02*
X55470000Y-87410000D01*
X57250000Y-82710000D02*
X55470000Y-87410000D01*
X76450000Y-88990000D02*
X73210000Y-83992000D01*
X103864000Y-84754000D02*
X96830000Y-85090000D01*
X103864000Y-84754000D02*
X110050000Y-76245000D01*
X91460000Y-55410000D02*
X90580000Y-52680000D01*
X90580000Y-52680000D02*
X88540000Y-49940000D01*
X88630000Y-60730000D02*
X90780000Y-57970000D01*
X90780000Y-57970000D02*
X91460000Y-55410000D01*
X94660000Y-97760000D02*
X98740000Y-96010000D01*
X70390000Y-59950000D02*
X70390000Y-65250000D01*
X90280000Y-87550000D02*
X86640000Y-86210000D01*
X86640000Y-86210000D02*
X85690000Y-83150000D01*
X85690000Y-83150000D02*
X86670000Y-73350000D01*
X86670000Y-73350000D02*
X86670000Y-69680000D01*
X99080000Y-55410000D02*
X98120000Y-57710000D01*
X98120000Y-57710000D02*
X95500000Y-58300000D01*
X95500000Y-58300000D02*
X92870000Y-60030000D01*
X92870000Y-60030000D02*
X91650000Y-61710000D01*
X91650000Y-61710000D02*
X91290000Y-64560000D01*
X91290000Y-64560000D02*
X90470000Y-67450000D01*
X90470000Y-67450000D02*
X90420000Y-73060000D01*
X90420000Y-73060000D02*
X90930000Y-74030000D01*
X97900000Y-78310000D02*
X94700000Y-74600000D01*
X58010000Y-84010000D02*
X61510000Y-81010000D01*
X90720000Y-59320000D02*
X92270000Y-58380000D01*
X92270000Y-58380000D02*
X94000000Y-55410000D01*
X62790000Y-123850000D02*
X62840000Y-122280000D01*
X62840000Y-122280000D02*
X62950000Y-120900000D01*
X62950000Y-120900000D02*
X70210000Y-105860000D01*
X70210000Y-105860000D02*
X75300000Y-101370000D01*
X75300000Y-101370000D02*
X76920000Y-98600000D01*
X76920000Y-98600000D02*
X78040000Y-97090000D01*
X90400000Y-79430000D02*
X88190000Y-84550000D01*
X91040000Y-61450000D02*
X92460000Y-59570000D01*
X92460000Y-59570000D02*
X94110000Y-58350000D01*
X94110000Y-58350000D02*
X95630000Y-57360000D01*
X95630000Y-57360000D02*
X96540000Y-55410000D01*
X91040000Y-61450000D02*
X90610000Y-64510000D01*
X90610000Y-64510000D02*
X89820000Y-67270000D01*
X89820000Y-67270000D02*
X89760000Y-75120000D01*
X89760000Y-75120000D02*
X90400000Y-79430000D01*
X78595559Y-105284452D02*
X77940000Y-105080000D01*
X77940000Y-105080000D02*
X77800000Y-104540000D01*
X77800000Y-104540000D02*
X78060000Y-104420000D01*
X78060000Y-104420000D02*
X77760000Y-104120000D01*
X77760000Y-104120000D02*
X77880000Y-103680000D01*
X77880000Y-103680000D02*
X78290000Y-103560000D01*
X78290000Y-103560000D02*
X78530000Y-103970000D01*
X78530000Y-103970000D02*
X78530000Y-104668640D01*
X88170000Y-120450000D02*
X87890000Y-119070000D01*
X87890000Y-119070000D02*
X85220000Y-113750000D01*
X85220000Y-113750000D02*
X78530000Y-104668640D01*
X78530000Y-104668640D02*
X78310000Y-104370000D01*
X78310000Y-104370000D02*
X78180000Y-103990000D01*
X78210000Y-104760000D02*
X78595559Y-105284452D01*
X78595559Y-105284452D02*
X84900000Y-113860000D01*
X84900000Y-113860000D02*
X88170000Y-120450000D01*
X75320000Y-98080000D02*
X75730000Y-95510000D01*
X108480000Y-84110000D02*
X108480000Y-83600000D01*
X108480000Y-83600000D02*
X107930000Y-83630000D01*
X107930000Y-83630000D02*
X107900000Y-84190000D01*
X107900000Y-84190000D02*
X107480000Y-84250000D01*
X107480000Y-84250000D02*
X107380000Y-84740000D01*
X107380000Y-84740000D02*
X107700000Y-84510000D01*
X93170000Y-120450000D02*
X93860000Y-119840000D01*
X93860000Y-119840000D02*
X98660000Y-111180000D01*
X98660000Y-111180000D02*
X101080000Y-97160000D01*
X101080000Y-97160000D02*
X107900000Y-86970000D01*
X107900000Y-86970000D02*
X108480000Y-84110000D01*
X108480000Y-84110000D02*
X108170000Y-83880000D01*
X107700000Y-84510000D02*
X107260000Y-86810000D01*
X107260000Y-86810000D02*
X100470000Y-96830000D01*
X100470000Y-96830000D02*
X98000000Y-110990000D01*
X98000000Y-110990000D02*
X93520000Y-119090000D01*
X93520000Y-119090000D02*
X93170000Y-120450000D01*
X93170000Y-120450000D02*
X98350000Y-111090000D01*
X98350000Y-111090000D02*
X100750000Y-97010000D01*
X100750000Y-97010000D02*
X107610000Y-86850000D01*
X107610000Y-86850000D02*
X108170000Y-83880000D01*
X48080000Y-68240000D02*
X48410000Y-69010000D01*
X48410000Y-69010000D02*
X48360000Y-84140000D01*
X48360000Y-84140000D02*
X48060000Y-84950000D01*
X48060000Y-84950000D02*
X47750000Y-84160000D01*
X47750000Y-84160000D02*
X47770000Y-69000000D01*
X47770000Y-69000000D02*
X48080000Y-68240000D01*
X48080000Y-68240000D02*
X48060000Y-84950000D01*
X69310000Y-92380000D02*
X68050000Y-97720000D01*
X71440000Y-88960000D02*
X69310000Y-92380000D01*
X72560000Y-87230000D02*
X71440000Y-88960000D01*
X70520000Y-82260000D02*
X72560000Y-87230000D01*
X68030000Y-75980000D02*
X70520000Y-82260000D01*
X66490000Y-71930000D02*
X68030000Y-75980000D01*
X100440000Y-78310000D02*
X101940000Y-77030000D01*
X101940000Y-77030000D02*
X102280000Y-74920000D01*
X102280000Y-74920000D02*
X101300000Y-74120000D01*
X101300000Y-74120000D02*
X96240000Y-73670000D01*
X96240000Y-73670000D02*
X95140000Y-73470000D01*
D25*
G36*
X125649208Y-76200000D02*
X100786906Y-119262770D01*
X100776792Y-119292565D01*
X100759309Y-119318730D01*
X100747137Y-119379924D01*
X100727080Y-119439009D01*
X100729138Y-119470411D01*
X100723000Y-119501270D01*
X100723000Y-127684524D01*
X65530929Y-127684524D01*
X65618830Y-127658689D01*
X66050359Y-127310754D01*
X66315891Y-126824165D01*
X66332071Y-126745898D01*
X66209814Y-126527000D01*
X64117000Y-126527000D01*
X64117000Y-126547000D01*
X63863000Y-126547000D01*
X63863000Y-126527000D01*
X61770186Y-126527000D01*
X61647929Y-126745898D01*
X61664109Y-126824165D01*
X61929641Y-127310754D01*
X62361170Y-127658689D01*
X62449071Y-127684524D01*
X60530929Y-127684524D01*
X60618830Y-127658689D01*
X61050359Y-127310754D01*
X61315891Y-126824165D01*
X61332071Y-126745898D01*
X61209814Y-126527000D01*
X59117000Y-126527000D01*
X59117000Y-126547000D01*
X58863000Y-126547000D01*
X58863000Y-126527000D01*
X56770186Y-126527000D01*
X56647929Y-126745898D01*
X56664109Y-126824165D01*
X56929641Y-127310754D01*
X57361170Y-127658689D01*
X57449071Y-127684524D01*
X51677000Y-127684524D01*
X51677000Y-126054102D01*
X56647929Y-126054102D01*
X56770186Y-126273000D01*
X58863000Y-126273000D01*
X58863000Y-126253000D01*
X59117000Y-126253000D01*
X59117000Y-126273000D01*
X61209814Y-126273000D01*
X61332071Y-126054102D01*
X61315891Y-125975835D01*
X61050359Y-125489246D01*
X60618830Y-125141311D01*
X60087000Y-124985000D01*
X59958750Y-124985000D01*
X60092500Y-124851250D01*
X60092500Y-124298017D01*
X60193173Y-124112684D01*
X60207318Y-124041185D01*
X60092500Y-123840697D01*
X60092500Y-123827002D01*
X60209635Y-123827002D01*
X60209635Y-124375000D01*
X60239409Y-124533237D01*
X60287500Y-124607972D01*
X60287500Y-124851250D01*
X60446250Y-125010000D01*
X60511309Y-125010000D01*
X60744698Y-124913327D01*
X60847661Y-124810365D01*
X61035000Y-124810365D01*
X61169774Y-124785006D01*
X61295000Y-124810365D01*
X61685000Y-124810365D01*
X61819774Y-124785006D01*
X61945000Y-124810365D01*
X62335000Y-124810365D01*
X62469774Y-124785006D01*
X62595000Y-124810365D01*
X62985000Y-124810365D01*
X63143237Y-124780591D01*
X63220475Y-124730890D01*
X63467651Y-124930972D01*
X63650172Y-124985000D01*
X62893000Y-124985000D01*
X62361170Y-125141311D01*
X61929641Y-125489246D01*
X61664109Y-125975835D01*
X61647929Y-126054102D01*
X61770186Y-126273000D01*
X63863000Y-126273000D01*
X63863000Y-126253000D01*
X64117000Y-126253000D01*
X64117000Y-126273000D01*
X66209814Y-126273000D01*
X66332071Y-126054102D01*
X66315891Y-125975835D01*
X66050359Y-125489246D01*
X65618830Y-125141311D01*
X65208845Y-125020812D01*
X65512349Y-124930972D01*
X65934145Y-124589540D01*
X66193173Y-124112684D01*
X66207318Y-124041185D01*
X66084656Y-123827000D01*
X64617000Y-123827000D01*
X64617000Y-123847000D01*
X64363000Y-123847000D01*
X64363000Y-123827000D01*
X64343000Y-123827000D01*
X64343000Y-123573000D01*
X64363000Y-123573000D01*
X64363000Y-122315000D01*
X64617000Y-122315000D01*
X64617000Y-123573000D01*
X66084656Y-123573000D01*
X66153157Y-123453387D01*
X86242822Y-123453387D01*
X86398844Y-123830989D01*
X86687492Y-124120140D01*
X87064821Y-124276821D01*
X87473387Y-124277178D01*
X87850989Y-124121156D01*
X88140140Y-123832508D01*
X88296821Y-123455179D01*
X88296822Y-123453387D01*
X93042822Y-123453387D01*
X93198844Y-123830989D01*
X93487492Y-124120140D01*
X93864821Y-124276821D01*
X94273387Y-124277178D01*
X94650989Y-124121156D01*
X94940140Y-123832508D01*
X95096821Y-123455179D01*
X95097178Y-123046613D01*
X94941156Y-122669011D01*
X94652508Y-122379860D01*
X94275179Y-122223179D01*
X93866613Y-122222822D01*
X93489011Y-122378844D01*
X93199860Y-122667492D01*
X93043179Y-123044821D01*
X93042822Y-123453387D01*
X88296822Y-123453387D01*
X88297178Y-123046613D01*
X88141156Y-122669011D01*
X87852508Y-122379860D01*
X87475179Y-122223179D01*
X87066613Y-122222822D01*
X86689011Y-122378844D01*
X86399860Y-122667492D01*
X86243179Y-123044821D01*
X86242822Y-123453387D01*
X66153157Y-123453387D01*
X66207318Y-123358815D01*
X66193173Y-123287316D01*
X65934145Y-122810460D01*
X65512349Y-122469028D01*
X64992000Y-122315000D01*
X64617000Y-122315000D01*
X64363000Y-122315000D01*
X63988000Y-122315000D01*
X63467651Y-122469028D01*
X63451373Y-122482204D01*
X63456718Y-122314390D01*
X63556361Y-121064316D01*
X70711935Y-106240649D01*
X73115966Y-104120000D01*
X77142501Y-104120000D01*
X77150179Y-104158603D01*
X77147430Y-104197873D01*
X77173482Y-104275758D01*
X77189504Y-104356307D01*
X77210830Y-104388223D01*
X77210247Y-104391915D01*
X77188458Y-104454428D01*
X77191634Y-104509763D01*
X77182986Y-104564514D01*
X77198469Y-104628882D01*
X77202262Y-104694969D01*
X77342262Y-105234969D01*
X77373108Y-105298821D01*
X77393163Y-105366836D01*
X77425015Y-105406271D01*
X77447066Y-105451917D01*
X77499997Y-105499102D01*
X77544555Y-105554268D01*
X77589077Y-105578513D01*
X77626915Y-105612244D01*
X77693874Y-105635582D01*
X77756151Y-105669496D01*
X78218141Y-105813579D01*
X84370701Y-114182534D01*
X87134635Y-119752662D01*
X87134635Y-121700000D01*
X87164409Y-121858237D01*
X87257927Y-122003567D01*
X87400619Y-122101064D01*
X87570000Y-122135365D01*
X88770000Y-122135365D01*
X88928237Y-122105591D01*
X89073567Y-122012073D01*
X89171064Y-121869381D01*
X89205365Y-121700000D01*
X89205365Y-119200000D01*
X89634635Y-119200000D01*
X89634635Y-121700000D01*
X89664409Y-121858237D01*
X89757927Y-122003567D01*
X89900619Y-122101064D01*
X90070000Y-122135365D01*
X91270000Y-122135365D01*
X91428237Y-122105591D01*
X91573567Y-122012073D01*
X91671064Y-121869381D01*
X91705365Y-121700000D01*
X91705365Y-119691567D01*
X91934762Y-119200000D01*
X92134635Y-119200000D01*
X92134635Y-121700000D01*
X92164409Y-121858237D01*
X92257927Y-122003567D01*
X92400619Y-122101064D01*
X92570000Y-122135365D01*
X93770000Y-122135365D01*
X93928237Y-122105591D01*
X94073567Y-122012073D01*
X94171064Y-121869381D01*
X94205365Y-121700000D01*
X94205365Y-120358886D01*
X94268995Y-120302633D01*
X94332416Y-120219295D01*
X94400086Y-120139355D01*
X99200086Y-111479355D01*
X99231498Y-111381215D01*
X99268502Y-111285034D01*
X101666176Y-97394376D01*
X108413170Y-87313456D01*
X108458965Y-87203137D01*
X108505181Y-87092729D01*
X109085181Y-84232729D01*
X109085412Y-84170769D01*
X109097500Y-84110000D01*
X109097500Y-83600000D01*
X109094171Y-83583264D01*
X109096584Y-83566368D01*
X109070777Y-83465653D01*
X109050496Y-83363693D01*
X109041015Y-83349504D01*
X109036779Y-83332972D01*
X108974395Y-83249800D01*
X108916638Y-83163362D01*
X108902449Y-83153881D01*
X108892209Y-83140229D01*
X108802747Y-83087262D01*
X108716307Y-83029504D01*
X108699571Y-83026175D01*
X108684885Y-83017480D01*
X108581962Y-83002781D01*
X108480000Y-82982500D01*
X108463262Y-82985829D01*
X108446369Y-82983417D01*
X107896368Y-83013417D01*
X107811387Y-83035192D01*
X107724550Y-83047680D01*
X107695592Y-83064863D01*
X107662972Y-83073221D01*
X107592789Y-83125863D01*
X107517345Y-83170629D01*
X107497166Y-83197586D01*
X107470229Y-83217791D01*
X107425535Y-83293279D01*
X107372962Y-83363513D01*
X107364635Y-83396140D01*
X107347480Y-83425116D01*
X107335077Y-83511963D01*
X107313384Y-83596967D01*
X107309721Y-83665347D01*
X107264895Y-83683654D01*
X107165388Y-83718657D01*
X107153844Y-83729008D01*
X107139490Y-83734870D01*
X107064534Y-83809085D01*
X106986000Y-83879500D01*
X106979296Y-83893480D01*
X106968278Y-83904389D01*
X106927431Y-84001634D01*
X106881819Y-84096748D01*
X106880975Y-84112231D01*
X106874971Y-84126525D01*
X106774971Y-84616525D01*
X106774910Y-84628796D01*
X106770606Y-84640281D01*
X106774314Y-84748828D01*
X106773774Y-84857458D01*
X106778412Y-84868815D01*
X106778831Y-84881077D01*
X106823803Y-84979956D01*
X106864870Y-85080510D01*
X106873502Y-85089228D01*
X106878581Y-85100395D01*
X106946264Y-85163606D01*
X106677413Y-86568965D01*
X99958814Y-96483597D01*
X99955134Y-96492320D01*
X99948597Y-96499174D01*
X99908430Y-96603027D01*
X99865163Y-96705588D01*
X99865101Y-96715056D01*
X99861685Y-96723889D01*
X97409491Y-110781812D01*
X92994299Y-118764635D01*
X92570000Y-118764635D01*
X92411763Y-118794409D01*
X92266433Y-118887927D01*
X92168936Y-119030619D01*
X92134635Y-119200000D01*
X91934762Y-119200000D01*
X92459434Y-118075704D01*
X92481275Y-118066680D01*
X92685961Y-117862350D01*
X92796874Y-117595244D01*
X92797126Y-117306025D01*
X92795609Y-117302354D01*
X92995961Y-117102350D01*
X93106874Y-116835244D01*
X93107126Y-116546025D01*
X92996680Y-116278725D01*
X92792350Y-116074039D01*
X92525244Y-115963126D01*
X92236025Y-115962874D01*
X91968725Y-116073320D01*
X91764039Y-116277650D01*
X91684056Y-116470268D01*
X91676951Y-116479219D01*
X91608657Y-116555387D01*
X91602424Y-116573107D01*
X91590748Y-116587816D01*
X90472382Y-118764635D01*
X90070000Y-118764635D01*
X89911763Y-118794409D01*
X89766433Y-118887927D01*
X89668936Y-119030619D01*
X89634635Y-119200000D01*
X89205365Y-119200000D01*
X89175591Y-119041763D01*
X89082073Y-118896433D01*
X88939381Y-118798936D01*
X88770000Y-118764635D01*
X88427649Y-118764635D01*
X85771893Y-113473016D01*
X85739533Y-113431449D01*
X85717162Y-113383754D01*
X82205604Y-108616978D01*
X90702627Y-108616978D01*
X91075658Y-109117608D01*
X92499262Y-109719333D01*
X94044772Y-109730466D01*
X95476896Y-109149311D01*
X95524342Y-109117608D01*
X95897373Y-108616978D01*
X93300000Y-106019605D01*
X90702627Y-108616978D01*
X82205604Y-108616978D01*
X80708531Y-106584772D01*
X89409534Y-106584772D01*
X89990689Y-108016896D01*
X90022392Y-108064342D01*
X90523022Y-108437373D01*
X93120395Y-105840000D01*
X93479605Y-105840000D01*
X96076978Y-108437373D01*
X96577608Y-108064342D01*
X97179333Y-106640738D01*
X97190466Y-105095228D01*
X96609311Y-103663104D01*
X96577608Y-103615658D01*
X96076978Y-103242627D01*
X93479605Y-105840000D01*
X93120395Y-105840000D01*
X90523022Y-103242627D01*
X90022392Y-103615658D01*
X89420667Y-105039262D01*
X89409534Y-106584772D01*
X80708531Y-106584772D01*
X79147500Y-104465747D01*
X79147500Y-103970000D01*
X79139193Y-103928240D01*
X79141724Y-103885734D01*
X79115898Y-103811127D01*
X79100496Y-103733693D01*
X79076839Y-103698288D01*
X79062911Y-103658052D01*
X78822911Y-103248052D01*
X78792411Y-103213690D01*
X78771148Y-103172956D01*
X78713168Y-103124415D01*
X78662969Y-103067861D01*
X78653007Y-103063022D01*
X90702627Y-103063022D01*
X93300000Y-105660395D01*
X95897373Y-103063022D01*
X95524342Y-102562392D01*
X94100738Y-101960667D01*
X92555228Y-101949534D01*
X91123104Y-102530689D01*
X91075658Y-102562392D01*
X90702627Y-103063022D01*
X78653007Y-103063022D01*
X78621637Y-103047786D01*
X78586407Y-103018291D01*
X78514260Y-102995631D01*
X78446244Y-102962595D01*
X78400382Y-102959865D01*
X78356541Y-102946095D01*
X78281216Y-102952770D01*
X78205734Y-102948276D01*
X78162313Y-102963306D01*
X78116545Y-102967362D01*
X77706545Y-103087362D01*
X77642325Y-103120884D01*
X77573634Y-103143861D01*
X77536535Y-103176104D01*
X77492956Y-103198852D01*
X77446456Y-103254395D01*
X77391783Y-103301912D01*
X77369845Y-103345903D01*
X77338291Y-103383593D01*
X77316586Y-103452699D01*
X77284258Y-103517525D01*
X77164258Y-103957525D01*
X77158522Y-104039457D01*
X77142501Y-104120000D01*
X73115966Y-104120000D01*
X75708491Y-101833078D01*
X75767965Y-101755104D01*
X75833034Y-101681738D01*
X77436027Y-98940817D01*
X78205075Y-97903975D01*
X93932874Y-97903975D01*
X94043320Y-98171275D01*
X94247650Y-98375961D01*
X94514756Y-98486874D01*
X94803975Y-98487126D01*
X95071275Y-98376680D01*
X95275961Y-98172350D01*
X95278307Y-98166700D01*
X98611809Y-96736889D01*
X98883975Y-96737126D01*
X99151275Y-96626680D01*
X99355961Y-96422350D01*
X99466874Y-96155244D01*
X99467126Y-95866025D01*
X99356680Y-95598725D01*
X99152350Y-95394039D01*
X98885244Y-95283126D01*
X98596025Y-95282874D01*
X98328725Y-95393320D01*
X98124039Y-95597650D01*
X98121693Y-95603300D01*
X94788191Y-97033111D01*
X94516025Y-97032874D01*
X94248725Y-97143320D01*
X94044039Y-97347650D01*
X93933126Y-97614756D01*
X93932874Y-97903975D01*
X78205075Y-97903975D01*
X78307285Y-97766175D01*
X78451275Y-97706680D01*
X78655961Y-97502350D01*
X78766874Y-97235244D01*
X78767126Y-96946025D01*
X78656680Y-96678725D01*
X78452350Y-96474039D01*
X78185244Y-96363126D01*
X77896025Y-96362874D01*
X77628725Y-96473320D01*
X77424039Y-96677650D01*
X77313126Y-96944756D01*
X77313049Y-97033555D01*
X76424036Y-98232133D01*
X76409509Y-98262844D01*
X76386966Y-98288261D01*
X74817075Y-100972582D01*
X69801509Y-105396922D01*
X69800455Y-105398303D01*
X69798956Y-105399186D01*
X69727408Y-105494074D01*
X69655391Y-105588494D01*
X69654946Y-105590175D01*
X69653899Y-105591563D01*
X62393899Y-120631563D01*
X62365409Y-120741589D01*
X62334452Y-120850935D01*
X62224452Y-122230935D01*
X62226194Y-122245784D01*
X62222813Y-122260344D01*
X62212326Y-122589635D01*
X61945000Y-122589635D01*
X61810226Y-122614994D01*
X61685000Y-122589635D01*
X61295000Y-122589635D01*
X61160226Y-122614994D01*
X61035000Y-122589635D01*
X60847661Y-122589635D01*
X60744698Y-122486673D01*
X60511309Y-122390000D01*
X60446250Y-122390000D01*
X60287500Y-122548750D01*
X60287500Y-122791861D01*
X60243936Y-122855619D01*
X60209635Y-123025000D01*
X60209635Y-123572998D01*
X60092500Y-123572998D01*
X60092500Y-123559303D01*
X60207318Y-123358815D01*
X60193173Y-123287316D01*
X60092500Y-123101983D01*
X60092500Y-122548750D01*
X59933750Y-122390000D01*
X59868691Y-122390000D01*
X59635302Y-122486673D01*
X59590050Y-122531925D01*
X59512349Y-122469028D01*
X58992000Y-122315000D01*
X58617000Y-122315000D01*
X58617000Y-123573000D01*
X58637000Y-123573000D01*
X58637000Y-123827000D01*
X58617000Y-123827000D01*
X58617000Y-123847000D01*
X58363000Y-123847000D01*
X58363000Y-123827000D01*
X56895344Y-123827000D01*
X56772682Y-124041185D01*
X56786827Y-124112684D01*
X57045855Y-124589540D01*
X57467651Y-124930972D01*
X57771155Y-125020812D01*
X57361170Y-125141311D01*
X56929641Y-125489246D01*
X56664109Y-125975835D01*
X56647929Y-126054102D01*
X51677000Y-126054102D01*
X51677000Y-123358815D01*
X56772682Y-123358815D01*
X56895344Y-123573000D01*
X58363000Y-123573000D01*
X58363000Y-122315000D01*
X57988000Y-122315000D01*
X57467651Y-122469028D01*
X57045855Y-122810460D01*
X56786827Y-123287316D01*
X56772682Y-123358815D01*
X51677000Y-123358815D01*
X51677000Y-119501270D01*
X51670862Y-119470411D01*
X51672920Y-119439009D01*
X51652863Y-119379924D01*
X51640691Y-119318730D01*
X51623208Y-119292565D01*
X51613094Y-119262770D01*
X45460971Y-108606978D01*
X56472627Y-108606978D01*
X56845658Y-109107608D01*
X58269262Y-109709333D01*
X59814772Y-109720466D01*
X61246896Y-109139311D01*
X61294342Y-109107608D01*
X61667373Y-108606978D01*
X59070000Y-106009605D01*
X56472627Y-108606978D01*
X45460971Y-108606978D01*
X44287676Y-106574772D01*
X55179534Y-106574772D01*
X55760689Y-108006896D01*
X55792392Y-108054342D01*
X56293022Y-108427373D01*
X58890395Y-105830000D01*
X59249605Y-105830000D01*
X61846978Y-108427373D01*
X62347608Y-108054342D01*
X62949333Y-106630738D01*
X62960466Y-105085228D01*
X62379311Y-103653104D01*
X62347608Y-103605658D01*
X61846978Y-103232627D01*
X59249605Y-105830000D01*
X58890395Y-105830000D01*
X56293022Y-103232627D01*
X55792392Y-103605658D01*
X55190667Y-105029262D01*
X55179534Y-106574772D01*
X44287676Y-106574772D01*
X42254393Y-103053022D01*
X56472627Y-103053022D01*
X59070000Y-105650395D01*
X61667373Y-103053022D01*
X61294342Y-102552392D01*
X59870738Y-101950667D01*
X58325228Y-101939534D01*
X56893104Y-102520689D01*
X56845658Y-102552392D01*
X56472627Y-103053022D01*
X42254393Y-103053022D01*
X34418779Y-89481339D01*
X48213885Y-89481339D01*
X48223122Y-89515600D01*
X48222573Y-89551080D01*
X48254233Y-89630990D01*
X48276605Y-89713969D01*
X48298247Y-89742084D01*
X48311319Y-89775077D01*
X48832988Y-90582593D01*
X48832874Y-90713975D01*
X48943320Y-90981275D01*
X49147650Y-91185961D01*
X49414756Y-91296874D01*
X49703975Y-91297126D01*
X49971275Y-91186680D01*
X50175961Y-90982350D01*
X50286874Y-90715244D01*
X50287126Y-90426025D01*
X50176680Y-90158725D01*
X49972350Y-89954039D01*
X49869685Y-89911408D01*
X49510392Y-89355242D01*
X50190303Y-87342066D01*
X69090068Y-87342066D01*
X69136706Y-87508474D01*
X69244412Y-87643626D01*
X70240270Y-88479250D01*
X70380625Y-88558154D01*
X70552066Y-88579932D01*
X70718474Y-88533294D01*
X70853626Y-88425588D01*
X71689250Y-87429730D01*
X71768154Y-87289375D01*
X71789932Y-87117934D01*
X71743294Y-86951526D01*
X71635588Y-86816374D01*
X70639730Y-85980750D01*
X70499375Y-85901846D01*
X70327934Y-85880068D01*
X70161526Y-85926706D01*
X70026374Y-86034412D01*
X69190750Y-87030270D01*
X69111846Y-87170625D01*
X69090068Y-87342066D01*
X50190303Y-87342066D01*
X50695035Y-85847585D01*
X50707766Y-85749714D01*
X50727493Y-85653002D01*
X50734781Y-84153975D01*
X57282874Y-84153975D01*
X57393320Y-84421275D01*
X57597650Y-84625961D01*
X57864756Y-84736874D01*
X58153975Y-84737126D01*
X58421275Y-84626680D01*
X58625961Y-84422350D01*
X58707852Y-84225137D01*
X61610575Y-81737088D01*
X61653975Y-81737126D01*
X61921275Y-81626680D01*
X62125961Y-81422350D01*
X62236874Y-81155244D01*
X62237126Y-80866025D01*
X62126680Y-80598725D01*
X61922350Y-80394039D01*
X61655244Y-80283126D01*
X61366025Y-80282874D01*
X61098725Y-80393320D01*
X60894039Y-80597650D01*
X60812149Y-80794863D01*
X57909424Y-83282912D01*
X57866025Y-83282874D01*
X57598725Y-83393320D01*
X57394039Y-83597650D01*
X57283126Y-83864756D01*
X57282874Y-84153975D01*
X50734781Y-84153975D01*
X50755500Y-79892810D01*
X50755961Y-79892350D01*
X50866874Y-79625244D01*
X50867126Y-79336025D01*
X50795129Y-79161780D01*
X51042393Y-76853975D01*
X53342874Y-76853975D01*
X53453320Y-77121275D01*
X53657650Y-77325961D01*
X53924756Y-77436874D01*
X54213975Y-77437126D01*
X54481275Y-77326680D01*
X54492150Y-77315824D01*
X63647433Y-77057254D01*
X63728492Y-77038737D01*
X63811212Y-77030312D01*
X65584428Y-76485976D01*
X65634756Y-76506874D01*
X65923975Y-76507126D01*
X66191275Y-76396680D01*
X66395961Y-76192350D01*
X66506874Y-75925244D01*
X66507126Y-75636025D01*
X66396680Y-75368725D01*
X66192350Y-75164039D01*
X65925244Y-75053126D01*
X65636025Y-75052874D01*
X65368725Y-75163320D01*
X65228418Y-75303383D01*
X63528852Y-75825110D01*
X54452064Y-76081463D01*
X54215244Y-75983126D01*
X53926025Y-75982874D01*
X53658725Y-76093320D01*
X53454039Y-76297650D01*
X53343126Y-76564756D01*
X53342874Y-76853975D01*
X51042393Y-76853975D01*
X51554536Y-72073975D01*
X65762874Y-72073975D01*
X65873320Y-72341275D01*
X66054926Y-72523198D01*
X67452818Y-76199472D01*
X67455176Y-76203235D01*
X67455975Y-76207599D01*
X69945975Y-82487599D01*
X69948025Y-82490771D01*
X69948750Y-82494477D01*
X71866076Y-87165610D01*
X70921646Y-88624418D01*
X70919612Y-88629536D01*
X70915845Y-88633553D01*
X68785845Y-92053553D01*
X68750536Y-92147170D01*
X68709004Y-92238192D01*
X67537120Y-97204748D01*
X67434039Y-97307650D01*
X67323126Y-97574756D01*
X67322874Y-97863975D01*
X67433320Y-98131275D01*
X67637650Y-98335961D01*
X67904756Y-98446874D01*
X68193975Y-98447126D01*
X68461275Y-98336680D01*
X68574176Y-98223975D01*
X74592874Y-98223975D01*
X74703320Y-98491275D01*
X74907650Y-98695961D01*
X75174756Y-98806874D01*
X75463975Y-98807126D01*
X75731275Y-98696680D01*
X75935961Y-98492350D01*
X76046874Y-98225244D01*
X76047126Y-97936025D01*
X75990241Y-97798352D01*
X76278835Y-95989359D01*
X76345961Y-95922350D01*
X76456874Y-95655244D01*
X76457126Y-95366025D01*
X76346680Y-95098725D01*
X76142350Y-94894039D01*
X75875244Y-94783126D01*
X75586025Y-94782874D01*
X75318725Y-94893320D01*
X75114039Y-95097650D01*
X75003126Y-95364756D01*
X75002874Y-95653975D01*
X75059759Y-95791648D01*
X74771165Y-97600641D01*
X74704039Y-97667650D01*
X74593126Y-97934756D01*
X74592874Y-98223975D01*
X68574176Y-98223975D01*
X68665961Y-98132350D01*
X68776874Y-97865244D01*
X68777126Y-97576025D01*
X68739764Y-97485602D01*
X69887725Y-92620433D01*
X71450437Y-90111288D01*
X72116423Y-90111288D01*
X72378279Y-90550335D01*
X72788218Y-90855753D01*
X73133315Y-90964562D01*
X73324193Y-90823707D01*
X73235521Y-89810179D01*
X72221993Y-89898851D01*
X72116423Y-90111288D01*
X71450437Y-90111288D01*
X71651757Y-89788041D01*
X73488555Y-89788041D01*
X73577227Y-90801569D01*
X73789664Y-90907139D01*
X74228711Y-90645283D01*
X74534129Y-90235344D01*
X74642938Y-89890247D01*
X74502083Y-89699369D01*
X73488555Y-89788041D01*
X71651757Y-89788041D01*
X71859216Y-89454939D01*
X72059000Y-89454939D01*
X72199855Y-89645817D01*
X73213383Y-89557145D01*
X73124711Y-88543617D01*
X73080164Y-88521479D01*
X73377745Y-88521479D01*
X73466417Y-89535007D01*
X74479945Y-89446335D01*
X74585515Y-89233898D01*
X74323659Y-88794851D01*
X73913720Y-88489433D01*
X73568623Y-88380624D01*
X73377745Y-88521479D01*
X73080164Y-88521479D01*
X72912274Y-88438047D01*
X72473227Y-88699903D01*
X72167809Y-89109842D01*
X72059000Y-89454939D01*
X71859216Y-89454939D01*
X71961293Y-89291042D01*
X73078354Y-87565582D01*
X73098810Y-87514097D01*
X73129735Y-87468134D01*
X73142863Y-87403224D01*
X73167319Y-87341672D01*
X73166515Y-87286278D01*
X73177497Y-87231979D01*
X73164784Y-87166978D01*
X73163823Y-87100760D01*
X73141884Y-87049893D01*
X73131250Y-86995523D01*
X71529603Y-83093469D01*
X85075093Y-83093469D01*
X85087427Y-83210871D01*
X85098822Y-83328368D01*
X85100004Y-83330588D01*
X85100267Y-83333087D01*
X86050267Y-86393088D01*
X86069812Y-86429090D01*
X86079402Y-86468911D01*
X86126789Y-86534039D01*
X86165222Y-86604832D01*
X86197055Y-86630612D01*
X86221155Y-86663735D01*
X86289866Y-86705776D01*
X86352458Y-86756466D01*
X86391732Y-86768102D01*
X86426674Y-86789481D01*
X89694441Y-87992450D01*
X89867650Y-88165961D01*
X90134756Y-88276874D01*
X90423975Y-88277126D01*
X90691275Y-88166680D01*
X90895961Y-87962350D01*
X91006874Y-87695244D01*
X91007126Y-87406025D01*
X90896680Y-87138725D01*
X90692350Y-86934039D01*
X90425244Y-86823126D01*
X90136025Y-86822874D01*
X90115404Y-86831394D01*
X87667421Y-85930213D01*
X102959392Y-85930213D01*
X103028857Y-86172397D01*
X103552302Y-86359144D01*
X104107368Y-86331362D01*
X104491143Y-86172397D01*
X104560608Y-85930213D01*
X103760000Y-85129605D01*
X102959392Y-85930213D01*
X87667421Y-85930213D01*
X87139360Y-85735817D01*
X86815913Y-84693975D01*
X87462874Y-84693975D01*
X87573320Y-84961275D01*
X87777650Y-85165961D01*
X88044756Y-85276874D01*
X88333975Y-85277126D01*
X88601275Y-85166680D01*
X88805961Y-84962350D01*
X88897333Y-84742302D01*
X102350856Y-84742302D01*
X102378638Y-85297368D01*
X102537603Y-85681143D01*
X102779787Y-85750608D01*
X103580395Y-84950000D01*
X103939605Y-84950000D01*
X104740213Y-85750608D01*
X104982397Y-85681143D01*
X105169144Y-85157698D01*
X105141362Y-84602632D01*
X104982397Y-84218857D01*
X104740213Y-84149392D01*
X103939605Y-84950000D01*
X103580395Y-84950000D01*
X102779787Y-84149392D01*
X102537603Y-84218857D01*
X102350856Y-84742302D01*
X88897333Y-84742302D01*
X88916874Y-84695244D01*
X88917111Y-84423640D01*
X89113012Y-83969787D01*
X102959392Y-83969787D01*
X103760000Y-84770395D01*
X104560608Y-83969787D01*
X104491143Y-83727603D01*
X103967698Y-83540856D01*
X103412632Y-83568638D01*
X103028857Y-83727603D01*
X102959392Y-83969787D01*
X89113012Y-83969787D01*
X89913613Y-82115000D01*
X109647500Y-82115000D01*
X109647500Y-82750000D01*
X109694504Y-82986307D01*
X109828362Y-83186638D01*
X110028693Y-83320496D01*
X110265000Y-83367500D01*
X110900000Y-83367500D01*
X111136307Y-83320496D01*
X111336638Y-83186638D01*
X111971639Y-82551638D01*
X112105496Y-82351307D01*
X112152500Y-82115000D01*
X112152500Y-82097500D01*
X112170000Y-82097500D01*
X112406308Y-82050496D01*
X112606639Y-81916639D01*
X112740496Y-81716308D01*
X112787500Y-81480000D01*
X112740496Y-81243693D01*
X112606639Y-81043362D01*
X111971638Y-80408362D01*
X111771307Y-80274504D01*
X111535000Y-80227500D01*
X111298693Y-80274504D01*
X111098362Y-80408362D01*
X110964504Y-80608693D01*
X110917500Y-80845000D01*
X110917500Y-80862500D01*
X110900000Y-80862500D01*
X110663693Y-80909504D01*
X110463362Y-81043361D01*
X109828363Y-81678361D01*
X109828362Y-81678362D01*
X109694504Y-81878693D01*
X109647500Y-82115000D01*
X89913613Y-82115000D01*
X90966940Y-79674714D01*
X90977493Y-79625477D01*
X90999018Y-79579949D01*
X91002503Y-79508788D01*
X91017433Y-79439128D01*
X91008340Y-79389599D01*
X91010803Y-79339300D01*
X90668482Y-77033975D01*
X91412874Y-77033975D01*
X91523320Y-77301275D01*
X91601369Y-77379460D01*
X91643786Y-77612754D01*
X91593126Y-77734756D01*
X91592874Y-78023975D01*
X91703320Y-78291275D01*
X91907650Y-78495961D01*
X92174756Y-78606874D01*
X92463975Y-78607126D01*
X92731275Y-78496680D01*
X92935961Y-78292350D01*
X93046874Y-78025244D01*
X93047126Y-77736025D01*
X93007926Y-77641154D01*
X93669420Y-74743975D01*
X93972874Y-74743975D01*
X94083320Y-75011275D01*
X94287650Y-75215961D01*
X94487343Y-75298881D01*
X96677893Y-77838550D01*
X96584116Y-78310000D01*
X96682357Y-78803891D01*
X96962124Y-79222592D01*
X97380825Y-79502359D01*
X97874716Y-79600600D01*
X97925284Y-79600600D01*
X98419175Y-79502359D01*
X98837876Y-79222592D01*
X99117643Y-78803891D01*
X99170000Y-78540675D01*
X99222357Y-78803891D01*
X99502124Y-79222592D01*
X99920825Y-79502359D01*
X100414716Y-79600600D01*
X100465284Y-79600600D01*
X100959175Y-79502359D01*
X101377876Y-79222592D01*
X101535308Y-78986978D01*
X107822627Y-78986978D01*
X108195658Y-79487608D01*
X109619262Y-80089333D01*
X111164772Y-80100466D01*
X112596896Y-79519311D01*
X112644342Y-79487608D01*
X113017373Y-78986978D01*
X110420000Y-76389605D01*
X107822627Y-78986978D01*
X101535308Y-78986978D01*
X101657643Y-78803891D01*
X101755884Y-78310000D01*
X101702978Y-78044025D01*
X102340831Y-77499724D01*
X102400291Y-77424367D01*
X102465638Y-77354055D01*
X102474439Y-77330395D01*
X102490076Y-77310577D01*
X102516171Y-77218203D01*
X102549636Y-77128235D01*
X102577587Y-76954772D01*
X106529534Y-76954772D01*
X107110689Y-78386896D01*
X107142392Y-78434342D01*
X107643022Y-78807373D01*
X110240395Y-76210000D01*
X110599605Y-76210000D01*
X113196978Y-78807373D01*
X113697608Y-78434342D01*
X114299333Y-77010738D01*
X114310466Y-75465228D01*
X113729311Y-74033104D01*
X113697608Y-73985658D01*
X113196978Y-73612627D01*
X110599605Y-76210000D01*
X110240395Y-76210000D01*
X107643022Y-73612627D01*
X107142392Y-73985658D01*
X106540667Y-75409262D01*
X106529534Y-76954772D01*
X102577587Y-76954772D01*
X102889636Y-75018235D01*
X102886696Y-74937893D01*
X102894366Y-74857873D01*
X102882328Y-74818558D01*
X102880824Y-74777460D01*
X102847362Y-74704360D01*
X102823826Y-74627494D01*
X102797655Y-74595774D01*
X102780540Y-74558385D01*
X102721653Y-74503656D01*
X102670492Y-74441647D01*
X101690492Y-73641647D01*
X101634926Y-73612132D01*
X101585914Y-73572680D01*
X101529566Y-73556168D01*
X101477710Y-73528624D01*
X101415081Y-73522621D01*
X101354700Y-73504927D01*
X100546166Y-73433022D01*
X107822627Y-73433022D01*
X110420000Y-76030395D01*
X113017373Y-73433022D01*
X112644342Y-72932392D01*
X111220738Y-72330667D01*
X109675228Y-72319534D01*
X108243104Y-72900689D01*
X108195658Y-72932392D01*
X107822627Y-73433022D01*
X100546166Y-73433022D01*
X96322762Y-73057424D01*
X95629564Y-72931388D01*
X95552350Y-72854039D01*
X95285244Y-72743126D01*
X94996025Y-72742874D01*
X94728725Y-72853320D01*
X94524039Y-73057650D01*
X94413126Y-73324756D01*
X94412874Y-73613975D01*
X94523320Y-73881275D01*
X94526933Y-73884894D01*
X94288725Y-73983320D01*
X94084039Y-74187650D01*
X93973126Y-74454756D01*
X93972874Y-74743975D01*
X93669420Y-74743975D01*
X94416593Y-71471545D01*
X94515961Y-71372350D01*
X94626874Y-71105244D01*
X94627126Y-70816025D01*
X94516680Y-70548725D01*
X94312350Y-70344039D01*
X94045244Y-70233126D01*
X93756025Y-70232874D01*
X93488725Y-70343320D01*
X93284039Y-70547650D01*
X93173126Y-70814756D01*
X93172874Y-71103975D01*
X93212074Y-71198847D01*
X92078652Y-76162946D01*
X91996025Y-76162874D01*
X91728725Y-76273320D01*
X91524039Y-76477650D01*
X91413126Y-76744756D01*
X91412874Y-77033975D01*
X90668482Y-77033975D01*
X90377849Y-75076749D01*
X90382179Y-74510254D01*
X90517650Y-74645961D01*
X90784756Y-74756874D01*
X91073975Y-74757126D01*
X91341275Y-74646680D01*
X91545961Y-74442350D01*
X91656874Y-74175244D01*
X91657126Y-73886025D01*
X91546680Y-73618725D01*
X91342350Y-73414039D01*
X91293024Y-73393557D01*
X91038860Y-72910147D01*
X91078384Y-68475469D01*
X102590794Y-68475469D01*
X102771427Y-68912635D01*
X103105606Y-69247397D01*
X103542456Y-69428793D01*
X104015469Y-69429206D01*
X104452635Y-69248573D01*
X104787397Y-68914394D01*
X104968793Y-68477544D01*
X104969206Y-68004531D01*
X104788573Y-67567365D01*
X104454394Y-67232603D01*
X104017544Y-67051207D01*
X103544531Y-67050794D01*
X103107365Y-67231427D01*
X102772603Y-67565606D01*
X102591207Y-68002456D01*
X102590794Y-68475469D01*
X91078384Y-68475469D01*
X91086734Y-67538606D01*
X91884050Y-64728554D01*
X91887801Y-64681842D01*
X91902632Y-64637385D01*
X92242772Y-61944611D01*
X93303462Y-60483989D01*
X95745386Y-58877704D01*
X98255658Y-58312414D01*
X98303450Y-58291195D01*
X98354760Y-58281133D01*
X98412500Y-58242778D01*
X98475866Y-58214645D01*
X98511900Y-58176751D01*
X98555454Y-58147820D01*
X98594125Y-58090282D01*
X98641896Y-58040046D01*
X98660685Y-57991250D01*
X98689853Y-57947852D01*
X98737872Y-57832807D01*
X99080000Y-57900861D01*
X99573891Y-57802620D01*
X99992592Y-57522853D01*
X100272359Y-57104152D01*
X100370600Y-56610261D01*
X100370600Y-54209739D01*
X100272359Y-53715848D01*
X99992592Y-53297147D01*
X99573891Y-53017380D01*
X99080000Y-52919139D01*
X98586109Y-53017380D01*
X98167408Y-53297147D01*
X97887641Y-53715848D01*
X97810000Y-54106176D01*
X97732359Y-53715848D01*
X97452592Y-53297147D01*
X97033891Y-53017380D01*
X96540000Y-52919139D01*
X96046109Y-53017380D01*
X95627408Y-53297147D01*
X95347641Y-53715848D01*
X95270000Y-54106176D01*
X95192359Y-53715848D01*
X94912592Y-53297147D01*
X94493891Y-53017380D01*
X94000000Y-52919139D01*
X93506109Y-53017380D01*
X93087408Y-53297147D01*
X92807641Y-53715848D01*
X92730000Y-54106176D01*
X92652359Y-53715848D01*
X92372592Y-53297147D01*
X91953891Y-53017380D01*
X91460000Y-52919139D01*
X91315160Y-52947949D01*
X91167721Y-52490552D01*
X91118612Y-52402380D01*
X91075298Y-52311238D01*
X89267051Y-49882514D01*
X89267126Y-49796025D01*
X89156680Y-49528725D01*
X88975250Y-49346978D01*
X90712627Y-49346978D01*
X91085658Y-49847608D01*
X92509262Y-50449333D01*
X94054772Y-50460466D01*
X95486896Y-49879311D01*
X95534342Y-49847608D01*
X95907373Y-49346978D01*
X93310000Y-46749605D01*
X90712627Y-49346978D01*
X88975250Y-49346978D01*
X88952350Y-49324039D01*
X88685244Y-49213126D01*
X88396025Y-49212874D01*
X88128725Y-49323320D01*
X87924039Y-49527650D01*
X87813126Y-49794756D01*
X87812874Y-50083975D01*
X87923320Y-50351275D01*
X88127650Y-50555961D01*
X88273990Y-50616727D01*
X89868966Y-52759000D01*
X89205750Y-52759000D01*
X89047000Y-52917750D01*
X89047000Y-55283000D01*
X89067000Y-55283000D01*
X89067000Y-55537000D01*
X89047000Y-55537000D01*
X89047000Y-57902250D01*
X89205750Y-58061000D01*
X89909910Y-58061000D01*
X89934207Y-58050936D01*
X88379335Y-60046957D01*
X88218725Y-60113320D01*
X88014039Y-60317650D01*
X87903126Y-60584756D01*
X87902874Y-60873975D01*
X88013320Y-61141275D01*
X88217650Y-61345961D01*
X88484756Y-61456874D01*
X88773975Y-61457126D01*
X89041275Y-61346680D01*
X89245961Y-61142350D01*
X89356874Y-60875244D01*
X89356938Y-60801641D01*
X90152421Y-59780462D01*
X90307650Y-59935961D01*
X90574756Y-60046874D01*
X90863975Y-60047126D01*
X91131275Y-59936680D01*
X91335961Y-59732350D01*
X91371326Y-59647182D01*
X91844678Y-59360117D01*
X90547261Y-61077825D01*
X90531714Y-61109964D01*
X90507938Y-61136604D01*
X90479674Y-61217546D01*
X90442343Y-61294718D01*
X90440279Y-61330362D01*
X90428508Y-61364071D01*
X90004497Y-64381451D01*
X89226340Y-67100076D01*
X89219455Y-67183406D01*
X89202518Y-67265281D01*
X89142518Y-75115280D01*
X89151553Y-75162589D01*
X89149197Y-75210699D01*
X89763367Y-79346748D01*
X87784677Y-83930861D01*
X87778725Y-83933320D01*
X87574039Y-84137650D01*
X87463126Y-84404756D01*
X87462874Y-84693975D01*
X86815913Y-84693975D01*
X86316912Y-83086670D01*
X87284435Y-73411444D01*
X87281434Y-73380497D01*
X87287500Y-73350000D01*
X87287500Y-70088644D01*
X87396874Y-69825244D01*
X87397126Y-69536025D01*
X87286680Y-69268725D01*
X87082350Y-69064039D01*
X86815244Y-68953126D01*
X86526025Y-68952874D01*
X86258725Y-69063320D01*
X86054039Y-69267650D01*
X85943126Y-69534756D01*
X85942874Y-69823975D01*
X86052500Y-70089290D01*
X86052500Y-73319207D01*
X85075565Y-83088556D01*
X85075808Y-83091057D01*
X85075093Y-83093469D01*
X71529603Y-83093469D01*
X71092658Y-82028952D01*
X68605644Y-75756484D01*
X68485681Y-75440996D01*
X68544557Y-75583488D01*
X68748887Y-75788174D01*
X69015993Y-75899087D01*
X69305212Y-75899339D01*
X69572512Y-75788893D01*
X69777198Y-75584563D01*
X69888111Y-75317457D01*
X69888363Y-75028238D01*
X69862761Y-74966277D01*
X72009201Y-67486886D01*
X72137961Y-67358350D01*
X72248874Y-67091244D01*
X72249126Y-66802025D01*
X72138680Y-66534725D01*
X71934350Y-66330039D01*
X71667244Y-66219126D01*
X71378025Y-66218874D01*
X71110725Y-66329320D01*
X70906039Y-66533650D01*
X70795126Y-66800756D01*
X70794874Y-67089975D01*
X70820476Y-67151936D01*
X68775667Y-74277188D01*
X68724599Y-74311311D01*
X68590741Y-74511642D01*
X68543737Y-74747949D01*
X68543737Y-74763569D01*
X68434363Y-75026969D01*
X68434120Y-75305399D01*
X67211127Y-72089085D01*
X67216874Y-72075244D01*
X67217126Y-71786025D01*
X67106680Y-71518725D01*
X66902350Y-71314039D01*
X66635244Y-71203126D01*
X66346025Y-71202874D01*
X66078725Y-71313320D01*
X65874039Y-71517650D01*
X65763126Y-71784756D01*
X65762874Y-72073975D01*
X51554536Y-72073975D01*
X51713986Y-70585784D01*
X51704774Y-70483265D01*
X51701510Y-70380384D01*
X50526603Y-65318492D01*
X50765800Y-63453975D01*
X61212874Y-63453975D01*
X61323320Y-63721275D01*
X61527650Y-63925961D01*
X61794756Y-64036874D01*
X62083975Y-64037126D01*
X62276287Y-63957664D01*
X65934241Y-64262494D01*
X65967650Y-64295961D01*
X66234756Y-64406874D01*
X66523975Y-64407126D01*
X66791275Y-64296680D01*
X66995961Y-64092350D01*
X67106874Y-63825244D01*
X67107126Y-63536025D01*
X66996680Y-63268725D01*
X66792350Y-63064039D01*
X66525244Y-62953126D01*
X66236025Y-62952874D01*
X66043713Y-63032336D01*
X62385759Y-62727506D01*
X62352350Y-62694039D01*
X62085244Y-62583126D01*
X61796025Y-62582874D01*
X61528725Y-62693320D01*
X61324039Y-62897650D01*
X61213126Y-63164756D01*
X61212874Y-63453975D01*
X50765800Y-63453975D01*
X50852860Y-62775359D01*
X50905961Y-62722350D01*
X51016874Y-62455244D01*
X51017126Y-62166025D01*
X50906680Y-61898725D01*
X50702350Y-61694039D01*
X50435244Y-61583126D01*
X50146025Y-61582874D01*
X49878725Y-61693320D01*
X49674039Y-61897650D01*
X49563126Y-62164756D01*
X49562874Y-62453975D01*
X49628571Y-62612975D01*
X49287520Y-65271425D01*
X49295025Y-65380413D01*
X49298490Y-65489615D01*
X50474897Y-70557970D01*
X49567830Y-79023935D01*
X49524039Y-79067650D01*
X49413126Y-79334756D01*
X49412874Y-79623975D01*
X49520526Y-79884512D01*
X49492993Y-85547081D01*
X48244964Y-89242415D01*
X48240386Y-89277608D01*
X48226303Y-89310173D01*
X48224973Y-89396102D01*
X48213885Y-89481339D01*
X34418779Y-89481339D01*
X31938557Y-85185469D01*
X46870794Y-85185469D01*
X47051427Y-85622635D01*
X47385606Y-85957397D01*
X47822456Y-86138793D01*
X48295469Y-86139206D01*
X48732635Y-85958573D01*
X49067397Y-85624394D01*
X49248793Y-85187544D01*
X49249206Y-84714531D01*
X49068573Y-84277365D01*
X48970079Y-84178699D01*
X48977497Y-84142041D01*
X49027497Y-69012040D01*
X49026562Y-69007258D01*
X49027454Y-69002471D01*
X49022520Y-68979158D01*
X49087397Y-68914394D01*
X49268793Y-68477544D01*
X49269206Y-68004531D01*
X49088573Y-67567365D01*
X48754394Y-67232603D01*
X48317544Y-67051207D01*
X47844531Y-67050794D01*
X47407365Y-67231427D01*
X47072603Y-67565606D01*
X46891207Y-68002456D01*
X46890794Y-68475469D01*
X47071427Y-68912635D01*
X47153391Y-68994742D01*
X47152501Y-68999186D01*
X47132501Y-84159185D01*
X47138550Y-84189808D01*
X47052603Y-84275606D01*
X46871207Y-84712456D01*
X46870794Y-85185469D01*
X31938557Y-85185469D01*
X28380063Y-79021978D01*
X39507627Y-79021978D01*
X39880658Y-79522608D01*
X41304262Y-80124333D01*
X42849772Y-80135466D01*
X44281896Y-79554311D01*
X44329342Y-79522608D01*
X44702373Y-79021978D01*
X42105000Y-76424605D01*
X39507627Y-79021978D01*
X28380063Y-79021978D01*
X27206768Y-76989772D01*
X38214534Y-76989772D01*
X38795689Y-78421896D01*
X38827392Y-78469342D01*
X39328022Y-78842373D01*
X41925395Y-76245000D01*
X42284605Y-76245000D01*
X44881978Y-78842373D01*
X45382608Y-78469342D01*
X45984333Y-77045738D01*
X45995466Y-75500228D01*
X45414311Y-74068104D01*
X45382608Y-74020658D01*
X44881978Y-73647627D01*
X42284605Y-76245000D01*
X41925395Y-76245000D01*
X39328022Y-73647627D01*
X38827392Y-74020658D01*
X38225667Y-75444262D01*
X38214534Y-76989772D01*
X27206768Y-76989772D01*
X26750792Y-76200000D01*
X28328100Y-73468022D01*
X39507627Y-73468022D01*
X42105000Y-76065395D01*
X44702373Y-73468022D01*
X44329342Y-72967392D01*
X42905738Y-72365667D01*
X41360228Y-72354534D01*
X39928104Y-72935689D01*
X39880658Y-72967392D01*
X39507627Y-73468022D01*
X28328100Y-73468022D01*
X42254391Y-49346978D01*
X56482627Y-49346978D01*
X56855658Y-49847608D01*
X58279262Y-50449333D01*
X59824772Y-50460466D01*
X61256896Y-49879311D01*
X61304342Y-49847608D01*
X61677373Y-49346978D01*
X59080000Y-46749605D01*
X56482627Y-49346978D01*
X42254391Y-49346978D01*
X43427686Y-47314772D01*
X55189534Y-47314772D01*
X55770689Y-48746896D01*
X55802392Y-48794342D01*
X56303022Y-49167373D01*
X58900395Y-46570000D01*
X59259605Y-46570000D01*
X61856978Y-49167373D01*
X62357608Y-48794342D01*
X62959333Y-47370738D01*
X62963227Y-46830115D01*
X66373000Y-46830115D01*
X66382999Y-57829558D01*
X66373003Y-59204076D01*
X66381685Y-59251159D01*
X66408965Y-59293553D01*
X66450590Y-59321994D01*
X66500000Y-59332000D01*
X69981920Y-59332000D01*
X69978725Y-59333320D01*
X69774039Y-59537650D01*
X69663126Y-59804756D01*
X69662874Y-60093975D01*
X69772500Y-60359290D01*
X69772500Y-64841356D01*
X69663126Y-65104756D01*
X69662874Y-65393975D01*
X69773320Y-65661275D01*
X69977650Y-65865961D01*
X70244756Y-65976874D01*
X70533975Y-65977126D01*
X70801275Y-65866680D01*
X71005961Y-65662350D01*
X71116874Y-65395244D01*
X71117126Y-65106025D01*
X71007500Y-64840710D01*
X71007500Y-60358644D01*
X71116874Y-60095244D01*
X71117126Y-59806025D01*
X71006680Y-59538725D01*
X70802350Y-59334039D01*
X70797440Y-59332000D01*
X85550000Y-59332000D01*
X85596159Y-59323315D01*
X85638553Y-59296035D01*
X85666994Y-59254410D01*
X85677000Y-59205000D01*
X85677000Y-55695750D01*
X87421400Y-55695750D01*
X87421400Y-57552309D01*
X87518073Y-57785698D01*
X87696701Y-57964327D01*
X87930090Y-58061000D01*
X88634250Y-58061000D01*
X88793000Y-57902250D01*
X88793000Y-55537000D01*
X87580150Y-55537000D01*
X87421400Y-55695750D01*
X85677000Y-55695750D01*
X85677000Y-53267691D01*
X87421400Y-53267691D01*
X87421400Y-55124250D01*
X87580150Y-55283000D01*
X88793000Y-55283000D01*
X88793000Y-52917750D01*
X88634250Y-52759000D01*
X87930090Y-52759000D01*
X87696701Y-52855673D01*
X87518073Y-53034302D01*
X87421400Y-53267691D01*
X85677000Y-53267691D01*
X85677000Y-47314772D01*
X89419534Y-47314772D01*
X90000689Y-48746896D01*
X90032392Y-48794342D01*
X90533022Y-49167373D01*
X93130395Y-46570000D01*
X93489605Y-46570000D01*
X96086978Y-49167373D01*
X96587608Y-48794342D01*
X97189333Y-47370738D01*
X97200466Y-45825228D01*
X96619311Y-44393104D01*
X96587608Y-44345658D01*
X96086978Y-43972627D01*
X93489605Y-46570000D01*
X93130395Y-46570000D01*
X90533022Y-43972627D01*
X90032392Y-44345658D01*
X89430667Y-45769262D01*
X89419534Y-47314772D01*
X85677000Y-47314772D01*
X85677000Y-46830000D01*
X85668315Y-46783841D01*
X85641035Y-46741447D01*
X85599410Y-46713006D01*
X85550000Y-46703000D01*
X66500000Y-46703000D01*
X66453733Y-46711727D01*
X66411364Y-46739046D01*
X66382961Y-46780696D01*
X66373000Y-46830115D01*
X62963227Y-46830115D01*
X62970466Y-45825228D01*
X62499231Y-44663975D01*
X72592874Y-44663975D01*
X72703320Y-44931275D01*
X72907650Y-45135961D01*
X73174756Y-45246874D01*
X73463975Y-45247126D01*
X73527151Y-45221022D01*
X75660284Y-45828373D01*
X75787650Y-45955961D01*
X76054756Y-46066874D01*
X76343975Y-46067126D01*
X76611275Y-45956680D01*
X76815961Y-45752350D01*
X76926874Y-45485244D01*
X76927126Y-45196025D01*
X76816680Y-44928725D01*
X76612350Y-44724039D01*
X76345244Y-44613126D01*
X76056025Y-44612874D01*
X75992848Y-44638978D01*
X73859717Y-44031628D01*
X73732350Y-43904039D01*
X73465244Y-43793126D01*
X73345884Y-43793022D01*
X90712627Y-43793022D01*
X93310000Y-46390395D01*
X95907373Y-43793022D01*
X95534342Y-43292392D01*
X94110738Y-42690667D01*
X92565228Y-42679534D01*
X91133104Y-43260689D01*
X91085658Y-43292392D01*
X90712627Y-43793022D01*
X73345884Y-43793022D01*
X73176025Y-43792874D01*
X72908725Y-43903320D01*
X72704039Y-44107650D01*
X72593126Y-44374756D01*
X72592874Y-44663975D01*
X62499231Y-44663975D01*
X62389311Y-44393104D01*
X62357608Y-44345658D01*
X61856978Y-43972627D01*
X59259605Y-46570000D01*
X58900395Y-46570000D01*
X56303022Y-43972627D01*
X55802392Y-44345658D01*
X55200667Y-45769262D01*
X55189534Y-47314772D01*
X43427686Y-47314772D01*
X45460969Y-43793022D01*
X56482627Y-43793022D01*
X59080000Y-46390395D01*
X61677373Y-43793022D01*
X61304342Y-43292392D01*
X59880738Y-42690667D01*
X58335228Y-42679534D01*
X56903104Y-43260689D01*
X56855658Y-43292392D01*
X56482627Y-43793022D01*
X45460969Y-43793022D01*
X51475396Y-33375730D01*
X100924604Y-33375730D01*
X125649208Y-76200000D01*
X125649208Y-76200000D01*
G37*
X125649208Y-76200000D02*
X100786906Y-119262770D01*
X100776792Y-119292565D01*
X100759309Y-119318730D01*
X100747137Y-119379924D01*
X100727080Y-119439009D01*
X100729138Y-119470411D01*
X100723000Y-119501270D01*
X100723000Y-127684524D01*
X65530929Y-127684524D01*
X65618830Y-127658689D01*
X66050359Y-127310754D01*
X66315891Y-126824165D01*
X66332071Y-126745898D01*
X66209814Y-126527000D01*
X64117000Y-126527000D01*
X64117000Y-126547000D01*
X63863000Y-126547000D01*
X63863000Y-126527000D01*
X61770186Y-126527000D01*
X61647929Y-126745898D01*
X61664109Y-126824165D01*
X61929641Y-127310754D01*
X62361170Y-127658689D01*
X62449071Y-127684524D01*
X60530929Y-127684524D01*
X60618830Y-127658689D01*
X61050359Y-127310754D01*
X61315891Y-126824165D01*
X61332071Y-126745898D01*
X61209814Y-126527000D01*
X59117000Y-126527000D01*
X59117000Y-126547000D01*
X58863000Y-126547000D01*
X58863000Y-126527000D01*
X56770186Y-126527000D01*
X56647929Y-126745898D01*
X56664109Y-126824165D01*
X56929641Y-127310754D01*
X57361170Y-127658689D01*
X57449071Y-127684524D01*
X51677000Y-127684524D01*
X51677000Y-126054102D01*
X56647929Y-126054102D01*
X56770186Y-126273000D01*
X58863000Y-126273000D01*
X58863000Y-126253000D01*
X59117000Y-126253000D01*
X59117000Y-126273000D01*
X61209814Y-126273000D01*
X61332071Y-126054102D01*
X61315891Y-125975835D01*
X61050359Y-125489246D01*
X60618830Y-125141311D01*
X60087000Y-124985000D01*
X59958750Y-124985000D01*
X60092500Y-124851250D01*
X60092500Y-124298017D01*
X60193173Y-124112684D01*
X60207318Y-124041185D01*
X60092500Y-123840697D01*
X60092500Y-123827002D01*
X60209635Y-123827002D01*
X60209635Y-124375000D01*
X60239409Y-124533237D01*
X60287500Y-124607972D01*
X60287500Y-124851250D01*
X60446250Y-125010000D01*
X60511309Y-125010000D01*
X60744698Y-124913327D01*
X60847661Y-124810365D01*
X61035000Y-124810365D01*
X61169774Y-124785006D01*
X61295000Y-124810365D01*
X61685000Y-124810365D01*
X61819774Y-124785006D01*
X61945000Y-124810365D01*
X62335000Y-124810365D01*
X62469774Y-124785006D01*
X62595000Y-124810365D01*
X62985000Y-124810365D01*
X63143237Y-124780591D01*
X63220475Y-124730890D01*
X63467651Y-124930972D01*
X63650172Y-124985000D01*
X62893000Y-124985000D01*
X62361170Y-125141311D01*
X61929641Y-125489246D01*
X61664109Y-125975835D01*
X61647929Y-126054102D01*
X61770186Y-126273000D01*
X63863000Y-126273000D01*
X63863000Y-126253000D01*
X64117000Y-126253000D01*
X64117000Y-126273000D01*
X66209814Y-126273000D01*
X66332071Y-126054102D01*
X66315891Y-125975835D01*
X66050359Y-125489246D01*
X65618830Y-125141311D01*
X65208845Y-125020812D01*
X65512349Y-124930972D01*
X65934145Y-124589540D01*
X66193173Y-124112684D01*
X66207318Y-124041185D01*
X66084656Y-123827000D01*
X64617000Y-123827000D01*
X64617000Y-123847000D01*
X64363000Y-123847000D01*
X64363000Y-123827000D01*
X64343000Y-123827000D01*
X64343000Y-123573000D01*
X64363000Y-123573000D01*
X64363000Y-122315000D01*
X64617000Y-122315000D01*
X64617000Y-123573000D01*
X66084656Y-123573000D01*
X66153157Y-123453387D01*
X86242822Y-123453387D01*
X86398844Y-123830989D01*
X86687492Y-124120140D01*
X87064821Y-124276821D01*
X87473387Y-124277178D01*
X87850989Y-124121156D01*
X88140140Y-123832508D01*
X88296821Y-123455179D01*
X88296822Y-123453387D01*
X93042822Y-123453387D01*
X93198844Y-123830989D01*
X93487492Y-124120140D01*
X93864821Y-124276821D01*
X94273387Y-124277178D01*
X94650989Y-124121156D01*
X94940140Y-123832508D01*
X95096821Y-123455179D01*
X95097178Y-123046613D01*
X94941156Y-122669011D01*
X94652508Y-122379860D01*
X94275179Y-122223179D01*
X93866613Y-122222822D01*
X93489011Y-122378844D01*
X93199860Y-122667492D01*
X93043179Y-123044821D01*
X93042822Y-123453387D01*
X88296822Y-123453387D01*
X88297178Y-123046613D01*
X88141156Y-122669011D01*
X87852508Y-122379860D01*
X87475179Y-122223179D01*
X87066613Y-122222822D01*
X86689011Y-122378844D01*
X86399860Y-122667492D01*
X86243179Y-123044821D01*
X86242822Y-123453387D01*
X66153157Y-123453387D01*
X66207318Y-123358815D01*
X66193173Y-123287316D01*
X65934145Y-122810460D01*
X65512349Y-122469028D01*
X64992000Y-122315000D01*
X64617000Y-122315000D01*
X64363000Y-122315000D01*
X63988000Y-122315000D01*
X63467651Y-122469028D01*
X63451373Y-122482204D01*
X63456718Y-122314390D01*
X63556361Y-121064316D01*
X70711935Y-106240649D01*
X73115966Y-104120000D01*
X77142501Y-104120000D01*
X77150179Y-104158603D01*
X77147430Y-104197873D01*
X77173482Y-104275758D01*
X77189504Y-104356307D01*
X77210830Y-104388223D01*
X77210247Y-104391915D01*
X77188458Y-104454428D01*
X77191634Y-104509763D01*
X77182986Y-104564514D01*
X77198469Y-104628882D01*
X77202262Y-104694969D01*
X77342262Y-105234969D01*
X77373108Y-105298821D01*
X77393163Y-105366836D01*
X77425015Y-105406271D01*
X77447066Y-105451917D01*
X77499997Y-105499102D01*
X77544555Y-105554268D01*
X77589077Y-105578513D01*
X77626915Y-105612244D01*
X77693874Y-105635582D01*
X77756151Y-105669496D01*
X78218141Y-105813579D01*
X84370701Y-114182534D01*
X87134635Y-119752662D01*
X87134635Y-121700000D01*
X87164409Y-121858237D01*
X87257927Y-122003567D01*
X87400619Y-122101064D01*
X87570000Y-122135365D01*
X88770000Y-122135365D01*
X88928237Y-122105591D01*
X89073567Y-122012073D01*
X89171064Y-121869381D01*
X89205365Y-121700000D01*
X89205365Y-119200000D01*
X89634635Y-119200000D01*
X89634635Y-121700000D01*
X89664409Y-121858237D01*
X89757927Y-122003567D01*
X89900619Y-122101064D01*
X90070000Y-122135365D01*
X91270000Y-122135365D01*
X91428237Y-122105591D01*
X91573567Y-122012073D01*
X91671064Y-121869381D01*
X91705365Y-121700000D01*
X91705365Y-119691567D01*
X91934762Y-119200000D01*
X92134635Y-119200000D01*
X92134635Y-121700000D01*
X92164409Y-121858237D01*
X92257927Y-122003567D01*
X92400619Y-122101064D01*
X92570000Y-122135365D01*
X93770000Y-122135365D01*
X93928237Y-122105591D01*
X94073567Y-122012073D01*
X94171064Y-121869381D01*
X94205365Y-121700000D01*
X94205365Y-120358886D01*
X94268995Y-120302633D01*
X94332416Y-120219295D01*
X94400086Y-120139355D01*
X99200086Y-111479355D01*
X99231498Y-111381215D01*
X99268502Y-111285034D01*
X101666176Y-97394376D01*
X108413170Y-87313456D01*
X108458965Y-87203137D01*
X108505181Y-87092729D01*
X109085181Y-84232729D01*
X109085412Y-84170769D01*
X109097500Y-84110000D01*
X109097500Y-83600000D01*
X109094171Y-83583264D01*
X109096584Y-83566368D01*
X109070777Y-83465653D01*
X109050496Y-83363693D01*
X109041015Y-83349504D01*
X109036779Y-83332972D01*
X108974395Y-83249800D01*
X108916638Y-83163362D01*
X108902449Y-83153881D01*
X108892209Y-83140229D01*
X108802747Y-83087262D01*
X108716307Y-83029504D01*
X108699571Y-83026175D01*
X108684885Y-83017480D01*
X108581962Y-83002781D01*
X108480000Y-82982500D01*
X108463262Y-82985829D01*
X108446369Y-82983417D01*
X107896368Y-83013417D01*
X107811387Y-83035192D01*
X107724550Y-83047680D01*
X107695592Y-83064863D01*
X107662972Y-83073221D01*
X107592789Y-83125863D01*
X107517345Y-83170629D01*
X107497166Y-83197586D01*
X107470229Y-83217791D01*
X107425535Y-83293279D01*
X107372962Y-83363513D01*
X107364635Y-83396140D01*
X107347480Y-83425116D01*
X107335077Y-83511963D01*
X107313384Y-83596967D01*
X107309721Y-83665347D01*
X107264895Y-83683654D01*
X107165388Y-83718657D01*
X107153844Y-83729008D01*
X107139490Y-83734870D01*
X107064534Y-83809085D01*
X106986000Y-83879500D01*
X106979296Y-83893480D01*
X106968278Y-83904389D01*
X106927431Y-84001634D01*
X106881819Y-84096748D01*
X106880975Y-84112231D01*
X106874971Y-84126525D01*
X106774971Y-84616525D01*
X106774910Y-84628796D01*
X106770606Y-84640281D01*
X106774314Y-84748828D01*
X106773774Y-84857458D01*
X106778412Y-84868815D01*
X106778831Y-84881077D01*
X106823803Y-84979956D01*
X106864870Y-85080510D01*
X106873502Y-85089228D01*
X106878581Y-85100395D01*
X106946264Y-85163606D01*
X106677413Y-86568965D01*
X99958814Y-96483597D01*
X99955134Y-96492320D01*
X99948597Y-96499174D01*
X99908430Y-96603027D01*
X99865163Y-96705588D01*
X99865101Y-96715056D01*
X99861685Y-96723889D01*
X97409491Y-110781812D01*
X92994299Y-118764635D01*
X92570000Y-118764635D01*
X92411763Y-118794409D01*
X92266433Y-118887927D01*
X92168936Y-119030619D01*
X92134635Y-119200000D01*
X91934762Y-119200000D01*
X92459434Y-118075704D01*
X92481275Y-118066680D01*
X92685961Y-117862350D01*
X92796874Y-117595244D01*
X92797126Y-117306025D01*
X92795609Y-117302354D01*
X92995961Y-117102350D01*
X93106874Y-116835244D01*
X93107126Y-116546025D01*
X92996680Y-116278725D01*
X92792350Y-116074039D01*
X92525244Y-115963126D01*
X92236025Y-115962874D01*
X91968725Y-116073320D01*
X91764039Y-116277650D01*
X91684056Y-116470268D01*
X91676951Y-116479219D01*
X91608657Y-116555387D01*
X91602424Y-116573107D01*
X91590748Y-116587816D01*
X90472382Y-118764635D01*
X90070000Y-118764635D01*
X89911763Y-118794409D01*
X89766433Y-118887927D01*
X89668936Y-119030619D01*
X89634635Y-119200000D01*
X89205365Y-119200000D01*
X89175591Y-119041763D01*
X89082073Y-118896433D01*
X88939381Y-118798936D01*
X88770000Y-118764635D01*
X88427649Y-118764635D01*
X85771893Y-113473016D01*
X85739533Y-113431449D01*
X85717162Y-113383754D01*
X82205604Y-108616978D01*
X90702627Y-108616978D01*
X91075658Y-109117608D01*
X92499262Y-109719333D01*
X94044772Y-109730466D01*
X95476896Y-109149311D01*
X95524342Y-109117608D01*
X95897373Y-108616978D01*
X93300000Y-106019605D01*
X90702627Y-108616978D01*
X82205604Y-108616978D01*
X80708531Y-106584772D01*
X89409534Y-106584772D01*
X89990689Y-108016896D01*
X90022392Y-108064342D01*
X90523022Y-108437373D01*
X93120395Y-105840000D01*
X93479605Y-105840000D01*
X96076978Y-108437373D01*
X96577608Y-108064342D01*
X97179333Y-106640738D01*
X97190466Y-105095228D01*
X96609311Y-103663104D01*
X96577608Y-103615658D01*
X96076978Y-103242627D01*
X93479605Y-105840000D01*
X93120395Y-105840000D01*
X90523022Y-103242627D01*
X90022392Y-103615658D01*
X89420667Y-105039262D01*
X89409534Y-106584772D01*
X80708531Y-106584772D01*
X79147500Y-104465747D01*
X79147500Y-103970000D01*
X79139193Y-103928240D01*
X79141724Y-103885734D01*
X79115898Y-103811127D01*
X79100496Y-103733693D01*
X79076839Y-103698288D01*
X79062911Y-103658052D01*
X78822911Y-103248052D01*
X78792411Y-103213690D01*
X78771148Y-103172956D01*
X78713168Y-103124415D01*
X78662969Y-103067861D01*
X78653007Y-103063022D01*
X90702627Y-103063022D01*
X93300000Y-105660395D01*
X95897373Y-103063022D01*
X95524342Y-102562392D01*
X94100738Y-101960667D01*
X92555228Y-101949534D01*
X91123104Y-102530689D01*
X91075658Y-102562392D01*
X90702627Y-103063022D01*
X78653007Y-103063022D01*
X78621637Y-103047786D01*
X78586407Y-103018291D01*
X78514260Y-102995631D01*
X78446244Y-102962595D01*
X78400382Y-102959865D01*
X78356541Y-102946095D01*
X78281216Y-102952770D01*
X78205734Y-102948276D01*
X78162313Y-102963306D01*
X78116545Y-102967362D01*
X77706545Y-103087362D01*
X77642325Y-103120884D01*
X77573634Y-103143861D01*
X77536535Y-103176104D01*
X77492956Y-103198852D01*
X77446456Y-103254395D01*
X77391783Y-103301912D01*
X77369845Y-103345903D01*
X77338291Y-103383593D01*
X77316586Y-103452699D01*
X77284258Y-103517525D01*
X77164258Y-103957525D01*
X77158522Y-104039457D01*
X77142501Y-104120000D01*
X73115966Y-104120000D01*
X75708491Y-101833078D01*
X75767965Y-101755104D01*
X75833034Y-101681738D01*
X77436027Y-98940817D01*
X78205075Y-97903975D01*
X93932874Y-97903975D01*
X94043320Y-98171275D01*
X94247650Y-98375961D01*
X94514756Y-98486874D01*
X94803975Y-98487126D01*
X95071275Y-98376680D01*
X95275961Y-98172350D01*
X95278307Y-98166700D01*
X98611809Y-96736889D01*
X98883975Y-96737126D01*
X99151275Y-96626680D01*
X99355961Y-96422350D01*
X99466874Y-96155244D01*
X99467126Y-95866025D01*
X99356680Y-95598725D01*
X99152350Y-95394039D01*
X98885244Y-95283126D01*
X98596025Y-95282874D01*
X98328725Y-95393320D01*
X98124039Y-95597650D01*
X98121693Y-95603300D01*
X94788191Y-97033111D01*
X94516025Y-97032874D01*
X94248725Y-97143320D01*
X94044039Y-97347650D01*
X93933126Y-97614756D01*
X93932874Y-97903975D01*
X78205075Y-97903975D01*
X78307285Y-97766175D01*
X78451275Y-97706680D01*
X78655961Y-97502350D01*
X78766874Y-97235244D01*
X78767126Y-96946025D01*
X78656680Y-96678725D01*
X78452350Y-96474039D01*
X78185244Y-96363126D01*
X77896025Y-96362874D01*
X77628725Y-96473320D01*
X77424039Y-96677650D01*
X77313126Y-96944756D01*
X77313049Y-97033555D01*
X76424036Y-98232133D01*
X76409509Y-98262844D01*
X76386966Y-98288261D01*
X74817075Y-100972582D01*
X69801509Y-105396922D01*
X69800455Y-105398303D01*
X69798956Y-105399186D01*
X69727408Y-105494074D01*
X69655391Y-105588494D01*
X69654946Y-105590175D01*
X69653899Y-105591563D01*
X62393899Y-120631563D01*
X62365409Y-120741589D01*
X62334452Y-120850935D01*
X62224452Y-122230935D01*
X62226194Y-122245784D01*
X62222813Y-122260344D01*
X62212326Y-122589635D01*
X61945000Y-122589635D01*
X61810226Y-122614994D01*
X61685000Y-122589635D01*
X61295000Y-122589635D01*
X61160226Y-122614994D01*
X61035000Y-122589635D01*
X60847661Y-122589635D01*
X60744698Y-122486673D01*
X60511309Y-122390000D01*
X60446250Y-122390000D01*
X60287500Y-122548750D01*
X60287500Y-122791861D01*
X60243936Y-122855619D01*
X60209635Y-123025000D01*
X60209635Y-123572998D01*
X60092500Y-123572998D01*
X60092500Y-123559303D01*
X60207318Y-123358815D01*
X60193173Y-123287316D01*
X60092500Y-123101983D01*
X60092500Y-122548750D01*
X59933750Y-122390000D01*
X59868691Y-122390000D01*
X59635302Y-122486673D01*
X59590050Y-122531925D01*
X59512349Y-122469028D01*
X58992000Y-122315000D01*
X58617000Y-122315000D01*
X58617000Y-123573000D01*
X58637000Y-123573000D01*
X58637000Y-123827000D01*
X58617000Y-123827000D01*
X58617000Y-123847000D01*
X58363000Y-123847000D01*
X58363000Y-123827000D01*
X56895344Y-123827000D01*
X56772682Y-124041185D01*
X56786827Y-124112684D01*
X57045855Y-124589540D01*
X57467651Y-124930972D01*
X57771155Y-125020812D01*
X57361170Y-125141311D01*
X56929641Y-125489246D01*
X56664109Y-125975835D01*
X56647929Y-126054102D01*
X51677000Y-126054102D01*
X51677000Y-123358815D01*
X56772682Y-123358815D01*
X56895344Y-123573000D01*
X58363000Y-123573000D01*
X58363000Y-122315000D01*
X57988000Y-122315000D01*
X57467651Y-122469028D01*
X57045855Y-122810460D01*
X56786827Y-123287316D01*
X56772682Y-123358815D01*
X51677000Y-123358815D01*
X51677000Y-119501270D01*
X51670862Y-119470411D01*
X51672920Y-119439009D01*
X51652863Y-119379924D01*
X51640691Y-119318730D01*
X51623208Y-119292565D01*
X51613094Y-119262770D01*
X45460971Y-108606978D01*
X56472627Y-108606978D01*
X56845658Y-109107608D01*
X58269262Y-109709333D01*
X59814772Y-109720466D01*
X61246896Y-109139311D01*
X61294342Y-109107608D01*
X61667373Y-108606978D01*
X59070000Y-106009605D01*
X56472627Y-108606978D01*
X45460971Y-108606978D01*
X44287676Y-106574772D01*
X55179534Y-106574772D01*
X55760689Y-108006896D01*
X55792392Y-108054342D01*
X56293022Y-108427373D01*
X58890395Y-105830000D01*
X59249605Y-105830000D01*
X61846978Y-108427373D01*
X62347608Y-108054342D01*
X62949333Y-106630738D01*
X62960466Y-105085228D01*
X62379311Y-103653104D01*
X62347608Y-103605658D01*
X61846978Y-103232627D01*
X59249605Y-105830000D01*
X58890395Y-105830000D01*
X56293022Y-103232627D01*
X55792392Y-103605658D01*
X55190667Y-105029262D01*
X55179534Y-106574772D01*
X44287676Y-106574772D01*
X42254393Y-103053022D01*
X56472627Y-103053022D01*
X59070000Y-105650395D01*
X61667373Y-103053022D01*
X61294342Y-102552392D01*
X59870738Y-101950667D01*
X58325228Y-101939534D01*
X56893104Y-102520689D01*
X56845658Y-102552392D01*
X56472627Y-103053022D01*
X42254393Y-103053022D01*
X34418779Y-89481339D01*
X48213885Y-89481339D01*
X48223122Y-89515600D01*
X48222573Y-89551080D01*
X48254233Y-89630990D01*
X48276605Y-89713969D01*
X48298247Y-89742084D01*
X48311319Y-89775077D01*
X48832988Y-90582593D01*
X48832874Y-90713975D01*
X48943320Y-90981275D01*
X49147650Y-91185961D01*
X49414756Y-91296874D01*
X49703975Y-91297126D01*
X49971275Y-91186680D01*
X50175961Y-90982350D01*
X50286874Y-90715244D01*
X50287126Y-90426025D01*
X50176680Y-90158725D01*
X49972350Y-89954039D01*
X49869685Y-89911408D01*
X49510392Y-89355242D01*
X50190303Y-87342066D01*
X69090068Y-87342066D01*
X69136706Y-87508474D01*
X69244412Y-87643626D01*
X70240270Y-88479250D01*
X70380625Y-88558154D01*
X70552066Y-88579932D01*
X70718474Y-88533294D01*
X70853626Y-88425588D01*
X71689250Y-87429730D01*
X71768154Y-87289375D01*
X71789932Y-87117934D01*
X71743294Y-86951526D01*
X71635588Y-86816374D01*
X70639730Y-85980750D01*
X70499375Y-85901846D01*
X70327934Y-85880068D01*
X70161526Y-85926706D01*
X70026374Y-86034412D01*
X69190750Y-87030270D01*
X69111846Y-87170625D01*
X69090068Y-87342066D01*
X50190303Y-87342066D01*
X50695035Y-85847585D01*
X50707766Y-85749714D01*
X50727493Y-85653002D01*
X50734781Y-84153975D01*
X57282874Y-84153975D01*
X57393320Y-84421275D01*
X57597650Y-84625961D01*
X57864756Y-84736874D01*
X58153975Y-84737126D01*
X58421275Y-84626680D01*
X58625961Y-84422350D01*
X58707852Y-84225137D01*
X61610575Y-81737088D01*
X61653975Y-81737126D01*
X61921275Y-81626680D01*
X62125961Y-81422350D01*
X62236874Y-81155244D01*
X62237126Y-80866025D01*
X62126680Y-80598725D01*
X61922350Y-80394039D01*
X61655244Y-80283126D01*
X61366025Y-80282874D01*
X61098725Y-80393320D01*
X60894039Y-80597650D01*
X60812149Y-80794863D01*
X57909424Y-83282912D01*
X57866025Y-83282874D01*
X57598725Y-83393320D01*
X57394039Y-83597650D01*
X57283126Y-83864756D01*
X57282874Y-84153975D01*
X50734781Y-84153975D01*
X50755500Y-79892810D01*
X50755961Y-79892350D01*
X50866874Y-79625244D01*
X50867126Y-79336025D01*
X50795129Y-79161780D01*
X51042393Y-76853975D01*
X53342874Y-76853975D01*
X53453320Y-77121275D01*
X53657650Y-77325961D01*
X53924756Y-77436874D01*
X54213975Y-77437126D01*
X54481275Y-77326680D01*
X54492150Y-77315824D01*
X63647433Y-77057254D01*
X63728492Y-77038737D01*
X63811212Y-77030312D01*
X65584428Y-76485976D01*
X65634756Y-76506874D01*
X65923975Y-76507126D01*
X66191275Y-76396680D01*
X66395961Y-76192350D01*
X66506874Y-75925244D01*
X66507126Y-75636025D01*
X66396680Y-75368725D01*
X66192350Y-75164039D01*
X65925244Y-75053126D01*
X65636025Y-75052874D01*
X65368725Y-75163320D01*
X65228418Y-75303383D01*
X63528852Y-75825110D01*
X54452064Y-76081463D01*
X54215244Y-75983126D01*
X53926025Y-75982874D01*
X53658725Y-76093320D01*
X53454039Y-76297650D01*
X53343126Y-76564756D01*
X53342874Y-76853975D01*
X51042393Y-76853975D01*
X51554536Y-72073975D01*
X65762874Y-72073975D01*
X65873320Y-72341275D01*
X66054926Y-72523198D01*
X67452818Y-76199472D01*
X67455176Y-76203235D01*
X67455975Y-76207599D01*
X69945975Y-82487599D01*
X69948025Y-82490771D01*
X69948750Y-82494477D01*
X71866076Y-87165610D01*
X70921646Y-88624418D01*
X70919612Y-88629536D01*
X70915845Y-88633553D01*
X68785845Y-92053553D01*
X68750536Y-92147170D01*
X68709004Y-92238192D01*
X67537120Y-97204748D01*
X67434039Y-97307650D01*
X67323126Y-97574756D01*
X67322874Y-97863975D01*
X67433320Y-98131275D01*
X67637650Y-98335961D01*
X67904756Y-98446874D01*
X68193975Y-98447126D01*
X68461275Y-98336680D01*
X68574176Y-98223975D01*
X74592874Y-98223975D01*
X74703320Y-98491275D01*
X74907650Y-98695961D01*
X75174756Y-98806874D01*
X75463975Y-98807126D01*
X75731275Y-98696680D01*
X75935961Y-98492350D01*
X76046874Y-98225244D01*
X76047126Y-97936025D01*
X75990241Y-97798352D01*
X76278835Y-95989359D01*
X76345961Y-95922350D01*
X76456874Y-95655244D01*
X76457126Y-95366025D01*
X76346680Y-95098725D01*
X76142350Y-94894039D01*
X75875244Y-94783126D01*
X75586025Y-94782874D01*
X75318725Y-94893320D01*
X75114039Y-95097650D01*
X75003126Y-95364756D01*
X75002874Y-95653975D01*
X75059759Y-95791648D01*
X74771165Y-97600641D01*
X74704039Y-97667650D01*
X74593126Y-97934756D01*
X74592874Y-98223975D01*
X68574176Y-98223975D01*
X68665961Y-98132350D01*
X68776874Y-97865244D01*
X68777126Y-97576025D01*
X68739764Y-97485602D01*
X69887725Y-92620433D01*
X71450437Y-90111288D01*
X72116423Y-90111288D01*
X72378279Y-90550335D01*
X72788218Y-90855753D01*
X73133315Y-90964562D01*
X73324193Y-90823707D01*
X73235521Y-89810179D01*
X72221993Y-89898851D01*
X72116423Y-90111288D01*
X71450437Y-90111288D01*
X71651757Y-89788041D01*
X73488555Y-89788041D01*
X73577227Y-90801569D01*
X73789664Y-90907139D01*
X74228711Y-90645283D01*
X74534129Y-90235344D01*
X74642938Y-89890247D01*
X74502083Y-89699369D01*
X73488555Y-89788041D01*
X71651757Y-89788041D01*
X71859216Y-89454939D01*
X72059000Y-89454939D01*
X72199855Y-89645817D01*
X73213383Y-89557145D01*
X73124711Y-88543617D01*
X73080164Y-88521479D01*
X73377745Y-88521479D01*
X73466417Y-89535007D01*
X74479945Y-89446335D01*
X74585515Y-89233898D01*
X74323659Y-88794851D01*
X73913720Y-88489433D01*
X73568623Y-88380624D01*
X73377745Y-88521479D01*
X73080164Y-88521479D01*
X72912274Y-88438047D01*
X72473227Y-88699903D01*
X72167809Y-89109842D01*
X72059000Y-89454939D01*
X71859216Y-89454939D01*
X71961293Y-89291042D01*
X73078354Y-87565582D01*
X73098810Y-87514097D01*
X73129735Y-87468134D01*
X73142863Y-87403224D01*
X73167319Y-87341672D01*
X73166515Y-87286278D01*
X73177497Y-87231979D01*
X73164784Y-87166978D01*
X73163823Y-87100760D01*
X73141884Y-87049893D01*
X73131250Y-86995523D01*
X71529603Y-83093469D01*
X85075093Y-83093469D01*
X85087427Y-83210871D01*
X85098822Y-83328368D01*
X85100004Y-83330588D01*
X85100267Y-83333087D01*
X86050267Y-86393088D01*
X86069812Y-86429090D01*
X86079402Y-86468911D01*
X86126789Y-86534039D01*
X86165222Y-86604832D01*
X86197055Y-86630612D01*
X86221155Y-86663735D01*
X86289866Y-86705776D01*
X86352458Y-86756466D01*
X86391732Y-86768102D01*
X86426674Y-86789481D01*
X89694441Y-87992450D01*
X89867650Y-88165961D01*
X90134756Y-88276874D01*
X90423975Y-88277126D01*
X90691275Y-88166680D01*
X90895961Y-87962350D01*
X91006874Y-87695244D01*
X91007126Y-87406025D01*
X90896680Y-87138725D01*
X90692350Y-86934039D01*
X90425244Y-86823126D01*
X90136025Y-86822874D01*
X90115404Y-86831394D01*
X87667421Y-85930213D01*
X102959392Y-85930213D01*
X103028857Y-86172397D01*
X103552302Y-86359144D01*
X104107368Y-86331362D01*
X104491143Y-86172397D01*
X104560608Y-85930213D01*
X103760000Y-85129605D01*
X102959392Y-85930213D01*
X87667421Y-85930213D01*
X87139360Y-85735817D01*
X86815913Y-84693975D01*
X87462874Y-84693975D01*
X87573320Y-84961275D01*
X87777650Y-85165961D01*
X88044756Y-85276874D01*
X88333975Y-85277126D01*
X88601275Y-85166680D01*
X88805961Y-84962350D01*
X88897333Y-84742302D01*
X102350856Y-84742302D01*
X102378638Y-85297368D01*
X102537603Y-85681143D01*
X102779787Y-85750608D01*
X103580395Y-84950000D01*
X103939605Y-84950000D01*
X104740213Y-85750608D01*
X104982397Y-85681143D01*
X105169144Y-85157698D01*
X105141362Y-84602632D01*
X104982397Y-84218857D01*
X104740213Y-84149392D01*
X103939605Y-84950000D01*
X103580395Y-84950000D01*
X102779787Y-84149392D01*
X102537603Y-84218857D01*
X102350856Y-84742302D01*
X88897333Y-84742302D01*
X88916874Y-84695244D01*
X88917111Y-84423640D01*
X89113012Y-83969787D01*
X102959392Y-83969787D01*
X103760000Y-84770395D01*
X104560608Y-83969787D01*
X104491143Y-83727603D01*
X103967698Y-83540856D01*
X103412632Y-83568638D01*
X103028857Y-83727603D01*
X102959392Y-83969787D01*
X89113012Y-83969787D01*
X89913613Y-82115000D01*
X109647500Y-82115000D01*
X109647500Y-82750000D01*
X109694504Y-82986307D01*
X109828362Y-83186638D01*
X110028693Y-83320496D01*
X110265000Y-83367500D01*
X110900000Y-83367500D01*
X111136307Y-83320496D01*
X111336638Y-83186638D01*
X111971639Y-82551638D01*
X112105496Y-82351307D01*
X112152500Y-82115000D01*
X112152500Y-82097500D01*
X112170000Y-82097500D01*
X112406308Y-82050496D01*
X112606639Y-81916639D01*
X112740496Y-81716308D01*
X112787500Y-81480000D01*
X112740496Y-81243693D01*
X112606639Y-81043362D01*
X111971638Y-80408362D01*
X111771307Y-80274504D01*
X111535000Y-80227500D01*
X111298693Y-80274504D01*
X111098362Y-80408362D01*
X110964504Y-80608693D01*
X110917500Y-80845000D01*
X110917500Y-80862500D01*
X110900000Y-80862500D01*
X110663693Y-80909504D01*
X110463362Y-81043361D01*
X109828363Y-81678361D01*
X109828362Y-81678362D01*
X109694504Y-81878693D01*
X109647500Y-82115000D01*
X89913613Y-82115000D01*
X90966940Y-79674714D01*
X90977493Y-79625477D01*
X90999018Y-79579949D01*
X91002503Y-79508788D01*
X91017433Y-79439128D01*
X91008340Y-79389599D01*
X91010803Y-79339300D01*
X90668482Y-77033975D01*
X91412874Y-77033975D01*
X91523320Y-77301275D01*
X91601369Y-77379460D01*
X91643786Y-77612754D01*
X91593126Y-77734756D01*
X91592874Y-78023975D01*
X91703320Y-78291275D01*
X91907650Y-78495961D01*
X92174756Y-78606874D01*
X92463975Y-78607126D01*
X92731275Y-78496680D01*
X92935961Y-78292350D01*
X93046874Y-78025244D01*
X93047126Y-77736025D01*
X93007926Y-77641154D01*
X93669420Y-74743975D01*
X93972874Y-74743975D01*
X94083320Y-75011275D01*
X94287650Y-75215961D01*
X94487343Y-75298881D01*
X96677893Y-77838550D01*
X96584116Y-78310000D01*
X96682357Y-78803891D01*
X96962124Y-79222592D01*
X97380825Y-79502359D01*
X97874716Y-79600600D01*
X97925284Y-79600600D01*
X98419175Y-79502359D01*
X98837876Y-79222592D01*
X99117643Y-78803891D01*
X99170000Y-78540675D01*
X99222357Y-78803891D01*
X99502124Y-79222592D01*
X99920825Y-79502359D01*
X100414716Y-79600600D01*
X100465284Y-79600600D01*
X100959175Y-79502359D01*
X101377876Y-79222592D01*
X101535308Y-78986978D01*
X107822627Y-78986978D01*
X108195658Y-79487608D01*
X109619262Y-80089333D01*
X111164772Y-80100466D01*
X112596896Y-79519311D01*
X112644342Y-79487608D01*
X113017373Y-78986978D01*
X110420000Y-76389605D01*
X107822627Y-78986978D01*
X101535308Y-78986978D01*
X101657643Y-78803891D01*
X101755884Y-78310000D01*
X101702978Y-78044025D01*
X102340831Y-77499724D01*
X102400291Y-77424367D01*
X102465638Y-77354055D01*
X102474439Y-77330395D01*
X102490076Y-77310577D01*
X102516171Y-77218203D01*
X102549636Y-77128235D01*
X102577587Y-76954772D01*
X106529534Y-76954772D01*
X107110689Y-78386896D01*
X107142392Y-78434342D01*
X107643022Y-78807373D01*
X110240395Y-76210000D01*
X110599605Y-76210000D01*
X113196978Y-78807373D01*
X113697608Y-78434342D01*
X114299333Y-77010738D01*
X114310466Y-75465228D01*
X113729311Y-74033104D01*
X113697608Y-73985658D01*
X113196978Y-73612627D01*
X110599605Y-76210000D01*
X110240395Y-76210000D01*
X107643022Y-73612627D01*
X107142392Y-73985658D01*
X106540667Y-75409262D01*
X106529534Y-76954772D01*
X102577587Y-76954772D01*
X102889636Y-75018235D01*
X102886696Y-74937893D01*
X102894366Y-74857873D01*
X102882328Y-74818558D01*
X102880824Y-74777460D01*
X102847362Y-74704360D01*
X102823826Y-74627494D01*
X102797655Y-74595774D01*
X102780540Y-74558385D01*
X102721653Y-74503656D01*
X102670492Y-74441647D01*
X101690492Y-73641647D01*
X101634926Y-73612132D01*
X101585914Y-73572680D01*
X101529566Y-73556168D01*
X101477710Y-73528624D01*
X101415081Y-73522621D01*
X101354700Y-73504927D01*
X100546166Y-73433022D01*
X107822627Y-73433022D01*
X110420000Y-76030395D01*
X113017373Y-73433022D01*
X112644342Y-72932392D01*
X111220738Y-72330667D01*
X109675228Y-72319534D01*
X108243104Y-72900689D01*
X108195658Y-72932392D01*
X107822627Y-73433022D01*
X100546166Y-73433022D01*
X96322762Y-73057424D01*
X95629564Y-72931388D01*
X95552350Y-72854039D01*
X95285244Y-72743126D01*
X94996025Y-72742874D01*
X94728725Y-72853320D01*
X94524039Y-73057650D01*
X94413126Y-73324756D01*
X94412874Y-73613975D01*
X94523320Y-73881275D01*
X94526933Y-73884894D01*
X94288725Y-73983320D01*
X94084039Y-74187650D01*
X93973126Y-74454756D01*
X93972874Y-74743975D01*
X93669420Y-74743975D01*
X94416593Y-71471545D01*
X94515961Y-71372350D01*
X94626874Y-71105244D01*
X94627126Y-70816025D01*
X94516680Y-70548725D01*
X94312350Y-70344039D01*
X94045244Y-70233126D01*
X93756025Y-70232874D01*
X93488725Y-70343320D01*
X93284039Y-70547650D01*
X93173126Y-70814756D01*
X93172874Y-71103975D01*
X93212074Y-71198847D01*
X92078652Y-76162946D01*
X91996025Y-76162874D01*
X91728725Y-76273320D01*
X91524039Y-76477650D01*
X91413126Y-76744756D01*
X91412874Y-77033975D01*
X90668482Y-77033975D01*
X90377849Y-75076749D01*
X90382179Y-74510254D01*
X90517650Y-74645961D01*
X90784756Y-74756874D01*
X91073975Y-74757126D01*
X91341275Y-74646680D01*
X91545961Y-74442350D01*
X91656874Y-74175244D01*
X91657126Y-73886025D01*
X91546680Y-73618725D01*
X91342350Y-73414039D01*
X91293024Y-73393557D01*
X91038860Y-72910147D01*
X91078384Y-68475469D01*
X102590794Y-68475469D01*
X102771427Y-68912635D01*
X103105606Y-69247397D01*
X103542456Y-69428793D01*
X104015469Y-69429206D01*
X104452635Y-69248573D01*
X104787397Y-68914394D01*
X104968793Y-68477544D01*
X104969206Y-68004531D01*
X104788573Y-67567365D01*
X104454394Y-67232603D01*
X104017544Y-67051207D01*
X103544531Y-67050794D01*
X103107365Y-67231427D01*
X102772603Y-67565606D01*
X102591207Y-68002456D01*
X102590794Y-68475469D01*
X91078384Y-68475469D01*
X91086734Y-67538606D01*
X91884050Y-64728554D01*
X91887801Y-64681842D01*
X91902632Y-64637385D01*
X92242772Y-61944611D01*
X93303462Y-60483989D01*
X95745386Y-58877704D01*
X98255658Y-58312414D01*
X98303450Y-58291195D01*
X98354760Y-58281133D01*
X98412500Y-58242778D01*
X98475866Y-58214645D01*
X98511900Y-58176751D01*
X98555454Y-58147820D01*
X98594125Y-58090282D01*
X98641896Y-58040046D01*
X98660685Y-57991250D01*
X98689853Y-57947852D01*
X98737872Y-57832807D01*
X99080000Y-57900861D01*
X99573891Y-57802620D01*
X99992592Y-57522853D01*
X100272359Y-57104152D01*
X100370600Y-56610261D01*
X100370600Y-54209739D01*
X100272359Y-53715848D01*
X99992592Y-53297147D01*
X99573891Y-53017380D01*
X99080000Y-52919139D01*
X98586109Y-53017380D01*
X98167408Y-53297147D01*
X97887641Y-53715848D01*
X97810000Y-54106176D01*
X97732359Y-53715848D01*
X97452592Y-53297147D01*
X97033891Y-53017380D01*
X96540000Y-52919139D01*
X96046109Y-53017380D01*
X95627408Y-53297147D01*
X95347641Y-53715848D01*
X95270000Y-54106176D01*
X95192359Y-53715848D01*
X94912592Y-53297147D01*
X94493891Y-53017380D01*
X94000000Y-52919139D01*
X93506109Y-53017380D01*
X93087408Y-53297147D01*
X92807641Y-53715848D01*
X92730000Y-54106176D01*
X92652359Y-53715848D01*
X92372592Y-53297147D01*
X91953891Y-53017380D01*
X91460000Y-52919139D01*
X91315160Y-52947949D01*
X91167721Y-52490552D01*
X91118612Y-52402380D01*
X91075298Y-52311238D01*
X89267051Y-49882514D01*
X89267126Y-49796025D01*
X89156680Y-49528725D01*
X88975250Y-49346978D01*
X90712627Y-49346978D01*
X91085658Y-49847608D01*
X92509262Y-50449333D01*
X94054772Y-50460466D01*
X95486896Y-49879311D01*
X95534342Y-49847608D01*
X95907373Y-49346978D01*
X93310000Y-46749605D01*
X90712627Y-49346978D01*
X88975250Y-49346978D01*
X88952350Y-49324039D01*
X88685244Y-49213126D01*
X88396025Y-49212874D01*
X88128725Y-49323320D01*
X87924039Y-49527650D01*
X87813126Y-49794756D01*
X87812874Y-50083975D01*
X87923320Y-50351275D01*
X88127650Y-50555961D01*
X88273990Y-50616727D01*
X89868966Y-52759000D01*
X89205750Y-52759000D01*
X89047000Y-52917750D01*
X89047000Y-55283000D01*
X89067000Y-55283000D01*
X89067000Y-55537000D01*
X89047000Y-55537000D01*
X89047000Y-57902250D01*
X89205750Y-58061000D01*
X89909910Y-58061000D01*
X89934207Y-58050936D01*
X88379335Y-60046957D01*
X88218725Y-60113320D01*
X88014039Y-60317650D01*
X87903126Y-60584756D01*
X87902874Y-60873975D01*
X88013320Y-61141275D01*
X88217650Y-61345961D01*
X88484756Y-61456874D01*
X88773975Y-61457126D01*
X89041275Y-61346680D01*
X89245961Y-61142350D01*
X89356874Y-60875244D01*
X89356938Y-60801641D01*
X90152421Y-59780462D01*
X90307650Y-59935961D01*
X90574756Y-60046874D01*
X90863975Y-60047126D01*
X91131275Y-59936680D01*
X91335961Y-59732350D01*
X91371326Y-59647182D01*
X91844678Y-59360117D01*
X90547261Y-61077825D01*
X90531714Y-61109964D01*
X90507938Y-61136604D01*
X90479674Y-61217546D01*
X90442343Y-61294718D01*
X90440279Y-61330362D01*
X90428508Y-61364071D01*
X90004497Y-64381451D01*
X89226340Y-67100076D01*
X89219455Y-67183406D01*
X89202518Y-67265281D01*
X89142518Y-75115280D01*
X89151553Y-75162589D01*
X89149197Y-75210699D01*
X89763367Y-79346748D01*
X87784677Y-83930861D01*
X87778725Y-83933320D01*
X87574039Y-84137650D01*
X87463126Y-84404756D01*
X87462874Y-84693975D01*
X86815913Y-84693975D01*
X86316912Y-83086670D01*
X87284435Y-73411444D01*
X87281434Y-73380497D01*
X87287500Y-73350000D01*
X87287500Y-70088644D01*
X87396874Y-69825244D01*
X87397126Y-69536025D01*
X87286680Y-69268725D01*
X87082350Y-69064039D01*
X86815244Y-68953126D01*
X86526025Y-68952874D01*
X86258725Y-69063320D01*
X86054039Y-69267650D01*
X85943126Y-69534756D01*
X85942874Y-69823975D01*
X86052500Y-70089290D01*
X86052500Y-73319207D01*
X85075565Y-83088556D01*
X85075808Y-83091057D01*
X85075093Y-83093469D01*
X71529603Y-83093469D01*
X71092658Y-82028952D01*
X68605644Y-75756484D01*
X68485681Y-75440996D01*
X68544557Y-75583488D01*
X68748887Y-75788174D01*
X69015993Y-75899087D01*
X69305212Y-75899339D01*
X69572512Y-75788893D01*
X69777198Y-75584563D01*
X69888111Y-75317457D01*
X69888363Y-75028238D01*
X69862761Y-74966277D01*
X72009201Y-67486886D01*
X72137961Y-67358350D01*
X72248874Y-67091244D01*
X72249126Y-66802025D01*
X72138680Y-66534725D01*
X71934350Y-66330039D01*
X71667244Y-66219126D01*
X71378025Y-66218874D01*
X71110725Y-66329320D01*
X70906039Y-66533650D01*
X70795126Y-66800756D01*
X70794874Y-67089975D01*
X70820476Y-67151936D01*
X68775667Y-74277188D01*
X68724599Y-74311311D01*
X68590741Y-74511642D01*
X68543737Y-74747949D01*
X68543737Y-74763569D01*
X68434363Y-75026969D01*
X68434120Y-75305399D01*
X67211127Y-72089085D01*
X67216874Y-72075244D01*
X67217126Y-71786025D01*
X67106680Y-71518725D01*
X66902350Y-71314039D01*
X66635244Y-71203126D01*
X66346025Y-71202874D01*
X66078725Y-71313320D01*
X65874039Y-71517650D01*
X65763126Y-71784756D01*
X65762874Y-72073975D01*
X51554536Y-72073975D01*
X51713986Y-70585784D01*
X51704774Y-70483265D01*
X51701510Y-70380384D01*
X50526603Y-65318492D01*
X50765800Y-63453975D01*
X61212874Y-63453975D01*
X61323320Y-63721275D01*
X61527650Y-63925961D01*
X61794756Y-64036874D01*
X62083975Y-64037126D01*
X62276287Y-63957664D01*
X65934241Y-64262494D01*
X65967650Y-64295961D01*
X66234756Y-64406874D01*
X66523975Y-64407126D01*
X66791275Y-64296680D01*
X66995961Y-64092350D01*
X67106874Y-63825244D01*
X67107126Y-63536025D01*
X66996680Y-63268725D01*
X66792350Y-63064039D01*
X66525244Y-62953126D01*
X66236025Y-62952874D01*
X66043713Y-63032336D01*
X62385759Y-62727506D01*
X62352350Y-62694039D01*
X62085244Y-62583126D01*
X61796025Y-62582874D01*
X61528725Y-62693320D01*
X61324039Y-62897650D01*
X61213126Y-63164756D01*
X61212874Y-63453975D01*
X50765800Y-63453975D01*
X50852860Y-62775359D01*
X50905961Y-62722350D01*
X51016874Y-62455244D01*
X51017126Y-62166025D01*
X50906680Y-61898725D01*
X50702350Y-61694039D01*
X50435244Y-61583126D01*
X50146025Y-61582874D01*
X49878725Y-61693320D01*
X49674039Y-61897650D01*
X49563126Y-62164756D01*
X49562874Y-62453975D01*
X49628571Y-62612975D01*
X49287520Y-65271425D01*
X49295025Y-65380413D01*
X49298490Y-65489615D01*
X50474897Y-70557970D01*
X49567830Y-79023935D01*
X49524039Y-79067650D01*
X49413126Y-79334756D01*
X49412874Y-79623975D01*
X49520526Y-79884512D01*
X49492993Y-85547081D01*
X48244964Y-89242415D01*
X48240386Y-89277608D01*
X48226303Y-89310173D01*
X48224973Y-89396102D01*
X48213885Y-89481339D01*
X34418779Y-89481339D01*
X31938557Y-85185469D01*
X46870794Y-85185469D01*
X47051427Y-85622635D01*
X47385606Y-85957397D01*
X47822456Y-86138793D01*
X48295469Y-86139206D01*
X48732635Y-85958573D01*
X49067397Y-85624394D01*
X49248793Y-85187544D01*
X49249206Y-84714531D01*
X49068573Y-84277365D01*
X48970079Y-84178699D01*
X48977497Y-84142041D01*
X49027497Y-69012040D01*
X49026562Y-69007258D01*
X49027454Y-69002471D01*
X49022520Y-68979158D01*
X49087397Y-68914394D01*
X49268793Y-68477544D01*
X49269206Y-68004531D01*
X49088573Y-67567365D01*
X48754394Y-67232603D01*
X48317544Y-67051207D01*
X47844531Y-67050794D01*
X47407365Y-67231427D01*
X47072603Y-67565606D01*
X46891207Y-68002456D01*
X46890794Y-68475469D01*
X47071427Y-68912635D01*
X47153391Y-68994742D01*
X47152501Y-68999186D01*
X47132501Y-84159185D01*
X47138550Y-84189808D01*
X47052603Y-84275606D01*
X46871207Y-84712456D01*
X46870794Y-85185469D01*
X31938557Y-85185469D01*
X28380063Y-79021978D01*
X39507627Y-79021978D01*
X39880658Y-79522608D01*
X41304262Y-80124333D01*
X42849772Y-80135466D01*
X44281896Y-79554311D01*
X44329342Y-79522608D01*
X44702373Y-79021978D01*
X42105000Y-76424605D01*
X39507627Y-79021978D01*
X28380063Y-79021978D01*
X27206768Y-76989772D01*
X38214534Y-76989772D01*
X38795689Y-78421896D01*
X38827392Y-78469342D01*
X39328022Y-78842373D01*
X41925395Y-76245000D01*
X42284605Y-76245000D01*
X44881978Y-78842373D01*
X45382608Y-78469342D01*
X45984333Y-77045738D01*
X45995466Y-75500228D01*
X45414311Y-74068104D01*
X45382608Y-74020658D01*
X44881978Y-73647627D01*
X42284605Y-76245000D01*
X41925395Y-76245000D01*
X39328022Y-73647627D01*
X38827392Y-74020658D01*
X38225667Y-75444262D01*
X38214534Y-76989772D01*
X27206768Y-76989772D01*
X26750792Y-76200000D01*
X28328100Y-73468022D01*
X39507627Y-73468022D01*
X42105000Y-76065395D01*
X44702373Y-73468022D01*
X44329342Y-72967392D01*
X42905738Y-72365667D01*
X41360228Y-72354534D01*
X39928104Y-72935689D01*
X39880658Y-72967392D01*
X39507627Y-73468022D01*
X28328100Y-73468022D01*
X42254391Y-49346978D01*
X56482627Y-49346978D01*
X56855658Y-49847608D01*
X58279262Y-50449333D01*
X59824772Y-50460466D01*
X61256896Y-49879311D01*
X61304342Y-49847608D01*
X61677373Y-49346978D01*
X59080000Y-46749605D01*
X56482627Y-49346978D01*
X42254391Y-49346978D01*
X43427686Y-47314772D01*
X55189534Y-47314772D01*
X55770689Y-48746896D01*
X55802392Y-48794342D01*
X56303022Y-49167373D01*
X58900395Y-46570000D01*
X59259605Y-46570000D01*
X61856978Y-49167373D01*
X62357608Y-48794342D01*
X62959333Y-47370738D01*
X62963227Y-46830115D01*
X66373000Y-46830115D01*
X66382999Y-57829558D01*
X66373003Y-59204076D01*
X66381685Y-59251159D01*
X66408965Y-59293553D01*
X66450590Y-59321994D01*
X66500000Y-59332000D01*
X69981920Y-59332000D01*
X69978725Y-59333320D01*
X69774039Y-59537650D01*
X69663126Y-59804756D01*
X69662874Y-60093975D01*
X69772500Y-60359290D01*
X69772500Y-64841356D01*
X69663126Y-65104756D01*
X69662874Y-65393975D01*
X69773320Y-65661275D01*
X69977650Y-65865961D01*
X70244756Y-65976874D01*
X70533975Y-65977126D01*
X70801275Y-65866680D01*
X71005961Y-65662350D01*
X71116874Y-65395244D01*
X71117126Y-65106025D01*
X71007500Y-64840710D01*
X71007500Y-60358644D01*
X71116874Y-60095244D01*
X71117126Y-59806025D01*
X71006680Y-59538725D01*
X70802350Y-59334039D01*
X70797440Y-59332000D01*
X85550000Y-59332000D01*
X85596159Y-59323315D01*
X85638553Y-59296035D01*
X85666994Y-59254410D01*
X85677000Y-59205000D01*
X85677000Y-55695750D01*
X87421400Y-55695750D01*
X87421400Y-57552309D01*
X87518073Y-57785698D01*
X87696701Y-57964327D01*
X87930090Y-58061000D01*
X88634250Y-58061000D01*
X88793000Y-57902250D01*
X88793000Y-55537000D01*
X87580150Y-55537000D01*
X87421400Y-55695750D01*
X85677000Y-55695750D01*
X85677000Y-53267691D01*
X87421400Y-53267691D01*
X87421400Y-55124250D01*
X87580150Y-55283000D01*
X88793000Y-55283000D01*
X88793000Y-52917750D01*
X88634250Y-52759000D01*
X87930090Y-52759000D01*
X87696701Y-52855673D01*
X87518073Y-53034302D01*
X87421400Y-53267691D01*
X85677000Y-53267691D01*
X85677000Y-47314772D01*
X89419534Y-47314772D01*
X90000689Y-48746896D01*
X90032392Y-48794342D01*
X90533022Y-49167373D01*
X93130395Y-46570000D01*
X93489605Y-46570000D01*
X96086978Y-49167373D01*
X96587608Y-48794342D01*
X97189333Y-47370738D01*
X97200466Y-45825228D01*
X96619311Y-44393104D01*
X96587608Y-44345658D01*
X96086978Y-43972627D01*
X93489605Y-46570000D01*
X93130395Y-46570000D01*
X90533022Y-43972627D01*
X90032392Y-44345658D01*
X89430667Y-45769262D01*
X89419534Y-47314772D01*
X85677000Y-47314772D01*
X85677000Y-46830000D01*
X85668315Y-46783841D01*
X85641035Y-46741447D01*
X85599410Y-46713006D01*
X85550000Y-46703000D01*
X66500000Y-46703000D01*
X66453733Y-46711727D01*
X66411364Y-46739046D01*
X66382961Y-46780696D01*
X66373000Y-46830115D01*
X62963227Y-46830115D01*
X62970466Y-45825228D01*
X62499231Y-44663975D01*
X72592874Y-44663975D01*
X72703320Y-44931275D01*
X72907650Y-45135961D01*
X73174756Y-45246874D01*
X73463975Y-45247126D01*
X73527151Y-45221022D01*
X75660284Y-45828373D01*
X75787650Y-45955961D01*
X76054756Y-46066874D01*
X76343975Y-46067126D01*
X76611275Y-45956680D01*
X76815961Y-45752350D01*
X76926874Y-45485244D01*
X76927126Y-45196025D01*
X76816680Y-44928725D01*
X76612350Y-44724039D01*
X76345244Y-44613126D01*
X76056025Y-44612874D01*
X75992848Y-44638978D01*
X73859717Y-44031628D01*
X73732350Y-43904039D01*
X73465244Y-43793126D01*
X73345884Y-43793022D01*
X90712627Y-43793022D01*
X93310000Y-46390395D01*
X95907373Y-43793022D01*
X95534342Y-43292392D01*
X94110738Y-42690667D01*
X92565228Y-42679534D01*
X91133104Y-43260689D01*
X91085658Y-43292392D01*
X90712627Y-43793022D01*
X73345884Y-43793022D01*
X73176025Y-43792874D01*
X72908725Y-43903320D01*
X72704039Y-44107650D01*
X72593126Y-44374756D01*
X72592874Y-44663975D01*
X62499231Y-44663975D01*
X62389311Y-44393104D01*
X62357608Y-44345658D01*
X61856978Y-43972627D01*
X59259605Y-46570000D01*
X58900395Y-46570000D01*
X56303022Y-43972627D01*
X55802392Y-44345658D01*
X55200667Y-45769262D01*
X55189534Y-47314772D01*
X43427686Y-47314772D01*
X45460969Y-43793022D01*
X56482627Y-43793022D01*
X59080000Y-46390395D01*
X61677373Y-43793022D01*
X61304342Y-43292392D01*
X59880738Y-42690667D01*
X58335228Y-42679534D01*
X56903104Y-43260689D01*
X56855658Y-43292392D01*
X56482627Y-43793022D01*
X45460969Y-43793022D01*
X51475396Y-33375730D01*
X100924604Y-33375730D01*
X125649208Y-76200000D01*
G36*
X100567000Y-75643000D02*
X100587000Y-75643000D01*
X100587000Y-75897000D01*
X100567000Y-75897000D01*
X100567000Y-75917000D01*
X100313000Y-75917000D01*
X100313000Y-75897000D01*
X100293000Y-75897000D01*
X100293000Y-75643000D01*
X100313000Y-75643000D01*
X100313000Y-75623000D01*
X100567000Y-75623000D01*
X100567000Y-75643000D01*
X100567000Y-75643000D01*
G37*
X100567000Y-75643000D02*
X100587000Y-75643000D01*
X100587000Y-75897000D01*
X100567000Y-75897000D01*
X100567000Y-75917000D01*
X100313000Y-75917000D01*
X100313000Y-75897000D01*
X100293000Y-75897000D01*
X100293000Y-75643000D01*
X100313000Y-75643000D01*
X100313000Y-75623000D01*
X100567000Y-75623000D01*
X100567000Y-75643000D01*
M02*
