G04 #@! TF.FileFunction,Soldermask,Bot*
%FSLAX46Y46*%
G04 Gerber Fmt 4.6, Leading zero omitted, Abs format (unit mm)*
G04 Created by KiCad (PCBNEW 4.0.2+dfsg1-stable) date Mon 15 Oct 2018 12:16:37 AM EDT*
%MOMM*%
G01*
G04 APERTURE LIST*
%ADD10C,0.100000*%
%ADD11C,0.010000*%
%ADD12C,1.764000*%
%ADD13C,6.740000*%
%ADD14R,1.967200X4.272000*%
%ADD15O,1.967200X4.272000*%
%ADD16C,1.440000*%
%ADD17R,1.440000X2.740000*%
%ADD18C,1.540000*%
%ADD19R,1.967200X1.967200*%
%ADD20O,1.967200X1.967200*%
%ADD21R,0.630000X1.590000*%
%ADD22O,3.740000X1.800000*%
%ADD23O,2.490000X1.740000*%
G04 APERTURE END LIST*
D10*
D11*
G36*
X77306872Y-117438158D02*
X77225745Y-117467122D01*
X77116590Y-117514104D01*
X77057587Y-117541875D01*
X76939332Y-117597590D01*
X76842004Y-117640718D01*
X76780138Y-117664942D01*
X76767389Y-117668000D01*
X76746751Y-117640400D01*
X76738003Y-117573904D01*
X76738000Y-117572750D01*
X76728022Y-117503029D01*
X76690892Y-117478482D01*
X76674500Y-117477500D01*
X76642469Y-117482931D01*
X76623507Y-117507867D01*
X76614291Y-117565273D01*
X76611499Y-117668113D01*
X76611434Y-117723562D01*
X76612637Y-117886218D01*
X76620598Y-117995702D01*
X76642866Y-118062338D01*
X76686989Y-118096451D01*
X76760515Y-118108363D01*
X76870993Y-118108399D01*
X76892516Y-118107994D01*
X77031182Y-118103119D01*
X77163305Y-118094637D01*
X77260653Y-118084366D01*
X77261875Y-118084182D01*
X77344220Y-118066514D01*
X77382926Y-118035035D01*
X77397703Y-117971528D01*
X77399152Y-117957294D01*
X77401136Y-117890250D01*
X77246000Y-117890250D01*
X77240376Y-117922716D01*
X77214731Y-117941766D01*
X77155905Y-117950907D01*
X77050740Y-117953650D01*
X77007875Y-117953750D01*
X76878928Y-117950690D01*
X76803581Y-117940342D01*
X76772174Y-117920955D01*
X76769750Y-117910547D01*
X76800921Y-117877847D01*
X76892991Y-117853431D01*
X76936438Y-117847323D01*
X77079132Y-117831921D01*
X77170267Y-117828110D01*
X77220985Y-117837435D01*
X77242428Y-117861441D01*
X77246000Y-117890250D01*
X77401136Y-117890250D01*
X77402939Y-117829382D01*
X77379793Y-117750302D01*
X77322705Y-117708592D01*
X77237914Y-117693630D01*
X77103125Y-117683875D01*
X77238063Y-117611792D01*
X77330641Y-117549059D01*
X77372093Y-117490207D01*
X77358270Y-117442142D01*
X77345699Y-117432624D01*
X77306872Y-117438158D01*
X77306872Y-117438158D01*
G37*
X77306872Y-117438158D02*
X77225745Y-117467122D01*
X77116590Y-117514104D01*
X77057587Y-117541875D01*
X76939332Y-117597590D01*
X76842004Y-117640718D01*
X76780138Y-117664942D01*
X76767389Y-117668000D01*
X76746751Y-117640400D01*
X76738003Y-117573904D01*
X76738000Y-117572750D01*
X76728022Y-117503029D01*
X76690892Y-117478482D01*
X76674500Y-117477500D01*
X76642469Y-117482931D01*
X76623507Y-117507867D01*
X76614291Y-117565273D01*
X76611499Y-117668113D01*
X76611434Y-117723562D01*
X76612637Y-117886218D01*
X76620598Y-117995702D01*
X76642866Y-118062338D01*
X76686989Y-118096451D01*
X76760515Y-118108363D01*
X76870993Y-118108399D01*
X76892516Y-118107994D01*
X77031182Y-118103119D01*
X77163305Y-118094637D01*
X77260653Y-118084366D01*
X77261875Y-118084182D01*
X77344220Y-118066514D01*
X77382926Y-118035035D01*
X77397703Y-117971528D01*
X77399152Y-117957294D01*
X77401136Y-117890250D01*
X77246000Y-117890250D01*
X77240376Y-117922716D01*
X77214731Y-117941766D01*
X77155905Y-117950907D01*
X77050740Y-117953650D01*
X77007875Y-117953750D01*
X76878928Y-117950690D01*
X76803581Y-117940342D01*
X76772174Y-117920955D01*
X76769750Y-117910547D01*
X76800921Y-117877847D01*
X76892991Y-117853431D01*
X76936438Y-117847323D01*
X77079132Y-117831921D01*
X77170267Y-117828110D01*
X77220985Y-117837435D01*
X77242428Y-117861441D01*
X77246000Y-117890250D01*
X77401136Y-117890250D01*
X77402939Y-117829382D01*
X77379793Y-117750302D01*
X77322705Y-117708592D01*
X77237914Y-117693630D01*
X77103125Y-117683875D01*
X77238063Y-117611792D01*
X77330641Y-117549059D01*
X77372093Y-117490207D01*
X77358270Y-117442142D01*
X77345699Y-117432624D01*
X77306872Y-117438158D01*
G36*
X74554912Y-117389795D02*
X74536832Y-117438334D01*
X74517713Y-117530113D01*
X74499847Y-117646495D01*
X74485523Y-117768840D01*
X74477033Y-117878511D01*
X74476668Y-117956868D01*
X74482063Y-117982495D01*
X74519460Y-117998563D01*
X74604794Y-118017897D01*
X74722832Y-118037328D01*
X74785375Y-118045604D01*
X74957962Y-118065688D01*
X75078034Y-118076656D01*
X75155873Y-118078835D01*
X75201758Y-118072552D01*
X75224584Y-118059583D01*
X75236574Y-118018163D01*
X75244245Y-117935124D01*
X75245514Y-117882084D01*
X75107212Y-117882084D01*
X75103304Y-117889557D01*
X75067056Y-117909449D01*
X74986405Y-117914530D01*
X74853174Y-117905423D01*
X74740524Y-117893074D01*
X74655688Y-117881393D01*
X74615609Y-117872744D01*
X74614766Y-117872185D01*
X74614337Y-117837690D01*
X74623192Y-117808373D01*
X74655183Y-117772795D01*
X74721683Y-117771547D01*
X74742208Y-117775254D01*
X74850781Y-117790301D01*
X74940157Y-117795486D01*
X75039343Y-117807571D01*
X75098646Y-117838523D01*
X75107212Y-117882084D01*
X75245514Y-117882084D01*
X75245750Y-117872237D01*
X75243776Y-117775011D01*
X75230194Y-117722473D01*
X75193516Y-117695812D01*
X75126688Y-117677288D01*
X75007625Y-117648518D01*
X75150500Y-117602696D01*
X75242307Y-117563559D01*
X75289770Y-117522296D01*
X75293375Y-117509250D01*
X75265554Y-117472672D01*
X75181983Y-117465592D01*
X75042499Y-117488017D01*
X74870571Y-117532982D01*
X74638267Y-117600805D01*
X74657670Y-117512461D01*
X74658327Y-117436237D01*
X74631993Y-117382703D01*
X74590744Y-117366275D01*
X74554912Y-117389795D01*
X74554912Y-117389795D01*
G37*
X74554912Y-117389795D02*
X74536832Y-117438334D01*
X74517713Y-117530113D01*
X74499847Y-117646495D01*
X74485523Y-117768840D01*
X74477033Y-117878511D01*
X74476668Y-117956868D01*
X74482063Y-117982495D01*
X74519460Y-117998563D01*
X74604794Y-118017897D01*
X74722832Y-118037328D01*
X74785375Y-118045604D01*
X74957962Y-118065688D01*
X75078034Y-118076656D01*
X75155873Y-118078835D01*
X75201758Y-118072552D01*
X75224584Y-118059583D01*
X75236574Y-118018163D01*
X75244245Y-117935124D01*
X75245514Y-117882084D01*
X75107212Y-117882084D01*
X75103304Y-117889557D01*
X75067056Y-117909449D01*
X74986405Y-117914530D01*
X74853174Y-117905423D01*
X74740524Y-117893074D01*
X74655688Y-117881393D01*
X74615609Y-117872744D01*
X74614766Y-117872185D01*
X74614337Y-117837690D01*
X74623192Y-117808373D01*
X74655183Y-117772795D01*
X74721683Y-117771547D01*
X74742208Y-117775254D01*
X74850781Y-117790301D01*
X74940157Y-117795486D01*
X75039343Y-117807571D01*
X75098646Y-117838523D01*
X75107212Y-117882084D01*
X75245514Y-117882084D01*
X75245750Y-117872237D01*
X75243776Y-117775011D01*
X75230194Y-117722473D01*
X75193516Y-117695812D01*
X75126688Y-117677288D01*
X75007625Y-117648518D01*
X75150500Y-117602696D01*
X75242307Y-117563559D01*
X75289770Y-117522296D01*
X75293375Y-117509250D01*
X75265554Y-117472672D01*
X75181983Y-117465592D01*
X75042499Y-117488017D01*
X74870571Y-117532982D01*
X74638267Y-117600805D01*
X74657670Y-117512461D01*
X74658327Y-117436237D01*
X74631993Y-117382703D01*
X74590744Y-117366275D01*
X74554912Y-117389795D01*
G36*
X79302660Y-117071406D02*
X79194873Y-117092932D01*
X79107958Y-117114297D01*
X78937186Y-117157838D01*
X78818466Y-117189447D01*
X78742340Y-117212951D01*
X78699348Y-117232180D01*
X78680029Y-117250962D01*
X78674925Y-117273126D01*
X78674750Y-117289636D01*
X78683076Y-117366556D01*
X78704587Y-117474011D01*
X78734087Y-117592408D01*
X78766381Y-117702150D01*
X78796272Y-117783645D01*
X78813904Y-117814359D01*
X78850639Y-117826458D01*
X78925224Y-117821396D01*
X79045611Y-117798111D01*
X79182642Y-117765039D01*
X79349179Y-117719326D01*
X79458142Y-117680808D01*
X79514776Y-117647412D01*
X79525713Y-117629577D01*
X79525876Y-117586934D01*
X79499528Y-117565470D01*
X79437315Y-117564436D01*
X79329880Y-117583084D01*
X79229429Y-117605862D01*
X79082719Y-117639811D01*
X78986860Y-117658701D01*
X78931137Y-117663022D01*
X78904834Y-117653260D01*
X78897236Y-117629902D01*
X78897000Y-117620979D01*
X78924336Y-117580705D01*
X78984313Y-117554216D01*
X79181210Y-117507746D01*
X79321564Y-117469242D01*
X79411420Y-117435945D01*
X79456824Y-117405094D01*
X79463820Y-117373931D01*
X79443541Y-117344590D01*
X79408081Y-117328139D01*
X79343007Y-117328831D01*
X79236086Y-117347535D01*
X79159379Y-117364787D01*
X79038033Y-117393943D01*
X78938616Y-117419064D01*
X78879130Y-117435572D01*
X78873188Y-117437593D01*
X78840616Y-117425134D01*
X78833500Y-117390699D01*
X78847204Y-117350340D01*
X78897114Y-117320167D01*
X78996426Y-117292403D01*
X79002730Y-117290982D01*
X79169238Y-117252439D01*
X79283013Y-117221953D01*
X79353680Y-117195594D01*
X79390864Y-117169434D01*
X79404190Y-117139543D01*
X79405000Y-117126757D01*
X79397153Y-117087875D01*
X79366563Y-117069573D01*
X79302660Y-117071406D01*
X79302660Y-117071406D01*
G37*
X79302660Y-117071406D02*
X79194873Y-117092932D01*
X79107958Y-117114297D01*
X78937186Y-117157838D01*
X78818466Y-117189447D01*
X78742340Y-117212951D01*
X78699348Y-117232180D01*
X78680029Y-117250962D01*
X78674925Y-117273126D01*
X78674750Y-117289636D01*
X78683076Y-117366556D01*
X78704587Y-117474011D01*
X78734087Y-117592408D01*
X78766381Y-117702150D01*
X78796272Y-117783645D01*
X78813904Y-117814359D01*
X78850639Y-117826458D01*
X78925224Y-117821396D01*
X79045611Y-117798111D01*
X79182642Y-117765039D01*
X79349179Y-117719326D01*
X79458142Y-117680808D01*
X79514776Y-117647412D01*
X79525713Y-117629577D01*
X79525876Y-117586934D01*
X79499528Y-117565470D01*
X79437315Y-117564436D01*
X79329880Y-117583084D01*
X79229429Y-117605862D01*
X79082719Y-117639811D01*
X78986860Y-117658701D01*
X78931137Y-117663022D01*
X78904834Y-117653260D01*
X78897236Y-117629902D01*
X78897000Y-117620979D01*
X78924336Y-117580705D01*
X78984313Y-117554216D01*
X79181210Y-117507746D01*
X79321564Y-117469242D01*
X79411420Y-117435945D01*
X79456824Y-117405094D01*
X79463820Y-117373931D01*
X79443541Y-117344590D01*
X79408081Y-117328139D01*
X79343007Y-117328831D01*
X79236086Y-117347535D01*
X79159379Y-117364787D01*
X79038033Y-117393943D01*
X78938616Y-117419064D01*
X78879130Y-117435572D01*
X78873188Y-117437593D01*
X78840616Y-117425134D01*
X78833500Y-117390699D01*
X78847204Y-117350340D01*
X78897114Y-117320167D01*
X78996426Y-117292403D01*
X79002730Y-117290982D01*
X79169238Y-117252439D01*
X79283013Y-117221953D01*
X79353680Y-117195594D01*
X79390864Y-117169434D01*
X79404190Y-117139543D01*
X79405000Y-117126757D01*
X79397153Y-117087875D01*
X79366563Y-117069573D01*
X79302660Y-117071406D01*
G36*
X72550232Y-116931203D02*
X72537399Y-117002816D01*
X72538194Y-117018356D01*
X72553688Y-117124665D01*
X72582941Y-117249663D01*
X72620821Y-117377864D01*
X72662194Y-117493779D01*
X72701926Y-117581921D01*
X72734885Y-117626803D01*
X72740705Y-117629331D01*
X72784183Y-117612763D01*
X72860988Y-117560010D01*
X72959454Y-117479695D01*
X73034392Y-117412280D01*
X73113422Y-117336375D01*
X72889496Y-117336375D01*
X72858150Y-117375900D01*
X72806109Y-117410706D01*
X72773188Y-117402378D01*
X72769250Y-117384846D01*
X72758777Y-117330963D01*
X72751533Y-117309522D01*
X72752853Y-117277910D01*
X72800743Y-117276360D01*
X72815033Y-117278876D01*
X72882111Y-117301264D01*
X72889496Y-117336375D01*
X73113422Y-117336375D01*
X73134860Y-117315785D01*
X73215075Y-117233664D01*
X73265238Y-117176263D01*
X73277250Y-117155867D01*
X73254014Y-117115533D01*
X73198162Y-117109404D01*
X73130487Y-117137327D01*
X73105697Y-117157114D01*
X73056848Y-117196889D01*
X73009192Y-117210197D01*
X72938632Y-117200001D01*
X72879434Y-117184944D01*
X72782071Y-117152856D01*
X72725179Y-117111221D01*
X72686304Y-117041986D01*
X72678920Y-117023760D01*
X72632718Y-116942125D01*
X72585913Y-116911122D01*
X72550232Y-116931203D01*
X72550232Y-116931203D01*
G37*
X72550232Y-116931203D02*
X72537399Y-117002816D01*
X72538194Y-117018356D01*
X72553688Y-117124665D01*
X72582941Y-117249663D01*
X72620821Y-117377864D01*
X72662194Y-117493779D01*
X72701926Y-117581921D01*
X72734885Y-117626803D01*
X72740705Y-117629331D01*
X72784183Y-117612763D01*
X72860988Y-117560010D01*
X72959454Y-117479695D01*
X73034392Y-117412280D01*
X73113422Y-117336375D01*
X72889496Y-117336375D01*
X72858150Y-117375900D01*
X72806109Y-117410706D01*
X72773188Y-117402378D01*
X72769250Y-117384846D01*
X72758777Y-117330963D01*
X72751533Y-117309522D01*
X72752853Y-117277910D01*
X72800743Y-117276360D01*
X72815033Y-117278876D01*
X72882111Y-117301264D01*
X72889496Y-117336375D01*
X73113422Y-117336375D01*
X73134860Y-117315785D01*
X73215075Y-117233664D01*
X73265238Y-117176263D01*
X73277250Y-117155867D01*
X73254014Y-117115533D01*
X73198162Y-117109404D01*
X73130487Y-117137327D01*
X73105697Y-117157114D01*
X73056848Y-117196889D01*
X73009192Y-117210197D01*
X72938632Y-117200001D01*
X72879434Y-117184944D01*
X72782071Y-117152856D01*
X72725179Y-117111221D01*
X72686304Y-117041986D01*
X72678920Y-117023760D01*
X72632718Y-116942125D01*
X72585913Y-116911122D01*
X72550232Y-116931203D01*
G36*
X81235284Y-116378567D02*
X81144901Y-116410901D01*
X81029978Y-116456322D01*
X80906995Y-116507903D01*
X80792433Y-116558716D01*
X80702771Y-116601830D01*
X80654490Y-116630320D01*
X80652771Y-116631895D01*
X80656248Y-116667551D01*
X80681917Y-116746884D01*
X80724986Y-116856090D01*
X80753375Y-116921688D01*
X80818817Y-117059841D01*
X80869686Y-117145322D01*
X80911104Y-117185829D01*
X80933105Y-117191750D01*
X80982320Y-117172099D01*
X80992500Y-117147277D01*
X80979756Y-117095763D01*
X80946819Y-117008860D01*
X80913436Y-116932965D01*
X80870649Y-116835432D01*
X80841811Y-116758946D01*
X80834061Y-116727271D01*
X80861317Y-116699812D01*
X80934354Y-116657240D01*
X81039619Y-116607074D01*
X81087750Y-116586549D01*
X81222465Y-116526626D01*
X81303634Y-116479055D01*
X81338840Y-116438984D01*
X81341750Y-116423965D01*
X81316508Y-116374705D01*
X81284647Y-116366250D01*
X81235284Y-116378567D01*
X81235284Y-116378567D01*
G37*
X81235284Y-116378567D02*
X81144901Y-116410901D01*
X81029978Y-116456322D01*
X80906995Y-116507903D01*
X80792433Y-116558716D01*
X80702771Y-116601830D01*
X80654490Y-116630320D01*
X80652771Y-116631895D01*
X80656248Y-116667551D01*
X80681917Y-116746884D01*
X80724986Y-116856090D01*
X80753375Y-116921688D01*
X80818817Y-117059841D01*
X80869686Y-117145322D01*
X80911104Y-117185829D01*
X80933105Y-117191750D01*
X80982320Y-117172099D01*
X80992500Y-117147277D01*
X80979756Y-117095763D01*
X80946819Y-117008860D01*
X80913436Y-116932965D01*
X80870649Y-116835432D01*
X80841811Y-116758946D01*
X80834061Y-116727271D01*
X80861317Y-116699812D01*
X80934354Y-116657240D01*
X81039619Y-116607074D01*
X81087750Y-116586549D01*
X81222465Y-116526626D01*
X81303634Y-116479055D01*
X81338840Y-116438984D01*
X81341750Y-116423965D01*
X81316508Y-116374705D01*
X81284647Y-116366250D01*
X81235284Y-116378567D01*
G36*
X70666976Y-116113595D02*
X70649962Y-116146658D01*
X70611832Y-116223754D01*
X70559064Y-116331727D01*
X70523102Y-116405798D01*
X70388601Y-116683472D01*
X70705224Y-116842361D01*
X70835350Y-116906316D01*
X70945544Y-116957966D01*
X71022961Y-116991450D01*
X71053358Y-117001250D01*
X71088038Y-116975821D01*
X71129934Y-116913963D01*
X71133310Y-116907576D01*
X71167694Y-116821736D01*
X71180811Y-116753695D01*
X71052027Y-116753695D01*
X71036740Y-116786314D01*
X71033584Y-116789583D01*
X71014873Y-116803897D01*
X70989009Y-116804868D01*
X70942764Y-116788171D01*
X70862907Y-116749479D01*
X70778041Y-116706021D01*
X70672551Y-116647895D01*
X70617356Y-116605978D01*
X70603881Y-116572681D01*
X70609934Y-116557172D01*
X70633290Y-116536388D01*
X70673953Y-116537678D01*
X70745035Y-116564101D01*
X70846956Y-116612439D01*
X70964490Y-116673738D01*
X71030395Y-116718496D01*
X71052027Y-116753695D01*
X71180811Y-116753695D01*
X71181750Y-116748826D01*
X71194427Y-116696378D01*
X71212685Y-116683750D01*
X71245757Y-116658082D01*
X71287375Y-116597161D01*
X71315428Y-116541332D01*
X71150000Y-116541332D01*
X71141147Y-116575487D01*
X71108069Y-116584526D01*
X71040988Y-116567065D01*
X70930126Y-116521717D01*
X70892033Y-116504789D01*
X70770904Y-116440601D01*
X70711573Y-116384691D01*
X70714446Y-116337541D01*
X70735989Y-116319404D01*
X70781668Y-116321820D01*
X70860862Y-116350848D01*
X70955415Y-116396756D01*
X71047172Y-116449812D01*
X71117979Y-116500285D01*
X71149680Y-116538443D01*
X71150000Y-116541332D01*
X71315428Y-116541332D01*
X71323579Y-116525111D01*
X71340409Y-116466056D01*
X71340500Y-116462886D01*
X71314457Y-116438440D01*
X71245244Y-116394583D01*
X71146234Y-116338251D01*
X71030801Y-116276380D01*
X70912319Y-116215906D01*
X70804162Y-116163763D01*
X70719704Y-116126888D01*
X70672318Y-116112217D01*
X70666976Y-116113595D01*
X70666976Y-116113595D01*
G37*
X70666976Y-116113595D02*
X70649962Y-116146658D01*
X70611832Y-116223754D01*
X70559064Y-116331727D01*
X70523102Y-116405798D01*
X70388601Y-116683472D01*
X70705224Y-116842361D01*
X70835350Y-116906316D01*
X70945544Y-116957966D01*
X71022961Y-116991450D01*
X71053358Y-117001250D01*
X71088038Y-116975821D01*
X71129934Y-116913963D01*
X71133310Y-116907576D01*
X71167694Y-116821736D01*
X71180811Y-116753695D01*
X71052027Y-116753695D01*
X71036740Y-116786314D01*
X71033584Y-116789583D01*
X71014873Y-116803897D01*
X70989009Y-116804868D01*
X70942764Y-116788171D01*
X70862907Y-116749479D01*
X70778041Y-116706021D01*
X70672551Y-116647895D01*
X70617356Y-116605978D01*
X70603881Y-116572681D01*
X70609934Y-116557172D01*
X70633290Y-116536388D01*
X70673953Y-116537678D01*
X70745035Y-116564101D01*
X70846956Y-116612439D01*
X70964490Y-116673738D01*
X71030395Y-116718496D01*
X71052027Y-116753695D01*
X71180811Y-116753695D01*
X71181750Y-116748826D01*
X71194427Y-116696378D01*
X71212685Y-116683750D01*
X71245757Y-116658082D01*
X71287375Y-116597161D01*
X71315428Y-116541332D01*
X71150000Y-116541332D01*
X71141147Y-116575487D01*
X71108069Y-116584526D01*
X71040988Y-116567065D01*
X70930126Y-116521717D01*
X70892033Y-116504789D01*
X70770904Y-116440601D01*
X70711573Y-116384691D01*
X70714446Y-116337541D01*
X70735989Y-116319404D01*
X70781668Y-116321820D01*
X70860862Y-116350848D01*
X70955415Y-116396756D01*
X71047172Y-116449812D01*
X71117979Y-116500285D01*
X71149680Y-116538443D01*
X71150000Y-116541332D01*
X71315428Y-116541332D01*
X71323579Y-116525111D01*
X71340409Y-116466056D01*
X71340500Y-116462886D01*
X71314457Y-116438440D01*
X71245244Y-116394583D01*
X71146234Y-116338251D01*
X71030801Y-116276380D01*
X70912319Y-116215906D01*
X70804162Y-116163763D01*
X70719704Y-116126888D01*
X70672318Y-116112217D01*
X70666976Y-116113595D01*
G36*
X76934646Y-114742341D02*
X76902783Y-114809536D01*
X76895381Y-114830524D01*
X76826085Y-114965024D01*
X76715814Y-115098198D01*
X76584033Y-115209249D01*
X76491938Y-115261572D01*
X76412037Y-115301849D01*
X76363638Y-115335524D01*
X76357000Y-115346076D01*
X76383489Y-115371624D01*
X76451709Y-115411392D01*
X76515464Y-115442297D01*
X76674091Y-115541662D01*
X76805416Y-115677111D01*
X76892393Y-115830550D01*
X76899088Y-115849457D01*
X76939780Y-115928999D01*
X76983943Y-115948807D01*
X77022929Y-115908564D01*
X77040409Y-115854681D01*
X77087915Y-115747344D01*
X77176611Y-115631721D01*
X77289831Y-115525698D01*
X77410908Y-115447164D01*
X77427248Y-115439509D01*
X77511296Y-115397929D01*
X77568098Y-115361936D01*
X77578811Y-115351163D01*
X77562809Y-115323442D01*
X77502475Y-115283347D01*
X77445188Y-115255115D01*
X77272284Y-115156912D01*
X77146589Y-115030649D01*
X77056922Y-114870267D01*
X77014726Y-114783554D01*
X76977960Y-114727294D01*
X76961830Y-114715250D01*
X76934646Y-114742341D01*
X76934646Y-114742341D01*
G37*
X76934646Y-114742341D02*
X76902783Y-114809536D01*
X76895381Y-114830524D01*
X76826085Y-114965024D01*
X76715814Y-115098198D01*
X76584033Y-115209249D01*
X76491938Y-115261572D01*
X76412037Y-115301849D01*
X76363638Y-115335524D01*
X76357000Y-115346076D01*
X76383489Y-115371624D01*
X76451709Y-115411392D01*
X76515464Y-115442297D01*
X76674091Y-115541662D01*
X76805416Y-115677111D01*
X76892393Y-115830550D01*
X76899088Y-115849457D01*
X76939780Y-115928999D01*
X76983943Y-115948807D01*
X77022929Y-115908564D01*
X77040409Y-115854681D01*
X77087915Y-115747344D01*
X77176611Y-115631721D01*
X77289831Y-115525698D01*
X77410908Y-115447164D01*
X77427248Y-115439509D01*
X77511296Y-115397929D01*
X77568098Y-115361936D01*
X77578811Y-115351163D01*
X77562809Y-115323442D01*
X77502475Y-115283347D01*
X77445188Y-115255115D01*
X77272284Y-115156912D01*
X77146589Y-115030649D01*
X77056922Y-114870267D01*
X77014726Y-114783554D01*
X76977960Y-114727294D01*
X76961830Y-114715250D01*
X76934646Y-114742341D01*
G36*
X84192195Y-114364797D02*
X84152496Y-114411221D01*
X84101127Y-114499562D01*
X84031479Y-114637708D01*
X84025909Y-114649117D01*
X83901079Y-114905149D01*
X83829530Y-114837932D01*
X83763818Y-114795600D01*
X83707498Y-114788525D01*
X83676930Y-114813523D01*
X83687462Y-114865591D01*
X83730407Y-114927996D01*
X83798659Y-115010947D01*
X83879790Y-115101238D01*
X83961378Y-115185660D01*
X84030996Y-115251006D01*
X84076219Y-115284068D01*
X84082728Y-115285745D01*
X84121002Y-115265398D01*
X84194144Y-115211412D01*
X84290161Y-115132997D01*
X84358000Y-115074313D01*
X84460211Y-114980534D01*
X84542829Y-114898215D01*
X84594887Y-114838648D01*
X84607038Y-114817961D01*
X84595541Y-114780743D01*
X84432423Y-114780743D01*
X84420298Y-114815991D01*
X84371363Y-114870699D01*
X84290611Y-114944893D01*
X84170349Y-115040674D01*
X84084850Y-115083458D01*
X84033977Y-115073298D01*
X84021547Y-115048625D01*
X84039979Y-115014096D01*
X84096331Y-114952416D01*
X84178969Y-114876140D01*
X84190514Y-114866250D01*
X84286595Y-114788299D01*
X84349292Y-114748843D01*
X84390559Y-114741915D01*
X84414584Y-114754435D01*
X84432423Y-114780743D01*
X84595541Y-114780743D01*
X84592324Y-114770331D01*
X84544586Y-114701784D01*
X84480505Y-114630920D01*
X84416760Y-114576341D01*
X84372568Y-114556500D01*
X84325736Y-114578052D01*
X84278625Y-114620000D01*
X84220390Y-114674291D01*
X84194249Y-114675602D01*
X84201453Y-114626456D01*
X84238545Y-114538968D01*
X84278092Y-114450291D01*
X84288120Y-114400012D01*
X84270970Y-114371599D01*
X84263009Y-114366159D01*
X84226830Y-114352405D01*
X84192195Y-114364797D01*
X84192195Y-114364797D01*
G37*
X84192195Y-114364797D02*
X84152496Y-114411221D01*
X84101127Y-114499562D01*
X84031479Y-114637708D01*
X84025909Y-114649117D01*
X83901079Y-114905149D01*
X83829530Y-114837932D01*
X83763818Y-114795600D01*
X83707498Y-114788525D01*
X83676930Y-114813523D01*
X83687462Y-114865591D01*
X83730407Y-114927996D01*
X83798659Y-115010947D01*
X83879790Y-115101238D01*
X83961378Y-115185660D01*
X84030996Y-115251006D01*
X84076219Y-115284068D01*
X84082728Y-115285745D01*
X84121002Y-115265398D01*
X84194144Y-115211412D01*
X84290161Y-115132997D01*
X84358000Y-115074313D01*
X84460211Y-114980534D01*
X84542829Y-114898215D01*
X84594887Y-114838648D01*
X84607038Y-114817961D01*
X84595541Y-114780743D01*
X84432423Y-114780743D01*
X84420298Y-114815991D01*
X84371363Y-114870699D01*
X84290611Y-114944893D01*
X84170349Y-115040674D01*
X84084850Y-115083458D01*
X84033977Y-115073298D01*
X84021547Y-115048625D01*
X84039979Y-115014096D01*
X84096331Y-114952416D01*
X84178969Y-114876140D01*
X84190514Y-114866250D01*
X84286595Y-114788299D01*
X84349292Y-114748843D01*
X84390559Y-114741915D01*
X84414584Y-114754435D01*
X84432423Y-114780743D01*
X84595541Y-114780743D01*
X84592324Y-114770331D01*
X84544586Y-114701784D01*
X84480505Y-114630920D01*
X84416760Y-114576341D01*
X84372568Y-114556500D01*
X84325736Y-114578052D01*
X84278625Y-114620000D01*
X84220390Y-114674291D01*
X84194249Y-114675602D01*
X84201453Y-114626456D01*
X84238545Y-114538968D01*
X84278092Y-114450291D01*
X84288120Y-114400012D01*
X84270970Y-114371599D01*
X84263009Y-114366159D01*
X84226830Y-114352405D01*
X84192195Y-114364797D01*
G36*
X71690006Y-114040170D02*
X71660123Y-114091876D01*
X71635161Y-114146875D01*
X71555890Y-114278327D01*
X71449908Y-114390097D01*
X71335131Y-114464843D01*
X71290428Y-114480576D01*
X71226094Y-114508401D01*
X71224702Y-114543498D01*
X71286162Y-114585455D01*
X71316688Y-114599253D01*
X71409852Y-114652421D01*
X71501698Y-114724994D01*
X71511633Y-114734617D01*
X71584585Y-114823085D01*
X71642051Y-114918517D01*
X71646997Y-114929562D01*
X71690025Y-115009055D01*
X71727645Y-115025600D01*
X71763304Y-114979129D01*
X71783272Y-114926862D01*
X71859433Y-114792311D01*
X71991477Y-114670891D01*
X72116891Y-114595760D01*
X72242407Y-114532624D01*
X72104499Y-114462269D01*
X72006033Y-114401155D01*
X71910911Y-114324341D01*
X71833970Y-114245927D01*
X71790045Y-114180012D01*
X71785000Y-114158617D01*
X71767708Y-114107506D01*
X71741454Y-114064582D01*
X71713470Y-114033895D01*
X71690006Y-114040170D01*
X71690006Y-114040170D01*
G37*
X71690006Y-114040170D02*
X71660123Y-114091876D01*
X71635161Y-114146875D01*
X71555890Y-114278327D01*
X71449908Y-114390097D01*
X71335131Y-114464843D01*
X71290428Y-114480576D01*
X71226094Y-114508401D01*
X71224702Y-114543498D01*
X71286162Y-114585455D01*
X71316688Y-114599253D01*
X71409852Y-114652421D01*
X71501698Y-114724994D01*
X71511633Y-114734617D01*
X71584585Y-114823085D01*
X71642051Y-114918517D01*
X71646997Y-114929562D01*
X71690025Y-115009055D01*
X71727645Y-115025600D01*
X71763304Y-114979129D01*
X71783272Y-114926862D01*
X71859433Y-114792311D01*
X71991477Y-114670891D01*
X72116891Y-114595760D01*
X72242407Y-114532624D01*
X72104499Y-114462269D01*
X72006033Y-114401155D01*
X71910911Y-114324341D01*
X71833970Y-114245927D01*
X71790045Y-114180012D01*
X71785000Y-114158617D01*
X71767708Y-114107506D01*
X71741454Y-114064582D01*
X71713470Y-114033895D01*
X71690006Y-114040170D01*
G36*
X67794729Y-114027687D02*
X67776169Y-114069984D01*
X67750622Y-114157952D01*
X67721751Y-114274755D01*
X67693218Y-114403554D01*
X67668683Y-114527512D01*
X67651807Y-114629791D01*
X67646253Y-114693552D01*
X67647713Y-114703789D01*
X67671281Y-114731845D01*
X67719707Y-114741722D01*
X67801989Y-114732524D01*
X67927124Y-114703356D01*
X68078188Y-114660941D01*
X68213377Y-114619077D01*
X68297496Y-114585892D01*
X68341341Y-114555769D01*
X68355711Y-114523087D01*
X68355989Y-114516632D01*
X67967003Y-114516632D01*
X67949698Y-114547107D01*
X67905393Y-114561989D01*
X67842370Y-114552876D01*
X67821623Y-114514086D01*
X67822144Y-114455189D01*
X67831083Y-114435834D01*
X67870257Y-114434092D01*
X67923564Y-114463582D01*
X67963253Y-114507808D01*
X67967003Y-114516632D01*
X68355989Y-114516632D01*
X68356000Y-114516398D01*
X68348063Y-114476359D01*
X68312684Y-114463963D01*
X68235440Y-114472412D01*
X68152236Y-114478156D01*
X68084338Y-114457136D01*
X68003753Y-114400037D01*
X67994057Y-114392097D01*
X67921752Y-114327403D01*
X67889755Y-114275576D01*
X67886963Y-114212213D01*
X67892870Y-114169699D01*
X67899858Y-114082962D01*
X67882027Y-114039022D01*
X67863010Y-114027899D01*
X67810146Y-114020967D01*
X67794729Y-114027687D01*
X67794729Y-114027687D01*
G37*
X67794729Y-114027687D02*
X67776169Y-114069984D01*
X67750622Y-114157952D01*
X67721751Y-114274755D01*
X67693218Y-114403554D01*
X67668683Y-114527512D01*
X67651807Y-114629791D01*
X67646253Y-114693552D01*
X67647713Y-114703789D01*
X67671281Y-114731845D01*
X67719707Y-114741722D01*
X67801989Y-114732524D01*
X67927124Y-114703356D01*
X68078188Y-114660941D01*
X68213377Y-114619077D01*
X68297496Y-114585892D01*
X68341341Y-114555769D01*
X68355711Y-114523087D01*
X68355989Y-114516632D01*
X67967003Y-114516632D01*
X67949698Y-114547107D01*
X67905393Y-114561989D01*
X67842370Y-114552876D01*
X67821623Y-114514086D01*
X67822144Y-114455189D01*
X67831083Y-114435834D01*
X67870257Y-114434092D01*
X67923564Y-114463582D01*
X67963253Y-114507808D01*
X67967003Y-114516632D01*
X68355989Y-114516632D01*
X68356000Y-114516398D01*
X68348063Y-114476359D01*
X68312684Y-114463963D01*
X68235440Y-114472412D01*
X68152236Y-114478156D01*
X68084338Y-114457136D01*
X68003753Y-114400037D01*
X67994057Y-114392097D01*
X67921752Y-114327403D01*
X67889755Y-114275576D01*
X67886963Y-114212213D01*
X67892870Y-114169699D01*
X67899858Y-114082962D01*
X67882027Y-114039022D01*
X67863010Y-114027899D01*
X67810146Y-114020967D01*
X67794729Y-114027687D01*
G36*
X80820544Y-112918694D02*
X80789240Y-112997759D01*
X80734594Y-113109628D01*
X80639213Y-113232683D01*
X80519327Y-113350054D01*
X80391167Y-113444872D01*
X80324711Y-113480542D01*
X80237291Y-113526150D01*
X80180021Y-113567724D01*
X80167000Y-113587942D01*
X80194047Y-113618393D01*
X80264212Y-113660578D01*
X80341818Y-113696522D01*
X80527125Y-113806444D01*
X80679316Y-113964006D01*
X80786815Y-114157117D01*
X80789638Y-114164404D01*
X80826428Y-114246133D01*
X80859485Y-114295674D01*
X80870942Y-114302500D01*
X80898506Y-114275793D01*
X80938010Y-114207400D01*
X80963788Y-114151687D01*
X81079049Y-113958061D01*
X81241301Y-113794850D01*
X81429063Y-113679891D01*
X81519082Y-113635144D01*
X81579606Y-113597027D01*
X81595750Y-113578492D01*
X81568819Y-113553281D01*
X81498991Y-113514793D01*
X81422647Y-113480437D01*
X81235240Y-113369981D01*
X81077056Y-113211214D01*
X80961021Y-113017198D01*
X80958524Y-113011430D01*
X80907296Y-112917268D01*
X80861354Y-112886360D01*
X80820544Y-112918694D01*
X80820544Y-112918694D01*
G37*
X80820544Y-112918694D02*
X80789240Y-112997759D01*
X80734594Y-113109628D01*
X80639213Y-113232683D01*
X80519327Y-113350054D01*
X80391167Y-113444872D01*
X80324711Y-113480542D01*
X80237291Y-113526150D01*
X80180021Y-113567724D01*
X80167000Y-113587942D01*
X80194047Y-113618393D01*
X80264212Y-113660578D01*
X80341818Y-113696522D01*
X80527125Y-113806444D01*
X80679316Y-113964006D01*
X80786815Y-114157117D01*
X80789638Y-114164404D01*
X80826428Y-114246133D01*
X80859485Y-114295674D01*
X80870942Y-114302500D01*
X80898506Y-114275793D01*
X80938010Y-114207400D01*
X80963788Y-114151687D01*
X81079049Y-113958061D01*
X81241301Y-113794850D01*
X81429063Y-113679891D01*
X81519082Y-113635144D01*
X81579606Y-113597027D01*
X81595750Y-113578492D01*
X81568819Y-113553281D01*
X81498991Y-113514793D01*
X81422647Y-113480437D01*
X81235240Y-113369981D01*
X81077056Y-113211214D01*
X80961021Y-113017198D01*
X80958524Y-113011430D01*
X80907296Y-112917268D01*
X80861354Y-112886360D01*
X80820544Y-112918694D01*
G36*
X75248406Y-113756286D02*
X75245750Y-113773090D01*
X75222240Y-113825710D01*
X75167068Y-113888098D01*
X75103271Y-113937772D01*
X75061142Y-113953250D01*
X75025746Y-113974224D01*
X75023500Y-113985000D01*
X75048787Y-114014094D01*
X75065591Y-114016750D01*
X75118211Y-114040260D01*
X75180599Y-114095432D01*
X75230273Y-114159229D01*
X75245750Y-114201358D01*
X75266725Y-114236754D01*
X75277500Y-114239000D01*
X75306595Y-114213713D01*
X75309250Y-114196909D01*
X75332761Y-114144289D01*
X75387933Y-114081901D01*
X75451730Y-114032227D01*
X75493859Y-114016750D01*
X75529255Y-113995775D01*
X75531500Y-113985000D01*
X75506214Y-113955905D01*
X75489410Y-113953250D01*
X75436790Y-113929739D01*
X75374402Y-113874567D01*
X75324728Y-113810770D01*
X75309250Y-113768641D01*
X75288276Y-113733245D01*
X75277500Y-113731000D01*
X75248406Y-113756286D01*
X75248406Y-113756286D01*
G37*
X75248406Y-113756286D02*
X75245750Y-113773090D01*
X75222240Y-113825710D01*
X75167068Y-113888098D01*
X75103271Y-113937772D01*
X75061142Y-113953250D01*
X75025746Y-113974224D01*
X75023500Y-113985000D01*
X75048787Y-114014094D01*
X75065591Y-114016750D01*
X75118211Y-114040260D01*
X75180599Y-114095432D01*
X75230273Y-114159229D01*
X75245750Y-114201358D01*
X75266725Y-114236754D01*
X75277500Y-114239000D01*
X75306595Y-114213713D01*
X75309250Y-114196909D01*
X75332761Y-114144289D01*
X75387933Y-114081901D01*
X75451730Y-114032227D01*
X75493859Y-114016750D01*
X75529255Y-113995775D01*
X75531500Y-113985000D01*
X75506214Y-113955905D01*
X75489410Y-113953250D01*
X75436790Y-113929739D01*
X75374402Y-113874567D01*
X75324728Y-113810770D01*
X75309250Y-113768641D01*
X75288276Y-113733245D01*
X75277500Y-113731000D01*
X75248406Y-113756286D01*
G36*
X72780306Y-112424442D02*
X72743251Y-112494624D01*
X72705338Y-112579891D01*
X72612256Y-112747873D01*
X72482810Y-112906026D01*
X72334470Y-113035645D01*
X72213625Y-113106363D01*
X72081211Y-113169463D01*
X72007900Y-113219017D01*
X71992327Y-113260855D01*
X72033123Y-113300802D01*
X72128920Y-113344687D01*
X72155332Y-113354739D01*
X72360771Y-113464812D01*
X72536621Y-113629127D01*
X72678706Y-113843732D01*
X72684938Y-113855888D01*
X72739921Y-113957681D01*
X72787769Y-114034226D01*
X72818788Y-114070135D01*
X72820321Y-114070815D01*
X72848476Y-114049842D01*
X72888740Y-113984568D01*
X72923197Y-113910443D01*
X73044372Y-113689890D01*
X73208307Y-113514773D01*
X73420556Y-113379171D01*
X73422637Y-113378144D01*
X73525649Y-113325341D01*
X73604086Y-113281221D01*
X73642269Y-113254651D01*
X73643204Y-113253408D01*
X73634090Y-113214744D01*
X73566191Y-113170748D01*
X73452347Y-113126961D01*
X73342652Y-113070433D01*
X73219358Y-112974763D01*
X73099139Y-112856625D01*
X72998672Y-112732695D01*
X72934632Y-112619648D01*
X72928789Y-112603403D01*
X72880260Y-112480364D01*
X72832474Y-112411053D01*
X72802955Y-112397500D01*
X72780306Y-112424442D01*
X72780306Y-112424442D01*
G37*
X72780306Y-112424442D02*
X72743251Y-112494624D01*
X72705338Y-112579891D01*
X72612256Y-112747873D01*
X72482810Y-112906026D01*
X72334470Y-113035645D01*
X72213625Y-113106363D01*
X72081211Y-113169463D01*
X72007900Y-113219017D01*
X71992327Y-113260855D01*
X72033123Y-113300802D01*
X72128920Y-113344687D01*
X72155332Y-113354739D01*
X72360771Y-113464812D01*
X72536621Y-113629127D01*
X72678706Y-113843732D01*
X72684938Y-113855888D01*
X72739921Y-113957681D01*
X72787769Y-114034226D01*
X72818788Y-114070135D01*
X72820321Y-114070815D01*
X72848476Y-114049842D01*
X72888740Y-113984568D01*
X72923197Y-113910443D01*
X73044372Y-113689890D01*
X73208307Y-113514773D01*
X73420556Y-113379171D01*
X73422637Y-113378144D01*
X73525649Y-113325341D01*
X73604086Y-113281221D01*
X73642269Y-113254651D01*
X73643204Y-113253408D01*
X73634090Y-113214744D01*
X73566191Y-113170748D01*
X73452347Y-113126961D01*
X73342652Y-113070433D01*
X73219358Y-112974763D01*
X73099139Y-112856625D01*
X72998672Y-112732695D01*
X72934632Y-112619648D01*
X72928789Y-112603403D01*
X72880260Y-112480364D01*
X72832474Y-112411053D01*
X72802955Y-112397500D01*
X72780306Y-112424442D01*
G36*
X85590249Y-112865458D02*
X85530113Y-112926346D01*
X85451783Y-113012739D01*
X85365693Y-113112360D01*
X85282278Y-113212930D01*
X85211972Y-113302169D01*
X85165209Y-113367799D01*
X85151750Y-113395440D01*
X85175580Y-113425651D01*
X85237688Y-113481075D01*
X85323998Y-113550985D01*
X85420438Y-113624657D01*
X85512932Y-113691363D01*
X85587407Y-113740378D01*
X85629790Y-113760975D01*
X85631512Y-113761070D01*
X85669249Y-113736824D01*
X85734449Y-113673061D01*
X85816276Y-113580912D01*
X85866125Y-113520052D01*
X85951105Y-113412107D01*
X86021947Y-113319937D01*
X86068557Y-113256783D01*
X86080146Y-113239322D01*
X86076111Y-113228304D01*
X85913796Y-113228304D01*
X85766806Y-113415399D01*
X85619815Y-113602495D01*
X85536595Y-113540240D01*
X85457035Y-113480079D01*
X85393221Y-113430947D01*
X85366558Y-113406412D01*
X85357621Y-113379419D01*
X85371353Y-113340409D01*
X85412699Y-113279824D01*
X85486600Y-113188106D01*
X85570386Y-113088374D01*
X85643875Y-113001374D01*
X85778836Y-113114839D01*
X85913796Y-113228304D01*
X86076111Y-113228304D01*
X86067165Y-113203877D01*
X86015347Y-113142751D01*
X85937579Y-113067105D01*
X85846746Y-112988097D01*
X85755734Y-112916886D01*
X85677428Y-112864631D01*
X85624714Y-112842490D01*
X85621757Y-112842355D01*
X85590249Y-112865458D01*
X85590249Y-112865458D01*
G37*
X85590249Y-112865458D02*
X85530113Y-112926346D01*
X85451783Y-113012739D01*
X85365693Y-113112360D01*
X85282278Y-113212930D01*
X85211972Y-113302169D01*
X85165209Y-113367799D01*
X85151750Y-113395440D01*
X85175580Y-113425651D01*
X85237688Y-113481075D01*
X85323998Y-113550985D01*
X85420438Y-113624657D01*
X85512932Y-113691363D01*
X85587407Y-113740378D01*
X85629790Y-113760975D01*
X85631512Y-113761070D01*
X85669249Y-113736824D01*
X85734449Y-113673061D01*
X85816276Y-113580912D01*
X85866125Y-113520052D01*
X85951105Y-113412107D01*
X86021947Y-113319937D01*
X86068557Y-113256783D01*
X86080146Y-113239322D01*
X86076111Y-113228304D01*
X85913796Y-113228304D01*
X85766806Y-113415399D01*
X85619815Y-113602495D01*
X85536595Y-113540240D01*
X85457035Y-113480079D01*
X85393221Y-113430947D01*
X85366558Y-113406412D01*
X85357621Y-113379419D01*
X85371353Y-113340409D01*
X85412699Y-113279824D01*
X85486600Y-113188106D01*
X85570386Y-113088374D01*
X85643875Y-113001374D01*
X85778836Y-113114839D01*
X85913796Y-113228304D01*
X86076111Y-113228304D01*
X86067165Y-113203877D01*
X86015347Y-113142751D01*
X85937579Y-113067105D01*
X85846746Y-112988097D01*
X85755734Y-112916886D01*
X85677428Y-112864631D01*
X85624714Y-112842490D01*
X85621757Y-112842355D01*
X85590249Y-112865458D01*
G36*
X78586609Y-112644790D02*
X78547106Y-112705141D01*
X78541117Y-112715502D01*
X78476680Y-112795438D01*
X78388665Y-112868260D01*
X78373616Y-112877667D01*
X78260375Y-112944481D01*
X78364210Y-112996428D01*
X78453894Y-113060919D01*
X78528925Y-113145981D01*
X78531710Y-113150339D01*
X78576564Y-113216378D01*
X78607518Y-113251593D01*
X78611250Y-113253326D01*
X78635838Y-113229402D01*
X78675358Y-113169401D01*
X78681750Y-113158361D01*
X78750261Y-113072795D01*
X78832362Y-113007749D01*
X78896410Y-112967224D01*
X78927728Y-112939408D01*
X78928349Y-112937250D01*
X78903702Y-112912631D01*
X78843277Y-112873065D01*
X78832362Y-112866750D01*
X78746796Y-112798239D01*
X78681750Y-112716138D01*
X78641225Y-112652090D01*
X78613409Y-112620772D01*
X78611250Y-112620151D01*
X78586609Y-112644790D01*
X78586609Y-112644790D01*
G37*
X78586609Y-112644790D02*
X78547106Y-112705141D01*
X78541117Y-112715502D01*
X78476680Y-112795438D01*
X78388665Y-112868260D01*
X78373616Y-112877667D01*
X78260375Y-112944481D01*
X78364210Y-112996428D01*
X78453894Y-113060919D01*
X78528925Y-113145981D01*
X78531710Y-113150339D01*
X78576564Y-113216378D01*
X78607518Y-113251593D01*
X78611250Y-113253326D01*
X78635838Y-113229402D01*
X78675358Y-113169401D01*
X78681750Y-113158361D01*
X78750261Y-113072795D01*
X78832362Y-113007749D01*
X78896410Y-112967224D01*
X78927728Y-112939408D01*
X78928349Y-112937250D01*
X78903702Y-112912631D01*
X78843277Y-112873065D01*
X78832362Y-112866750D01*
X78746796Y-112798239D01*
X78681750Y-112716138D01*
X78641225Y-112652090D01*
X78613409Y-112620772D01*
X78611250Y-112620151D01*
X78586609Y-112644790D01*
G36*
X69540574Y-112761944D02*
X69529096Y-112781590D01*
X69478468Y-112839723D01*
X69410890Y-112887758D01*
X69360525Y-112921428D01*
X69370034Y-112935497D01*
X69377637Y-112935978D01*
X69430202Y-112960249D01*
X69493892Y-113018856D01*
X69508994Y-113037038D01*
X69559574Y-113098425D01*
X69586101Y-113113547D01*
X69602698Y-113086883D01*
X69608726Y-113068660D01*
X69652834Y-113000805D01*
X69703270Y-112960934D01*
X69776179Y-112921375D01*
X69668484Y-112821874D01*
X69601816Y-112763393D01*
X69564467Y-112744944D01*
X69540574Y-112761944D01*
X69540574Y-112761944D01*
G37*
X69540574Y-112761944D02*
X69529096Y-112781590D01*
X69478468Y-112839723D01*
X69410890Y-112887758D01*
X69360525Y-112921428D01*
X69370034Y-112935497D01*
X69377637Y-112935978D01*
X69430202Y-112960249D01*
X69493892Y-113018856D01*
X69508994Y-113037038D01*
X69559574Y-113098425D01*
X69586101Y-113113547D01*
X69602698Y-113086883D01*
X69608726Y-113068660D01*
X69652834Y-113000805D01*
X69703270Y-112960934D01*
X69776179Y-112921375D01*
X69668484Y-112821874D01*
X69601816Y-112763393D01*
X69564467Y-112744944D01*
X69540574Y-112761944D01*
G36*
X65678777Y-111173990D02*
X65594655Y-111212394D01*
X65492598Y-111265732D01*
X65388016Y-111325275D01*
X65296317Y-111382294D01*
X65232910Y-111428061D01*
X65212750Y-111452012D01*
X65228372Y-111504815D01*
X65269731Y-111592085D01*
X65328570Y-111700165D01*
X65396632Y-111815394D01*
X65465659Y-111924113D01*
X65527394Y-112012663D01*
X65573580Y-112067385D01*
X65591387Y-112078343D01*
X65640795Y-112062342D01*
X65728100Y-112021258D01*
X65836935Y-111962984D01*
X65871206Y-111943406D01*
X65976412Y-111879301D01*
X66056392Y-111824676D01*
X66098185Y-111788608D01*
X66101394Y-111782170D01*
X66086264Y-111734301D01*
X66085056Y-111731806D01*
X65911250Y-111731806D01*
X65885547Y-111762411D01*
X65822739Y-111805404D01*
X65744278Y-111848612D01*
X65671618Y-111879861D01*
X65635823Y-111888096D01*
X65602597Y-111862927D01*
X65552513Y-111795824D01*
X65500885Y-111709236D01*
X65450514Y-111612859D01*
X65415256Y-111538948D01*
X65403250Y-111505576D01*
X65428608Y-111478159D01*
X65493555Y-111433379D01*
X65546662Y-111402024D01*
X65690073Y-111321870D01*
X65732386Y-111391372D01*
X65810357Y-111523675D01*
X65869793Y-111632937D01*
X65904642Y-111707643D01*
X65911250Y-111731806D01*
X66085056Y-111731806D01*
X66045688Y-111650509D01*
X65987853Y-111544513D01*
X65920948Y-111430029D01*
X65853161Y-111320775D01*
X65792681Y-111230468D01*
X65747696Y-111172825D01*
X65729556Y-111159250D01*
X65678777Y-111173990D01*
X65678777Y-111173990D01*
G37*
X65678777Y-111173990D02*
X65594655Y-111212394D01*
X65492598Y-111265732D01*
X65388016Y-111325275D01*
X65296317Y-111382294D01*
X65232910Y-111428061D01*
X65212750Y-111452012D01*
X65228372Y-111504815D01*
X65269731Y-111592085D01*
X65328570Y-111700165D01*
X65396632Y-111815394D01*
X65465659Y-111924113D01*
X65527394Y-112012663D01*
X65573580Y-112067385D01*
X65591387Y-112078343D01*
X65640795Y-112062342D01*
X65728100Y-112021258D01*
X65836935Y-111962984D01*
X65871206Y-111943406D01*
X65976412Y-111879301D01*
X66056392Y-111824676D01*
X66098185Y-111788608D01*
X66101394Y-111782170D01*
X66086264Y-111734301D01*
X66085056Y-111731806D01*
X65911250Y-111731806D01*
X65885547Y-111762411D01*
X65822739Y-111805404D01*
X65744278Y-111848612D01*
X65671618Y-111879861D01*
X65635823Y-111888096D01*
X65602597Y-111862927D01*
X65552513Y-111795824D01*
X65500885Y-111709236D01*
X65450514Y-111612859D01*
X65415256Y-111538948D01*
X65403250Y-111505576D01*
X65428608Y-111478159D01*
X65493555Y-111433379D01*
X65546662Y-111402024D01*
X65690073Y-111321870D01*
X65732386Y-111391372D01*
X65810357Y-111523675D01*
X65869793Y-111632937D01*
X65904642Y-111707643D01*
X65911250Y-111731806D01*
X66085056Y-111731806D01*
X66045688Y-111650509D01*
X65987853Y-111544513D01*
X65920948Y-111430029D01*
X65853161Y-111320775D01*
X65792681Y-111230468D01*
X65747696Y-111172825D01*
X65729556Y-111159250D01*
X65678777Y-111173990D01*
G36*
X86705785Y-111088017D02*
X86675368Y-111120839D01*
X86633500Y-111185716D01*
X86573886Y-111290992D01*
X86500928Y-111425199D01*
X86432683Y-111553320D01*
X86392038Y-111637353D01*
X86375698Y-111688687D01*
X86380365Y-111718710D01*
X86402744Y-111738813D01*
X86409055Y-111742644D01*
X86590743Y-111848035D01*
X86725970Y-111921590D01*
X86821362Y-111966316D01*
X86883545Y-111985223D01*
X86919144Y-111981317D01*
X86924965Y-111976835D01*
X86952495Y-111941584D01*
X86950561Y-111909391D01*
X86911606Y-111871369D01*
X86828070Y-111818634D01*
X86755125Y-111777196D01*
X86655873Y-111719939D01*
X86582743Y-111674415D01*
X86549461Y-111649237D01*
X86548750Y-111647668D01*
X86563325Y-111615402D01*
X86602065Y-111542104D01*
X86657494Y-111441797D01*
X86675750Y-111409433D01*
X86748194Y-111276388D01*
X86788181Y-111186595D01*
X86798175Y-111130270D01*
X86780641Y-111097631D01*
X86757447Y-111085159D01*
X86731046Y-111078905D01*
X86705785Y-111088017D01*
X86705785Y-111088017D01*
G37*
X86705785Y-111088017D02*
X86675368Y-111120839D01*
X86633500Y-111185716D01*
X86573886Y-111290992D01*
X86500928Y-111425199D01*
X86432683Y-111553320D01*
X86392038Y-111637353D01*
X86375698Y-111688687D01*
X86380365Y-111718710D01*
X86402744Y-111738813D01*
X86409055Y-111742644D01*
X86590743Y-111848035D01*
X86725970Y-111921590D01*
X86821362Y-111966316D01*
X86883545Y-111985223D01*
X86919144Y-111981317D01*
X86924965Y-111976835D01*
X86952495Y-111941584D01*
X86950561Y-111909391D01*
X86911606Y-111871369D01*
X86828070Y-111818634D01*
X86755125Y-111777196D01*
X86655873Y-111719939D01*
X86582743Y-111674415D01*
X86549461Y-111649237D01*
X86548750Y-111647668D01*
X86563325Y-111615402D01*
X86602065Y-111542104D01*
X86657494Y-111441797D01*
X86675750Y-111409433D01*
X86748194Y-111276388D01*
X86788181Y-111186595D01*
X86798175Y-111130270D01*
X86780641Y-111097631D01*
X86757447Y-111085159D01*
X86731046Y-111078905D01*
X86705785Y-111088017D01*
G36*
X83417225Y-109667176D02*
X83198664Y-109667987D01*
X83029600Y-109669857D01*
X82903029Y-109673209D01*
X82811952Y-109678468D01*
X82749366Y-109686056D01*
X82708269Y-109696398D01*
X82681660Y-109709917D01*
X82662537Y-109727037D01*
X82660328Y-109729447D01*
X82616228Y-109808848D01*
X82603813Y-109873375D01*
X82625087Y-109960462D01*
X82660328Y-110017302D01*
X82680908Y-110036491D01*
X82708811Y-110051296D01*
X82751835Y-110062283D01*
X82817783Y-110070018D01*
X82914455Y-110075065D01*
X83049651Y-110077991D01*
X83231173Y-110079362D01*
X83466822Y-110079742D01*
X83521546Y-110079750D01*
X84326250Y-110079750D01*
X84326250Y-110330695D01*
X83517704Y-110340160D01*
X83267586Y-110343455D01*
X83073267Y-110347164D01*
X82927048Y-110351877D01*
X82821229Y-110358180D01*
X82748109Y-110366663D01*
X82699988Y-110377914D01*
X82669167Y-110392522D01*
X82652517Y-110406289D01*
X82629628Y-110436825D01*
X82613766Y-110482050D01*
X82603705Y-110552854D01*
X82598216Y-110660126D01*
X82596075Y-110814757D01*
X82595875Y-110909112D01*
X82594538Y-111062305D01*
X82594680Y-111185312D01*
X82602537Y-111281424D01*
X82624344Y-111353928D01*
X82666336Y-111406115D01*
X82734745Y-111441273D01*
X82835808Y-111462692D01*
X82975759Y-111473660D01*
X83160832Y-111477467D01*
X83397262Y-111477402D01*
X83671828Y-111476750D01*
X83944616Y-111476345D01*
X84161013Y-111474893D01*
X84328124Y-111472032D01*
X84453056Y-111467402D01*
X84542913Y-111460644D01*
X84604800Y-111451396D01*
X84645824Y-111439300D01*
X84670116Y-111426147D01*
X84717776Y-111378801D01*
X84734514Y-111312394D01*
X84732743Y-111244327D01*
X84725968Y-111183465D01*
X84710987Y-111135574D01*
X84680893Y-111099098D01*
X84628780Y-111072479D01*
X84547743Y-111054158D01*
X84430874Y-111042580D01*
X84271268Y-111036185D01*
X84062018Y-111033417D01*
X83796217Y-111032719D01*
X83794438Y-111032718D01*
X83024500Y-111032250D01*
X83024500Y-110778250D01*
X83814733Y-110778250D01*
X84084027Y-110778860D01*
X84296553Y-110778020D01*
X84458994Y-110771723D01*
X84578030Y-110755961D01*
X84660343Y-110726729D01*
X84712615Y-110680019D01*
X84741526Y-110611823D01*
X84753758Y-110518136D01*
X84755993Y-110394951D01*
X84754911Y-110238259D01*
X84754875Y-110214435D01*
X84752981Y-110018763D01*
X84746821Y-109878373D01*
X84735681Y-109785145D01*
X84718846Y-109730960D01*
X84711300Y-109719504D01*
X84693353Y-109704581D01*
X84662513Y-109692748D01*
X84611997Y-109683655D01*
X84535017Y-109676953D01*
X84424787Y-109672291D01*
X84274523Y-109669321D01*
X84077438Y-109667692D01*
X83826746Y-109667056D01*
X83692284Y-109667000D01*
X83417225Y-109667176D01*
X83417225Y-109667176D01*
G37*
X83417225Y-109667176D02*
X83198664Y-109667987D01*
X83029600Y-109669857D01*
X82903029Y-109673209D01*
X82811952Y-109678468D01*
X82749366Y-109686056D01*
X82708269Y-109696398D01*
X82681660Y-109709917D01*
X82662537Y-109727037D01*
X82660328Y-109729447D01*
X82616228Y-109808848D01*
X82603813Y-109873375D01*
X82625087Y-109960462D01*
X82660328Y-110017302D01*
X82680908Y-110036491D01*
X82708811Y-110051296D01*
X82751835Y-110062283D01*
X82817783Y-110070018D01*
X82914455Y-110075065D01*
X83049651Y-110077991D01*
X83231173Y-110079362D01*
X83466822Y-110079742D01*
X83521546Y-110079750D01*
X84326250Y-110079750D01*
X84326250Y-110330695D01*
X83517704Y-110340160D01*
X83267586Y-110343455D01*
X83073267Y-110347164D01*
X82927048Y-110351877D01*
X82821229Y-110358180D01*
X82748109Y-110366663D01*
X82699988Y-110377914D01*
X82669167Y-110392522D01*
X82652517Y-110406289D01*
X82629628Y-110436825D01*
X82613766Y-110482050D01*
X82603705Y-110552854D01*
X82598216Y-110660126D01*
X82596075Y-110814757D01*
X82595875Y-110909112D01*
X82594538Y-111062305D01*
X82594680Y-111185312D01*
X82602537Y-111281424D01*
X82624344Y-111353928D01*
X82666336Y-111406115D01*
X82734745Y-111441273D01*
X82835808Y-111462692D01*
X82975759Y-111473660D01*
X83160832Y-111477467D01*
X83397262Y-111477402D01*
X83671828Y-111476750D01*
X83944616Y-111476345D01*
X84161013Y-111474893D01*
X84328124Y-111472032D01*
X84453056Y-111467402D01*
X84542913Y-111460644D01*
X84604800Y-111451396D01*
X84645824Y-111439300D01*
X84670116Y-111426147D01*
X84717776Y-111378801D01*
X84734514Y-111312394D01*
X84732743Y-111244327D01*
X84725968Y-111183465D01*
X84710987Y-111135574D01*
X84680893Y-111099098D01*
X84628780Y-111072479D01*
X84547743Y-111054158D01*
X84430874Y-111042580D01*
X84271268Y-111036185D01*
X84062018Y-111033417D01*
X83796217Y-111032719D01*
X83794438Y-111032718D01*
X83024500Y-111032250D01*
X83024500Y-110778250D01*
X83814733Y-110778250D01*
X84084027Y-110778860D01*
X84296553Y-110778020D01*
X84458994Y-110771723D01*
X84578030Y-110755961D01*
X84660343Y-110726729D01*
X84712615Y-110680019D01*
X84741526Y-110611823D01*
X84753758Y-110518136D01*
X84755993Y-110394951D01*
X84754911Y-110238259D01*
X84754875Y-110214435D01*
X84752981Y-110018763D01*
X84746821Y-109878373D01*
X84735681Y-109785145D01*
X84718846Y-109730960D01*
X84711300Y-109719504D01*
X84693353Y-109704581D01*
X84662513Y-109692748D01*
X84611997Y-109683655D01*
X84535017Y-109676953D01*
X84424787Y-109672291D01*
X84274523Y-109669321D01*
X84077438Y-109667692D01*
X83826746Y-109667056D01*
X83692284Y-109667000D01*
X83417225Y-109667176D01*
G36*
X80194330Y-109695944D02*
X80119375Y-109756639D01*
X80119375Y-111355360D01*
X80194330Y-111416055D01*
X80219594Y-111433611D01*
X80251930Y-111447425D01*
X80298683Y-111457941D01*
X80367197Y-111465606D01*
X80464817Y-111470863D01*
X80598888Y-111474160D01*
X80776752Y-111475941D01*
X81005755Y-111476651D01*
X81195328Y-111476750D01*
X81469007Y-111476321D01*
X81686219Y-111474802D01*
X81853993Y-111471845D01*
X81979358Y-111467102D01*
X82069344Y-111460222D01*
X82130978Y-111450859D01*
X82171291Y-111438662D01*
X82191936Y-111427324D01*
X82213330Y-111410802D01*
X82229894Y-111389783D01*
X82242246Y-111356630D01*
X82251003Y-111303701D01*
X82256784Y-111223359D01*
X82260206Y-111107962D01*
X82261888Y-110949872D01*
X82262446Y-110741450D01*
X82262500Y-110554931D01*
X82262500Y-109731963D01*
X82183357Y-109680106D01*
X82077847Y-109645545D01*
X81968885Y-109667687D01*
X81899596Y-109716940D01*
X81882169Y-109743158D01*
X81869219Y-109787715D01*
X81860127Y-109859072D01*
X81854275Y-109965695D01*
X81851046Y-110116046D01*
X81849820Y-110318589D01*
X81849750Y-110399517D01*
X81849750Y-111032250D01*
X80548000Y-111032250D01*
X80548000Y-110411681D01*
X80547800Y-110198645D01*
X80546505Y-110039763D01*
X80543073Y-109925691D01*
X80536460Y-109847085D01*
X80525623Y-109794598D01*
X80509522Y-109758887D01*
X80487112Y-109730607D01*
X80470069Y-109713181D01*
X80376463Y-109647884D01*
X80283857Y-109645010D01*
X80194330Y-109695944D01*
X80194330Y-109695944D01*
G37*
X80194330Y-109695944D02*
X80119375Y-109756639D01*
X80119375Y-111355360D01*
X80194330Y-111416055D01*
X80219594Y-111433611D01*
X80251930Y-111447425D01*
X80298683Y-111457941D01*
X80367197Y-111465606D01*
X80464817Y-111470863D01*
X80598888Y-111474160D01*
X80776752Y-111475941D01*
X81005755Y-111476651D01*
X81195328Y-111476750D01*
X81469007Y-111476321D01*
X81686219Y-111474802D01*
X81853993Y-111471845D01*
X81979358Y-111467102D01*
X82069344Y-111460222D01*
X82130978Y-111450859D01*
X82171291Y-111438662D01*
X82191936Y-111427324D01*
X82213330Y-111410802D01*
X82229894Y-111389783D01*
X82242246Y-111356630D01*
X82251003Y-111303701D01*
X82256784Y-111223359D01*
X82260206Y-111107962D01*
X82261888Y-110949872D01*
X82262446Y-110741450D01*
X82262500Y-110554931D01*
X82262500Y-109731963D01*
X82183357Y-109680106D01*
X82077847Y-109645545D01*
X81968885Y-109667687D01*
X81899596Y-109716940D01*
X81882169Y-109743158D01*
X81869219Y-109787715D01*
X81860127Y-109859072D01*
X81854275Y-109965695D01*
X81851046Y-110116046D01*
X81849820Y-110318589D01*
X81849750Y-110399517D01*
X81849750Y-111032250D01*
X80548000Y-111032250D01*
X80548000Y-110411681D01*
X80547800Y-110198645D01*
X80546505Y-110039763D01*
X80543073Y-109925691D01*
X80536460Y-109847085D01*
X80525623Y-109794598D01*
X80509522Y-109758887D01*
X80487112Y-109730607D01*
X80470069Y-109713181D01*
X80376463Y-109647884D01*
X80283857Y-109645010D01*
X80194330Y-109695944D01*
G36*
X77717830Y-109695964D02*
X77642875Y-109756679D01*
X77642875Y-110549902D01*
X77643176Y-110796193D01*
X77644452Y-110986940D01*
X77647263Y-111130101D01*
X77652167Y-111233630D01*
X77659725Y-111305484D01*
X77670495Y-111353618D01*
X77685038Y-111385987D01*
X77703359Y-111409937D01*
X77794451Y-111465865D01*
X77869382Y-111476750D01*
X77906125Y-111472054D01*
X77950505Y-111455071D01*
X78008376Y-111421451D01*
X78085590Y-111366847D01*
X78188000Y-111286911D01*
X78321457Y-111177297D01*
X78491815Y-111033655D01*
X78666148Y-110884861D01*
X79357375Y-110292972D01*
X79373250Y-110839873D01*
X79379653Y-111040369D01*
X79386299Y-111186881D01*
X79394434Y-111288919D01*
X79405303Y-111355991D01*
X79420152Y-111397606D01*
X79440225Y-111423273D01*
X79450756Y-111431762D01*
X79544133Y-111470155D01*
X79646932Y-111470352D01*
X79729956Y-111432728D01*
X79734860Y-111428104D01*
X79761957Y-111393493D01*
X79782792Y-111345482D01*
X79797971Y-111276515D01*
X79808105Y-111179033D01*
X79813800Y-111045478D01*
X79815665Y-110868292D01*
X79814308Y-110639917D01*
X79812100Y-110468212D01*
X79808476Y-110238492D01*
X79804578Y-110063708D01*
X79799542Y-109935299D01*
X79792502Y-109844702D01*
X79782595Y-109783356D01*
X79768956Y-109742700D01*
X79750721Y-109714172D01*
X79734155Y-109696230D01*
X79659985Y-109647277D01*
X79575155Y-109648620D01*
X79524191Y-109675336D01*
X79430979Y-109740491D01*
X79300561Y-109840146D01*
X79137980Y-109970361D01*
X78948279Y-110127198D01*
X78777688Y-110271487D01*
X78071500Y-110874306D01*
X78071500Y-110332710D01*
X78071209Y-110135324D01*
X78069481Y-109991252D01*
X78065034Y-109890306D01*
X78056587Y-109822299D01*
X78042858Y-109777044D01*
X78022567Y-109744355D01*
X77994432Y-109714045D01*
X77993569Y-109713181D01*
X77899965Y-109647885D01*
X77807366Y-109645011D01*
X77717830Y-109695964D01*
X77717830Y-109695964D01*
G37*
X77717830Y-109695964D02*
X77642875Y-109756679D01*
X77642875Y-110549902D01*
X77643176Y-110796193D01*
X77644452Y-110986940D01*
X77647263Y-111130101D01*
X77652167Y-111233630D01*
X77659725Y-111305484D01*
X77670495Y-111353618D01*
X77685038Y-111385987D01*
X77703359Y-111409937D01*
X77794451Y-111465865D01*
X77869382Y-111476750D01*
X77906125Y-111472054D01*
X77950505Y-111455071D01*
X78008376Y-111421451D01*
X78085590Y-111366847D01*
X78188000Y-111286911D01*
X78321457Y-111177297D01*
X78491815Y-111033655D01*
X78666148Y-110884861D01*
X79357375Y-110292972D01*
X79373250Y-110839873D01*
X79379653Y-111040369D01*
X79386299Y-111186881D01*
X79394434Y-111288919D01*
X79405303Y-111355991D01*
X79420152Y-111397606D01*
X79440225Y-111423273D01*
X79450756Y-111431762D01*
X79544133Y-111470155D01*
X79646932Y-111470352D01*
X79729956Y-111432728D01*
X79734860Y-111428104D01*
X79761957Y-111393493D01*
X79782792Y-111345482D01*
X79797971Y-111276515D01*
X79808105Y-111179033D01*
X79813800Y-111045478D01*
X79815665Y-110868292D01*
X79814308Y-110639917D01*
X79812100Y-110468212D01*
X79808476Y-110238492D01*
X79804578Y-110063708D01*
X79799542Y-109935299D01*
X79792502Y-109844702D01*
X79782595Y-109783356D01*
X79768956Y-109742700D01*
X79750721Y-109714172D01*
X79734155Y-109696230D01*
X79659985Y-109647277D01*
X79575155Y-109648620D01*
X79524191Y-109675336D01*
X79430979Y-109740491D01*
X79300561Y-109840146D01*
X79137980Y-109970361D01*
X78948279Y-110127198D01*
X78777688Y-110271487D01*
X78071500Y-110874306D01*
X78071500Y-110332710D01*
X78071209Y-110135324D01*
X78069481Y-109991252D01*
X78065034Y-109890306D01*
X78056587Y-109822299D01*
X78042858Y-109777044D01*
X78022567Y-109744355D01*
X77994432Y-109714045D01*
X77993569Y-109713181D01*
X77899965Y-109647885D01*
X77807366Y-109645011D01*
X77717830Y-109695964D01*
G36*
X75052535Y-109667090D02*
X74836452Y-109667685D01*
X74669881Y-109669272D01*
X74545830Y-109672337D01*
X74457305Y-109677367D01*
X74397313Y-109684848D01*
X74358860Y-109695267D01*
X74334953Y-109709111D01*
X74318599Y-109726865D01*
X74310926Y-109737564D01*
X74265847Y-109846766D01*
X74280227Y-109951949D01*
X74325000Y-110016250D01*
X74347760Y-110035880D01*
X74377159Y-110050994D01*
X74421133Y-110062179D01*
X74487616Y-110070023D01*
X74584544Y-110075114D01*
X74719850Y-110078040D01*
X74901470Y-110079387D01*
X75137339Y-110079745D01*
X75182250Y-110079750D01*
X75976000Y-110079750D01*
X75976000Y-111029145D01*
X75185521Y-111038635D01*
X74939268Y-111041923D01*
X74748558Y-111045577D01*
X74605432Y-111050247D01*
X74501933Y-111056582D01*
X74430104Y-111065231D01*
X74381988Y-111076845D01*
X74349627Y-111092073D01*
X74328271Y-111108608D01*
X74273133Y-111196947D01*
X74267369Y-111301441D01*
X74311236Y-111397993D01*
X74325000Y-111413250D01*
X74345934Y-111431473D01*
X74372931Y-111445835D01*
X74413211Y-111456794D01*
X74473992Y-111464808D01*
X74562491Y-111470336D01*
X74685928Y-111473836D01*
X74851519Y-111475766D01*
X75066484Y-111476584D01*
X75325125Y-111476750D01*
X75594104Y-111476566D01*
X75806802Y-111475709D01*
X75970436Y-111473721D01*
X76092224Y-111470144D01*
X76179386Y-111464519D01*
X76239138Y-111456387D01*
X76278700Y-111445292D01*
X76305289Y-111430773D01*
X76325250Y-111413250D01*
X76345141Y-111390148D01*
X76360387Y-111360295D01*
X76371604Y-111315622D01*
X76379407Y-111248056D01*
X76384408Y-111149528D01*
X76387223Y-111011966D01*
X76388466Y-110827300D01*
X76388750Y-110587459D01*
X76388750Y-110578939D01*
X76388178Y-110330202D01*
X76386155Y-110137190D01*
X76382226Y-109992136D01*
X76375934Y-109887272D01*
X76366824Y-109814833D01*
X76354438Y-109767049D01*
X76339325Y-109737564D01*
X76324129Y-109717631D01*
X76304941Y-109701857D01*
X76274768Y-109689755D01*
X76226617Y-109680839D01*
X76153493Y-109674622D01*
X76048405Y-109670617D01*
X75904357Y-109668339D01*
X75714357Y-109667299D01*
X75471411Y-109667013D01*
X75325125Y-109667000D01*
X75052535Y-109667090D01*
X75052535Y-109667090D01*
G37*
X75052535Y-109667090D02*
X74836452Y-109667685D01*
X74669881Y-109669272D01*
X74545830Y-109672337D01*
X74457305Y-109677367D01*
X74397313Y-109684848D01*
X74358860Y-109695267D01*
X74334953Y-109709111D01*
X74318599Y-109726865D01*
X74310926Y-109737564D01*
X74265847Y-109846766D01*
X74280227Y-109951949D01*
X74325000Y-110016250D01*
X74347760Y-110035880D01*
X74377159Y-110050994D01*
X74421133Y-110062179D01*
X74487616Y-110070023D01*
X74584544Y-110075114D01*
X74719850Y-110078040D01*
X74901470Y-110079387D01*
X75137339Y-110079745D01*
X75182250Y-110079750D01*
X75976000Y-110079750D01*
X75976000Y-111029145D01*
X75185521Y-111038635D01*
X74939268Y-111041923D01*
X74748558Y-111045577D01*
X74605432Y-111050247D01*
X74501933Y-111056582D01*
X74430104Y-111065231D01*
X74381988Y-111076845D01*
X74349627Y-111092073D01*
X74328271Y-111108608D01*
X74273133Y-111196947D01*
X74267369Y-111301441D01*
X74311236Y-111397993D01*
X74325000Y-111413250D01*
X74345934Y-111431473D01*
X74372931Y-111445835D01*
X74413211Y-111456794D01*
X74473992Y-111464808D01*
X74562491Y-111470336D01*
X74685928Y-111473836D01*
X74851519Y-111475766D01*
X75066484Y-111476584D01*
X75325125Y-111476750D01*
X75594104Y-111476566D01*
X75806802Y-111475709D01*
X75970436Y-111473721D01*
X76092224Y-111470144D01*
X76179386Y-111464519D01*
X76239138Y-111456387D01*
X76278700Y-111445292D01*
X76305289Y-111430773D01*
X76325250Y-111413250D01*
X76345141Y-111390148D01*
X76360387Y-111360295D01*
X76371604Y-111315622D01*
X76379407Y-111248056D01*
X76384408Y-111149528D01*
X76387223Y-111011966D01*
X76388466Y-110827300D01*
X76388750Y-110587459D01*
X76388750Y-110578939D01*
X76388178Y-110330202D01*
X76386155Y-110137190D01*
X76382226Y-109992136D01*
X76375934Y-109887272D01*
X76366824Y-109814833D01*
X76354438Y-109767049D01*
X76339325Y-109737564D01*
X76324129Y-109717631D01*
X76304941Y-109701857D01*
X76274768Y-109689755D01*
X76226617Y-109680839D01*
X76153493Y-109674622D01*
X76048405Y-109670617D01*
X75904357Y-109668339D01*
X75714357Y-109667299D01*
X75471411Y-109667013D01*
X75325125Y-109667000D01*
X75052535Y-109667090D01*
G36*
X72897887Y-109669656D02*
X72858084Y-109696982D01*
X72816513Y-109744241D01*
X72750583Y-109836625D01*
X72665569Y-109965247D01*
X72566747Y-110121222D01*
X72459393Y-110295667D01*
X72348782Y-110479695D01*
X72240191Y-110664422D01*
X72138895Y-110840962D01*
X72050169Y-111000432D01*
X71979289Y-111133945D01*
X71931532Y-111232618D01*
X71912172Y-111287564D01*
X71912000Y-111290318D01*
X71940268Y-111385815D01*
X72015729Y-111452068D01*
X72123892Y-111476750D01*
X72182134Y-111470924D01*
X72232355Y-111447177D01*
X72283954Y-111396098D01*
X72346331Y-111308279D01*
X72428883Y-111174313D01*
X72433140Y-111167187D01*
X72551598Y-110968750D01*
X73454557Y-110968750D01*
X73576316Y-111176894D01*
X73641623Y-111284368D01*
X73700462Y-111373969D01*
X73741113Y-111427936D01*
X73743931Y-111430894D01*
X73826970Y-111473851D01*
X73924686Y-111468347D01*
X74014499Y-111417346D01*
X74037502Y-111392386D01*
X74085190Y-111299282D01*
X74083534Y-111241573D01*
X74058383Y-111186046D01*
X74005707Y-111088158D01*
X73930777Y-110956511D01*
X73838861Y-110799707D01*
X73741392Y-110636651D01*
X73245500Y-110636651D01*
X73216340Y-110643629D01*
X73139205Y-110648792D01*
X73029614Y-110651186D01*
X73007375Y-110651250D01*
X72893553Y-110648212D01*
X72809353Y-110640178D01*
X72770291Y-110628764D01*
X72769250Y-110626444D01*
X72784973Y-110588838D01*
X72826204Y-110514013D01*
X72884044Y-110418117D01*
X72884462Y-110417449D01*
X72999673Y-110233259D01*
X73122587Y-110427656D01*
X73182581Y-110524410D01*
X73226349Y-110598561D01*
X73245300Y-110635498D01*
X73245500Y-110636651D01*
X73741392Y-110636651D01*
X73735233Y-110626349D01*
X73625162Y-110445039D01*
X73513919Y-110264379D01*
X73406775Y-110092972D01*
X73309000Y-109939420D01*
X73225866Y-109812325D01*
X73162643Y-109720291D01*
X73124602Y-109671918D01*
X73118910Y-109667218D01*
X73007150Y-109637095D01*
X72897887Y-109669656D01*
X72897887Y-109669656D01*
G37*
X72897887Y-109669656D02*
X72858084Y-109696982D01*
X72816513Y-109744241D01*
X72750583Y-109836625D01*
X72665569Y-109965247D01*
X72566747Y-110121222D01*
X72459393Y-110295667D01*
X72348782Y-110479695D01*
X72240191Y-110664422D01*
X72138895Y-110840962D01*
X72050169Y-111000432D01*
X71979289Y-111133945D01*
X71931532Y-111232618D01*
X71912172Y-111287564D01*
X71912000Y-111290318D01*
X71940268Y-111385815D01*
X72015729Y-111452068D01*
X72123892Y-111476750D01*
X72182134Y-111470924D01*
X72232355Y-111447177D01*
X72283954Y-111396098D01*
X72346331Y-111308279D01*
X72428883Y-111174313D01*
X72433140Y-111167187D01*
X72551598Y-110968750D01*
X73454557Y-110968750D01*
X73576316Y-111176894D01*
X73641623Y-111284368D01*
X73700462Y-111373969D01*
X73741113Y-111427936D01*
X73743931Y-111430894D01*
X73826970Y-111473851D01*
X73924686Y-111468347D01*
X74014499Y-111417346D01*
X74037502Y-111392386D01*
X74085190Y-111299282D01*
X74083534Y-111241573D01*
X74058383Y-111186046D01*
X74005707Y-111088158D01*
X73930777Y-110956511D01*
X73838861Y-110799707D01*
X73741392Y-110636651D01*
X73245500Y-110636651D01*
X73216340Y-110643629D01*
X73139205Y-110648792D01*
X73029614Y-110651186D01*
X73007375Y-110651250D01*
X72893553Y-110648212D01*
X72809353Y-110640178D01*
X72770291Y-110628764D01*
X72769250Y-110626444D01*
X72784973Y-110588838D01*
X72826204Y-110514013D01*
X72884044Y-110418117D01*
X72884462Y-110417449D01*
X72999673Y-110233259D01*
X73122587Y-110427656D01*
X73182581Y-110524410D01*
X73226349Y-110598561D01*
X73245300Y-110635498D01*
X73245500Y-110636651D01*
X73741392Y-110636651D01*
X73735233Y-110626349D01*
X73625162Y-110445039D01*
X73513919Y-110264379D01*
X73406775Y-110092972D01*
X73309000Y-109939420D01*
X73225866Y-109812325D01*
X73162643Y-109720291D01*
X73124602Y-109671918D01*
X73118910Y-109667218D01*
X73007150Y-109637095D01*
X72897887Y-109669656D01*
G36*
X70879828Y-109667409D02*
X70658776Y-109668849D01*
X70487878Y-109671637D01*
X70360464Y-109676091D01*
X70269864Y-109682529D01*
X70209407Y-109691269D01*
X70172421Y-109702629D01*
X70154223Y-109714812D01*
X70090548Y-109812002D01*
X70089937Y-109911753D01*
X70126066Y-109980377D01*
X70154946Y-110015529D01*
X70187711Y-110039444D01*
X70236651Y-110054660D01*
X70314055Y-110063712D01*
X70432212Y-110069136D01*
X70573917Y-110072789D01*
X70959500Y-110081704D01*
X70959500Y-110726681D01*
X70959955Y-110946760D01*
X70961804Y-111112098D01*
X70965776Y-111231451D01*
X70972600Y-111313574D01*
X70983005Y-111367223D01*
X70997720Y-111401154D01*
X71017474Y-111424123D01*
X71017563Y-111424204D01*
X71106287Y-111469666D01*
X71207224Y-111472992D01*
X71294739Y-111435695D01*
X71322825Y-111406185D01*
X71340367Y-111370886D01*
X71353367Y-111316360D01*
X71362441Y-111233925D01*
X71368202Y-111114901D01*
X71371265Y-110950606D01*
X71372244Y-110732361D01*
X71372250Y-110707685D01*
X71372250Y-110079750D01*
X71748330Y-110079750D01*
X71934271Y-110076702D01*
X72065897Y-110064915D01*
X72152213Y-110040424D01*
X72202223Y-109999264D01*
X72224933Y-109937467D01*
X72229500Y-109867858D01*
X72227999Y-109813727D01*
X72219288Y-109770315D01*
X72197060Y-109736438D01*
X72155007Y-109710914D01*
X72086821Y-109692562D01*
X71986194Y-109680200D01*
X71846817Y-109672645D01*
X71662383Y-109668714D01*
X71426584Y-109667227D01*
X71157706Y-109667000D01*
X70879828Y-109667409D01*
X70879828Y-109667409D01*
G37*
X70879828Y-109667409D02*
X70658776Y-109668849D01*
X70487878Y-109671637D01*
X70360464Y-109676091D01*
X70269864Y-109682529D01*
X70209407Y-109691269D01*
X70172421Y-109702629D01*
X70154223Y-109714812D01*
X70090548Y-109812002D01*
X70089937Y-109911753D01*
X70126066Y-109980377D01*
X70154946Y-110015529D01*
X70187711Y-110039444D01*
X70236651Y-110054660D01*
X70314055Y-110063712D01*
X70432212Y-110069136D01*
X70573917Y-110072789D01*
X70959500Y-110081704D01*
X70959500Y-110726681D01*
X70959955Y-110946760D01*
X70961804Y-111112098D01*
X70965776Y-111231451D01*
X70972600Y-111313574D01*
X70983005Y-111367223D01*
X70997720Y-111401154D01*
X71017474Y-111424123D01*
X71017563Y-111424204D01*
X71106287Y-111469666D01*
X71207224Y-111472992D01*
X71294739Y-111435695D01*
X71322825Y-111406185D01*
X71340367Y-111370886D01*
X71353367Y-111316360D01*
X71362441Y-111233925D01*
X71368202Y-111114901D01*
X71371265Y-110950606D01*
X71372244Y-110732361D01*
X71372250Y-110707685D01*
X71372250Y-110079750D01*
X71748330Y-110079750D01*
X71934271Y-110076702D01*
X72065897Y-110064915D01*
X72152213Y-110040424D01*
X72202223Y-109999264D01*
X72224933Y-109937467D01*
X72229500Y-109867858D01*
X72227999Y-109813727D01*
X72219288Y-109770315D01*
X72197060Y-109736438D01*
X72155007Y-109710914D01*
X72086821Y-109692562D01*
X71986194Y-109680200D01*
X71846817Y-109672645D01*
X71662383Y-109668714D01*
X71426584Y-109667227D01*
X71157706Y-109667000D01*
X70879828Y-109667409D01*
G36*
X68526475Y-109667176D02*
X68307914Y-109667987D01*
X68138850Y-109669857D01*
X68012279Y-109673209D01*
X67921202Y-109678468D01*
X67858616Y-109686056D01*
X67817519Y-109696398D01*
X67790910Y-109709917D01*
X67771787Y-109727037D01*
X67769578Y-109729447D01*
X67725478Y-109808848D01*
X67713063Y-109873375D01*
X67734337Y-109960462D01*
X67769578Y-110017302D01*
X67790158Y-110036491D01*
X67818061Y-110051296D01*
X67861085Y-110062283D01*
X67927033Y-110070018D01*
X68023705Y-110075065D01*
X68158901Y-110077991D01*
X68340423Y-110079362D01*
X68576072Y-110079742D01*
X68630796Y-110079750D01*
X69435500Y-110079750D01*
X69435500Y-110330695D01*
X68626954Y-110340160D01*
X68376836Y-110343455D01*
X68182517Y-110347164D01*
X68036298Y-110351877D01*
X67930479Y-110358180D01*
X67857359Y-110366663D01*
X67809238Y-110377914D01*
X67778417Y-110392522D01*
X67761767Y-110406289D01*
X67738878Y-110436825D01*
X67723016Y-110482050D01*
X67712955Y-110552854D01*
X67707466Y-110660126D01*
X67705325Y-110814757D01*
X67705125Y-110909112D01*
X67703788Y-111062305D01*
X67703930Y-111185312D01*
X67711787Y-111281424D01*
X67733594Y-111353928D01*
X67775586Y-111406115D01*
X67843995Y-111441273D01*
X67945058Y-111462692D01*
X68085009Y-111473660D01*
X68270082Y-111477467D01*
X68506512Y-111477402D01*
X68781078Y-111476750D01*
X69053866Y-111476345D01*
X69270263Y-111474893D01*
X69437374Y-111472032D01*
X69562306Y-111467402D01*
X69652163Y-111460644D01*
X69714050Y-111451396D01*
X69755074Y-111439300D01*
X69779366Y-111426147D01*
X69827026Y-111378801D01*
X69843764Y-111312394D01*
X69841993Y-111244327D01*
X69835218Y-111183465D01*
X69820237Y-111135574D01*
X69790143Y-111099098D01*
X69738030Y-111072479D01*
X69656993Y-111054158D01*
X69540124Y-111042580D01*
X69380518Y-111036185D01*
X69171268Y-111033417D01*
X68905467Y-111032719D01*
X68903688Y-111032718D01*
X68133750Y-111032250D01*
X68133750Y-110778250D01*
X68923983Y-110778250D01*
X69193277Y-110778860D01*
X69405803Y-110778020D01*
X69568244Y-110771723D01*
X69687280Y-110755961D01*
X69769593Y-110726729D01*
X69821865Y-110680019D01*
X69850776Y-110611823D01*
X69863008Y-110518136D01*
X69865243Y-110394951D01*
X69864161Y-110238259D01*
X69864125Y-110214435D01*
X69862231Y-110018763D01*
X69856071Y-109878373D01*
X69844931Y-109785145D01*
X69828096Y-109730960D01*
X69820550Y-109719504D01*
X69802603Y-109704581D01*
X69771763Y-109692748D01*
X69721247Y-109683655D01*
X69644267Y-109676953D01*
X69534037Y-109672291D01*
X69383773Y-109669321D01*
X69186688Y-109667692D01*
X68935996Y-109667056D01*
X68801534Y-109667000D01*
X68526475Y-109667176D01*
X68526475Y-109667176D01*
G37*
X68526475Y-109667176D02*
X68307914Y-109667987D01*
X68138850Y-109669857D01*
X68012279Y-109673209D01*
X67921202Y-109678468D01*
X67858616Y-109686056D01*
X67817519Y-109696398D01*
X67790910Y-109709917D01*
X67771787Y-109727037D01*
X67769578Y-109729447D01*
X67725478Y-109808848D01*
X67713063Y-109873375D01*
X67734337Y-109960462D01*
X67769578Y-110017302D01*
X67790158Y-110036491D01*
X67818061Y-110051296D01*
X67861085Y-110062283D01*
X67927033Y-110070018D01*
X68023705Y-110075065D01*
X68158901Y-110077991D01*
X68340423Y-110079362D01*
X68576072Y-110079742D01*
X68630796Y-110079750D01*
X69435500Y-110079750D01*
X69435500Y-110330695D01*
X68626954Y-110340160D01*
X68376836Y-110343455D01*
X68182517Y-110347164D01*
X68036298Y-110351877D01*
X67930479Y-110358180D01*
X67857359Y-110366663D01*
X67809238Y-110377914D01*
X67778417Y-110392522D01*
X67761767Y-110406289D01*
X67738878Y-110436825D01*
X67723016Y-110482050D01*
X67712955Y-110552854D01*
X67707466Y-110660126D01*
X67705325Y-110814757D01*
X67705125Y-110909112D01*
X67703788Y-111062305D01*
X67703930Y-111185312D01*
X67711787Y-111281424D01*
X67733594Y-111353928D01*
X67775586Y-111406115D01*
X67843995Y-111441273D01*
X67945058Y-111462692D01*
X68085009Y-111473660D01*
X68270082Y-111477467D01*
X68506512Y-111477402D01*
X68781078Y-111476750D01*
X69053866Y-111476345D01*
X69270263Y-111474893D01*
X69437374Y-111472032D01*
X69562306Y-111467402D01*
X69652163Y-111460644D01*
X69714050Y-111451396D01*
X69755074Y-111439300D01*
X69779366Y-111426147D01*
X69827026Y-111378801D01*
X69843764Y-111312394D01*
X69841993Y-111244327D01*
X69835218Y-111183465D01*
X69820237Y-111135574D01*
X69790143Y-111099098D01*
X69738030Y-111072479D01*
X69656993Y-111054158D01*
X69540124Y-111042580D01*
X69380518Y-111036185D01*
X69171268Y-111033417D01*
X68905467Y-111032719D01*
X68903688Y-111032718D01*
X68133750Y-111032250D01*
X68133750Y-110778250D01*
X68923983Y-110778250D01*
X69193277Y-110778860D01*
X69405803Y-110778020D01*
X69568244Y-110771723D01*
X69687280Y-110755961D01*
X69769593Y-110726729D01*
X69821865Y-110680019D01*
X69850776Y-110611823D01*
X69863008Y-110518136D01*
X69865243Y-110394951D01*
X69864161Y-110238259D01*
X69864125Y-110214435D01*
X69862231Y-110018763D01*
X69856071Y-109878373D01*
X69844931Y-109785145D01*
X69828096Y-109730960D01*
X69820550Y-109719504D01*
X69802603Y-109704581D01*
X69771763Y-109692748D01*
X69721247Y-109683655D01*
X69644267Y-109676953D01*
X69534037Y-109672291D01*
X69383773Y-109669321D01*
X69186688Y-109667692D01*
X68935996Y-109667056D01*
X68801534Y-109667000D01*
X68526475Y-109667176D01*
G36*
X87472481Y-109209558D02*
X87448243Y-109254755D01*
X87411446Y-109343737D01*
X87368036Y-109459546D01*
X87323963Y-109585223D01*
X87285176Y-109703811D01*
X87257623Y-109798352D01*
X87247250Y-109851645D01*
X87266422Y-109886703D01*
X87329045Y-109925051D01*
X87442784Y-109970850D01*
X87509188Y-109993827D01*
X87656760Y-110041948D01*
X87754685Y-110068921D01*
X87812928Y-110075477D01*
X87841453Y-110062346D01*
X87850225Y-110030259D01*
X87850500Y-110018838D01*
X87835775Y-109980295D01*
X87784401Y-109944307D01*
X87685579Y-109904257D01*
X87636188Y-109887531D01*
X87529797Y-109852122D01*
X87450647Y-109824905D01*
X87414656Y-109811364D01*
X87414106Y-109811027D01*
X87420134Y-109780426D01*
X87442779Y-109703519D01*
X87477890Y-109594005D01*
X87498820Y-109531315D01*
X87541999Y-109398816D01*
X87564590Y-109312907D01*
X87568483Y-109260790D01*
X87555569Y-109229666D01*
X87544931Y-109219226D01*
X87493473Y-109199273D01*
X87472481Y-109209558D01*
X87472481Y-109209558D01*
G37*
X87472481Y-109209558D02*
X87448243Y-109254755D01*
X87411446Y-109343737D01*
X87368036Y-109459546D01*
X87323963Y-109585223D01*
X87285176Y-109703811D01*
X87257623Y-109798352D01*
X87247250Y-109851645D01*
X87266422Y-109886703D01*
X87329045Y-109925051D01*
X87442784Y-109970850D01*
X87509188Y-109993827D01*
X87656760Y-110041948D01*
X87754685Y-110068921D01*
X87812928Y-110075477D01*
X87841453Y-110062346D01*
X87850225Y-110030259D01*
X87850500Y-110018838D01*
X87835775Y-109980295D01*
X87784401Y-109944307D01*
X87685579Y-109904257D01*
X87636188Y-109887531D01*
X87529797Y-109852122D01*
X87450647Y-109824905D01*
X87414656Y-109811364D01*
X87414106Y-109811027D01*
X87420134Y-109780426D01*
X87442779Y-109703519D01*
X87477890Y-109594005D01*
X87498820Y-109531315D01*
X87541999Y-109398816D01*
X87564590Y-109312907D01*
X87568483Y-109260790D01*
X87555569Y-109229666D01*
X87544931Y-109219226D01*
X87493473Y-109199273D01*
X87472481Y-109209558D01*
G36*
X64944475Y-109235619D02*
X64869681Y-109257659D01*
X64766974Y-109291244D01*
X64652085Y-109330888D01*
X64540746Y-109371110D01*
X64448687Y-109406425D01*
X64391641Y-109431350D01*
X64381671Y-109437629D01*
X64377837Y-109481768D01*
X64403793Y-109559990D01*
X64450903Y-109655823D01*
X64510536Y-109752793D01*
X64574055Y-109834429D01*
X64605949Y-109865514D01*
X64765619Y-109963156D01*
X64940517Y-110005893D01*
X65101625Y-109993610D01*
X65165179Y-109970918D01*
X65188806Y-109956150D01*
X65186203Y-109922264D01*
X65168096Y-109842752D01*
X65163903Y-109826941D01*
X65022250Y-109826941D01*
X64996227Y-109852701D01*
X64930987Y-109855874D01*
X64845772Y-109838666D01*
X64759826Y-109803282D01*
X64745979Y-109795285D01*
X64685990Y-109745951D01*
X64624808Y-109676821D01*
X64574872Y-109605142D01*
X64548620Y-109548165D01*
X64551597Y-109525734D01*
X64591994Y-109505726D01*
X64665783Y-109477422D01*
X64751392Y-109448102D01*
X64827251Y-109425043D01*
X64871787Y-109415525D01*
X64875778Y-109416353D01*
X64894292Y-109454632D01*
X64924951Y-109532672D01*
X64960384Y-109629808D01*
X64993217Y-109725376D01*
X65016079Y-109798711D01*
X65022250Y-109826941D01*
X65163903Y-109826941D01*
X65138805Y-109732315D01*
X65102648Y-109605655D01*
X65063946Y-109477471D01*
X65027018Y-109362464D01*
X64996184Y-109275336D01*
X64975762Y-109230787D01*
X64975624Y-109230605D01*
X64944475Y-109235619D01*
X64944475Y-109235619D01*
G37*
X64944475Y-109235619D02*
X64869681Y-109257659D01*
X64766974Y-109291244D01*
X64652085Y-109330888D01*
X64540746Y-109371110D01*
X64448687Y-109406425D01*
X64391641Y-109431350D01*
X64381671Y-109437629D01*
X64377837Y-109481768D01*
X64403793Y-109559990D01*
X64450903Y-109655823D01*
X64510536Y-109752793D01*
X64574055Y-109834429D01*
X64605949Y-109865514D01*
X64765619Y-109963156D01*
X64940517Y-110005893D01*
X65101625Y-109993610D01*
X65165179Y-109970918D01*
X65188806Y-109956150D01*
X65186203Y-109922264D01*
X65168096Y-109842752D01*
X65163903Y-109826941D01*
X65022250Y-109826941D01*
X64996227Y-109852701D01*
X64930987Y-109855874D01*
X64845772Y-109838666D01*
X64759826Y-109803282D01*
X64745979Y-109795285D01*
X64685990Y-109745951D01*
X64624808Y-109676821D01*
X64574872Y-109605142D01*
X64548620Y-109548165D01*
X64551597Y-109525734D01*
X64591994Y-109505726D01*
X64665783Y-109477422D01*
X64751392Y-109448102D01*
X64827251Y-109425043D01*
X64871787Y-109415525D01*
X64875778Y-109416353D01*
X64894292Y-109454632D01*
X64924951Y-109532672D01*
X64960384Y-109629808D01*
X64993217Y-109725376D01*
X65016079Y-109798711D01*
X65022250Y-109826941D01*
X65163903Y-109826941D01*
X65138805Y-109732315D01*
X65102648Y-109605655D01*
X65063946Y-109477471D01*
X65027018Y-109362464D01*
X64996184Y-109275336D01*
X64975762Y-109230787D01*
X64975624Y-109230605D01*
X64944475Y-109235619D01*
G36*
X64260075Y-101906314D02*
X64235096Y-101944772D01*
X64209282Y-102027702D01*
X64184791Y-102133674D01*
X64152864Y-102379614D01*
X64171898Y-102596901D01*
X64243420Y-102796736D01*
X64285350Y-102871518D01*
X64368722Y-102978989D01*
X64475286Y-103077590D01*
X64591714Y-103159073D01*
X64704678Y-103215185D01*
X64800850Y-103237678D01*
X64857315Y-103225572D01*
X64873649Y-103191909D01*
X64902792Y-103109774D01*
X64941202Y-102991224D01*
X64985339Y-102848319D01*
X65031661Y-102693117D01*
X65076626Y-102537678D01*
X65116693Y-102394060D01*
X65130706Y-102341004D01*
X64874245Y-102341004D01*
X64866692Y-102424288D01*
X64845778Y-102535698D01*
X64815618Y-102659570D01*
X64780325Y-102780240D01*
X64744012Y-102882044D01*
X64710795Y-102949317D01*
X64689354Y-102967750D01*
X64642891Y-102946887D01*
X64577994Y-102895301D01*
X64563257Y-102881097D01*
X64454929Y-102748107D01*
X64394453Y-102604938D01*
X64373056Y-102429755D01*
X64372706Y-102406833D01*
X64375395Y-102300254D01*
X64383724Y-102220503D01*
X64393798Y-102188618D01*
X64432409Y-102186001D01*
X64512504Y-102198187D01*
X64615091Y-102220620D01*
X64721177Y-102248743D01*
X64811771Y-102277998D01*
X64864325Y-102301509D01*
X64874245Y-102341004D01*
X65130706Y-102341004D01*
X65148320Y-102274322D01*
X65167966Y-102190524D01*
X65172089Y-102154723D01*
X65171886Y-102154465D01*
X65140567Y-102143993D01*
X65059448Y-102119897D01*
X64939928Y-102085487D01*
X64793407Y-102044077D01*
X64752375Y-102032594D01*
X64595882Y-101988819D01*
X64458670Y-101950307D01*
X64353790Y-101920730D01*
X64294292Y-101903762D01*
X64288794Y-101902147D01*
X64260075Y-101906314D01*
X64260075Y-101906314D01*
G37*
X64260075Y-101906314D02*
X64235096Y-101944772D01*
X64209282Y-102027702D01*
X64184791Y-102133674D01*
X64152864Y-102379614D01*
X64171898Y-102596901D01*
X64243420Y-102796736D01*
X64285350Y-102871518D01*
X64368722Y-102978989D01*
X64475286Y-103077590D01*
X64591714Y-103159073D01*
X64704678Y-103215185D01*
X64800850Y-103237678D01*
X64857315Y-103225572D01*
X64873649Y-103191909D01*
X64902792Y-103109774D01*
X64941202Y-102991224D01*
X64985339Y-102848319D01*
X65031661Y-102693117D01*
X65076626Y-102537678D01*
X65116693Y-102394060D01*
X65130706Y-102341004D01*
X64874245Y-102341004D01*
X64866692Y-102424288D01*
X64845778Y-102535698D01*
X64815618Y-102659570D01*
X64780325Y-102780240D01*
X64744012Y-102882044D01*
X64710795Y-102949317D01*
X64689354Y-102967750D01*
X64642891Y-102946887D01*
X64577994Y-102895301D01*
X64563257Y-102881097D01*
X64454929Y-102748107D01*
X64394453Y-102604938D01*
X64373056Y-102429755D01*
X64372706Y-102406833D01*
X64375395Y-102300254D01*
X64383724Y-102220503D01*
X64393798Y-102188618D01*
X64432409Y-102186001D01*
X64512504Y-102198187D01*
X64615091Y-102220620D01*
X64721177Y-102248743D01*
X64811771Y-102277998D01*
X64864325Y-102301509D01*
X64874245Y-102341004D01*
X65130706Y-102341004D01*
X65148320Y-102274322D01*
X65167966Y-102190524D01*
X65172089Y-102154723D01*
X65171886Y-102154465D01*
X65140567Y-102143993D01*
X65059448Y-102119897D01*
X64939928Y-102085487D01*
X64793407Y-102044077D01*
X64752375Y-102032594D01*
X64595882Y-101988819D01*
X64458670Y-101950307D01*
X64353790Y-101920730D01*
X64294292Y-101903762D01*
X64288794Y-101902147D01*
X64260075Y-101906314D01*
G36*
X88041424Y-101909294D02*
X88029542Y-101926678D01*
X88020956Y-101970834D01*
X88029725Y-102054251D01*
X88057012Y-102183622D01*
X88103982Y-102365633D01*
X88109308Y-102385164D01*
X88155410Y-102557302D01*
X88183544Y-102678001D01*
X88193488Y-102756793D01*
X88185019Y-102803209D01*
X88157913Y-102826781D01*
X88111948Y-102837041D01*
X88098703Y-102838518D01*
X88089673Y-102838976D01*
X88081355Y-102832320D01*
X88070901Y-102809692D01*
X88055460Y-102762238D01*
X88032183Y-102681103D01*
X87998220Y-102557429D01*
X87950723Y-102382363D01*
X87944298Y-102358661D01*
X87902296Y-102213900D01*
X87861994Y-102092964D01*
X87827935Y-102008387D01*
X87804661Y-101972708D01*
X87804435Y-101972616D01*
X87753872Y-101973210D01*
X87663404Y-101989804D01*
X87552918Y-102017011D01*
X87442299Y-102049441D01*
X87351433Y-102081707D01*
X87300204Y-102108418D01*
X87298953Y-102109597D01*
X87296891Y-102148714D01*
X87310274Y-102235906D01*
X87335820Y-102358570D01*
X87370242Y-102504107D01*
X87410258Y-102659916D01*
X87452583Y-102813395D01*
X87493933Y-102951944D01*
X87531023Y-103062962D01*
X87560569Y-103133848D01*
X87569687Y-103148323D01*
X87633457Y-103187506D01*
X87700603Y-103165498D01*
X87722378Y-103143727D01*
X87735245Y-103112062D01*
X87734705Y-103056578D01*
X87719174Y-102967703D01*
X87687068Y-102835867D01*
X87646891Y-102687656D01*
X87604911Y-102535176D01*
X87569906Y-102405309D01*
X87545034Y-102309978D01*
X87533452Y-102261103D01*
X87533000Y-102257679D01*
X87560072Y-102242125D01*
X87607235Y-102237500D01*
X87639283Y-102242233D01*
X87665815Y-102263008D01*
X87691388Y-102309682D01*
X87720559Y-102392114D01*
X87757886Y-102520165D01*
X87787028Y-102626437D01*
X87830192Y-102777921D01*
X87871355Y-102908967D01*
X87906064Y-103006240D01*
X87929863Y-103056405D01*
X87931175Y-103057998D01*
X87961282Y-103077526D01*
X88010914Y-103079863D01*
X88094329Y-103063800D01*
X88201327Y-103035091D01*
X88316673Y-102999904D01*
X88408210Y-102967279D01*
X88458423Y-102943544D01*
X88461263Y-102941187D01*
X88463270Y-102901699D01*
X88448775Y-102814368D01*
X88421280Y-102691618D01*
X88384286Y-102545872D01*
X88341294Y-102389554D01*
X88295806Y-102235089D01*
X88251324Y-102094898D01*
X88211348Y-101981408D01*
X88179380Y-101907041D01*
X88163566Y-101884867D01*
X88097691Y-101867128D01*
X88041424Y-101909294D01*
X88041424Y-101909294D01*
G37*
X88041424Y-101909294D02*
X88029542Y-101926678D01*
X88020956Y-101970834D01*
X88029725Y-102054251D01*
X88057012Y-102183622D01*
X88103982Y-102365633D01*
X88109308Y-102385164D01*
X88155410Y-102557302D01*
X88183544Y-102678001D01*
X88193488Y-102756793D01*
X88185019Y-102803209D01*
X88157913Y-102826781D01*
X88111948Y-102837041D01*
X88098703Y-102838518D01*
X88089673Y-102838976D01*
X88081355Y-102832320D01*
X88070901Y-102809692D01*
X88055460Y-102762238D01*
X88032183Y-102681103D01*
X87998220Y-102557429D01*
X87950723Y-102382363D01*
X87944298Y-102358661D01*
X87902296Y-102213900D01*
X87861994Y-102092964D01*
X87827935Y-102008387D01*
X87804661Y-101972708D01*
X87804435Y-101972616D01*
X87753872Y-101973210D01*
X87663404Y-101989804D01*
X87552918Y-102017011D01*
X87442299Y-102049441D01*
X87351433Y-102081707D01*
X87300204Y-102108418D01*
X87298953Y-102109597D01*
X87296891Y-102148714D01*
X87310274Y-102235906D01*
X87335820Y-102358570D01*
X87370242Y-102504107D01*
X87410258Y-102659916D01*
X87452583Y-102813395D01*
X87493933Y-102951944D01*
X87531023Y-103062962D01*
X87560569Y-103133848D01*
X87569687Y-103148323D01*
X87633457Y-103187506D01*
X87700603Y-103165498D01*
X87722378Y-103143727D01*
X87735245Y-103112062D01*
X87734705Y-103056578D01*
X87719174Y-102967703D01*
X87687068Y-102835867D01*
X87646891Y-102687656D01*
X87604911Y-102535176D01*
X87569906Y-102405309D01*
X87545034Y-102309978D01*
X87533452Y-102261103D01*
X87533000Y-102257679D01*
X87560072Y-102242125D01*
X87607235Y-102237500D01*
X87639283Y-102242233D01*
X87665815Y-102263008D01*
X87691388Y-102309682D01*
X87720559Y-102392114D01*
X87757886Y-102520165D01*
X87787028Y-102626437D01*
X87830192Y-102777921D01*
X87871355Y-102908967D01*
X87906064Y-103006240D01*
X87929863Y-103056405D01*
X87931175Y-103057998D01*
X87961282Y-103077526D01*
X88010914Y-103079863D01*
X88094329Y-103063800D01*
X88201327Y-103035091D01*
X88316673Y-102999904D01*
X88408210Y-102967279D01*
X88458423Y-102943544D01*
X88461263Y-102941187D01*
X88463270Y-102901699D01*
X88448775Y-102814368D01*
X88421280Y-102691618D01*
X88384286Y-102545872D01*
X88341294Y-102389554D01*
X88295806Y-102235089D01*
X88251324Y-102094898D01*
X88211348Y-101981408D01*
X88179380Y-101907041D01*
X88163566Y-101884867D01*
X88097691Y-101867128D01*
X88041424Y-101909294D01*
G36*
X65540655Y-100654595D02*
X65421778Y-100666923D01*
X65277076Y-100684793D01*
X65122026Y-100706018D01*
X64972103Y-100728408D01*
X64842783Y-100749774D01*
X64749541Y-100767927D01*
X64712688Y-100778080D01*
X64661579Y-100813363D01*
X64645024Y-100867835D01*
X64664993Y-100947790D01*
X64723457Y-101059520D01*
X64822388Y-101209318D01*
X64867661Y-101272908D01*
X64994719Y-101447319D01*
X65091641Y-101574769D01*
X65164340Y-101660573D01*
X65218730Y-101710044D01*
X65260726Y-101728495D01*
X65296240Y-101721241D01*
X65331187Y-101693596D01*
X65333400Y-101691400D01*
X65362956Y-101653308D01*
X65364974Y-101611900D01*
X65335850Y-101550105D01*
X65287575Y-101474318D01*
X65203650Y-101347498D01*
X65293558Y-101133686D01*
X65348438Y-101008802D01*
X65380099Y-100953201D01*
X65181000Y-100953201D01*
X65167768Y-100990411D01*
X65135304Y-101058899D01*
X65129207Y-101070810D01*
X65077414Y-101170968D01*
X65003486Y-101078254D01*
X64957935Y-101009231D01*
X64958328Y-100969588D01*
X64967967Y-100961131D01*
X65019249Y-100944511D01*
X65089774Y-100936873D01*
X65152646Y-100939220D01*
X65180966Y-100952551D01*
X65181000Y-100953201D01*
X65380099Y-100953201D01*
X65392290Y-100931792D01*
X65436523Y-100891129D01*
X65492548Y-100875283D01*
X65551795Y-100872736D01*
X65652277Y-100854488D01*
X65715507Y-100807743D01*
X65730755Y-100742823D01*
X65719570Y-100711295D01*
X65664148Y-100661460D01*
X65618232Y-100650000D01*
X65540655Y-100654595D01*
X65540655Y-100654595D01*
G37*
X65540655Y-100654595D02*
X65421778Y-100666923D01*
X65277076Y-100684793D01*
X65122026Y-100706018D01*
X64972103Y-100728408D01*
X64842783Y-100749774D01*
X64749541Y-100767927D01*
X64712688Y-100778080D01*
X64661579Y-100813363D01*
X64645024Y-100867835D01*
X64664993Y-100947790D01*
X64723457Y-101059520D01*
X64822388Y-101209318D01*
X64867661Y-101272908D01*
X64994719Y-101447319D01*
X65091641Y-101574769D01*
X65164340Y-101660573D01*
X65218730Y-101710044D01*
X65260726Y-101728495D01*
X65296240Y-101721241D01*
X65331187Y-101693596D01*
X65333400Y-101691400D01*
X65362956Y-101653308D01*
X65364974Y-101611900D01*
X65335850Y-101550105D01*
X65287575Y-101474318D01*
X65203650Y-101347498D01*
X65293558Y-101133686D01*
X65348438Y-101008802D01*
X65380099Y-100953201D01*
X65181000Y-100953201D01*
X65167768Y-100990411D01*
X65135304Y-101058899D01*
X65129207Y-101070810D01*
X65077414Y-101170968D01*
X65003486Y-101078254D01*
X64957935Y-101009231D01*
X64958328Y-100969588D01*
X64967967Y-100961131D01*
X65019249Y-100944511D01*
X65089774Y-100936873D01*
X65152646Y-100939220D01*
X65180966Y-100952551D01*
X65181000Y-100953201D01*
X65380099Y-100953201D01*
X65392290Y-100931792D01*
X65436523Y-100891129D01*
X65492548Y-100875283D01*
X65551795Y-100872736D01*
X65652277Y-100854488D01*
X65715507Y-100807743D01*
X65730755Y-100742823D01*
X65719570Y-100711295D01*
X65664148Y-100661460D01*
X65618232Y-100650000D01*
X65540655Y-100654595D01*
G36*
X87437329Y-100258701D02*
X87354236Y-100285501D01*
X87275568Y-100317102D01*
X87158874Y-100365977D01*
X87079073Y-100406875D01*
X87034028Y-100450807D01*
X87021604Y-100508784D01*
X87039665Y-100591814D01*
X87086075Y-100710907D01*
X87158698Y-100877075D01*
X87164411Y-100890077D01*
X87228023Y-101036621D01*
X87280435Y-101160567D01*
X87317264Y-101251301D01*
X87334130Y-101298208D01*
X87334549Y-101302277D01*
X87304103Y-101319191D01*
X87235570Y-101354719D01*
X87190141Y-101377781D01*
X87105660Y-101427767D01*
X87047847Y-101475613D01*
X87035777Y-101493213D01*
X87039968Y-101554048D01*
X87079589Y-101610247D01*
X87132076Y-101632123D01*
X87172944Y-101619085D01*
X87259960Y-101584834D01*
X87381353Y-101534198D01*
X87525355Y-101472005D01*
X87564750Y-101454667D01*
X87709963Y-101390206D01*
X87832596Y-101335178D01*
X87921819Y-101294488D01*
X87966801Y-101273043D01*
X87970003Y-101271145D01*
X87962073Y-101239650D01*
X87932040Y-101162317D01*
X87920368Y-101134551D01*
X87663522Y-101134551D01*
X87659026Y-101163862D01*
X87637856Y-101179938D01*
X87618299Y-101187817D01*
X87563317Y-101206571D01*
X87545251Y-101209861D01*
X87531924Y-101180918D01*
X87498665Y-101105864D01*
X87450826Y-100996839D01*
X87405975Y-100894051D01*
X87341091Y-100737256D01*
X87305226Y-100630344D01*
X87296699Y-100567609D01*
X87304277Y-100548523D01*
X87344290Y-100525816D01*
X87386191Y-100542501D01*
X87434492Y-100604065D01*
X87493705Y-100715997D01*
X87555840Y-100854500D01*
X87614041Y-100991141D01*
X87649231Y-101080735D01*
X87663522Y-101134551D01*
X87920368Y-101134551D01*
X87885092Y-101050644D01*
X87826416Y-100916129D01*
X87761201Y-100770272D01*
X87694634Y-100624570D01*
X87631903Y-100490521D01*
X87578195Y-100379625D01*
X87538697Y-100303379D01*
X87520414Y-100274638D01*
X87487822Y-100255930D01*
X87437329Y-100258701D01*
X87437329Y-100258701D01*
G37*
X87437329Y-100258701D02*
X87354236Y-100285501D01*
X87275568Y-100317102D01*
X87158874Y-100365977D01*
X87079073Y-100406875D01*
X87034028Y-100450807D01*
X87021604Y-100508784D01*
X87039665Y-100591814D01*
X87086075Y-100710907D01*
X87158698Y-100877075D01*
X87164411Y-100890077D01*
X87228023Y-101036621D01*
X87280435Y-101160567D01*
X87317264Y-101251301D01*
X87334130Y-101298208D01*
X87334549Y-101302277D01*
X87304103Y-101319191D01*
X87235570Y-101354719D01*
X87190141Y-101377781D01*
X87105660Y-101427767D01*
X87047847Y-101475613D01*
X87035777Y-101493213D01*
X87039968Y-101554048D01*
X87079589Y-101610247D01*
X87132076Y-101632123D01*
X87172944Y-101619085D01*
X87259960Y-101584834D01*
X87381353Y-101534198D01*
X87525355Y-101472005D01*
X87564750Y-101454667D01*
X87709963Y-101390206D01*
X87832596Y-101335178D01*
X87921819Y-101294488D01*
X87966801Y-101273043D01*
X87970003Y-101271145D01*
X87962073Y-101239650D01*
X87932040Y-101162317D01*
X87920368Y-101134551D01*
X87663522Y-101134551D01*
X87659026Y-101163862D01*
X87637856Y-101179938D01*
X87618299Y-101187817D01*
X87563317Y-101206571D01*
X87545251Y-101209861D01*
X87531924Y-101180918D01*
X87498665Y-101105864D01*
X87450826Y-100996839D01*
X87405975Y-100894051D01*
X87341091Y-100737256D01*
X87305226Y-100630344D01*
X87296699Y-100567609D01*
X87304277Y-100548523D01*
X87344290Y-100525816D01*
X87386191Y-100542501D01*
X87434492Y-100604065D01*
X87493705Y-100715997D01*
X87555840Y-100854500D01*
X87614041Y-100991141D01*
X87649231Y-101080735D01*
X87663522Y-101134551D01*
X87920368Y-101134551D01*
X87885092Y-101050644D01*
X87826416Y-100916129D01*
X87761201Y-100770272D01*
X87694634Y-100624570D01*
X87631903Y-100490521D01*
X87578195Y-100379625D01*
X87538697Y-100303379D01*
X87520414Y-100274638D01*
X87487822Y-100255930D01*
X87437329Y-100258701D01*
G36*
X86281103Y-99254216D02*
X86147499Y-99258528D01*
X86057265Y-99266928D01*
X86000355Y-99280408D01*
X85966722Y-99299961D01*
X85963706Y-99302829D01*
X85934595Y-99366614D01*
X85955192Y-99429094D01*
X86014721Y-99469638D01*
X86053774Y-99475250D01*
X86176063Y-99482791D01*
X86264858Y-99512993D01*
X86338066Y-99577221D01*
X86413596Y-99686842D01*
X86429783Y-99713902D01*
X86548940Y-99915798D01*
X86482968Y-100027612D01*
X86435414Y-100138081D01*
X86431524Y-100226320D01*
X86470325Y-100282036D01*
X86508251Y-100294914D01*
X86575579Y-100280851D01*
X86635251Y-100211830D01*
X86671142Y-100148302D01*
X86728217Y-100042452D01*
X86798874Y-99908558D01*
X86875514Y-99760899D01*
X86882125Y-99748045D01*
X86994012Y-99530342D01*
X86733419Y-99530342D01*
X86721123Y-99575420D01*
X86702404Y-99616631D01*
X86662705Y-99682045D01*
X86624960Y-99687752D01*
X86581312Y-99633016D01*
X86565441Y-99603826D01*
X86528577Y-99529393D01*
X86527944Y-99497820D01*
X86572316Y-99494708D01*
X86628125Y-99500974D01*
X86706304Y-99511573D01*
X86733419Y-99530342D01*
X86994012Y-99530342D01*
X87072625Y-99377383D01*
X86997671Y-99315191D01*
X86961590Y-99290393D01*
X86915724Y-99273151D01*
X86848704Y-99262130D01*
X86749160Y-99255995D01*
X86605725Y-99253411D01*
X86468126Y-99253000D01*
X86281103Y-99254216D01*
X86281103Y-99254216D01*
G37*
X86281103Y-99254216D02*
X86147499Y-99258528D01*
X86057265Y-99266928D01*
X86000355Y-99280408D01*
X85966722Y-99299961D01*
X85963706Y-99302829D01*
X85934595Y-99366614D01*
X85955192Y-99429094D01*
X86014721Y-99469638D01*
X86053774Y-99475250D01*
X86176063Y-99482791D01*
X86264858Y-99512993D01*
X86338066Y-99577221D01*
X86413596Y-99686842D01*
X86429783Y-99713902D01*
X86548940Y-99915798D01*
X86482968Y-100027612D01*
X86435414Y-100138081D01*
X86431524Y-100226320D01*
X86470325Y-100282036D01*
X86508251Y-100294914D01*
X86575579Y-100280851D01*
X86635251Y-100211830D01*
X86671142Y-100148302D01*
X86728217Y-100042452D01*
X86798874Y-99908558D01*
X86875514Y-99760899D01*
X86882125Y-99748045D01*
X86994012Y-99530342D01*
X86733419Y-99530342D01*
X86721123Y-99575420D01*
X86702404Y-99616631D01*
X86662705Y-99682045D01*
X86624960Y-99687752D01*
X86581312Y-99633016D01*
X86565441Y-99603826D01*
X86528577Y-99529393D01*
X86527944Y-99497820D01*
X86572316Y-99494708D01*
X86628125Y-99500974D01*
X86706304Y-99511573D01*
X86733419Y-99530342D01*
X86994012Y-99530342D01*
X87072625Y-99377383D01*
X86997671Y-99315191D01*
X86961590Y-99290393D01*
X86915724Y-99273151D01*
X86848704Y-99262130D01*
X86749160Y-99255995D01*
X86605725Y-99253411D01*
X86468126Y-99253000D01*
X86281103Y-99254216D01*
G36*
X65736625Y-98880267D02*
X65680521Y-98915081D01*
X65663828Y-98967430D01*
X65665778Y-99007102D01*
X65687933Y-99045137D01*
X65739576Y-99089873D01*
X65829991Y-99149648D01*
X65941640Y-99216958D01*
X66060040Y-99289901D01*
X66154702Y-99353638D01*
X66214158Y-99400113D01*
X66228750Y-99418744D01*
X66213848Y-99453425D01*
X66174569Y-99528303D01*
X66119057Y-99629032D01*
X66055453Y-99741269D01*
X65991901Y-99850668D01*
X65936544Y-99942885D01*
X65897523Y-100003575D01*
X65893901Y-100008638D01*
X65865752Y-99997162D01*
X65794946Y-99958723D01*
X65692873Y-99899702D01*
X65596350Y-99841951D01*
X65472657Y-99769402D01*
X65365989Y-99711361D01*
X65289694Y-99674826D01*
X65260376Y-99665750D01*
X65204379Y-99692048D01*
X65174023Y-99752118D01*
X65181273Y-99817723D01*
X65190168Y-99831439D01*
X65236818Y-99871180D01*
X65323838Y-99930911D01*
X65437774Y-100002772D01*
X65565171Y-100078904D01*
X65692575Y-100151448D01*
X65806533Y-100212546D01*
X65893590Y-100254337D01*
X65939241Y-100269000D01*
X65976935Y-100245954D01*
X66036041Y-100174965D01*
X66118549Y-100053256D01*
X66226450Y-99878052D01*
X66260568Y-99820582D01*
X66362952Y-99644207D01*
X66434249Y-99513844D01*
X66477855Y-99422181D01*
X66497168Y-99361910D01*
X66495585Y-99325719D01*
X66492931Y-99320519D01*
X66449267Y-99278550D01*
X66364211Y-99217211D01*
X66251193Y-99144321D01*
X66123647Y-99067698D01*
X65995002Y-98995161D01*
X65878691Y-98934527D01*
X65788145Y-98893617D01*
X65736795Y-98880248D01*
X65736625Y-98880267D01*
X65736625Y-98880267D01*
G37*
X65736625Y-98880267D02*
X65680521Y-98915081D01*
X65663828Y-98967430D01*
X65665778Y-99007102D01*
X65687933Y-99045137D01*
X65739576Y-99089873D01*
X65829991Y-99149648D01*
X65941640Y-99216958D01*
X66060040Y-99289901D01*
X66154702Y-99353638D01*
X66214158Y-99400113D01*
X66228750Y-99418744D01*
X66213848Y-99453425D01*
X66174569Y-99528303D01*
X66119057Y-99629032D01*
X66055453Y-99741269D01*
X65991901Y-99850668D01*
X65936544Y-99942885D01*
X65897523Y-100003575D01*
X65893901Y-100008638D01*
X65865752Y-99997162D01*
X65794946Y-99958723D01*
X65692873Y-99899702D01*
X65596350Y-99841951D01*
X65472657Y-99769402D01*
X65365989Y-99711361D01*
X65289694Y-99674826D01*
X65260376Y-99665750D01*
X65204379Y-99692048D01*
X65174023Y-99752118D01*
X65181273Y-99817723D01*
X65190168Y-99831439D01*
X65236818Y-99871180D01*
X65323838Y-99930911D01*
X65437774Y-100002772D01*
X65565171Y-100078904D01*
X65692575Y-100151448D01*
X65806533Y-100212546D01*
X65893590Y-100254337D01*
X65939241Y-100269000D01*
X65976935Y-100245954D01*
X66036041Y-100174965D01*
X66118549Y-100053256D01*
X66226450Y-99878052D01*
X66260568Y-99820582D01*
X66362952Y-99644207D01*
X66434249Y-99513844D01*
X66477855Y-99422181D01*
X66497168Y-99361910D01*
X66495585Y-99325719D01*
X66492931Y-99320519D01*
X66449267Y-99278550D01*
X66364211Y-99217211D01*
X66251193Y-99144321D01*
X66123647Y-99067698D01*
X65995002Y-98995161D01*
X65878691Y-98934527D01*
X65788145Y-98893617D01*
X65736795Y-98880248D01*
X65736625Y-98880267D01*
G36*
X85675208Y-97559698D02*
X85619424Y-97607238D01*
X85596250Y-97655051D01*
X85615293Y-97698419D01*
X85667152Y-97779034D01*
X85743928Y-97885416D01*
X85837720Y-98006085D01*
X85838561Y-98007131D01*
X85932583Y-98126704D01*
X86010246Y-98230551D01*
X86063574Y-98307649D01*
X86084593Y-98346973D01*
X86084624Y-98347242D01*
X86063669Y-98380619D01*
X86007476Y-98440214D01*
X85930655Y-98512912D01*
X85847817Y-98585596D01*
X85773572Y-98645149D01*
X85722530Y-98678454D01*
X85712299Y-98681500D01*
X85688219Y-98657917D01*
X85632958Y-98593325D01*
X85554167Y-98496955D01*
X85459497Y-98378040D01*
X85436011Y-98348125D01*
X85311938Y-98194827D01*
X85216852Y-98091112D01*
X85145193Y-98033279D01*
X85091402Y-98017632D01*
X85049919Y-98040471D01*
X85026212Y-98075519D01*
X85014987Y-98120220D01*
X85032926Y-98175672D01*
X85086111Y-98257182D01*
X85112407Y-98292372D01*
X85270679Y-98497792D01*
X85408660Y-98671514D01*
X85522687Y-98809182D01*
X85609096Y-98906445D01*
X85664226Y-98958950D01*
X85680229Y-98967182D01*
X85717130Y-98948244D01*
X85792864Y-98896296D01*
X85897265Y-98818719D01*
X86020164Y-98722893D01*
X86053291Y-98696384D01*
X86176638Y-98594374D01*
X86279697Y-98503838D01*
X86353316Y-98433222D01*
X86388344Y-98390969D01*
X86390000Y-98385684D01*
X86371546Y-98350886D01*
X86321467Y-98277687D01*
X86247693Y-98176344D01*
X86158153Y-98057113D01*
X86060777Y-97930247D01*
X85963492Y-97806004D01*
X85874229Y-97694638D01*
X85800915Y-97606405D01*
X85751480Y-97551560D01*
X85735002Y-97538500D01*
X85675208Y-97559698D01*
X85675208Y-97559698D01*
G37*
X85675208Y-97559698D02*
X85619424Y-97607238D01*
X85596250Y-97655051D01*
X85615293Y-97698419D01*
X85667152Y-97779034D01*
X85743928Y-97885416D01*
X85837720Y-98006085D01*
X85838561Y-98007131D01*
X85932583Y-98126704D01*
X86010246Y-98230551D01*
X86063574Y-98307649D01*
X86084593Y-98346973D01*
X86084624Y-98347242D01*
X86063669Y-98380619D01*
X86007476Y-98440214D01*
X85930655Y-98512912D01*
X85847817Y-98585596D01*
X85773572Y-98645149D01*
X85722530Y-98678454D01*
X85712299Y-98681500D01*
X85688219Y-98657917D01*
X85632958Y-98593325D01*
X85554167Y-98496955D01*
X85459497Y-98378040D01*
X85436011Y-98348125D01*
X85311938Y-98194827D01*
X85216852Y-98091112D01*
X85145193Y-98033279D01*
X85091402Y-98017632D01*
X85049919Y-98040471D01*
X85026212Y-98075519D01*
X85014987Y-98120220D01*
X85032926Y-98175672D01*
X85086111Y-98257182D01*
X85112407Y-98292372D01*
X85270679Y-98497792D01*
X85408660Y-98671514D01*
X85522687Y-98809182D01*
X85609096Y-98906445D01*
X85664226Y-98958950D01*
X85680229Y-98967182D01*
X85717130Y-98948244D01*
X85792864Y-98896296D01*
X85897265Y-98818719D01*
X86020164Y-98722893D01*
X86053291Y-98696384D01*
X86176638Y-98594374D01*
X86279697Y-98503838D01*
X86353316Y-98433222D01*
X86388344Y-98390969D01*
X86390000Y-98385684D01*
X86371546Y-98350886D01*
X86321467Y-98277687D01*
X86247693Y-98176344D01*
X86158153Y-98057113D01*
X86060777Y-97930247D01*
X85963492Y-97806004D01*
X85874229Y-97694638D01*
X85800915Y-97606405D01*
X85751480Y-97551560D01*
X85735002Y-97538500D01*
X85675208Y-97559698D01*
G36*
X66766545Y-97498562D02*
X66701627Y-97562531D01*
X66614982Y-97656825D01*
X66515004Y-97771367D01*
X66410089Y-97896075D01*
X66308631Y-98020871D01*
X66219024Y-98135675D01*
X66149663Y-98230408D01*
X66108943Y-98294990D01*
X66101750Y-98315011D01*
X66125164Y-98345464D01*
X66188516Y-98406197D01*
X66281477Y-98488691D01*
X66393715Y-98584430D01*
X66514899Y-98684895D01*
X66634699Y-98781571D01*
X66742782Y-98865939D01*
X66828818Y-98929482D01*
X66882476Y-98963684D01*
X66892886Y-98967250D01*
X66933156Y-98945586D01*
X66958860Y-98919794D01*
X66984714Y-98850908D01*
X66982280Y-98811286D01*
X66990912Y-98763312D01*
X67035911Y-98682497D01*
X67120049Y-98564526D01*
X67232207Y-98422179D01*
X67331028Y-98296741D01*
X67413257Y-98185676D01*
X67471319Y-98099717D01*
X67485844Y-98072056D01*
X67212825Y-98072056D01*
X67194110Y-98104521D01*
X67143658Y-98174974D01*
X67069784Y-98272122D01*
X67003917Y-98355824D01*
X66906724Y-98477017D01*
X66836825Y-98552085D01*
X66780015Y-98582965D01*
X66722089Y-98571597D01*
X66648844Y-98519918D01*
X66546074Y-98429867D01*
X66534775Y-98419844D01*
X66380424Y-98283098D01*
X66593783Y-98021924D01*
X66683583Y-97914753D01*
X66759813Y-97828888D01*
X66813090Y-97774590D01*
X66832536Y-97760750D01*
X66869119Y-97779574D01*
X66936492Y-97827740D01*
X67019427Y-97892781D01*
X67102700Y-97962234D01*
X67171082Y-98023634D01*
X67209348Y-98064517D01*
X67212825Y-98072056D01*
X67485844Y-98072056D01*
X67497637Y-98049599D01*
X67498425Y-98044926D01*
X67474716Y-98007051D01*
X67410886Y-97941281D01*
X67318290Y-97856900D01*
X67208282Y-97763192D01*
X67092220Y-97669443D01*
X66981458Y-97584935D01*
X66887352Y-97518953D01*
X66821258Y-97480781D01*
X66801342Y-97475000D01*
X66766545Y-97498562D01*
X66766545Y-97498562D01*
G37*
X66766545Y-97498562D02*
X66701627Y-97562531D01*
X66614982Y-97656825D01*
X66515004Y-97771367D01*
X66410089Y-97896075D01*
X66308631Y-98020871D01*
X66219024Y-98135675D01*
X66149663Y-98230408D01*
X66108943Y-98294990D01*
X66101750Y-98315011D01*
X66125164Y-98345464D01*
X66188516Y-98406197D01*
X66281477Y-98488691D01*
X66393715Y-98584430D01*
X66514899Y-98684895D01*
X66634699Y-98781571D01*
X66742782Y-98865939D01*
X66828818Y-98929482D01*
X66882476Y-98963684D01*
X66892886Y-98967250D01*
X66933156Y-98945586D01*
X66958860Y-98919794D01*
X66984714Y-98850908D01*
X66982280Y-98811286D01*
X66990912Y-98763312D01*
X67035911Y-98682497D01*
X67120049Y-98564526D01*
X67232207Y-98422179D01*
X67331028Y-98296741D01*
X67413257Y-98185676D01*
X67471319Y-98099717D01*
X67485844Y-98072056D01*
X67212825Y-98072056D01*
X67194110Y-98104521D01*
X67143658Y-98174974D01*
X67069784Y-98272122D01*
X67003917Y-98355824D01*
X66906724Y-98477017D01*
X66836825Y-98552085D01*
X66780015Y-98582965D01*
X66722089Y-98571597D01*
X66648844Y-98519918D01*
X66546074Y-98429867D01*
X66534775Y-98419844D01*
X66380424Y-98283098D01*
X66593783Y-98021924D01*
X66683583Y-97914753D01*
X66759813Y-97828888D01*
X66813090Y-97774590D01*
X66832536Y-97760750D01*
X66869119Y-97779574D01*
X66936492Y-97827740D01*
X67019427Y-97892781D01*
X67102700Y-97962234D01*
X67171082Y-98023634D01*
X67209348Y-98064517D01*
X67212825Y-98072056D01*
X67485844Y-98072056D01*
X67497637Y-98049599D01*
X67498425Y-98044926D01*
X67474716Y-98007051D01*
X67410886Y-97941281D01*
X67318290Y-97856900D01*
X67208282Y-97763192D01*
X67092220Y-97669443D01*
X66981458Y-97584935D01*
X66887352Y-97518953D01*
X66821258Y-97480781D01*
X66801342Y-97475000D01*
X66766545Y-97498562D01*
G36*
X84420360Y-96357239D02*
X84392889Y-96387562D01*
X84386913Y-96416973D01*
X84402834Y-96457694D01*
X84446377Y-96517251D01*
X84523270Y-96603167D01*
X84639238Y-96722969D01*
X84677621Y-96761728D01*
X84802215Y-96888148D01*
X84887295Y-96978346D01*
X84938701Y-97040544D01*
X84962272Y-97082963D01*
X84963849Y-97113825D01*
X84949272Y-97141351D01*
X84948267Y-97142728D01*
X84927757Y-97165176D01*
X84903502Y-97170911D01*
X84867517Y-97154467D01*
X84811815Y-97110382D01*
X84728411Y-97033191D01*
X84609320Y-96917430D01*
X84587030Y-96895562D01*
X84470766Y-96783444D01*
X84369392Y-96689428D01*
X84291951Y-96621624D01*
X84247489Y-96588142D01*
X84241798Y-96586000D01*
X84186147Y-96612721D01*
X84144488Y-96674038D01*
X84135750Y-96716633D01*
X84157900Y-96757640D01*
X84218515Y-96831346D01*
X84308842Y-96927989D01*
X84420131Y-97037808D01*
X84443661Y-97060050D01*
X84567757Y-97177474D01*
X84651014Y-97260120D01*
X84699442Y-97316081D01*
X84719045Y-97353449D01*
X84715831Y-97380318D01*
X84697953Y-97402654D01*
X84678569Y-97422762D01*
X84661070Y-97434498D01*
X84638523Y-97432893D01*
X84603994Y-97412977D01*
X84550552Y-97369780D01*
X84471262Y-97298333D01*
X84359191Y-97193667D01*
X84208430Y-97051772D01*
X84100828Y-96952785D01*
X84027153Y-96892456D01*
X83976744Y-96864225D01*
X83938942Y-96861534D01*
X83914742Y-96871085D01*
X83863383Y-96920128D01*
X83850000Y-96960590D01*
X83872296Y-96999462D01*
X83932844Y-97071048D01*
X84022141Y-97166211D01*
X84130681Y-97275815D01*
X84248959Y-97390726D01*
X84367469Y-97501808D01*
X84476707Y-97599924D01*
X84567166Y-97675938D01*
X84629342Y-97720716D01*
X84649271Y-97728789D01*
X84685375Y-97706584D01*
X84754835Y-97645891D01*
X84848446Y-97555347D01*
X84957002Y-97443589D01*
X84985063Y-97413706D01*
X85092755Y-97296152D01*
X85182706Y-97193975D01*
X85246907Y-97116575D01*
X85277352Y-97073354D01*
X85278750Y-97068935D01*
X85256193Y-97031583D01*
X85195008Y-96962131D01*
X85104926Y-96869634D01*
X84995678Y-96763145D01*
X84876995Y-96651721D01*
X84758608Y-96544415D01*
X84650247Y-96450283D01*
X84561644Y-96378378D01*
X84502530Y-96337755D01*
X84486777Y-96332000D01*
X84420360Y-96357239D01*
X84420360Y-96357239D01*
G37*
X84420360Y-96357239D02*
X84392889Y-96387562D01*
X84386913Y-96416973D01*
X84402834Y-96457694D01*
X84446377Y-96517251D01*
X84523270Y-96603167D01*
X84639238Y-96722969D01*
X84677621Y-96761728D01*
X84802215Y-96888148D01*
X84887295Y-96978346D01*
X84938701Y-97040544D01*
X84962272Y-97082963D01*
X84963849Y-97113825D01*
X84949272Y-97141351D01*
X84948267Y-97142728D01*
X84927757Y-97165176D01*
X84903502Y-97170911D01*
X84867517Y-97154467D01*
X84811815Y-97110382D01*
X84728411Y-97033191D01*
X84609320Y-96917430D01*
X84587030Y-96895562D01*
X84470766Y-96783444D01*
X84369392Y-96689428D01*
X84291951Y-96621624D01*
X84247489Y-96588142D01*
X84241798Y-96586000D01*
X84186147Y-96612721D01*
X84144488Y-96674038D01*
X84135750Y-96716633D01*
X84157900Y-96757640D01*
X84218515Y-96831346D01*
X84308842Y-96927989D01*
X84420131Y-97037808D01*
X84443661Y-97060050D01*
X84567757Y-97177474D01*
X84651014Y-97260120D01*
X84699442Y-97316081D01*
X84719045Y-97353449D01*
X84715831Y-97380318D01*
X84697953Y-97402654D01*
X84678569Y-97422762D01*
X84661070Y-97434498D01*
X84638523Y-97432893D01*
X84603994Y-97412977D01*
X84550552Y-97369780D01*
X84471262Y-97298333D01*
X84359191Y-97193667D01*
X84208430Y-97051772D01*
X84100828Y-96952785D01*
X84027153Y-96892456D01*
X83976744Y-96864225D01*
X83938942Y-96861534D01*
X83914742Y-96871085D01*
X83863383Y-96920128D01*
X83850000Y-96960590D01*
X83872296Y-96999462D01*
X83932844Y-97071048D01*
X84022141Y-97166211D01*
X84130681Y-97275815D01*
X84248959Y-97390726D01*
X84367469Y-97501808D01*
X84476707Y-97599924D01*
X84567166Y-97675938D01*
X84629342Y-97720716D01*
X84649271Y-97728789D01*
X84685375Y-97706584D01*
X84754835Y-97645891D01*
X84848446Y-97555347D01*
X84957002Y-97443589D01*
X84985063Y-97413706D01*
X85092755Y-97296152D01*
X85182706Y-97193975D01*
X85246907Y-97116575D01*
X85277352Y-97073354D01*
X85278750Y-97068935D01*
X85256193Y-97031583D01*
X85195008Y-96962131D01*
X85104926Y-96869634D01*
X84995678Y-96763145D01*
X84876995Y-96651721D01*
X84758608Y-96544415D01*
X84650247Y-96450283D01*
X84561644Y-96378378D01*
X84502530Y-96337755D01*
X84486777Y-96332000D01*
X84420360Y-96357239D01*
G36*
X68033974Y-96257610D02*
X67958644Y-96314149D01*
X67858196Y-96397301D01*
X67742599Y-96497998D01*
X67621825Y-96607177D01*
X67505843Y-96715770D01*
X67404623Y-96814712D01*
X67328135Y-96894938D01*
X67286349Y-96947381D01*
X67281816Y-96957281D01*
X67293235Y-97020358D01*
X67339001Y-97075715D01*
X67385779Y-97094000D01*
X67421976Y-97073315D01*
X67494031Y-97016730D01*
X67592116Y-96932446D01*
X67706401Y-96828662D01*
X67728247Y-96808250D01*
X67843750Y-96701930D01*
X67943994Y-96613549D01*
X68019397Y-96551274D01*
X68060381Y-96523272D01*
X68063468Y-96522500D01*
X68108019Y-96544283D01*
X68130935Y-96566732D01*
X68137629Y-96592841D01*
X68118492Y-96632949D01*
X68067891Y-96693830D01*
X67980194Y-96782256D01*
X67849767Y-96905000D01*
X67849072Y-96905642D01*
X67732458Y-97016605D01*
X67635000Y-97115234D01*
X67565337Y-97192337D01*
X67532107Y-97238723D01*
X67530500Y-97244663D01*
X67551705Y-97295129D01*
X67606146Y-97371400D01*
X67680068Y-97458397D01*
X67759713Y-97541040D01*
X67831325Y-97604247D01*
X67881146Y-97632941D01*
X67885079Y-97633349D01*
X67925546Y-97612764D01*
X68002651Y-97555689D01*
X68107191Y-97469577D01*
X68229965Y-97361883D01*
X68305766Y-97292594D01*
X68466165Y-97139713D01*
X68579339Y-97021114D01*
X68648161Y-96932060D01*
X68675506Y-96867818D01*
X68664247Y-96823651D01*
X68617259Y-96794823D01*
X68609445Y-96792198D01*
X68572132Y-96792961D01*
X68518753Y-96819033D01*
X68441752Y-96875807D01*
X68333572Y-96968678D01*
X68229208Y-97063623D01*
X68077018Y-97199210D01*
X67963635Y-97289429D01*
X67890235Y-97333402D01*
X67864639Y-97336811D01*
X67830021Y-97314933D01*
X67823643Y-97281563D01*
X67849662Y-97230585D01*
X67912235Y-97155885D01*
X68015520Y-97051346D01*
X68137688Y-96935153D01*
X68459714Y-96633431D01*
X68293984Y-96435090D01*
X68210298Y-96342470D01*
X68135499Y-96272954D01*
X68082828Y-96238494D01*
X68074216Y-96236750D01*
X68033974Y-96257610D01*
X68033974Y-96257610D01*
G37*
X68033974Y-96257610D02*
X67958644Y-96314149D01*
X67858196Y-96397301D01*
X67742599Y-96497998D01*
X67621825Y-96607177D01*
X67505843Y-96715770D01*
X67404623Y-96814712D01*
X67328135Y-96894938D01*
X67286349Y-96947381D01*
X67281816Y-96957281D01*
X67293235Y-97020358D01*
X67339001Y-97075715D01*
X67385779Y-97094000D01*
X67421976Y-97073315D01*
X67494031Y-97016730D01*
X67592116Y-96932446D01*
X67706401Y-96828662D01*
X67728247Y-96808250D01*
X67843750Y-96701930D01*
X67943994Y-96613549D01*
X68019397Y-96551274D01*
X68060381Y-96523272D01*
X68063468Y-96522500D01*
X68108019Y-96544283D01*
X68130935Y-96566732D01*
X68137629Y-96592841D01*
X68118492Y-96632949D01*
X68067891Y-96693830D01*
X67980194Y-96782256D01*
X67849767Y-96905000D01*
X67849072Y-96905642D01*
X67732458Y-97016605D01*
X67635000Y-97115234D01*
X67565337Y-97192337D01*
X67532107Y-97238723D01*
X67530500Y-97244663D01*
X67551705Y-97295129D01*
X67606146Y-97371400D01*
X67680068Y-97458397D01*
X67759713Y-97541040D01*
X67831325Y-97604247D01*
X67881146Y-97632941D01*
X67885079Y-97633349D01*
X67925546Y-97612764D01*
X68002651Y-97555689D01*
X68107191Y-97469577D01*
X68229965Y-97361883D01*
X68305766Y-97292594D01*
X68466165Y-97139713D01*
X68579339Y-97021114D01*
X68648161Y-96932060D01*
X68675506Y-96867818D01*
X68664247Y-96823651D01*
X68617259Y-96794823D01*
X68609445Y-96792198D01*
X68572132Y-96792961D01*
X68518753Y-96819033D01*
X68441752Y-96875807D01*
X68333572Y-96968678D01*
X68229208Y-97063623D01*
X68077018Y-97199210D01*
X67963635Y-97289429D01*
X67890235Y-97333402D01*
X67864639Y-97336811D01*
X67830021Y-97314933D01*
X67823643Y-97281563D01*
X67849662Y-97230585D01*
X67912235Y-97155885D01*
X68015520Y-97051346D01*
X68137688Y-96935153D01*
X68459714Y-96633431D01*
X68293984Y-96435090D01*
X68210298Y-96342470D01*
X68135499Y-96272954D01*
X68082828Y-96238494D01*
X68074216Y-96236750D01*
X68033974Y-96257610D01*
G36*
X82351625Y-94833912D02*
X82291642Y-94903586D01*
X82216899Y-95004923D01*
X82135119Y-95125828D01*
X82054023Y-95254201D01*
X81981332Y-95377948D01*
X81924767Y-95484970D01*
X81892051Y-95563171D01*
X81887421Y-95594020D01*
X81925273Y-95641028D01*
X81982098Y-95659145D01*
X82035200Y-95656764D01*
X82079154Y-95626879D01*
X82128264Y-95557119D01*
X82156451Y-95508365D01*
X82208796Y-95421884D01*
X82251304Y-95363583D01*
X82270438Y-95347782D01*
X82281181Y-95377086D01*
X82289405Y-95455331D01*
X82293830Y-95567971D01*
X82294250Y-95618621D01*
X82297236Y-95761823D01*
X82307182Y-95851420D01*
X82325573Y-95897071D01*
X82338497Y-95906471D01*
X82386048Y-95900913D01*
X82472773Y-95871015D01*
X82582055Y-95822759D01*
X82611626Y-95808187D01*
X82719131Y-95756163D01*
X82802850Y-95719623D01*
X82848606Y-95704622D01*
X82852771Y-95705186D01*
X82843995Y-95736260D01*
X82808524Y-95803668D01*
X82770142Y-95867077D01*
X82706701Y-95975252D01*
X82679956Y-96048198D01*
X82686874Y-96100224D01*
X82713350Y-96135150D01*
X82775877Y-96170582D01*
X82838081Y-96146352D01*
X82889588Y-96085937D01*
X82998553Y-95922073D01*
X83097903Y-95763235D01*
X83182275Y-95618959D01*
X83246308Y-95498777D01*
X83284639Y-95412223D01*
X83292374Y-95369859D01*
X83263614Y-95325013D01*
X83216452Y-95307943D01*
X83142589Y-95320297D01*
X83033722Y-95363721D01*
X82881550Y-95439864D01*
X82846842Y-95458281D01*
X82716713Y-95526984D01*
X82607736Y-95583041D01*
X82531643Y-95620516D01*
X82500442Y-95633500D01*
X82495014Y-95603913D01*
X82493959Y-95523488D01*
X82497157Y-95404727D01*
X82503938Y-95269242D01*
X82511979Y-95086251D01*
X82509190Y-94957469D01*
X82493406Y-94874199D01*
X82462462Y-94827745D01*
X82414195Y-94809409D01*
X82389128Y-94808000D01*
X82351625Y-94833912D01*
X82351625Y-94833912D01*
G37*
X82351625Y-94833912D02*
X82291642Y-94903586D01*
X82216899Y-95004923D01*
X82135119Y-95125828D01*
X82054023Y-95254201D01*
X81981332Y-95377948D01*
X81924767Y-95484970D01*
X81892051Y-95563171D01*
X81887421Y-95594020D01*
X81925273Y-95641028D01*
X81982098Y-95659145D01*
X82035200Y-95656764D01*
X82079154Y-95626879D01*
X82128264Y-95557119D01*
X82156451Y-95508365D01*
X82208796Y-95421884D01*
X82251304Y-95363583D01*
X82270438Y-95347782D01*
X82281181Y-95377086D01*
X82289405Y-95455331D01*
X82293830Y-95567971D01*
X82294250Y-95618621D01*
X82297236Y-95761823D01*
X82307182Y-95851420D01*
X82325573Y-95897071D01*
X82338497Y-95906471D01*
X82386048Y-95900913D01*
X82472773Y-95871015D01*
X82582055Y-95822759D01*
X82611626Y-95808187D01*
X82719131Y-95756163D01*
X82802850Y-95719623D01*
X82848606Y-95704622D01*
X82852771Y-95705186D01*
X82843995Y-95736260D01*
X82808524Y-95803668D01*
X82770142Y-95867077D01*
X82706701Y-95975252D01*
X82679956Y-96048198D01*
X82686874Y-96100224D01*
X82713350Y-96135150D01*
X82775877Y-96170582D01*
X82838081Y-96146352D01*
X82889588Y-96085937D01*
X82998553Y-95922073D01*
X83097903Y-95763235D01*
X83182275Y-95618959D01*
X83246308Y-95498777D01*
X83284639Y-95412223D01*
X83292374Y-95369859D01*
X83263614Y-95325013D01*
X83216452Y-95307943D01*
X83142589Y-95320297D01*
X83033722Y-95363721D01*
X82881550Y-95439864D01*
X82846842Y-95458281D01*
X82716713Y-95526984D01*
X82607736Y-95583041D01*
X82531643Y-95620516D01*
X82500442Y-95633500D01*
X82495014Y-95603913D01*
X82493959Y-95523488D01*
X82497157Y-95404727D01*
X82503938Y-95269242D01*
X82511979Y-95086251D01*
X82509190Y-94957469D01*
X82493406Y-94874199D01*
X82462462Y-94827745D01*
X82414195Y-94809409D01*
X82389128Y-94808000D01*
X82351625Y-94833912D01*
G36*
X70107825Y-94784560D02*
X70050790Y-94851677D01*
X69989407Y-94979116D01*
X69959576Y-95057300D01*
X69864125Y-95321682D01*
X69641875Y-95301374D01*
X69523257Y-95289176D01*
X69425740Y-95276703D01*
X69370397Y-95266651D01*
X69370335Y-95266633D01*
X69298123Y-95271976D01*
X69241933Y-95317732D01*
X69222680Y-95384149D01*
X69226372Y-95402575D01*
X69245613Y-95441101D01*
X69282303Y-95468972D01*
X69347767Y-95489690D01*
X69453325Y-95506757D01*
X69610301Y-95523675D01*
X69621285Y-95524731D01*
X69854694Y-95547089D01*
X69963573Y-95717294D01*
X70050832Y-95831474D01*
X70127588Y-95885710D01*
X70192378Y-95879111D01*
X70208084Y-95866333D01*
X70228817Y-95802506D01*
X70204387Y-95704666D01*
X70149875Y-95601750D01*
X70102129Y-95516782D01*
X70073835Y-95448398D01*
X70070500Y-95429921D01*
X70081001Y-95380256D01*
X70108950Y-95288405D01*
X70149019Y-95171455D01*
X70163732Y-95130974D01*
X70209146Y-95001426D01*
X70231675Y-94916338D01*
X70233716Y-94861920D01*
X70217671Y-94824385D01*
X70217196Y-94823730D01*
X70162599Y-94775875D01*
X70107825Y-94784560D01*
X70107825Y-94784560D01*
G37*
X70107825Y-94784560D02*
X70050790Y-94851677D01*
X69989407Y-94979116D01*
X69959576Y-95057300D01*
X69864125Y-95321682D01*
X69641875Y-95301374D01*
X69523257Y-95289176D01*
X69425740Y-95276703D01*
X69370397Y-95266651D01*
X69370335Y-95266633D01*
X69298123Y-95271976D01*
X69241933Y-95317732D01*
X69222680Y-95384149D01*
X69226372Y-95402575D01*
X69245613Y-95441101D01*
X69282303Y-95468972D01*
X69347767Y-95489690D01*
X69453325Y-95506757D01*
X69610301Y-95523675D01*
X69621285Y-95524731D01*
X69854694Y-95547089D01*
X69963573Y-95717294D01*
X70050832Y-95831474D01*
X70127588Y-95885710D01*
X70192378Y-95879111D01*
X70208084Y-95866333D01*
X70228817Y-95802506D01*
X70204387Y-95704666D01*
X70149875Y-95601750D01*
X70102129Y-95516782D01*
X70073835Y-95448398D01*
X70070500Y-95429921D01*
X70081001Y-95380256D01*
X70108950Y-95288405D01*
X70149019Y-95171455D01*
X70163732Y-95130974D01*
X70209146Y-95001426D01*
X70231675Y-94916338D01*
X70233716Y-94861920D01*
X70217671Y-94824385D01*
X70217196Y-94823730D01*
X70162599Y-94775875D01*
X70107825Y-94784560D01*
G36*
X80767871Y-94070006D02*
X80753023Y-94078872D01*
X80711249Y-94126644D01*
X80708299Y-94173873D01*
X80748776Y-94224947D01*
X80837281Y-94284252D01*
X80978418Y-94356179D01*
X81103625Y-94413133D01*
X81288854Y-94499574D01*
X81415251Y-94569611D01*
X81484869Y-94624889D01*
X81499757Y-94667056D01*
X81461965Y-94697756D01*
X81459385Y-94698770D01*
X81414318Y-94693098D01*
X81324363Y-94664917D01*
X81202123Y-94618684D01*
X81060197Y-94558861D01*
X81045009Y-94552126D01*
X80867454Y-94476133D01*
X80739167Y-94429897D01*
X80653624Y-94412853D01*
X80604299Y-94424436D01*
X80584668Y-94464081D01*
X80585562Y-94512380D01*
X80595268Y-94550148D01*
X80620928Y-94584344D01*
X80672004Y-94621106D01*
X80757956Y-94666575D01*
X80888246Y-94726890D01*
X80976625Y-94766144D01*
X81140498Y-94840565D01*
X81251465Y-94897589D01*
X81315936Y-94942486D01*
X81340322Y-94980526D01*
X81331034Y-95016978D01*
X81311135Y-95041135D01*
X81273859Y-95039149D01*
X81190900Y-95014416D01*
X81074123Y-94971027D01*
X80935395Y-94913073D01*
X80919785Y-94906197D01*
X80776689Y-94844438D01*
X80651984Y-94793560D01*
X80558491Y-94758593D01*
X80509037Y-94744567D01*
X80507520Y-94744500D01*
X80445660Y-94769060D01*
X80402819Y-94824922D01*
X80398851Y-94882473D01*
X80430088Y-94905050D01*
X80507735Y-94947630D01*
X80620056Y-95004691D01*
X80755314Y-95070716D01*
X80901774Y-95140186D01*
X81047698Y-95207580D01*
X81181352Y-95267379D01*
X81290999Y-95314066D01*
X81364903Y-95342120D01*
X81388236Y-95347750D01*
X81414744Y-95324145D01*
X81449130Y-95276312D01*
X81479525Y-95219280D01*
X81527720Y-95118518D01*
X81586822Y-94988798D01*
X81643478Y-94859875D01*
X81707314Y-94708502D01*
X81746674Y-94604152D01*
X81764391Y-94536520D01*
X81763297Y-94495301D01*
X81749679Y-94473324D01*
X81706703Y-94446673D01*
X81616506Y-94400654D01*
X81490335Y-94340684D01*
X81339433Y-94272180D01*
X81254617Y-94234850D01*
X81078086Y-94159125D01*
X80950100Y-94107563D01*
X80861704Y-94077379D01*
X80803946Y-94065788D01*
X80767871Y-94070006D01*
X80767871Y-94070006D01*
G37*
X80767871Y-94070006D02*
X80753023Y-94078872D01*
X80711249Y-94126644D01*
X80708299Y-94173873D01*
X80748776Y-94224947D01*
X80837281Y-94284252D01*
X80978418Y-94356179D01*
X81103625Y-94413133D01*
X81288854Y-94499574D01*
X81415251Y-94569611D01*
X81484869Y-94624889D01*
X81499757Y-94667056D01*
X81461965Y-94697756D01*
X81459385Y-94698770D01*
X81414318Y-94693098D01*
X81324363Y-94664917D01*
X81202123Y-94618684D01*
X81060197Y-94558861D01*
X81045009Y-94552126D01*
X80867454Y-94476133D01*
X80739167Y-94429897D01*
X80653624Y-94412853D01*
X80604299Y-94424436D01*
X80584668Y-94464081D01*
X80585562Y-94512380D01*
X80595268Y-94550148D01*
X80620928Y-94584344D01*
X80672004Y-94621106D01*
X80757956Y-94666575D01*
X80888246Y-94726890D01*
X80976625Y-94766144D01*
X81140498Y-94840565D01*
X81251465Y-94897589D01*
X81315936Y-94942486D01*
X81340322Y-94980526D01*
X81331034Y-95016978D01*
X81311135Y-95041135D01*
X81273859Y-95039149D01*
X81190900Y-95014416D01*
X81074123Y-94971027D01*
X80935395Y-94913073D01*
X80919785Y-94906197D01*
X80776689Y-94844438D01*
X80651984Y-94793560D01*
X80558491Y-94758593D01*
X80509037Y-94744567D01*
X80507520Y-94744500D01*
X80445660Y-94769060D01*
X80402819Y-94824922D01*
X80398851Y-94882473D01*
X80430088Y-94905050D01*
X80507735Y-94947630D01*
X80620056Y-95004691D01*
X80755314Y-95070716D01*
X80901774Y-95140186D01*
X81047698Y-95207580D01*
X81181352Y-95267379D01*
X81290999Y-95314066D01*
X81364903Y-95342120D01*
X81388236Y-95347750D01*
X81414744Y-95324145D01*
X81449130Y-95276312D01*
X81479525Y-95219280D01*
X81527720Y-95118518D01*
X81586822Y-94988798D01*
X81643478Y-94859875D01*
X81707314Y-94708502D01*
X81746674Y-94604152D01*
X81764391Y-94536520D01*
X81763297Y-94495301D01*
X81749679Y-94473324D01*
X81706703Y-94446673D01*
X81616506Y-94400654D01*
X81490335Y-94340684D01*
X81339433Y-94272180D01*
X81254617Y-94234850D01*
X81078086Y-94159125D01*
X80950100Y-94107563D01*
X80861704Y-94077379D01*
X80803946Y-94065788D01*
X80767871Y-94070006D01*
G36*
X71639211Y-94062075D02*
X71550687Y-94093026D01*
X71429605Y-94140405D01*
X71288387Y-94198847D01*
X71139450Y-94262982D01*
X70995215Y-94327446D01*
X70868102Y-94386870D01*
X70770531Y-94435887D01*
X70714921Y-94469130D01*
X70710102Y-94473243D01*
X70690821Y-94505009D01*
X70693054Y-94553173D01*
X70719526Y-94632486D01*
X70755149Y-94717220D01*
X70816072Y-94852654D01*
X70863608Y-94937022D01*
X70908833Y-94977855D01*
X70962821Y-94982685D01*
X71036649Y-94959045D01*
X71082426Y-94939780D01*
X71174634Y-94901765D01*
X71242131Y-94876976D01*
X71263679Y-94871500D01*
X71254579Y-94892405D01*
X71210140Y-94947788D01*
X71139344Y-95026648D01*
X71121493Y-95045665D01*
X71037271Y-95138237D01*
X70992144Y-95200130D01*
X70979037Y-95244260D01*
X70990871Y-95283540D01*
X70991005Y-95283790D01*
X71026508Y-95329200D01*
X71071908Y-95341235D01*
X71133354Y-95316377D01*
X71216996Y-95251109D01*
X71328984Y-95141911D01*
X71434185Y-95030250D01*
X71542708Y-94914229D01*
X71636232Y-94817226D01*
X71706290Y-94747802D01*
X71744417Y-94714516D01*
X71748142Y-94712835D01*
X71774596Y-94738240D01*
X71815986Y-94801905D01*
X71832687Y-94831898D01*
X71896854Y-94917517D01*
X71964500Y-94950768D01*
X72025791Y-94928386D01*
X72046484Y-94902872D01*
X72045524Y-94856881D01*
X72021255Y-94767723D01*
X71979377Y-94648715D01*
X71925588Y-94513178D01*
X71894312Y-94440851D01*
X71635815Y-94440851D01*
X71611160Y-94462072D01*
X71542619Y-94501832D01*
X71444472Y-94553184D01*
X71330995Y-94609184D01*
X71216465Y-94662885D01*
X71115161Y-94707342D01*
X71041358Y-94735608D01*
X71017203Y-94741797D01*
X70991834Y-94717976D01*
X70974361Y-94677803D01*
X70964927Y-94639645D01*
X70970422Y-94608743D01*
X70999668Y-94578539D01*
X71061490Y-94542471D01*
X71164711Y-94493981D01*
X71304180Y-94432603D01*
X71439455Y-94374068D01*
X71527721Y-94340528D01*
X71580464Y-94332269D01*
X71609169Y-94349575D01*
X71625323Y-94392733D01*
X71635815Y-94440851D01*
X71894312Y-94440851D01*
X71865588Y-94374430D01*
X71805077Y-94245790D01*
X71749755Y-94140576D01*
X71705321Y-94072108D01*
X71682757Y-94052920D01*
X71639211Y-94062075D01*
X71639211Y-94062075D01*
G37*
X71639211Y-94062075D02*
X71550687Y-94093026D01*
X71429605Y-94140405D01*
X71288387Y-94198847D01*
X71139450Y-94262982D01*
X70995215Y-94327446D01*
X70868102Y-94386870D01*
X70770531Y-94435887D01*
X70714921Y-94469130D01*
X70710102Y-94473243D01*
X70690821Y-94505009D01*
X70693054Y-94553173D01*
X70719526Y-94632486D01*
X70755149Y-94717220D01*
X70816072Y-94852654D01*
X70863608Y-94937022D01*
X70908833Y-94977855D01*
X70962821Y-94982685D01*
X71036649Y-94959045D01*
X71082426Y-94939780D01*
X71174634Y-94901765D01*
X71242131Y-94876976D01*
X71263679Y-94871500D01*
X71254579Y-94892405D01*
X71210140Y-94947788D01*
X71139344Y-95026648D01*
X71121493Y-95045665D01*
X71037271Y-95138237D01*
X70992144Y-95200130D01*
X70979037Y-95244260D01*
X70990871Y-95283540D01*
X70991005Y-95283790D01*
X71026508Y-95329200D01*
X71071908Y-95341235D01*
X71133354Y-95316377D01*
X71216996Y-95251109D01*
X71328984Y-95141911D01*
X71434185Y-95030250D01*
X71542708Y-94914229D01*
X71636232Y-94817226D01*
X71706290Y-94747802D01*
X71744417Y-94714516D01*
X71748142Y-94712835D01*
X71774596Y-94738240D01*
X71815986Y-94801905D01*
X71832687Y-94831898D01*
X71896854Y-94917517D01*
X71964500Y-94950768D01*
X72025791Y-94928386D01*
X72046484Y-94902872D01*
X72045524Y-94856881D01*
X72021255Y-94767723D01*
X71979377Y-94648715D01*
X71925588Y-94513178D01*
X71894312Y-94440851D01*
X71635815Y-94440851D01*
X71611160Y-94462072D01*
X71542619Y-94501832D01*
X71444472Y-94553184D01*
X71330995Y-94609184D01*
X71216465Y-94662885D01*
X71115161Y-94707342D01*
X71041358Y-94735608D01*
X71017203Y-94741797D01*
X70991834Y-94717976D01*
X70974361Y-94677803D01*
X70964927Y-94639645D01*
X70970422Y-94608743D01*
X70999668Y-94578539D01*
X71061490Y-94542471D01*
X71164711Y-94493981D01*
X71304180Y-94432603D01*
X71439455Y-94374068D01*
X71527721Y-94340528D01*
X71580464Y-94332269D01*
X71609169Y-94349575D01*
X71625323Y-94392733D01*
X71635815Y-94440851D01*
X71894312Y-94440851D01*
X71865588Y-94374430D01*
X71805077Y-94245790D01*
X71749755Y-94140576D01*
X71705321Y-94072108D01*
X71682757Y-94052920D01*
X71639211Y-94062075D01*
G36*
X72743726Y-93677987D02*
X72712581Y-93704687D01*
X72689933Y-93753142D01*
X72657182Y-93849376D01*
X72618091Y-93979204D01*
X72576423Y-94128436D01*
X72535943Y-94282886D01*
X72500414Y-94428367D01*
X72473599Y-94550691D01*
X72459264Y-94635671D01*
X72458278Y-94663279D01*
X72492298Y-94718346D01*
X72555553Y-94739668D01*
X72619718Y-94720312D01*
X72634250Y-94706344D01*
X72662443Y-94648998D01*
X72687441Y-94561667D01*
X72690510Y-94546371D01*
X72705540Y-94483208D01*
X72731363Y-94441971D01*
X72782767Y-94411242D01*
X72874539Y-94379603D01*
X72926961Y-94363809D01*
X73059450Y-94325646D01*
X73147927Y-94307460D01*
X73209116Y-94310692D01*
X73259739Y-94336784D01*
X73316520Y-94387178D01*
X73328124Y-94398398D01*
X73408569Y-94463191D01*
X73472496Y-94480328D01*
X73496323Y-94475633D01*
X73548836Y-94447596D01*
X73564966Y-94404588D01*
X73541924Y-94341826D01*
X73476921Y-94254529D01*
X73381921Y-94153589D01*
X73016587Y-94153589D01*
X72975324Y-94177038D01*
X72951813Y-94182342D01*
X72858600Y-94197868D01*
X72813969Y-94192356D01*
X72804431Y-94158170D01*
X72813237Y-94103877D01*
X72834966Y-94017952D01*
X72861972Y-93989510D01*
X72906903Y-94012966D01*
X72944001Y-94046117D01*
X73006323Y-94113029D01*
X73016587Y-94153589D01*
X73381921Y-94153589D01*
X73367168Y-94137914D01*
X73213354Y-93990437D01*
X73059423Y-93850451D01*
X72942180Y-93753027D01*
X72854940Y-93694352D01*
X72791017Y-93670610D01*
X72743726Y-93677987D01*
X72743726Y-93677987D01*
G37*
X72743726Y-93677987D02*
X72712581Y-93704687D01*
X72689933Y-93753142D01*
X72657182Y-93849376D01*
X72618091Y-93979204D01*
X72576423Y-94128436D01*
X72535943Y-94282886D01*
X72500414Y-94428367D01*
X72473599Y-94550691D01*
X72459264Y-94635671D01*
X72458278Y-94663279D01*
X72492298Y-94718346D01*
X72555553Y-94739668D01*
X72619718Y-94720312D01*
X72634250Y-94706344D01*
X72662443Y-94648998D01*
X72687441Y-94561667D01*
X72690510Y-94546371D01*
X72705540Y-94483208D01*
X72731363Y-94441971D01*
X72782767Y-94411242D01*
X72874539Y-94379603D01*
X72926961Y-94363809D01*
X73059450Y-94325646D01*
X73147927Y-94307460D01*
X73209116Y-94310692D01*
X73259739Y-94336784D01*
X73316520Y-94387178D01*
X73328124Y-94398398D01*
X73408569Y-94463191D01*
X73472496Y-94480328D01*
X73496323Y-94475633D01*
X73548836Y-94447596D01*
X73564966Y-94404588D01*
X73541924Y-94341826D01*
X73476921Y-94254529D01*
X73381921Y-94153589D01*
X73016587Y-94153589D01*
X72975324Y-94177038D01*
X72951813Y-94182342D01*
X72858600Y-94197868D01*
X72813969Y-94192356D01*
X72804431Y-94158170D01*
X72813237Y-94103877D01*
X72834966Y-94017952D01*
X72861972Y-93989510D01*
X72906903Y-94012966D01*
X72944001Y-94046117D01*
X73006323Y-94113029D01*
X73016587Y-94153589D01*
X73381921Y-94153589D01*
X73367168Y-94137914D01*
X73213354Y-93990437D01*
X73059423Y-93850451D01*
X72942180Y-93753027D01*
X72854940Y-93694352D01*
X72791017Y-93670610D01*
X72743726Y-93677987D01*
G36*
X79099835Y-93528337D02*
X79074843Y-93563118D01*
X79040396Y-93643507D01*
X79003071Y-93753668D01*
X78995050Y-93780593D01*
X78958446Y-93919160D01*
X78949258Y-94011168D01*
X78973496Y-94069843D01*
X79037171Y-94108410D01*
X79146294Y-94140094D01*
X79159946Y-94143396D01*
X79250694Y-94167909D01*
X79285705Y-94186337D01*
X79271880Y-94203027D01*
X79261561Y-94207454D01*
X79185992Y-94225358D01*
X79090467Y-94234622D01*
X79087500Y-94234701D01*
X78948499Y-94249667D01*
X78854864Y-94284152D01*
X78811841Y-94334050D01*
X78824675Y-94395251D01*
X78847399Y-94422755D01*
X78872735Y-94441294D01*
X78910943Y-94452022D01*
X78972697Y-94454973D01*
X79068668Y-94450183D01*
X79209527Y-94437685D01*
X79340691Y-94424355D01*
X79522830Y-94405848D01*
X79649997Y-94396031D01*
X79730386Y-94397109D01*
X79772195Y-94411284D01*
X79783617Y-94440760D01*
X79772848Y-94487740D01*
X79755141Y-94535782D01*
X79737576Y-94632089D01*
X79768144Y-94693055D01*
X79837703Y-94712750D01*
X79914578Y-94684797D01*
X79944888Y-94641312D01*
X79978731Y-94549154D01*
X80016415Y-94426158D01*
X80054605Y-94286221D01*
X80089968Y-94143242D01*
X80119169Y-94011118D01*
X80120870Y-94001845D01*
X79899245Y-94001845D01*
X79898514Y-94006205D01*
X79882650Y-94065235D01*
X79881250Y-94080346D01*
X79876070Y-94098649D01*
X79854012Y-94106088D01*
X79805300Y-94101248D01*
X79720158Y-94082716D01*
X79588810Y-94049077D01*
X79498165Y-94024920D01*
X79347741Y-93982311D01*
X79251446Y-93947418D01*
X79201309Y-93914721D01*
X79189353Y-93878698D01*
X79207605Y-93833827D01*
X79211965Y-93826764D01*
X79252805Y-93813378D01*
X79335782Y-93817717D01*
X79446268Y-93835957D01*
X79569632Y-93864276D01*
X79691242Y-93898848D01*
X79796468Y-93935849D01*
X79870679Y-93971456D01*
X79899245Y-94001845D01*
X80120870Y-94001845D01*
X80138874Y-93903747D01*
X80145750Y-93835027D01*
X80142360Y-93818159D01*
X80101345Y-93798572D01*
X80012168Y-93767522D01*
X79887626Y-93728564D01*
X79740517Y-93685258D01*
X79583638Y-93641161D01*
X79429784Y-93599830D01*
X79291754Y-93564823D01*
X79182344Y-93539698D01*
X79114351Y-93528011D01*
X79099835Y-93528337D01*
X79099835Y-93528337D01*
G37*
X79099835Y-93528337D02*
X79074843Y-93563118D01*
X79040396Y-93643507D01*
X79003071Y-93753668D01*
X78995050Y-93780593D01*
X78958446Y-93919160D01*
X78949258Y-94011168D01*
X78973496Y-94069843D01*
X79037171Y-94108410D01*
X79146294Y-94140094D01*
X79159946Y-94143396D01*
X79250694Y-94167909D01*
X79285705Y-94186337D01*
X79271880Y-94203027D01*
X79261561Y-94207454D01*
X79185992Y-94225358D01*
X79090467Y-94234622D01*
X79087500Y-94234701D01*
X78948499Y-94249667D01*
X78854864Y-94284152D01*
X78811841Y-94334050D01*
X78824675Y-94395251D01*
X78847399Y-94422755D01*
X78872735Y-94441294D01*
X78910943Y-94452022D01*
X78972697Y-94454973D01*
X79068668Y-94450183D01*
X79209527Y-94437685D01*
X79340691Y-94424355D01*
X79522830Y-94405848D01*
X79649997Y-94396031D01*
X79730386Y-94397109D01*
X79772195Y-94411284D01*
X79783617Y-94440760D01*
X79772848Y-94487740D01*
X79755141Y-94535782D01*
X79737576Y-94632089D01*
X79768144Y-94693055D01*
X79837703Y-94712750D01*
X79914578Y-94684797D01*
X79944888Y-94641312D01*
X79978731Y-94549154D01*
X80016415Y-94426158D01*
X80054605Y-94286221D01*
X80089968Y-94143242D01*
X80119169Y-94011118D01*
X80120870Y-94001845D01*
X79899245Y-94001845D01*
X79898514Y-94006205D01*
X79882650Y-94065235D01*
X79881250Y-94080346D01*
X79876070Y-94098649D01*
X79854012Y-94106088D01*
X79805300Y-94101248D01*
X79720158Y-94082716D01*
X79588810Y-94049077D01*
X79498165Y-94024920D01*
X79347741Y-93982311D01*
X79251446Y-93947418D01*
X79201309Y-93914721D01*
X79189353Y-93878698D01*
X79207605Y-93833827D01*
X79211965Y-93826764D01*
X79252805Y-93813378D01*
X79335782Y-93817717D01*
X79446268Y-93835957D01*
X79569632Y-93864276D01*
X79691242Y-93898848D01*
X79796468Y-93935849D01*
X79870679Y-93971456D01*
X79899245Y-94001845D01*
X80120870Y-94001845D01*
X80138874Y-93903747D01*
X80145750Y-93835027D01*
X80142360Y-93818159D01*
X80101345Y-93798572D01*
X80012168Y-93767522D01*
X79887626Y-93728564D01*
X79740517Y-93685258D01*
X79583638Y-93641161D01*
X79429784Y-93599830D01*
X79291754Y-93564823D01*
X79182344Y-93539698D01*
X79114351Y-93528011D01*
X79099835Y-93528337D01*
G36*
X74926287Y-93257730D02*
X74858841Y-93298164D01*
X74767069Y-93379734D01*
X74645862Y-93506102D01*
X74545891Y-93617375D01*
X74433052Y-93743500D01*
X74334406Y-93850762D01*
X74257724Y-93930944D01*
X74210776Y-93975829D01*
X74200557Y-93982500D01*
X74186424Y-93953360D01*
X74168167Y-93875548D01*
X74148924Y-93763477D01*
X74141575Y-93711688D01*
X74120457Y-93563326D01*
X74101820Y-93466999D01*
X74081257Y-93411617D01*
X74054364Y-93386091D01*
X74016735Y-93379331D01*
X74009514Y-93379250D01*
X73957927Y-93386227D01*
X73924385Y-93412964D01*
X73907705Y-93468170D01*
X73906703Y-93560553D01*
X73920196Y-93698823D01*
X73943288Y-93866518D01*
X73974755Y-94062739D01*
X74004353Y-94203070D01*
X74034622Y-94294971D01*
X74068105Y-94345898D01*
X74107344Y-94363308D01*
X74112674Y-94363500D01*
X74148959Y-94341638D01*
X74214554Y-94283711D01*
X74296685Y-94201207D01*
X74315669Y-94180937D01*
X74426361Y-94058969D01*
X74549511Y-93919583D01*
X74650946Y-93801765D01*
X74730123Y-93710330D01*
X74793723Y-93641041D01*
X74830881Y-93605602D01*
X74835159Y-93603327D01*
X74847156Y-93631592D01*
X74863767Y-93708639D01*
X74882111Y-93820198D01*
X74889426Y-93872311D01*
X74908011Y-93998919D01*
X74926166Y-94101853D01*
X74940840Y-94164448D01*
X74944704Y-94173936D01*
X74992075Y-94200875D01*
X75060814Y-94200994D01*
X75117222Y-94176801D01*
X75129044Y-94160222D01*
X75130761Y-94113743D01*
X75123712Y-94019678D01*
X75109959Y-93893013D01*
X75091564Y-93748732D01*
X75070592Y-93601820D01*
X75049105Y-93467261D01*
X75029165Y-93360040D01*
X75012838Y-93295141D01*
X75008630Y-93285624D01*
X74974514Y-93254771D01*
X74926287Y-93257730D01*
X74926287Y-93257730D01*
G37*
X74926287Y-93257730D02*
X74858841Y-93298164D01*
X74767069Y-93379734D01*
X74645862Y-93506102D01*
X74545891Y-93617375D01*
X74433052Y-93743500D01*
X74334406Y-93850762D01*
X74257724Y-93930944D01*
X74210776Y-93975829D01*
X74200557Y-93982500D01*
X74186424Y-93953360D01*
X74168167Y-93875548D01*
X74148924Y-93763477D01*
X74141575Y-93711688D01*
X74120457Y-93563326D01*
X74101820Y-93466999D01*
X74081257Y-93411617D01*
X74054364Y-93386091D01*
X74016735Y-93379331D01*
X74009514Y-93379250D01*
X73957927Y-93386227D01*
X73924385Y-93412964D01*
X73907705Y-93468170D01*
X73906703Y-93560553D01*
X73920196Y-93698823D01*
X73943288Y-93866518D01*
X73974755Y-94062739D01*
X74004353Y-94203070D01*
X74034622Y-94294971D01*
X74068105Y-94345898D01*
X74107344Y-94363308D01*
X74112674Y-94363500D01*
X74148959Y-94341638D01*
X74214554Y-94283711D01*
X74296685Y-94201207D01*
X74315669Y-94180937D01*
X74426361Y-94058969D01*
X74549511Y-93919583D01*
X74650946Y-93801765D01*
X74730123Y-93710330D01*
X74793723Y-93641041D01*
X74830881Y-93605602D01*
X74835159Y-93603327D01*
X74847156Y-93631592D01*
X74863767Y-93708639D01*
X74882111Y-93820198D01*
X74889426Y-93872311D01*
X74908011Y-93998919D01*
X74926166Y-94101853D01*
X74940840Y-94164448D01*
X74944704Y-94173936D01*
X74992075Y-94200875D01*
X75060814Y-94200994D01*
X75117222Y-94176801D01*
X75129044Y-94160222D01*
X75130761Y-94113743D01*
X75123712Y-94019678D01*
X75109959Y-93893013D01*
X75091564Y-93748732D01*
X75070592Y-93601820D01*
X75049105Y-93467261D01*
X75029165Y-93360040D01*
X75012838Y-93295141D01*
X75008630Y-93285624D01*
X74974514Y-93254771D01*
X74926287Y-93257730D01*
G36*
X77390806Y-93262990D02*
X77349815Y-93307024D01*
X77345226Y-93373901D01*
X77378780Y-93433256D01*
X77380938Y-93435042D01*
X77426288Y-93451254D01*
X77521138Y-93472339D01*
X77651937Y-93495653D01*
X77805132Y-93518548D01*
X77816658Y-93520108D01*
X77967316Y-93540968D01*
X78093132Y-93559529D01*
X78181846Y-93573902D01*
X78221199Y-93582194D01*
X78221988Y-93582654D01*
X78222060Y-93616132D01*
X78213874Y-93696462D01*
X78199118Y-93807782D01*
X78195158Y-93834850D01*
X78180939Y-93934868D01*
X78166217Y-94005072D01*
X78141069Y-94049160D01*
X78095568Y-94070833D01*
X78019789Y-94073789D01*
X77903809Y-94061727D01*
X77737701Y-94038347D01*
X77673572Y-94029253D01*
X77529516Y-94010901D01*
X77406869Y-93998747D01*
X77320376Y-93994041D01*
X77287046Y-93996506D01*
X77257433Y-94036216D01*
X77246248Y-94103842D01*
X77256258Y-94165757D01*
X77271526Y-94185027D01*
X77309523Y-94194240D01*
X77397111Y-94209769D01*
X77520918Y-94229666D01*
X77667575Y-94251984D01*
X77823711Y-94274775D01*
X77975957Y-94296090D01*
X78110943Y-94313983D01*
X78215298Y-94326504D01*
X78275652Y-94331707D01*
X78278626Y-94331750D01*
X78330415Y-94309653D01*
X78341890Y-94292062D01*
X78354951Y-94236167D01*
X78372854Y-94134003D01*
X78393234Y-94002388D01*
X78413726Y-93858143D01*
X78431963Y-93718088D01*
X78445580Y-93599043D01*
X78452211Y-93517827D01*
X78452500Y-93505673D01*
X78436603Y-93425265D01*
X78381649Y-93383037D01*
X78381063Y-93382818D01*
X78315363Y-93366212D01*
X78205603Y-93346560D01*
X78065889Y-93325571D01*
X77910325Y-93304950D01*
X77753017Y-93286406D01*
X77608069Y-93271643D01*
X77489586Y-93262370D01*
X77411673Y-93260294D01*
X77390806Y-93262990D01*
X77390806Y-93262990D01*
G37*
X77390806Y-93262990D02*
X77349815Y-93307024D01*
X77345226Y-93373901D01*
X77378780Y-93433256D01*
X77380938Y-93435042D01*
X77426288Y-93451254D01*
X77521138Y-93472339D01*
X77651937Y-93495653D01*
X77805132Y-93518548D01*
X77816658Y-93520108D01*
X77967316Y-93540968D01*
X78093132Y-93559529D01*
X78181846Y-93573902D01*
X78221199Y-93582194D01*
X78221988Y-93582654D01*
X78222060Y-93616132D01*
X78213874Y-93696462D01*
X78199118Y-93807782D01*
X78195158Y-93834850D01*
X78180939Y-93934868D01*
X78166217Y-94005072D01*
X78141069Y-94049160D01*
X78095568Y-94070833D01*
X78019789Y-94073789D01*
X77903809Y-94061727D01*
X77737701Y-94038347D01*
X77673572Y-94029253D01*
X77529516Y-94010901D01*
X77406869Y-93998747D01*
X77320376Y-93994041D01*
X77287046Y-93996506D01*
X77257433Y-94036216D01*
X77246248Y-94103842D01*
X77256258Y-94165757D01*
X77271526Y-94185027D01*
X77309523Y-94194240D01*
X77397111Y-94209769D01*
X77520918Y-94229666D01*
X77667575Y-94251984D01*
X77823711Y-94274775D01*
X77975957Y-94296090D01*
X78110943Y-94313983D01*
X78215298Y-94326504D01*
X78275652Y-94331707D01*
X78278626Y-94331750D01*
X78330415Y-94309653D01*
X78341890Y-94292062D01*
X78354951Y-94236167D01*
X78372854Y-94134003D01*
X78393234Y-94002388D01*
X78413726Y-93858143D01*
X78431963Y-93718088D01*
X78445580Y-93599043D01*
X78452211Y-93517827D01*
X78452500Y-93505673D01*
X78436603Y-93425265D01*
X78381649Y-93383037D01*
X78381063Y-93382818D01*
X78315363Y-93366212D01*
X78205603Y-93346560D01*
X78065889Y-93325571D01*
X77910325Y-93304950D01*
X77753017Y-93286406D01*
X77608069Y-93271643D01*
X77489586Y-93262370D01*
X77411673Y-93260294D01*
X77390806Y-93262990D01*
G36*
X75991870Y-93189748D02*
X75853903Y-93193356D01*
X75760120Y-93200493D01*
X75700873Y-93212080D01*
X75666514Y-93229036D01*
X75656292Y-93239036D01*
X75631716Y-93300157D01*
X75647872Y-93342223D01*
X75670820Y-93364164D01*
X75714319Y-93379866D01*
X75788546Y-93390676D01*
X75903678Y-93397940D01*
X76069890Y-93403005D01*
X76114344Y-93403958D01*
X76547500Y-93412791D01*
X76547500Y-93569750D01*
X76119993Y-93569750D01*
X75945259Y-93570620D01*
X75823497Y-93574094D01*
X75744191Y-93581468D01*
X75696827Y-93594037D01*
X75670890Y-93613096D01*
X75662310Y-93626132D01*
X75651102Y-93707461D01*
X75662770Y-93737257D01*
X75682618Y-93759659D01*
X75719677Y-93775068D01*
X75784403Y-93784737D01*
X75887251Y-93789914D01*
X76038677Y-93791851D01*
X76120453Y-93792000D01*
X76547500Y-93792000D01*
X76547500Y-93960427D01*
X76149582Y-93939154D01*
X75951082Y-93931393D01*
X75807693Y-93933625D01*
X75711585Y-93947450D01*
X75654925Y-93974469D01*
X75629884Y-94016282D01*
X75626750Y-94046000D01*
X75652299Y-94109328D01*
X75688163Y-94140132D01*
X75738127Y-94150269D01*
X75837475Y-94158552D01*
X75972115Y-94164819D01*
X76127954Y-94168912D01*
X76290899Y-94170670D01*
X76446857Y-94169933D01*
X76581737Y-94166541D01*
X76681444Y-94160334D01*
X76730063Y-94151972D01*
X76747001Y-94125784D01*
X76758840Y-94058733D01*
X76766130Y-93944272D01*
X76769424Y-93775857D01*
X76769750Y-93681626D01*
X76768803Y-93499324D01*
X76765284Y-93370916D01*
X76758175Y-93286813D01*
X76746461Y-93237428D01*
X76729124Y-93213173D01*
X76719529Y-93208021D01*
X76671401Y-93201303D01*
X76572193Y-93195604D01*
X76434323Y-93191372D01*
X76270208Y-93189052D01*
X76183666Y-93188750D01*
X75991870Y-93189748D01*
X75991870Y-93189748D01*
G37*
X75991870Y-93189748D02*
X75853903Y-93193356D01*
X75760120Y-93200493D01*
X75700873Y-93212080D01*
X75666514Y-93229036D01*
X75656292Y-93239036D01*
X75631716Y-93300157D01*
X75647872Y-93342223D01*
X75670820Y-93364164D01*
X75714319Y-93379866D01*
X75788546Y-93390676D01*
X75903678Y-93397940D01*
X76069890Y-93403005D01*
X76114344Y-93403958D01*
X76547500Y-93412791D01*
X76547500Y-93569750D01*
X76119993Y-93569750D01*
X75945259Y-93570620D01*
X75823497Y-93574094D01*
X75744191Y-93581468D01*
X75696827Y-93594037D01*
X75670890Y-93613096D01*
X75662310Y-93626132D01*
X75651102Y-93707461D01*
X75662770Y-93737257D01*
X75682618Y-93759659D01*
X75719677Y-93775068D01*
X75784403Y-93784737D01*
X75887251Y-93789914D01*
X76038677Y-93791851D01*
X76120453Y-93792000D01*
X76547500Y-93792000D01*
X76547500Y-93960427D01*
X76149582Y-93939154D01*
X75951082Y-93931393D01*
X75807693Y-93933625D01*
X75711585Y-93947450D01*
X75654925Y-93974469D01*
X75629884Y-94016282D01*
X75626750Y-94046000D01*
X75652299Y-94109328D01*
X75688163Y-94140132D01*
X75738127Y-94150269D01*
X75837475Y-94158552D01*
X75972115Y-94164819D01*
X76127954Y-94168912D01*
X76290899Y-94170670D01*
X76446857Y-94169933D01*
X76581737Y-94166541D01*
X76681444Y-94160334D01*
X76730063Y-94151972D01*
X76747001Y-94125784D01*
X76758840Y-94058733D01*
X76766130Y-93944272D01*
X76769424Y-93775857D01*
X76769750Y-93681626D01*
X76768803Y-93499324D01*
X76765284Y-93370916D01*
X76758175Y-93286813D01*
X76746461Y-93237428D01*
X76729124Y-93213173D01*
X76719529Y-93208021D01*
X76671401Y-93201303D01*
X76572193Y-93195604D01*
X76434323Y-93191372D01*
X76270208Y-93189052D01*
X76183666Y-93188750D01*
X75991870Y-93189748D01*
D12*
X103780000Y-68240000D03*
X48080000Y-68240000D03*
D13*
X59080000Y-46570000D03*
D14*
X88920000Y-55410000D03*
D15*
X91460000Y-55410000D03*
X94000000Y-55410000D03*
X96540000Y-55410000D03*
X99080000Y-55410000D03*
D16*
X94070000Y-123250000D03*
X87270000Y-123250000D03*
D17*
X93170000Y-120450000D03*
X90670000Y-120450000D03*
X88170000Y-120450000D03*
D10*
G36*
X69355199Y-87324908D02*
X70345092Y-86145199D01*
X71524801Y-87135092D01*
X70534908Y-88314801D01*
X69355199Y-87324908D01*
X69355199Y-87324908D01*
G37*
D18*
X73350969Y-89672593D03*
D12*
X48060000Y-84950000D03*
X103760000Y-84950000D03*
D13*
X93300000Y-105840000D03*
X42105000Y-76245000D03*
X110420000Y-76210000D03*
X59070000Y-105830000D03*
X93310000Y-46570000D03*
D19*
X97900000Y-75770000D03*
D20*
X100440000Y-75770000D03*
X97900000Y-78310000D03*
X100440000Y-78310000D03*
D21*
X62790000Y-123700000D03*
X62140000Y-123700000D03*
X61490000Y-123700000D03*
X60840000Y-123700000D03*
X60190000Y-123700000D03*
D22*
X58990000Y-126400000D03*
X63990000Y-126400000D03*
D23*
X58490000Y-123700000D03*
X64490000Y-123700000D03*
M02*
