G04 #@! TF.FileFunction,Soldermask,Top*
%FSLAX46Y46*%
G04 Gerber Fmt 4.6, Leading zero omitted, Abs format (unit mm)*
G04 Created by KiCad (PCBNEW 4.0.2+dfsg1-stable) date Mon 15 Oct 2018 12:16:37 AM EDT*
%MOMM*%
G01*
G04 APERTURE LIST*
%ADD10C,0.100000*%
%ADD11C,1.764000*%
%ADD12O,3.240000X1.240000*%
%ADD13O,1.240000X3.240000*%
%ADD14C,6.740000*%
%ADD15R,1.240000X1.490000*%
%ADD16R,0.940000X1.540000*%
%ADD17R,1.540000X0.940000*%
%ADD18C,1.440000*%
%ADD19R,1.300000X0.890000*%
%ADD20R,3.897600X2.272000*%
%ADD21R,1.256000X2.272000*%
%ADD22C,1.540000*%
%ADD23R,1.490000X1.240000*%
%ADD24R,4.710400X4.710400*%
%ADD25R,0.690000X1.240000*%
%ADD26R,0.840000X1.240000*%
%ADD27R,0.590000X1.240000*%
%ADD28R,0.740000X1.240000*%
%ADD29R,1.840000X1.240000*%
%ADD30R,1.940000X1.240000*%
%ADD31R,1.967200X1.967200*%
%ADD32O,1.967200X1.967200*%
G04 APERTURE END LIST*
D10*
D11*
X103780000Y-68240000D03*
X48080000Y-68240000D03*
D12*
X68250000Y-59210000D03*
X68250000Y-61210000D03*
X68250000Y-63210000D03*
X68250000Y-65210000D03*
X68250000Y-67210000D03*
X68250000Y-69210000D03*
X68250000Y-71210000D03*
X68250000Y-73210000D03*
D13*
X71250000Y-74210000D03*
X73250000Y-74210000D03*
X75250000Y-74210000D03*
X77250000Y-74210000D03*
X79250000Y-74210000D03*
X81250000Y-74210000D03*
D12*
X84250000Y-73210000D03*
X84250000Y-71210000D03*
X84250000Y-69210000D03*
X84250000Y-67210000D03*
X84250000Y-65210000D03*
X84250000Y-63210000D03*
X84250000Y-61210000D03*
X84250000Y-59210000D03*
D14*
X59080000Y-46570000D03*
D10*
G36*
X92744539Y-83665189D02*
X93489539Y-82374811D01*
X94563411Y-82994811D01*
X93818411Y-84285189D01*
X92744539Y-83665189D01*
X92744539Y-83665189D01*
G37*
G36*
X94476589Y-84665189D02*
X95221589Y-83374811D01*
X96295461Y-83994811D01*
X95550461Y-85285189D01*
X94476589Y-84665189D01*
X94476589Y-84665189D01*
G37*
G36*
X67235999Y-86237107D02*
X65835857Y-85727497D01*
X66259961Y-84562279D01*
X67660103Y-85071889D01*
X67235999Y-86237107D01*
X67235999Y-86237107D01*
G37*
G36*
X67920039Y-84357721D02*
X66519897Y-83848111D01*
X66944001Y-82682893D01*
X68344143Y-83192503D01*
X67920039Y-84357721D01*
X67920039Y-84357721D01*
G37*
D15*
X59570000Y-76550000D03*
X57570000Y-76550000D03*
D10*
G36*
X88504849Y-79143731D02*
X87621542Y-80405225D01*
X86851539Y-79866063D01*
X87734846Y-78604569D01*
X88504849Y-79143731D01*
X88504849Y-79143731D01*
G37*
G36*
X86948461Y-78053937D02*
X86065154Y-79315431D01*
X85295151Y-78776269D01*
X86178458Y-77514775D01*
X86948461Y-78053937D01*
X86948461Y-78053937D01*
G37*
G36*
X90976691Y-85408294D02*
X92510831Y-85542513D01*
X92428905Y-86478936D01*
X90894765Y-86344717D01*
X90976691Y-85408294D01*
X90976691Y-85408294D01*
G37*
G36*
X90811095Y-87301064D02*
X92345235Y-87435283D01*
X92263309Y-88371706D01*
X90729169Y-88237487D01*
X90811095Y-87301064D01*
X90811095Y-87301064D01*
G37*
D16*
X62872000Y-85008000D03*
X64772000Y-85008000D03*
X60940000Y-88320000D03*
X62840000Y-88320000D03*
X58300000Y-85516000D03*
X60200000Y-85516000D03*
X63888000Y-81706000D03*
X65788000Y-81706000D03*
D17*
X61790000Y-77962000D03*
X61790000Y-79862000D03*
X56202000Y-83926000D03*
X56202000Y-82026000D03*
D10*
G36*
X93254405Y-93802615D02*
X93874405Y-94876487D01*
X90981881Y-96546487D01*
X90361881Y-95472615D01*
X93254405Y-93802615D01*
X93254405Y-93802615D01*
G37*
G36*
X91254405Y-90338513D02*
X91874405Y-91412385D01*
X88981881Y-93082385D01*
X88361881Y-92008513D01*
X91254405Y-90338513D01*
X91254405Y-90338513D01*
G37*
G36*
X83538119Y-94793513D02*
X84158119Y-95867385D01*
X81265595Y-97537385D01*
X80645595Y-96463513D01*
X83538119Y-94793513D01*
X83538119Y-94793513D01*
G37*
G36*
X85538119Y-98257615D02*
X86158119Y-99331487D01*
X83265595Y-101001487D01*
X82645595Y-99927615D01*
X85538119Y-98257615D01*
X85538119Y-98257615D01*
G37*
G36*
X69214405Y-99927615D02*
X68594405Y-101001487D01*
X65701881Y-99331487D01*
X66321881Y-98257615D01*
X69214405Y-99927615D01*
X69214405Y-99927615D01*
G37*
G36*
X71214405Y-96463513D02*
X70594405Y-97537385D01*
X67701881Y-95867385D01*
X68321881Y-94793513D01*
X71214405Y-96463513D01*
X71214405Y-96463513D01*
G37*
G36*
X63498119Y-92008513D02*
X62878119Y-93082385D01*
X59985595Y-91412385D01*
X60605595Y-90338513D01*
X63498119Y-92008513D01*
X63498119Y-92008513D01*
G37*
G36*
X61498119Y-95472615D02*
X60878119Y-96546487D01*
X57985595Y-94876487D01*
X58605595Y-93802615D01*
X61498119Y-95472615D01*
X61498119Y-95472615D01*
G37*
D18*
X94070000Y-123250000D03*
X87270000Y-123250000D03*
D19*
X58150000Y-81518000D03*
X58150000Y-82468000D03*
X58150000Y-83418000D03*
X60350000Y-83418000D03*
X60350000Y-81518000D03*
D20*
X75710000Y-94067999D03*
D21*
X75710000Y-100672001D03*
X77996001Y-100672000D03*
X73423999Y-100672000D03*
D10*
G36*
X69355199Y-87324908D02*
X70345092Y-86145199D01*
X71524801Y-87135092D01*
X70534908Y-88314801D01*
X69355199Y-87324908D01*
X69355199Y-87324908D01*
G37*
D22*
X73350969Y-89672593D03*
D23*
X86870000Y-51160000D03*
X86870000Y-53160000D03*
D11*
X48060000Y-84950000D03*
X103760000Y-84950000D03*
D23*
X50250000Y-78000000D03*
X50250000Y-76000000D03*
D14*
X93300000Y-105840000D03*
X42105000Y-76245000D03*
X110420000Y-76210000D03*
X59070000Y-105830000D03*
X93310000Y-46570000D03*
D24*
X76210000Y-62700000D03*
D10*
G36*
X83302308Y-91188719D02*
X82248719Y-92242308D01*
X81371906Y-91365495D01*
X82425495Y-90311906D01*
X83302308Y-91188719D01*
X83302308Y-91188719D01*
G37*
G36*
X81888094Y-89774505D02*
X80834505Y-90828094D01*
X79957692Y-89951281D01*
X81011281Y-88897692D01*
X81888094Y-89774505D01*
X81888094Y-89774505D01*
G37*
D17*
X94410000Y-76340000D03*
X94410000Y-78240000D03*
D10*
G36*
X47976077Y-58057039D02*
X49049949Y-58677039D01*
X48704949Y-59274597D01*
X47631077Y-58654597D01*
X47976077Y-58057039D01*
X47976077Y-58057039D01*
G37*
G36*
X47526077Y-58836461D02*
X48599949Y-59456461D01*
X48179949Y-60183923D01*
X47106077Y-59563923D01*
X47526077Y-58836461D01*
X47526077Y-58836461D01*
G37*
G36*
X47026077Y-59702488D02*
X48099949Y-60322488D01*
X47804949Y-60833442D01*
X46731077Y-60213442D01*
X47026077Y-59702488D01*
X47026077Y-59702488D01*
G37*
G36*
X46651077Y-60352007D02*
X47724949Y-60972007D01*
X47354949Y-61612865D01*
X46281077Y-60992865D01*
X46651077Y-60352007D01*
X46651077Y-60352007D01*
G37*
G36*
X46366077Y-91467039D02*
X47439949Y-90847039D01*
X47784949Y-91444597D01*
X46711077Y-92064597D01*
X46366077Y-91467039D01*
X46366077Y-91467039D01*
G37*
G36*
X46816077Y-92246461D02*
X47889949Y-91626461D01*
X48309949Y-92353923D01*
X47236077Y-92973923D01*
X46816077Y-92246461D01*
X46816077Y-92246461D01*
G37*
G36*
X47316077Y-93112488D02*
X48389949Y-92492488D01*
X48684949Y-93003442D01*
X47611077Y-93623442D01*
X47316077Y-93112488D01*
X47316077Y-93112488D01*
G37*
G36*
X47691077Y-93762007D02*
X48764949Y-93142007D01*
X49134949Y-93782865D01*
X48061077Y-94402865D01*
X47691077Y-93762007D01*
X47691077Y-93762007D01*
G37*
D25*
X74865000Y-109140000D03*
D26*
X75840000Y-109140000D03*
D27*
X76715000Y-109140000D03*
D28*
X77540000Y-109140000D03*
D10*
G36*
X104383923Y-94382961D02*
X103310051Y-93762961D01*
X103655051Y-93165403D01*
X104728923Y-93785403D01*
X104383923Y-94382961D01*
X104383923Y-94382961D01*
G37*
G36*
X104833923Y-93603539D02*
X103760051Y-92983539D01*
X104180051Y-92256077D01*
X105253923Y-92876077D01*
X104833923Y-93603539D01*
X104833923Y-93603539D01*
G37*
G36*
X105333923Y-92737512D02*
X104260051Y-92117512D01*
X104555051Y-91606558D01*
X105628923Y-92226558D01*
X105333923Y-92737512D01*
X105333923Y-92737512D01*
G37*
G36*
X105708923Y-92087993D02*
X104635051Y-91467993D01*
X105005051Y-90827135D01*
X106078923Y-91447135D01*
X105708923Y-92087993D01*
X105708923Y-92087993D01*
G37*
G36*
X106043923Y-60842961D02*
X104970051Y-61462961D01*
X104625051Y-60865403D01*
X105698923Y-60245403D01*
X106043923Y-60842961D01*
X106043923Y-60842961D01*
G37*
G36*
X105593923Y-60063539D02*
X104520051Y-60683539D01*
X104100051Y-59956077D01*
X105173923Y-59336077D01*
X105593923Y-60063539D01*
X105593923Y-60063539D01*
G37*
G36*
X105093923Y-59197512D02*
X104020051Y-59817512D01*
X103725051Y-59306558D01*
X104798923Y-58686558D01*
X105093923Y-59197512D01*
X105093923Y-59197512D01*
G37*
G36*
X104718923Y-58547993D02*
X103645051Y-59167993D01*
X103275051Y-58527135D01*
X104348923Y-57907135D01*
X104718923Y-58547993D01*
X104718923Y-58547993D01*
G37*
D25*
X77485000Y-43190000D03*
D26*
X76510000Y-43190000D03*
D27*
X75635000Y-43190000D03*
D28*
X74810000Y-43190000D03*
D15*
X59600000Y-78500000D03*
X57600000Y-78500000D03*
D10*
G36*
X64039619Y-69751437D02*
X65128563Y-70840381D01*
X64463883Y-71505061D01*
X63374939Y-70416117D01*
X64039619Y-69751437D01*
X64039619Y-69751437D01*
G37*
G36*
X62696117Y-71094939D02*
X63785061Y-72183883D01*
X63120381Y-72848563D01*
X62031437Y-71759619D01*
X62696117Y-71094939D01*
X62696117Y-71094939D01*
G37*
D16*
X97650000Y-81860000D03*
X99550000Y-81860000D03*
D29*
X79780000Y-79270000D03*
D30*
X72780000Y-79270000D03*
D31*
X97900000Y-75770000D03*
D32*
X100440000Y-75770000D03*
X97900000Y-78310000D03*
X100440000Y-78310000D03*
D10*
G36*
X69151281Y-104132308D02*
X68097692Y-103078719D01*
X68974505Y-102201906D01*
X70028094Y-103255495D01*
X69151281Y-104132308D01*
X69151281Y-104132308D01*
G37*
G36*
X70565495Y-102718094D02*
X69511906Y-101664505D01*
X70388719Y-100787692D01*
X71442308Y-101841281D01*
X70565495Y-102718094D01*
X70565495Y-102718094D01*
G37*
M02*
