G04 #@! TF.FileFunction,Copper,L1,Top,Signal*
%FSLAX46Y46*%
G04 Gerber Fmt 4.6, Leading zero omitted, Abs format (unit mm)*
G04 Created by KiCad (PCBNEW 4.0.2+dfsg1-stable) date Mon 15 Oct 2018 12:38:46 AM EDT*
%MOMM*%
G01*
G04 APERTURE LIST*
%ADD10C,0.100000*%
%ADD11C,1.524000*%
%ADD12O,3.000000X1.000000*%
%ADD13O,1.000000X3.000000*%
%ADD14C,6.500000*%
%ADD15R,1.000000X1.250000*%
%ADD16R,0.700000X1.300000*%
%ADD17R,1.300000X0.700000*%
%ADD18C,1.200000*%
%ADD19R,1.060000X0.650000*%
%ADD20R,3.657600X2.032000*%
%ADD21R,1.016000X2.032000*%
%ADD22C,1.300000*%
%ADD23R,1.250000X1.000000*%
%ADD24R,4.470400X4.470400*%
%ADD25R,0.450000X1.000000*%
%ADD26R,0.600000X1.000000*%
%ADD27R,0.350000X1.000000*%
%ADD28R,0.500000X1.000000*%
%ADD29R,1.600000X1.000000*%
%ADD30R,1.700000X1.000000*%
%ADD31R,1.727200X1.727200*%
%ADD32O,1.727200X1.727200*%
%ADD33C,0.600000*%
%ADD34C,0.381000*%
%ADD35C,0.254000*%
G04 APERTURE END LIST*
D10*
D11*
X102480000Y-68240000D03*
X50480000Y-68240000D03*
D12*
X68250000Y-59210000D03*
X68250000Y-61210000D03*
X68250000Y-63210000D03*
X68250000Y-65210000D03*
X68250000Y-67210000D03*
X68250000Y-69210000D03*
X68250000Y-71210000D03*
X68250000Y-73210000D03*
D13*
X71250000Y-74210000D03*
X73250000Y-74210000D03*
X75250000Y-74210000D03*
X77250000Y-74210000D03*
X79250000Y-74210000D03*
X81250000Y-74210000D03*
D12*
X84250000Y-73210000D03*
X84250000Y-71210000D03*
X84250000Y-69210000D03*
X84250000Y-67210000D03*
X84250000Y-65210000D03*
X84250000Y-63210000D03*
X84250000Y-61210000D03*
X84250000Y-59210000D03*
D14*
X59080000Y-46570000D03*
D10*
G36*
X92908462Y-83621266D02*
X93533462Y-82538734D01*
X94399488Y-83038734D01*
X93774488Y-84121266D01*
X92908462Y-83621266D01*
X92908462Y-83621266D01*
G37*
G36*
X94640512Y-84621266D02*
X95265512Y-83538734D01*
X96131538Y-84038734D01*
X95506538Y-85121266D01*
X94640512Y-84621266D01*
X94640512Y-84621266D01*
G37*
G36*
X67164278Y-86083302D02*
X65989662Y-85655777D01*
X66331682Y-84716084D01*
X67506298Y-85143609D01*
X67164278Y-86083302D01*
X67164278Y-86083302D01*
G37*
G36*
X67848318Y-84203916D02*
X66673702Y-83776391D01*
X67015722Y-82836698D01*
X68190338Y-83264223D01*
X67848318Y-84203916D01*
X67848318Y-84203916D01*
G37*
D15*
X59570000Y-76550000D03*
X57570000Y-76550000D03*
D10*
G36*
X88337722Y-79173200D02*
X87592073Y-80238098D01*
X87018666Y-79836594D01*
X87764315Y-78771696D01*
X88337722Y-79173200D01*
X88337722Y-79173200D01*
G37*
G36*
X86781334Y-78083406D02*
X86035685Y-79148304D01*
X85462278Y-78746800D01*
X86207927Y-77681902D01*
X86781334Y-78083406D01*
X86781334Y-78083406D01*
G37*
G36*
X91085776Y-85538296D02*
X92380829Y-85651598D01*
X92319820Y-86348934D01*
X91024767Y-86235632D01*
X91085776Y-85538296D01*
X91085776Y-85538296D01*
G37*
G36*
X90920180Y-87431066D02*
X92215233Y-87544368D01*
X92154224Y-88241704D01*
X90859171Y-88128402D01*
X90920180Y-87431066D01*
X90920180Y-87431066D01*
G37*
D16*
X62872000Y-85008000D03*
X64772000Y-85008000D03*
X60940000Y-88320000D03*
X62840000Y-88320000D03*
X58300000Y-85516000D03*
X60200000Y-85516000D03*
X63888000Y-81706000D03*
X65788000Y-81706000D03*
D17*
X61790000Y-77962000D03*
X61790000Y-79862000D03*
X56202000Y-83926000D03*
X56202000Y-82026000D03*
D10*
G36*
X93210482Y-93966538D02*
X93710482Y-94832564D01*
X91025804Y-96382564D01*
X90525804Y-95516538D01*
X93210482Y-93966538D01*
X93210482Y-93966538D01*
G37*
G36*
X91210482Y-90502436D02*
X91710482Y-91368462D01*
X89025804Y-92918462D01*
X88525804Y-92052436D01*
X91210482Y-90502436D01*
X91210482Y-90502436D01*
G37*
G36*
X83494196Y-94957436D02*
X83994196Y-95823462D01*
X81309518Y-97373462D01*
X80809518Y-96507436D01*
X83494196Y-94957436D01*
X83494196Y-94957436D01*
G37*
G36*
X85494196Y-98421538D02*
X85994196Y-99287564D01*
X83309518Y-100837564D01*
X82809518Y-99971538D01*
X85494196Y-98421538D01*
X85494196Y-98421538D01*
G37*
G36*
X69050482Y-99971538D02*
X68550482Y-100837564D01*
X65865804Y-99287564D01*
X66365804Y-98421538D01*
X69050482Y-99971538D01*
X69050482Y-99971538D01*
G37*
G36*
X71050482Y-96507436D02*
X70550482Y-97373462D01*
X67865804Y-95823462D01*
X68365804Y-94957436D01*
X71050482Y-96507436D01*
X71050482Y-96507436D01*
G37*
G36*
X63334196Y-92052436D02*
X62834196Y-92918462D01*
X60149518Y-91368462D01*
X60649518Y-90502436D01*
X63334196Y-92052436D01*
X63334196Y-92052436D01*
G37*
G36*
X61334196Y-95516538D02*
X60834196Y-96382564D01*
X58149518Y-94832564D01*
X58649518Y-93966538D01*
X61334196Y-95516538D01*
X61334196Y-95516538D01*
G37*
D18*
X94070000Y-123250000D03*
X87270000Y-123250000D03*
D19*
X58150000Y-81518000D03*
X58150000Y-82468000D03*
X58150000Y-83418000D03*
X60350000Y-83418000D03*
X60350000Y-81518000D03*
D20*
X75710000Y-94067999D03*
D21*
X75710000Y-100672001D03*
X77996001Y-100672000D03*
X73423999Y-100672000D03*
D10*
G36*
X69524259Y-87310117D02*
X70359883Y-86314259D01*
X71355741Y-87149883D01*
X70520117Y-88145741D01*
X69524259Y-87310117D01*
X69524259Y-87310117D01*
G37*
D22*
X73350969Y-89672593D03*
D23*
X86870000Y-51160000D03*
X86870000Y-53160000D03*
D11*
X50480000Y-84950000D03*
X102460000Y-84950000D03*
D23*
X50250000Y-78000000D03*
X50250000Y-76000000D03*
D14*
X93300000Y-105840000D03*
X42105000Y-76245000D03*
X110420000Y-76210000D03*
X59070000Y-105830000D03*
X93310000Y-46570000D03*
D24*
X76210000Y-62700000D03*
D10*
G36*
X83132602Y-91188719D02*
X82248719Y-92072602D01*
X81541612Y-91365495D01*
X82425495Y-90481612D01*
X83132602Y-91188719D01*
X83132602Y-91188719D01*
G37*
G36*
X81718388Y-89774505D02*
X80834505Y-90658388D01*
X80127398Y-89951281D01*
X81011281Y-89067398D01*
X81718388Y-89774505D01*
X81718388Y-89774505D01*
G37*
D17*
X94410000Y-76340000D03*
X94410000Y-78240000D03*
D10*
G36*
X48020000Y-58220962D02*
X48886026Y-58720962D01*
X48661026Y-59110674D01*
X47795000Y-58610674D01*
X48020000Y-58220962D01*
X48020000Y-58220962D01*
G37*
G36*
X47570000Y-59000384D02*
X48436026Y-59500384D01*
X48136026Y-60020000D01*
X47270000Y-59520000D01*
X47570000Y-59000384D01*
X47570000Y-59000384D01*
G37*
G36*
X47070000Y-59866411D02*
X47936026Y-60366411D01*
X47761026Y-60669519D01*
X46895000Y-60169519D01*
X47070000Y-59866411D01*
X47070000Y-59866411D01*
G37*
G36*
X46695000Y-60515930D02*
X47561026Y-61015930D01*
X47311026Y-61448942D01*
X46445000Y-60948942D01*
X46695000Y-60515930D01*
X46695000Y-60515930D01*
G37*
G36*
X46530000Y-91510962D02*
X47396026Y-91010962D01*
X47621026Y-91400674D01*
X46755000Y-91900674D01*
X46530000Y-91510962D01*
X46530000Y-91510962D01*
G37*
G36*
X46980000Y-92290384D02*
X47846026Y-91790384D01*
X48146026Y-92310000D01*
X47280000Y-92810000D01*
X46980000Y-92290384D01*
X46980000Y-92290384D01*
G37*
G36*
X47480000Y-93156411D02*
X48346026Y-92656411D01*
X48521026Y-92959519D01*
X47655000Y-93459519D01*
X47480000Y-93156411D01*
X47480000Y-93156411D01*
G37*
G36*
X47855000Y-93805930D02*
X48721026Y-93305930D01*
X48971026Y-93738942D01*
X48105000Y-94238942D01*
X47855000Y-93805930D01*
X47855000Y-93805930D01*
G37*
D25*
X74865000Y-109140000D03*
D26*
X75840000Y-109140000D03*
D27*
X76715000Y-109140000D03*
D28*
X77540000Y-109140000D03*
D10*
G36*
X104340000Y-94219038D02*
X103473974Y-93719038D01*
X103698974Y-93329326D01*
X104565000Y-93829326D01*
X104340000Y-94219038D01*
X104340000Y-94219038D01*
G37*
G36*
X104790000Y-93439616D02*
X103923974Y-92939616D01*
X104223974Y-92420000D01*
X105090000Y-92920000D01*
X104790000Y-93439616D01*
X104790000Y-93439616D01*
G37*
G36*
X105290000Y-92573589D02*
X104423974Y-92073589D01*
X104598974Y-91770481D01*
X105465000Y-92270481D01*
X105290000Y-92573589D01*
X105290000Y-92573589D01*
G37*
G36*
X105665000Y-91924070D02*
X104798974Y-91424070D01*
X105048974Y-90991058D01*
X105915000Y-91491058D01*
X105665000Y-91924070D01*
X105665000Y-91924070D01*
G37*
G36*
X105880000Y-60799038D02*
X105013974Y-61299038D01*
X104788974Y-60909326D01*
X105655000Y-60409326D01*
X105880000Y-60799038D01*
X105880000Y-60799038D01*
G37*
G36*
X105430000Y-60019616D02*
X104563974Y-60519616D01*
X104263974Y-60000000D01*
X105130000Y-59500000D01*
X105430000Y-60019616D01*
X105430000Y-60019616D01*
G37*
G36*
X104930000Y-59153589D02*
X104063974Y-59653589D01*
X103888974Y-59350481D01*
X104755000Y-58850481D01*
X104930000Y-59153589D01*
X104930000Y-59153589D01*
G37*
G36*
X104555000Y-58504070D02*
X103688974Y-59004070D01*
X103438974Y-58571058D01*
X104305000Y-58071058D01*
X104555000Y-58504070D01*
X104555000Y-58504070D01*
G37*
D25*
X77485000Y-43190000D03*
D26*
X76510000Y-43190000D03*
D27*
X75635000Y-43190000D03*
D28*
X74810000Y-43190000D03*
D15*
X59600000Y-78500000D03*
X57600000Y-78500000D03*
D10*
G36*
X64039619Y-69921142D02*
X64958858Y-70840381D01*
X64463883Y-71335356D01*
X63544644Y-70416117D01*
X64039619Y-69921142D01*
X64039619Y-69921142D01*
G37*
G36*
X62696117Y-71264644D02*
X63615356Y-72183883D01*
X63120381Y-72678858D01*
X62201142Y-71759619D01*
X62696117Y-71264644D01*
X62696117Y-71264644D01*
G37*
D16*
X97650000Y-81860000D03*
X99550000Y-81860000D03*
D29*
X79780000Y-79270000D03*
D30*
X72780000Y-79270000D03*
D31*
X97900000Y-75770000D03*
D32*
X100440000Y-75770000D03*
X97900000Y-78310000D03*
X100440000Y-78310000D03*
D10*
G36*
X69151281Y-103962602D02*
X68267398Y-103078719D01*
X68974505Y-102371612D01*
X69858388Y-103255495D01*
X69151281Y-103962602D01*
X69151281Y-103962602D01*
G37*
G36*
X70565495Y-102548388D02*
X69681612Y-101664505D01*
X70388719Y-100957398D01*
X71272602Y-101841281D01*
X70565495Y-102548388D01*
X70565495Y-102548388D01*
G37*
D33*
X71522000Y-66946000D03*
X69161237Y-75172213D03*
X65780000Y-75780000D03*
X92140000Y-76890000D03*
X54070000Y-76710000D03*
X73320000Y-44520000D03*
X76200000Y-45340000D03*
X66380000Y-63680000D03*
X92380000Y-116690000D03*
X92070000Y-117450000D03*
X92320000Y-77880000D03*
X93900000Y-70960000D03*
X50290000Y-62310000D03*
X50140000Y-79480000D03*
X49560000Y-90570000D03*
X61940000Y-63310000D03*
X80390000Y-110990000D03*
X72420000Y-112680000D03*
X67670000Y-89330000D03*
X80240000Y-68340000D03*
X62540000Y-97280000D03*
X79400000Y-90480000D03*
X74630000Y-79510000D03*
X45510000Y-61960000D03*
X40980000Y-60910000D03*
X89040000Y-54570000D03*
X62240000Y-83000000D03*
X63950000Y-74860000D03*
X81550000Y-94030000D03*
X56240000Y-80930000D03*
X51640000Y-79110000D03*
X58180000Y-74630000D03*
X60340000Y-73550000D03*
X57250000Y-82710000D03*
X96830000Y-85090000D03*
X88540000Y-49940000D03*
X88630000Y-60730000D03*
X94660000Y-97760000D03*
X98740000Y-96010000D03*
X70390000Y-59950000D03*
X70390000Y-65250000D03*
X90280000Y-87550000D03*
X86670000Y-69680000D03*
X90930000Y-74030000D03*
X94700000Y-74600000D03*
X58010000Y-84010000D03*
X61510000Y-81010000D03*
X90720000Y-59320000D03*
X78040000Y-97090000D03*
X88190000Y-84550000D03*
X78180000Y-103990000D03*
X78210000Y-104760000D03*
X75320000Y-98080000D03*
X75730000Y-95510000D03*
X107700000Y-84510000D03*
X108170000Y-83880000D03*
X66490000Y-71930000D03*
X68050000Y-97720000D03*
X95140000Y-73470000D03*
D34*
X110265000Y-82750000D02*
X110265000Y-82115000D01*
X110265000Y-82115000D02*
X110900000Y-81480000D01*
X110900000Y-81480000D02*
X111535000Y-81480000D01*
X111535000Y-81480000D02*
X111535000Y-80845000D01*
X111535000Y-80845000D02*
X112170000Y-81480000D01*
X112170000Y-81480000D02*
X111535000Y-81480000D01*
X111535000Y-81480000D02*
X111535000Y-82115000D01*
X111535000Y-82115000D02*
X110900000Y-82750000D01*
X110900000Y-82750000D02*
X110265000Y-82750000D01*
X70252000Y-63644000D02*
X68250000Y-63210000D01*
X71268000Y-64152000D02*
X70252000Y-63644000D01*
X71522000Y-66946000D02*
X71268000Y-64152000D01*
X68861238Y-74872214D02*
X69161237Y-75172213D01*
X68551084Y-74562060D02*
X68861238Y-74872214D01*
X67819818Y-74562060D02*
X68551084Y-74562060D01*
X65780000Y-75780000D02*
X67819818Y-74562060D01*
X99840000Y-62790000D02*
X93900000Y-70960000D01*
X92702479Y-77360000D02*
X92140000Y-76890000D01*
X92320000Y-77880000D02*
X92010000Y-77730000D01*
X92010000Y-77730000D02*
X92420000Y-77360000D01*
X92420000Y-77360000D02*
X92702479Y-77360000D01*
X87678194Y-79504897D02*
X92320000Y-77880000D01*
X69062893Y-103167107D02*
X68058265Y-103387390D01*
X50250000Y-78000000D02*
X54070000Y-76710000D01*
X50250000Y-78000000D02*
X50140000Y-79480000D01*
X47563013Y-92300192D02*
X49010000Y-91810000D01*
X61070000Y-98500000D02*
X68058265Y-103387390D01*
X68058265Y-103387390D02*
X69020000Y-104060000D01*
X69020000Y-104060000D02*
X72310000Y-105790000D01*
X72310000Y-105790000D02*
X74790000Y-108100000D01*
X74790000Y-108100000D02*
X75660000Y-108190000D01*
X75660000Y-108190000D02*
X75840000Y-109140000D01*
X45877241Y-58978150D02*
X47610000Y-57100000D01*
X47610000Y-57100000D02*
X50720000Y-57510000D01*
X50720000Y-57510000D02*
X53370000Y-56560000D01*
X53370000Y-56560000D02*
X61700000Y-50730000D01*
X61700000Y-50730000D02*
X66060000Y-46830000D01*
X66060000Y-46830000D02*
X73320000Y-44520000D01*
X76200000Y-45340000D02*
X76974732Y-44665693D01*
X66380000Y-63680000D02*
X68250000Y-63210000D01*
X75840000Y-109140000D02*
X75940000Y-110730000D01*
X75940000Y-110730000D02*
X78940000Y-113580000D01*
X78940000Y-113580000D02*
X89870000Y-115950000D01*
X89870000Y-115950000D02*
X92380000Y-116690000D01*
X86870000Y-51160000D02*
X90000000Y-51060000D01*
X90000000Y-51060000D02*
X100870000Y-52180000D01*
X100870000Y-52180000D02*
X104950000Y-54990000D01*
X104950000Y-54990000D02*
X106680000Y-58640000D01*
X106680000Y-58640000D02*
X104846987Y-60009808D01*
X104846987Y-60009808D02*
X99840000Y-62790000D01*
X104506987Y-92929808D02*
X100520000Y-91180000D01*
X100520000Y-91180000D02*
X95531224Y-90801903D01*
X95531224Y-90801903D02*
X95531224Y-90801904D01*
X92320000Y-77880000D02*
X92702479Y-77360000D01*
X92702479Y-77360000D02*
X93210000Y-76670000D01*
X93210000Y-76670000D02*
X94410000Y-76340000D01*
X94410000Y-76340000D02*
X97900000Y-75770000D01*
X93653975Y-83330000D02*
X97650000Y-81860000D01*
X93653975Y-83330000D02*
X93190000Y-82650000D01*
X93190000Y-82650000D02*
X92130000Y-78270000D01*
X92130000Y-78270000D02*
X92320000Y-77880000D01*
X91702798Y-85943615D02*
X93490000Y-84050000D01*
X93490000Y-84050000D02*
X93653975Y-83330000D01*
X92380000Y-116690000D02*
X92770000Y-116550000D01*
X92770000Y-116550000D02*
X94120000Y-115560000D01*
X94120000Y-115560000D02*
X97700000Y-108260000D01*
X97700000Y-108260000D02*
X97600000Y-102560000D01*
X97600000Y-102560000D02*
X95940000Y-92420000D01*
X95940000Y-92420000D02*
X93250000Y-86660000D01*
X93250000Y-86660000D02*
X91900000Y-85890000D01*
X91900000Y-85890000D02*
X91717798Y-85458615D01*
X91717798Y-85458615D02*
X93480000Y-86490000D01*
X93480000Y-86490000D02*
X95531224Y-90801904D01*
X95531224Y-90801904D02*
X96320000Y-92460000D01*
X96320000Y-92460000D02*
X97900000Y-102580000D01*
X97900000Y-102580000D02*
X98000000Y-108430000D01*
X98000000Y-108430000D02*
X94330000Y-115780000D01*
X94330000Y-115780000D02*
X92070000Y-117450000D01*
X47563013Y-92300192D02*
X46240000Y-92480000D01*
X46240000Y-92480000D02*
X44040000Y-90920000D01*
X44040000Y-90920000D02*
X40370000Y-87190000D01*
X40370000Y-87190000D02*
X37080000Y-78760000D01*
X37080000Y-78760000D02*
X37340000Y-74480000D01*
X37340000Y-74480000D02*
X40660000Y-68880000D01*
X40660000Y-68880000D02*
X43540000Y-60930000D01*
X43540000Y-60930000D02*
X45310000Y-59090000D01*
X45310000Y-59090000D02*
X45877241Y-58978150D01*
X45877241Y-58978150D02*
X46020000Y-58950000D01*
X46020000Y-58950000D02*
X47853013Y-59510192D01*
X67701035Y-74561545D02*
X67819818Y-74562060D01*
X50490000Y-61103588D02*
X47853013Y-59510192D01*
X67701035Y-74561545D02*
X68250000Y-73210000D01*
X86870000Y-51160000D02*
X86140000Y-47950000D01*
X86140000Y-47950000D02*
X84630000Y-46630000D01*
X84630000Y-46630000D02*
X77370000Y-45100000D01*
X77370000Y-45100000D02*
X76974732Y-44665693D01*
X76974732Y-44665693D02*
X76560000Y-44210000D01*
X76560000Y-44210000D02*
X76510000Y-43190000D01*
X93653975Y-83330000D02*
X92320000Y-77880000D01*
X91717798Y-85458615D02*
X93653975Y-83330000D01*
X50290000Y-62310000D02*
X50523667Y-61123931D01*
X50523667Y-61123931D02*
X50490000Y-61130000D01*
X50490000Y-61130000D02*
X50490000Y-61103588D01*
X49560000Y-90570000D02*
X49579355Y-91917270D01*
X49010000Y-91810000D02*
X49579355Y-91917270D01*
X49579355Y-91917270D02*
X52460000Y-92460000D01*
X52460000Y-92460000D02*
X61070000Y-98500000D01*
X52470000Y-62300000D02*
X61940000Y-63310000D01*
X52470000Y-62300000D02*
X50490000Y-61103588D01*
X80390000Y-110990000D02*
X80390000Y-110950000D01*
X59070000Y-105830000D02*
X72420000Y-112680000D01*
X70477107Y-101752893D02*
X73423999Y-100672000D01*
X76210000Y-62700000D02*
X80240000Y-68340000D01*
X62540000Y-97280000D02*
X62530000Y-97260000D01*
X80922893Y-89862893D02*
X79400000Y-90480000D01*
X72780000Y-79270000D02*
X74630000Y-79510000D01*
X47003013Y-60982436D02*
X45510000Y-61960000D01*
X40980000Y-60910000D02*
X40910000Y-60910000D01*
X47003013Y-60982436D02*
X45950000Y-60510000D01*
X72780000Y-79270000D02*
X70010000Y-77500000D01*
X70010000Y-77500000D02*
X68540000Y-77420000D01*
X86870000Y-53160000D02*
X89040000Y-54570000D01*
X62240000Y-83000000D02*
X63800000Y-83420000D01*
X63950000Y-74860000D02*
X63950000Y-74830000D01*
X82331857Y-95790449D02*
X81550000Y-94030000D01*
X56202000Y-82026000D02*
X56240000Y-80930000D01*
X51640000Y-79110000D02*
X50138000Y-80573000D01*
X57570000Y-76550000D02*
X58180000Y-74630000D01*
X60340000Y-73550000D02*
X61425000Y-73070000D01*
X57570000Y-76550000D02*
X56202000Y-82026000D01*
X42105000Y-76245000D02*
X50138000Y-80573000D01*
X57221530Y-82257331D02*
X57250000Y-82710000D01*
X58150000Y-82468000D02*
X57221530Y-82257331D01*
X57221530Y-82257331D02*
X56202000Y-82026000D01*
X96830000Y-85090000D02*
X95386025Y-84330000D01*
X62840000Y-88320000D02*
X63930000Y-86730000D01*
X63930000Y-86730000D02*
X64772000Y-85008000D01*
X64772000Y-85008000D02*
X66747980Y-85399693D01*
X70440000Y-87230000D02*
X69400000Y-84580000D01*
X69400000Y-84580000D02*
X67432020Y-83520307D01*
X67432020Y-83520307D02*
X65788000Y-81706000D01*
X59600000Y-78500000D02*
X59570000Y-76550000D01*
X59600000Y-78500000D02*
X60230000Y-79570000D01*
X62908249Y-71971751D02*
X61790000Y-77962000D01*
X59570000Y-76550000D02*
X61002731Y-77461269D01*
X61002731Y-77461269D02*
X61790000Y-77962000D01*
X60350000Y-81518000D02*
X60990000Y-82010000D01*
X60990000Y-82010000D02*
X63888000Y-81706000D01*
X60350000Y-81518000D02*
X60230000Y-79570000D01*
X60230000Y-79570000D02*
X61790000Y-77962000D01*
X88540000Y-49940000D02*
X86570000Y-47380000D01*
X86570000Y-47380000D02*
X85070000Y-46010000D01*
X85070000Y-46010000D02*
X78200000Y-44470000D01*
X78200000Y-44470000D02*
X77640000Y-43980000D01*
X77640000Y-43980000D02*
X77485000Y-43190000D01*
X84250000Y-61210000D02*
X87500000Y-60750000D01*
X87500000Y-60750000D02*
X88630000Y-60730000D01*
X75635000Y-43190000D02*
X75580000Y-44140000D01*
X75580000Y-44140000D02*
X74580000Y-45040000D01*
X74580000Y-45040000D02*
X66310000Y-47500000D01*
X66310000Y-47500000D02*
X62100000Y-51240000D01*
X62100000Y-51240000D02*
X53700000Y-57170000D01*
X53700000Y-57170000D02*
X49510000Y-58650000D01*
X49510000Y-58650000D02*
X48340513Y-58665818D01*
X47415513Y-60267965D02*
X45640000Y-59760000D01*
X45640000Y-59760000D02*
X44110000Y-61460000D01*
X44110000Y-61460000D02*
X41320000Y-69270000D01*
X41320000Y-69270000D02*
X37930000Y-74890000D01*
X37930000Y-74890000D02*
X37870000Y-78980000D01*
X37870000Y-78980000D02*
X40960000Y-86890000D01*
X40960000Y-86890000D02*
X42550000Y-88510000D01*
X42550000Y-88510000D02*
X45610000Y-91140000D01*
X45610000Y-91140000D02*
X47075513Y-91455818D01*
X74865000Y-109140000D02*
X71870000Y-106280000D01*
X71870000Y-106280000D02*
X68610000Y-104580000D01*
X68610000Y-104580000D02*
X52060000Y-93060000D01*
X52060000Y-93060000D02*
X49010000Y-92570000D01*
X49010000Y-92570000D02*
X48000513Y-93057965D01*
X76715000Y-109140000D02*
X76980000Y-108220000D01*
X76980000Y-108220000D02*
X79340000Y-107030000D01*
X79340000Y-107030000D02*
X92830000Y-98250000D01*
X92830000Y-98250000D02*
X94660000Y-97760000D01*
X98740000Y-96010000D02*
X104019487Y-93774182D01*
X104944487Y-92172035D02*
X106480000Y-92560000D01*
X106480000Y-92560000D02*
X113570000Y-83130000D01*
X113570000Y-83130000D02*
X114480000Y-75730000D01*
X114480000Y-75730000D02*
X111700000Y-69430000D01*
X111700000Y-69430000D02*
X106580000Y-60820000D01*
X106580000Y-60820000D02*
X105334487Y-60854182D01*
X68250000Y-59210000D02*
X70390000Y-59950000D01*
X70390000Y-65250000D02*
X68250000Y-65210000D01*
X58570000Y-76722857D02*
X58570000Y-80090000D01*
X58570000Y-80090000D02*
X58803675Y-81573835D01*
X63750000Y-64140000D02*
X66650000Y-61630000D01*
X66650000Y-61630000D02*
X68250000Y-61210000D01*
X63750000Y-64140000D02*
X63680000Y-64293735D01*
X63680000Y-64293735D02*
X59520000Y-73430000D01*
X59520000Y-73430000D02*
X58670000Y-75480000D01*
X58670000Y-75480000D02*
X58570000Y-76722857D01*
X58570000Y-76722857D02*
X58600000Y-76350000D01*
X58300000Y-85516000D02*
X59260000Y-83780000D01*
X59260000Y-83780000D02*
X59260000Y-82530000D01*
X59260000Y-82530000D02*
X59110000Y-81600000D01*
X59110000Y-81600000D02*
X58803675Y-81573835D01*
X58803675Y-81573835D02*
X58150000Y-81518000D01*
X91537202Y-87836385D02*
X90280000Y-87550000D01*
X86670000Y-69680000D02*
X84250000Y-69210000D01*
X91537202Y-87836385D02*
X92690000Y-89780000D01*
X92690000Y-89780000D02*
X92048143Y-94799551D01*
X82800000Y-77519519D02*
X86121806Y-78415103D01*
X90930000Y-74030000D02*
X87420000Y-73590000D01*
X79780000Y-79270000D02*
X82800000Y-77519519D01*
X82800000Y-77519519D02*
X85180000Y-76140000D01*
X85180000Y-76140000D02*
X87420000Y-73590000D01*
X87420000Y-73590000D02*
X87710000Y-69020000D01*
X87710000Y-69020000D02*
X86670000Y-67220000D01*
X86670000Y-67220000D02*
X84250000Y-67210000D01*
X94700000Y-74600000D02*
X90050000Y-71310000D01*
X90050000Y-71310000D02*
X88890000Y-66630000D01*
X88890000Y-66630000D02*
X86530000Y-65010000D01*
X86530000Y-65010000D02*
X84250000Y-65210000D01*
X97900000Y-78310000D02*
X94410000Y-78240000D01*
X60200000Y-85516000D02*
X62872000Y-85008000D01*
X60200000Y-85516000D02*
X60350000Y-83418000D01*
X60840000Y-88310000D02*
X57670000Y-87000000D01*
X57670000Y-87000000D02*
X56202000Y-83926000D01*
X58150000Y-83418000D02*
X58010000Y-84010000D01*
X61510000Y-81010000D02*
X61790000Y-79862000D01*
X56202000Y-83926000D02*
X58150000Y-83418000D01*
X84250000Y-59210000D02*
X90720000Y-59320000D01*
X81640053Y-91923232D02*
X82337107Y-91277107D01*
X78040000Y-97090000D02*
X77996001Y-100672000D01*
X78040000Y-97090000D02*
X78010000Y-96580000D01*
X88190000Y-84550000D02*
X85409293Y-88510676D01*
X85409293Y-88510676D02*
X85409295Y-88510673D01*
X79520000Y-93650000D02*
X81640053Y-91923232D01*
X81640053Y-91923232D02*
X82970000Y-90840000D01*
X82970000Y-90840000D02*
X85409295Y-88510673D01*
X85409295Y-88510673D02*
X85410000Y-88510000D01*
X78010000Y-96580000D02*
X78010000Y-96579998D01*
X79520000Y-93650000D02*
X78010000Y-96579998D01*
X78180000Y-103990000D02*
X78210000Y-104760000D01*
X75710000Y-100672001D02*
X76010000Y-101740000D01*
X76010000Y-101740000D02*
X78120000Y-105180000D01*
X78120000Y-105180000D02*
X78560000Y-104940000D01*
X78560000Y-104940000D02*
X78520000Y-103740000D01*
X78520000Y-103740000D02*
X78090000Y-103490000D01*
X78090000Y-103490000D02*
X77727477Y-103279231D01*
X78180000Y-103990000D02*
X77727477Y-103279231D01*
X77727477Y-103279231D02*
X76270000Y-100990000D01*
X76270000Y-100990000D02*
X75710000Y-100672001D01*
X75710000Y-100672001D02*
X78210000Y-104760000D01*
X75710000Y-100672001D02*
X75320000Y-98080000D01*
X75730000Y-95510000D02*
X75710000Y-94067999D01*
X102480000Y-68240000D02*
X103230000Y-67730000D01*
X103230000Y-67730000D02*
X103780000Y-68240000D01*
X103717117Y-68547796D02*
X102480000Y-68240000D01*
X103717117Y-68547796D02*
X103330000Y-67930000D01*
X103330000Y-67930000D02*
X103825675Y-68325641D01*
X103825675Y-68325641D02*
X102480000Y-68240000D01*
X103658282Y-68835778D02*
X102480000Y-68240000D01*
X103636446Y-69428842D02*
X102480000Y-68240000D01*
X108170000Y-83880000D02*
X108530000Y-83750000D01*
X108530000Y-83750000D02*
X108400000Y-84120000D01*
X108400000Y-84120000D02*
X108010000Y-84240000D01*
X108010000Y-84240000D02*
X108020000Y-84680000D01*
X108020000Y-84680000D02*
X107730000Y-84860000D01*
X107730000Y-84860000D02*
X107330000Y-84720000D01*
X107330000Y-84720000D02*
X107647484Y-83635264D01*
X108170000Y-83880000D02*
X108330000Y-83580000D01*
X108330000Y-83580000D02*
X106070000Y-79240000D01*
X106070000Y-79240000D02*
X104180000Y-68990000D01*
X104180000Y-68990000D02*
X103825675Y-68325641D01*
X103825675Y-68325641D02*
X103780000Y-68240000D01*
X103780000Y-68240000D02*
X103717117Y-68547796D01*
X103717117Y-68547796D02*
X103658282Y-68835778D01*
X103658282Y-68835778D02*
X103590000Y-69170000D01*
X103590000Y-69170000D02*
X103636446Y-69428842D01*
X103636446Y-69428842D02*
X105440000Y-79480000D01*
X105440000Y-79480000D02*
X107647484Y-83635264D01*
X107647484Y-83635264D02*
X107820000Y-83960000D01*
X107820000Y-83960000D02*
X107700000Y-84510000D01*
X108170000Y-83880000D02*
X105750000Y-79290000D01*
X105750000Y-79290000D02*
X103780000Y-68240000D01*
X68250000Y-71210000D02*
X66490000Y-71930000D01*
X68050000Y-97720000D02*
X67458143Y-99629551D01*
X64251751Y-70628249D02*
X66830000Y-67970000D01*
X66830000Y-67970000D02*
X68250000Y-67210000D01*
X100440000Y-78310000D02*
X99550000Y-81860000D01*
X95140000Y-73470000D02*
X90670000Y-70960000D01*
X90670000Y-70960000D02*
X89450000Y-66270000D01*
X89450000Y-66270000D02*
X86790000Y-64390000D01*
X86790000Y-64390000D02*
X84250000Y-63210000D01*
D35*
G36*
X125649208Y-76200000D02*
X100786906Y-119262770D01*
X100776792Y-119292565D01*
X100759309Y-119318730D01*
X100747137Y-119379924D01*
X100727080Y-119439009D01*
X100729138Y-119470411D01*
X100723000Y-119501270D01*
X100723000Y-127684524D01*
X51677000Y-127684524D01*
X51677000Y-123453387D01*
X86242822Y-123453387D01*
X86398844Y-123830989D01*
X86687492Y-124120140D01*
X87064821Y-124276821D01*
X87473387Y-124277178D01*
X87850989Y-124121156D01*
X88140140Y-123832508D01*
X88296821Y-123455179D01*
X88296822Y-123453387D01*
X93042822Y-123453387D01*
X93198844Y-123830989D01*
X93487492Y-124120140D01*
X93864821Y-124276821D01*
X94273387Y-124277178D01*
X94650989Y-124121156D01*
X94940140Y-123832508D01*
X95096821Y-123455179D01*
X95097178Y-123046613D01*
X94941156Y-122669011D01*
X94652508Y-122379860D01*
X94275179Y-122223179D01*
X93866613Y-122222822D01*
X93489011Y-122378844D01*
X93199860Y-122667492D01*
X93043179Y-123044821D01*
X93042822Y-123453387D01*
X88296822Y-123453387D01*
X88297178Y-123046613D01*
X88141156Y-122669011D01*
X87852508Y-122379860D01*
X87475179Y-122223179D01*
X87066613Y-122222822D01*
X86689011Y-122378844D01*
X86399860Y-122667492D01*
X86243179Y-123044821D01*
X86242822Y-123453387D01*
X51677000Y-123453387D01*
X51677000Y-119501270D01*
X51670862Y-119470411D01*
X51672920Y-119439009D01*
X51652863Y-119379924D01*
X51640691Y-119318730D01*
X51623208Y-119292565D01*
X51613094Y-119262770D01*
X45460971Y-108606978D01*
X56472627Y-108606978D01*
X56845658Y-109107608D01*
X58269262Y-109709333D01*
X59814772Y-109720466D01*
X61246896Y-109139311D01*
X61294342Y-109107608D01*
X61667373Y-108606978D01*
X59070000Y-106009605D01*
X56472627Y-108606978D01*
X45460971Y-108606978D01*
X44287676Y-106574772D01*
X55179534Y-106574772D01*
X55760689Y-108006896D01*
X55792392Y-108054342D01*
X56293022Y-108427373D01*
X58890395Y-105830000D01*
X59249605Y-105830000D01*
X61846978Y-108427373D01*
X62347608Y-108054342D01*
X62949333Y-106630738D01*
X62960466Y-105085228D01*
X62379311Y-103653104D01*
X62347608Y-103605658D01*
X61846978Y-103232627D01*
X59249605Y-105830000D01*
X58890395Y-105830000D01*
X56293022Y-103232627D01*
X55792392Y-103605658D01*
X55190667Y-105029262D01*
X55179534Y-106574772D01*
X44287676Y-106574772D01*
X42254393Y-103053022D01*
X56472627Y-103053022D01*
X59070000Y-105650395D01*
X61667373Y-103053022D01*
X61294342Y-102552392D01*
X59870738Y-101950667D01*
X58325228Y-101939534D01*
X56893104Y-102520689D01*
X56845658Y-102552392D01*
X56472627Y-103053022D01*
X42254393Y-103053022D01*
X37365765Y-94585671D01*
X47571949Y-94585671D01*
X47618229Y-94665829D01*
X47818644Y-94819613D01*
X48062655Y-94884997D01*
X48313113Y-94852023D01*
X48531887Y-94725714D01*
X48608046Y-94681743D01*
X48666153Y-94464887D01*
X48365528Y-93944189D01*
X47630056Y-94368814D01*
X47571949Y-94585671D01*
X37365765Y-94585671D01*
X28221464Y-78747277D01*
X36462631Y-78747277D01*
X36481572Y-78853941D01*
X36496225Y-78961280D01*
X36502559Y-78972131D01*
X36504756Y-78984502D01*
X39794756Y-87414502D01*
X39796872Y-87417814D01*
X39797607Y-87421674D01*
X39861629Y-87519192D01*
X39924457Y-87617549D01*
X39927680Y-87619800D01*
X39929836Y-87623084D01*
X43599836Y-91353084D01*
X43645156Y-91383900D01*
X43682820Y-91423715D01*
X45882820Y-92983715D01*
X45983537Y-93028747D01*
X46082674Y-93077123D01*
X46093173Y-93077767D01*
X46102772Y-93082059D01*
X46213030Y-93085119D01*
X46323159Y-93091875D01*
X46895143Y-93014138D01*
X46902963Y-93027682D01*
X47007866Y-93149832D01*
X47050884Y-93171978D01*
X47047977Y-93210255D01*
X47102963Y-93374094D01*
X47246633Y-93622936D01*
X47208946Y-93763586D01*
X47241920Y-94014043D01*
X47288199Y-94094201D01*
X47505056Y-94152308D01*
X48240528Y-93727683D01*
X48229528Y-93708630D01*
X48449498Y-93581630D01*
X48460498Y-93600683D01*
X48477819Y-93590683D01*
X48602819Y-93807189D01*
X48585498Y-93817189D01*
X48886123Y-94337887D01*
X49102980Y-94395993D01*
X49179139Y-94352023D01*
X49397913Y-94225713D01*
X49551698Y-94025298D01*
X49617080Y-93781286D01*
X49584106Y-93530829D01*
X49537827Y-93450671D01*
X49323705Y-93393297D01*
X49459453Y-93314923D01*
X49429354Y-93262790D01*
X51822898Y-93647326D01*
X68257224Y-105086809D01*
X68293568Y-105102680D01*
X68324480Y-105127526D01*
X71506858Y-106787048D01*
X74204635Y-109363223D01*
X74204635Y-109640000D01*
X74234409Y-109798237D01*
X74327927Y-109943567D01*
X74470619Y-110041064D01*
X74640000Y-110075365D01*
X75090000Y-110075365D01*
X75248237Y-110045591D01*
X75277069Y-110027038D01*
X75323718Y-110768760D01*
X75351708Y-110874333D01*
X75375749Y-110980853D01*
X75382474Y-110990379D01*
X75385462Y-111001651D01*
X75451718Y-111088470D01*
X75514697Y-111177687D01*
X78514697Y-114027687D01*
X78555022Y-114053161D01*
X78588166Y-114087464D01*
X78655931Y-114116907D01*
X78718393Y-114156365D01*
X78765397Y-114164468D01*
X78809146Y-114183476D01*
X89717063Y-116548688D01*
X91445480Y-117058261D01*
X91343126Y-117304756D01*
X91342874Y-117593975D01*
X91453320Y-117861275D01*
X91657650Y-118065961D01*
X91924756Y-118176874D01*
X92213975Y-118177126D01*
X92481275Y-118066680D01*
X92685961Y-117862350D01*
X92745693Y-117718501D01*
X94696975Y-116276625D01*
X94713505Y-116258450D01*
X94734841Y-116246273D01*
X94794059Y-116169885D01*
X94859090Y-116098386D01*
X94867406Y-116075271D01*
X94882459Y-116055854D01*
X98552459Y-108705854D01*
X98559661Y-108679498D01*
X98574452Y-108656522D01*
X98591204Y-108564071D01*
X98615971Y-108473439D01*
X98612539Y-108446331D01*
X98617410Y-108419446D01*
X98517410Y-102569446D01*
X98508332Y-102527563D01*
X98510109Y-102484746D01*
X96930109Y-92364746D01*
X96899460Y-92281100D01*
X96877620Y-92194734D01*
X96546223Y-91498100D01*
X100368298Y-91787773D01*
X103339488Y-93091769D01*
X103321937Y-93111644D01*
X103102342Y-93491994D01*
X98872928Y-95283115D01*
X98596025Y-95282874D01*
X98328725Y-95393320D01*
X98124039Y-95597650D01*
X98013126Y-95864756D01*
X98012874Y-96153975D01*
X98123320Y-96421275D01*
X98327650Y-96625961D01*
X98594756Y-96736874D01*
X98883975Y-96737126D01*
X99151275Y-96626680D01*
X99355961Y-96422350D01*
X99357278Y-96419179D01*
X103927632Y-94483673D01*
X104122318Y-94596075D01*
X104274242Y-94649408D01*
X104446861Y-94641085D01*
X104602641Y-94566259D01*
X104717037Y-94436720D01*
X104942037Y-94047008D01*
X104995370Y-93895084D01*
X104991565Y-93816174D01*
X105052641Y-93786837D01*
X105167037Y-93657298D01*
X105467037Y-93137682D01*
X105520370Y-92985758D01*
X105518842Y-92954057D01*
X106328735Y-93158686D01*
X106447758Y-93164778D01*
X106566602Y-93171396D01*
X106567937Y-93170928D01*
X106569357Y-93171001D01*
X106681684Y-93131068D01*
X106793982Y-93091716D01*
X106795040Y-93090770D01*
X106796375Y-93090295D01*
X106884788Y-93010491D01*
X106973560Y-92931086D01*
X114063560Y-83501086D01*
X114081048Y-83464730D01*
X114107389Y-83434171D01*
X114132819Y-83357101D01*
X114167999Y-83283962D01*
X114170242Y-83243678D01*
X114182883Y-83205368D01*
X115092883Y-75805368D01*
X115089546Y-75760348D01*
X115097339Y-75715878D01*
X115080721Y-75641294D01*
X115075073Y-75565091D01*
X115054760Y-75524771D01*
X115044942Y-75480708D01*
X112264942Y-69180708D01*
X112243312Y-69149886D01*
X112230749Y-69114386D01*
X107110749Y-60504386D01*
X107053751Y-60441057D01*
X107004495Y-60371548D01*
X106973819Y-60352246D01*
X106949568Y-60325302D01*
X106872677Y-60288608D01*
X106800567Y-60243236D01*
X106764833Y-60237142D01*
X106732123Y-60221532D01*
X106647051Y-60217056D01*
X106563060Y-60202732D01*
X106046622Y-60216905D01*
X106032037Y-60191644D01*
X105927134Y-60069494D01*
X105856891Y-60033333D01*
X105857483Y-60025541D01*
X107049645Y-59134640D01*
X107089746Y-59090071D01*
X107137879Y-59054312D01*
X107169545Y-59001382D01*
X107210798Y-58955532D01*
X107230792Y-58899004D01*
X107261574Y-58847551D01*
X107270575Y-58786531D01*
X107291141Y-58728385D01*
X107287982Y-58668515D01*
X107296732Y-58609193D01*
X107281696Y-58549375D01*
X107278446Y-58487784D01*
X107252612Y-58433673D01*
X107237996Y-58375526D01*
X105507996Y-54725525D01*
X105483434Y-54692464D01*
X105468209Y-54654193D01*
X105412214Y-54596600D01*
X105364311Y-54532121D01*
X105328966Y-54510976D01*
X105300255Y-54481445D01*
X101220255Y-51671445D01*
X101189406Y-51658155D01*
X101163535Y-51636728D01*
X101079620Y-51610860D01*
X100998978Y-51576120D01*
X100965391Y-51575648D01*
X100933290Y-51565752D01*
X90063290Y-50445752D01*
X90021596Y-50449669D01*
X89980282Y-50442815D01*
X89035088Y-50473013D01*
X89155961Y-50352350D01*
X89266874Y-50085244D01*
X89267126Y-49796025D01*
X89156680Y-49528725D01*
X88975250Y-49346978D01*
X90712627Y-49346978D01*
X91085658Y-49847608D01*
X92509262Y-50449333D01*
X94054772Y-50460466D01*
X95486896Y-49879311D01*
X95534342Y-49847608D01*
X95907373Y-49346978D01*
X93310000Y-46749605D01*
X90712627Y-49346978D01*
X88975250Y-49346978D01*
X88952350Y-49324039D01*
X88794839Y-49258634D01*
X87298977Y-47314772D01*
X89419534Y-47314772D01*
X90000689Y-48746896D01*
X90032392Y-48794342D01*
X90533022Y-49167373D01*
X93130395Y-46570000D01*
X93489605Y-46570000D01*
X96086978Y-49167373D01*
X96587608Y-48794342D01*
X97189333Y-47370738D01*
X97200466Y-45825228D01*
X96619311Y-44393104D01*
X96587608Y-44345658D01*
X96086978Y-43972627D01*
X93489605Y-46570000D01*
X93130395Y-46570000D01*
X90533022Y-43972627D01*
X90032392Y-44345658D01*
X89430667Y-45769262D01*
X89419534Y-47314772D01*
X87298977Y-47314772D01*
X87059374Y-47003411D01*
X87018562Y-46967720D01*
X86986433Y-46924051D01*
X85486433Y-45554051D01*
X85452627Y-45533612D01*
X85425372Y-45505007D01*
X85350403Y-45471809D01*
X85280250Y-45429396D01*
X85241195Y-45423450D01*
X85205069Y-45407453D01*
X78488382Y-43901820D01*
X78364042Y-43793022D01*
X90712627Y-43793022D01*
X93310000Y-46390395D01*
X95907373Y-43793022D01*
X95534342Y-43292392D01*
X94110738Y-42690667D01*
X92565228Y-42679534D01*
X91133104Y-43260689D01*
X91085658Y-43292392D01*
X90712627Y-43793022D01*
X78364042Y-43793022D01*
X78205343Y-43654160D01*
X78145365Y-43348468D01*
X78145365Y-42690000D01*
X78115591Y-42531763D01*
X78022073Y-42386433D01*
X77879381Y-42288936D01*
X77710000Y-42254635D01*
X77260000Y-42254635D01*
X77101763Y-42284409D01*
X77035325Y-42327161D01*
X76979381Y-42288936D01*
X76810000Y-42254635D01*
X76210000Y-42254635D01*
X76051763Y-42284409D01*
X76011075Y-42310591D01*
X75979381Y-42288936D01*
X75810000Y-42254635D01*
X75522661Y-42254635D01*
X75419698Y-42151673D01*
X75186309Y-42055000D01*
X75093750Y-42055000D01*
X74935000Y-42213750D01*
X74935000Y-43063000D01*
X74957000Y-43063000D01*
X74957000Y-43317000D01*
X74935000Y-43317000D01*
X74935000Y-43337000D01*
X74685000Y-43337000D01*
X74685000Y-43317000D01*
X74083750Y-43317000D01*
X73925000Y-43475750D01*
X73925000Y-43816310D01*
X74021673Y-44049699D01*
X74200302Y-44228327D01*
X74433691Y-44325000D01*
X74451376Y-44325000D01*
X74270442Y-44487841D01*
X74046971Y-44554315D01*
X74047126Y-44376025D01*
X73936680Y-44108725D01*
X73732350Y-43904039D01*
X73465244Y-43793126D01*
X73176025Y-43792874D01*
X72908725Y-43903320D01*
X72762366Y-44049424D01*
X65872772Y-46241568D01*
X65864799Y-46245970D01*
X65855780Y-46247247D01*
X65759612Y-46304036D01*
X65661840Y-46358009D01*
X65656157Y-46365127D01*
X65648316Y-46369758D01*
X61315761Y-50245209D01*
X53083723Y-56006648D01*
X50652418Y-56878248D01*
X47690708Y-56487797D01*
X47637662Y-56491264D01*
X47585157Y-56483001D01*
X47518608Y-56499046D01*
X47450285Y-56503512D01*
X47402606Y-56527014D01*
X47350932Y-56539473D01*
X47295582Y-56579770D01*
X47234177Y-56610038D01*
X47199123Y-56649995D01*
X47156148Y-56681282D01*
X45560050Y-58411304D01*
X45190540Y-58484165D01*
X45128364Y-58509798D01*
X45062677Y-58524193D01*
X45018062Y-58555272D01*
X44967790Y-58575997D01*
X44920159Y-58623470D01*
X44864978Y-58661909D01*
X43094979Y-60501909D01*
X43090618Y-60508718D01*
X43084103Y-60513510D01*
X43025798Y-60609920D01*
X42965030Y-60704797D01*
X42963606Y-60712758D01*
X42959422Y-60719677D01*
X40099206Y-68615064D01*
X36808832Y-74165093D01*
X36800341Y-74189188D01*
X36784882Y-74209535D01*
X36760556Y-74302086D01*
X36728754Y-74392333D01*
X36730131Y-74417847D01*
X36723636Y-74442557D01*
X36463636Y-78722557D01*
X36465336Y-78735007D01*
X36462631Y-78747277D01*
X28221464Y-78747277D01*
X26750792Y-76200000D01*
X42254391Y-49346978D01*
X56482627Y-49346978D01*
X56855658Y-49847608D01*
X58279262Y-50449333D01*
X59824772Y-50460466D01*
X61256896Y-49879311D01*
X61304342Y-49847608D01*
X61677373Y-49346978D01*
X59080000Y-46749605D01*
X56482627Y-49346978D01*
X42254391Y-49346978D01*
X43427686Y-47314772D01*
X55189534Y-47314772D01*
X55770689Y-48746896D01*
X55802392Y-48794342D01*
X56303022Y-49167373D01*
X58900395Y-46570000D01*
X59259605Y-46570000D01*
X61856978Y-49167373D01*
X62357608Y-48794342D01*
X62959333Y-47370738D01*
X62970466Y-45825228D01*
X62389311Y-44393104D01*
X62357608Y-44345658D01*
X61856978Y-43972627D01*
X59259605Y-46570000D01*
X58900395Y-46570000D01*
X56303022Y-43972627D01*
X55802392Y-44345658D01*
X55200667Y-45769262D01*
X55189534Y-47314772D01*
X43427686Y-47314772D01*
X45460969Y-43793022D01*
X56482627Y-43793022D01*
X59080000Y-46390395D01*
X61677373Y-43793022D01*
X61304342Y-43292392D01*
X59880738Y-42690667D01*
X58335228Y-42679534D01*
X56903104Y-43260689D01*
X56855658Y-43292392D01*
X56482627Y-43793022D01*
X45460969Y-43793022D01*
X46170724Y-42563690D01*
X73925000Y-42563690D01*
X73925000Y-42904250D01*
X74083750Y-43063000D01*
X74685000Y-43063000D01*
X74685000Y-42213750D01*
X74526250Y-42055000D01*
X74433691Y-42055000D01*
X74200302Y-42151673D01*
X74021673Y-42330301D01*
X73925000Y-42563690D01*
X46170724Y-42563690D01*
X51475396Y-33375730D01*
X100924604Y-33375730D01*
X125649208Y-76200000D01*
X125649208Y-76200000D01*
G37*
X125649208Y-76200000D02*
X100786906Y-119262770D01*
X100776792Y-119292565D01*
X100759309Y-119318730D01*
X100747137Y-119379924D01*
X100727080Y-119439009D01*
X100729138Y-119470411D01*
X100723000Y-119501270D01*
X100723000Y-127684524D01*
X51677000Y-127684524D01*
X51677000Y-123453387D01*
X86242822Y-123453387D01*
X86398844Y-123830989D01*
X86687492Y-124120140D01*
X87064821Y-124276821D01*
X87473387Y-124277178D01*
X87850989Y-124121156D01*
X88140140Y-123832508D01*
X88296821Y-123455179D01*
X88296822Y-123453387D01*
X93042822Y-123453387D01*
X93198844Y-123830989D01*
X93487492Y-124120140D01*
X93864821Y-124276821D01*
X94273387Y-124277178D01*
X94650989Y-124121156D01*
X94940140Y-123832508D01*
X95096821Y-123455179D01*
X95097178Y-123046613D01*
X94941156Y-122669011D01*
X94652508Y-122379860D01*
X94275179Y-122223179D01*
X93866613Y-122222822D01*
X93489011Y-122378844D01*
X93199860Y-122667492D01*
X93043179Y-123044821D01*
X93042822Y-123453387D01*
X88296822Y-123453387D01*
X88297178Y-123046613D01*
X88141156Y-122669011D01*
X87852508Y-122379860D01*
X87475179Y-122223179D01*
X87066613Y-122222822D01*
X86689011Y-122378844D01*
X86399860Y-122667492D01*
X86243179Y-123044821D01*
X86242822Y-123453387D01*
X51677000Y-123453387D01*
X51677000Y-119501270D01*
X51670862Y-119470411D01*
X51672920Y-119439009D01*
X51652863Y-119379924D01*
X51640691Y-119318730D01*
X51623208Y-119292565D01*
X51613094Y-119262770D01*
X45460971Y-108606978D01*
X56472627Y-108606978D01*
X56845658Y-109107608D01*
X58269262Y-109709333D01*
X59814772Y-109720466D01*
X61246896Y-109139311D01*
X61294342Y-109107608D01*
X61667373Y-108606978D01*
X59070000Y-106009605D01*
X56472627Y-108606978D01*
X45460971Y-108606978D01*
X44287676Y-106574772D01*
X55179534Y-106574772D01*
X55760689Y-108006896D01*
X55792392Y-108054342D01*
X56293022Y-108427373D01*
X58890395Y-105830000D01*
X59249605Y-105830000D01*
X61846978Y-108427373D01*
X62347608Y-108054342D01*
X62949333Y-106630738D01*
X62960466Y-105085228D01*
X62379311Y-103653104D01*
X62347608Y-103605658D01*
X61846978Y-103232627D01*
X59249605Y-105830000D01*
X58890395Y-105830000D01*
X56293022Y-103232627D01*
X55792392Y-103605658D01*
X55190667Y-105029262D01*
X55179534Y-106574772D01*
X44287676Y-106574772D01*
X42254393Y-103053022D01*
X56472627Y-103053022D01*
X59070000Y-105650395D01*
X61667373Y-103053022D01*
X61294342Y-102552392D01*
X59870738Y-101950667D01*
X58325228Y-101939534D01*
X56893104Y-102520689D01*
X56845658Y-102552392D01*
X56472627Y-103053022D01*
X42254393Y-103053022D01*
X37365765Y-94585671D01*
X47571949Y-94585671D01*
X47618229Y-94665829D01*
X47818644Y-94819613D01*
X48062655Y-94884997D01*
X48313113Y-94852023D01*
X48531887Y-94725714D01*
X48608046Y-94681743D01*
X48666153Y-94464887D01*
X48365528Y-93944189D01*
X47630056Y-94368814D01*
X47571949Y-94585671D01*
X37365765Y-94585671D01*
X28221464Y-78747277D01*
X36462631Y-78747277D01*
X36481572Y-78853941D01*
X36496225Y-78961280D01*
X36502559Y-78972131D01*
X36504756Y-78984502D01*
X39794756Y-87414502D01*
X39796872Y-87417814D01*
X39797607Y-87421674D01*
X39861629Y-87519192D01*
X39924457Y-87617549D01*
X39927680Y-87619800D01*
X39929836Y-87623084D01*
X43599836Y-91353084D01*
X43645156Y-91383900D01*
X43682820Y-91423715D01*
X45882820Y-92983715D01*
X45983537Y-93028747D01*
X46082674Y-93077123D01*
X46093173Y-93077767D01*
X46102772Y-93082059D01*
X46213030Y-93085119D01*
X46323159Y-93091875D01*
X46895143Y-93014138D01*
X46902963Y-93027682D01*
X47007866Y-93149832D01*
X47050884Y-93171978D01*
X47047977Y-93210255D01*
X47102963Y-93374094D01*
X47246633Y-93622936D01*
X47208946Y-93763586D01*
X47241920Y-94014043D01*
X47288199Y-94094201D01*
X47505056Y-94152308D01*
X48240528Y-93727683D01*
X48229528Y-93708630D01*
X48449498Y-93581630D01*
X48460498Y-93600683D01*
X48477819Y-93590683D01*
X48602819Y-93807189D01*
X48585498Y-93817189D01*
X48886123Y-94337887D01*
X49102980Y-94395993D01*
X49179139Y-94352023D01*
X49397913Y-94225713D01*
X49551698Y-94025298D01*
X49617080Y-93781286D01*
X49584106Y-93530829D01*
X49537827Y-93450671D01*
X49323705Y-93393297D01*
X49459453Y-93314923D01*
X49429354Y-93262790D01*
X51822898Y-93647326D01*
X68257224Y-105086809D01*
X68293568Y-105102680D01*
X68324480Y-105127526D01*
X71506858Y-106787048D01*
X74204635Y-109363223D01*
X74204635Y-109640000D01*
X74234409Y-109798237D01*
X74327927Y-109943567D01*
X74470619Y-110041064D01*
X74640000Y-110075365D01*
X75090000Y-110075365D01*
X75248237Y-110045591D01*
X75277069Y-110027038D01*
X75323718Y-110768760D01*
X75351708Y-110874333D01*
X75375749Y-110980853D01*
X75382474Y-110990379D01*
X75385462Y-111001651D01*
X75451718Y-111088470D01*
X75514697Y-111177687D01*
X78514697Y-114027687D01*
X78555022Y-114053161D01*
X78588166Y-114087464D01*
X78655931Y-114116907D01*
X78718393Y-114156365D01*
X78765397Y-114164468D01*
X78809146Y-114183476D01*
X89717063Y-116548688D01*
X91445480Y-117058261D01*
X91343126Y-117304756D01*
X91342874Y-117593975D01*
X91453320Y-117861275D01*
X91657650Y-118065961D01*
X91924756Y-118176874D01*
X92213975Y-118177126D01*
X92481275Y-118066680D01*
X92685961Y-117862350D01*
X92745693Y-117718501D01*
X94696975Y-116276625D01*
X94713505Y-116258450D01*
X94734841Y-116246273D01*
X94794059Y-116169885D01*
X94859090Y-116098386D01*
X94867406Y-116075271D01*
X94882459Y-116055854D01*
X98552459Y-108705854D01*
X98559661Y-108679498D01*
X98574452Y-108656522D01*
X98591204Y-108564071D01*
X98615971Y-108473439D01*
X98612539Y-108446331D01*
X98617410Y-108419446D01*
X98517410Y-102569446D01*
X98508332Y-102527563D01*
X98510109Y-102484746D01*
X96930109Y-92364746D01*
X96899460Y-92281100D01*
X96877620Y-92194734D01*
X96546223Y-91498100D01*
X100368298Y-91787773D01*
X103339488Y-93091769D01*
X103321937Y-93111644D01*
X103102342Y-93491994D01*
X98872928Y-95283115D01*
X98596025Y-95282874D01*
X98328725Y-95393320D01*
X98124039Y-95597650D01*
X98013126Y-95864756D01*
X98012874Y-96153975D01*
X98123320Y-96421275D01*
X98327650Y-96625961D01*
X98594756Y-96736874D01*
X98883975Y-96737126D01*
X99151275Y-96626680D01*
X99355961Y-96422350D01*
X99357278Y-96419179D01*
X103927632Y-94483673D01*
X104122318Y-94596075D01*
X104274242Y-94649408D01*
X104446861Y-94641085D01*
X104602641Y-94566259D01*
X104717037Y-94436720D01*
X104942037Y-94047008D01*
X104995370Y-93895084D01*
X104991565Y-93816174D01*
X105052641Y-93786837D01*
X105167037Y-93657298D01*
X105467037Y-93137682D01*
X105520370Y-92985758D01*
X105518842Y-92954057D01*
X106328735Y-93158686D01*
X106447758Y-93164778D01*
X106566602Y-93171396D01*
X106567937Y-93170928D01*
X106569357Y-93171001D01*
X106681684Y-93131068D01*
X106793982Y-93091716D01*
X106795040Y-93090770D01*
X106796375Y-93090295D01*
X106884788Y-93010491D01*
X106973560Y-92931086D01*
X114063560Y-83501086D01*
X114081048Y-83464730D01*
X114107389Y-83434171D01*
X114132819Y-83357101D01*
X114167999Y-83283962D01*
X114170242Y-83243678D01*
X114182883Y-83205368D01*
X115092883Y-75805368D01*
X115089546Y-75760348D01*
X115097339Y-75715878D01*
X115080721Y-75641294D01*
X115075073Y-75565091D01*
X115054760Y-75524771D01*
X115044942Y-75480708D01*
X112264942Y-69180708D01*
X112243312Y-69149886D01*
X112230749Y-69114386D01*
X107110749Y-60504386D01*
X107053751Y-60441057D01*
X107004495Y-60371548D01*
X106973819Y-60352246D01*
X106949568Y-60325302D01*
X106872677Y-60288608D01*
X106800567Y-60243236D01*
X106764833Y-60237142D01*
X106732123Y-60221532D01*
X106647051Y-60217056D01*
X106563060Y-60202732D01*
X106046622Y-60216905D01*
X106032037Y-60191644D01*
X105927134Y-60069494D01*
X105856891Y-60033333D01*
X105857483Y-60025541D01*
X107049645Y-59134640D01*
X107089746Y-59090071D01*
X107137879Y-59054312D01*
X107169545Y-59001382D01*
X107210798Y-58955532D01*
X107230792Y-58899004D01*
X107261574Y-58847551D01*
X107270575Y-58786531D01*
X107291141Y-58728385D01*
X107287982Y-58668515D01*
X107296732Y-58609193D01*
X107281696Y-58549375D01*
X107278446Y-58487784D01*
X107252612Y-58433673D01*
X107237996Y-58375526D01*
X105507996Y-54725525D01*
X105483434Y-54692464D01*
X105468209Y-54654193D01*
X105412214Y-54596600D01*
X105364311Y-54532121D01*
X105328966Y-54510976D01*
X105300255Y-54481445D01*
X101220255Y-51671445D01*
X101189406Y-51658155D01*
X101163535Y-51636728D01*
X101079620Y-51610860D01*
X100998978Y-51576120D01*
X100965391Y-51575648D01*
X100933290Y-51565752D01*
X90063290Y-50445752D01*
X90021596Y-50449669D01*
X89980282Y-50442815D01*
X89035088Y-50473013D01*
X89155961Y-50352350D01*
X89266874Y-50085244D01*
X89267126Y-49796025D01*
X89156680Y-49528725D01*
X88975250Y-49346978D01*
X90712627Y-49346978D01*
X91085658Y-49847608D01*
X92509262Y-50449333D01*
X94054772Y-50460466D01*
X95486896Y-49879311D01*
X95534342Y-49847608D01*
X95907373Y-49346978D01*
X93310000Y-46749605D01*
X90712627Y-49346978D01*
X88975250Y-49346978D01*
X88952350Y-49324039D01*
X88794839Y-49258634D01*
X87298977Y-47314772D01*
X89419534Y-47314772D01*
X90000689Y-48746896D01*
X90032392Y-48794342D01*
X90533022Y-49167373D01*
X93130395Y-46570000D01*
X93489605Y-46570000D01*
X96086978Y-49167373D01*
X96587608Y-48794342D01*
X97189333Y-47370738D01*
X97200466Y-45825228D01*
X96619311Y-44393104D01*
X96587608Y-44345658D01*
X96086978Y-43972627D01*
X93489605Y-46570000D01*
X93130395Y-46570000D01*
X90533022Y-43972627D01*
X90032392Y-44345658D01*
X89430667Y-45769262D01*
X89419534Y-47314772D01*
X87298977Y-47314772D01*
X87059374Y-47003411D01*
X87018562Y-46967720D01*
X86986433Y-46924051D01*
X85486433Y-45554051D01*
X85452627Y-45533612D01*
X85425372Y-45505007D01*
X85350403Y-45471809D01*
X85280250Y-45429396D01*
X85241195Y-45423450D01*
X85205069Y-45407453D01*
X78488382Y-43901820D01*
X78364042Y-43793022D01*
X90712627Y-43793022D01*
X93310000Y-46390395D01*
X95907373Y-43793022D01*
X95534342Y-43292392D01*
X94110738Y-42690667D01*
X92565228Y-42679534D01*
X91133104Y-43260689D01*
X91085658Y-43292392D01*
X90712627Y-43793022D01*
X78364042Y-43793022D01*
X78205343Y-43654160D01*
X78145365Y-43348468D01*
X78145365Y-42690000D01*
X78115591Y-42531763D01*
X78022073Y-42386433D01*
X77879381Y-42288936D01*
X77710000Y-42254635D01*
X77260000Y-42254635D01*
X77101763Y-42284409D01*
X77035325Y-42327161D01*
X76979381Y-42288936D01*
X76810000Y-42254635D01*
X76210000Y-42254635D01*
X76051763Y-42284409D01*
X76011075Y-42310591D01*
X75979381Y-42288936D01*
X75810000Y-42254635D01*
X75522661Y-42254635D01*
X75419698Y-42151673D01*
X75186309Y-42055000D01*
X75093750Y-42055000D01*
X74935000Y-42213750D01*
X74935000Y-43063000D01*
X74957000Y-43063000D01*
X74957000Y-43317000D01*
X74935000Y-43317000D01*
X74935000Y-43337000D01*
X74685000Y-43337000D01*
X74685000Y-43317000D01*
X74083750Y-43317000D01*
X73925000Y-43475750D01*
X73925000Y-43816310D01*
X74021673Y-44049699D01*
X74200302Y-44228327D01*
X74433691Y-44325000D01*
X74451376Y-44325000D01*
X74270442Y-44487841D01*
X74046971Y-44554315D01*
X74047126Y-44376025D01*
X73936680Y-44108725D01*
X73732350Y-43904039D01*
X73465244Y-43793126D01*
X73176025Y-43792874D01*
X72908725Y-43903320D01*
X72762366Y-44049424D01*
X65872772Y-46241568D01*
X65864799Y-46245970D01*
X65855780Y-46247247D01*
X65759612Y-46304036D01*
X65661840Y-46358009D01*
X65656157Y-46365127D01*
X65648316Y-46369758D01*
X61315761Y-50245209D01*
X53083723Y-56006648D01*
X50652418Y-56878248D01*
X47690708Y-56487797D01*
X47637662Y-56491264D01*
X47585157Y-56483001D01*
X47518608Y-56499046D01*
X47450285Y-56503512D01*
X47402606Y-56527014D01*
X47350932Y-56539473D01*
X47295582Y-56579770D01*
X47234177Y-56610038D01*
X47199123Y-56649995D01*
X47156148Y-56681282D01*
X45560050Y-58411304D01*
X45190540Y-58484165D01*
X45128364Y-58509798D01*
X45062677Y-58524193D01*
X45018062Y-58555272D01*
X44967790Y-58575997D01*
X44920159Y-58623470D01*
X44864978Y-58661909D01*
X43094979Y-60501909D01*
X43090618Y-60508718D01*
X43084103Y-60513510D01*
X43025798Y-60609920D01*
X42965030Y-60704797D01*
X42963606Y-60712758D01*
X42959422Y-60719677D01*
X40099206Y-68615064D01*
X36808832Y-74165093D01*
X36800341Y-74189188D01*
X36784882Y-74209535D01*
X36760556Y-74302086D01*
X36728754Y-74392333D01*
X36730131Y-74417847D01*
X36723636Y-74442557D01*
X36463636Y-78722557D01*
X36465336Y-78735007D01*
X36462631Y-78747277D01*
X28221464Y-78747277D01*
X26750792Y-76200000D01*
X42254391Y-49346978D01*
X56482627Y-49346978D01*
X56855658Y-49847608D01*
X58279262Y-50449333D01*
X59824772Y-50460466D01*
X61256896Y-49879311D01*
X61304342Y-49847608D01*
X61677373Y-49346978D01*
X59080000Y-46749605D01*
X56482627Y-49346978D01*
X42254391Y-49346978D01*
X43427686Y-47314772D01*
X55189534Y-47314772D01*
X55770689Y-48746896D01*
X55802392Y-48794342D01*
X56303022Y-49167373D01*
X58900395Y-46570000D01*
X59259605Y-46570000D01*
X61856978Y-49167373D01*
X62357608Y-48794342D01*
X62959333Y-47370738D01*
X62970466Y-45825228D01*
X62389311Y-44393104D01*
X62357608Y-44345658D01*
X61856978Y-43972627D01*
X59259605Y-46570000D01*
X58900395Y-46570000D01*
X56303022Y-43972627D01*
X55802392Y-44345658D01*
X55200667Y-45769262D01*
X55189534Y-47314772D01*
X43427686Y-47314772D01*
X45460969Y-43793022D01*
X56482627Y-43793022D01*
X59080000Y-46390395D01*
X61677373Y-43793022D01*
X61304342Y-43292392D01*
X59880738Y-42690667D01*
X58335228Y-42679534D01*
X56903104Y-43260689D01*
X56855658Y-43292392D01*
X56482627Y-43793022D01*
X45460969Y-43793022D01*
X46170724Y-42563690D01*
X73925000Y-42563690D01*
X73925000Y-42904250D01*
X74083750Y-43063000D01*
X74685000Y-43063000D01*
X74685000Y-42213750D01*
X74526250Y-42055000D01*
X74433691Y-42055000D01*
X74200302Y-42151673D01*
X74021673Y-42330301D01*
X73925000Y-42563690D01*
X46170724Y-42563690D01*
X51475396Y-33375730D01*
X100924604Y-33375730D01*
X125649208Y-76200000D01*
G36*
X66233011Y-57638355D02*
X66247244Y-57698439D01*
X66278864Y-57737703D01*
X66323268Y-57761572D01*
X68049056Y-58283000D01*
X67212248Y-58283000D01*
X66857500Y-58353564D01*
X66556760Y-58554512D01*
X66355812Y-58855252D01*
X66285248Y-59210000D01*
X66355812Y-59564748D01*
X66556760Y-59865488D01*
X66857500Y-60066436D01*
X67212248Y-60137000D01*
X69041290Y-60137000D01*
X69817313Y-60405345D01*
X69977650Y-60565961D01*
X70244756Y-60676874D01*
X70533975Y-60677126D01*
X70801275Y-60566680D01*
X71005961Y-60362350D01*
X71015868Y-60338490D01*
X73339800Y-60338490D01*
X73339800Y-62414250D01*
X73498550Y-62573000D01*
X76083000Y-62573000D01*
X76083000Y-59988550D01*
X76337000Y-59988550D01*
X76337000Y-62573000D01*
X78921450Y-62573000D01*
X79080200Y-62414250D01*
X79080200Y-61210000D01*
X82285248Y-61210000D01*
X82355812Y-61564748D01*
X82556760Y-61865488D01*
X82857500Y-62066436D01*
X83212248Y-62137000D01*
X85287752Y-62137000D01*
X85642500Y-62066436D01*
X85943240Y-61865488D01*
X86143593Y-61565638D01*
X87548918Y-61366731D01*
X88238285Y-61354529D01*
X88484756Y-61456874D01*
X88773975Y-61457126D01*
X89041275Y-61346680D01*
X89245961Y-61142350D01*
X89356874Y-60875244D01*
X89357126Y-60586025D01*
X89246680Y-60318725D01*
X89042350Y-60114039D01*
X88775244Y-60003126D01*
X88486025Y-60002874D01*
X88218725Y-60113320D01*
X88212236Y-60119798D01*
X87489073Y-60132597D01*
X87451675Y-60140726D01*
X87413462Y-60138594D01*
X85686576Y-60383015D01*
X85642500Y-60353564D01*
X85287752Y-60283000D01*
X83212248Y-60283000D01*
X82857500Y-60353564D01*
X82556760Y-60554512D01*
X82355812Y-60855252D01*
X82285248Y-61210000D01*
X79080200Y-61210000D01*
X79080200Y-60338490D01*
X78983527Y-60105101D01*
X78804898Y-59926473D01*
X78571509Y-59829800D01*
X76495750Y-59829800D01*
X76337000Y-59988550D01*
X76083000Y-59988550D01*
X75924250Y-59829800D01*
X73848491Y-59829800D01*
X73615102Y-59926473D01*
X73436473Y-60105101D01*
X73339800Y-60338490D01*
X71015868Y-60338490D01*
X71116874Y-60095244D01*
X71117126Y-59806025D01*
X71006680Y-59538725D01*
X70802350Y-59334039D01*
X70535244Y-59223126D01*
X70246025Y-59222874D01*
X70214451Y-59235920D01*
X70209909Y-59234349D01*
X70214752Y-59210000D01*
X70152744Y-58898266D01*
X81657035Y-59166965D01*
X81691916Y-59162924D01*
X82327434Y-58997918D01*
X82285248Y-59210000D01*
X82355812Y-59564748D01*
X82556760Y-59865488D01*
X82857500Y-60066436D01*
X83212248Y-60137000D01*
X85287752Y-60137000D01*
X85642500Y-60066436D01*
X85943240Y-59865488D01*
X85949259Y-59856479D01*
X90302184Y-59930486D01*
X90307650Y-59935961D01*
X90574756Y-60046874D01*
X90863975Y-60047126D01*
X91131275Y-59936680D01*
X91335961Y-59732350D01*
X91446874Y-59465244D01*
X91447126Y-59176025D01*
X91336680Y-58908725D01*
X91132350Y-58704039D01*
X90865244Y-58593126D01*
X90576025Y-58592874D01*
X90327093Y-58695731D01*
X85988310Y-58621964D01*
X85943240Y-58554512D01*
X85904631Y-58528714D01*
X102792920Y-58528714D01*
X102825894Y-58779171D01*
X102872173Y-58859329D01*
X103089030Y-58917436D01*
X103824502Y-58492811D01*
X103523877Y-57972113D01*
X103307020Y-57914007D01*
X103230861Y-57957977D01*
X103012087Y-58084287D01*
X102858302Y-58284702D01*
X102792920Y-58528714D01*
X85904631Y-58528714D01*
X85642500Y-58353564D01*
X85287752Y-58283000D01*
X85080930Y-58283000D01*
X85581916Y-58152924D01*
X85638553Y-58121035D01*
X85666994Y-58079410D01*
X85677000Y-58030000D01*
X85677000Y-57845113D01*
X103743847Y-57845113D01*
X104044472Y-58365811D01*
X104779944Y-57941186D01*
X104838051Y-57724329D01*
X104791771Y-57644171D01*
X104591356Y-57490387D01*
X104347345Y-57425003D01*
X104096887Y-57457977D01*
X103878113Y-57584286D01*
X103801954Y-57628257D01*
X103743847Y-57845113D01*
X85677000Y-57845113D01*
X85677000Y-53948061D01*
X85706673Y-54019698D01*
X85885301Y-54198327D01*
X86118690Y-54295000D01*
X86584250Y-54295000D01*
X86743000Y-54136250D01*
X86743000Y-53287000D01*
X86997000Y-53287000D01*
X86997000Y-54136250D01*
X87155750Y-54295000D01*
X87621310Y-54295000D01*
X87854699Y-54198327D01*
X88033327Y-54019698D01*
X88130000Y-53786309D01*
X88130000Y-53445750D01*
X87971250Y-53287000D01*
X86997000Y-53287000D01*
X86743000Y-53287000D01*
X86723000Y-53287000D01*
X86723000Y-53033000D01*
X86743000Y-53033000D01*
X86743000Y-53013000D01*
X86997000Y-53013000D01*
X86997000Y-53033000D01*
X87971250Y-53033000D01*
X88130000Y-52874250D01*
X88130000Y-52533691D01*
X88033327Y-52300302D01*
X87854699Y-52121673D01*
X87679110Y-52048942D01*
X87798567Y-51972073D01*
X87896064Y-51829381D01*
X87913256Y-51744484D01*
X89978115Y-51678514D01*
X100649720Y-52778072D01*
X104463078Y-55404428D01*
X105905576Y-58447850D01*
X105290594Y-58907426D01*
X105163367Y-58687064D01*
X105201054Y-58546414D01*
X105168080Y-58295957D01*
X105121801Y-58215799D01*
X104904944Y-58157692D01*
X104169472Y-58582317D01*
X104180472Y-58601370D01*
X103960502Y-58728370D01*
X103949502Y-58709317D01*
X103214030Y-59133942D01*
X103155923Y-59350799D01*
X103202203Y-59430957D01*
X103402618Y-59584741D01*
X103543267Y-59622429D01*
X103686937Y-59871272D01*
X103731342Y-59922977D01*
X99540236Y-62250141D01*
X99530057Y-62258771D01*
X99517532Y-62263387D01*
X99438520Y-62336377D01*
X99356459Y-62405949D01*
X99350355Y-62417822D01*
X99340553Y-62426877D01*
X93626201Y-70286516D01*
X93488725Y-70343320D01*
X93284039Y-70547650D01*
X93173126Y-70814756D01*
X93172874Y-71103975D01*
X93283320Y-71371275D01*
X93487650Y-71575961D01*
X93754756Y-71686874D01*
X94043975Y-71687126D01*
X94311275Y-71576680D01*
X94515961Y-71372350D01*
X94626874Y-71105244D01*
X94626957Y-71010201D01*
X96469834Y-68475469D01*
X101290794Y-68475469D01*
X101471427Y-68912635D01*
X101805606Y-69247397D01*
X102242456Y-69428793D01*
X102715469Y-69429206D01*
X102758174Y-69411561D01*
X103062034Y-69723932D01*
X104832207Y-79589061D01*
X104867144Y-79678105D01*
X104894676Y-79769703D01*
X106984248Y-83703017D01*
X106737362Y-84546545D01*
X106728118Y-84650867D01*
X106713468Y-84754577D01*
X106717531Y-84770333D01*
X106716095Y-84786541D01*
X106747479Y-84886466D01*
X106773632Y-84987881D01*
X106783415Y-85000883D01*
X106788291Y-85016407D01*
X106855523Y-85096713D01*
X106918496Y-85180403D01*
X106932511Y-85188671D01*
X106942956Y-85201148D01*
X107035803Y-85249613D01*
X107126009Y-85302833D01*
X107526008Y-85442832D01*
X107558970Y-85447488D01*
X107589281Y-85461252D01*
X107677338Y-85464208D01*
X107764576Y-85476531D01*
X107796809Y-85468219D01*
X107830082Y-85469336D01*
X107912575Y-85438366D01*
X107997880Y-85416368D01*
X108024477Y-85396355D01*
X108055647Y-85384653D01*
X108345647Y-85204653D01*
X108402610Y-85151390D01*
X108466446Y-85106605D01*
X108489816Y-85069848D01*
X108521634Y-85040097D01*
X108553876Y-84969094D01*
X108595718Y-84903284D01*
X108603244Y-84860376D01*
X108621252Y-84820718D01*
X108623868Y-84742785D01*
X108633965Y-84685221D01*
X108667211Y-84676690D01*
X108727397Y-84631517D01*
X108793632Y-84595774D01*
X108822868Y-84559859D01*
X108859908Y-84532058D01*
X108898232Y-84467278D01*
X108945738Y-84408920D01*
X108959004Y-84364556D01*
X108982587Y-84324693D01*
X109112586Y-83954693D01*
X109125263Y-83865724D01*
X109146842Y-83778494D01*
X109142129Y-83747352D01*
X109146573Y-83716166D01*
X109124237Y-83629119D01*
X109110792Y-83540270D01*
X109094519Y-83513299D01*
X109086690Y-83482789D01*
X109032749Y-83410922D01*
X108986322Y-83333975D01*
X108960966Y-83315285D01*
X108942058Y-83290093D01*
X108864715Y-83244337D01*
X108843128Y-83228424D01*
X108263327Y-82115000D01*
X109647500Y-82115000D01*
X109647500Y-82750000D01*
X109694504Y-82986307D01*
X109828362Y-83186638D01*
X110028693Y-83320496D01*
X110265000Y-83367500D01*
X110900000Y-83367500D01*
X111136307Y-83320496D01*
X111336638Y-83186638D01*
X111971639Y-82551638D01*
X112105496Y-82351307D01*
X112152500Y-82115000D01*
X112152500Y-82097500D01*
X112170000Y-82097500D01*
X112406308Y-82050496D01*
X112606639Y-81916639D01*
X112740496Y-81716308D01*
X112787500Y-81480000D01*
X112740496Y-81243693D01*
X112606639Y-81043362D01*
X111971638Y-80408362D01*
X111771307Y-80274504D01*
X111535000Y-80227500D01*
X111298693Y-80274504D01*
X111098362Y-80408362D01*
X110964504Y-80608693D01*
X110917500Y-80845000D01*
X110917500Y-80862500D01*
X110900000Y-80862500D01*
X110663693Y-80909504D01*
X110463362Y-81043361D01*
X109828363Y-81678361D01*
X109828362Y-81678362D01*
X109694504Y-81878693D01*
X109647500Y-82115000D01*
X108263327Y-82115000D01*
X106660469Y-79036945D01*
X106651256Y-78986978D01*
X107822627Y-78986978D01*
X108195658Y-79487608D01*
X109619262Y-80089333D01*
X111164772Y-80100466D01*
X112596896Y-79519311D01*
X112644342Y-79487608D01*
X113017373Y-78986978D01*
X110420000Y-76389605D01*
X107822627Y-78986978D01*
X106651256Y-78986978D01*
X106276537Y-76954772D01*
X106529534Y-76954772D01*
X107110689Y-78386896D01*
X107142392Y-78434342D01*
X107643022Y-78807373D01*
X110240395Y-76210000D01*
X107643022Y-73612627D01*
X107142392Y-73985658D01*
X106540667Y-75409262D01*
X106529534Y-76954772D01*
X106276537Y-76954772D01*
X104787263Y-68878027D01*
X104752257Y-68790049D01*
X104724853Y-68699411D01*
X104370528Y-68035053D01*
X104324853Y-67949413D01*
X104309176Y-67930275D01*
X104300165Y-67907232D01*
X104296953Y-67903890D01*
X104295202Y-67899599D01*
X104243213Y-67847068D01*
X104199863Y-67787207D01*
X103649863Y-67277207D01*
X103605774Y-67250095D01*
X103568880Y-67213796D01*
X103504131Y-67187591D01*
X103444626Y-67150999D01*
X103393516Y-67142823D01*
X103345542Y-67123407D01*
X103275692Y-67123974D01*
X103206715Y-67112940D01*
X103156372Y-67124944D01*
X103104613Y-67125364D01*
X103040295Y-67152620D01*
X102990415Y-67164513D01*
X102717544Y-67051207D01*
X102244531Y-67050794D01*
X101807365Y-67231427D01*
X101472603Y-67565606D01*
X101291207Y-68002456D01*
X101290794Y-68475469D01*
X96469834Y-68475469D01*
X100259148Y-63263570D01*
X104364036Y-60984279D01*
X104411937Y-61127008D01*
X104636937Y-61516720D01*
X104741840Y-61638870D01*
X104895494Y-61717971D01*
X105067817Y-61731061D01*
X105231656Y-61676075D01*
X105597788Y-61464689D01*
X106234546Y-61447214D01*
X111150149Y-69713492D01*
X112553635Y-72894052D01*
X111220738Y-72330667D01*
X109675228Y-72319534D01*
X108243104Y-72900689D01*
X108195658Y-72932392D01*
X107822627Y-73433022D01*
X110420000Y-76030395D01*
X110434143Y-76016253D01*
X110613748Y-76195858D01*
X110599605Y-76210000D01*
X113196978Y-78807373D01*
X113507905Y-78575694D01*
X112977261Y-82890827D01*
X106556301Y-91430975D01*
X106495672Y-91204702D01*
X106341887Y-91004287D01*
X106123113Y-90877977D01*
X106046954Y-90834007D01*
X105830097Y-90892113D01*
X105529472Y-91412811D01*
X105546793Y-91422811D01*
X105421793Y-91639317D01*
X105404472Y-91629317D01*
X105393472Y-91648370D01*
X105173502Y-91521370D01*
X105184502Y-91502317D01*
X104449030Y-91077692D01*
X104232173Y-91135799D01*
X104185894Y-91215957D01*
X104152920Y-91466414D01*
X104190607Y-91607064D01*
X104046937Y-91855906D01*
X103993604Y-92007831D01*
X103994703Y-92030625D01*
X100835990Y-90644329D01*
X104515923Y-90644329D01*
X104574030Y-90861186D01*
X105309502Y-91285811D01*
X105610127Y-90765113D01*
X105552020Y-90548257D01*
X105475861Y-90504286D01*
X105257087Y-90377977D01*
X105006629Y-90345003D01*
X104762618Y-90410387D01*
X104562203Y-90564171D01*
X104515923Y-90644329D01*
X100835990Y-90644329D01*
X100768160Y-90614560D01*
X100666723Y-90592172D01*
X100566666Y-90564266D01*
X95934997Y-90213234D01*
X94037620Y-86224734D01*
X93999787Y-86173960D01*
X93972116Y-86117000D01*
X93928501Y-86078291D01*
X93893661Y-86031534D01*
X93839276Y-85999103D01*
X93791915Y-85957069D01*
X93746030Y-85930213D01*
X101659392Y-85930213D01*
X101728857Y-86172397D01*
X102252302Y-86359144D01*
X102807368Y-86331362D01*
X103191143Y-86172397D01*
X103260608Y-85930213D01*
X102460000Y-85129605D01*
X101659392Y-85930213D01*
X93746030Y-85930213D01*
X92984953Y-85484769D01*
X93114781Y-85347210D01*
X94945385Y-85347210D01*
X95003492Y-85564067D01*
X95298425Y-85734347D01*
X95548882Y-85767320D01*
X95792893Y-85701938D01*
X95993309Y-85548154D01*
X96119618Y-85329379D01*
X96226089Y-85144967D01*
X96167982Y-84928110D01*
X95846154Y-84742302D01*
X101050856Y-84742302D01*
X101078638Y-85297368D01*
X101237603Y-85681143D01*
X101479787Y-85750608D01*
X102280395Y-84950000D01*
X102639605Y-84950000D01*
X103440213Y-85750608D01*
X103682397Y-85681143D01*
X103869144Y-85157698D01*
X103841362Y-84602632D01*
X103682397Y-84218857D01*
X103440213Y-84149392D01*
X102639605Y-84950000D01*
X102280395Y-84950000D01*
X101479787Y-84149392D01*
X101237603Y-84218857D01*
X101050856Y-84742302D01*
X95846154Y-84742302D01*
X95432510Y-84503485D01*
X94945385Y-85347210D01*
X93114781Y-85347210D01*
X93873129Y-84543709D01*
X93881349Y-84543313D01*
X94019000Y-84477195D01*
X93994458Y-84663611D01*
X94059841Y-84907622D01*
X94213625Y-85108038D01*
X94508558Y-85278317D01*
X94725415Y-85220210D01*
X95212540Y-84376485D01*
X95195219Y-84366485D01*
X95243121Y-84283515D01*
X95559510Y-84283515D01*
X96294982Y-84708140D01*
X96511839Y-84650033D01*
X96618309Y-84465621D01*
X96744619Y-84246846D01*
X96777592Y-83996389D01*
X96770464Y-83969787D01*
X101659392Y-83969787D01*
X102460000Y-84770395D01*
X103260608Y-83969787D01*
X103191143Y-83727603D01*
X102667698Y-83540856D01*
X102112632Y-83568638D01*
X101728857Y-83727603D01*
X101659392Y-83969787D01*
X96770464Y-83969787D01*
X96712209Y-83752378D01*
X96558425Y-83551962D01*
X96263492Y-83381683D01*
X96046635Y-83439790D01*
X95559510Y-84283515D01*
X95243121Y-84283515D01*
X95322219Y-84146515D01*
X95339540Y-84156515D01*
X95826665Y-83312790D01*
X95796398Y-83199833D01*
X96960841Y-82771474D01*
X96987927Y-82813567D01*
X97130619Y-82911064D01*
X97300000Y-82945365D01*
X98000000Y-82945365D01*
X98158237Y-82915591D01*
X98303567Y-82822073D01*
X98401064Y-82679381D01*
X98435365Y-82510000D01*
X98435365Y-81210000D01*
X98405591Y-81051763D01*
X98312073Y-80906433D01*
X98169381Y-80808936D01*
X98000000Y-80774635D01*
X97300000Y-80774635D01*
X97141763Y-80804409D01*
X96996433Y-80897927D01*
X96898936Y-81040619D01*
X96864635Y-81210000D01*
X96864635Y-81490952D01*
X94253253Y-82451590D01*
X94045313Y-82331535D01*
X93011896Y-78109479D01*
X93046874Y-78025244D01*
X93046954Y-77933833D01*
X93199911Y-77725880D01*
X93580421Y-77208558D01*
X93882941Y-77125365D01*
X95060000Y-77125365D01*
X95218237Y-77095591D01*
X95363567Y-77002073D01*
X95461064Y-76859381D01*
X95474753Y-76791782D01*
X96601035Y-76607833D01*
X96601035Y-76633600D01*
X96630809Y-76791837D01*
X96724327Y-76937167D01*
X96867019Y-77034664D01*
X97036400Y-77068965D01*
X97625536Y-77068965D01*
X97380825Y-77117641D01*
X96962124Y-77397408D01*
X96780042Y-77669912D01*
X95408084Y-77642394D01*
X95372073Y-77586433D01*
X95229381Y-77488936D01*
X95060000Y-77454635D01*
X93760000Y-77454635D01*
X93601763Y-77484409D01*
X93456433Y-77577927D01*
X93358936Y-77720619D01*
X93324635Y-77890000D01*
X93324635Y-78590000D01*
X93354409Y-78748237D01*
X93447927Y-78893567D01*
X93590619Y-78991064D01*
X93760000Y-79025365D01*
X95060000Y-79025365D01*
X95218237Y-78995591D01*
X95363567Y-78902073D01*
X95380635Y-78877093D01*
X96749616Y-78904551D01*
X96962124Y-79222592D01*
X97380825Y-79502359D01*
X97874716Y-79600600D01*
X97925284Y-79600600D01*
X98419175Y-79502359D01*
X98837876Y-79222592D01*
X99117643Y-78803891D01*
X99170000Y-78540675D01*
X99222357Y-78803891D01*
X99502124Y-79222592D01*
X99564200Y-79264070D01*
X99184777Y-80777499D01*
X99041763Y-80804409D01*
X98896433Y-80897927D01*
X98798936Y-81040619D01*
X98764635Y-81210000D01*
X98764635Y-82510000D01*
X98794409Y-82668237D01*
X98887927Y-82813567D01*
X99030619Y-82911064D01*
X99200000Y-82945365D01*
X99900000Y-82945365D01*
X100058237Y-82915591D01*
X100203567Y-82822073D01*
X100301064Y-82679381D01*
X100335365Y-82510000D01*
X100335365Y-81266653D01*
X100768155Y-79540355D01*
X100959175Y-79502359D01*
X101377876Y-79222592D01*
X101657643Y-78803891D01*
X101755884Y-78310000D01*
X101657643Y-77816109D01*
X101377876Y-77397408D01*
X100987560Y-77136607D01*
X101328490Y-76976821D01*
X101722688Y-76544947D01*
X101894958Y-76129026D01*
X101773817Y-75897000D01*
X100567000Y-75897000D01*
X100567000Y-75917000D01*
X100313000Y-75917000D01*
X100313000Y-75897000D01*
X100293000Y-75897000D01*
X100293000Y-75643000D01*
X100313000Y-75643000D01*
X100313000Y-74435531D01*
X100567000Y-74435531D01*
X100567000Y-75643000D01*
X101773817Y-75643000D01*
X101894958Y-75410974D01*
X101722688Y-74995053D01*
X101328490Y-74563179D01*
X100799027Y-74315032D01*
X100567000Y-74435531D01*
X100313000Y-74435531D01*
X100080973Y-74315032D01*
X99551510Y-74563179D01*
X99198965Y-74949419D01*
X99198965Y-74906400D01*
X99169191Y-74748163D01*
X99075673Y-74602833D01*
X98932981Y-74505336D01*
X98763600Y-74471035D01*
X97036400Y-74471035D01*
X96878163Y-74500809D01*
X96732833Y-74594327D01*
X96635336Y-74737019D01*
X96601035Y-74906400D01*
X96601035Y-75356471D01*
X95206306Y-75584263D01*
X95060000Y-75554635D01*
X93760000Y-75554635D01*
X93601763Y-75584409D01*
X93456433Y-75677927D01*
X93358936Y-75820619D01*
X93324635Y-75990000D01*
X93324635Y-75998052D01*
X93046266Y-76074603D01*
X92970322Y-76112677D01*
X92890449Y-76141612D01*
X92863505Y-76166227D01*
X92830881Y-76182583D01*
X92775292Y-76246817D01*
X92712568Y-76304120D01*
X92657337Y-76379209D01*
X92552350Y-76274039D01*
X92285244Y-76163126D01*
X91996025Y-76162874D01*
X91728725Y-76273320D01*
X91524039Y-76477650D01*
X91413126Y-76744756D01*
X91412874Y-77033975D01*
X91523320Y-77301275D01*
X91552438Y-77330444D01*
X91525525Y-77366569D01*
X91454152Y-77461041D01*
X91453620Y-77463087D01*
X91452355Y-77464785D01*
X91434414Y-77535765D01*
X88316838Y-78627094D01*
X88014030Y-78415066D01*
X87867332Y-78348695D01*
X87694645Y-78341942D01*
X87532935Y-78402906D01*
X87407685Y-78521981D01*
X86662036Y-79586879D01*
X86595665Y-79733576D01*
X86588912Y-79906264D01*
X86649876Y-80067973D01*
X86768951Y-80193224D01*
X87342358Y-80594728D01*
X87489056Y-80661099D01*
X87661743Y-80667852D01*
X87823453Y-80606888D01*
X87948703Y-80487813D01*
X88341405Y-79926976D01*
X91618087Y-78779950D01*
X92589826Y-82795248D01*
X92636460Y-82895921D01*
X92679923Y-82998034D01*
X92726315Y-83066025D01*
X92531425Y-83403584D01*
X92478092Y-83555508D01*
X92484940Y-83697526D01*
X91261000Y-85043114D01*
X91227717Y-85098419D01*
X91215143Y-85112586D01*
X91123720Y-85104588D01*
X90963491Y-85120457D01*
X90810563Y-85200953D01*
X90701000Y-85334604D01*
X90652068Y-85500351D01*
X90591059Y-86197687D01*
X90606928Y-86357917D01*
X90687424Y-86510845D01*
X90821075Y-86620408D01*
X90986823Y-86669340D01*
X92207218Y-86776110D01*
X92773563Y-87099137D01*
X95344398Y-92603975D01*
X96983380Y-102615586D01*
X97019491Y-104673899D01*
X96609311Y-103663104D01*
X96577608Y-103615658D01*
X96076978Y-103242627D01*
X93479605Y-105840000D01*
X96076978Y-108437373D01*
X96577608Y-108064342D01*
X97058992Y-106925450D01*
X97079982Y-108121871D01*
X93632420Y-115151814D01*
X92525782Y-115963349D01*
X92525244Y-115963126D01*
X92236025Y-115962874D01*
X92178254Y-115986744D01*
X90044621Y-115357705D01*
X90021837Y-115355641D01*
X90000854Y-115346524D01*
X79239898Y-113013179D01*
X76541065Y-110449287D01*
X76517258Y-110070760D01*
X76540000Y-110075365D01*
X76827339Y-110075365D01*
X76930302Y-110178327D01*
X77163691Y-110275000D01*
X77256250Y-110275000D01*
X77415000Y-110116250D01*
X77415000Y-109267000D01*
X77665000Y-109267000D01*
X77665000Y-110116250D01*
X77823750Y-110275000D01*
X77916309Y-110275000D01*
X78149698Y-110178327D01*
X78328327Y-109999699D01*
X78425000Y-109766310D01*
X78425000Y-109425750D01*
X78266250Y-109267000D01*
X77665000Y-109267000D01*
X77415000Y-109267000D01*
X77393000Y-109267000D01*
X77393000Y-109017124D01*
X77394188Y-109013000D01*
X77415000Y-109013000D01*
X77415000Y-108993000D01*
X77665000Y-108993000D01*
X77665000Y-109013000D01*
X78266250Y-109013000D01*
X78425000Y-108854250D01*
X78425000Y-108616978D01*
X90702627Y-108616978D01*
X91075658Y-109117608D01*
X92499262Y-109719333D01*
X94044772Y-109730466D01*
X95476896Y-109149311D01*
X95524342Y-109117608D01*
X95897373Y-108616978D01*
X93300000Y-106019605D01*
X90702627Y-108616978D01*
X78425000Y-108616978D01*
X78425000Y-108513690D01*
X78328327Y-108280301D01*
X78296006Y-108247980D01*
X79618021Y-107581371D01*
X79645023Y-107560269D01*
X79676840Y-107547537D01*
X81156076Y-106584772D01*
X89409534Y-106584772D01*
X89990689Y-108016896D01*
X90022392Y-108064342D01*
X90523022Y-108437373D01*
X93120395Y-105840000D01*
X90523022Y-103242627D01*
X90022392Y-103615658D01*
X89420667Y-105039262D01*
X89409534Y-106584772D01*
X81156076Y-106584772D01*
X86567056Y-103063022D01*
X90702627Y-103063022D01*
X93300000Y-105660395D01*
X95897373Y-103063022D01*
X95524342Y-102562392D01*
X94100738Y-101960667D01*
X92555228Y-101949534D01*
X91123104Y-102530689D01*
X91075658Y-102562392D01*
X90702627Y-103063022D01*
X86567056Y-103063022D01*
X93084554Y-98821093D01*
X94443407Y-98457247D01*
X94514756Y-98486874D01*
X94803975Y-98487126D01*
X95071275Y-98376680D01*
X95275961Y-98172350D01*
X95386874Y-97905244D01*
X95387126Y-97616025D01*
X95276680Y-97348725D01*
X95072350Y-97144039D01*
X94805244Y-97033126D01*
X94516025Y-97032874D01*
X94248725Y-97143320D01*
X94128876Y-97262961D01*
X92670285Y-97653513D01*
X92583249Y-97696415D01*
X92493160Y-97732463D01*
X79031641Y-106493926D01*
X76701978Y-107668629D01*
X76692606Y-107675954D01*
X76681278Y-107679565D01*
X76598016Y-107749879D01*
X76512141Y-107816994D01*
X76506288Y-107827344D01*
X76497200Y-107835018D01*
X76447174Y-107931866D01*
X76393531Y-108026713D01*
X76392084Y-108038515D01*
X76386625Y-108049083D01*
X76328229Y-108251815D01*
X76309381Y-108238936D01*
X76297295Y-108236489D01*
X76266706Y-108075045D01*
X76254757Y-108045440D01*
X76251784Y-108013651D01*
X76210008Y-107934564D01*
X76176532Y-107851619D01*
X76154161Y-107828838D01*
X76139250Y-107800609D01*
X76070387Y-107743526D01*
X76007720Y-107679710D01*
X75978339Y-107667225D01*
X75953756Y-107646848D01*
X75868292Y-107620465D01*
X75785972Y-107585485D01*
X75754043Y-107585195D01*
X75723540Y-107575778D01*
X75059421Y-107507076D01*
X72730877Y-105338149D01*
X72661126Y-105295041D01*
X72597393Y-105243455D01*
X69902958Y-103826625D01*
X70166238Y-103563345D01*
X70257074Y-103430401D01*
X70293711Y-103261509D01*
X70265473Y-103111434D01*
X70439186Y-103183388D01*
X70691805Y-103183388D01*
X70925194Y-103086715D01*
X71166006Y-102845903D01*
X71166006Y-102621397D01*
X70477107Y-101932498D01*
X70462965Y-101946641D01*
X70283359Y-101767035D01*
X70297502Y-101752893D01*
X70656712Y-101752893D01*
X71345611Y-102441792D01*
X71570117Y-102441792D01*
X71810929Y-102200980D01*
X71907602Y-101967591D01*
X71907602Y-101714972D01*
X71810930Y-101481583D01*
X71632301Y-101302955D01*
X71481729Y-101152383D01*
X71257223Y-101152383D01*
X70656712Y-101752893D01*
X70297502Y-101752893D01*
X69608603Y-101063994D01*
X69384097Y-101063994D01*
X69143285Y-101304806D01*
X69046612Y-101538195D01*
X69046612Y-101790814D01*
X69119343Y-101966403D01*
X68980519Y-101936289D01*
X68810680Y-101968246D01*
X68666655Y-102063762D01*
X68080799Y-102649618D01*
X63179520Y-99221805D01*
X65435434Y-99221805D01*
X65443757Y-99394424D01*
X65518583Y-99550205D01*
X65648121Y-99664601D01*
X68332799Y-101214601D01*
X68484724Y-101267934D01*
X68657343Y-101259611D01*
X68813123Y-101184785D01*
X68927519Y-101055246D01*
X69155781Y-100659883D01*
X69788208Y-100659883D01*
X69788208Y-100884389D01*
X70477107Y-101573288D01*
X71077617Y-100972777D01*
X71077617Y-100957750D01*
X72280999Y-100957750D01*
X72280999Y-101814310D01*
X72377672Y-102047699D01*
X72556301Y-102226327D01*
X72789690Y-102323000D01*
X73138249Y-102323000D01*
X73296999Y-102164250D01*
X73296999Y-100799000D01*
X73550999Y-100799000D01*
X73550999Y-102164250D01*
X73709749Y-102323000D01*
X74058308Y-102323000D01*
X74291697Y-102226327D01*
X74470326Y-102047699D01*
X74566999Y-101814310D01*
X74566999Y-100957750D01*
X74408249Y-100799000D01*
X73550999Y-100799000D01*
X73296999Y-100799000D01*
X72439749Y-100799000D01*
X72280999Y-100957750D01*
X71077617Y-100957750D01*
X71077617Y-100748271D01*
X70927045Y-100597699D01*
X70748417Y-100419070D01*
X70515028Y-100322398D01*
X70262409Y-100322398D01*
X70029020Y-100419071D01*
X69788208Y-100659883D01*
X69155781Y-100659883D01*
X69427519Y-100189220D01*
X69480852Y-100037297D01*
X69472529Y-99864678D01*
X69397703Y-99708897D01*
X69268165Y-99594501D01*
X69155910Y-99529690D01*
X72280999Y-99529690D01*
X72280999Y-100386250D01*
X72439749Y-100545000D01*
X73296999Y-100545000D01*
X73296999Y-99179750D01*
X73550999Y-99179750D01*
X73550999Y-100545000D01*
X74408249Y-100545000D01*
X74566999Y-100386250D01*
X74566999Y-99529690D01*
X74470326Y-99296301D01*
X74291697Y-99117673D01*
X74058308Y-99021000D01*
X73709749Y-99021000D01*
X73550999Y-99179750D01*
X73296999Y-99179750D01*
X73138249Y-99021000D01*
X72789690Y-99021000D01*
X72556301Y-99117673D01*
X72377672Y-99296301D01*
X72280999Y-99529690D01*
X69155910Y-99529690D01*
X68290447Y-99030015D01*
X68525088Y-98272978D01*
X68574176Y-98223975D01*
X74592874Y-98223975D01*
X74703320Y-98491275D01*
X74767034Y-98555100D01*
X74888017Y-99359172D01*
X74800936Y-99486620D01*
X74766635Y-99656001D01*
X74766635Y-101688001D01*
X74796409Y-101846238D01*
X74889927Y-101991568D01*
X75032619Y-102089065D01*
X75202000Y-102123366D01*
X75520741Y-102123366D01*
X77593628Y-105502861D01*
X77664979Y-105579984D01*
X77732320Y-105660636D01*
X77746432Y-105668026D01*
X77757249Y-105679718D01*
X77852672Y-105723660D01*
X77945762Y-105772408D01*
X77961631Y-105773835D01*
X77976097Y-105780497D01*
X78081066Y-105784578D01*
X78185730Y-105793992D01*
X78200936Y-105789238D01*
X78216851Y-105789857D01*
X78315394Y-105753456D01*
X78415691Y-105722101D01*
X78855692Y-105482100D01*
X78931120Y-105419121D01*
X79010942Y-105361849D01*
X79023035Y-105342376D01*
X79040636Y-105327680D01*
X79086219Y-105240634D01*
X79138052Y-105157169D01*
X79141773Y-105134545D01*
X79152408Y-105114237D01*
X79161210Y-105016380D01*
X79177157Y-104919428D01*
X79137157Y-103719428D01*
X79121288Y-103651552D01*
X79116940Y-103581986D01*
X79094125Y-103535365D01*
X79082307Y-103484818D01*
X79041671Y-103428183D01*
X79011032Y-103365575D01*
X78972108Y-103331230D01*
X78941849Y-103289058D01*
X78882636Y-103252286D01*
X78830368Y-103206167D01*
X78400368Y-102956167D01*
X78167699Y-102820894D01*
X77723605Y-102123365D01*
X78504001Y-102123365D01*
X78662238Y-102093591D01*
X78807568Y-102000073D01*
X78905065Y-101857381D01*
X78939366Y-101688000D01*
X78939366Y-100025381D01*
X82377495Y-100025381D01*
X82432481Y-100189220D01*
X82932481Y-101055246D01*
X83037384Y-101177396D01*
X83191039Y-101256498D01*
X83363362Y-101269587D01*
X83527201Y-101214601D01*
X86211879Y-99664601D01*
X86334028Y-99559698D01*
X86413129Y-99406044D01*
X86426219Y-99233721D01*
X86371233Y-99069882D01*
X85871233Y-98203856D01*
X85766330Y-98081706D01*
X85612675Y-98002604D01*
X85440352Y-97989515D01*
X85276513Y-98044501D01*
X82591835Y-99594501D01*
X82469686Y-99699404D01*
X82390585Y-99853058D01*
X82377495Y-100025381D01*
X78939366Y-100025381D01*
X78939366Y-99656000D01*
X78909592Y-99497763D01*
X78816074Y-99352433D01*
X78673382Y-99254936D01*
X78631059Y-99246365D01*
X78652438Y-97505867D01*
X78652889Y-97505416D01*
X80652466Y-97505416D01*
X80696437Y-97581575D01*
X80822746Y-97800349D01*
X81023162Y-97954134D01*
X81267174Y-98019516D01*
X81517631Y-97986542D01*
X82721890Y-97291263D01*
X82779997Y-97074406D01*
X82355372Y-96338934D01*
X80710573Y-97288559D01*
X80652466Y-97505416D01*
X78652889Y-97505416D01*
X78655961Y-97502350D01*
X78766874Y-97235244D01*
X78767126Y-96946025D01*
X78656680Y-96678725D01*
X78654780Y-96676821D01*
X78763896Y-96465091D01*
X80163463Y-96465091D01*
X80196436Y-96715549D01*
X80322746Y-96934323D01*
X80366716Y-97010482D01*
X80583573Y-97068589D01*
X82067343Y-96211934D01*
X82575342Y-96211934D01*
X82999967Y-96947406D01*
X83216824Y-97005513D01*
X84421083Y-96310233D01*
X84574867Y-96109818D01*
X84640251Y-95865807D01*
X84607278Y-95615349D01*
X84480968Y-95396575D01*
X84436998Y-95320416D01*
X84220141Y-95262309D01*
X82575342Y-96211934D01*
X82067343Y-96211934D01*
X82228372Y-96118964D01*
X81803747Y-95383492D01*
X81586890Y-95325385D01*
X80382631Y-96020665D01*
X80228847Y-96221080D01*
X80163463Y-96465091D01*
X78763896Y-96465091D01*
X79386758Y-95256492D01*
X82023717Y-95256492D01*
X82448342Y-95991964D01*
X84093141Y-95042339D01*
X84151248Y-94825482D01*
X84107277Y-94749323D01*
X83980968Y-94530549D01*
X83780552Y-94376764D01*
X83536540Y-94311382D01*
X83286083Y-94344356D01*
X82081824Y-95039635D01*
X82023717Y-95256492D01*
X79386758Y-95256492D01*
X80009869Y-94047412D01*
X82003746Y-92423414D01*
X82073813Y-92471288D01*
X82242705Y-92507925D01*
X82412544Y-92475968D01*
X82556569Y-92380452D01*
X82830742Y-92106279D01*
X88093781Y-92106279D01*
X88148767Y-92270118D01*
X88648767Y-93136144D01*
X88753670Y-93258294D01*
X88907325Y-93337396D01*
X89079648Y-93350485D01*
X89243487Y-93295499D01*
X91807211Y-91815332D01*
X91467757Y-94469985D01*
X90308121Y-95139501D01*
X90185972Y-95244404D01*
X90106871Y-95398058D01*
X90093781Y-95570381D01*
X90148767Y-95734220D01*
X90648767Y-96600246D01*
X90753670Y-96722396D01*
X90907325Y-96801498D01*
X91079648Y-96814587D01*
X91243487Y-96759601D01*
X93928165Y-95209601D01*
X94050314Y-95104698D01*
X94129415Y-94951044D01*
X94142505Y-94778721D01*
X94087519Y-94614882D01*
X93587519Y-93748856D01*
X93482616Y-93626706D01*
X93328961Y-93547604D01*
X93156638Y-93534515D01*
X92992799Y-93589501D01*
X92812059Y-93693852D01*
X93302513Y-89858323D01*
X93296762Y-89775309D01*
X93301229Y-89692214D01*
X93288505Y-89656129D01*
X93285861Y-89617963D01*
X93248780Y-89543471D01*
X93221107Y-89464990D01*
X92564711Y-88358307D01*
X92587932Y-88279649D01*
X92648941Y-87582313D01*
X92633072Y-87422083D01*
X92552576Y-87269155D01*
X92418925Y-87159592D01*
X92253177Y-87110660D01*
X90958124Y-86997358D01*
X90797895Y-87013227D01*
X90780527Y-87022369D01*
X90692350Y-86934039D01*
X90425244Y-86823126D01*
X90136025Y-86822874D01*
X89868725Y-86933320D01*
X89664039Y-87137650D01*
X89553126Y-87404756D01*
X89552874Y-87693975D01*
X89663320Y-87961275D01*
X89867650Y-88165961D01*
X90134756Y-88276874D01*
X90423975Y-88277126D01*
X90449662Y-88266512D01*
X90521828Y-88403615D01*
X90655479Y-88513178D01*
X90821227Y-88562110D01*
X91273149Y-88601648D01*
X92050549Y-89912343D01*
X91927606Y-90873802D01*
X91587519Y-90284754D01*
X91482616Y-90162604D01*
X91328961Y-90083502D01*
X91156638Y-90070413D01*
X90992799Y-90125399D01*
X88308121Y-91675399D01*
X88185972Y-91780302D01*
X88106871Y-91933956D01*
X88093781Y-92106279D01*
X82830742Y-92106279D01*
X83440452Y-91496569D01*
X83531288Y-91363625D01*
X83567925Y-91194733D01*
X83556460Y-91133799D01*
X85835751Y-88957262D01*
X85836384Y-88956657D01*
X85871360Y-88906855D01*
X85914675Y-88865494D01*
X88474862Y-85218913D01*
X88601275Y-85166680D01*
X88805961Y-84962350D01*
X88916874Y-84695244D01*
X88917126Y-84406025D01*
X88806680Y-84138725D01*
X88602350Y-83934039D01*
X88335244Y-83823126D01*
X88046025Y-83822874D01*
X87778725Y-83933320D01*
X87574039Y-84137650D01*
X87463126Y-84404756D01*
X87463034Y-84510795D01*
X84938857Y-88106084D01*
X82752990Y-90193407D01*
X82733345Y-90173762D01*
X82600401Y-90082926D01*
X82431509Y-90046289D01*
X82281434Y-90074527D01*
X82353388Y-89900814D01*
X82353388Y-89648195D01*
X82256715Y-89414806D01*
X82015903Y-89173994D01*
X81791397Y-89173994D01*
X81102498Y-89862893D01*
X81116641Y-89877035D01*
X80937035Y-90056641D01*
X80922893Y-90042498D01*
X80233994Y-90731397D01*
X80233994Y-90955903D01*
X80474806Y-91196715D01*
X80708195Y-91293388D01*
X80960814Y-91293388D01*
X81136403Y-91220657D01*
X81106289Y-91359481D01*
X81138246Y-91529320D01*
X81140926Y-91533361D01*
X79130035Y-93171217D01*
X79126286Y-93175751D01*
X79121139Y-93178602D01*
X79049652Y-93268425D01*
X78976496Y-93356895D01*
X78974767Y-93362519D01*
X78971104Y-93367122D01*
X77461105Y-96297120D01*
X77453938Y-96322089D01*
X77439504Y-96343691D01*
X77435915Y-96361734D01*
X77426612Y-96377601D01*
X77415993Y-96454290D01*
X77394634Y-96528706D01*
X77397568Y-96554518D01*
X77392500Y-96579998D01*
X77392500Y-96580000D01*
X77396089Y-96598042D01*
X77393566Y-96616261D01*
X77400510Y-96734313D01*
X77313126Y-96944756D01*
X77312874Y-97233975D01*
X77417573Y-97487366D01*
X77396070Y-99237933D01*
X77329764Y-99250409D01*
X77184434Y-99343927D01*
X77086937Y-99486619D01*
X77052636Y-99656000D01*
X77052636Y-101069488D01*
X76790889Y-100658367D01*
X76770457Y-100637011D01*
X76757195Y-100610596D01*
X76687769Y-100550584D01*
X76653365Y-100514624D01*
X76653365Y-99656001D01*
X76623591Y-99497764D01*
X76530073Y-99352434D01*
X76387381Y-99254937D01*
X76218000Y-99220636D01*
X76116074Y-99220636D01*
X75987734Y-98367667D01*
X76046874Y-98225244D01*
X76047126Y-97936025D01*
X75936680Y-97668725D01*
X75732350Y-97464039D01*
X75465244Y-97353126D01*
X75176025Y-97352874D01*
X74908725Y-97463320D01*
X74704039Y-97667650D01*
X74593126Y-97934756D01*
X74592874Y-98223975D01*
X68574176Y-98223975D01*
X68665961Y-98132350D01*
X68776874Y-97865244D01*
X68777126Y-97576025D01*
X68666680Y-97308725D01*
X68462350Y-97104039D01*
X68195244Y-96993126D01*
X67906025Y-96992874D01*
X67638725Y-97103320D01*
X67434039Y-97307650D01*
X67323126Y-97574756D01*
X67322874Y-97863975D01*
X67343456Y-97913787D01*
X67193739Y-98396830D01*
X66583487Y-98044501D01*
X66431562Y-97991168D01*
X66258943Y-97999491D01*
X66103163Y-98074317D01*
X65988767Y-98203856D01*
X65488767Y-99069882D01*
X65435434Y-99221805D01*
X63179520Y-99221805D01*
X61424505Y-97994399D01*
X56823581Y-94766805D01*
X57719148Y-94766805D01*
X57727471Y-94939424D01*
X57802297Y-95095205D01*
X57931835Y-95209601D01*
X60616513Y-96759601D01*
X60768438Y-96812934D01*
X60941057Y-96804611D01*
X61096837Y-96729785D01*
X61211233Y-96600246D01*
X61697675Y-95757703D01*
X67435434Y-95757703D01*
X67443757Y-95930322D01*
X67518583Y-96086103D01*
X67648121Y-96200499D01*
X70332799Y-97750499D01*
X70484724Y-97803832D01*
X70657343Y-97795509D01*
X70813123Y-97720683D01*
X70927519Y-97591144D01*
X71427519Y-96725118D01*
X71480852Y-96573195D01*
X71472529Y-96400576D01*
X71397703Y-96244795D01*
X71268165Y-96130399D01*
X68583487Y-94580399D01*
X68431562Y-94527066D01*
X68258943Y-94535389D01*
X68103163Y-94610215D01*
X67988767Y-94739754D01*
X67488767Y-95605780D01*
X67435434Y-95757703D01*
X61697675Y-95757703D01*
X61711233Y-95734220D01*
X61764566Y-95582297D01*
X61756243Y-95409678D01*
X61681417Y-95253897D01*
X61551879Y-95139501D01*
X58867201Y-93589501D01*
X58715276Y-93536168D01*
X58542657Y-93544491D01*
X58386877Y-93619317D01*
X58272481Y-93748856D01*
X57772481Y-94614882D01*
X57719148Y-94766805D01*
X56823581Y-94766805D01*
X53762471Y-92619406D01*
X61363717Y-92619406D01*
X61421824Y-92836263D01*
X62626083Y-93531542D01*
X62876540Y-93564516D01*
X63120552Y-93499134D01*
X63320968Y-93345349D01*
X63447277Y-93126575D01*
X63490334Y-93051999D01*
X73445835Y-93051999D01*
X73445835Y-95083999D01*
X73475609Y-95242236D01*
X73569127Y-95387566D01*
X73711819Y-95485063D01*
X73881200Y-95519364D01*
X75002991Y-95519364D01*
X75002874Y-95653975D01*
X75113320Y-95921275D01*
X75317650Y-96125961D01*
X75584756Y-96236874D01*
X75873975Y-96237126D01*
X76141275Y-96126680D01*
X76345961Y-95922350D01*
X76456874Y-95655244D01*
X76456992Y-95519364D01*
X77538800Y-95519364D01*
X77697037Y-95489590D01*
X77842367Y-95396072D01*
X77939864Y-95253380D01*
X77974165Y-95083999D01*
X77974165Y-93051999D01*
X77944391Y-92893762D01*
X77850873Y-92748432D01*
X77708181Y-92650935D01*
X77538800Y-92616634D01*
X73881200Y-92616634D01*
X73722963Y-92646408D01*
X73577633Y-92739926D01*
X73480136Y-92882618D01*
X73445835Y-93051999D01*
X63490334Y-93051999D01*
X63491248Y-93050416D01*
X63433141Y-92833559D01*
X61788342Y-91883934D01*
X61363717Y-92619406D01*
X53762471Y-92619406D01*
X52814625Y-91954483D01*
X52805204Y-91950328D01*
X52797848Y-91943119D01*
X52695298Y-91901853D01*
X52594178Y-91857254D01*
X52583883Y-91857020D01*
X52574329Y-91853176D01*
X50226368Y-91410807D01*
X59503463Y-91410807D01*
X59568847Y-91654818D01*
X59722631Y-91855233D01*
X60926890Y-92550513D01*
X61143747Y-92492406D01*
X61568372Y-91756934D01*
X61407344Y-91663964D01*
X61915342Y-91663964D01*
X63560141Y-92613589D01*
X63776998Y-92555482D01*
X63820968Y-92479323D01*
X63947278Y-92260549D01*
X63980251Y-92010091D01*
X63914867Y-91766080D01*
X63761083Y-91565665D01*
X62556824Y-90870385D01*
X62339967Y-90928492D01*
X61915342Y-91663964D01*
X61407344Y-91663964D01*
X59923573Y-90807309D01*
X59706716Y-90865416D01*
X59662746Y-90941575D01*
X59536436Y-91160349D01*
X59503463Y-91410807D01*
X50226368Y-91410807D01*
X50189543Y-91403869D01*
X50183236Y-90964831D01*
X50286874Y-90715244D01*
X50287126Y-90426025D01*
X50264177Y-90370482D01*
X59992466Y-90370482D01*
X60050573Y-90587339D01*
X61695372Y-91536964D01*
X62119997Y-90801492D01*
X62061890Y-90584635D01*
X61242029Y-90111288D01*
X72116423Y-90111288D01*
X72378279Y-90550335D01*
X72788218Y-90855753D01*
X73133315Y-90964562D01*
X73324193Y-90823707D01*
X73235521Y-89810179D01*
X72221993Y-89898851D01*
X72116423Y-90111288D01*
X61242029Y-90111288D01*
X60857631Y-89889356D01*
X60607174Y-89856382D01*
X60363162Y-89921764D01*
X60162746Y-90075549D01*
X60036437Y-90294323D01*
X59992466Y-90370482D01*
X50264177Y-90370482D01*
X50176680Y-90158725D01*
X49972350Y-89954039D01*
X49705244Y-89843126D01*
X49416025Y-89842874D01*
X49148725Y-89953320D01*
X48944039Y-90157650D01*
X48833126Y-90424756D01*
X48832874Y-90713975D01*
X48943320Y-90981275D01*
X48948418Y-90986382D01*
X48951558Y-91204926D01*
X48883405Y-91205616D01*
X48848979Y-91220286D01*
X48811871Y-91225148D01*
X48124548Y-91457991D01*
X48118160Y-91450552D01*
X48047917Y-91414391D01*
X48053049Y-91346831D01*
X47998063Y-91182992D01*
X47773063Y-90793280D01*
X47668160Y-90671130D01*
X47514506Y-90592029D01*
X47342183Y-90578939D01*
X47178344Y-90633925D01*
X46910478Y-90788578D01*
X45893486Y-90569416D01*
X44984358Y-89788041D01*
X73488555Y-89788041D01*
X73577227Y-90801569D01*
X73789664Y-90907139D01*
X74228711Y-90645283D01*
X74534129Y-90235344D01*
X74642938Y-89890247D01*
X74594770Y-89824972D01*
X79492398Y-89824972D01*
X79492398Y-90077591D01*
X79589071Y-90310980D01*
X79829883Y-90551792D01*
X80054389Y-90551792D01*
X80743288Y-89862893D01*
X80142777Y-89262383D01*
X79918271Y-89262383D01*
X79767699Y-89412955D01*
X79589070Y-89591583D01*
X79492398Y-89824972D01*
X74594770Y-89824972D01*
X74502083Y-89699369D01*
X73488555Y-89788041D01*
X44984358Y-89788041D01*
X44596794Y-89454939D01*
X72059000Y-89454939D01*
X72199855Y-89645817D01*
X73213383Y-89557145D01*
X73124711Y-88543617D01*
X73080164Y-88521479D01*
X73377745Y-88521479D01*
X73466417Y-89535007D01*
X74479945Y-89446335D01*
X74585515Y-89233898D01*
X74361484Y-88858271D01*
X80322383Y-88858271D01*
X80322383Y-89082777D01*
X80922893Y-89683288D01*
X81611792Y-88994389D01*
X81611792Y-88769883D01*
X81370980Y-88529071D01*
X81137591Y-88432398D01*
X80884972Y-88432398D01*
X80651583Y-88529070D01*
X80472955Y-88707699D01*
X80322383Y-88858271D01*
X74361484Y-88858271D01*
X74323659Y-88794851D01*
X73913720Y-88489433D01*
X73568623Y-88380624D01*
X73377745Y-88521479D01*
X73080164Y-88521479D01*
X72912274Y-88438047D01*
X72473227Y-88699903D01*
X72167809Y-89109842D01*
X72059000Y-89454939D01*
X44596794Y-89454939D01*
X42972362Y-88058777D01*
X41489198Y-86547629D01*
X40957078Y-85185469D01*
X49290794Y-85185469D01*
X49471427Y-85622635D01*
X49805606Y-85957397D01*
X50242456Y-86138793D01*
X50715469Y-86139206D01*
X51152635Y-85958573D01*
X51487397Y-85624394D01*
X51668793Y-85187544D01*
X51669206Y-84714531D01*
X51488573Y-84277365D01*
X51154394Y-83942603D01*
X50717544Y-83761207D01*
X50244531Y-83760794D01*
X49807365Y-83941427D01*
X49472603Y-84275606D01*
X49291207Y-84712456D01*
X49290794Y-85185469D01*
X40957078Y-85185469D01*
X40328348Y-83576000D01*
X55116635Y-83576000D01*
X55116635Y-84276000D01*
X55146409Y-84434237D01*
X55239927Y-84579567D01*
X55382619Y-84677064D01*
X55552000Y-84711365D01*
X55892754Y-84711365D01*
X57112779Y-87266103D01*
X57175477Y-87349983D01*
X57233721Y-87436998D01*
X57247274Y-87446038D01*
X57257028Y-87459087D01*
X57347047Y-87512585D01*
X57434163Y-87570690D01*
X60154635Y-88694923D01*
X60154635Y-88970000D01*
X60184409Y-89128237D01*
X60277927Y-89273567D01*
X60420619Y-89371064D01*
X60590000Y-89405365D01*
X61290000Y-89405365D01*
X61448237Y-89375591D01*
X61593567Y-89282073D01*
X61691064Y-89139381D01*
X61725365Y-88970000D01*
X61725365Y-87670000D01*
X62054635Y-87670000D01*
X62054635Y-88970000D01*
X62084409Y-89128237D01*
X62177927Y-89273567D01*
X62320619Y-89371064D01*
X62490000Y-89405365D01*
X63190000Y-89405365D01*
X63348237Y-89375591D01*
X63493567Y-89282073D01*
X63591064Y-89139381D01*
X63625365Y-88970000D01*
X63625365Y-88266470D01*
X64439313Y-87079151D01*
X64457199Y-87037384D01*
X64484735Y-87001247D01*
X64928659Y-86093365D01*
X65122000Y-86093365D01*
X65280237Y-86063591D01*
X65425567Y-85970073D01*
X65523064Y-85827381D01*
X65531043Y-85787978D01*
X65584491Y-85798573D01*
X65592583Y-85834302D01*
X65693324Y-85974722D01*
X65840758Y-86064886D01*
X67015374Y-86492411D01*
X67174252Y-86518553D01*
X67342803Y-86480381D01*
X67483223Y-86379640D01*
X67573387Y-86232205D01*
X67915407Y-85292512D01*
X67941549Y-85133635D01*
X67903377Y-84965084D01*
X67802636Y-84824664D01*
X67655202Y-84734500D01*
X66480586Y-84306975D01*
X66321708Y-84280833D01*
X66153157Y-84319005D01*
X66012737Y-84419746D01*
X65922573Y-84567181D01*
X65909205Y-84603910D01*
X65557365Y-84534166D01*
X65557365Y-84358000D01*
X65527591Y-84199763D01*
X65434073Y-84054433D01*
X65291381Y-83956936D01*
X65122000Y-83922635D01*
X64422000Y-83922635D01*
X64263763Y-83952409D01*
X64118433Y-84045927D01*
X64020936Y-84188619D01*
X63986635Y-84358000D01*
X63986635Y-85208421D01*
X63395127Y-86418133D01*
X62835386Y-87234635D01*
X62490000Y-87234635D01*
X62331763Y-87264409D01*
X62186433Y-87357927D01*
X62088936Y-87500619D01*
X62054635Y-87670000D01*
X61725365Y-87670000D01*
X61695591Y-87511763D01*
X61602073Y-87366433D01*
X61459381Y-87268936D01*
X61290000Y-87234635D01*
X60590000Y-87234635D01*
X60431763Y-87264409D01*
X60286433Y-87357927D01*
X60257041Y-87400943D01*
X58322184Y-86601365D01*
X58650000Y-86601365D01*
X58808237Y-86571591D01*
X58953567Y-86478073D01*
X59051064Y-86335381D01*
X59085365Y-86166000D01*
X59085365Y-85371809D01*
X59443270Y-84724597D01*
X59414635Y-84866000D01*
X59414635Y-86166000D01*
X59444409Y-86324237D01*
X59537927Y-86469567D01*
X59680619Y-86567064D01*
X59850000Y-86601365D01*
X60550000Y-86601365D01*
X60708237Y-86571591D01*
X60853567Y-86478073D01*
X60951064Y-86335381D01*
X60985365Y-86166000D01*
X60985365Y-85995248D01*
X62109865Y-85781458D01*
X62116409Y-85816237D01*
X62209927Y-85961567D01*
X62352619Y-86059064D01*
X62522000Y-86093365D01*
X63222000Y-86093365D01*
X63380237Y-86063591D01*
X63525567Y-85970073D01*
X63623064Y-85827381D01*
X63657365Y-85658000D01*
X63657365Y-84358000D01*
X63627591Y-84199763D01*
X63534073Y-84054433D01*
X63391381Y-83956936D01*
X63222000Y-83922635D01*
X62522000Y-83922635D01*
X62363763Y-83952409D01*
X62218433Y-84045927D01*
X62120936Y-84188619D01*
X62086635Y-84358000D01*
X62086635Y-84528752D01*
X60962135Y-84742542D01*
X60955591Y-84707763D01*
X60884735Y-84597651D01*
X60915186Y-84171744D01*
X61038237Y-84148591D01*
X61183567Y-84055073D01*
X61281064Y-83912381D01*
X61315365Y-83743000D01*
X61315365Y-83093000D01*
X61285591Y-82934763D01*
X61192073Y-82789433D01*
X61049381Y-82691936D01*
X60880000Y-82657635D01*
X59877500Y-82657635D01*
X59877500Y-82530000D01*
X59867812Y-82481296D01*
X59869621Y-82431674D01*
X59844894Y-82278365D01*
X60325919Y-82278365D01*
X60613651Y-82499559D01*
X60714737Y-82549522D01*
X60814501Y-82602036D01*
X60822470Y-82602770D01*
X60829645Y-82606316D01*
X60942131Y-82613789D01*
X61054422Y-82624130D01*
X63112465Y-82408241D01*
X63132409Y-82514237D01*
X63225927Y-82659567D01*
X63368619Y-82757064D01*
X63538000Y-82791365D01*
X64238000Y-82791365D01*
X64396237Y-82761591D01*
X64541567Y-82668073D01*
X64639064Y-82525381D01*
X64673365Y-82356000D01*
X64673365Y-81056000D01*
X65002635Y-81056000D01*
X65002635Y-82356000D01*
X65032409Y-82514237D01*
X65125927Y-82659567D01*
X65268619Y-82757064D01*
X65438000Y-82791365D01*
X65938192Y-82791365D01*
X66388173Y-83287955D01*
X66264593Y-83627488D01*
X66238451Y-83786365D01*
X66276623Y-83954916D01*
X66377364Y-84095336D01*
X66524798Y-84185500D01*
X67699414Y-84613025D01*
X67858292Y-84639167D01*
X68026843Y-84600995D01*
X68073873Y-84567255D01*
X68907895Y-85016349D01*
X69536537Y-86618177D01*
X69190750Y-87030270D01*
X69111846Y-87170625D01*
X69090068Y-87342066D01*
X69136706Y-87508474D01*
X69244412Y-87643626D01*
X70240270Y-88479250D01*
X70380625Y-88558154D01*
X70552066Y-88579932D01*
X70718474Y-88533294D01*
X70853626Y-88425588D01*
X71689250Y-87429730D01*
X71768154Y-87289375D01*
X71789932Y-87117934D01*
X71743294Y-86951526D01*
X71635588Y-86816374D01*
X70639730Y-85980750D01*
X70605535Y-85961526D01*
X69974818Y-84354411D01*
X69923274Y-84274053D01*
X69878535Y-84189730D01*
X69858656Y-84173313D01*
X69844734Y-84151609D01*
X69766361Y-84097094D01*
X69692759Y-84036311D01*
X68588956Y-83441949D01*
X68599447Y-83413126D01*
X68625589Y-83254249D01*
X68587417Y-83085698D01*
X68486676Y-82945278D01*
X68339242Y-82855114D01*
X67329563Y-82487621D01*
X66573365Y-81653096D01*
X66573365Y-81056000D01*
X66543591Y-80897763D01*
X66450073Y-80752433D01*
X66307381Y-80654936D01*
X66138000Y-80620635D01*
X65438000Y-80620635D01*
X65279763Y-80650409D01*
X65134433Y-80743927D01*
X65036936Y-80886619D01*
X65002635Y-81056000D01*
X64673365Y-81056000D01*
X64643591Y-80897763D01*
X64550073Y-80752433D01*
X64407381Y-80654936D01*
X64238000Y-80620635D01*
X63538000Y-80620635D01*
X63379763Y-80650409D01*
X63234433Y-80743927D01*
X63136936Y-80886619D01*
X63102635Y-81056000D01*
X63102635Y-81167497D01*
X62192126Y-81263009D01*
X62236874Y-81155244D01*
X62237126Y-80866025D01*
X62201656Y-80780180D01*
X62234049Y-80647365D01*
X62440000Y-80647365D01*
X62598237Y-80617591D01*
X62743567Y-80524073D01*
X62841064Y-80381381D01*
X62875365Y-80212000D01*
X62875365Y-79555750D01*
X71295000Y-79555750D01*
X71295000Y-79896310D01*
X71391673Y-80129699D01*
X71570302Y-80308327D01*
X71803691Y-80405000D01*
X72494250Y-80405000D01*
X72653000Y-80246250D01*
X72653000Y-79397000D01*
X72907000Y-79397000D01*
X72907000Y-80246250D01*
X73065750Y-80405000D01*
X73756309Y-80405000D01*
X73989698Y-80308327D01*
X74168327Y-80129699D01*
X74265000Y-79896310D01*
X74265000Y-79555750D01*
X74106250Y-79397000D01*
X72907000Y-79397000D01*
X72653000Y-79397000D01*
X71453750Y-79397000D01*
X71295000Y-79555750D01*
X62875365Y-79555750D01*
X62875365Y-79512000D01*
X62845591Y-79353763D01*
X62752073Y-79208433D01*
X62609381Y-79110936D01*
X62440000Y-79076635D01*
X61568979Y-79076635D01*
X61888420Y-78747365D01*
X62440000Y-78747365D01*
X62598237Y-78717591D01*
X62713081Y-78643690D01*
X71295000Y-78643690D01*
X71295000Y-78984250D01*
X71453750Y-79143000D01*
X72653000Y-79143000D01*
X72653000Y-78293750D01*
X72907000Y-78293750D01*
X72907000Y-79143000D01*
X74106250Y-79143000D01*
X74265000Y-78984250D01*
X74265000Y-78770000D01*
X78544635Y-78770000D01*
X78544635Y-79770000D01*
X78574409Y-79928237D01*
X78667927Y-80073567D01*
X78810619Y-80171064D01*
X78980000Y-80205365D01*
X80580000Y-80205365D01*
X80738237Y-80175591D01*
X80883567Y-80082073D01*
X80981064Y-79939381D01*
X81015365Y-79770000D01*
X81015365Y-79267679D01*
X82887354Y-78182619D01*
X85034672Y-78761552D01*
X85032524Y-78816470D01*
X85093488Y-78978179D01*
X85212563Y-79103430D01*
X85785970Y-79504934D01*
X85932668Y-79571305D01*
X86105355Y-79578058D01*
X86267065Y-79517094D01*
X86392315Y-79398019D01*
X87137964Y-78333121D01*
X87204335Y-78186424D01*
X87211088Y-78013736D01*
X87150124Y-77852027D01*
X87031049Y-77726776D01*
X86457642Y-77325272D01*
X86310944Y-77258901D01*
X86138257Y-77252148D01*
X85976547Y-77313112D01*
X85851297Y-77432187D01*
X85692007Y-77659677D01*
X84393526Y-77309597D01*
X85489663Y-76674243D01*
X85564647Y-76608256D01*
X85643926Y-76547527D01*
X87667933Y-74243413D01*
X90465939Y-74594160D01*
X90517650Y-74645961D01*
X90784756Y-74756874D01*
X91073975Y-74757126D01*
X91341275Y-74646680D01*
X91545961Y-74442350D01*
X91656874Y-74175244D01*
X91657126Y-73886025D01*
X91546680Y-73618725D01*
X91342350Y-73414039D01*
X91075244Y-73303126D01*
X90786025Y-73302874D01*
X90624953Y-73369427D01*
X88073038Y-73049529D01*
X88326260Y-69059106D01*
X88318268Y-68999361D01*
X88322192Y-68939204D01*
X88302450Y-68881109D01*
X88294316Y-68820297D01*
X88264067Y-68768156D01*
X88244672Y-68711079D01*
X87204672Y-66911079D01*
X87152289Y-66851387D01*
X87108439Y-66785170D01*
X87073526Y-66761632D01*
X87045753Y-66729984D01*
X86974519Y-66694884D01*
X86908663Y-66650485D01*
X86867395Y-66642099D01*
X86829629Y-66623490D01*
X86750384Y-66618321D01*
X86672552Y-66602505D01*
X85973377Y-66599616D01*
X85943240Y-66554512D01*
X85642500Y-66353564D01*
X85287752Y-66283000D01*
X83212248Y-66283000D01*
X82857500Y-66353564D01*
X82556760Y-66554512D01*
X82355812Y-66855252D01*
X82285248Y-67210000D01*
X82355812Y-67564748D01*
X82556760Y-67865488D01*
X82857500Y-68066436D01*
X83212248Y-68137000D01*
X85287752Y-68137000D01*
X85642500Y-68066436D01*
X85943240Y-67865488D01*
X85963887Y-67834588D01*
X86312768Y-67836029D01*
X87003325Y-69031225D01*
X86815244Y-68953126D01*
X86526025Y-68952874D01*
X86410574Y-69000577D01*
X86163552Y-68952602D01*
X86144188Y-68855252D01*
X85943240Y-68554512D01*
X85642500Y-68353564D01*
X85287752Y-68283000D01*
X83212248Y-68283000D01*
X82857500Y-68353564D01*
X82556760Y-68554512D01*
X82355812Y-68855252D01*
X82285248Y-69210000D01*
X82355812Y-69564748D01*
X82556760Y-69865488D01*
X82857500Y-70066436D01*
X83037381Y-70102217D01*
X82698322Y-70209998D01*
X82357632Y-70497237D01*
X82155881Y-70908126D01*
X82282046Y-71083000D01*
X84123000Y-71083000D01*
X84123000Y-71063000D01*
X84377000Y-71063000D01*
X84377000Y-71083000D01*
X86217954Y-71083000D01*
X86344119Y-70908126D01*
X86142368Y-70497237D01*
X85801678Y-70209998D01*
X85462619Y-70102217D01*
X85533002Y-70088217D01*
X86174672Y-70212838D01*
X86257650Y-70295961D01*
X86524756Y-70406874D01*
X86813975Y-70407126D01*
X87008331Y-70326820D01*
X86817078Y-73340704D01*
X84782830Y-75656479D01*
X82490337Y-76985276D01*
X82490334Y-76985279D01*
X80162369Y-78334635D01*
X78980000Y-78334635D01*
X78821763Y-78364409D01*
X78676433Y-78457927D01*
X78578936Y-78600619D01*
X78544635Y-78770000D01*
X74265000Y-78770000D01*
X74265000Y-78643690D01*
X74168327Y-78410301D01*
X73989698Y-78231673D01*
X73756309Y-78135000D01*
X73065750Y-78135000D01*
X72907000Y-78293750D01*
X72653000Y-78293750D01*
X72494250Y-78135000D01*
X71803691Y-78135000D01*
X71570302Y-78231673D01*
X71391673Y-78410301D01*
X71295000Y-78643690D01*
X62713081Y-78643690D01*
X62743567Y-78624073D01*
X62841064Y-78481381D01*
X62875365Y-78312000D01*
X62875365Y-77612000D01*
X62845591Y-77453763D01*
X62752073Y-77308433D01*
X62609381Y-77210936D01*
X62560233Y-77200983D01*
X62798622Y-75923975D01*
X65052874Y-75923975D01*
X65163320Y-76191275D01*
X65367650Y-76395961D01*
X65634756Y-76506874D01*
X65923975Y-76507126D01*
X66191275Y-76396680D01*
X66395961Y-76192350D01*
X66429604Y-76111330D01*
X67990142Y-75179560D01*
X68295308Y-75179560D01*
X68435643Y-75319895D01*
X68544557Y-75583488D01*
X68748887Y-75788174D01*
X69015993Y-75899087D01*
X69305212Y-75899339D01*
X69572512Y-75788893D01*
X69777198Y-75584563D01*
X69888111Y-75317457D01*
X69888363Y-75028238D01*
X69777917Y-74760938D01*
X69573587Y-74556252D01*
X69308461Y-74446161D01*
X68999300Y-74137000D01*
X69287752Y-74137000D01*
X69642500Y-74066436D01*
X69943240Y-73865488D01*
X70144188Y-73564748D01*
X70214752Y-73210000D01*
X70207243Y-73172248D01*
X70323000Y-73172248D01*
X70323000Y-75247752D01*
X70393564Y-75602500D01*
X70594512Y-75903240D01*
X70895252Y-76104188D01*
X71250000Y-76174752D01*
X71604748Y-76104188D01*
X71905488Y-75903240D01*
X72106436Y-75602500D01*
X72177000Y-75247752D01*
X72177000Y-73172248D01*
X72323000Y-73172248D01*
X72323000Y-75247752D01*
X72393564Y-75602500D01*
X72594512Y-75903240D01*
X72895252Y-76104188D01*
X73250000Y-76174752D01*
X73604748Y-76104188D01*
X73905488Y-75903240D01*
X74106436Y-75602500D01*
X74177000Y-75247752D01*
X74177000Y-73172248D01*
X74323000Y-73172248D01*
X74323000Y-75247752D01*
X74393564Y-75602500D01*
X74594512Y-75903240D01*
X74895252Y-76104188D01*
X75250000Y-76174752D01*
X75604748Y-76104188D01*
X75905488Y-75903240D01*
X76106436Y-75602500D01*
X76177000Y-75247752D01*
X76177000Y-73172248D01*
X76323000Y-73172248D01*
X76323000Y-75247752D01*
X76393564Y-75602500D01*
X76594512Y-75903240D01*
X76895252Y-76104188D01*
X77250000Y-76174752D01*
X77604748Y-76104188D01*
X77905488Y-75903240D01*
X78106436Y-75602500D01*
X78177000Y-75247752D01*
X78177000Y-73172248D01*
X78323000Y-73172248D01*
X78323000Y-75247752D01*
X78393564Y-75602500D01*
X78594512Y-75903240D01*
X78895252Y-76104188D01*
X79250000Y-76174752D01*
X79604748Y-76104188D01*
X79905488Y-75903240D01*
X80106436Y-75602500D01*
X80177000Y-75247752D01*
X80177000Y-73172248D01*
X80323000Y-73172248D01*
X80323000Y-75247752D01*
X80393564Y-75602500D01*
X80594512Y-75903240D01*
X80895252Y-76104188D01*
X81250000Y-76174752D01*
X81604748Y-76104188D01*
X81905488Y-75903240D01*
X82106436Y-75602500D01*
X82177000Y-75247752D01*
X82177000Y-73554885D01*
X82357632Y-73922763D01*
X82698322Y-74210002D01*
X83123000Y-74345000D01*
X84123000Y-74345000D01*
X84123000Y-73337000D01*
X84377000Y-73337000D01*
X84377000Y-74345000D01*
X85377000Y-74345000D01*
X85801678Y-74210002D01*
X86142368Y-73922763D01*
X86344119Y-73511874D01*
X86217954Y-73337000D01*
X84377000Y-73337000D01*
X84123000Y-73337000D01*
X84103000Y-73337000D01*
X84103000Y-73083000D01*
X84123000Y-73083000D01*
X84123000Y-71337000D01*
X84377000Y-71337000D01*
X84377000Y-73083000D01*
X86217954Y-73083000D01*
X86344119Y-72908126D01*
X86142368Y-72497237D01*
X85801680Y-72210000D01*
X86142368Y-71922763D01*
X86344119Y-71511874D01*
X86217954Y-71337000D01*
X84377000Y-71337000D01*
X84123000Y-71337000D01*
X82282046Y-71337000D01*
X82155881Y-71511874D01*
X82357632Y-71922763D01*
X82698320Y-72210000D01*
X82357632Y-72497237D01*
X82155881Y-72908126D01*
X82282045Y-73082998D01*
X82159247Y-73082998D01*
X82106436Y-72817500D01*
X81905488Y-72516760D01*
X81604748Y-72315812D01*
X81250000Y-72245248D01*
X80895252Y-72315812D01*
X80594512Y-72516760D01*
X80393564Y-72817500D01*
X80323000Y-73172248D01*
X80177000Y-73172248D01*
X80106436Y-72817500D01*
X79905488Y-72516760D01*
X79604748Y-72315812D01*
X79250000Y-72245248D01*
X78895252Y-72315812D01*
X78594512Y-72516760D01*
X78393564Y-72817500D01*
X78323000Y-73172248D01*
X78177000Y-73172248D01*
X78106436Y-72817500D01*
X77905488Y-72516760D01*
X77604748Y-72315812D01*
X77250000Y-72245248D01*
X76895252Y-72315812D01*
X76594512Y-72516760D01*
X76393564Y-72817500D01*
X76323000Y-73172248D01*
X76177000Y-73172248D01*
X76106436Y-72817500D01*
X75905488Y-72516760D01*
X75604748Y-72315812D01*
X75250000Y-72245248D01*
X74895252Y-72315812D01*
X74594512Y-72516760D01*
X74393564Y-72817500D01*
X74323000Y-73172248D01*
X74177000Y-73172248D01*
X74106436Y-72817500D01*
X73905488Y-72516760D01*
X73604748Y-72315812D01*
X73250000Y-72245248D01*
X72895252Y-72315812D01*
X72594512Y-72516760D01*
X72393564Y-72817500D01*
X72323000Y-73172248D01*
X72177000Y-73172248D01*
X72106436Y-72817500D01*
X71905488Y-72516760D01*
X71604748Y-72315812D01*
X71250000Y-72245248D01*
X70895252Y-72315812D01*
X70594512Y-72516760D01*
X70393564Y-72817500D01*
X70323000Y-73172248D01*
X70207243Y-73172248D01*
X70144188Y-72855252D01*
X69943240Y-72554512D01*
X69642500Y-72353564D01*
X69287752Y-72283000D01*
X67257978Y-72283000D01*
X67614867Y-72137000D01*
X69287752Y-72137000D01*
X69642500Y-72066436D01*
X69943240Y-71865488D01*
X70144188Y-71564748D01*
X70214752Y-71210000D01*
X70144188Y-70855252D01*
X69943240Y-70554512D01*
X69642500Y-70353564D01*
X69287752Y-70283000D01*
X67212248Y-70283000D01*
X66857500Y-70353564D01*
X66556760Y-70554512D01*
X66355812Y-70855252D01*
X66285248Y-71210000D01*
X66288554Y-71226620D01*
X66078725Y-71313320D01*
X65874039Y-71517650D01*
X65763126Y-71784756D01*
X65762874Y-72073975D01*
X65873320Y-72341275D01*
X66077650Y-72545961D01*
X66344756Y-72656874D01*
X66488280Y-72656999D01*
X66355812Y-72855252D01*
X66285248Y-73210000D01*
X66355812Y-73564748D01*
X66556760Y-73865488D01*
X66857500Y-74066436D01*
X67207375Y-74136031D01*
X67168493Y-74231757D01*
X65793050Y-75053011D01*
X65636025Y-75052874D01*
X65368725Y-75163320D01*
X65164039Y-75367650D01*
X65053126Y-75634756D01*
X65052874Y-75923975D01*
X62798622Y-75923975D01*
X63335461Y-73048232D01*
X63428231Y-72986708D01*
X63923206Y-72491733D01*
X64014042Y-72358789D01*
X64050679Y-72189897D01*
X64018722Y-72020058D01*
X63923206Y-71876033D01*
X63003967Y-70956794D01*
X62871023Y-70865958D01*
X62702131Y-70829321D01*
X62532292Y-70861278D01*
X62388267Y-70956794D01*
X61893292Y-71451769D01*
X61802456Y-71584713D01*
X61765819Y-71753605D01*
X61797776Y-71923444D01*
X61893292Y-72067469D01*
X62204177Y-72378354D01*
X61350617Y-76950717D01*
X61334130Y-76940231D01*
X60505365Y-76413106D01*
X60505365Y-75925000D01*
X60475591Y-75766763D01*
X60382073Y-75621433D01*
X60239381Y-75523936D01*
X60070000Y-75489635D01*
X59334482Y-75489635D01*
X60086372Y-73676254D01*
X61573543Y-70410103D01*
X63109321Y-70410103D01*
X63141278Y-70579942D01*
X63236794Y-70723967D01*
X64156033Y-71643206D01*
X64288977Y-71734042D01*
X64457869Y-71770679D01*
X64627708Y-71738722D01*
X64771733Y-71643206D01*
X65266708Y-71148231D01*
X65357544Y-71015287D01*
X65394181Y-70846395D01*
X65362224Y-70676556D01*
X65266708Y-70532531D01*
X65235294Y-70501117D01*
X66319677Y-69383086D01*
X66355812Y-69564748D01*
X66556760Y-69865488D01*
X66857500Y-70066436D01*
X67212248Y-70137000D01*
X69287752Y-70137000D01*
X69642500Y-70066436D01*
X69943240Y-69865488D01*
X70144188Y-69564748D01*
X70214752Y-69210000D01*
X70144188Y-68855252D01*
X69943240Y-68554512D01*
X69642500Y-68353564D01*
X69287752Y-68283000D01*
X67553789Y-68283000D01*
X67826578Y-68137000D01*
X69287752Y-68137000D01*
X69642500Y-68066436D01*
X69943240Y-67865488D01*
X70144188Y-67564748D01*
X70214752Y-67210000D01*
X70144188Y-66855252D01*
X69943240Y-66554512D01*
X69642500Y-66353564D01*
X69287752Y-66283000D01*
X67212248Y-66283000D01*
X66857500Y-66353564D01*
X66556760Y-66554512D01*
X66355812Y-66855252D01*
X66285248Y-67210000D01*
X66355812Y-67564748D01*
X66358670Y-67569026D01*
X64361915Y-69627738D01*
X64347469Y-69613292D01*
X64214525Y-69522456D01*
X64045633Y-69485819D01*
X63875794Y-69517776D01*
X63731769Y-69613292D01*
X63236794Y-70108267D01*
X63145958Y-70241211D01*
X63109321Y-70410103D01*
X61573543Y-70410103D01*
X64241986Y-64549623D01*
X64241987Y-64549618D01*
X64256093Y-64518638D01*
X65058691Y-63823975D01*
X65652874Y-63823975D01*
X65763320Y-64091275D01*
X65967650Y-64295961D01*
X66234756Y-64406874D01*
X66523975Y-64407126D01*
X66791275Y-64296680D01*
X66902857Y-64185292D01*
X67146796Y-64123981D01*
X67212248Y-64137000D01*
X69287752Y-64137000D01*
X69456600Y-64103414D01*
X70045295Y-64231033D01*
X70684179Y-64550475D01*
X70687438Y-64586323D01*
X70535244Y-64523126D01*
X70246025Y-64522874D01*
X69998673Y-64625078D01*
X69990286Y-64624921D01*
X69943240Y-64554512D01*
X69642500Y-64353564D01*
X69287752Y-64283000D01*
X67212248Y-64283000D01*
X66857500Y-64353564D01*
X66556760Y-64554512D01*
X66355812Y-64855252D01*
X66285248Y-65210000D01*
X66355812Y-65564748D01*
X66556760Y-65865488D01*
X66857500Y-66066436D01*
X67212248Y-66137000D01*
X69287752Y-66137000D01*
X69642500Y-66066436D01*
X69943240Y-65865488D01*
X69947352Y-65859334D01*
X69971485Y-65859785D01*
X69977650Y-65865961D01*
X70244756Y-65976874D01*
X70533975Y-65977126D01*
X70801275Y-65866680D01*
X70803621Y-65864338D01*
X70871934Y-66615783D01*
X70795126Y-66800756D01*
X70794874Y-67089975D01*
X70905320Y-67357275D01*
X71109650Y-67561961D01*
X71376756Y-67672874D01*
X71665975Y-67673126D01*
X71933275Y-67562680D01*
X72137961Y-67358350D01*
X72248874Y-67091244D01*
X72249126Y-66802025D01*
X72138680Y-66534725D01*
X72101249Y-66497229D01*
X71882964Y-64096094D01*
X71862745Y-64027592D01*
X71853812Y-63956730D01*
X71828964Y-63913140D01*
X71814759Y-63865013D01*
X71769864Y-63809463D01*
X71734493Y-63747413D01*
X71694850Y-63716646D01*
X71663313Y-63677624D01*
X71600584Y-63643486D01*
X71544155Y-63599691D01*
X70528154Y-63091691D01*
X70453660Y-63071291D01*
X70382825Y-63040518D01*
X70171947Y-62994803D01*
X70170147Y-62985750D01*
X73339800Y-62985750D01*
X73339800Y-65061510D01*
X73436473Y-65294899D01*
X73615102Y-65473527D01*
X73848491Y-65570200D01*
X75924250Y-65570200D01*
X76083000Y-65411450D01*
X76083000Y-62827000D01*
X76337000Y-62827000D01*
X76337000Y-65411450D01*
X76495750Y-65570200D01*
X78571509Y-65570200D01*
X78804898Y-65473527D01*
X78983527Y-65294899D01*
X79080200Y-65061510D01*
X79080200Y-63210000D01*
X82285248Y-63210000D01*
X82355812Y-63564748D01*
X82556760Y-63865488D01*
X82857500Y-64066436D01*
X83212248Y-64137000D01*
X84779778Y-64137000D01*
X85094049Y-64283000D01*
X83212248Y-64283000D01*
X82857500Y-64353564D01*
X82556760Y-64554512D01*
X82355812Y-64855252D01*
X82285248Y-65210000D01*
X82355812Y-65564748D01*
X82556760Y-65865488D01*
X82857500Y-66066436D01*
X83212248Y-66137000D01*
X85287752Y-66137000D01*
X85642500Y-66066436D01*
X85943240Y-65865488D01*
X86073944Y-65669876D01*
X86363221Y-65644501D01*
X88347087Y-67006307D01*
X89450637Y-71458560D01*
X89492426Y-71547483D01*
X89527588Y-71639230D01*
X89543361Y-71655869D01*
X89553112Y-71676618D01*
X89625747Y-71742777D01*
X89693345Y-71814087D01*
X94030091Y-74882452D01*
X94083320Y-75011275D01*
X94287650Y-75215961D01*
X94554756Y-75326874D01*
X94843975Y-75327126D01*
X95111275Y-75216680D01*
X95315961Y-75012350D01*
X95426874Y-74745244D01*
X95427126Y-74456025D01*
X95316680Y-74188725D01*
X95313067Y-74185106D01*
X95551275Y-74086680D01*
X95755961Y-73882350D01*
X95866874Y-73615244D01*
X95867126Y-73326025D01*
X95756680Y-73058725D01*
X95552350Y-72854039D01*
X95285244Y-72743126D01*
X95106451Y-72742970D01*
X91201459Y-70550234D01*
X90047612Y-66114544D01*
X90006254Y-66029110D01*
X89972245Y-65940505D01*
X89954109Y-65921393D01*
X89942631Y-65897682D01*
X89871739Y-65834589D01*
X89806399Y-65765732D01*
X87146400Y-63885733D01*
X87095312Y-63862986D01*
X87050166Y-63829982D01*
X86172530Y-63422262D01*
X86214752Y-63210000D01*
X86144188Y-62855252D01*
X85943240Y-62554512D01*
X85642500Y-62353564D01*
X85287752Y-62283000D01*
X83212248Y-62283000D01*
X82857500Y-62353564D01*
X82556760Y-62554512D01*
X82355812Y-62855252D01*
X82285248Y-63210000D01*
X79080200Y-63210000D01*
X79080200Y-62985750D01*
X78921450Y-62827000D01*
X76337000Y-62827000D01*
X76083000Y-62827000D01*
X73498550Y-62827000D01*
X73339800Y-62985750D01*
X70170147Y-62985750D01*
X70144188Y-62855252D01*
X69943240Y-62554512D01*
X69642500Y-62353564D01*
X69287752Y-62283000D01*
X67212248Y-62283000D01*
X66857500Y-62353564D01*
X66556760Y-62554512D01*
X66355812Y-62855252D01*
X66336376Y-62952961D01*
X66236025Y-62952874D01*
X65968725Y-63063320D01*
X65764039Y-63267650D01*
X65653126Y-63534756D01*
X65652874Y-63823975D01*
X65058691Y-63823975D01*
X66945596Y-62190826D01*
X67177204Y-62130029D01*
X67212248Y-62137000D01*
X69287752Y-62137000D01*
X69642500Y-62066436D01*
X69943240Y-61865488D01*
X70144188Y-61564748D01*
X70214752Y-61210000D01*
X70144188Y-60855252D01*
X69943240Y-60554512D01*
X69642500Y-60353564D01*
X69287752Y-60283000D01*
X67212248Y-60283000D01*
X66857500Y-60353564D01*
X66556760Y-60554512D01*
X66355812Y-60855252D01*
X66301990Y-61125831D01*
X66276589Y-61138197D01*
X66263304Y-61153191D01*
X66245887Y-61163096D01*
X63345887Y-63673096D01*
X63338687Y-63682354D01*
X63328717Y-63688528D01*
X63264985Y-63777119D01*
X63197972Y-63863284D01*
X63194863Y-63874593D01*
X63188015Y-63884112D01*
X63118015Y-64037847D01*
X58958015Y-73174112D01*
X58955558Y-73184562D01*
X58949589Y-73193488D01*
X58099589Y-75243488D01*
X58090320Y-75290000D01*
X57855750Y-75290000D01*
X57697000Y-75448750D01*
X57697000Y-76423000D01*
X57717000Y-76423000D01*
X57717000Y-76677000D01*
X57697000Y-76677000D01*
X57697000Y-77651250D01*
X57727000Y-77681250D01*
X57727000Y-78373000D01*
X57747000Y-78373000D01*
X57747000Y-78627000D01*
X57727000Y-78627000D01*
X57727000Y-79601250D01*
X57885750Y-79760000D01*
X57952500Y-79760000D01*
X57952500Y-80090000D01*
X57961965Y-80137582D01*
X57960017Y-80186060D01*
X58050029Y-80757635D01*
X57620000Y-80757635D01*
X57461763Y-80787409D01*
X57316433Y-80880927D01*
X57218936Y-81023619D01*
X57197067Y-81131612D01*
X56978310Y-81041000D01*
X56487750Y-81041000D01*
X56329000Y-81199750D01*
X56329000Y-81899000D01*
X56349000Y-81899000D01*
X56349000Y-82153000D01*
X56329000Y-82153000D01*
X56329000Y-82852250D01*
X56487750Y-83011000D01*
X56978310Y-83011000D01*
X57016438Y-82995207D01*
X57046438Y-83067635D01*
X56766510Y-83140635D01*
X55552000Y-83140635D01*
X55393763Y-83170409D01*
X55248433Y-83263927D01*
X55150936Y-83406619D01*
X55116635Y-83576000D01*
X40328348Y-83576000D01*
X39834475Y-82311750D01*
X54917000Y-82311750D01*
X54917000Y-82502309D01*
X55013673Y-82735698D01*
X55192301Y-82914327D01*
X55425690Y-83011000D01*
X55916250Y-83011000D01*
X56075000Y-82852250D01*
X56075000Y-82153000D01*
X55075750Y-82153000D01*
X54917000Y-82311750D01*
X39834475Y-82311750D01*
X39536781Y-81549691D01*
X54917000Y-81549691D01*
X54917000Y-81740250D01*
X55075750Y-81899000D01*
X56075000Y-81899000D01*
X56075000Y-81199750D01*
X55916250Y-81041000D01*
X55425690Y-81041000D01*
X55192301Y-81137673D01*
X55013673Y-81316302D01*
X54917000Y-81549691D01*
X39536781Y-81549691D01*
X38549343Y-79021978D01*
X39507627Y-79021978D01*
X39880658Y-79522608D01*
X41304262Y-80124333D01*
X42849772Y-80135466D01*
X44281896Y-79554311D01*
X44329342Y-79522608D01*
X44702373Y-79021978D01*
X42105000Y-76424605D01*
X39507627Y-79021978D01*
X38549343Y-79021978D01*
X38489209Y-78868044D01*
X38506219Y-77708563D01*
X38795689Y-78421896D01*
X38827392Y-78469342D01*
X39328022Y-78842373D01*
X41925395Y-76245000D01*
X42284605Y-76245000D01*
X44881978Y-78842373D01*
X45382608Y-78469342D01*
X45984333Y-77045738D01*
X45989807Y-76285750D01*
X48990000Y-76285750D01*
X48990000Y-76626309D01*
X49086673Y-76859698D01*
X49265301Y-77038327D01*
X49440890Y-77111058D01*
X49321433Y-77187927D01*
X49223936Y-77330619D01*
X49189635Y-77500000D01*
X49189635Y-78500000D01*
X49219409Y-78658237D01*
X49312927Y-78803567D01*
X49455619Y-78901064D01*
X49562222Y-78922652D01*
X49553641Y-79038099D01*
X49524039Y-79067650D01*
X49413126Y-79334756D01*
X49412874Y-79623975D01*
X49523320Y-79891275D01*
X49727650Y-80095961D01*
X49994756Y-80206874D01*
X50283975Y-80207126D01*
X50551275Y-80096680D01*
X50755961Y-79892350D01*
X50866874Y-79625244D01*
X50867126Y-79336025D01*
X50784726Y-79136601D01*
X50799682Y-78935365D01*
X50875000Y-78935365D01*
X51033237Y-78905591D01*
X51178567Y-78812073D01*
X51196552Y-78785750D01*
X56465000Y-78785750D01*
X56465000Y-79251310D01*
X56561673Y-79484699D01*
X56740302Y-79663327D01*
X56973691Y-79760000D01*
X57314250Y-79760000D01*
X57473000Y-79601250D01*
X57473000Y-78627000D01*
X56623750Y-78627000D01*
X56465000Y-78785750D01*
X51196552Y-78785750D01*
X51276064Y-78669381D01*
X51310365Y-78500000D01*
X51310365Y-78293678D01*
X53890136Y-77422499D01*
X53924756Y-77436874D01*
X54213975Y-77437126D01*
X54481275Y-77326680D01*
X54685961Y-77122350D01*
X54796874Y-76855244D01*
X54796890Y-76835750D01*
X56435000Y-76835750D01*
X56435000Y-77301310D01*
X56531673Y-77534699D01*
X56547205Y-77550231D01*
X56465000Y-77748690D01*
X56465000Y-78214250D01*
X56623750Y-78373000D01*
X57473000Y-78373000D01*
X57473000Y-77398750D01*
X57443000Y-77368750D01*
X57443000Y-76677000D01*
X56593750Y-76677000D01*
X56435000Y-76835750D01*
X54796890Y-76835750D01*
X54797126Y-76566025D01*
X54686680Y-76298725D01*
X54482350Y-76094039D01*
X54215244Y-75983126D01*
X53926025Y-75982874D01*
X53658725Y-76093320D01*
X53501576Y-76250195D01*
X51268846Y-77004180D01*
X51413327Y-76859698D01*
X51510000Y-76626309D01*
X51510000Y-76285750D01*
X51351250Y-76127000D01*
X50377000Y-76127000D01*
X50377000Y-76147000D01*
X50123000Y-76147000D01*
X50123000Y-76127000D01*
X49148750Y-76127000D01*
X48990000Y-76285750D01*
X45989807Y-76285750D01*
X45995466Y-75500228D01*
X45944118Y-75373691D01*
X48990000Y-75373691D01*
X48990000Y-75714250D01*
X49148750Y-75873000D01*
X50123000Y-75873000D01*
X50123000Y-75023750D01*
X50377000Y-75023750D01*
X50377000Y-75873000D01*
X51351250Y-75873000D01*
X51425560Y-75798690D01*
X56435000Y-75798690D01*
X56435000Y-76264250D01*
X56593750Y-76423000D01*
X57443000Y-76423000D01*
X57443000Y-75448750D01*
X57284250Y-75290000D01*
X56943691Y-75290000D01*
X56710302Y-75386673D01*
X56531673Y-75565301D01*
X56435000Y-75798690D01*
X51425560Y-75798690D01*
X51510000Y-75714250D01*
X51510000Y-75373691D01*
X51413327Y-75140302D01*
X51234699Y-74961673D01*
X51001310Y-74865000D01*
X50535750Y-74865000D01*
X50377000Y-75023750D01*
X50123000Y-75023750D01*
X49964250Y-74865000D01*
X49498690Y-74865000D01*
X49265301Y-74961673D01*
X49086673Y-75140302D01*
X48990000Y-75373691D01*
X45944118Y-75373691D01*
X45414311Y-74068104D01*
X45382608Y-74020658D01*
X44881978Y-73647627D01*
X42284605Y-76245000D01*
X41925395Y-76245000D01*
X41911253Y-76230858D01*
X42090858Y-76051253D01*
X42105000Y-76065395D01*
X44702373Y-73468022D01*
X44329342Y-72967392D01*
X42905738Y-72365667D01*
X41360228Y-72354534D01*
X39928104Y-72935689D01*
X39880658Y-72967392D01*
X39514220Y-73459174D01*
X41848753Y-69588945D01*
X41869746Y-69530789D01*
X41901509Y-69477735D01*
X42259552Y-68475469D01*
X49290794Y-68475469D01*
X49471427Y-68912635D01*
X49805606Y-69247397D01*
X50242456Y-69428793D01*
X50715469Y-69429206D01*
X51152635Y-69248573D01*
X51487397Y-68914394D01*
X51668793Y-68477544D01*
X51669206Y-68004531D01*
X51488573Y-67567365D01*
X51154394Y-67232603D01*
X50717544Y-67051207D01*
X50244531Y-67050794D01*
X49807365Y-67231427D01*
X49472603Y-67565606D01*
X49291207Y-68002456D01*
X49290794Y-68475469D01*
X42259552Y-68475469D01*
X44650511Y-61782501D01*
X44747363Y-61674887D01*
X46749873Y-61674887D01*
X46807980Y-61891743D01*
X46884139Y-61935714D01*
X47102913Y-62062023D01*
X47353371Y-62094997D01*
X47597382Y-62029613D01*
X47797797Y-61875829D01*
X47844077Y-61795671D01*
X47785970Y-61578814D01*
X47050498Y-61154189D01*
X46749873Y-61674887D01*
X44747363Y-61674887D01*
X45840968Y-60459770D01*
X45972468Y-60497392D01*
X45956573Y-60524923D01*
X46092321Y-60603297D01*
X45878199Y-60660671D01*
X45831920Y-60740829D01*
X45798946Y-60991286D01*
X45864328Y-61235298D01*
X46018113Y-61435713D01*
X46236887Y-61562023D01*
X46313046Y-61605993D01*
X46529903Y-61547887D01*
X46830528Y-61027189D01*
X46813207Y-61017189D01*
X46938207Y-60800683D01*
X46955528Y-60810683D01*
X46966528Y-60791630D01*
X47186498Y-60918630D01*
X47175498Y-60937683D01*
X47910970Y-61362308D01*
X48127827Y-61304201D01*
X48174106Y-61224043D01*
X48207080Y-60973586D01*
X48169393Y-60832936D01*
X48313063Y-60584094D01*
X48334622Y-60522680D01*
X49834232Y-61428817D01*
X49758473Y-61813363D01*
X49674039Y-61897650D01*
X49563126Y-62164756D01*
X49562874Y-62453975D01*
X49673320Y-62721275D01*
X49877650Y-62925961D01*
X50144756Y-63036874D01*
X50433975Y-63037126D01*
X50701275Y-62926680D01*
X50905961Y-62722350D01*
X51016874Y-62455244D01*
X51017126Y-62166025D01*
X51004766Y-62136111D01*
X52150649Y-62828509D01*
X52163793Y-62833265D01*
X52174524Y-62842218D01*
X52276625Y-62874093D01*
X52377210Y-62910489D01*
X52391172Y-62909853D01*
X52404513Y-62914018D01*
X61484150Y-63882385D01*
X61527650Y-63925961D01*
X61794756Y-64036874D01*
X62083975Y-64037126D01*
X62351275Y-63926680D01*
X62555961Y-63722350D01*
X62666874Y-63455244D01*
X62667126Y-63166025D01*
X62556680Y-62898725D01*
X62352350Y-62694039D01*
X62085244Y-62583126D01*
X61796025Y-62582874D01*
X61621418Y-62655020D01*
X52671918Y-61700533D01*
X50809351Y-60575079D01*
X48936472Y-59443395D01*
X49038063Y-59328356D01*
X49069727Y-59273512D01*
X49518351Y-59267444D01*
X49616426Y-59246553D01*
X49715662Y-59232245D01*
X53905661Y-57752245D01*
X53978604Y-57708928D01*
X54056125Y-57674461D01*
X62456125Y-51744461D01*
X62480087Y-51719236D01*
X62510109Y-51701646D01*
X66354123Y-48286773D01*
X66233011Y-57638355D01*
X66233011Y-57638355D01*
G37*
X66233011Y-57638355D02*
X66247244Y-57698439D01*
X66278864Y-57737703D01*
X66323268Y-57761572D01*
X68049056Y-58283000D01*
X67212248Y-58283000D01*
X66857500Y-58353564D01*
X66556760Y-58554512D01*
X66355812Y-58855252D01*
X66285248Y-59210000D01*
X66355812Y-59564748D01*
X66556760Y-59865488D01*
X66857500Y-60066436D01*
X67212248Y-60137000D01*
X69041290Y-60137000D01*
X69817313Y-60405345D01*
X69977650Y-60565961D01*
X70244756Y-60676874D01*
X70533975Y-60677126D01*
X70801275Y-60566680D01*
X71005961Y-60362350D01*
X71015868Y-60338490D01*
X73339800Y-60338490D01*
X73339800Y-62414250D01*
X73498550Y-62573000D01*
X76083000Y-62573000D01*
X76083000Y-59988550D01*
X76337000Y-59988550D01*
X76337000Y-62573000D01*
X78921450Y-62573000D01*
X79080200Y-62414250D01*
X79080200Y-61210000D01*
X82285248Y-61210000D01*
X82355812Y-61564748D01*
X82556760Y-61865488D01*
X82857500Y-62066436D01*
X83212248Y-62137000D01*
X85287752Y-62137000D01*
X85642500Y-62066436D01*
X85943240Y-61865488D01*
X86143593Y-61565638D01*
X87548918Y-61366731D01*
X88238285Y-61354529D01*
X88484756Y-61456874D01*
X88773975Y-61457126D01*
X89041275Y-61346680D01*
X89245961Y-61142350D01*
X89356874Y-60875244D01*
X89357126Y-60586025D01*
X89246680Y-60318725D01*
X89042350Y-60114039D01*
X88775244Y-60003126D01*
X88486025Y-60002874D01*
X88218725Y-60113320D01*
X88212236Y-60119798D01*
X87489073Y-60132597D01*
X87451675Y-60140726D01*
X87413462Y-60138594D01*
X85686576Y-60383015D01*
X85642500Y-60353564D01*
X85287752Y-60283000D01*
X83212248Y-60283000D01*
X82857500Y-60353564D01*
X82556760Y-60554512D01*
X82355812Y-60855252D01*
X82285248Y-61210000D01*
X79080200Y-61210000D01*
X79080200Y-60338490D01*
X78983527Y-60105101D01*
X78804898Y-59926473D01*
X78571509Y-59829800D01*
X76495750Y-59829800D01*
X76337000Y-59988550D01*
X76083000Y-59988550D01*
X75924250Y-59829800D01*
X73848491Y-59829800D01*
X73615102Y-59926473D01*
X73436473Y-60105101D01*
X73339800Y-60338490D01*
X71015868Y-60338490D01*
X71116874Y-60095244D01*
X71117126Y-59806025D01*
X71006680Y-59538725D01*
X70802350Y-59334039D01*
X70535244Y-59223126D01*
X70246025Y-59222874D01*
X70214451Y-59235920D01*
X70209909Y-59234349D01*
X70214752Y-59210000D01*
X70152744Y-58898266D01*
X81657035Y-59166965D01*
X81691916Y-59162924D01*
X82327434Y-58997918D01*
X82285248Y-59210000D01*
X82355812Y-59564748D01*
X82556760Y-59865488D01*
X82857500Y-60066436D01*
X83212248Y-60137000D01*
X85287752Y-60137000D01*
X85642500Y-60066436D01*
X85943240Y-59865488D01*
X85949259Y-59856479D01*
X90302184Y-59930486D01*
X90307650Y-59935961D01*
X90574756Y-60046874D01*
X90863975Y-60047126D01*
X91131275Y-59936680D01*
X91335961Y-59732350D01*
X91446874Y-59465244D01*
X91447126Y-59176025D01*
X91336680Y-58908725D01*
X91132350Y-58704039D01*
X90865244Y-58593126D01*
X90576025Y-58592874D01*
X90327093Y-58695731D01*
X85988310Y-58621964D01*
X85943240Y-58554512D01*
X85904631Y-58528714D01*
X102792920Y-58528714D01*
X102825894Y-58779171D01*
X102872173Y-58859329D01*
X103089030Y-58917436D01*
X103824502Y-58492811D01*
X103523877Y-57972113D01*
X103307020Y-57914007D01*
X103230861Y-57957977D01*
X103012087Y-58084287D01*
X102858302Y-58284702D01*
X102792920Y-58528714D01*
X85904631Y-58528714D01*
X85642500Y-58353564D01*
X85287752Y-58283000D01*
X85080930Y-58283000D01*
X85581916Y-58152924D01*
X85638553Y-58121035D01*
X85666994Y-58079410D01*
X85677000Y-58030000D01*
X85677000Y-57845113D01*
X103743847Y-57845113D01*
X104044472Y-58365811D01*
X104779944Y-57941186D01*
X104838051Y-57724329D01*
X104791771Y-57644171D01*
X104591356Y-57490387D01*
X104347345Y-57425003D01*
X104096887Y-57457977D01*
X103878113Y-57584286D01*
X103801954Y-57628257D01*
X103743847Y-57845113D01*
X85677000Y-57845113D01*
X85677000Y-53948061D01*
X85706673Y-54019698D01*
X85885301Y-54198327D01*
X86118690Y-54295000D01*
X86584250Y-54295000D01*
X86743000Y-54136250D01*
X86743000Y-53287000D01*
X86997000Y-53287000D01*
X86997000Y-54136250D01*
X87155750Y-54295000D01*
X87621310Y-54295000D01*
X87854699Y-54198327D01*
X88033327Y-54019698D01*
X88130000Y-53786309D01*
X88130000Y-53445750D01*
X87971250Y-53287000D01*
X86997000Y-53287000D01*
X86743000Y-53287000D01*
X86723000Y-53287000D01*
X86723000Y-53033000D01*
X86743000Y-53033000D01*
X86743000Y-53013000D01*
X86997000Y-53013000D01*
X86997000Y-53033000D01*
X87971250Y-53033000D01*
X88130000Y-52874250D01*
X88130000Y-52533691D01*
X88033327Y-52300302D01*
X87854699Y-52121673D01*
X87679110Y-52048942D01*
X87798567Y-51972073D01*
X87896064Y-51829381D01*
X87913256Y-51744484D01*
X89978115Y-51678514D01*
X100649720Y-52778072D01*
X104463078Y-55404428D01*
X105905576Y-58447850D01*
X105290594Y-58907426D01*
X105163367Y-58687064D01*
X105201054Y-58546414D01*
X105168080Y-58295957D01*
X105121801Y-58215799D01*
X104904944Y-58157692D01*
X104169472Y-58582317D01*
X104180472Y-58601370D01*
X103960502Y-58728370D01*
X103949502Y-58709317D01*
X103214030Y-59133942D01*
X103155923Y-59350799D01*
X103202203Y-59430957D01*
X103402618Y-59584741D01*
X103543267Y-59622429D01*
X103686937Y-59871272D01*
X103731342Y-59922977D01*
X99540236Y-62250141D01*
X99530057Y-62258771D01*
X99517532Y-62263387D01*
X99438520Y-62336377D01*
X99356459Y-62405949D01*
X99350355Y-62417822D01*
X99340553Y-62426877D01*
X93626201Y-70286516D01*
X93488725Y-70343320D01*
X93284039Y-70547650D01*
X93173126Y-70814756D01*
X93172874Y-71103975D01*
X93283320Y-71371275D01*
X93487650Y-71575961D01*
X93754756Y-71686874D01*
X94043975Y-71687126D01*
X94311275Y-71576680D01*
X94515961Y-71372350D01*
X94626874Y-71105244D01*
X94626957Y-71010201D01*
X96469834Y-68475469D01*
X101290794Y-68475469D01*
X101471427Y-68912635D01*
X101805606Y-69247397D01*
X102242456Y-69428793D01*
X102715469Y-69429206D01*
X102758174Y-69411561D01*
X103062034Y-69723932D01*
X104832207Y-79589061D01*
X104867144Y-79678105D01*
X104894676Y-79769703D01*
X106984248Y-83703017D01*
X106737362Y-84546545D01*
X106728118Y-84650867D01*
X106713468Y-84754577D01*
X106717531Y-84770333D01*
X106716095Y-84786541D01*
X106747479Y-84886466D01*
X106773632Y-84987881D01*
X106783415Y-85000883D01*
X106788291Y-85016407D01*
X106855523Y-85096713D01*
X106918496Y-85180403D01*
X106932511Y-85188671D01*
X106942956Y-85201148D01*
X107035803Y-85249613D01*
X107126009Y-85302833D01*
X107526008Y-85442832D01*
X107558970Y-85447488D01*
X107589281Y-85461252D01*
X107677338Y-85464208D01*
X107764576Y-85476531D01*
X107796809Y-85468219D01*
X107830082Y-85469336D01*
X107912575Y-85438366D01*
X107997880Y-85416368D01*
X108024477Y-85396355D01*
X108055647Y-85384653D01*
X108345647Y-85204653D01*
X108402610Y-85151390D01*
X108466446Y-85106605D01*
X108489816Y-85069848D01*
X108521634Y-85040097D01*
X108553876Y-84969094D01*
X108595718Y-84903284D01*
X108603244Y-84860376D01*
X108621252Y-84820718D01*
X108623868Y-84742785D01*
X108633965Y-84685221D01*
X108667211Y-84676690D01*
X108727397Y-84631517D01*
X108793632Y-84595774D01*
X108822868Y-84559859D01*
X108859908Y-84532058D01*
X108898232Y-84467278D01*
X108945738Y-84408920D01*
X108959004Y-84364556D01*
X108982587Y-84324693D01*
X109112586Y-83954693D01*
X109125263Y-83865724D01*
X109146842Y-83778494D01*
X109142129Y-83747352D01*
X109146573Y-83716166D01*
X109124237Y-83629119D01*
X109110792Y-83540270D01*
X109094519Y-83513299D01*
X109086690Y-83482789D01*
X109032749Y-83410922D01*
X108986322Y-83333975D01*
X108960966Y-83315285D01*
X108942058Y-83290093D01*
X108864715Y-83244337D01*
X108843128Y-83228424D01*
X108263327Y-82115000D01*
X109647500Y-82115000D01*
X109647500Y-82750000D01*
X109694504Y-82986307D01*
X109828362Y-83186638D01*
X110028693Y-83320496D01*
X110265000Y-83367500D01*
X110900000Y-83367500D01*
X111136307Y-83320496D01*
X111336638Y-83186638D01*
X111971639Y-82551638D01*
X112105496Y-82351307D01*
X112152500Y-82115000D01*
X112152500Y-82097500D01*
X112170000Y-82097500D01*
X112406308Y-82050496D01*
X112606639Y-81916639D01*
X112740496Y-81716308D01*
X112787500Y-81480000D01*
X112740496Y-81243693D01*
X112606639Y-81043362D01*
X111971638Y-80408362D01*
X111771307Y-80274504D01*
X111535000Y-80227500D01*
X111298693Y-80274504D01*
X111098362Y-80408362D01*
X110964504Y-80608693D01*
X110917500Y-80845000D01*
X110917500Y-80862500D01*
X110900000Y-80862500D01*
X110663693Y-80909504D01*
X110463362Y-81043361D01*
X109828363Y-81678361D01*
X109828362Y-81678362D01*
X109694504Y-81878693D01*
X109647500Y-82115000D01*
X108263327Y-82115000D01*
X106660469Y-79036945D01*
X106651256Y-78986978D01*
X107822627Y-78986978D01*
X108195658Y-79487608D01*
X109619262Y-80089333D01*
X111164772Y-80100466D01*
X112596896Y-79519311D01*
X112644342Y-79487608D01*
X113017373Y-78986978D01*
X110420000Y-76389605D01*
X107822627Y-78986978D01*
X106651256Y-78986978D01*
X106276537Y-76954772D01*
X106529534Y-76954772D01*
X107110689Y-78386896D01*
X107142392Y-78434342D01*
X107643022Y-78807373D01*
X110240395Y-76210000D01*
X107643022Y-73612627D01*
X107142392Y-73985658D01*
X106540667Y-75409262D01*
X106529534Y-76954772D01*
X106276537Y-76954772D01*
X104787263Y-68878027D01*
X104752257Y-68790049D01*
X104724853Y-68699411D01*
X104370528Y-68035053D01*
X104324853Y-67949413D01*
X104309176Y-67930275D01*
X104300165Y-67907232D01*
X104296953Y-67903890D01*
X104295202Y-67899599D01*
X104243213Y-67847068D01*
X104199863Y-67787207D01*
X103649863Y-67277207D01*
X103605774Y-67250095D01*
X103568880Y-67213796D01*
X103504131Y-67187591D01*
X103444626Y-67150999D01*
X103393516Y-67142823D01*
X103345542Y-67123407D01*
X103275692Y-67123974D01*
X103206715Y-67112940D01*
X103156372Y-67124944D01*
X103104613Y-67125364D01*
X103040295Y-67152620D01*
X102990415Y-67164513D01*
X102717544Y-67051207D01*
X102244531Y-67050794D01*
X101807365Y-67231427D01*
X101472603Y-67565606D01*
X101291207Y-68002456D01*
X101290794Y-68475469D01*
X96469834Y-68475469D01*
X100259148Y-63263570D01*
X104364036Y-60984279D01*
X104411937Y-61127008D01*
X104636937Y-61516720D01*
X104741840Y-61638870D01*
X104895494Y-61717971D01*
X105067817Y-61731061D01*
X105231656Y-61676075D01*
X105597788Y-61464689D01*
X106234546Y-61447214D01*
X111150149Y-69713492D01*
X112553635Y-72894052D01*
X111220738Y-72330667D01*
X109675228Y-72319534D01*
X108243104Y-72900689D01*
X108195658Y-72932392D01*
X107822627Y-73433022D01*
X110420000Y-76030395D01*
X110434143Y-76016253D01*
X110613748Y-76195858D01*
X110599605Y-76210000D01*
X113196978Y-78807373D01*
X113507905Y-78575694D01*
X112977261Y-82890827D01*
X106556301Y-91430975D01*
X106495672Y-91204702D01*
X106341887Y-91004287D01*
X106123113Y-90877977D01*
X106046954Y-90834007D01*
X105830097Y-90892113D01*
X105529472Y-91412811D01*
X105546793Y-91422811D01*
X105421793Y-91639317D01*
X105404472Y-91629317D01*
X105393472Y-91648370D01*
X105173502Y-91521370D01*
X105184502Y-91502317D01*
X104449030Y-91077692D01*
X104232173Y-91135799D01*
X104185894Y-91215957D01*
X104152920Y-91466414D01*
X104190607Y-91607064D01*
X104046937Y-91855906D01*
X103993604Y-92007831D01*
X103994703Y-92030625D01*
X100835990Y-90644329D01*
X104515923Y-90644329D01*
X104574030Y-90861186D01*
X105309502Y-91285811D01*
X105610127Y-90765113D01*
X105552020Y-90548257D01*
X105475861Y-90504286D01*
X105257087Y-90377977D01*
X105006629Y-90345003D01*
X104762618Y-90410387D01*
X104562203Y-90564171D01*
X104515923Y-90644329D01*
X100835990Y-90644329D01*
X100768160Y-90614560D01*
X100666723Y-90592172D01*
X100566666Y-90564266D01*
X95934997Y-90213234D01*
X94037620Y-86224734D01*
X93999787Y-86173960D01*
X93972116Y-86117000D01*
X93928501Y-86078291D01*
X93893661Y-86031534D01*
X93839276Y-85999103D01*
X93791915Y-85957069D01*
X93746030Y-85930213D01*
X101659392Y-85930213D01*
X101728857Y-86172397D01*
X102252302Y-86359144D01*
X102807368Y-86331362D01*
X103191143Y-86172397D01*
X103260608Y-85930213D01*
X102460000Y-85129605D01*
X101659392Y-85930213D01*
X93746030Y-85930213D01*
X92984953Y-85484769D01*
X93114781Y-85347210D01*
X94945385Y-85347210D01*
X95003492Y-85564067D01*
X95298425Y-85734347D01*
X95548882Y-85767320D01*
X95792893Y-85701938D01*
X95993309Y-85548154D01*
X96119618Y-85329379D01*
X96226089Y-85144967D01*
X96167982Y-84928110D01*
X95846154Y-84742302D01*
X101050856Y-84742302D01*
X101078638Y-85297368D01*
X101237603Y-85681143D01*
X101479787Y-85750608D01*
X102280395Y-84950000D01*
X102639605Y-84950000D01*
X103440213Y-85750608D01*
X103682397Y-85681143D01*
X103869144Y-85157698D01*
X103841362Y-84602632D01*
X103682397Y-84218857D01*
X103440213Y-84149392D01*
X102639605Y-84950000D01*
X102280395Y-84950000D01*
X101479787Y-84149392D01*
X101237603Y-84218857D01*
X101050856Y-84742302D01*
X95846154Y-84742302D01*
X95432510Y-84503485D01*
X94945385Y-85347210D01*
X93114781Y-85347210D01*
X93873129Y-84543709D01*
X93881349Y-84543313D01*
X94019000Y-84477195D01*
X93994458Y-84663611D01*
X94059841Y-84907622D01*
X94213625Y-85108038D01*
X94508558Y-85278317D01*
X94725415Y-85220210D01*
X95212540Y-84376485D01*
X95195219Y-84366485D01*
X95243121Y-84283515D01*
X95559510Y-84283515D01*
X96294982Y-84708140D01*
X96511839Y-84650033D01*
X96618309Y-84465621D01*
X96744619Y-84246846D01*
X96777592Y-83996389D01*
X96770464Y-83969787D01*
X101659392Y-83969787D01*
X102460000Y-84770395D01*
X103260608Y-83969787D01*
X103191143Y-83727603D01*
X102667698Y-83540856D01*
X102112632Y-83568638D01*
X101728857Y-83727603D01*
X101659392Y-83969787D01*
X96770464Y-83969787D01*
X96712209Y-83752378D01*
X96558425Y-83551962D01*
X96263492Y-83381683D01*
X96046635Y-83439790D01*
X95559510Y-84283515D01*
X95243121Y-84283515D01*
X95322219Y-84146515D01*
X95339540Y-84156515D01*
X95826665Y-83312790D01*
X95796398Y-83199833D01*
X96960841Y-82771474D01*
X96987927Y-82813567D01*
X97130619Y-82911064D01*
X97300000Y-82945365D01*
X98000000Y-82945365D01*
X98158237Y-82915591D01*
X98303567Y-82822073D01*
X98401064Y-82679381D01*
X98435365Y-82510000D01*
X98435365Y-81210000D01*
X98405591Y-81051763D01*
X98312073Y-80906433D01*
X98169381Y-80808936D01*
X98000000Y-80774635D01*
X97300000Y-80774635D01*
X97141763Y-80804409D01*
X96996433Y-80897927D01*
X96898936Y-81040619D01*
X96864635Y-81210000D01*
X96864635Y-81490952D01*
X94253253Y-82451590D01*
X94045313Y-82331535D01*
X93011896Y-78109479D01*
X93046874Y-78025244D01*
X93046954Y-77933833D01*
X93199911Y-77725880D01*
X93580421Y-77208558D01*
X93882941Y-77125365D01*
X95060000Y-77125365D01*
X95218237Y-77095591D01*
X95363567Y-77002073D01*
X95461064Y-76859381D01*
X95474753Y-76791782D01*
X96601035Y-76607833D01*
X96601035Y-76633600D01*
X96630809Y-76791837D01*
X96724327Y-76937167D01*
X96867019Y-77034664D01*
X97036400Y-77068965D01*
X97625536Y-77068965D01*
X97380825Y-77117641D01*
X96962124Y-77397408D01*
X96780042Y-77669912D01*
X95408084Y-77642394D01*
X95372073Y-77586433D01*
X95229381Y-77488936D01*
X95060000Y-77454635D01*
X93760000Y-77454635D01*
X93601763Y-77484409D01*
X93456433Y-77577927D01*
X93358936Y-77720619D01*
X93324635Y-77890000D01*
X93324635Y-78590000D01*
X93354409Y-78748237D01*
X93447927Y-78893567D01*
X93590619Y-78991064D01*
X93760000Y-79025365D01*
X95060000Y-79025365D01*
X95218237Y-78995591D01*
X95363567Y-78902073D01*
X95380635Y-78877093D01*
X96749616Y-78904551D01*
X96962124Y-79222592D01*
X97380825Y-79502359D01*
X97874716Y-79600600D01*
X97925284Y-79600600D01*
X98419175Y-79502359D01*
X98837876Y-79222592D01*
X99117643Y-78803891D01*
X99170000Y-78540675D01*
X99222357Y-78803891D01*
X99502124Y-79222592D01*
X99564200Y-79264070D01*
X99184777Y-80777499D01*
X99041763Y-80804409D01*
X98896433Y-80897927D01*
X98798936Y-81040619D01*
X98764635Y-81210000D01*
X98764635Y-82510000D01*
X98794409Y-82668237D01*
X98887927Y-82813567D01*
X99030619Y-82911064D01*
X99200000Y-82945365D01*
X99900000Y-82945365D01*
X100058237Y-82915591D01*
X100203567Y-82822073D01*
X100301064Y-82679381D01*
X100335365Y-82510000D01*
X100335365Y-81266653D01*
X100768155Y-79540355D01*
X100959175Y-79502359D01*
X101377876Y-79222592D01*
X101657643Y-78803891D01*
X101755884Y-78310000D01*
X101657643Y-77816109D01*
X101377876Y-77397408D01*
X100987560Y-77136607D01*
X101328490Y-76976821D01*
X101722688Y-76544947D01*
X101894958Y-76129026D01*
X101773817Y-75897000D01*
X100567000Y-75897000D01*
X100567000Y-75917000D01*
X100313000Y-75917000D01*
X100313000Y-75897000D01*
X100293000Y-75897000D01*
X100293000Y-75643000D01*
X100313000Y-75643000D01*
X100313000Y-74435531D01*
X100567000Y-74435531D01*
X100567000Y-75643000D01*
X101773817Y-75643000D01*
X101894958Y-75410974D01*
X101722688Y-74995053D01*
X101328490Y-74563179D01*
X100799027Y-74315032D01*
X100567000Y-74435531D01*
X100313000Y-74435531D01*
X100080973Y-74315032D01*
X99551510Y-74563179D01*
X99198965Y-74949419D01*
X99198965Y-74906400D01*
X99169191Y-74748163D01*
X99075673Y-74602833D01*
X98932981Y-74505336D01*
X98763600Y-74471035D01*
X97036400Y-74471035D01*
X96878163Y-74500809D01*
X96732833Y-74594327D01*
X96635336Y-74737019D01*
X96601035Y-74906400D01*
X96601035Y-75356471D01*
X95206306Y-75584263D01*
X95060000Y-75554635D01*
X93760000Y-75554635D01*
X93601763Y-75584409D01*
X93456433Y-75677927D01*
X93358936Y-75820619D01*
X93324635Y-75990000D01*
X93324635Y-75998052D01*
X93046266Y-76074603D01*
X92970322Y-76112677D01*
X92890449Y-76141612D01*
X92863505Y-76166227D01*
X92830881Y-76182583D01*
X92775292Y-76246817D01*
X92712568Y-76304120D01*
X92657337Y-76379209D01*
X92552350Y-76274039D01*
X92285244Y-76163126D01*
X91996025Y-76162874D01*
X91728725Y-76273320D01*
X91524039Y-76477650D01*
X91413126Y-76744756D01*
X91412874Y-77033975D01*
X91523320Y-77301275D01*
X91552438Y-77330444D01*
X91525525Y-77366569D01*
X91454152Y-77461041D01*
X91453620Y-77463087D01*
X91452355Y-77464785D01*
X91434414Y-77535765D01*
X88316838Y-78627094D01*
X88014030Y-78415066D01*
X87867332Y-78348695D01*
X87694645Y-78341942D01*
X87532935Y-78402906D01*
X87407685Y-78521981D01*
X86662036Y-79586879D01*
X86595665Y-79733576D01*
X86588912Y-79906264D01*
X86649876Y-80067973D01*
X86768951Y-80193224D01*
X87342358Y-80594728D01*
X87489056Y-80661099D01*
X87661743Y-80667852D01*
X87823453Y-80606888D01*
X87948703Y-80487813D01*
X88341405Y-79926976D01*
X91618087Y-78779950D01*
X92589826Y-82795248D01*
X92636460Y-82895921D01*
X92679923Y-82998034D01*
X92726315Y-83066025D01*
X92531425Y-83403584D01*
X92478092Y-83555508D01*
X92484940Y-83697526D01*
X91261000Y-85043114D01*
X91227717Y-85098419D01*
X91215143Y-85112586D01*
X91123720Y-85104588D01*
X90963491Y-85120457D01*
X90810563Y-85200953D01*
X90701000Y-85334604D01*
X90652068Y-85500351D01*
X90591059Y-86197687D01*
X90606928Y-86357917D01*
X90687424Y-86510845D01*
X90821075Y-86620408D01*
X90986823Y-86669340D01*
X92207218Y-86776110D01*
X92773563Y-87099137D01*
X95344398Y-92603975D01*
X96983380Y-102615586D01*
X97019491Y-104673899D01*
X96609311Y-103663104D01*
X96577608Y-103615658D01*
X96076978Y-103242627D01*
X93479605Y-105840000D01*
X96076978Y-108437373D01*
X96577608Y-108064342D01*
X97058992Y-106925450D01*
X97079982Y-108121871D01*
X93632420Y-115151814D01*
X92525782Y-115963349D01*
X92525244Y-115963126D01*
X92236025Y-115962874D01*
X92178254Y-115986744D01*
X90044621Y-115357705D01*
X90021837Y-115355641D01*
X90000854Y-115346524D01*
X79239898Y-113013179D01*
X76541065Y-110449287D01*
X76517258Y-110070760D01*
X76540000Y-110075365D01*
X76827339Y-110075365D01*
X76930302Y-110178327D01*
X77163691Y-110275000D01*
X77256250Y-110275000D01*
X77415000Y-110116250D01*
X77415000Y-109267000D01*
X77665000Y-109267000D01*
X77665000Y-110116250D01*
X77823750Y-110275000D01*
X77916309Y-110275000D01*
X78149698Y-110178327D01*
X78328327Y-109999699D01*
X78425000Y-109766310D01*
X78425000Y-109425750D01*
X78266250Y-109267000D01*
X77665000Y-109267000D01*
X77415000Y-109267000D01*
X77393000Y-109267000D01*
X77393000Y-109017124D01*
X77394188Y-109013000D01*
X77415000Y-109013000D01*
X77415000Y-108993000D01*
X77665000Y-108993000D01*
X77665000Y-109013000D01*
X78266250Y-109013000D01*
X78425000Y-108854250D01*
X78425000Y-108616978D01*
X90702627Y-108616978D01*
X91075658Y-109117608D01*
X92499262Y-109719333D01*
X94044772Y-109730466D01*
X95476896Y-109149311D01*
X95524342Y-109117608D01*
X95897373Y-108616978D01*
X93300000Y-106019605D01*
X90702627Y-108616978D01*
X78425000Y-108616978D01*
X78425000Y-108513690D01*
X78328327Y-108280301D01*
X78296006Y-108247980D01*
X79618021Y-107581371D01*
X79645023Y-107560269D01*
X79676840Y-107547537D01*
X81156076Y-106584772D01*
X89409534Y-106584772D01*
X89990689Y-108016896D01*
X90022392Y-108064342D01*
X90523022Y-108437373D01*
X93120395Y-105840000D01*
X90523022Y-103242627D01*
X90022392Y-103615658D01*
X89420667Y-105039262D01*
X89409534Y-106584772D01*
X81156076Y-106584772D01*
X86567056Y-103063022D01*
X90702627Y-103063022D01*
X93300000Y-105660395D01*
X95897373Y-103063022D01*
X95524342Y-102562392D01*
X94100738Y-101960667D01*
X92555228Y-101949534D01*
X91123104Y-102530689D01*
X91075658Y-102562392D01*
X90702627Y-103063022D01*
X86567056Y-103063022D01*
X93084554Y-98821093D01*
X94443407Y-98457247D01*
X94514756Y-98486874D01*
X94803975Y-98487126D01*
X95071275Y-98376680D01*
X95275961Y-98172350D01*
X95386874Y-97905244D01*
X95387126Y-97616025D01*
X95276680Y-97348725D01*
X95072350Y-97144039D01*
X94805244Y-97033126D01*
X94516025Y-97032874D01*
X94248725Y-97143320D01*
X94128876Y-97262961D01*
X92670285Y-97653513D01*
X92583249Y-97696415D01*
X92493160Y-97732463D01*
X79031641Y-106493926D01*
X76701978Y-107668629D01*
X76692606Y-107675954D01*
X76681278Y-107679565D01*
X76598016Y-107749879D01*
X76512141Y-107816994D01*
X76506288Y-107827344D01*
X76497200Y-107835018D01*
X76447174Y-107931866D01*
X76393531Y-108026713D01*
X76392084Y-108038515D01*
X76386625Y-108049083D01*
X76328229Y-108251815D01*
X76309381Y-108238936D01*
X76297295Y-108236489D01*
X76266706Y-108075045D01*
X76254757Y-108045440D01*
X76251784Y-108013651D01*
X76210008Y-107934564D01*
X76176532Y-107851619D01*
X76154161Y-107828838D01*
X76139250Y-107800609D01*
X76070387Y-107743526D01*
X76007720Y-107679710D01*
X75978339Y-107667225D01*
X75953756Y-107646848D01*
X75868292Y-107620465D01*
X75785972Y-107585485D01*
X75754043Y-107585195D01*
X75723540Y-107575778D01*
X75059421Y-107507076D01*
X72730877Y-105338149D01*
X72661126Y-105295041D01*
X72597393Y-105243455D01*
X69902958Y-103826625D01*
X70166238Y-103563345D01*
X70257074Y-103430401D01*
X70293711Y-103261509D01*
X70265473Y-103111434D01*
X70439186Y-103183388D01*
X70691805Y-103183388D01*
X70925194Y-103086715D01*
X71166006Y-102845903D01*
X71166006Y-102621397D01*
X70477107Y-101932498D01*
X70462965Y-101946641D01*
X70283359Y-101767035D01*
X70297502Y-101752893D01*
X70656712Y-101752893D01*
X71345611Y-102441792D01*
X71570117Y-102441792D01*
X71810929Y-102200980D01*
X71907602Y-101967591D01*
X71907602Y-101714972D01*
X71810930Y-101481583D01*
X71632301Y-101302955D01*
X71481729Y-101152383D01*
X71257223Y-101152383D01*
X70656712Y-101752893D01*
X70297502Y-101752893D01*
X69608603Y-101063994D01*
X69384097Y-101063994D01*
X69143285Y-101304806D01*
X69046612Y-101538195D01*
X69046612Y-101790814D01*
X69119343Y-101966403D01*
X68980519Y-101936289D01*
X68810680Y-101968246D01*
X68666655Y-102063762D01*
X68080799Y-102649618D01*
X63179520Y-99221805D01*
X65435434Y-99221805D01*
X65443757Y-99394424D01*
X65518583Y-99550205D01*
X65648121Y-99664601D01*
X68332799Y-101214601D01*
X68484724Y-101267934D01*
X68657343Y-101259611D01*
X68813123Y-101184785D01*
X68927519Y-101055246D01*
X69155781Y-100659883D01*
X69788208Y-100659883D01*
X69788208Y-100884389D01*
X70477107Y-101573288D01*
X71077617Y-100972777D01*
X71077617Y-100957750D01*
X72280999Y-100957750D01*
X72280999Y-101814310D01*
X72377672Y-102047699D01*
X72556301Y-102226327D01*
X72789690Y-102323000D01*
X73138249Y-102323000D01*
X73296999Y-102164250D01*
X73296999Y-100799000D01*
X73550999Y-100799000D01*
X73550999Y-102164250D01*
X73709749Y-102323000D01*
X74058308Y-102323000D01*
X74291697Y-102226327D01*
X74470326Y-102047699D01*
X74566999Y-101814310D01*
X74566999Y-100957750D01*
X74408249Y-100799000D01*
X73550999Y-100799000D01*
X73296999Y-100799000D01*
X72439749Y-100799000D01*
X72280999Y-100957750D01*
X71077617Y-100957750D01*
X71077617Y-100748271D01*
X70927045Y-100597699D01*
X70748417Y-100419070D01*
X70515028Y-100322398D01*
X70262409Y-100322398D01*
X70029020Y-100419071D01*
X69788208Y-100659883D01*
X69155781Y-100659883D01*
X69427519Y-100189220D01*
X69480852Y-100037297D01*
X69472529Y-99864678D01*
X69397703Y-99708897D01*
X69268165Y-99594501D01*
X69155910Y-99529690D01*
X72280999Y-99529690D01*
X72280999Y-100386250D01*
X72439749Y-100545000D01*
X73296999Y-100545000D01*
X73296999Y-99179750D01*
X73550999Y-99179750D01*
X73550999Y-100545000D01*
X74408249Y-100545000D01*
X74566999Y-100386250D01*
X74566999Y-99529690D01*
X74470326Y-99296301D01*
X74291697Y-99117673D01*
X74058308Y-99021000D01*
X73709749Y-99021000D01*
X73550999Y-99179750D01*
X73296999Y-99179750D01*
X73138249Y-99021000D01*
X72789690Y-99021000D01*
X72556301Y-99117673D01*
X72377672Y-99296301D01*
X72280999Y-99529690D01*
X69155910Y-99529690D01*
X68290447Y-99030015D01*
X68525088Y-98272978D01*
X68574176Y-98223975D01*
X74592874Y-98223975D01*
X74703320Y-98491275D01*
X74767034Y-98555100D01*
X74888017Y-99359172D01*
X74800936Y-99486620D01*
X74766635Y-99656001D01*
X74766635Y-101688001D01*
X74796409Y-101846238D01*
X74889927Y-101991568D01*
X75032619Y-102089065D01*
X75202000Y-102123366D01*
X75520741Y-102123366D01*
X77593628Y-105502861D01*
X77664979Y-105579984D01*
X77732320Y-105660636D01*
X77746432Y-105668026D01*
X77757249Y-105679718D01*
X77852672Y-105723660D01*
X77945762Y-105772408D01*
X77961631Y-105773835D01*
X77976097Y-105780497D01*
X78081066Y-105784578D01*
X78185730Y-105793992D01*
X78200936Y-105789238D01*
X78216851Y-105789857D01*
X78315394Y-105753456D01*
X78415691Y-105722101D01*
X78855692Y-105482100D01*
X78931120Y-105419121D01*
X79010942Y-105361849D01*
X79023035Y-105342376D01*
X79040636Y-105327680D01*
X79086219Y-105240634D01*
X79138052Y-105157169D01*
X79141773Y-105134545D01*
X79152408Y-105114237D01*
X79161210Y-105016380D01*
X79177157Y-104919428D01*
X79137157Y-103719428D01*
X79121288Y-103651552D01*
X79116940Y-103581986D01*
X79094125Y-103535365D01*
X79082307Y-103484818D01*
X79041671Y-103428183D01*
X79011032Y-103365575D01*
X78972108Y-103331230D01*
X78941849Y-103289058D01*
X78882636Y-103252286D01*
X78830368Y-103206167D01*
X78400368Y-102956167D01*
X78167699Y-102820894D01*
X77723605Y-102123365D01*
X78504001Y-102123365D01*
X78662238Y-102093591D01*
X78807568Y-102000073D01*
X78905065Y-101857381D01*
X78939366Y-101688000D01*
X78939366Y-100025381D01*
X82377495Y-100025381D01*
X82432481Y-100189220D01*
X82932481Y-101055246D01*
X83037384Y-101177396D01*
X83191039Y-101256498D01*
X83363362Y-101269587D01*
X83527201Y-101214601D01*
X86211879Y-99664601D01*
X86334028Y-99559698D01*
X86413129Y-99406044D01*
X86426219Y-99233721D01*
X86371233Y-99069882D01*
X85871233Y-98203856D01*
X85766330Y-98081706D01*
X85612675Y-98002604D01*
X85440352Y-97989515D01*
X85276513Y-98044501D01*
X82591835Y-99594501D01*
X82469686Y-99699404D01*
X82390585Y-99853058D01*
X82377495Y-100025381D01*
X78939366Y-100025381D01*
X78939366Y-99656000D01*
X78909592Y-99497763D01*
X78816074Y-99352433D01*
X78673382Y-99254936D01*
X78631059Y-99246365D01*
X78652438Y-97505867D01*
X78652889Y-97505416D01*
X80652466Y-97505416D01*
X80696437Y-97581575D01*
X80822746Y-97800349D01*
X81023162Y-97954134D01*
X81267174Y-98019516D01*
X81517631Y-97986542D01*
X82721890Y-97291263D01*
X82779997Y-97074406D01*
X82355372Y-96338934D01*
X80710573Y-97288559D01*
X80652466Y-97505416D01*
X78652889Y-97505416D01*
X78655961Y-97502350D01*
X78766874Y-97235244D01*
X78767126Y-96946025D01*
X78656680Y-96678725D01*
X78654780Y-96676821D01*
X78763896Y-96465091D01*
X80163463Y-96465091D01*
X80196436Y-96715549D01*
X80322746Y-96934323D01*
X80366716Y-97010482D01*
X80583573Y-97068589D01*
X82067343Y-96211934D01*
X82575342Y-96211934D01*
X82999967Y-96947406D01*
X83216824Y-97005513D01*
X84421083Y-96310233D01*
X84574867Y-96109818D01*
X84640251Y-95865807D01*
X84607278Y-95615349D01*
X84480968Y-95396575D01*
X84436998Y-95320416D01*
X84220141Y-95262309D01*
X82575342Y-96211934D01*
X82067343Y-96211934D01*
X82228372Y-96118964D01*
X81803747Y-95383492D01*
X81586890Y-95325385D01*
X80382631Y-96020665D01*
X80228847Y-96221080D01*
X80163463Y-96465091D01*
X78763896Y-96465091D01*
X79386758Y-95256492D01*
X82023717Y-95256492D01*
X82448342Y-95991964D01*
X84093141Y-95042339D01*
X84151248Y-94825482D01*
X84107277Y-94749323D01*
X83980968Y-94530549D01*
X83780552Y-94376764D01*
X83536540Y-94311382D01*
X83286083Y-94344356D01*
X82081824Y-95039635D01*
X82023717Y-95256492D01*
X79386758Y-95256492D01*
X80009869Y-94047412D01*
X82003746Y-92423414D01*
X82073813Y-92471288D01*
X82242705Y-92507925D01*
X82412544Y-92475968D01*
X82556569Y-92380452D01*
X82830742Y-92106279D01*
X88093781Y-92106279D01*
X88148767Y-92270118D01*
X88648767Y-93136144D01*
X88753670Y-93258294D01*
X88907325Y-93337396D01*
X89079648Y-93350485D01*
X89243487Y-93295499D01*
X91807211Y-91815332D01*
X91467757Y-94469985D01*
X90308121Y-95139501D01*
X90185972Y-95244404D01*
X90106871Y-95398058D01*
X90093781Y-95570381D01*
X90148767Y-95734220D01*
X90648767Y-96600246D01*
X90753670Y-96722396D01*
X90907325Y-96801498D01*
X91079648Y-96814587D01*
X91243487Y-96759601D01*
X93928165Y-95209601D01*
X94050314Y-95104698D01*
X94129415Y-94951044D01*
X94142505Y-94778721D01*
X94087519Y-94614882D01*
X93587519Y-93748856D01*
X93482616Y-93626706D01*
X93328961Y-93547604D01*
X93156638Y-93534515D01*
X92992799Y-93589501D01*
X92812059Y-93693852D01*
X93302513Y-89858323D01*
X93296762Y-89775309D01*
X93301229Y-89692214D01*
X93288505Y-89656129D01*
X93285861Y-89617963D01*
X93248780Y-89543471D01*
X93221107Y-89464990D01*
X92564711Y-88358307D01*
X92587932Y-88279649D01*
X92648941Y-87582313D01*
X92633072Y-87422083D01*
X92552576Y-87269155D01*
X92418925Y-87159592D01*
X92253177Y-87110660D01*
X90958124Y-86997358D01*
X90797895Y-87013227D01*
X90780527Y-87022369D01*
X90692350Y-86934039D01*
X90425244Y-86823126D01*
X90136025Y-86822874D01*
X89868725Y-86933320D01*
X89664039Y-87137650D01*
X89553126Y-87404756D01*
X89552874Y-87693975D01*
X89663320Y-87961275D01*
X89867650Y-88165961D01*
X90134756Y-88276874D01*
X90423975Y-88277126D01*
X90449662Y-88266512D01*
X90521828Y-88403615D01*
X90655479Y-88513178D01*
X90821227Y-88562110D01*
X91273149Y-88601648D01*
X92050549Y-89912343D01*
X91927606Y-90873802D01*
X91587519Y-90284754D01*
X91482616Y-90162604D01*
X91328961Y-90083502D01*
X91156638Y-90070413D01*
X90992799Y-90125399D01*
X88308121Y-91675399D01*
X88185972Y-91780302D01*
X88106871Y-91933956D01*
X88093781Y-92106279D01*
X82830742Y-92106279D01*
X83440452Y-91496569D01*
X83531288Y-91363625D01*
X83567925Y-91194733D01*
X83556460Y-91133799D01*
X85835751Y-88957262D01*
X85836384Y-88956657D01*
X85871360Y-88906855D01*
X85914675Y-88865494D01*
X88474862Y-85218913D01*
X88601275Y-85166680D01*
X88805961Y-84962350D01*
X88916874Y-84695244D01*
X88917126Y-84406025D01*
X88806680Y-84138725D01*
X88602350Y-83934039D01*
X88335244Y-83823126D01*
X88046025Y-83822874D01*
X87778725Y-83933320D01*
X87574039Y-84137650D01*
X87463126Y-84404756D01*
X87463034Y-84510795D01*
X84938857Y-88106084D01*
X82752990Y-90193407D01*
X82733345Y-90173762D01*
X82600401Y-90082926D01*
X82431509Y-90046289D01*
X82281434Y-90074527D01*
X82353388Y-89900814D01*
X82353388Y-89648195D01*
X82256715Y-89414806D01*
X82015903Y-89173994D01*
X81791397Y-89173994D01*
X81102498Y-89862893D01*
X81116641Y-89877035D01*
X80937035Y-90056641D01*
X80922893Y-90042498D01*
X80233994Y-90731397D01*
X80233994Y-90955903D01*
X80474806Y-91196715D01*
X80708195Y-91293388D01*
X80960814Y-91293388D01*
X81136403Y-91220657D01*
X81106289Y-91359481D01*
X81138246Y-91529320D01*
X81140926Y-91533361D01*
X79130035Y-93171217D01*
X79126286Y-93175751D01*
X79121139Y-93178602D01*
X79049652Y-93268425D01*
X78976496Y-93356895D01*
X78974767Y-93362519D01*
X78971104Y-93367122D01*
X77461105Y-96297120D01*
X77453938Y-96322089D01*
X77439504Y-96343691D01*
X77435915Y-96361734D01*
X77426612Y-96377601D01*
X77415993Y-96454290D01*
X77394634Y-96528706D01*
X77397568Y-96554518D01*
X77392500Y-96579998D01*
X77392500Y-96580000D01*
X77396089Y-96598042D01*
X77393566Y-96616261D01*
X77400510Y-96734313D01*
X77313126Y-96944756D01*
X77312874Y-97233975D01*
X77417573Y-97487366D01*
X77396070Y-99237933D01*
X77329764Y-99250409D01*
X77184434Y-99343927D01*
X77086937Y-99486619D01*
X77052636Y-99656000D01*
X77052636Y-101069488D01*
X76790889Y-100658367D01*
X76770457Y-100637011D01*
X76757195Y-100610596D01*
X76687769Y-100550584D01*
X76653365Y-100514624D01*
X76653365Y-99656001D01*
X76623591Y-99497764D01*
X76530073Y-99352434D01*
X76387381Y-99254937D01*
X76218000Y-99220636D01*
X76116074Y-99220636D01*
X75987734Y-98367667D01*
X76046874Y-98225244D01*
X76047126Y-97936025D01*
X75936680Y-97668725D01*
X75732350Y-97464039D01*
X75465244Y-97353126D01*
X75176025Y-97352874D01*
X74908725Y-97463320D01*
X74704039Y-97667650D01*
X74593126Y-97934756D01*
X74592874Y-98223975D01*
X68574176Y-98223975D01*
X68665961Y-98132350D01*
X68776874Y-97865244D01*
X68777126Y-97576025D01*
X68666680Y-97308725D01*
X68462350Y-97104039D01*
X68195244Y-96993126D01*
X67906025Y-96992874D01*
X67638725Y-97103320D01*
X67434039Y-97307650D01*
X67323126Y-97574756D01*
X67322874Y-97863975D01*
X67343456Y-97913787D01*
X67193739Y-98396830D01*
X66583487Y-98044501D01*
X66431562Y-97991168D01*
X66258943Y-97999491D01*
X66103163Y-98074317D01*
X65988767Y-98203856D01*
X65488767Y-99069882D01*
X65435434Y-99221805D01*
X63179520Y-99221805D01*
X61424505Y-97994399D01*
X56823581Y-94766805D01*
X57719148Y-94766805D01*
X57727471Y-94939424D01*
X57802297Y-95095205D01*
X57931835Y-95209601D01*
X60616513Y-96759601D01*
X60768438Y-96812934D01*
X60941057Y-96804611D01*
X61096837Y-96729785D01*
X61211233Y-96600246D01*
X61697675Y-95757703D01*
X67435434Y-95757703D01*
X67443757Y-95930322D01*
X67518583Y-96086103D01*
X67648121Y-96200499D01*
X70332799Y-97750499D01*
X70484724Y-97803832D01*
X70657343Y-97795509D01*
X70813123Y-97720683D01*
X70927519Y-97591144D01*
X71427519Y-96725118D01*
X71480852Y-96573195D01*
X71472529Y-96400576D01*
X71397703Y-96244795D01*
X71268165Y-96130399D01*
X68583487Y-94580399D01*
X68431562Y-94527066D01*
X68258943Y-94535389D01*
X68103163Y-94610215D01*
X67988767Y-94739754D01*
X67488767Y-95605780D01*
X67435434Y-95757703D01*
X61697675Y-95757703D01*
X61711233Y-95734220D01*
X61764566Y-95582297D01*
X61756243Y-95409678D01*
X61681417Y-95253897D01*
X61551879Y-95139501D01*
X58867201Y-93589501D01*
X58715276Y-93536168D01*
X58542657Y-93544491D01*
X58386877Y-93619317D01*
X58272481Y-93748856D01*
X57772481Y-94614882D01*
X57719148Y-94766805D01*
X56823581Y-94766805D01*
X53762471Y-92619406D01*
X61363717Y-92619406D01*
X61421824Y-92836263D01*
X62626083Y-93531542D01*
X62876540Y-93564516D01*
X63120552Y-93499134D01*
X63320968Y-93345349D01*
X63447277Y-93126575D01*
X63490334Y-93051999D01*
X73445835Y-93051999D01*
X73445835Y-95083999D01*
X73475609Y-95242236D01*
X73569127Y-95387566D01*
X73711819Y-95485063D01*
X73881200Y-95519364D01*
X75002991Y-95519364D01*
X75002874Y-95653975D01*
X75113320Y-95921275D01*
X75317650Y-96125961D01*
X75584756Y-96236874D01*
X75873975Y-96237126D01*
X76141275Y-96126680D01*
X76345961Y-95922350D01*
X76456874Y-95655244D01*
X76456992Y-95519364D01*
X77538800Y-95519364D01*
X77697037Y-95489590D01*
X77842367Y-95396072D01*
X77939864Y-95253380D01*
X77974165Y-95083999D01*
X77974165Y-93051999D01*
X77944391Y-92893762D01*
X77850873Y-92748432D01*
X77708181Y-92650935D01*
X77538800Y-92616634D01*
X73881200Y-92616634D01*
X73722963Y-92646408D01*
X73577633Y-92739926D01*
X73480136Y-92882618D01*
X73445835Y-93051999D01*
X63490334Y-93051999D01*
X63491248Y-93050416D01*
X63433141Y-92833559D01*
X61788342Y-91883934D01*
X61363717Y-92619406D01*
X53762471Y-92619406D01*
X52814625Y-91954483D01*
X52805204Y-91950328D01*
X52797848Y-91943119D01*
X52695298Y-91901853D01*
X52594178Y-91857254D01*
X52583883Y-91857020D01*
X52574329Y-91853176D01*
X50226368Y-91410807D01*
X59503463Y-91410807D01*
X59568847Y-91654818D01*
X59722631Y-91855233D01*
X60926890Y-92550513D01*
X61143747Y-92492406D01*
X61568372Y-91756934D01*
X61407344Y-91663964D01*
X61915342Y-91663964D01*
X63560141Y-92613589D01*
X63776998Y-92555482D01*
X63820968Y-92479323D01*
X63947278Y-92260549D01*
X63980251Y-92010091D01*
X63914867Y-91766080D01*
X63761083Y-91565665D01*
X62556824Y-90870385D01*
X62339967Y-90928492D01*
X61915342Y-91663964D01*
X61407344Y-91663964D01*
X59923573Y-90807309D01*
X59706716Y-90865416D01*
X59662746Y-90941575D01*
X59536436Y-91160349D01*
X59503463Y-91410807D01*
X50226368Y-91410807D01*
X50189543Y-91403869D01*
X50183236Y-90964831D01*
X50286874Y-90715244D01*
X50287126Y-90426025D01*
X50264177Y-90370482D01*
X59992466Y-90370482D01*
X60050573Y-90587339D01*
X61695372Y-91536964D01*
X62119997Y-90801492D01*
X62061890Y-90584635D01*
X61242029Y-90111288D01*
X72116423Y-90111288D01*
X72378279Y-90550335D01*
X72788218Y-90855753D01*
X73133315Y-90964562D01*
X73324193Y-90823707D01*
X73235521Y-89810179D01*
X72221993Y-89898851D01*
X72116423Y-90111288D01*
X61242029Y-90111288D01*
X60857631Y-89889356D01*
X60607174Y-89856382D01*
X60363162Y-89921764D01*
X60162746Y-90075549D01*
X60036437Y-90294323D01*
X59992466Y-90370482D01*
X50264177Y-90370482D01*
X50176680Y-90158725D01*
X49972350Y-89954039D01*
X49705244Y-89843126D01*
X49416025Y-89842874D01*
X49148725Y-89953320D01*
X48944039Y-90157650D01*
X48833126Y-90424756D01*
X48832874Y-90713975D01*
X48943320Y-90981275D01*
X48948418Y-90986382D01*
X48951558Y-91204926D01*
X48883405Y-91205616D01*
X48848979Y-91220286D01*
X48811871Y-91225148D01*
X48124548Y-91457991D01*
X48118160Y-91450552D01*
X48047917Y-91414391D01*
X48053049Y-91346831D01*
X47998063Y-91182992D01*
X47773063Y-90793280D01*
X47668160Y-90671130D01*
X47514506Y-90592029D01*
X47342183Y-90578939D01*
X47178344Y-90633925D01*
X46910478Y-90788578D01*
X45893486Y-90569416D01*
X44984358Y-89788041D01*
X73488555Y-89788041D01*
X73577227Y-90801569D01*
X73789664Y-90907139D01*
X74228711Y-90645283D01*
X74534129Y-90235344D01*
X74642938Y-89890247D01*
X74594770Y-89824972D01*
X79492398Y-89824972D01*
X79492398Y-90077591D01*
X79589071Y-90310980D01*
X79829883Y-90551792D01*
X80054389Y-90551792D01*
X80743288Y-89862893D01*
X80142777Y-89262383D01*
X79918271Y-89262383D01*
X79767699Y-89412955D01*
X79589070Y-89591583D01*
X79492398Y-89824972D01*
X74594770Y-89824972D01*
X74502083Y-89699369D01*
X73488555Y-89788041D01*
X44984358Y-89788041D01*
X44596794Y-89454939D01*
X72059000Y-89454939D01*
X72199855Y-89645817D01*
X73213383Y-89557145D01*
X73124711Y-88543617D01*
X73080164Y-88521479D01*
X73377745Y-88521479D01*
X73466417Y-89535007D01*
X74479945Y-89446335D01*
X74585515Y-89233898D01*
X74361484Y-88858271D01*
X80322383Y-88858271D01*
X80322383Y-89082777D01*
X80922893Y-89683288D01*
X81611792Y-88994389D01*
X81611792Y-88769883D01*
X81370980Y-88529071D01*
X81137591Y-88432398D01*
X80884972Y-88432398D01*
X80651583Y-88529070D01*
X80472955Y-88707699D01*
X80322383Y-88858271D01*
X74361484Y-88858271D01*
X74323659Y-88794851D01*
X73913720Y-88489433D01*
X73568623Y-88380624D01*
X73377745Y-88521479D01*
X73080164Y-88521479D01*
X72912274Y-88438047D01*
X72473227Y-88699903D01*
X72167809Y-89109842D01*
X72059000Y-89454939D01*
X44596794Y-89454939D01*
X42972362Y-88058777D01*
X41489198Y-86547629D01*
X40957078Y-85185469D01*
X49290794Y-85185469D01*
X49471427Y-85622635D01*
X49805606Y-85957397D01*
X50242456Y-86138793D01*
X50715469Y-86139206D01*
X51152635Y-85958573D01*
X51487397Y-85624394D01*
X51668793Y-85187544D01*
X51669206Y-84714531D01*
X51488573Y-84277365D01*
X51154394Y-83942603D01*
X50717544Y-83761207D01*
X50244531Y-83760794D01*
X49807365Y-83941427D01*
X49472603Y-84275606D01*
X49291207Y-84712456D01*
X49290794Y-85185469D01*
X40957078Y-85185469D01*
X40328348Y-83576000D01*
X55116635Y-83576000D01*
X55116635Y-84276000D01*
X55146409Y-84434237D01*
X55239927Y-84579567D01*
X55382619Y-84677064D01*
X55552000Y-84711365D01*
X55892754Y-84711365D01*
X57112779Y-87266103D01*
X57175477Y-87349983D01*
X57233721Y-87436998D01*
X57247274Y-87446038D01*
X57257028Y-87459087D01*
X57347047Y-87512585D01*
X57434163Y-87570690D01*
X60154635Y-88694923D01*
X60154635Y-88970000D01*
X60184409Y-89128237D01*
X60277927Y-89273567D01*
X60420619Y-89371064D01*
X60590000Y-89405365D01*
X61290000Y-89405365D01*
X61448237Y-89375591D01*
X61593567Y-89282073D01*
X61691064Y-89139381D01*
X61725365Y-88970000D01*
X61725365Y-87670000D01*
X62054635Y-87670000D01*
X62054635Y-88970000D01*
X62084409Y-89128237D01*
X62177927Y-89273567D01*
X62320619Y-89371064D01*
X62490000Y-89405365D01*
X63190000Y-89405365D01*
X63348237Y-89375591D01*
X63493567Y-89282073D01*
X63591064Y-89139381D01*
X63625365Y-88970000D01*
X63625365Y-88266470D01*
X64439313Y-87079151D01*
X64457199Y-87037384D01*
X64484735Y-87001247D01*
X64928659Y-86093365D01*
X65122000Y-86093365D01*
X65280237Y-86063591D01*
X65425567Y-85970073D01*
X65523064Y-85827381D01*
X65531043Y-85787978D01*
X65584491Y-85798573D01*
X65592583Y-85834302D01*
X65693324Y-85974722D01*
X65840758Y-86064886D01*
X67015374Y-86492411D01*
X67174252Y-86518553D01*
X67342803Y-86480381D01*
X67483223Y-86379640D01*
X67573387Y-86232205D01*
X67915407Y-85292512D01*
X67941549Y-85133635D01*
X67903377Y-84965084D01*
X67802636Y-84824664D01*
X67655202Y-84734500D01*
X66480586Y-84306975D01*
X66321708Y-84280833D01*
X66153157Y-84319005D01*
X66012737Y-84419746D01*
X65922573Y-84567181D01*
X65909205Y-84603910D01*
X65557365Y-84534166D01*
X65557365Y-84358000D01*
X65527591Y-84199763D01*
X65434073Y-84054433D01*
X65291381Y-83956936D01*
X65122000Y-83922635D01*
X64422000Y-83922635D01*
X64263763Y-83952409D01*
X64118433Y-84045927D01*
X64020936Y-84188619D01*
X63986635Y-84358000D01*
X63986635Y-85208421D01*
X63395127Y-86418133D01*
X62835386Y-87234635D01*
X62490000Y-87234635D01*
X62331763Y-87264409D01*
X62186433Y-87357927D01*
X62088936Y-87500619D01*
X62054635Y-87670000D01*
X61725365Y-87670000D01*
X61695591Y-87511763D01*
X61602073Y-87366433D01*
X61459381Y-87268936D01*
X61290000Y-87234635D01*
X60590000Y-87234635D01*
X60431763Y-87264409D01*
X60286433Y-87357927D01*
X60257041Y-87400943D01*
X58322184Y-86601365D01*
X58650000Y-86601365D01*
X58808237Y-86571591D01*
X58953567Y-86478073D01*
X59051064Y-86335381D01*
X59085365Y-86166000D01*
X59085365Y-85371809D01*
X59443270Y-84724597D01*
X59414635Y-84866000D01*
X59414635Y-86166000D01*
X59444409Y-86324237D01*
X59537927Y-86469567D01*
X59680619Y-86567064D01*
X59850000Y-86601365D01*
X60550000Y-86601365D01*
X60708237Y-86571591D01*
X60853567Y-86478073D01*
X60951064Y-86335381D01*
X60985365Y-86166000D01*
X60985365Y-85995248D01*
X62109865Y-85781458D01*
X62116409Y-85816237D01*
X62209927Y-85961567D01*
X62352619Y-86059064D01*
X62522000Y-86093365D01*
X63222000Y-86093365D01*
X63380237Y-86063591D01*
X63525567Y-85970073D01*
X63623064Y-85827381D01*
X63657365Y-85658000D01*
X63657365Y-84358000D01*
X63627591Y-84199763D01*
X63534073Y-84054433D01*
X63391381Y-83956936D01*
X63222000Y-83922635D01*
X62522000Y-83922635D01*
X62363763Y-83952409D01*
X62218433Y-84045927D01*
X62120936Y-84188619D01*
X62086635Y-84358000D01*
X62086635Y-84528752D01*
X60962135Y-84742542D01*
X60955591Y-84707763D01*
X60884735Y-84597651D01*
X60915186Y-84171744D01*
X61038237Y-84148591D01*
X61183567Y-84055073D01*
X61281064Y-83912381D01*
X61315365Y-83743000D01*
X61315365Y-83093000D01*
X61285591Y-82934763D01*
X61192073Y-82789433D01*
X61049381Y-82691936D01*
X60880000Y-82657635D01*
X59877500Y-82657635D01*
X59877500Y-82530000D01*
X59867812Y-82481296D01*
X59869621Y-82431674D01*
X59844894Y-82278365D01*
X60325919Y-82278365D01*
X60613651Y-82499559D01*
X60714737Y-82549522D01*
X60814501Y-82602036D01*
X60822470Y-82602770D01*
X60829645Y-82606316D01*
X60942131Y-82613789D01*
X61054422Y-82624130D01*
X63112465Y-82408241D01*
X63132409Y-82514237D01*
X63225927Y-82659567D01*
X63368619Y-82757064D01*
X63538000Y-82791365D01*
X64238000Y-82791365D01*
X64396237Y-82761591D01*
X64541567Y-82668073D01*
X64639064Y-82525381D01*
X64673365Y-82356000D01*
X64673365Y-81056000D01*
X65002635Y-81056000D01*
X65002635Y-82356000D01*
X65032409Y-82514237D01*
X65125927Y-82659567D01*
X65268619Y-82757064D01*
X65438000Y-82791365D01*
X65938192Y-82791365D01*
X66388173Y-83287955D01*
X66264593Y-83627488D01*
X66238451Y-83786365D01*
X66276623Y-83954916D01*
X66377364Y-84095336D01*
X66524798Y-84185500D01*
X67699414Y-84613025D01*
X67858292Y-84639167D01*
X68026843Y-84600995D01*
X68073873Y-84567255D01*
X68907895Y-85016349D01*
X69536537Y-86618177D01*
X69190750Y-87030270D01*
X69111846Y-87170625D01*
X69090068Y-87342066D01*
X69136706Y-87508474D01*
X69244412Y-87643626D01*
X70240270Y-88479250D01*
X70380625Y-88558154D01*
X70552066Y-88579932D01*
X70718474Y-88533294D01*
X70853626Y-88425588D01*
X71689250Y-87429730D01*
X71768154Y-87289375D01*
X71789932Y-87117934D01*
X71743294Y-86951526D01*
X71635588Y-86816374D01*
X70639730Y-85980750D01*
X70605535Y-85961526D01*
X69974818Y-84354411D01*
X69923274Y-84274053D01*
X69878535Y-84189730D01*
X69858656Y-84173313D01*
X69844734Y-84151609D01*
X69766361Y-84097094D01*
X69692759Y-84036311D01*
X68588956Y-83441949D01*
X68599447Y-83413126D01*
X68625589Y-83254249D01*
X68587417Y-83085698D01*
X68486676Y-82945278D01*
X68339242Y-82855114D01*
X67329563Y-82487621D01*
X66573365Y-81653096D01*
X66573365Y-81056000D01*
X66543591Y-80897763D01*
X66450073Y-80752433D01*
X66307381Y-80654936D01*
X66138000Y-80620635D01*
X65438000Y-80620635D01*
X65279763Y-80650409D01*
X65134433Y-80743927D01*
X65036936Y-80886619D01*
X65002635Y-81056000D01*
X64673365Y-81056000D01*
X64643591Y-80897763D01*
X64550073Y-80752433D01*
X64407381Y-80654936D01*
X64238000Y-80620635D01*
X63538000Y-80620635D01*
X63379763Y-80650409D01*
X63234433Y-80743927D01*
X63136936Y-80886619D01*
X63102635Y-81056000D01*
X63102635Y-81167497D01*
X62192126Y-81263009D01*
X62236874Y-81155244D01*
X62237126Y-80866025D01*
X62201656Y-80780180D01*
X62234049Y-80647365D01*
X62440000Y-80647365D01*
X62598237Y-80617591D01*
X62743567Y-80524073D01*
X62841064Y-80381381D01*
X62875365Y-80212000D01*
X62875365Y-79555750D01*
X71295000Y-79555750D01*
X71295000Y-79896310D01*
X71391673Y-80129699D01*
X71570302Y-80308327D01*
X71803691Y-80405000D01*
X72494250Y-80405000D01*
X72653000Y-80246250D01*
X72653000Y-79397000D01*
X72907000Y-79397000D01*
X72907000Y-80246250D01*
X73065750Y-80405000D01*
X73756309Y-80405000D01*
X73989698Y-80308327D01*
X74168327Y-80129699D01*
X74265000Y-79896310D01*
X74265000Y-79555750D01*
X74106250Y-79397000D01*
X72907000Y-79397000D01*
X72653000Y-79397000D01*
X71453750Y-79397000D01*
X71295000Y-79555750D01*
X62875365Y-79555750D01*
X62875365Y-79512000D01*
X62845591Y-79353763D01*
X62752073Y-79208433D01*
X62609381Y-79110936D01*
X62440000Y-79076635D01*
X61568979Y-79076635D01*
X61888420Y-78747365D01*
X62440000Y-78747365D01*
X62598237Y-78717591D01*
X62713081Y-78643690D01*
X71295000Y-78643690D01*
X71295000Y-78984250D01*
X71453750Y-79143000D01*
X72653000Y-79143000D01*
X72653000Y-78293750D01*
X72907000Y-78293750D01*
X72907000Y-79143000D01*
X74106250Y-79143000D01*
X74265000Y-78984250D01*
X74265000Y-78770000D01*
X78544635Y-78770000D01*
X78544635Y-79770000D01*
X78574409Y-79928237D01*
X78667927Y-80073567D01*
X78810619Y-80171064D01*
X78980000Y-80205365D01*
X80580000Y-80205365D01*
X80738237Y-80175591D01*
X80883567Y-80082073D01*
X80981064Y-79939381D01*
X81015365Y-79770000D01*
X81015365Y-79267679D01*
X82887354Y-78182619D01*
X85034672Y-78761552D01*
X85032524Y-78816470D01*
X85093488Y-78978179D01*
X85212563Y-79103430D01*
X85785970Y-79504934D01*
X85932668Y-79571305D01*
X86105355Y-79578058D01*
X86267065Y-79517094D01*
X86392315Y-79398019D01*
X87137964Y-78333121D01*
X87204335Y-78186424D01*
X87211088Y-78013736D01*
X87150124Y-77852027D01*
X87031049Y-77726776D01*
X86457642Y-77325272D01*
X86310944Y-77258901D01*
X86138257Y-77252148D01*
X85976547Y-77313112D01*
X85851297Y-77432187D01*
X85692007Y-77659677D01*
X84393526Y-77309597D01*
X85489663Y-76674243D01*
X85564647Y-76608256D01*
X85643926Y-76547527D01*
X87667933Y-74243413D01*
X90465939Y-74594160D01*
X90517650Y-74645961D01*
X90784756Y-74756874D01*
X91073975Y-74757126D01*
X91341275Y-74646680D01*
X91545961Y-74442350D01*
X91656874Y-74175244D01*
X91657126Y-73886025D01*
X91546680Y-73618725D01*
X91342350Y-73414039D01*
X91075244Y-73303126D01*
X90786025Y-73302874D01*
X90624953Y-73369427D01*
X88073038Y-73049529D01*
X88326260Y-69059106D01*
X88318268Y-68999361D01*
X88322192Y-68939204D01*
X88302450Y-68881109D01*
X88294316Y-68820297D01*
X88264067Y-68768156D01*
X88244672Y-68711079D01*
X87204672Y-66911079D01*
X87152289Y-66851387D01*
X87108439Y-66785170D01*
X87073526Y-66761632D01*
X87045753Y-66729984D01*
X86974519Y-66694884D01*
X86908663Y-66650485D01*
X86867395Y-66642099D01*
X86829629Y-66623490D01*
X86750384Y-66618321D01*
X86672552Y-66602505D01*
X85973377Y-66599616D01*
X85943240Y-66554512D01*
X85642500Y-66353564D01*
X85287752Y-66283000D01*
X83212248Y-66283000D01*
X82857500Y-66353564D01*
X82556760Y-66554512D01*
X82355812Y-66855252D01*
X82285248Y-67210000D01*
X82355812Y-67564748D01*
X82556760Y-67865488D01*
X82857500Y-68066436D01*
X83212248Y-68137000D01*
X85287752Y-68137000D01*
X85642500Y-68066436D01*
X85943240Y-67865488D01*
X85963887Y-67834588D01*
X86312768Y-67836029D01*
X87003325Y-69031225D01*
X86815244Y-68953126D01*
X86526025Y-68952874D01*
X86410574Y-69000577D01*
X86163552Y-68952602D01*
X86144188Y-68855252D01*
X85943240Y-68554512D01*
X85642500Y-68353564D01*
X85287752Y-68283000D01*
X83212248Y-68283000D01*
X82857500Y-68353564D01*
X82556760Y-68554512D01*
X82355812Y-68855252D01*
X82285248Y-69210000D01*
X82355812Y-69564748D01*
X82556760Y-69865488D01*
X82857500Y-70066436D01*
X83037381Y-70102217D01*
X82698322Y-70209998D01*
X82357632Y-70497237D01*
X82155881Y-70908126D01*
X82282046Y-71083000D01*
X84123000Y-71083000D01*
X84123000Y-71063000D01*
X84377000Y-71063000D01*
X84377000Y-71083000D01*
X86217954Y-71083000D01*
X86344119Y-70908126D01*
X86142368Y-70497237D01*
X85801678Y-70209998D01*
X85462619Y-70102217D01*
X85533002Y-70088217D01*
X86174672Y-70212838D01*
X86257650Y-70295961D01*
X86524756Y-70406874D01*
X86813975Y-70407126D01*
X87008331Y-70326820D01*
X86817078Y-73340704D01*
X84782830Y-75656479D01*
X82490337Y-76985276D01*
X82490334Y-76985279D01*
X80162369Y-78334635D01*
X78980000Y-78334635D01*
X78821763Y-78364409D01*
X78676433Y-78457927D01*
X78578936Y-78600619D01*
X78544635Y-78770000D01*
X74265000Y-78770000D01*
X74265000Y-78643690D01*
X74168327Y-78410301D01*
X73989698Y-78231673D01*
X73756309Y-78135000D01*
X73065750Y-78135000D01*
X72907000Y-78293750D01*
X72653000Y-78293750D01*
X72494250Y-78135000D01*
X71803691Y-78135000D01*
X71570302Y-78231673D01*
X71391673Y-78410301D01*
X71295000Y-78643690D01*
X62713081Y-78643690D01*
X62743567Y-78624073D01*
X62841064Y-78481381D01*
X62875365Y-78312000D01*
X62875365Y-77612000D01*
X62845591Y-77453763D01*
X62752073Y-77308433D01*
X62609381Y-77210936D01*
X62560233Y-77200983D01*
X62798622Y-75923975D01*
X65052874Y-75923975D01*
X65163320Y-76191275D01*
X65367650Y-76395961D01*
X65634756Y-76506874D01*
X65923975Y-76507126D01*
X66191275Y-76396680D01*
X66395961Y-76192350D01*
X66429604Y-76111330D01*
X67990142Y-75179560D01*
X68295308Y-75179560D01*
X68435643Y-75319895D01*
X68544557Y-75583488D01*
X68748887Y-75788174D01*
X69015993Y-75899087D01*
X69305212Y-75899339D01*
X69572512Y-75788893D01*
X69777198Y-75584563D01*
X69888111Y-75317457D01*
X69888363Y-75028238D01*
X69777917Y-74760938D01*
X69573587Y-74556252D01*
X69308461Y-74446161D01*
X68999300Y-74137000D01*
X69287752Y-74137000D01*
X69642500Y-74066436D01*
X69943240Y-73865488D01*
X70144188Y-73564748D01*
X70214752Y-73210000D01*
X70207243Y-73172248D01*
X70323000Y-73172248D01*
X70323000Y-75247752D01*
X70393564Y-75602500D01*
X70594512Y-75903240D01*
X70895252Y-76104188D01*
X71250000Y-76174752D01*
X71604748Y-76104188D01*
X71905488Y-75903240D01*
X72106436Y-75602500D01*
X72177000Y-75247752D01*
X72177000Y-73172248D01*
X72323000Y-73172248D01*
X72323000Y-75247752D01*
X72393564Y-75602500D01*
X72594512Y-75903240D01*
X72895252Y-76104188D01*
X73250000Y-76174752D01*
X73604748Y-76104188D01*
X73905488Y-75903240D01*
X74106436Y-75602500D01*
X74177000Y-75247752D01*
X74177000Y-73172248D01*
X74323000Y-73172248D01*
X74323000Y-75247752D01*
X74393564Y-75602500D01*
X74594512Y-75903240D01*
X74895252Y-76104188D01*
X75250000Y-76174752D01*
X75604748Y-76104188D01*
X75905488Y-75903240D01*
X76106436Y-75602500D01*
X76177000Y-75247752D01*
X76177000Y-73172248D01*
X76323000Y-73172248D01*
X76323000Y-75247752D01*
X76393564Y-75602500D01*
X76594512Y-75903240D01*
X76895252Y-76104188D01*
X77250000Y-76174752D01*
X77604748Y-76104188D01*
X77905488Y-75903240D01*
X78106436Y-75602500D01*
X78177000Y-75247752D01*
X78177000Y-73172248D01*
X78323000Y-73172248D01*
X78323000Y-75247752D01*
X78393564Y-75602500D01*
X78594512Y-75903240D01*
X78895252Y-76104188D01*
X79250000Y-76174752D01*
X79604748Y-76104188D01*
X79905488Y-75903240D01*
X80106436Y-75602500D01*
X80177000Y-75247752D01*
X80177000Y-73172248D01*
X80323000Y-73172248D01*
X80323000Y-75247752D01*
X80393564Y-75602500D01*
X80594512Y-75903240D01*
X80895252Y-76104188D01*
X81250000Y-76174752D01*
X81604748Y-76104188D01*
X81905488Y-75903240D01*
X82106436Y-75602500D01*
X82177000Y-75247752D01*
X82177000Y-73554885D01*
X82357632Y-73922763D01*
X82698322Y-74210002D01*
X83123000Y-74345000D01*
X84123000Y-74345000D01*
X84123000Y-73337000D01*
X84377000Y-73337000D01*
X84377000Y-74345000D01*
X85377000Y-74345000D01*
X85801678Y-74210002D01*
X86142368Y-73922763D01*
X86344119Y-73511874D01*
X86217954Y-73337000D01*
X84377000Y-73337000D01*
X84123000Y-73337000D01*
X84103000Y-73337000D01*
X84103000Y-73083000D01*
X84123000Y-73083000D01*
X84123000Y-71337000D01*
X84377000Y-71337000D01*
X84377000Y-73083000D01*
X86217954Y-73083000D01*
X86344119Y-72908126D01*
X86142368Y-72497237D01*
X85801680Y-72210000D01*
X86142368Y-71922763D01*
X86344119Y-71511874D01*
X86217954Y-71337000D01*
X84377000Y-71337000D01*
X84123000Y-71337000D01*
X82282046Y-71337000D01*
X82155881Y-71511874D01*
X82357632Y-71922763D01*
X82698320Y-72210000D01*
X82357632Y-72497237D01*
X82155881Y-72908126D01*
X82282045Y-73082998D01*
X82159247Y-73082998D01*
X82106436Y-72817500D01*
X81905488Y-72516760D01*
X81604748Y-72315812D01*
X81250000Y-72245248D01*
X80895252Y-72315812D01*
X80594512Y-72516760D01*
X80393564Y-72817500D01*
X80323000Y-73172248D01*
X80177000Y-73172248D01*
X80106436Y-72817500D01*
X79905488Y-72516760D01*
X79604748Y-72315812D01*
X79250000Y-72245248D01*
X78895252Y-72315812D01*
X78594512Y-72516760D01*
X78393564Y-72817500D01*
X78323000Y-73172248D01*
X78177000Y-73172248D01*
X78106436Y-72817500D01*
X77905488Y-72516760D01*
X77604748Y-72315812D01*
X77250000Y-72245248D01*
X76895252Y-72315812D01*
X76594512Y-72516760D01*
X76393564Y-72817500D01*
X76323000Y-73172248D01*
X76177000Y-73172248D01*
X76106436Y-72817500D01*
X75905488Y-72516760D01*
X75604748Y-72315812D01*
X75250000Y-72245248D01*
X74895252Y-72315812D01*
X74594512Y-72516760D01*
X74393564Y-72817500D01*
X74323000Y-73172248D01*
X74177000Y-73172248D01*
X74106436Y-72817500D01*
X73905488Y-72516760D01*
X73604748Y-72315812D01*
X73250000Y-72245248D01*
X72895252Y-72315812D01*
X72594512Y-72516760D01*
X72393564Y-72817500D01*
X72323000Y-73172248D01*
X72177000Y-73172248D01*
X72106436Y-72817500D01*
X71905488Y-72516760D01*
X71604748Y-72315812D01*
X71250000Y-72245248D01*
X70895252Y-72315812D01*
X70594512Y-72516760D01*
X70393564Y-72817500D01*
X70323000Y-73172248D01*
X70207243Y-73172248D01*
X70144188Y-72855252D01*
X69943240Y-72554512D01*
X69642500Y-72353564D01*
X69287752Y-72283000D01*
X67257978Y-72283000D01*
X67614867Y-72137000D01*
X69287752Y-72137000D01*
X69642500Y-72066436D01*
X69943240Y-71865488D01*
X70144188Y-71564748D01*
X70214752Y-71210000D01*
X70144188Y-70855252D01*
X69943240Y-70554512D01*
X69642500Y-70353564D01*
X69287752Y-70283000D01*
X67212248Y-70283000D01*
X66857500Y-70353564D01*
X66556760Y-70554512D01*
X66355812Y-70855252D01*
X66285248Y-71210000D01*
X66288554Y-71226620D01*
X66078725Y-71313320D01*
X65874039Y-71517650D01*
X65763126Y-71784756D01*
X65762874Y-72073975D01*
X65873320Y-72341275D01*
X66077650Y-72545961D01*
X66344756Y-72656874D01*
X66488280Y-72656999D01*
X66355812Y-72855252D01*
X66285248Y-73210000D01*
X66355812Y-73564748D01*
X66556760Y-73865488D01*
X66857500Y-74066436D01*
X67207375Y-74136031D01*
X67168493Y-74231757D01*
X65793050Y-75053011D01*
X65636025Y-75052874D01*
X65368725Y-75163320D01*
X65164039Y-75367650D01*
X65053126Y-75634756D01*
X65052874Y-75923975D01*
X62798622Y-75923975D01*
X63335461Y-73048232D01*
X63428231Y-72986708D01*
X63923206Y-72491733D01*
X64014042Y-72358789D01*
X64050679Y-72189897D01*
X64018722Y-72020058D01*
X63923206Y-71876033D01*
X63003967Y-70956794D01*
X62871023Y-70865958D01*
X62702131Y-70829321D01*
X62532292Y-70861278D01*
X62388267Y-70956794D01*
X61893292Y-71451769D01*
X61802456Y-71584713D01*
X61765819Y-71753605D01*
X61797776Y-71923444D01*
X61893292Y-72067469D01*
X62204177Y-72378354D01*
X61350617Y-76950717D01*
X61334130Y-76940231D01*
X60505365Y-76413106D01*
X60505365Y-75925000D01*
X60475591Y-75766763D01*
X60382073Y-75621433D01*
X60239381Y-75523936D01*
X60070000Y-75489635D01*
X59334482Y-75489635D01*
X60086372Y-73676254D01*
X61573543Y-70410103D01*
X63109321Y-70410103D01*
X63141278Y-70579942D01*
X63236794Y-70723967D01*
X64156033Y-71643206D01*
X64288977Y-71734042D01*
X64457869Y-71770679D01*
X64627708Y-71738722D01*
X64771733Y-71643206D01*
X65266708Y-71148231D01*
X65357544Y-71015287D01*
X65394181Y-70846395D01*
X65362224Y-70676556D01*
X65266708Y-70532531D01*
X65235294Y-70501117D01*
X66319677Y-69383086D01*
X66355812Y-69564748D01*
X66556760Y-69865488D01*
X66857500Y-70066436D01*
X67212248Y-70137000D01*
X69287752Y-70137000D01*
X69642500Y-70066436D01*
X69943240Y-69865488D01*
X70144188Y-69564748D01*
X70214752Y-69210000D01*
X70144188Y-68855252D01*
X69943240Y-68554512D01*
X69642500Y-68353564D01*
X69287752Y-68283000D01*
X67553789Y-68283000D01*
X67826578Y-68137000D01*
X69287752Y-68137000D01*
X69642500Y-68066436D01*
X69943240Y-67865488D01*
X70144188Y-67564748D01*
X70214752Y-67210000D01*
X70144188Y-66855252D01*
X69943240Y-66554512D01*
X69642500Y-66353564D01*
X69287752Y-66283000D01*
X67212248Y-66283000D01*
X66857500Y-66353564D01*
X66556760Y-66554512D01*
X66355812Y-66855252D01*
X66285248Y-67210000D01*
X66355812Y-67564748D01*
X66358670Y-67569026D01*
X64361915Y-69627738D01*
X64347469Y-69613292D01*
X64214525Y-69522456D01*
X64045633Y-69485819D01*
X63875794Y-69517776D01*
X63731769Y-69613292D01*
X63236794Y-70108267D01*
X63145958Y-70241211D01*
X63109321Y-70410103D01*
X61573543Y-70410103D01*
X64241986Y-64549623D01*
X64241987Y-64549618D01*
X64256093Y-64518638D01*
X65058691Y-63823975D01*
X65652874Y-63823975D01*
X65763320Y-64091275D01*
X65967650Y-64295961D01*
X66234756Y-64406874D01*
X66523975Y-64407126D01*
X66791275Y-64296680D01*
X66902857Y-64185292D01*
X67146796Y-64123981D01*
X67212248Y-64137000D01*
X69287752Y-64137000D01*
X69456600Y-64103414D01*
X70045295Y-64231033D01*
X70684179Y-64550475D01*
X70687438Y-64586323D01*
X70535244Y-64523126D01*
X70246025Y-64522874D01*
X69998673Y-64625078D01*
X69990286Y-64624921D01*
X69943240Y-64554512D01*
X69642500Y-64353564D01*
X69287752Y-64283000D01*
X67212248Y-64283000D01*
X66857500Y-64353564D01*
X66556760Y-64554512D01*
X66355812Y-64855252D01*
X66285248Y-65210000D01*
X66355812Y-65564748D01*
X66556760Y-65865488D01*
X66857500Y-66066436D01*
X67212248Y-66137000D01*
X69287752Y-66137000D01*
X69642500Y-66066436D01*
X69943240Y-65865488D01*
X69947352Y-65859334D01*
X69971485Y-65859785D01*
X69977650Y-65865961D01*
X70244756Y-65976874D01*
X70533975Y-65977126D01*
X70801275Y-65866680D01*
X70803621Y-65864338D01*
X70871934Y-66615783D01*
X70795126Y-66800756D01*
X70794874Y-67089975D01*
X70905320Y-67357275D01*
X71109650Y-67561961D01*
X71376756Y-67672874D01*
X71665975Y-67673126D01*
X71933275Y-67562680D01*
X72137961Y-67358350D01*
X72248874Y-67091244D01*
X72249126Y-66802025D01*
X72138680Y-66534725D01*
X72101249Y-66497229D01*
X71882964Y-64096094D01*
X71862745Y-64027592D01*
X71853812Y-63956730D01*
X71828964Y-63913140D01*
X71814759Y-63865013D01*
X71769864Y-63809463D01*
X71734493Y-63747413D01*
X71694850Y-63716646D01*
X71663313Y-63677624D01*
X71600584Y-63643486D01*
X71544155Y-63599691D01*
X70528154Y-63091691D01*
X70453660Y-63071291D01*
X70382825Y-63040518D01*
X70171947Y-62994803D01*
X70170147Y-62985750D01*
X73339800Y-62985750D01*
X73339800Y-65061510D01*
X73436473Y-65294899D01*
X73615102Y-65473527D01*
X73848491Y-65570200D01*
X75924250Y-65570200D01*
X76083000Y-65411450D01*
X76083000Y-62827000D01*
X76337000Y-62827000D01*
X76337000Y-65411450D01*
X76495750Y-65570200D01*
X78571509Y-65570200D01*
X78804898Y-65473527D01*
X78983527Y-65294899D01*
X79080200Y-65061510D01*
X79080200Y-63210000D01*
X82285248Y-63210000D01*
X82355812Y-63564748D01*
X82556760Y-63865488D01*
X82857500Y-64066436D01*
X83212248Y-64137000D01*
X84779778Y-64137000D01*
X85094049Y-64283000D01*
X83212248Y-64283000D01*
X82857500Y-64353564D01*
X82556760Y-64554512D01*
X82355812Y-64855252D01*
X82285248Y-65210000D01*
X82355812Y-65564748D01*
X82556760Y-65865488D01*
X82857500Y-66066436D01*
X83212248Y-66137000D01*
X85287752Y-66137000D01*
X85642500Y-66066436D01*
X85943240Y-65865488D01*
X86073944Y-65669876D01*
X86363221Y-65644501D01*
X88347087Y-67006307D01*
X89450637Y-71458560D01*
X89492426Y-71547483D01*
X89527588Y-71639230D01*
X89543361Y-71655869D01*
X89553112Y-71676618D01*
X89625747Y-71742777D01*
X89693345Y-71814087D01*
X94030091Y-74882452D01*
X94083320Y-75011275D01*
X94287650Y-75215961D01*
X94554756Y-75326874D01*
X94843975Y-75327126D01*
X95111275Y-75216680D01*
X95315961Y-75012350D01*
X95426874Y-74745244D01*
X95427126Y-74456025D01*
X95316680Y-74188725D01*
X95313067Y-74185106D01*
X95551275Y-74086680D01*
X95755961Y-73882350D01*
X95866874Y-73615244D01*
X95867126Y-73326025D01*
X95756680Y-73058725D01*
X95552350Y-72854039D01*
X95285244Y-72743126D01*
X95106451Y-72742970D01*
X91201459Y-70550234D01*
X90047612Y-66114544D01*
X90006254Y-66029110D01*
X89972245Y-65940505D01*
X89954109Y-65921393D01*
X89942631Y-65897682D01*
X89871739Y-65834589D01*
X89806399Y-65765732D01*
X87146400Y-63885733D01*
X87095312Y-63862986D01*
X87050166Y-63829982D01*
X86172530Y-63422262D01*
X86214752Y-63210000D01*
X86144188Y-62855252D01*
X85943240Y-62554512D01*
X85642500Y-62353564D01*
X85287752Y-62283000D01*
X83212248Y-62283000D01*
X82857500Y-62353564D01*
X82556760Y-62554512D01*
X82355812Y-62855252D01*
X82285248Y-63210000D01*
X79080200Y-63210000D01*
X79080200Y-62985750D01*
X78921450Y-62827000D01*
X76337000Y-62827000D01*
X76083000Y-62827000D01*
X73498550Y-62827000D01*
X73339800Y-62985750D01*
X70170147Y-62985750D01*
X70144188Y-62855252D01*
X69943240Y-62554512D01*
X69642500Y-62353564D01*
X69287752Y-62283000D01*
X67212248Y-62283000D01*
X66857500Y-62353564D01*
X66556760Y-62554512D01*
X66355812Y-62855252D01*
X66336376Y-62952961D01*
X66236025Y-62952874D01*
X65968725Y-63063320D01*
X65764039Y-63267650D01*
X65653126Y-63534756D01*
X65652874Y-63823975D01*
X65058691Y-63823975D01*
X66945596Y-62190826D01*
X67177204Y-62130029D01*
X67212248Y-62137000D01*
X69287752Y-62137000D01*
X69642500Y-62066436D01*
X69943240Y-61865488D01*
X70144188Y-61564748D01*
X70214752Y-61210000D01*
X70144188Y-60855252D01*
X69943240Y-60554512D01*
X69642500Y-60353564D01*
X69287752Y-60283000D01*
X67212248Y-60283000D01*
X66857500Y-60353564D01*
X66556760Y-60554512D01*
X66355812Y-60855252D01*
X66301990Y-61125831D01*
X66276589Y-61138197D01*
X66263304Y-61153191D01*
X66245887Y-61163096D01*
X63345887Y-63673096D01*
X63338687Y-63682354D01*
X63328717Y-63688528D01*
X63264985Y-63777119D01*
X63197972Y-63863284D01*
X63194863Y-63874593D01*
X63188015Y-63884112D01*
X63118015Y-64037847D01*
X58958015Y-73174112D01*
X58955558Y-73184562D01*
X58949589Y-73193488D01*
X58099589Y-75243488D01*
X58090320Y-75290000D01*
X57855750Y-75290000D01*
X57697000Y-75448750D01*
X57697000Y-76423000D01*
X57717000Y-76423000D01*
X57717000Y-76677000D01*
X57697000Y-76677000D01*
X57697000Y-77651250D01*
X57727000Y-77681250D01*
X57727000Y-78373000D01*
X57747000Y-78373000D01*
X57747000Y-78627000D01*
X57727000Y-78627000D01*
X57727000Y-79601250D01*
X57885750Y-79760000D01*
X57952500Y-79760000D01*
X57952500Y-80090000D01*
X57961965Y-80137582D01*
X57960017Y-80186060D01*
X58050029Y-80757635D01*
X57620000Y-80757635D01*
X57461763Y-80787409D01*
X57316433Y-80880927D01*
X57218936Y-81023619D01*
X57197067Y-81131612D01*
X56978310Y-81041000D01*
X56487750Y-81041000D01*
X56329000Y-81199750D01*
X56329000Y-81899000D01*
X56349000Y-81899000D01*
X56349000Y-82153000D01*
X56329000Y-82153000D01*
X56329000Y-82852250D01*
X56487750Y-83011000D01*
X56978310Y-83011000D01*
X57016438Y-82995207D01*
X57046438Y-83067635D01*
X56766510Y-83140635D01*
X55552000Y-83140635D01*
X55393763Y-83170409D01*
X55248433Y-83263927D01*
X55150936Y-83406619D01*
X55116635Y-83576000D01*
X40328348Y-83576000D01*
X39834475Y-82311750D01*
X54917000Y-82311750D01*
X54917000Y-82502309D01*
X55013673Y-82735698D01*
X55192301Y-82914327D01*
X55425690Y-83011000D01*
X55916250Y-83011000D01*
X56075000Y-82852250D01*
X56075000Y-82153000D01*
X55075750Y-82153000D01*
X54917000Y-82311750D01*
X39834475Y-82311750D01*
X39536781Y-81549691D01*
X54917000Y-81549691D01*
X54917000Y-81740250D01*
X55075750Y-81899000D01*
X56075000Y-81899000D01*
X56075000Y-81199750D01*
X55916250Y-81041000D01*
X55425690Y-81041000D01*
X55192301Y-81137673D01*
X55013673Y-81316302D01*
X54917000Y-81549691D01*
X39536781Y-81549691D01*
X38549343Y-79021978D01*
X39507627Y-79021978D01*
X39880658Y-79522608D01*
X41304262Y-80124333D01*
X42849772Y-80135466D01*
X44281896Y-79554311D01*
X44329342Y-79522608D01*
X44702373Y-79021978D01*
X42105000Y-76424605D01*
X39507627Y-79021978D01*
X38549343Y-79021978D01*
X38489209Y-78868044D01*
X38506219Y-77708563D01*
X38795689Y-78421896D01*
X38827392Y-78469342D01*
X39328022Y-78842373D01*
X41925395Y-76245000D01*
X42284605Y-76245000D01*
X44881978Y-78842373D01*
X45382608Y-78469342D01*
X45984333Y-77045738D01*
X45989807Y-76285750D01*
X48990000Y-76285750D01*
X48990000Y-76626309D01*
X49086673Y-76859698D01*
X49265301Y-77038327D01*
X49440890Y-77111058D01*
X49321433Y-77187927D01*
X49223936Y-77330619D01*
X49189635Y-77500000D01*
X49189635Y-78500000D01*
X49219409Y-78658237D01*
X49312927Y-78803567D01*
X49455619Y-78901064D01*
X49562222Y-78922652D01*
X49553641Y-79038099D01*
X49524039Y-79067650D01*
X49413126Y-79334756D01*
X49412874Y-79623975D01*
X49523320Y-79891275D01*
X49727650Y-80095961D01*
X49994756Y-80206874D01*
X50283975Y-80207126D01*
X50551275Y-80096680D01*
X50755961Y-79892350D01*
X50866874Y-79625244D01*
X50867126Y-79336025D01*
X50784726Y-79136601D01*
X50799682Y-78935365D01*
X50875000Y-78935365D01*
X51033237Y-78905591D01*
X51178567Y-78812073D01*
X51196552Y-78785750D01*
X56465000Y-78785750D01*
X56465000Y-79251310D01*
X56561673Y-79484699D01*
X56740302Y-79663327D01*
X56973691Y-79760000D01*
X57314250Y-79760000D01*
X57473000Y-79601250D01*
X57473000Y-78627000D01*
X56623750Y-78627000D01*
X56465000Y-78785750D01*
X51196552Y-78785750D01*
X51276064Y-78669381D01*
X51310365Y-78500000D01*
X51310365Y-78293678D01*
X53890136Y-77422499D01*
X53924756Y-77436874D01*
X54213975Y-77437126D01*
X54481275Y-77326680D01*
X54685961Y-77122350D01*
X54796874Y-76855244D01*
X54796890Y-76835750D01*
X56435000Y-76835750D01*
X56435000Y-77301310D01*
X56531673Y-77534699D01*
X56547205Y-77550231D01*
X56465000Y-77748690D01*
X56465000Y-78214250D01*
X56623750Y-78373000D01*
X57473000Y-78373000D01*
X57473000Y-77398750D01*
X57443000Y-77368750D01*
X57443000Y-76677000D01*
X56593750Y-76677000D01*
X56435000Y-76835750D01*
X54796890Y-76835750D01*
X54797126Y-76566025D01*
X54686680Y-76298725D01*
X54482350Y-76094039D01*
X54215244Y-75983126D01*
X53926025Y-75982874D01*
X53658725Y-76093320D01*
X53501576Y-76250195D01*
X51268846Y-77004180D01*
X51413327Y-76859698D01*
X51510000Y-76626309D01*
X51510000Y-76285750D01*
X51351250Y-76127000D01*
X50377000Y-76127000D01*
X50377000Y-76147000D01*
X50123000Y-76147000D01*
X50123000Y-76127000D01*
X49148750Y-76127000D01*
X48990000Y-76285750D01*
X45989807Y-76285750D01*
X45995466Y-75500228D01*
X45944118Y-75373691D01*
X48990000Y-75373691D01*
X48990000Y-75714250D01*
X49148750Y-75873000D01*
X50123000Y-75873000D01*
X50123000Y-75023750D01*
X50377000Y-75023750D01*
X50377000Y-75873000D01*
X51351250Y-75873000D01*
X51425560Y-75798690D01*
X56435000Y-75798690D01*
X56435000Y-76264250D01*
X56593750Y-76423000D01*
X57443000Y-76423000D01*
X57443000Y-75448750D01*
X57284250Y-75290000D01*
X56943691Y-75290000D01*
X56710302Y-75386673D01*
X56531673Y-75565301D01*
X56435000Y-75798690D01*
X51425560Y-75798690D01*
X51510000Y-75714250D01*
X51510000Y-75373691D01*
X51413327Y-75140302D01*
X51234699Y-74961673D01*
X51001310Y-74865000D01*
X50535750Y-74865000D01*
X50377000Y-75023750D01*
X50123000Y-75023750D01*
X49964250Y-74865000D01*
X49498690Y-74865000D01*
X49265301Y-74961673D01*
X49086673Y-75140302D01*
X48990000Y-75373691D01*
X45944118Y-75373691D01*
X45414311Y-74068104D01*
X45382608Y-74020658D01*
X44881978Y-73647627D01*
X42284605Y-76245000D01*
X41925395Y-76245000D01*
X41911253Y-76230858D01*
X42090858Y-76051253D01*
X42105000Y-76065395D01*
X44702373Y-73468022D01*
X44329342Y-72967392D01*
X42905738Y-72365667D01*
X41360228Y-72354534D01*
X39928104Y-72935689D01*
X39880658Y-72967392D01*
X39514220Y-73459174D01*
X41848753Y-69588945D01*
X41869746Y-69530789D01*
X41901509Y-69477735D01*
X42259552Y-68475469D01*
X49290794Y-68475469D01*
X49471427Y-68912635D01*
X49805606Y-69247397D01*
X50242456Y-69428793D01*
X50715469Y-69429206D01*
X51152635Y-69248573D01*
X51487397Y-68914394D01*
X51668793Y-68477544D01*
X51669206Y-68004531D01*
X51488573Y-67567365D01*
X51154394Y-67232603D01*
X50717544Y-67051207D01*
X50244531Y-67050794D01*
X49807365Y-67231427D01*
X49472603Y-67565606D01*
X49291207Y-68002456D01*
X49290794Y-68475469D01*
X42259552Y-68475469D01*
X44650511Y-61782501D01*
X44747363Y-61674887D01*
X46749873Y-61674887D01*
X46807980Y-61891743D01*
X46884139Y-61935714D01*
X47102913Y-62062023D01*
X47353371Y-62094997D01*
X47597382Y-62029613D01*
X47797797Y-61875829D01*
X47844077Y-61795671D01*
X47785970Y-61578814D01*
X47050498Y-61154189D01*
X46749873Y-61674887D01*
X44747363Y-61674887D01*
X45840968Y-60459770D01*
X45972468Y-60497392D01*
X45956573Y-60524923D01*
X46092321Y-60603297D01*
X45878199Y-60660671D01*
X45831920Y-60740829D01*
X45798946Y-60991286D01*
X45864328Y-61235298D01*
X46018113Y-61435713D01*
X46236887Y-61562023D01*
X46313046Y-61605993D01*
X46529903Y-61547887D01*
X46830528Y-61027189D01*
X46813207Y-61017189D01*
X46938207Y-60800683D01*
X46955528Y-60810683D01*
X46966528Y-60791630D01*
X47186498Y-60918630D01*
X47175498Y-60937683D01*
X47910970Y-61362308D01*
X48127827Y-61304201D01*
X48174106Y-61224043D01*
X48207080Y-60973586D01*
X48169393Y-60832936D01*
X48313063Y-60584094D01*
X48334622Y-60522680D01*
X49834232Y-61428817D01*
X49758473Y-61813363D01*
X49674039Y-61897650D01*
X49563126Y-62164756D01*
X49562874Y-62453975D01*
X49673320Y-62721275D01*
X49877650Y-62925961D01*
X50144756Y-63036874D01*
X50433975Y-63037126D01*
X50701275Y-62926680D01*
X50905961Y-62722350D01*
X51016874Y-62455244D01*
X51017126Y-62166025D01*
X51004766Y-62136111D01*
X52150649Y-62828509D01*
X52163793Y-62833265D01*
X52174524Y-62842218D01*
X52276625Y-62874093D01*
X52377210Y-62910489D01*
X52391172Y-62909853D01*
X52404513Y-62914018D01*
X61484150Y-63882385D01*
X61527650Y-63925961D01*
X61794756Y-64036874D01*
X62083975Y-64037126D01*
X62351275Y-63926680D01*
X62555961Y-63722350D01*
X62666874Y-63455244D01*
X62667126Y-63166025D01*
X62556680Y-62898725D01*
X62352350Y-62694039D01*
X62085244Y-62583126D01*
X61796025Y-62582874D01*
X61621418Y-62655020D01*
X52671918Y-61700533D01*
X50809351Y-60575079D01*
X48936472Y-59443395D01*
X49038063Y-59328356D01*
X49069727Y-59273512D01*
X49518351Y-59267444D01*
X49616426Y-59246553D01*
X49715662Y-59232245D01*
X53905661Y-57752245D01*
X53978604Y-57708928D01*
X54056125Y-57674461D01*
X62456125Y-51744461D01*
X62480087Y-51719236D01*
X62510109Y-51701646D01*
X66354123Y-48286773D01*
X66233011Y-57638355D01*
G36*
X58277000Y-82341000D02*
X58297000Y-82341000D01*
X58297000Y-82595000D01*
X58277000Y-82595000D01*
X58277000Y-82615000D01*
X58023000Y-82615000D01*
X58023000Y-82595000D01*
X58003000Y-82595000D01*
X58003000Y-82341000D01*
X58023000Y-82341000D01*
X58023000Y-82321000D01*
X58277000Y-82321000D01*
X58277000Y-82341000D01*
X58277000Y-82341000D01*
G37*
X58277000Y-82341000D02*
X58297000Y-82341000D01*
X58297000Y-82595000D01*
X58277000Y-82595000D01*
X58277000Y-82615000D01*
X58023000Y-82615000D01*
X58023000Y-82595000D01*
X58003000Y-82595000D01*
X58003000Y-82341000D01*
X58023000Y-82341000D01*
X58023000Y-82321000D01*
X58277000Y-82321000D01*
X58277000Y-82341000D01*
M02*
