G04 #@! TF.FileFunction,Soldermask,Bot*
%FSLAX46Y46*%
G04 Gerber Fmt 4.6, Leading zero omitted, Abs format (unit mm)*
G04 Created by KiCad (PCBNEW 4.0.2+dfsg1-stable) date Tue 20 Nov 2018 02:17:26 PM EST*
%MOMM*%
G01*
G04 APERTURE LIST*
%ADD10C,0.100000*%
%ADD11C,0.300000*%
%ADD12C,10.560000*%
G04 APERTURE END LIST*
D10*
D11*
X172321428Y-156892857D02*
X172107142Y-156964286D01*
X172035714Y-157035714D01*
X171964285Y-157178571D01*
X171964285Y-157392857D01*
X172035714Y-157535714D01*
X172107142Y-157607143D01*
X172250000Y-157678571D01*
X172821428Y-157678571D01*
X172821428Y-156178571D01*
X172321428Y-156178571D01*
X172178571Y-156250000D01*
X172107142Y-156321429D01*
X172035714Y-156464286D01*
X172035714Y-156607143D01*
X172107142Y-156750000D01*
X172178571Y-156821429D01*
X172321428Y-156892857D01*
X172821428Y-156892857D01*
X170678571Y-157678571D02*
X170678571Y-156892857D01*
X170750000Y-156750000D01*
X170892857Y-156678571D01*
X171178571Y-156678571D01*
X171321428Y-156750000D01*
X170678571Y-157607143D02*
X170821428Y-157678571D01*
X171178571Y-157678571D01*
X171321428Y-157607143D01*
X171392857Y-157464286D01*
X171392857Y-157321429D01*
X171321428Y-157178571D01*
X171178571Y-157107143D01*
X170821428Y-157107143D01*
X170678571Y-157035714D01*
X169321428Y-157607143D02*
X169464285Y-157678571D01*
X169749999Y-157678571D01*
X169892857Y-157607143D01*
X169964285Y-157535714D01*
X170035714Y-157392857D01*
X170035714Y-156964286D01*
X169964285Y-156821429D01*
X169892857Y-156750000D01*
X169749999Y-156678571D01*
X169464285Y-156678571D01*
X169321428Y-156750000D01*
X168678571Y-157678571D02*
X168678571Y-156178571D01*
X168535714Y-157107143D02*
X168107143Y-157678571D01*
X168107143Y-156678571D02*
X168678571Y-157250000D01*
X166107142Y-157678571D02*
X166250000Y-157607143D01*
X166321428Y-157535714D01*
X166392857Y-157392857D01*
X166392857Y-156964286D01*
X166321428Y-156821429D01*
X166250000Y-156750000D01*
X166107142Y-156678571D01*
X165892857Y-156678571D01*
X165750000Y-156750000D01*
X165678571Y-156821429D01*
X165607142Y-156964286D01*
X165607142Y-157392857D01*
X165678571Y-157535714D01*
X165750000Y-157607143D01*
X165892857Y-157678571D01*
X166107142Y-157678571D01*
X165178571Y-156678571D02*
X164607142Y-156678571D01*
X164964285Y-157678571D02*
X164964285Y-156392857D01*
X164892857Y-156250000D01*
X164749999Y-156178571D01*
X164607142Y-156178571D01*
X162464285Y-156892857D02*
X162249999Y-156964286D01*
X162178571Y-157035714D01*
X162107142Y-157178571D01*
X162107142Y-157392857D01*
X162178571Y-157535714D01*
X162249999Y-157607143D01*
X162392857Y-157678571D01*
X162964285Y-157678571D01*
X162964285Y-156178571D01*
X162464285Y-156178571D01*
X162321428Y-156250000D01*
X162249999Y-156321429D01*
X162178571Y-156464286D01*
X162178571Y-156607143D01*
X162249999Y-156750000D01*
X162321428Y-156821429D01*
X162464285Y-156892857D01*
X162964285Y-156892857D01*
X161249999Y-157678571D02*
X161392857Y-157607143D01*
X161464285Y-157535714D01*
X161535714Y-157392857D01*
X161535714Y-156964286D01*
X161464285Y-156821429D01*
X161392857Y-156750000D01*
X161249999Y-156678571D01*
X161035714Y-156678571D01*
X160892857Y-156750000D01*
X160821428Y-156821429D01*
X160749999Y-156964286D01*
X160749999Y-157392857D01*
X160821428Y-157535714D01*
X160892857Y-157607143D01*
X161035714Y-157678571D01*
X161249999Y-157678571D01*
X159464285Y-157678571D02*
X159464285Y-156892857D01*
X159535714Y-156750000D01*
X159678571Y-156678571D01*
X159964285Y-156678571D01*
X160107142Y-156750000D01*
X159464285Y-157607143D02*
X159607142Y-157678571D01*
X159964285Y-157678571D01*
X160107142Y-157607143D01*
X160178571Y-157464286D01*
X160178571Y-157321429D01*
X160107142Y-157178571D01*
X159964285Y-157107143D01*
X159607142Y-157107143D01*
X159464285Y-157035714D01*
X158749999Y-157678571D02*
X158749999Y-156678571D01*
X158749999Y-156964286D02*
X158678571Y-156821429D01*
X158607142Y-156750000D01*
X158464285Y-156678571D01*
X158321428Y-156678571D01*
X157178571Y-157678571D02*
X157178571Y-156178571D01*
X157178571Y-157607143D02*
X157321428Y-157678571D01*
X157607142Y-157678571D01*
X157750000Y-157607143D01*
X157821428Y-157535714D01*
X157892857Y-157392857D01*
X157892857Y-156964286D01*
X157821428Y-156821429D01*
X157750000Y-156750000D01*
X157607142Y-156678571D01*
X157321428Y-156678571D01*
X157178571Y-156750000D01*
X155321428Y-157678571D02*
X155321428Y-156178571D01*
X154464285Y-157678571D01*
X154464285Y-156178571D01*
X153535713Y-157678571D02*
X153678571Y-157607143D01*
X153749999Y-157535714D01*
X153821428Y-157392857D01*
X153821428Y-156964286D01*
X153749999Y-156821429D01*
X153678571Y-156750000D01*
X153535713Y-156678571D01*
X153321428Y-156678571D01*
X153178571Y-156750000D01*
X153107142Y-156821429D01*
X153035713Y-156964286D01*
X153035713Y-157392857D01*
X153107142Y-157535714D01*
X153178571Y-157607143D01*
X153321428Y-157678571D01*
X153535713Y-157678571D01*
X152392856Y-157107143D02*
X151249999Y-157107143D01*
X150607142Y-157607143D02*
X150392856Y-157678571D01*
X150035713Y-157678571D01*
X149892856Y-157607143D01*
X149821427Y-157535714D01*
X149749999Y-157392857D01*
X149749999Y-157250000D01*
X149821427Y-157107143D01*
X149892856Y-157035714D01*
X150035713Y-156964286D01*
X150321427Y-156892857D01*
X150464285Y-156821429D01*
X150535713Y-156750000D01*
X150607142Y-156607143D01*
X150607142Y-156464286D01*
X150535713Y-156321429D01*
X150464285Y-156250000D01*
X150321427Y-156178571D01*
X149964285Y-156178571D01*
X149749999Y-156250000D01*
X148892856Y-157678571D02*
X149035714Y-157607143D01*
X149107142Y-157535714D01*
X149178571Y-157392857D01*
X149178571Y-156964286D01*
X149107142Y-156821429D01*
X149035714Y-156750000D01*
X148892856Y-156678571D01*
X148678571Y-156678571D01*
X148535714Y-156750000D01*
X148464285Y-156821429D01*
X148392856Y-156964286D01*
X148392856Y-157392857D01*
X148464285Y-157535714D01*
X148535714Y-157607143D01*
X148678571Y-157678571D01*
X148892856Y-157678571D01*
X147535713Y-157678571D02*
X147678571Y-157607143D01*
X147749999Y-157464286D01*
X147749999Y-156178571D01*
X146321428Y-157678571D02*
X146321428Y-156178571D01*
X146321428Y-157607143D02*
X146464285Y-157678571D01*
X146749999Y-157678571D01*
X146892857Y-157607143D01*
X146964285Y-157535714D01*
X147035714Y-157392857D01*
X147035714Y-156964286D01*
X146964285Y-156821429D01*
X146892857Y-156750000D01*
X146749999Y-156678571D01*
X146464285Y-156678571D01*
X146321428Y-156750000D01*
X145035714Y-157607143D02*
X145178571Y-157678571D01*
X145464285Y-157678571D01*
X145607142Y-157607143D01*
X145678571Y-157464286D01*
X145678571Y-156892857D01*
X145607142Y-156750000D01*
X145464285Y-156678571D01*
X145178571Y-156678571D01*
X145035714Y-156750000D01*
X144964285Y-156892857D01*
X144964285Y-157035714D01*
X145678571Y-157178571D01*
X144321428Y-157678571D02*
X144321428Y-156678571D01*
X144321428Y-156964286D02*
X144250000Y-156821429D01*
X144178571Y-156750000D01*
X144035714Y-156678571D01*
X143892857Y-156678571D01*
X143392857Y-157678571D02*
X143392857Y-156678571D01*
X143392857Y-156821429D02*
X143321429Y-156750000D01*
X143178571Y-156678571D01*
X142964286Y-156678571D01*
X142821429Y-156750000D01*
X142750000Y-156892857D01*
X142750000Y-157678571D01*
X142750000Y-156892857D02*
X142678571Y-156750000D01*
X142535714Y-156678571D01*
X142321429Y-156678571D01*
X142178571Y-156750000D01*
X142107143Y-156892857D01*
X142107143Y-157678571D01*
X140750000Y-157678571D02*
X140750000Y-156892857D01*
X140821429Y-156750000D01*
X140964286Y-156678571D01*
X141250000Y-156678571D01*
X141392857Y-156750000D01*
X140750000Y-157607143D02*
X140892857Y-157678571D01*
X141250000Y-157678571D01*
X141392857Y-157607143D01*
X141464286Y-157464286D01*
X141464286Y-157321429D01*
X141392857Y-157178571D01*
X141250000Y-157107143D01*
X140892857Y-157107143D01*
X140750000Y-157035714D01*
X140107143Y-157607143D02*
X139964286Y-157678571D01*
X139678571Y-157678571D01*
X139535714Y-157607143D01*
X139464286Y-157464286D01*
X139464286Y-157392857D01*
X139535714Y-157250000D01*
X139678571Y-157178571D01*
X139892857Y-157178571D01*
X140035714Y-157107143D01*
X140107143Y-156964286D01*
X140107143Y-156892857D01*
X140035714Y-156750000D01*
X139892857Y-156678571D01*
X139678571Y-156678571D01*
X139535714Y-156750000D01*
X138821428Y-157678571D02*
X138821428Y-156178571D01*
X138678571Y-157107143D02*
X138250000Y-157678571D01*
X138250000Y-156678571D02*
X138821428Y-157250000D01*
D12*
X145000000Y-105000000D03*
X165000000Y-105000000D03*
M02*
