G04 #@! TF.FileFunction,Legend,Bot*
%FSLAX46Y46*%
G04 Gerber Fmt 4.6, Leading zero omitted, Abs format (unit mm)*
G04 Created by KiCad (PCBNEW 4.0.2+dfsg1-stable) date Tue 20 Nov 2018 02:17:26 PM EST*
%MOMM*%
G01*
G04 APERTURE LIST*
%ADD10C,0.100000*%
%ADD11C,0.300000*%
G04 APERTURE END LIST*
D10*
D11*
X167749999Y-112892857D02*
X167535713Y-112964286D01*
X167464285Y-113035714D01*
X167392856Y-113178571D01*
X167392856Y-113392857D01*
X167464285Y-113535714D01*
X167535713Y-113607143D01*
X167678571Y-113678571D01*
X168249999Y-113678571D01*
X168249999Y-112178571D01*
X167749999Y-112178571D01*
X167607142Y-112250000D01*
X167535713Y-112321429D01*
X167464285Y-112464286D01*
X167464285Y-112607143D01*
X167535713Y-112750000D01*
X167607142Y-112821429D01*
X167749999Y-112892857D01*
X168249999Y-112892857D01*
X166107142Y-113678571D02*
X166107142Y-112892857D01*
X166178571Y-112750000D01*
X166321428Y-112678571D01*
X166607142Y-112678571D01*
X166749999Y-112750000D01*
X166107142Y-113607143D02*
X166249999Y-113678571D01*
X166607142Y-113678571D01*
X166749999Y-113607143D01*
X166821428Y-113464286D01*
X166821428Y-113321429D01*
X166749999Y-113178571D01*
X166607142Y-113107143D01*
X166249999Y-113107143D01*
X166107142Y-113035714D01*
X164749999Y-113607143D02*
X164892856Y-113678571D01*
X165178570Y-113678571D01*
X165321428Y-113607143D01*
X165392856Y-113535714D01*
X165464285Y-113392857D01*
X165464285Y-112964286D01*
X165392856Y-112821429D01*
X165321428Y-112750000D01*
X165178570Y-112678571D01*
X164892856Y-112678571D01*
X164749999Y-112750000D01*
X164107142Y-113678571D02*
X164107142Y-112178571D01*
X163964285Y-113107143D02*
X163535714Y-113678571D01*
X163535714Y-112678571D02*
X164107142Y-113250000D01*
X161464285Y-112178571D02*
X161178571Y-112178571D01*
X161035713Y-112250000D01*
X160892856Y-112392857D01*
X160821428Y-112678571D01*
X160821428Y-113178571D01*
X160892856Y-113464286D01*
X161035713Y-113607143D01*
X161178571Y-113678571D01*
X161464285Y-113678571D01*
X161607142Y-113607143D01*
X161749999Y-113464286D01*
X161821428Y-113178571D01*
X161821428Y-112678571D01*
X161749999Y-112392857D01*
X161607142Y-112250000D01*
X161464285Y-112178571D01*
X160392856Y-112678571D02*
X159821427Y-112678571D01*
X160178570Y-113678571D02*
X160178570Y-112392857D01*
X160107142Y-112250000D01*
X159964284Y-112178571D01*
X159821427Y-112178571D01*
X157678570Y-112892857D02*
X157464284Y-112964286D01*
X157392856Y-113035714D01*
X157321427Y-113178571D01*
X157321427Y-113392857D01*
X157392856Y-113535714D01*
X157464284Y-113607143D01*
X157607142Y-113678571D01*
X158178570Y-113678571D01*
X158178570Y-112178571D01*
X157678570Y-112178571D01*
X157535713Y-112250000D01*
X157464284Y-112321429D01*
X157392856Y-112464286D01*
X157392856Y-112607143D01*
X157464284Y-112750000D01*
X157535713Y-112821429D01*
X157678570Y-112892857D01*
X158178570Y-112892857D01*
X156464284Y-113678571D02*
X156607142Y-113607143D01*
X156678570Y-113535714D01*
X156749999Y-113392857D01*
X156749999Y-112964286D01*
X156678570Y-112821429D01*
X156607142Y-112750000D01*
X156464284Y-112678571D01*
X156249999Y-112678571D01*
X156107142Y-112750000D01*
X156035713Y-112821429D01*
X155964284Y-112964286D01*
X155964284Y-113392857D01*
X156035713Y-113535714D01*
X156107142Y-113607143D01*
X156249999Y-113678571D01*
X156464284Y-113678571D01*
X154678570Y-113678571D02*
X154678570Y-112892857D01*
X154749999Y-112750000D01*
X154892856Y-112678571D01*
X155178570Y-112678571D01*
X155321427Y-112750000D01*
X154678570Y-113607143D02*
X154821427Y-113678571D01*
X155178570Y-113678571D01*
X155321427Y-113607143D01*
X155392856Y-113464286D01*
X155392856Y-113321429D01*
X155321427Y-113178571D01*
X155178570Y-113107143D01*
X154821427Y-113107143D01*
X154678570Y-113035714D01*
X153964284Y-113678571D02*
X153964284Y-112678571D01*
X153964284Y-112964286D02*
X153892856Y-112821429D01*
X153821427Y-112750000D01*
X153678570Y-112678571D01*
X153535713Y-112678571D01*
X152392856Y-113678571D02*
X152392856Y-112178571D01*
X152392856Y-113607143D02*
X152535713Y-113678571D01*
X152821427Y-113678571D01*
X152964285Y-113607143D01*
X153035713Y-113535714D01*
X153107142Y-113392857D01*
X153107142Y-112964286D01*
X153035713Y-112821429D01*
X152964285Y-112750000D01*
X152821427Y-112678571D01*
X152535713Y-112678571D01*
X152392856Y-112750000D01*
X150607142Y-113607143D02*
X150392856Y-113678571D01*
X150035713Y-113678571D01*
X149892856Y-113607143D01*
X149821427Y-113535714D01*
X149749999Y-113392857D01*
X149749999Y-113250000D01*
X149821427Y-113107143D01*
X149892856Y-113035714D01*
X150035713Y-112964286D01*
X150321427Y-112892857D01*
X150464285Y-112821429D01*
X150535713Y-112750000D01*
X150607142Y-112607143D01*
X150607142Y-112464286D01*
X150535713Y-112321429D01*
X150464285Y-112250000D01*
X150321427Y-112178571D01*
X149964285Y-112178571D01*
X149749999Y-112250000D01*
X149107142Y-113678571D02*
X149107142Y-112678571D01*
X149107142Y-112178571D02*
X149178571Y-112250000D01*
X149107142Y-112321429D01*
X149035714Y-112250000D01*
X149107142Y-112178571D01*
X149107142Y-112321429D01*
X148178570Y-113678571D02*
X148321428Y-113607143D01*
X148392856Y-113464286D01*
X148392856Y-112178571D01*
X147607142Y-113678571D02*
X147607142Y-112178571D01*
X147464285Y-113107143D02*
X147035714Y-113678571D01*
X147035714Y-112678571D02*
X147607142Y-113250000D01*
X146464285Y-113607143D02*
X146321428Y-113678571D01*
X146035713Y-113678571D01*
X145892856Y-113607143D01*
X145821428Y-113464286D01*
X145821428Y-113392857D01*
X145892856Y-113250000D01*
X146035713Y-113178571D01*
X146249999Y-113178571D01*
X146392856Y-113107143D01*
X146464285Y-112964286D01*
X146464285Y-112892857D01*
X146392856Y-112750000D01*
X146249999Y-112678571D01*
X146035713Y-112678571D01*
X145892856Y-112750000D01*
X144535713Y-113607143D02*
X144678570Y-113678571D01*
X144964284Y-113678571D01*
X145107142Y-113607143D01*
X145178570Y-113535714D01*
X145249999Y-113392857D01*
X145249999Y-112964286D01*
X145178570Y-112821429D01*
X145107142Y-112750000D01*
X144964284Y-112678571D01*
X144678570Y-112678571D01*
X144535713Y-112750000D01*
X143892856Y-113678571D02*
X143892856Y-112678571D01*
X143892856Y-112964286D02*
X143821428Y-112821429D01*
X143749999Y-112750000D01*
X143607142Y-112678571D01*
X143464285Y-112678571D01*
X142392857Y-113607143D02*
X142535714Y-113678571D01*
X142821428Y-113678571D01*
X142964285Y-113607143D01*
X143035714Y-113464286D01*
X143035714Y-112892857D01*
X142964285Y-112750000D01*
X142821428Y-112678571D01*
X142535714Y-112678571D01*
X142392857Y-112750000D01*
X142321428Y-112892857D01*
X142321428Y-113035714D01*
X143035714Y-113178571D01*
X141107143Y-113607143D02*
X141250000Y-113678571D01*
X141535714Y-113678571D01*
X141678571Y-113607143D01*
X141750000Y-113464286D01*
X141750000Y-112892857D01*
X141678571Y-112750000D01*
X141535714Y-112678571D01*
X141250000Y-112678571D01*
X141107143Y-112750000D01*
X141035714Y-112892857D01*
X141035714Y-113035714D01*
X141750000Y-113178571D01*
X140392857Y-112678571D02*
X140392857Y-113678571D01*
X140392857Y-112821429D02*
X140321429Y-112750000D01*
X140178571Y-112678571D01*
X139964286Y-112678571D01*
X139821429Y-112750000D01*
X139750000Y-112892857D01*
X139750000Y-113678571D01*
M02*
