<?xml version="1.0" encoding="utf-8"?>
<!-- Generator: Adobe Illustrator 22.1.0, SVG Export Plug-In . SVG Version: 6.00 Build 0)  -->
<svg version="1.1" id="Layer_1" xmlns="http://www.w3.org/2000/svg" xmlns:xlink="http://www.w3.org/1999/xlink" x="0px" y="0px"
	 viewBox="0 0 3000 3000" style="enable-background:new 0 0 3000 3000;" xml:space="preserve">
<g id="zhxYjU.tif">
	<g id="XMZTNJ.tif">
		<g>
			<g>
				<path d="M2375.8,2530.2c-582.7,0-1165.5,0-1748.2,0c-11.1-6.8-15.6-16.1-15.6-29.7c0.3-664.1,0.3-1328.1,0.3-1992.2
					c0-22.8,7.7-30.5,30.3-30.5c572.8,0,1145.5,0,1718.3,0c22.7,0,30.3,7.7,30.3,30.6c0,664.1,0,1328.1,0.3,1992.2
					C2391.4,2514.1,2386.9,2523.4,2375.8,2530.2z M1693.6,1722.5c11.5,8.1,19.9,14,28.2,19.8c16.3,11.3,26.4,27,30.7,45.9
					c3.8,16.8,6,34.1,8.3,51.2c1,7.3,3.3,10.6,11.6,10.7c18.6,0.3,37.4,0.4,55.7,3.6c29.8,5.1,59.4,9.8,89.7,8.8
					c12.9-0.4,23.8,4.6,33.1,14.2c4.9,5.1,11.7,10,18.4,11.4c22.3,4.9,35.7,19.2,45.1,38.6c15.9,32.5,33,64.4,47.2,97.7
					c14.9,34.9,38.2,64.1,59.4,94.8c15.2,21.9,34.3,41.5,47.1,64.6c9.6,17.4,17.2,30.6,39.5,25.7c2.8-0.6,6.3,1.7,9.5,2.3
					c15.3,2.9,30.6,7,46,8.1c14.2,1,18.7,4.3,15.3,18.3c-3.8,15.6-8.9,30.9-12.3,46.6c-4,18.4-7.1,37-9.9,55.7
					c-5.1,34.2-6.7,69.2-15.6,102.4c-7,25.8,9.2,40.6,17.5,59.4c0.9,1.9,6.6,2.4,10.1,2.4c29.5,0.2,58.9,0.1,88.4,0.1
					c2.8,0,5.5-0.6,8.1-0.9c0-667.1,0-1333.4,0-1999.6c-575.9,0-1150.9,0-1725.7,0c0,667.2,0,1333.5,0,2000.5
					c28.7,0,56.5,0.2,84.2-0.3c3.4-0.1,7.8-3.6,10-6.7c4.8-7.1,9.2-14.7,12.5-22.6c2.5-5.9,4.8-12.9,3.9-18.9
					c-4.3-29.7-9.8-59.2-14.5-88.8c-4.5-28-7.9-56.2-12.9-84c-2.8-15.3-8.2-30.1-11.9-45.2c-3.4-14.1,0.9-18.3,15.4-18
					c6.4,0.1,12.9-1.6,19.3-2.8c14.6-2.6,29.1-7.3,43.7-7.6c14-0.3,24-1.6,26.6-17.7c0.8-4.5,4.4-8.8,7.3-12.8
					c20-27.6,39-56,60.5-82.3c25.1-30.7,40.4-66.6,58.6-101c11.9-22.5,21.5-46.3,32.6-69.3c9.5-19.5,22.7-34.8,45.8-38.9
					c5-0.9,9.8-5.2,13.8-8.9c9.9-9.2,20.8-15.5,34.7-16.6c51.8-4,103.6-8.4,155.9-12.7c4.9-24.9,7.3-50.2,15.1-73.7
					c8.2-24.5,30.6-38.3,52.7-51.7c-4.4-4-7.3-8.4-11.3-9.8c-18.1-6.8-36.1-14.2-54.7-18.6c-46-10.8-92.5-19.7-138.6-30.1
					c-25.2-5.7-48.8-14.8-64.1-37.9c-7.8-11.8-7.3-18.1,4.6-24.9c3.5-2,7.3-3.5,12.1-5.6c-12.1-4.8-23.3-9.7-34.8-13.8
					c-17.4-6.2-34.9-11.8-52.4-17.6c-8.8-2.9-13.8-12.8-7.8-16.5c7.3-4.4,16.9-7.8,25.1-7.1c8.2,0.7,15.9,7.1,23.9,10.9
					c31.6,14.9,63.2,29.7,94.6,44.9c3.9,1.9,6.3,6.7,9.5,10.1c-4.4,1.9-8.8,5.1-13.4,5.3c-13.8,0.7-27.7,0.3-41.6,0.3
					c-0.4,1.2-0.8,2.4-1.2,3.6c6.4,4.7,12.3,10.8,19.4,14c45.5,20.5,93.8,30.4,142.8,37.3c46.5,6.6,87.9,23.6,122.8,55.6
					c18.6,17.1,37.1,34.3,56.2,50.9c13.3,11.6,26.1,25.2,41.8,32.2c18.5,8.3,39.6,12,59.9,14.6c13.2,1.7,27.1-2.3,40.6-3.7
					c20.1-1.9,39.1-7.1,54.5-20.7c28-24.8,55.7-50,83-75.5c28.6-26.8,63.3-43.5,100.6-49.8c47.7-8,94.9-17.3,141.1-31.2
					c15.2-4.6,31-10.4,41.4-27.1c-16.2,0-31,0.4-45.7-0.3c-3.6-0.2-7.6-3.2-10.4-6.1c-0.8-0.8,1.3-6.7,3.4-7.9
					c11.7-6.8,23.4-13.5,35.7-19.1c22.9-10.4,45.8-20.9,69.5-29.3c11-3.9,21.1-16.4,34.8-7.6c4.8,3.1,8.7,7.5,13,11.3
					c-4.5,3.7-8.4,9-13.6,10.9c-27.9,10.1-56.2,19.4-86.9,29.8c7.3,3.7,11.1,5.4,14.6,7.5c10.5,6.2,13,13.2,5.2,22.1
					c-9,10.3-18.8,21.9-30.8,27.4c-41.1,18.8-85.4,26.9-129.5,35.5c-24.9,4.9-49.8,10.5-74.3,17.4
					C1719.1,1709.2,1707.6,1716.2,1693.6,1722.5z M1205.5,2504.2c0-26-2.1-51.3,0.5-76.1c5-47.8,25.4-89.6,56.7-126
					c10.7-12.4,21.9-24.5,32-37.3c4.9-6.3,7.1-14.7,12.1-20.9c11.5-14.2,23.8-27.7,36.2-41.2c13.3-14.5,26.2-29.4,40.7-42.6
					c5.7-5.2,5.7-8,3.3-14.2c-10.6-27.6-20.8-55.5-30.8-83.3c-3.3-9.3-2.9-18.4,3.9-26.6c11.8-14.2,23.5-28.6,34.9-43.2
					c14-18.1,27.6-36.4,41.3-54.6c-87.6-34.9-145.4-89-145.1-189.1c-19.3,14.3-33.2,30.9-36.2,53.4c-4.5,33.6-11.6,66.7-6.2,101.5
					c3.5,22.9,10.9,41,26.7,57.3c25.3,26,49.8,52.7,74.2,79.5c2.1,2.3,2.4,8,1.1,10.9c-0.9,1.8-7.1,2.8-9.9,1.6
					c-4.8-2-8.9-5.8-12.9-9.2c-21.3-18.4-42.5-36.9-63.7-55.3c-69,19.3-142.3,44.5-197.9,100.9c1.3,52.7,2.7,106.4,3.9,160.1
					c0.4,17.8-3.1,33.3-22.4,40.7c-4,1.5-7.5,6.5-9.5,10.7c-11.8,24.5-23.1,49.2-34.6,73.8c-3.6,7.7-7.1,15.3-11.4,24.6
					c11.2,11.7,26,22.8,34.8,37.5c18.5,31,49.2,46.4,76.2,66.7c1.7,1.3,4.7,1.1,7.1,1.1c10.8,0.1,21.6-0.2,32.4,0.1
					c6.8,0.2,9.9-2.3,10.3-9.1c0.7-13.6,0.7-27.3,2.8-40.7c4.3-27.6,6.3-56.3,15.6-82.3c17.7-49.6,47.2-93.1,82.9-132
					c22.4-24.4,45.7-48,69.1-71.5c4.3-4.3,7.6-15.6,16-8.9c8.1,6.5-1.4,13.1-5.1,17.5c-26.8,31.8-55.2,62.4-81.5,94.6
					c-34.3,42.1-63.5,87.3-71.7,142.5c-4.3,29.2-6.3,58.8-9.4,89.1C1184.2,2504.2,1194,2504.2,1205.5,2504.2z M1816.3,2504.3
					c-2.1-24.1-4-47-6.2-70c-3.1-31.8-11.3-62.2-26.7-90.4c-26.8-49.2-62.4-91.6-100.7-132.1c-12.1-12.9-23.2-26.7-34.1-40.6
					c-1.8-2.3-0.4-7.2-0.4-10.9c3.6,0.8,8.4,0.4,10.5,2.5c45.6,45.9,93.4,90.1,126.5,146.8c14.3,24.5,30.9,48.2,35.3,77
					c5.5,35.8,9.7,71.8,14.7,107.6c0.5,3.6,3.4,10,4.8,9.9c17.5-1.4,35.9,6.9,52.4-6.2c16.1-12.7,35-22.2,49.3-36.5
					c19.9-19.8,36.6-42.8,54.1-63.9c-3-5-6.2-9.3-8.4-14.1c-10.5-23-20.4-46.4-31.1-69.3c-5.9-12.6-12.6-24.7-26.8-30.9
					c-4.2-1.8-8.3-7.4-9.5-12c-2-7.9-2.3-16.4-2.1-24.6c1.1-52.8,2.5-105.6,3.8-158c-5.6-4.5-12.1-9.9-18.8-15
					c-15-11.4-29.6-23.5-45.4-33.7c-9.9-6.4-22.2-9-32.6-14.6c-29.6-16.1-61.2-26.1-93.9-33.4c-4.6-1-8.5-4.8-12.7-7.3
					c1.9,1.6,3.8,3.2,5.7,4.8c-21.4,18.4-43,36.4-64,55.2c-7.6,6.8-14.8,11.7-23.7,9c-11.8,31-23.6,61.7-34.8,92.6
					c-1.3,3.5-0.6,10.7,1.7,12.2c24.7,15.8,37.2,42.6,57.6,62c23.2,22,35.9,51.5,58.3,74.7c45,46.7,67.5,104.6,66.1,170.5
					c-0.3,12.6,0,25.2,0,38.5C1794,2504.3,1803.8,2504.3,1816.3,2504.3z M1955.5,2274c5.4-13.8,6.9-13.9,19.2-8.3
					c10,4.6,20.5,8.4,31.2,11c18,4.3,36.4,6.6,54.3,11.3c20.6,5.3,40.8,12.3,61.1,18.4c1.2,0.4,3.2,0.1,4.2-0.7
					c15.9-11.9,31.7-23.9,47.6-35.9c-0.7-1.8-1.3-3.6-2-5.4c-19.3,2.5-38.6,5.4-58,7.4c-14.6,1.5-29.3,2-44,2.1
					c-2.5,0-4.9-4.1-7.4-6.3c2.6-2.2,4.8-5.5,7.8-6.4c5.4-1.7,11.3-2,17-2.8c8.2-1.3,16.3-2.5,27.3-4.2c-22.1-3-40.9-5-59.5-8.4
					c-3.8-0.7-6.8-6.5-10.1-10c4-2.4,8-7,11.9-6.9c22.7,0.3,45.5,1.4,68.2,2.7c13.2,0.8,26.3,2.4,40.3,3.7c3.2-8.9,4.2-19.1-3-28.7
					c-11.1-14.8-22.3-29.4-33.4-44.2c-15.3-20.4-31.2-40.3-45.7-61.3c-14.2-20.6-28.2-41.5-39.7-63.6
					c-18.6-35.7-35.4-72.4-52.5-108.9c-4.9-10.6-13.3-15.8-23.5-17.9c-11.9-2.4-20.7-8.5-29.9-16.1c-7.3-6-17.8-9.8-27.3-11
					c-27.3-3.6-54.9-5.5-82.4-7.8c-20.4-1.7-40.8-2.9-62.5-4.4c-1.6,11.6-2.9,22.5-4.7,33.3c-3.7,22.6-0.1,48.1-24.8,62.5
					c-1.6,1-1.9,4.2-2.4,5.2c14.4,3.6,28.7,5.9,42.1,10.7c50.4,18.1,101.3,35.7,139.1,76.8c4.4,4.8,8.2,11.9,17.3,7.9
					c0.9-0.4,5.5,3.9,5.6,6.1c1.4,26.7,2.6,53.4,3.3,80.2c0.5,18.1,0.1,36.2,0.1,54.2c1.5-1.8,1.8-3.7,2.2-5.6
					c6.9-32.6,13.3-65.3,21.1-97.6c1.4-5.6,0.7-17.7,11.8-14.8c2.5,0.6,3.7,12.8,2.6,19.2c-6.6,41.9-14.5,83.6-20.8,125.5
					c-1.7,11.6-4,19-16.8,16C1934.9,2266.4,1947.7,2268.2,1955.5,2274z M1254.9,1971.1c-0.6-0.8-2.2-4.1-4.9-5.8
					c-13.1-8.5-17.2-21.8-19.2-35.8c-2.7-19.3-4.1-38.7-6.1-58.7c-24.4,2.1-45.6,3.9-66.8,5.7c-24,2-47.9,4.7-71.9,5.9
					c-14.5,0.7-27.2,2.9-38.2,14.1c-6.2,6.3-16,9-24.1,13.6c-7.6,4.3-18.2,7-22,13.5c-14.7,25.6-27.1,52.6-40.7,78.9
					c-16.1,31-30.1,63.3-49.4,92.1c-23.9,35.7-52.6,68.2-78.7,102.5c-9,11.8-16.1,24.8-8.1,39.8c4.6-1.2,8.8-3.1,13.1-3.4
					c23.5-1.6,47-3,70.5-4.2c9.9-0.5,19.9-0.7,29.8-0.3c2.7,0.1,6.9,2.4,7.4,4.5c0.6,2.4-1.3,7.1-3.4,8.2
					c-6.1,3.1-12.7,5.7-19.4,6.9c-13.4,2.2-27,3.4-40.5,4.9c14.9,4.1,29.7,5.7,44.3,8c3.4,0.5,6.4,3.4,9.6,5.2
					c-3.1,2.3-6,5.9-9.4,6.6c-20.6,4.4-40.8,0.6-61.1-3.5c-15.8-3.1-32.3-3.2-48.4-4.6c-0.5,1.5-1.1,3-1.6,4.5
					c15.8,12,31.6,24.2,47.6,36c1.2,0.9,4.2-0.3,6.3-0.9c26.9-7.6,53.4-16.8,80.7-22.3c21.8-4.4,44-5.7,63.8-17.4
					c11.6-6.8,16.1-3.7,17.8,10.6c7-7.7,23.6-8.7,15.7-25.4c-11,3.8-14.8-1.8-16.1-11.9c-3-23.3-6-46.6-9.9-69.7
					c-4.3-25.1-9.9-50.1-14.3-75.2c-0.6-3.5,2.4-7.7,3.7-11.5c2.8,2.8,7.1,5.1,8.2,8.4c7,21.9,14.2,43.9,19.6,66.2
					c4.1,16.8,5.7,34.3,8.4,51.5c1.4-3.3,1.7-6.6,1.7-9.9c0-35.1-0.2-70.2,0.2-105.3c0.1-6.7,1.7-18.5,4.5-19.1
					c11.4-2.6,16.4-11.1,23.3-18.3c30.5-31.9,71.2-46.8,110.4-63.6C1208.5,1982.7,1231.7,1978,1254.9,1971.1z M1412.7,2000.9
					c-6.5,9-14.4,22.2-24.6,33.2c-9.5,10.3-7.7,19.5-2.5,30c13.5,27.6,27.2,55.2,40.1,83.2c2.8,6.2,5.4,14.4-4.2,19.2
					c-11.1,5.6-23.5,9.9-32.6,17.9c-11.7,10.3-20.5,23.8-30.4,35.6c21,9.8,39.6,18.4,58.2,27.3c13.8,6.6,27,14.6,41.2,20.1
					c15.8,6.2,32,13.8,49.8,7.8c11.7-3.9,23.4-8.1,34.5-13.3c28.6-13.4,56.8-27.4,86.4-41.7c-3.7-5.2-7.9-11.6-12.5-17.7
					c-13.2-17.1-27.2-33.1-50.3-36.8c-1.8-0.3-4.4-4.4-4.2-6.5c0.5-5.2,1.6-10.5,3.8-15.2c12.6-27.3,25.8-54.2,38.3-81.5
					c3.3-7.1,6.9-14.7,0.6-22.8c-10.7-13.7-20.6-27.9-28.6-38.7c-17.9,6.6-33.2,14.5-49.5,17.6c-11.6,2.2-15.2,6.9-16.1,17.8
					c14.7,4.9,19.8,15.4,19.6,31.3c-0.1,15.8-9.6,24-20.4,31.7c3.1,4.2,6.7,7.2,7.6,10.9c2.4,9.3,8.7,13.3,16.5,17.9
					c16.6,9.8,23.1,32.4,18.2,51.1c-5.3,19.9-19.8,30.3-36.4,39.4c-14.2,7.8-28.2,7.4-42.2-0.2c-4.7-2.5-9.1-5.6-13.7-8.3
					c-16.9-10.1-23.5-26.7-23.9-44.7c-0.3-18,8.8-32.2,25.6-40.7c2.7-1.4,5.7-3.3,7.1-5.7c3.8-6.6,6.9-13.6,10.3-20.5
					c-25.9-14.3-27-52.4,0.4-63c-1.1-5-2.3-10-2.7-11.7C1453.9,2015.8,1434.3,2008.7,1412.7,2000.9z M1669.5,1746.9
					c-16,14.9-28.7,29.1-43.8,40.1c-28.1,20.6-53.9,46.1-92.3,47.9c-9.8,0.5-19.3,7.4-29,7.8c-11.2,0.5-22.9-1.8-33.8-4.7
					c-21.9-5.7-45.6-4.6-64.8-20.4c-21.8-18.1-44.9-34.5-67.2-52c-6.1-4.8-11.2-11-18.5-18.4c-3.2,40.3,11.9,71.1,34.1,98.3
					c23,28.2,53.3,47.5,86.2,62.6c11.8,5.4,16.2,21.6,9.8,32.7c-5.6,9.8-10.6,19.8-16.1,30.2c14.4,2.6,27.4,4.2,30.5,20.5
					c0.3,1.5,3.7,3.4,5.8,3.5c11.9,0.9,18.5,8.1,21.2,16c10-5.9,19.7-11.6,29.4-17.4c0.7-0.4,1.7-0.9,1.9-1.6
					c3.9-15.9,17-19.1,30.9-21.1c-5.5-11.4-11-21.4-15.3-32c-4.6-11.1,0.4-27.5,8.8-31c30.5-12.7,57.3-30.8,79.9-54.9
					C1654.5,1824,1669.8,1790.4,1669.5,1746.9z M1484.2,2504.3c-58.9-72.6-117.4-144.8-176.8-218c-41.4,67-83.2,133.4-71,218
					C1319.3,2504.3,1401.5,2504.3,1484.2,2504.3z M1681,2286.4c-59.5,73.4-118,145.6-176.6,217.8c82.9,0,165.4,0,247.8,0
					C1763.7,2419.9,1722.8,2353.6,1681,2286.4z M1633.7,2044.1c7.3-6.9,13.8-12.4,19.5-18.7c19-20.9,35.4-45,57.1-62.3
					c33-26.2,28.4-62.5,31.8-96.4c1.6-16.3-4.9-33.3-6.4-50.1c-2.6-28.2-14.8-50.1-38.7-66.6c4.8,101.2-77.6,168-146.9,187
					C1577.8,1972.4,1604.8,2007,1633.7,2044.1z M1999.7,2352.2c0.8,7.3,1.4,15,2.5,22.6c0.3,2,2.1,5,3.7,5.2
					c11,2.1,12.7,9.9,13.7,19.2c0.8,7,1.4,17.6,5.7,19.9c9.1,5,8.2,11.3,5.7,17.6c-5,12.9-11.4,25.2-17,37.3
					c6.5,6.1,13,12.2,19,17.8c22.8-28.6,53.7-39.7,86.1-48.8c33-9.2,65.7-15.9,101.7,2.2c5.7-44.1,11.1-85.6,16.5-127.1
					c-32.6,23.3-63.5,45.5-94.4,67.6c-2.3,1.6-5.8,3.4-6.1,5.5c-1.2,7.5-4,13.5-12.4,11.9c-6.6-1.3-16.1-3.3-18.2-7.9
					c-4-8.3-10.2-8.2-16.7-9.9c-7.9-2.1-16.1-3.6-23.8-6.6C2043.7,2370.2,2021.7,2361.1,1999.7,2352.2z M767,2442.1
					c75.2-18.5,135.2,2.7,191.2,49c3.9-5,9.2-11.9,14.9-19.1c-4.3-9.3-10.4-20.9-14.7-33.2c-1.8-5-1.2-15.3,1.5-16.6
					c7.3-3.4,5.4-8.9,7.1-14c3.2-9.2-1.4-22.4,11.2-26.8c7.2-2.5,8.3-6.5,8.4-12.9c0.1-5.6,1.4-11.1,1.8-14.1
					c-31.9,10.8-64.9,21.9-97.8,33.1c-2.2,0.7-5.5,1.8-5.9,3.4c-2.7,11.4-14.1,8-20.9,12.1c-1.9,1.1-10.1-3.1-10.4-5.5
					c-1.4-10.9-10.3-12.7-17.5-16.9c-5.6-3.3-11.1-6.8-16.3-10.7c-22.3-17.2-44.4-34.6-68.8-53.8
					C756.3,2359.9,761.7,2401.3,767,2442.1z M1494.2,2463.6c35.3-57,69.9-113.1,106.5-172.4c-24.2,12.6-46.8,21.9-66.6,35.3
					c-27.7,18.7-53.2,17.1-80.4,0.4c-20.1-12.3-41.2-22.8-61.9-34.1c-0.5,0.9-1,1.8-1.5,2.7
					C1424.7,2351.1,1459.2,2406.9,1494.2,2463.6z M754.1,2503.9c60.1,0,119.4,0,182.3,0c-6.2-5.9-9.8-10.2-14.2-13.3
					c-26.5-18.8-57.2-27-88.4-32.4C787.6,2450.3,769.3,2464.1,754.1,2503.9z M2053.5,2500.3c0.9,1.4,1.8,2.8,2.6,4.2
					c59.2,0,118.5,0,177.8,0c-3-13.1-18.6-38.7-27-40.6c-15.3-3.6-31.7-9.2-46.4-6.7c-29.5,4.9-59.3,11.4-85.3,27.9
					C2067.8,2489.8,2060.8,2495.2,2053.5,2500.3z M1654.9,2250.7c-5-10.4-11.9-12.8-22.2-7.9c-8.5,4.1-17.9,6.1-26.5,9.9
					c-21.1,9.3-42.2,18.8-63,28.9c-34.1,16.6-67.3,14.4-101.2-1.4c-29.4-13.7-59.9-25.1-89.7-37.9c-9-3.9-13.7-0.7-17.7,8.4
					c8.4,3.4,16.1,7.2,24.1,9.8c36.9,12.2,71.4,29.1,104.5,49.5c35.6,22,25.7,20.5,63.6-0.2c23.7-13,47.6-25.7,72.1-37.2
					C1616.9,2264.2,1636.1,2257.9,1654.9,2250.7z M2114.5,2373.6c-1.1-16.3-2.2-27.3-2.5-38.4c-0.2-7.5-3.6-10.3-10.7-12.2
					c-17.4-4.6-34.5-10.6-51.8-15.7c-8.6-2.5-17.4-5.2-26.2-6.4c-18.1-2.4-35.7-5.8-50.8-17.2c-3.3-2.5-7.3-4.2-11.1-6.3
					c4.8,9.5,10.1,17.8,13.4,26.9c6.7,18.4,18.1,30,38.3,32c3.1,0.3,6.1,2.3,9.2,3.4C2052.2,2350.7,2082.1,2361.7,2114.5,2373.6z
					 M873.8,2371.4c18.1-5.2,34.7-9.4,50.9-14.8c24.1-8.1,47.9-17.1,71.8-25.7c1.8-0.6,4-1.6,4.8-3.1c7.5-15.1,14.8-30.3,22.1-45.4
					c-21.2,14.2-45.1,15.8-68.3,21c-24.4,5.5-48.2,13.7-72.1,21.1c-2.4,0.8-5.4,4.2-5.7,6.6C875.7,2343.6,875,2356.3,873.8,2371.4z
					 M733.9,2240.1c1.4,9.7,1.5,17.3,3.8,24.1c2.7,7.8,5.7,16.7,11.6,21.8c18.8,16.5,38.7,31.6,58.5,46.8
					c14.4,11.1,29.2,21.5,45.5,33.4c1.9-10.6,2.3-18.2,4.6-25c3.5-10-1.4-15.1-8.6-20.3c-30.2-21.8-60.1-44.1-90.3-65.8
					C751.6,2249.8,743.3,2245.7,733.9,2240.1z M2253.9,2238.6c-14.4,10.9-26.8,20.7-39.6,29.9c-26.4,18.8-53.1,37-79.4,55.9
					c-2.8,2-5.2,7.2-4.9,10.7c0.7,9.7,3,19.4,5.2,32.4c31.1-23.9,60.1-47.3,90.4-68.9C2245.5,2284.3,2253.6,2265.7,2253.9,2238.6z
					 M1528.1,2155.2c-10.1-13-21.9-28-34.3-43.8c-12.6,16.6-24.5,32.3-34.3,45.3c8,6.1,14.8,10,19.7,15.5c8.3,9.4,21.6,9.8,29.8,0.6
					C1514.4,2166.6,1521,2161.6,1528.1,2155.2z M1663.7,2271.8c-0.8-0.7-1.5-1.3-2.3-2c-6.4,2.3-13,4-19,7.1
					c-4.3,2.2-8.5,5.7-11.4,9.6c-20,27.5-40.2,54.9-59.1,83.1c-11.4,17.1-20.7,35.6-30.9,53.5c0.9,0.5,1.7,1,2.6,1.5
					C1583.7,2373.7,1623.7,2322.8,1663.7,2271.8z M1444.7,2424.6c0.6-0.3,1.2-0.6,1.8-0.9c-0.8-2.2-1.3-4.5-2.5-6.4
					c-12.7-20.5-25.4-41.1-38.5-61.4c-6.6-10.3-13.5-20.5-21.1-30.1c-16.6-21.2-23.8-52.3-60.9-55.4
					C1364.7,2322.7,1404.7,2373.6,1444.7,2424.6z M1062,2504.3c-25.1-26.6-51.2-54.2-77.2-81.8c-2.1,6.3-3.5,13.8-0.4,18.6
					c8.9,14.2,20.1,26.9,29.5,40.8C1026,2500.2,1041.2,2510.5,1062,2504.3z M1925.8,2504.9c2.4,0,6.7-0.6,10.6,0.1
					c13.4,2.5,22.8-3.4,30.8-13.3c9.3-11.5,19.4-22.3,28.5-33.9c11.5-14.6,13.1-25.1,7.2-34.3
					C1977.3,2450.5,1951.5,2477.8,1925.8,2504.9z M2188.6,2230.3c-1.4,1.4-2.9,2.8-4.3,4.1c3.1,5.8,6.2,11.6,9.3,17.4
					c8.2-4.8,16.4-9.7,24.5-14.5c-0.4-1.2-0.9-2.4-1.3-3.5C2207.4,2232.7,2198,2231.5,2188.6,2230.3z M795.1,2255.7
					c3.4-8.9,5.9-15.5,8.4-22.1c-1-1.1-2-2.3-3-3.4c-9.4,1.3-18.9,2.5-28.3,3.8c0,1.1,0,2.2,0,3.3
					C778.9,2242.7,785.5,2248,795.1,2255.7z M1477.2,2194.4c-0.5,1-0.9,2.1-1.4,3.1c6.5,4.4,13,8.8,19.6,13.2
					c6.1-5,11.7-9.6,19.8-16.3C1499.9,2194.4,1488.5,2194.4,1477.2,2194.4z M2012.8,2504.6c-5-4.7-9.4-8.9-14.8-14
					c-3,3.7-6.4,8.1-11.1,14C1997,2504.6,2004.3,2504.6,2012.8,2504.6z M989.3,2488.7c-5.6,5.9-9.7,10.2-15.1,15.9c10,0,17.3,0,27,0
					C996.9,2498.8,993.7,2494.6,989.3,2488.7z"/>
				<path d="M1272.3,944.9c4.7,7,10.4,14.5,15,22.6c1.7,3,1.1,7.4,1.5,11.2c-3.8,0.3-8.7,2.2-11.2,0.5c-6.4-4.2-12.2-9.6-17.4-15.3
					c-31.7-34.9-70.3-60.2-111.4-82.4c-24.2-13.1-47.7-27.7-72-40.4c-24-12.6-48.8-23.9-73.3-35.6c-3.7-1.7-7.8-2.6-11.8-3.5
					c-11.6-2.6-14.3,0.2-15.8,11.6c-4.5,33.2,0.7,65.8,6.3,98.2c8.4,49.4,17.3,98.7,27,147.9c4.3,21.7,11.8,42.8,16.6,64.4
					c5.7,25.7,9.7,51.8,15.2,77.5c2,9.5,7.2,18.4,9.4,27.9c10.2,43.9,15.5,86.8-15.6,126.2c-16.5,20.9-30.2,43.8-45.9,66.9
					c6.1,1.3,12.1,2,17.6,3.9c4.4,1.5,8.3,4.4,12.4,6.6c-3.9,2.8-7.7,5.6-12.9,9.4c-0.4,9.8-1.4,10.3-23.9,9.2
					c12.4,22.8,8.7,47.4,8.5,71.6c0,2.8-4.9,5.5-7.6,8.3c-2.3-2.5-6-4.6-6.7-7.5c-2-8.8-2.1-18-4.4-26.7c-4.5-16.9-9.1-34-15.5-50.3
					c-6.7-17-5.7-18.5,6.5-31.3c14-14.8,26.1-31.5,37.7-48.3c10.8-15.5,19.8-32.2,29.6-48.3c0.9-1.4,1.1-3.6,2.3-4.3
					c14.2-9.3,9.4-23,8.1-35.5c-1.8-17.9-6-34.8-13.2-51.9c-8.9-21.2-10.6-45.5-16-68.3c-7.8-32.4-16.8-64.5-24-97
					c-6.1-27.7-10.6-55.7-15.5-83.7c-5-28.3-11.4-56.5-14-85c-2.6-29.1-2.1-58.5-1.1-87.7c0.5-14.4,10.8-21.5,25.6-23.7
					c22.3-3.3,40.5,6.8,59.6,16c56.7,27.6,110.7,59.7,162.7,95.3c9,6.2,17.8,12.7,27.7,19.7c-5.4-12.6-10.6-23.9-15-35.6
					c-1.1-2.8,0.5-6.7,0.8-10.1c3.2,0.8,7.4,0.6,9.5,2.6c29.7,28.8,67,46,101.3,67.9c6.1,3.9,12.6,7,18.8,10.4
					c2.9-19.8,5.6-38.4,8.4-57.1c1-6.3,3.9-10.4,11.3-10.4c7.8,0,15.7-2,23.3-1.4c19,1.5,28.9-3,32.2-21.6
					c2.7-15.1,12.5-21.9,23.3-28.2c13.2-7.6,27.2-13.8,41.3-19.6c4-1.7,10-1.2,14.2,0.6c13.2,5.5,26.3,11.6,38.9,18.4
					c11.5,6.2,22.5,12.7,24.5,28.5c1,7.6,6.9,15,12,21.3c2,2.4,8,2,12.2,1.9c11.4-0.2,22.9-2.1,34-0.7c3.8,0.5,8.7,8.5,9.6,13.7
					c3.3,17.7,5.1,35.7,7.6,55.4c19.6-11.7,39.4-22.4,58.1-34.8c21.5-14.3,42-30.2,63.1-45.1c2.2-1.6,5.7-1.3,8.7-1.9
					c0.6,3,2.4,6.5,1.5,8.9c-4.7,12-10.1,23.8-13.7,32c46.1-28,94.3-58.3,143.6-86.8c24.5-14.2,50.2-26.8,76.7-36.5
					c12-4.4,27.9-2.3,40.7,1.4c11.3,3.3,14.6,16.5,14.8,27.9c0.2,19.4-3.6,39.2-0.8,58.2c4.1,28.5-19,36.7-33.6,50.8
					c-13.7,13.3-30.3,23.6-45.6,35.3c0.2,1.1,0.5,2.2,0.7,3.2c16.8,2.2,33.6,4.9,50.5,6.3c11.5,1,17.2,5.2,14.3,17.2
					c-5.8,24.4-11.9,48.7-17.5,73.2c-11.8,51.3-22.8,102.7-35.1,153.8c-3.2,13.4-11.3,25.6-14.6,38.9c-3.8,15.1-4.7,30.8-6.7,46.3
					c-0.3,2.3,0,5.3,1.2,7.1c22.9,34,45.8,68,69.1,101.8c3.1,4.6,7.4,10.2,12.1,11.4c10.9,2.7,9.6,9.8,8.4,17.1
					c-0.7,4-2.3,8-4.3,11.5c-12,20.9-17.3,43.6-17.7,67.5c0,1.2,0.4,2.8-0.2,3.7c-2.9,4.7-6.1,9.3-9.3,13.9c-2.4-5-7.1-10.1-6.9-15
					c0.6-18.4,2.6-36.8,4.5-55.2c0.3-3.1,2.3-5.9,3.8-9.5c-8.5-2.3-23.8,7.6-22.3-12.1c-3.9-0.4-7.1,0-9.5-1.2
					c-2.1-1.1-4.6-4.2-4.5-6.2c0.1-2,3-5.1,5.1-5.6c7.5-1.7,15.2-2.5,24.8-4c-10.8-15.9-20.7-30.2-30.3-44.7
					c-10-15-19.9-30.1-29.3-45.5c-11.6-19-12.5-40.1-8.5-61.2c4.3-22.5,10.6-44.7,15.4-67.1c7.1-33,13.2-66.2,20.5-99.2
					c6.5-29.3,14.1-58.3,21.1-87.4c2.5-10.2,4.5-20.6,6.9-31.5c-5-0.3-9.9-0.6-14.4-0.9c-9.9,56.9-18.6,113.9-39,168.1
					c-4.3,11.5-9.7,22.7-15.9,33.3c-2.3,3.9-8.9,8.3-12.5,7.5c-4.2-0.9-9.2-6.6-10.6-11.2c-4.9-16.1-7.2-33.1-12.7-48.9
					c-14.7-42.3-37.7-78.8-74.6-106c-18.6-13.7-35.5-29.9-52.1-46c-2.6-2.5-2-12.8,0.9-15.7c14.5-14.4,29.8-27.9,45.6-40.9
					c19.3-16,40.1-30.3,58.6-47c20.4-18.3,45.5-27.2,69-39.4c14.2-7.3,28.4-7.8,42.8-4.6c4.6,1,10,8.9,10.7,14.3
					c1.6,11.7,0.5,23.7,0.5,35c26.8-9.8,22.7-33.5,21.8-55.8c-0.2-3.7-1.1-7.4-1.2-11c-0.4-16.1-4.2-19.8-19.6-13.8
					c-20.6,8-40.9,17.4-60.5,27.7c-40.6,21.5-81.2,43.1-120.7,66.4c-20.1,11.8-38.6,26.5-56.7,41.3c-12.4,10.1-22.8,22.5-34.3,33.7
					c-2.6,2.6-5.7,5.4-9,6.3c-3.8,1-8.2,0.1-12.3,0c0.8-4,0.5-8.6,2.4-12c7.9-14.3,16.4-28.2,24.7-42.3c-0.8-0.9-1.7-1.8-2.5-2.8
					c-4.5,2.2-9.2,4-13.5,6.5c-24.7,14.5-46.8,33.6-76.3,39.2c-4.5,0.9-8.4,7.3-11.8,11.8c-21.5,28.6-43.7,56.6-63.6,86.3
					c-13.9,20.7-25.1,43.3-36.2,65.7c-6.7,13.5-16.5,17.6-30.5,17.6c-13.6,0-21.2-7.2-27-18.1c-22.3-42.1-47.6-82.3-77.3-119.7
					c-3.8-4.8-7.8-9.8-10.3-15.3c-11.3-25-35.5-31.5-57.5-41.3c-6.7-3-12.8-7.2-19.1-11c-6.2-3.8-12.3-7.9-17.9-11.5
					C1279.5,936.3,1276.4,940,1272.3,944.9z M1919.8,1152.6c20.9-55.1,31.1-112.2,41.2-169.9c-6.5-1.7-11.2-3.1-15.9-4.2
					c-17.6-4.3-24.5-24.6-12.5-38.4c8.2-9.3,17.1-18.2,26.8-25.9c6.6-5.3,10.5-10.1,11.1-19c0.7-11,4.2-21.7,6-32.7
					c0.7-4.6,0.1-9.4,0.1-14.9c-13.8,6-25.9,10.6-37.5,16.4c-20.9,10.4-42.5,18.9-59.7,36.4c-14.4,14.7-31.8,26.6-48.3,39.2
					c-16.4,12.6-33.3,24.7-50.7,37.6C1849.7,1018.6,1903.5,1070.3,1919.8,1152.6z M1485,829c-12.9,7.5-23.4,13.1-33.3,19.6
					c-9.4,6.1-13,13.9-8.7,26c5,13.9,7.4,28.7,10.7,43.1c8,34.9,16.3,69.7,23.8,104.7c2.6,12.3,3.3,24.9,4.9,37.4
					c0.9-0.1,1.8-0.1,2.6-0.2C1485,983.6,1485,907.6,1485,829z M1503.7,829.2c0,78.5,0,154.6,0,230.7c4.5-18.1,4.9-36.6,8.9-54.4
					c10-44.1,21.1-87.9,33-131.5c3.1-11.5,1-19.1-8.3-25C1527,842.5,1516.3,836.6,1503.7,829.2z M1520,1096.6c1,0.5,2,0.9,3,1.4
					c12.7-25.3,26.3-50.1,37.9-75.9c10.9-24.2,19.6-49.3,29.4-74c6.4-16.2,12.8-32.3,19.9-50.1c-13.4,2.5-26-2-34.2,13.5
					c-21.7,41.1-37.9,83.8-45.6,129.8C1527.1,1059.8,1523.4,1078.2,1520,1096.6z M1468.9,1098.8c-2.6-13.8-4.8-24.6-6.7-35.5
					c-2.8-16-4.8-32.2-8.3-48.1c-2-9.1-5.8-17.9-9.3-26.7c-9.8-24.4-20-48.6-29.8-72.9c-6.8-17-20.3-18.1-37.1-16.1
					C1411.7,964,1424.5,1037.1,1468.9,1098.8z M1400.6,994.7c0.8-0.6,1.7-1.1,2.5-1.7c-10.9-23.3-21.8-46.6-34.1-72.9
					c-1.7,8.6-3.1,13.3-3.5,18.1c-0.4,5.7-2.2,13.2,0.6,16.8C1376.8,968.8,1389,981.5,1400.6,994.7z M1618.2,922.2
					c-11.5,25.3-22.1,48.5-32.7,71.7c0.9,0.5,1.8,1,2.7,1.5c6.9-8.5,13-17.9,20.9-25.4C1622.8,956.9,1627,942.6,1618.2,922.2z"/>
				<path d="M1253.7,1315c42.3-2,72.6,19.9,97.2,50.3c18.9,23.4,32.7,49.9,35.3,81.3c1.6,18.9-2.7,32.6-20.1,39
					c-18.7,6.9-38.5,11-58,15.8c-23.9,5.9-47.9,2.3-68-10.1c-16.2-10-30.7-24.9-41.7-40.6c-17.5-25-27-54.4-33.7-84.2
					c-1.1-4.9,3.1-12.8,7.2-16.9C1194.3,1327,1222.7,1317.7,1253.7,1315z M1361.1,1422.6c-0.9-0.1-1.8-0.1-2.7-0.2
					c-1.4,5.1-2.4,10.4-4.4,15.4c-9.9,24.5-28.4,40.7-54.1,42.8c-23.4,1.9-43.8-8.6-57.3-29.8c-12.2-19.2-17.9-62.6,4-91.3
					c2-2.6,3.5-5.4,5.6-8.5c-21.1,0.4-39.6,6.4-55.8,18.5c-2.6,1.9-5.4,7-4.6,9.4c10.6,32.2,22.5,63.8,49,87.2
					c19.3,17.1,40.3,26.6,66.7,18.6c18.7-5.6,37.7-10.5,57.8-16C1363.7,1452.5,1362.4,1437.5,1361.1,1422.6z M1252.3,1401.2
					c0,30.5,13.2,51.2,28,56.1c35.7,11.7,61-17.1,62.2-47.9c0.8-20.2-10.4-34.1-25.4-46.3c-11.2-9.2-25.1-11.4-37.3-4.1
					C1260.2,1370.7,1252.8,1388.9,1252.3,1401.2z"/>
				<path d="M1702.6,1501.4c-30.4-2.8-60.6-6.1-87.5-22.6c-11.3-6.9-14.1-17.7-13.3-29.9c2.9-41.1,22.3-73.8,50.9-102.3
					c43-42.7,95.7-42.1,142.4-15.9c12.3,6.9,26.7,12.9,28.2,29.7c0.5,5.9-1.5,12.1-3.3,18c-10.6,35.3-23,69.6-50.6,96
					C1753.6,1489.5,1724.5,1501.6,1702.6,1501.4z M1623.5,1465.2c16.5,5.6,31.3,12.2,46.8,15.4c18.3,3.8,37.5,9.1,55.7-1.4
					c39.5-22.8,58-60.4,70.5-102c0.8-2.6,0.2-6.8-1.5-8.7c-9.4-10.4-43.5-21.3-60.6-19.6c21.3,20.9,24.9,46.4,21.1,74.2
					c-3.8,27.9-27,50.8-54.9,53.7c-29.5,3-55.1-12.8-64.8-40c-1.9-5.3-3.9-10.7-5.8-16c-0.9,0-1.8,0-2.7,0
					C1626.1,1435.7,1624.8,1450.5,1623.5,1465.2z M1736,1406.9c1.1-0.4,2.2-0.9,3.3-1.3c-5.2-12.2-9-25.3-16-36.4
					c-9.4-14.9-30.5-22-42-15.4c-33.9,19.6-46.2,48-25,84.9c10.1,17.6,43.6,25.1,58.1,13.1C1728.3,1440.3,1738.1,1426.4,1736,1406.9
					z"/>
				<path d="M996.5,903.9c0-18.1-0.6-36.3,0.3-54.4c0.4-8.9,4-14.7,16.2-15.4c42.5-2.4,73.6,21.3,105,43.8
					c21.3,15.3,41.2,32.6,61.5,49.4c15.1,12.5,29.8,25.5,44.3,38.7c6.2,5.6,6.7,11.8-0.4,17.8c-20.6,17.5-41,35.3-61.6,52.8
					c-23.2,19.8-41.9,43.3-52.7,71.8c-9.1,24-15.3,49.2-23.6,73.5c-1.7,5-6.5,11.3-11,12.3c-3.5,0.8-11-4.5-12.8-8.7
					c-9.9-23.4-21.1-46.8-27.3-71.3c-13.3-53.4-24.2-107.4-35.3-161.3c-3.3-16-3.7-32.7-5.4-49C994.6,903.9,995.5,903.9,996.5,903.9
					z M1011.5,845.1c0,13.7-1.2,24.1,0.2,34.2c5.9,41.8,11.9,83.5,19.4,125c6.3,34.8,14.4,69.2,22.4,103.6
					c3.5,15.2,8.7,30,13.1,44.9c1.2,0,2.3,0.1,3.5,0.1c14.9-82.6,68.4-134.9,139-176c-3.2-2.2-5-3.2-6.7-4.5
					c-21.1-16.2-42.3-32.4-63.4-48.8c-14.9-11.6-28.5-25.2-44.6-34.8C1068.8,873.6,1041.6,860.8,1011.5,845.1z"/>
				<path d="M1462.9,1622.4c-3.2-17.5-2.3-18.6,15.1-18.3c15.3,0.3,30.6,0.7,45.8,2c4.3,0.4,8.2,4.1,11.2,8.5
					c0.7-0.1,1.4-0.2,2.1-0.2c6.8-0.2,17.3-3.1,19.8,0.1c6.5,8.4-1.6,15-8.1,20.2c-3.1,2.5-7.9,3.2-10.8,5.8
					c-5.2,4.6-10,9.7-14.1,15.3c-4.2,5.7-7.6,12-10.9,18.3c-2.1,4.1-3.2,8.6-4.5,12.4c17.6,6.9,33.1,14.8,49.6,19
					c34.9,9.1,65-8.3,75.6-44.8c7.3-25.2,32.5-41.4,57.1-33.6c3.5,1.1,7.9,7.6,7.3,10.7c-0.7,4-5.5,8.9-9.6,10.2
					c-8.8,2.9-18.6,2.8-27.3,5.8c-4.1,1.4-8.7,6.7-9.8,11.1c-8,32-39.4,60.2-76.6,59c-38.3-1.3-76.9,4.3-115.4,6
					c-6.7,0.3-13.5-4-20.3-5.9c-2.3-0.7-4.9-0.8-7.3-1c-16.8-1.3-34.9,1-50-4.7c-20.6-7.7-35.8-23.9-42.4-46.6
					c-5.5-18.7-12-21.9-32.1-21.3c-8.2,0.2-18.2-2.8-18.9-12.3c-0.7-9.7,7.9-12.3,16.7-11.5c8.2,0.7,16.7,0.4,24.3,2.8
					c12.2,3.8,21.7,10.8,23.7,25.4c2.6,18.9,12.7,33.9,28.6,44.1c16.9,10.8,35.3,11.5,54.1,4.6c11.9-4.4,23.7-9.4,35.9-12.6
					c9.4-2.5,8.7-6.6,5.3-13.3c-3.8-7.7-6.2-16.2-10.8-23.3c-3.4-5.2-9.4-8.6-14.1-12.9c-5.4-4.8-11.5-9.2-15.6-14.9
					c-1.8-2.6-1-10.2,1.2-11.8c3-2.1,9-1.7,13-0.4c4.5,1.5,8.3,5.2,12.5,7.9c7.3,5.2,14.5,10.4,22,15.7c0,0,0.2-1.6,1.1-2.8
					c2.4-3.2,5.1-6.2,7.7-9.2c2.6,3,6.7,5.5,7.6,9c1.9,7.2,2.3,14.8,3.2,21.5c4.8-11.5,9.8-23.5,14.2-34
					C1501.6,1622.4,1482.3,1622.4,1462.9,1622.4z M1520.2,1710.6c-15.4-10.2-38.8-10.1-50.3,0
					C1486.6,1710.6,1502.5,1710.6,1520.2,1710.6z"/>
				<path d="M1586.2,1326.8c-1.4-18.8,6.8-34.5,16.4-48.3c11.4-16.3,24.2-32.5,39.5-44.9c37-29.8,80-43.6,127.8-36.1
					c14.3,2.2,28.1,8,42,12.7c2.5,0.9,6.2,5.3,5.7,6.6c-1.2,2.9-4.4,6.3-7.3,6.9c-5,1-10.8,1.2-15.7-0.2
					c-48.9-13.9-94.3-5.5-134.8,23.9c-24.4,17.7-43.5,41.1-56.8,68.8C1600.1,1322.6,1597.2,1329.6,1586.2,1326.8z"/>
				<path d="M1233.8,1195c49.9,1.9,90.8,14.4,121.9,47.9c19.9,21.5,41.2,43.1,46.5,74c0.7,4-1.5,8.5-2.4,12.8
					c-3.9-2.6-9.6-4.3-11.5-7.9c-17.5-34.5-40.4-64-74.3-83.6c-34.6-20-71.4-26.1-110.7-17c-7.5,1.8-15.6,1.7-23.4,1.7
					c-2.3,0-5.9-2.1-6.6-4c-0.8-2,0.5-6.2,2.2-7.4c6.1-4,12.4-8.6,19.3-10.1C1209.3,1198,1224.1,1196.5,1233.8,1195z"/>
				<path d="M1878.5,1564c9.9,9.7,9,14-2.9,17.7c-24.3,7.6-48.7,15.1-73,22.6c-3.1,1-6.5,2.5-9.6,2.1c-3.2-0.4-6.3-2.7-9.4-4.1
					c2-3.1,3.3-8,6.1-9c17-6,34.3-11.5,51.7-16.3c8.3-2.3,13.8-5.6,19.6-13.1c16-20.9,34.6-39.9,52.7-59.1c2.1-2.3,7.9-1.2,11.9-1.6
					c-0.8,3.9-0.2,9-2.5,11.6C1908.5,1531.4,1893.4,1547.7,1878.5,1564z"/>
				<path d="M1495.6,1571c21-0.9,40.9,2.8,56.1,19.2c2.6,2.8,2.8,7.7,4.1,11.6c-3.8,0.3-8.1,2-11.4,0.8c-9.1-3.3-17.5-8.5-26.6-11.7
					c-30.6-10.7-57.1,0.7-82.9,16c-3.8,2.3-9.2,1.9-13.9,2.8c1.5-4.4,1.6-10.2,4.6-13.1C1439.2,1583.4,1467.7,1568.5,1495.6,1571z"
					/>
				<path d="M1128,1550c11.7,6,22.1,11.6,32.7,16.9c18,8.9,36.2,17.5,54,26.8c2.7,1.4,3.5,6.2,5.2,9.5c-3.6,0.5-7.8,2.5-10.6,1.3
					c-28.5-12.3-56.9-25-85-38.2c-2.9-1.4-5.7-6.9-5.3-10.2C1119.2,1553.7,1124.8,1552,1128,1550z"/>
				<path d="M1110.9,1568.9c-7.2-6.8-12-9.6-14.4-13.9c-11-20-21.6-40.2-31.7-60.7c-1.5-3,0.9-7.9,1.6-11.9
					c4.1,1.6,10.1,1.9,11.9,4.9c9.9,16.5,18.8,33.6,28,50.4c3,5.4,7.2,10.3,8.8,16.1C1116.2,1556.9,1113.2,1561.4,1110.9,1568.9z"/>
				<path d="M1633.7,1657c-3.8,1.4-7.7,4.4-11.2,3.9c-3.8-0.5-7.2-4.2-10.8-6.5c7.3-6.6-7.8-18.2,5-23.1c2.2-0.8,7.5,1.1,8.2,3
					c2.1,5.7,2.7,12,3.9,18.1C1630.4,1653.9,1632.1,1655.5,1633.7,1657z"/>
				<path d="M1367.5,1661c-1.1-0.1-1.8,0-1.9-0.2c-2.1-3.8-4-7.7-6-11.5c7.7-3.7-3.4-19.3,11.7-18.3c0.4,0,1.1,0,1.2,0.2
					c1.4,3,4.5,8.1,3.8,8.6C1369.5,1645.4,1382.5,1659.8,1367.5,1661z"/>
				<path d="M1382.4,1658.5c6.1,7.4,10.5,12.3,14,17.8c0.4,0.6-7,7.6-7.9,7c-5.8-3.6-10.9-8.4-15.7-13.4
					C1372.6,1669.7,1377.4,1664.5,1382.4,1658.5z"/>
				<path d="M1600.4,1688.4c-4.7-6.3-9.5-11.3-8.9-12.1c3.9-4.9,8.7-9.3,14-12.7c1-0.6,8.5,6.2,8.1,6.9
					C1610.5,1676,1606.3,1680.7,1600.4,1688.4z"/>
				<path d="M1581.5,1678.8c4.8,5.9,10.4,10.5,9.6,12.1c-1.9,4-6.4,8.3-10.5,9c-2.4,0.4-7.9-5.4-8.4-9
					C1571.7,1688.2,1576.8,1684.6,1581.5,1678.8z"/>
				<path d="M1418.4,1694.1c-3.8,2.2-7.9,6.4-11.4,5.9c-3.7-0.5-6.8-5.4-10.2-8.4c2.9-2.8,5.8-8,8.6-7.9c4.4,0.2,8.6,3.9,12.9,6.1
					C1418.4,1691.2,1418.4,1692.6,1418.4,1694.1z"/>
				<path d="M1386.6,1637.5c4.7,6.3,8.3,10.1,10.4,14.6c0.5,1-4.5,4.5-7,6.8c-3.4-3.9-7.2-7.6-9.8-12
					C1379.6,1646,1383.1,1642.5,1386.6,1637.5z"/>
				<path d="M1598.2,1639.5c4.1,4.9,8.5,9.1,8.1,9.6c-2.9,3.7-6.5,7.1-10.6,9.4c-0.8,0.4-7-5.2-6.6-6.9
					C1590.1,1647.9,1593.8,1644.9,1598.2,1639.5z"/>
				<path d="M1423.7,1670.2c-5.8,3.1-8.8,6.2-11.2,5.7c-3.1-0.6-5.5-4-8.3-6.3c2.5-2.2,4.9-6,7.4-6
					C1414.7,1663.6,1417.8,1666.8,1423.7,1670.2z"/>
				<path d="M1576.6,1660c3.4,4.8,7.3,8.6,6.6,9.9c-1.5,2.8-5.1,5.4-8.3,6.1c-1.5,0.4-6.2-4.1-5.8-5.4
					C1570,1667.4,1572.9,1664.8,1576.6,1660z"/>
				<path d="M1119.6,2371.2c9.5-5.5,17.9-11.3,27.1-15.3c4.1-1.8,9.7-0.3,14.6-0.3c-1.8,4.5-2.2,11.1-5.5,13.1
					c-28.8,18.1-58,35.6-87.5,52.6c-4.2,2.5-10.5,1.8-15.8,1.9c-2.1,0-6.1-2.7-6-3.1c2.7-7.7-4.5-15.1-2.5-20.8
					c2.3-6.5,9.4-12.2,15.7-16.4c24.6-16.4,49.9-31.8,74.4-48.4c6.8-4.6,11.3-12.6,17.6-18.1c2.8-2.4,7.5-2.7,11.3-4
					c-0.6,3.9,0.1,9-2.1,11.6C1148,2339.7,1134.3,2354.7,1119.6,2371.2z"/>
				<path d="M1114.3,2264.8c-4.4,1.1-8.7,2.7-13.1,2.9c-1.5,0.1-4.2-3.2-4.7-5.3c-7-28.2-13.9-56.5-20.3-84.9
					c-0.5-2.3,3.2-5.5,5-8.2c2.4,1.8,6.2,3.2,6.9,5.5c8.5,27.5,16.6,55.1,24.8,82.7c0.3,1.2,0.4,2.5,0.5,3.7
					C1113.7,2262.3,1114,2263.5,1114.3,2264.8z"/>
				<path d="M1112.5,2201.4c4,3.2,7.1,4.5,8.1,6.7c9.2,21.4,18.3,42.9,26.6,64.7c0.9,2.4-3.5,9.7-5.8,10c-4.3,0.4-11.7-1.7-12.9-4.8
					c-6.6-16.2-11.9-32.9-17.2-49.6c-1.6-5-2.7-10.4-2.8-15.6C1108.3,2209.5,1110.6,2206.2,1112.5,2201.4z"/>
				<path d="M1868.7,2371.7c-13.4-14.6-25.8-28.1-38.3-41.7c-2.2-2.4-5.6-4.6-6.3-7.4c-0.8-3.1,0.9-6.8,1.4-10.3
					c3.3,0.8,8.2,0.4,9.6,2.5c21.6,30.7,56.5,43.1,85.9,63c7.1,4.8,14.5,9.7,20.2,15.9c2.4,2.6,1,9,0.9,13.6c0,1.4-2.4,3.3-1.9,4.1
					c7.3,14.4-4.2,14-10.9,11.5c-17.6-6.6-34.8-14.5-51.2-23.6c-15.4-8.6-29.8-19-44-29.5c-3.8-2.8-5.1-8.9-7.6-13.5
					c5.6-0.1,11.9-1.8,16.6,0.2C1851.9,2360.2,1859.7,2366.2,1868.7,2371.7z"/>
				<path d="M1915.2,2184.2c-7.5,25.5-14.4,50.8-22.6,75.7c-1.3,3.9-8.2,6-12.5,9c-1.2-5-4.4-10.7-3.2-15
					c6.8-24.5,14.5-48.8,22.5-72.9c1.2-3.7,5.7-6.3,8.7-9.4C1910.1,2175.3,1912.3,2179.1,1915.2,2184.2z"/>
				<path d="M1882.6,2213.8c-7,20.7-13.8,42.1-22,63c-1.4,3.5-8.9,4.7-13.6,6.9c-1.4-4.4-5.1-9.5-3.9-12.9
					c7.5-20.9,15.9-41.4,24.6-61.8c1-2.4,5.6-4.5,8.5-4.6C1877.8,2204.3,1879.5,2209,1882.6,2213.8z"/>
				<path d="M1813.7,1907.4c12.2,20.7,38,28.4,42.6,52.5c-1.2,1.5-2.5,3.1-3.7,4.6c-9.6-5.9-20.4-10.5-28.7-17.9
					c-12.2-10.9-23.2-23.4-33.7-36.2c-3-3.6-4-11.2-2.4-15.6c2.3-6.4,7.7-4.8,13.2-1.3c2.5,1.6,7.6-1.2,11.5-1.2c4,0,8,0.9,12.1,1.4
					c-2.4,3.7-4.6,7.4-7.2,10.9C1816.5,1905.9,1814.8,1906.6,1813.7,1907.4z"/>
				<path d="M1977.9,1998.6c-2.9,23.2-5.8,46.5-8.9,69.6c-1.1,7.7-4.8,14-13.9,11.2c-8-2.4-7.8-8.7-6.2-16.1
					c5.5-24.3,10.1-48.9,15.7-73.2c0.9-3.8,5-6.9,7.6-10.3c1.7,4.2,3.6,8.3,4.9,12.5c0.6,1.9,0.1,4.1,0.1,6.2
					C1977.4,1998.5,1977.7,1998.6,1977.9,1998.6z"/>
				<path d="M1173.7,1908.1c-1.9-4-3.7-8-5.6-12c4.4-1.1,8.9-2.3,13.3-3.1c2.1-0.4,4.5,0.2,6.7,0.4c4.2,0.3,8.4,0.6,12.6,1
					c-0.4,5,1.1,11.9-1.6,14.7c-17.2,17.4-35.3,34-53.2,50.7c-2,1.9-4.8,3.2-7.3,4.4c-3.5,1.6-7.2,2.8-10.7,4.1
					c0.6-4.5-0.5-10.4,2-13.2c9.5-10.9,19.9-21,30.4-30.9c5.3-5.1,11.6-9.1,17.5-13.6C1176.3,1909.7,1175,1908.9,1173.7,1908.1z"/>
				<path d="M1009.8,1998.9c1.8-3.7,4.4-9,7-14.3c3.8,4.8,9.7,9.1,10.9,14.5c5.1,22.8,9.1,45.8,12.4,68.9c0.5,3.5-4.2,9.8-7.9,11.3
					c-6.3,2.6-10.8-1.2-11.9-8.4C1017,2047.7,1013.6,2024.7,1009.8,1998.9z"/>
				<path d="M1300.4,2424.5c2.4,1.9,6.3,3.5,6.7,5.6c0.4,2.3-2.1,6.6-4.3,7.4c-13.8,5.3-27.8,10.4-42,14.5c-2.8,0.8-6.9-3-10.3-4.7
					c1.7-3.2,2.8-8.5,5.3-9.3C1270.1,2433.1,1284.7,2429.2,1300.4,2424.5z"/>
				<path d="M1743.1,2447.2c-7.3,2.6-11.7,5.8-15,4.9c-13.4-3.6-26.7-8-39.6-13.1c-3.2-1.3-4.8-6.3-7.2-9.6
					c3.6-1.1,7.5-3.8,10.7-3.1c13.1,2.9,26.1,6.6,39,10.7C1734.3,2438.1,1736.8,2441.8,1743.1,2447.2z"/>
				<path d="M1325.4,1405.9c-2.5,11-4,21.6-7.5,31.5c-3,8.2-9.2,16.8-19.1,13.8c-7.7-2.4-17.6-8.3-20.2-15.1
					c-9.1-23.7-5.4-47.6,7-69.6c6.1-10.7,26.8-8.4,31.5,4C1321.5,1381.8,1322.8,1394.2,1325.4,1405.9z"/>
				<path d="M1717.3,1406.4c-4.5,12.9-6.2,25.8-13,34.9c-10.1,13.6-26.4,10.6-33.3-5.1c-9.7-22.4-9.3-45.7,0-68.1
					c5.1-12.5,23.6-15.1,30.1-3.8C1708.6,1376.9,1712,1391.9,1717.3,1406.4z"/>
			</g>
		</g>
	</g>
</g>
</svg>
