M48
INCH,TZ
T1C0.014
T2C0.031
T3C0.035
T4C0.040
T5C0.177
%
G90
G05
T1
X16134Y-23980
X17917Y-24394
X19512Y-35657
X19740Y-31291
X19799Y-24531
X20331Y-31146
X21287Y-30201
X22142Y-31862
X22539Y-32563
X22839Y-33075
X22906Y-29382
X23756Y-28957
X24217Y-31894
X24386Y-24925
X24504Y-32677
X24622Y-38299
X25177Y-29472
X25898Y-29835
X26134Y-25071
X26177Y-28319
X26642Y-35169
X26791Y-38472
X27229Y-29595
X27713Y-23602
X27713Y-25689
X28158Y-26357
X28512Y-44362
X28866Y-17528
X29382Y-31303
X29654Y-38614
X29815Y-37602
X30000Y-17850
X30724Y-38224
X30780Y-40941
X30791Y-41244
X31260Y-35622
X31591Y-26906
X31650Y-43697
X32106Y-37020
X34122Y-27433
X34720Y-33287
X34858Y-19661
X34894Y-23909
X35055Y-21484
X35543Y-34469
X35717Y-23354
X35799Y-29146
X36248Y-46240
X36276Y-30272
X36346Y-30661
X36370Y-45941
X36969Y-27937
X37268Y-38488
X37283Y-29370
X37457Y-28925
X38122Y-33500
X38874Y-37799
X42402Y-33272
X42587Y-33024
T2
X19874Y-26866
X19874Y-33445
X27732Y-34343
X28878Y-35304
X40339Y-33445
X40346Y-26866
T3
X34358Y-48524
X37035Y-48524
T4
X38543Y-29831
X38543Y-30831
X39543Y-29831
X39543Y-30831
T5
X16577Y-30018
X23256Y-41665
X23260Y-18335
X36732Y-41669
X36736Y-18335
X43472Y-30004
T0
M30
