G04 #@! TF.FileFunction,Soldermask,Top*
%FSLAX46Y46*%
G04 Gerber Fmt 4.6, Leading zero omitted, Abs format (unit mm)*
G04 Created by KiCad (PCBNEW 4.0.2+dfsg1-stable) date Tue 23 Oct 2018 01:13:40 AM EDT*
%MOMM*%
G01*
G04 APERTURE LIST*
%ADD10C,0.100000*%
%ADD11C,1.800000*%
%ADD12O,3.200000X1.200000*%
%ADD13O,1.200000X3.200000*%
%ADD14C,6.700000*%
%ADD15R,1.200000X1.450000*%
%ADD16R,0.900000X1.500000*%
%ADD17R,1.500000X0.900000*%
%ADD18C,1.400000*%
%ADD19R,1.260000X0.850000*%
%ADD20R,3.857600X2.232000*%
%ADD21R,1.216000X2.232000*%
%ADD22C,1.500000*%
%ADD23R,1.450000X1.200000*%
%ADD24R,4.670400X4.670400*%
%ADD25R,0.650000X1.200000*%
%ADD26R,0.800000X1.200000*%
%ADD27R,0.550000X1.200000*%
%ADD28R,0.700000X1.200000*%
%ADD29R,1.800000X1.200000*%
%ADD30R,1.900000X1.200000*%
%ADD31R,1.927200X1.927200*%
%ADD32O,1.927200X1.927200*%
G04 APERTURE END LIST*
D10*
G36*
X93197085Y-93743333D02*
X93897085Y-94955769D01*
X91039201Y-96605769D01*
X90339201Y-95393333D01*
X93197085Y-93743333D01*
X93197085Y-93743333D01*
G37*
G36*
X91197085Y-90279231D02*
X91897085Y-91491667D01*
X89039201Y-93141667D01*
X88339201Y-91929231D01*
X91197085Y-90279231D01*
X91197085Y-90279231D01*
G37*
G36*
X83480799Y-94734231D02*
X84180799Y-95946667D01*
X81322915Y-97596667D01*
X80622915Y-96384231D01*
X83480799Y-94734231D01*
X83480799Y-94734231D01*
G37*
G36*
X85480799Y-98198333D02*
X86180799Y-99410769D01*
X83322915Y-101060769D01*
X82622915Y-99848333D01*
X85480799Y-98198333D01*
X85480799Y-98198333D01*
G37*
G36*
X69237085Y-99848333D02*
X68537085Y-101060769D01*
X65679201Y-99410769D01*
X66379201Y-98198333D01*
X69237085Y-99848333D01*
X69237085Y-99848333D01*
G37*
G36*
X71237085Y-96384231D02*
X70537085Y-97596667D01*
X67679201Y-95946667D01*
X68379201Y-94734231D01*
X71237085Y-96384231D01*
X71237085Y-96384231D01*
G37*
G36*
X63520799Y-91929231D02*
X62820799Y-93141667D01*
X59962915Y-91491667D01*
X60662915Y-90279231D01*
X63520799Y-91929231D01*
X63520799Y-91929231D01*
G37*
G36*
X61520799Y-95393333D02*
X60820799Y-96605769D01*
X57962915Y-94955769D01*
X58662915Y-93743333D01*
X61520799Y-95393333D01*
X61520799Y-95393333D01*
G37*
D11*
X102480000Y-68240000D03*
X50480000Y-68240000D03*
D12*
X68250000Y-59210000D03*
X68250000Y-61210000D03*
X68250000Y-63210000D03*
X68250000Y-65210000D03*
X68250000Y-67210000D03*
X68250000Y-69210000D03*
X68250000Y-71210000D03*
X68250000Y-73210000D03*
D13*
X71250000Y-74210000D03*
X73250000Y-74210000D03*
X75250000Y-74210000D03*
X77250000Y-74210000D03*
X79250000Y-74210000D03*
X81250000Y-74210000D03*
D12*
X84250000Y-73210000D03*
X84250000Y-71210000D03*
X84250000Y-69210000D03*
X84250000Y-67210000D03*
X84250000Y-65210000D03*
X84250000Y-63210000D03*
X84250000Y-61210000D03*
X84250000Y-59210000D03*
D14*
X59080000Y-46570000D03*
D10*
G36*
X92771860Y-83657868D02*
X93496860Y-82402132D01*
X94536090Y-83002132D01*
X93811090Y-84257868D01*
X92771860Y-83657868D01*
X92771860Y-83657868D01*
G37*
G36*
X94503910Y-84657868D02*
X95228910Y-83402132D01*
X96268140Y-84002132D01*
X95543140Y-85257868D01*
X94503910Y-84657868D01*
X94503910Y-84657868D01*
G37*
G36*
X67224045Y-86211473D02*
X65861491Y-85715544D01*
X66271915Y-84587913D01*
X67634469Y-85083842D01*
X67224045Y-86211473D01*
X67224045Y-86211473D01*
G37*
G36*
X67908085Y-84332087D02*
X66545531Y-83836158D01*
X66955955Y-82708527D01*
X68318509Y-83204456D01*
X67908085Y-84332087D01*
X67908085Y-84332087D01*
G37*
D15*
X59570000Y-76550000D03*
X57570000Y-76550000D03*
D10*
G36*
X88476995Y-79148642D02*
X87616630Y-80377370D01*
X86879393Y-79861152D01*
X87739758Y-78632424D01*
X88476995Y-79148642D01*
X88476995Y-79148642D01*
G37*
G36*
X86920607Y-78058848D02*
X86060242Y-79287576D01*
X85323005Y-78771358D01*
X86183370Y-77542630D01*
X86920607Y-78058848D01*
X86920607Y-78058848D01*
G37*
G36*
X90994872Y-85429961D02*
X92489164Y-85560694D01*
X92410724Y-86457269D01*
X90916432Y-86326536D01*
X90994872Y-85429961D01*
X90994872Y-85429961D01*
G37*
G36*
X90829276Y-87322731D02*
X92323568Y-87453464D01*
X92245128Y-88350039D01*
X90750836Y-88219306D01*
X90829276Y-87322731D01*
X90829276Y-87322731D01*
G37*
D16*
X62872000Y-85008000D03*
X64772000Y-85008000D03*
X60940000Y-88320000D03*
X62840000Y-88320000D03*
X58300000Y-85516000D03*
X60200000Y-85516000D03*
X63888000Y-81706000D03*
X65788000Y-81706000D03*
D17*
X61790000Y-77962000D03*
X61790000Y-79862000D03*
X56202000Y-83926000D03*
X56202000Y-82026000D03*
D18*
X94070000Y-123250000D03*
X87270000Y-123250000D03*
D19*
X58150000Y-81518000D03*
X58150000Y-82468000D03*
X58150000Y-83418000D03*
X60350000Y-83418000D03*
X60350000Y-81518000D03*
D20*
X75710000Y-94067999D03*
D21*
X75710000Y-100672001D03*
X77996001Y-100672000D03*
X73423999Y-100672000D03*
D10*
G36*
X69383376Y-87322443D02*
X70347557Y-86173376D01*
X71496624Y-87137557D01*
X70532443Y-88286624D01*
X69383376Y-87322443D01*
X69383376Y-87322443D01*
G37*
D22*
X73350969Y-89672593D03*
D23*
X86870000Y-51160000D03*
X86870000Y-53160000D03*
D11*
X50480000Y-84950000D03*
X102460000Y-84950000D03*
D23*
X50250000Y-78000000D03*
X50250000Y-76000000D03*
D14*
X93300000Y-105840000D03*
X42105000Y-76245000D03*
X110420000Y-76210000D03*
X59070000Y-105830000D03*
X93310000Y-46570000D03*
D24*
X76210000Y-62700000D03*
D10*
G36*
X83274023Y-91188719D02*
X82248719Y-92214023D01*
X81400191Y-91365495D01*
X82425495Y-90340191D01*
X83274023Y-91188719D01*
X83274023Y-91188719D01*
G37*
G36*
X81859809Y-89774505D02*
X80834505Y-90799809D01*
X79985977Y-89951281D01*
X81011281Y-88925977D01*
X81859809Y-89774505D01*
X81859809Y-89774505D01*
G37*
D17*
X94410000Y-76340000D03*
X94410000Y-78240000D03*
D10*
G36*
X47983398Y-58084360D02*
X49022628Y-58684360D01*
X48697628Y-59247276D01*
X47658398Y-58647276D01*
X47983398Y-58084360D01*
X47983398Y-58084360D01*
G37*
G36*
X47533398Y-58863782D02*
X48572628Y-59463782D01*
X48172628Y-60156602D01*
X47133398Y-59556602D01*
X47533398Y-58863782D01*
X47533398Y-58863782D01*
G37*
G36*
X47033398Y-59729808D02*
X48072628Y-60329808D01*
X47797628Y-60806122D01*
X46758398Y-60206122D01*
X47033398Y-59729808D01*
X47033398Y-59729808D01*
G37*
G36*
X46658398Y-60379327D02*
X47697628Y-60979327D01*
X47347628Y-61585545D01*
X46308398Y-60985545D01*
X46658398Y-60379327D01*
X46658398Y-60379327D01*
G37*
G36*
X46393398Y-91474360D02*
X47432628Y-90874360D01*
X47757628Y-91437276D01*
X46718398Y-92037276D01*
X46393398Y-91474360D01*
X46393398Y-91474360D01*
G37*
G36*
X46843398Y-92253782D02*
X47882628Y-91653782D01*
X48282628Y-92346602D01*
X47243398Y-92946602D01*
X46843398Y-92253782D01*
X46843398Y-92253782D01*
G37*
G36*
X47343398Y-93119808D02*
X48382628Y-92519808D01*
X48657628Y-92996122D01*
X47618398Y-93596122D01*
X47343398Y-93119808D01*
X47343398Y-93119808D01*
G37*
G36*
X47718398Y-93769327D02*
X48757628Y-93169327D01*
X49107628Y-93775545D01*
X48068398Y-94375545D01*
X47718398Y-93769327D01*
X47718398Y-93769327D01*
G37*
D25*
X74865000Y-109140000D03*
D26*
X75840000Y-109140000D03*
D27*
X76715000Y-109140000D03*
D28*
X77540000Y-109140000D03*
D10*
G36*
X104376602Y-94355640D02*
X103337372Y-93755640D01*
X103662372Y-93192724D01*
X104701602Y-93792724D01*
X104376602Y-94355640D01*
X104376602Y-94355640D01*
G37*
G36*
X104826602Y-93576218D02*
X103787372Y-92976218D01*
X104187372Y-92283398D01*
X105226602Y-92883398D01*
X104826602Y-93576218D01*
X104826602Y-93576218D01*
G37*
G36*
X105326602Y-92710192D02*
X104287372Y-92110192D01*
X104562372Y-91633878D01*
X105601602Y-92233878D01*
X105326602Y-92710192D01*
X105326602Y-92710192D01*
G37*
G36*
X105701602Y-92060673D02*
X104662372Y-91460673D01*
X105012372Y-90854455D01*
X106051602Y-91454455D01*
X105701602Y-92060673D01*
X105701602Y-92060673D01*
G37*
G36*
X106016602Y-60835640D02*
X104977372Y-61435640D01*
X104652372Y-60872724D01*
X105691602Y-60272724D01*
X106016602Y-60835640D01*
X106016602Y-60835640D01*
G37*
G36*
X105566602Y-60056218D02*
X104527372Y-60656218D01*
X104127372Y-59963398D01*
X105166602Y-59363398D01*
X105566602Y-60056218D01*
X105566602Y-60056218D01*
G37*
G36*
X105066602Y-59190192D02*
X104027372Y-59790192D01*
X103752372Y-59313878D01*
X104791602Y-58713878D01*
X105066602Y-59190192D01*
X105066602Y-59190192D01*
G37*
G36*
X104691602Y-58540673D02*
X103652372Y-59140673D01*
X103302372Y-58534455D01*
X104341602Y-57934455D01*
X104691602Y-58540673D01*
X104691602Y-58540673D01*
G37*
D25*
X77485000Y-43190000D03*
D26*
X76510000Y-43190000D03*
D27*
X75635000Y-43190000D03*
D28*
X74810000Y-43190000D03*
D15*
X59600000Y-78500000D03*
X57600000Y-78500000D03*
D10*
G36*
X64039619Y-69779721D02*
X65100279Y-70840381D01*
X64463883Y-71476777D01*
X63403223Y-70416117D01*
X64039619Y-69779721D01*
X64039619Y-69779721D01*
G37*
G36*
X62696117Y-71123223D02*
X63756777Y-72183883D01*
X63120381Y-72820279D01*
X62059721Y-71759619D01*
X62696117Y-71123223D01*
X62696117Y-71123223D01*
G37*
D16*
X97650000Y-81860000D03*
X99550000Y-81860000D03*
D29*
X79780000Y-79270000D03*
D30*
X72780000Y-79270000D03*
D31*
X97900000Y-75770000D03*
D32*
X100440000Y-75770000D03*
X97900000Y-78310000D03*
X100440000Y-78310000D03*
D10*
G36*
X69151281Y-104104023D02*
X68125977Y-103078719D01*
X68974505Y-102230191D01*
X69999809Y-103255495D01*
X69151281Y-104104023D01*
X69151281Y-104104023D01*
G37*
G36*
X70565495Y-102689809D02*
X69540191Y-101664505D01*
X70388719Y-100815977D01*
X71414023Y-101841281D01*
X70565495Y-102689809D01*
X70565495Y-102689809D01*
G37*
M02*
