G04 #@! TF.FileFunction,Soldermask,Top*
%FSLAX46Y46*%
G04 Gerber Fmt 4.6, Leading zero omitted, Abs format (unit mm)*
G04 Created by KiCad (PCBNEW 4.0.2+dfsg1-stable) date Sun 09 Sep 2018 01:37:12 AM EDT*
%MOMM*%
G01*
G04 APERTURE LIST*
%ADD10C,0.100000*%
%ADD11O,3.240000X1.240000*%
%ADD12O,1.240000X3.240000*%
%ADD13R,1.240000X1.490000*%
%ADD14R,0.940000X1.540000*%
%ADD15R,1.540000X0.940000*%
%ADD16R,1.240000X3.340000*%
%ADD17O,1.140000X1.800000*%
%ADD18O,1.490000X1.090000*%
%ADD19C,1.440000*%
%ADD20R,0.690000X1.240000*%
%ADD21R,0.840000X1.240000*%
%ADD22R,0.590000X1.240000*%
%ADD23R,0.740000X1.240000*%
%ADD24R,1.300000X0.890000*%
%ADD25R,1.540000X1.540000*%
%ADD26C,1.540000*%
%ADD27C,1.764000*%
%ADD28C,4.710400*%
%ADD29R,4.710400X4.710400*%
G04 APERTURE END LIST*
D10*
D11*
X76836000Y-40434000D03*
X76836000Y-42434000D03*
X76836000Y-44434000D03*
X76836000Y-46434000D03*
X76836000Y-48434000D03*
X76836000Y-50434000D03*
X76836000Y-52434000D03*
X76836000Y-54434000D03*
D12*
X79836000Y-55434000D03*
X81836000Y-55434000D03*
X83836000Y-55434000D03*
X85836000Y-55434000D03*
X87836000Y-55434000D03*
X89836000Y-55434000D03*
D11*
X92836000Y-54434000D03*
X92836000Y-52434000D03*
X92836000Y-50434000D03*
X92836000Y-48434000D03*
X92836000Y-46434000D03*
X92836000Y-44434000D03*
X92836000Y-42434000D03*
X92836000Y-40434000D03*
D10*
G36*
X103344539Y-62665189D02*
X104089539Y-61374811D01*
X105163411Y-61994811D01*
X104418411Y-63285189D01*
X103344539Y-62665189D01*
X103344539Y-62665189D01*
G37*
G36*
X105076589Y-63665189D02*
X105821589Y-62374811D01*
X106895461Y-62994811D01*
X106150461Y-64285189D01*
X105076589Y-63665189D01*
X105076589Y-63665189D01*
G37*
G36*
X76597281Y-68728308D02*
X75543692Y-67674719D01*
X76420505Y-66797906D01*
X77474094Y-67851495D01*
X76597281Y-68728308D01*
X76597281Y-68728308D01*
G37*
G36*
X78011495Y-67314094D02*
X76957906Y-66260505D01*
X77834719Y-65383692D01*
X78888308Y-66437281D01*
X78011495Y-67314094D01*
X78011495Y-67314094D01*
G37*
D13*
X70170000Y-55550000D03*
X68170000Y-55550000D03*
D10*
G36*
X69578563Y-48069619D02*
X68489619Y-49158563D01*
X67824939Y-48493883D01*
X68913883Y-47404939D01*
X69578563Y-48069619D01*
X69578563Y-48069619D01*
G37*
G36*
X68235061Y-46726117D02*
X67146117Y-47815061D01*
X66481437Y-47150381D01*
X67570381Y-46061437D01*
X68235061Y-46726117D01*
X68235061Y-46726117D01*
G37*
G36*
X101591691Y-63923294D02*
X103125831Y-64057513D01*
X103043905Y-64993936D01*
X101509765Y-64859717D01*
X101591691Y-63923294D01*
X101591691Y-63923294D01*
G37*
G36*
X101426095Y-65816064D02*
X102960235Y-65950283D01*
X102878309Y-66886706D01*
X101344169Y-66752487D01*
X101426095Y-65816064D01*
X101426095Y-65816064D01*
G37*
D14*
X73472000Y-64008000D03*
X75372000Y-64008000D03*
X71440000Y-67310000D03*
X73340000Y-67310000D03*
X68900000Y-64516000D03*
X70800000Y-64516000D03*
X74488000Y-60706000D03*
X76388000Y-60706000D03*
D15*
X72390000Y-56962000D03*
X72390000Y-58862000D03*
X66802000Y-62926000D03*
X66802000Y-61026000D03*
D10*
G36*
X103784405Y-72427615D02*
X104404405Y-73501487D01*
X101511881Y-75171487D01*
X100891881Y-74097615D01*
X103784405Y-72427615D01*
X103784405Y-72427615D01*
G37*
G36*
X101784405Y-68963513D02*
X102404405Y-70037385D01*
X99511881Y-71707385D01*
X98891881Y-70633513D01*
X101784405Y-68963513D01*
X101784405Y-68963513D01*
G37*
G36*
X94068119Y-73418513D02*
X94688119Y-74492385D01*
X91795595Y-76162385D01*
X91175595Y-75088513D01*
X94068119Y-73418513D01*
X94068119Y-73418513D01*
G37*
G36*
X96068119Y-76882615D02*
X96688119Y-77956487D01*
X93795595Y-79626487D01*
X93175595Y-78552615D01*
X96068119Y-76882615D01*
X96068119Y-76882615D01*
G37*
D16*
X64738000Y-50663000D03*
X60738000Y-50663000D03*
X60738000Y-59573000D03*
X64738000Y-59573000D03*
X108236000Y-59827000D03*
X112236000Y-59827000D03*
X112236000Y-50917000D03*
X108236000Y-50917000D03*
D10*
G36*
X80179405Y-78552615D02*
X79559405Y-79626487D01*
X76666881Y-77956487D01*
X77286881Y-76882615D01*
X80179405Y-78552615D01*
X80179405Y-78552615D01*
G37*
G36*
X82179405Y-75088513D02*
X81559405Y-76162385D01*
X78666881Y-74492385D01*
X79286881Y-73418513D01*
X82179405Y-75088513D01*
X82179405Y-75088513D01*
G37*
G36*
X74463119Y-70633513D02*
X73843119Y-71707385D01*
X70950595Y-70037385D01*
X71570595Y-68963513D01*
X74463119Y-70633513D01*
X74463119Y-70633513D01*
G37*
G36*
X72463119Y-74097615D02*
X71843119Y-75171487D01*
X68950595Y-73501487D01*
X69570595Y-72427615D01*
X72463119Y-74097615D01*
X72463119Y-74097615D01*
G37*
D17*
X73208000Y-95410000D03*
X80208000Y-95410000D03*
D18*
X74208000Y-92710000D03*
X79208000Y-92710000D03*
D19*
X97888000Y-95510000D03*
X91088000Y-95510000D03*
D20*
X85085000Y-30472000D03*
D21*
X86060000Y-30472000D03*
D22*
X86935000Y-30472000D03*
D23*
X87760000Y-30472000D03*
D10*
G36*
X106424051Y-41575039D02*
X107497923Y-40955039D01*
X107842923Y-41552597D01*
X106769051Y-42172597D01*
X106424051Y-41575039D01*
X106424051Y-41575039D01*
G37*
G36*
X106874051Y-42354461D02*
X107947923Y-41734461D01*
X108367923Y-42461923D01*
X107294051Y-43081923D01*
X106874051Y-42354461D01*
X106874051Y-42354461D01*
G37*
G36*
X107374051Y-43220488D02*
X108447923Y-42600488D01*
X108742923Y-43111442D01*
X107669051Y-43731442D01*
X107374051Y-43220488D01*
X107374051Y-43220488D01*
G37*
G36*
X107749051Y-43870007D02*
X108822923Y-43250007D01*
X109192923Y-43890865D01*
X108119051Y-44510865D01*
X107749051Y-43870007D01*
X107749051Y-43870007D01*
G37*
G36*
X107790051Y-65855039D02*
X108863923Y-66475039D01*
X108518923Y-67072597D01*
X107445051Y-66452597D01*
X107790051Y-65855039D01*
X107790051Y-65855039D01*
G37*
G36*
X107340051Y-66634461D02*
X108413923Y-67254461D01*
X107993923Y-67981923D01*
X106920051Y-67361923D01*
X107340051Y-66634461D01*
X107340051Y-66634461D01*
G37*
G36*
X106840051Y-67500488D02*
X107913923Y-68120488D01*
X107618923Y-68631442D01*
X106545051Y-68011442D01*
X106840051Y-67500488D01*
X106840051Y-67500488D01*
G37*
G36*
X106465051Y-68150007D02*
X107538923Y-68770007D01*
X107168923Y-69410865D01*
X106095051Y-68790865D01*
X106465051Y-68150007D01*
X106465051Y-68150007D01*
G37*
D20*
X87889000Y-79510000D03*
D21*
X86914000Y-79510000D03*
D22*
X86039000Y-79510000D03*
D23*
X85214000Y-79510000D03*
D10*
G36*
X67311949Y-69422961D02*
X66238077Y-70042961D01*
X65893077Y-69445403D01*
X66966949Y-68825403D01*
X67311949Y-69422961D01*
X67311949Y-69422961D01*
G37*
G36*
X66861949Y-68643539D02*
X65788077Y-69263539D01*
X65368077Y-68536077D01*
X66441949Y-67916077D01*
X66861949Y-68643539D01*
X66861949Y-68643539D01*
G37*
G36*
X66361949Y-67777512D02*
X65288077Y-68397512D01*
X64993077Y-67886558D01*
X66066949Y-67266558D01*
X66361949Y-67777512D01*
X66361949Y-67777512D01*
G37*
G36*
X65986949Y-67127993D02*
X64913077Y-67747993D01*
X64543077Y-67107135D01*
X65616949Y-66487135D01*
X65986949Y-67127993D01*
X65986949Y-67127993D01*
G37*
G36*
X64929949Y-44634961D02*
X63856077Y-44014961D01*
X64201077Y-43417403D01*
X65274949Y-44037403D01*
X64929949Y-44634961D01*
X64929949Y-44634961D01*
G37*
G36*
X65379949Y-43855539D02*
X64306077Y-43235539D01*
X64726077Y-42508077D01*
X65799949Y-43128077D01*
X65379949Y-43855539D01*
X65379949Y-43855539D01*
G37*
G36*
X65879949Y-42989512D02*
X64806077Y-42369512D01*
X65101077Y-41858558D01*
X66174949Y-42478558D01*
X65879949Y-42989512D01*
X65879949Y-42989512D01*
G37*
G36*
X66254949Y-42339993D02*
X65181077Y-41719993D01*
X65551077Y-41079135D01*
X66624949Y-41699135D01*
X66254949Y-42339993D01*
X66254949Y-42339993D01*
G37*
D24*
X68750000Y-60518000D03*
X68750000Y-61468000D03*
X68750000Y-62418000D03*
X70950000Y-62418000D03*
X70950000Y-60518000D03*
D10*
G36*
X90323584Y-65670397D02*
X91930131Y-64063850D01*
X94686150Y-66819869D01*
X93079603Y-68426416D01*
X90323584Y-65670397D01*
X90323584Y-65670397D01*
G37*
G36*
X86587797Y-71274077D02*
X88194343Y-69667531D01*
X89082469Y-70555657D01*
X87475923Y-72162203D01*
X86587797Y-71274077D01*
X86587797Y-71274077D01*
G37*
G36*
X88204244Y-72890523D02*
X89810790Y-71283977D01*
X90698916Y-72172103D01*
X89092370Y-73778649D01*
X88204244Y-72890523D01*
X88204244Y-72890523D01*
G37*
G36*
X84971351Y-69657630D02*
X86577897Y-68051084D01*
X87466023Y-68939210D01*
X85859477Y-70545756D01*
X84971351Y-69657630D01*
X84971351Y-69657630D01*
G37*
D25*
X80010000Y-62992000D03*
D26*
X83810000Y-62992000D03*
D10*
G36*
X104796308Y-37448719D02*
X103742719Y-38502308D01*
X102865906Y-37625495D01*
X103919495Y-36571906D01*
X104796308Y-37448719D01*
X104796308Y-37448719D01*
G37*
G36*
X103382094Y-36034505D02*
X102328505Y-37088094D01*
X101451692Y-36211281D01*
X102505281Y-35157692D01*
X103382094Y-36034505D01*
X103382094Y-36034505D01*
G37*
D27*
X114464000Y-47498000D03*
X58764000Y-47498000D03*
X58764000Y-63754000D03*
X114464000Y-63754000D03*
D28*
X72898000Y-31242000D03*
X72898000Y-78740000D03*
X100330000Y-78740000D03*
X100330000Y-31242000D03*
D13*
X74025000Y-52070000D03*
X72025000Y-52070000D03*
D28*
X103505000Y-84455000D03*
X52705000Y-55245000D03*
X120650000Y-55245000D03*
X69850000Y-84455000D03*
X69215000Y-25400000D03*
X103505000Y-25400000D03*
D29*
X85050000Y-44760000D03*
D13*
X87500000Y-76020000D03*
X85500000Y-76020000D03*
D14*
X77140000Y-58480000D03*
X79040000Y-58480000D03*
M02*
