G04 #@! TF.FileFunction,Legend,Bot*
%FSLAX46Y46*%
G04 Gerber Fmt 4.6, Leading zero omitted, Abs format (unit mm)*
G04 Created by KiCad (PCBNEW 4.0.2+dfsg1-stable) date Sun 09 Sep 2018 01:37:12 AM EDT*
%MOMM*%
G01*
G04 APERTURE LIST*
%ADD10C,0.100000*%
%ADD11C,0.150000*%
G04 APERTURE END LIST*
D10*
D11*
X100610000Y-37060000D02*
X100610000Y-35510000D01*
X100610000Y-35510000D02*
X97510000Y-35510000D01*
X97510000Y-35510000D02*
X97510000Y-37060000D01*
X97790000Y-38330000D02*
X97790000Y-48490000D01*
X97790000Y-48490000D02*
X100330000Y-48490000D01*
X100330000Y-48490000D02*
X100330000Y-38330000D01*
X97790000Y-38330000D02*
X100330000Y-38330000D01*
X74858000Y-92060000D02*
X72958000Y-92060000D01*
X72958000Y-92060000D02*
X72958000Y-94610000D01*
X80458000Y-94610000D02*
X80458000Y-92060000D01*
X80458000Y-92060000D02*
X78558000Y-92060000D01*
X72958000Y-97410000D02*
X72958000Y-96260000D01*
X80458000Y-97410000D02*
X80458000Y-96360000D01*
X79058000Y-97410000D02*
X80458000Y-97410000D01*
X74358000Y-97410000D02*
X72958000Y-97410000D01*
X79058000Y-97410000D02*
X74358000Y-97410000D01*
X56614000Y-39498000D02*
X116614000Y-39498000D01*
X116614000Y-39498000D02*
X116614000Y-55498000D01*
X116614000Y-55498000D02*
X56614000Y-55498000D01*
X56614000Y-55498000D02*
X56614000Y-39498000D01*
X116614000Y-71754000D02*
X56614000Y-71754000D01*
X56614000Y-71754000D02*
X56614000Y-55754000D01*
X56614000Y-55754000D02*
X116614000Y-55754000D01*
X116614000Y-55754000D02*
X116614000Y-71754000D01*
X99798095Y-32412381D02*
X99798095Y-31412381D01*
X99417142Y-31412381D01*
X99321904Y-31460000D01*
X99274285Y-31507619D01*
X99226666Y-31602857D01*
X99226666Y-31745714D01*
X99274285Y-31840952D01*
X99321904Y-31888571D01*
X99417142Y-31936190D01*
X99798095Y-31936190D01*
X98274285Y-32412381D02*
X98845714Y-32412381D01*
X98560000Y-32412381D02*
X98560000Y-31412381D01*
X98655238Y-31555238D01*
X98750476Y-31650476D01*
X98845714Y-31698095D01*
X100393333Y-34412381D02*
X100393333Y-33412381D01*
X100012380Y-33412381D01*
X99917142Y-33460000D01*
X99869523Y-33507619D01*
X99821904Y-33602857D01*
X99821904Y-33745714D01*
X99869523Y-33840952D01*
X99917142Y-33888571D01*
X100012380Y-33936190D01*
X100393333Y-33936190D01*
X98869523Y-33460000D02*
X98964761Y-33412381D01*
X99107618Y-33412381D01*
X99250476Y-33460000D01*
X99345714Y-33555238D01*
X99393333Y-33650476D01*
X99440952Y-33840952D01*
X99440952Y-33983810D01*
X99393333Y-34174286D01*
X99345714Y-34269524D01*
X99250476Y-34364762D01*
X99107618Y-34412381D01*
X99012380Y-34412381D01*
X98869523Y-34364762D01*
X98821904Y-34317143D01*
X98821904Y-33983810D01*
X99012380Y-33983810D01*
X98393333Y-34412381D02*
X98393333Y-33412381D01*
X98059999Y-34126667D01*
X97726666Y-33412381D01*
X97726666Y-34412381D01*
X77448635Y-91689161D02*
X77448635Y-90689161D01*
X77067682Y-90689161D01*
X76972444Y-90736780D01*
X76924825Y-90784399D01*
X76877206Y-90879637D01*
X76877206Y-91022494D01*
X76924825Y-91117732D01*
X76972444Y-91165351D01*
X77067682Y-91212970D01*
X77448635Y-91212970D01*
X76496254Y-90784399D02*
X76448635Y-90736780D01*
X76353397Y-90689161D01*
X76115301Y-90689161D01*
X76020063Y-90736780D01*
X75972444Y-90784399D01*
X75924825Y-90879637D01*
X75924825Y-90974875D01*
X75972444Y-91117732D01*
X76543873Y-91689161D01*
X75924825Y-91689161D01*
X91067619Y-88722381D02*
X91067619Y-89531905D01*
X91020000Y-89627143D01*
X90972381Y-89674762D01*
X90877143Y-89722381D01*
X90686666Y-89722381D01*
X90591428Y-89674762D01*
X90543809Y-89627143D01*
X90496190Y-89531905D01*
X90496190Y-88722381D01*
X90067619Y-89674762D02*
X89924762Y-89722381D01*
X89686666Y-89722381D01*
X89591428Y-89674762D01*
X89543809Y-89627143D01*
X89496190Y-89531905D01*
X89496190Y-89436667D01*
X89543809Y-89341429D01*
X89591428Y-89293810D01*
X89686666Y-89246190D01*
X89877143Y-89198571D01*
X89972381Y-89150952D01*
X90020000Y-89103333D01*
X90067619Y-89008095D01*
X90067619Y-88912857D01*
X90020000Y-88817619D01*
X89972381Y-88770000D01*
X89877143Y-88722381D01*
X89639047Y-88722381D01*
X89496190Y-88770000D01*
X88734285Y-89198571D02*
X88591428Y-89246190D01*
X88543809Y-89293810D01*
X88496190Y-89389048D01*
X88496190Y-89531905D01*
X88543809Y-89627143D01*
X88591428Y-89674762D01*
X88686666Y-89722381D01*
X89067619Y-89722381D01*
X89067619Y-88722381D01*
X88734285Y-88722381D01*
X88639047Y-88770000D01*
X88591428Y-88817619D01*
X88543809Y-88912857D01*
X88543809Y-89008095D01*
X88591428Y-89103333D01*
X88639047Y-89150952D01*
X88734285Y-89198571D01*
X89067619Y-89198571D01*
X88067619Y-89722381D02*
X88067619Y-88722381D01*
X87734285Y-89436667D01*
X87400952Y-88722381D01*
X87400952Y-89722381D01*
X86924762Y-89722381D02*
X86924762Y-89055714D01*
X86924762Y-88722381D02*
X86972381Y-88770000D01*
X86924762Y-88817619D01*
X86877143Y-88770000D01*
X86924762Y-88722381D01*
X86924762Y-88817619D01*
X86020000Y-89674762D02*
X86115238Y-89722381D01*
X86305715Y-89722381D01*
X86400953Y-89674762D01*
X86448572Y-89627143D01*
X86496191Y-89531905D01*
X86496191Y-89246190D01*
X86448572Y-89150952D01*
X86400953Y-89103333D01*
X86305715Y-89055714D01*
X86115238Y-89055714D01*
X86020000Y-89103333D01*
X85591429Y-89722381D02*
X85591429Y-89055714D01*
X85591429Y-89246190D02*
X85543810Y-89150952D01*
X85496191Y-89103333D01*
X85400953Y-89055714D01*
X85305714Y-89055714D01*
X84829524Y-89722381D02*
X84924762Y-89674762D01*
X84972381Y-89627143D01*
X85020000Y-89531905D01*
X85020000Y-89246190D01*
X84972381Y-89150952D01*
X84924762Y-89103333D01*
X84829524Y-89055714D01*
X84686666Y-89055714D01*
X84591428Y-89103333D01*
X84543809Y-89150952D01*
X84496190Y-89246190D01*
X84496190Y-89531905D01*
X84543809Y-89627143D01*
X84591428Y-89674762D01*
X84686666Y-89722381D01*
X84829524Y-89722381D01*
X83734285Y-89198571D02*
X83591428Y-89246190D01*
X83543809Y-89293810D01*
X83496190Y-89389048D01*
X83496190Y-89531905D01*
X83543809Y-89627143D01*
X83591428Y-89674762D01*
X83686666Y-89722381D01*
X84067619Y-89722381D01*
X84067619Y-88722381D01*
X83734285Y-88722381D01*
X83639047Y-88770000D01*
X83591428Y-88817619D01*
X83543809Y-88912857D01*
X83543809Y-89008095D01*
X83591428Y-89103333D01*
X83639047Y-89150952D01*
X83734285Y-89198571D01*
X84067619Y-89198571D01*
X83067619Y-89341429D02*
X82305714Y-89341429D01*
X81305714Y-89722381D02*
X81877143Y-89722381D01*
X81591429Y-89722381D02*
X81591429Y-88722381D01*
X81686667Y-88865238D01*
X81781905Y-88960476D01*
X81877143Y-89008095D01*
X80686667Y-88722381D02*
X80591428Y-88722381D01*
X80496190Y-88770000D01*
X80448571Y-88817619D01*
X80400952Y-88912857D01*
X80353333Y-89103333D01*
X80353333Y-89341429D01*
X80400952Y-89531905D01*
X80448571Y-89627143D01*
X80496190Y-89674762D01*
X80591428Y-89722381D01*
X80686667Y-89722381D01*
X80781905Y-89674762D01*
X80829524Y-89627143D01*
X80877143Y-89531905D01*
X80924762Y-89341429D01*
X80924762Y-89103333D01*
X80877143Y-88912857D01*
X80829524Y-88817619D01*
X80781905Y-88770000D01*
X80686667Y-88722381D01*
X79400952Y-89722381D02*
X79972381Y-89722381D01*
X79686667Y-89722381D02*
X79686667Y-88722381D01*
X79781905Y-88865238D01*
X79877143Y-88960476D01*
X79972381Y-89008095D01*
X78448571Y-89722381D02*
X79020000Y-89722381D01*
X78734286Y-89722381D02*
X78734286Y-88722381D01*
X78829524Y-88865238D01*
X78924762Y-88960476D01*
X79020000Y-89008095D01*
X77877143Y-89150952D02*
X77972381Y-89103333D01*
X78020000Y-89055714D01*
X78067619Y-88960476D01*
X78067619Y-88912857D01*
X78020000Y-88817619D01*
X77972381Y-88770000D01*
X77877143Y-88722381D01*
X77686666Y-88722381D01*
X77591428Y-88770000D01*
X77543809Y-88817619D01*
X77496190Y-88912857D01*
X77496190Y-88960476D01*
X77543809Y-89055714D01*
X77591428Y-89103333D01*
X77686666Y-89150952D01*
X77877143Y-89150952D01*
X77972381Y-89198571D01*
X78020000Y-89246190D01*
X78067619Y-89341429D01*
X78067619Y-89531905D01*
X78020000Y-89627143D01*
X77972381Y-89674762D01*
X77877143Y-89722381D01*
X77686666Y-89722381D01*
X77591428Y-89674762D01*
X77543809Y-89627143D01*
X77496190Y-89531905D01*
X77496190Y-89341429D01*
X77543809Y-89246190D01*
X77591428Y-89198571D01*
X77686666Y-89150952D01*
X76543809Y-89722381D02*
X77115238Y-89722381D01*
X76829524Y-89722381D02*
X76829524Y-88722381D01*
X76924762Y-88865238D01*
X77020000Y-88960476D01*
X77115238Y-89008095D01*
X76067619Y-89722381D02*
X75877143Y-89722381D01*
X75781904Y-89674762D01*
X75734285Y-89627143D01*
X75639047Y-89484286D01*
X75591428Y-89293810D01*
X75591428Y-88912857D01*
X75639047Y-88817619D01*
X75686666Y-88770000D01*
X75781904Y-88722381D01*
X75972381Y-88722381D01*
X76067619Y-88770000D01*
X76115238Y-88817619D01*
X76162857Y-88912857D01*
X76162857Y-89150952D01*
X76115238Y-89246190D01*
X76067619Y-89293810D01*
X75972381Y-89341429D01*
X75781904Y-89341429D01*
X75686666Y-89293810D01*
X75639047Y-89246190D01*
X75591428Y-89150952D01*
X74734285Y-89055714D02*
X74734285Y-89722381D01*
X74972381Y-88674762D02*
X75210476Y-89389048D01*
X74591428Y-89389048D01*
X74210476Y-89341429D02*
X73448571Y-89341429D01*
X72781905Y-88722381D02*
X72686666Y-88722381D01*
X72591428Y-88770000D01*
X72543809Y-88817619D01*
X72496190Y-88912857D01*
X72448571Y-89103333D01*
X72448571Y-89341429D01*
X72496190Y-89531905D01*
X72543809Y-89627143D01*
X72591428Y-89674762D01*
X72686666Y-89722381D01*
X72781905Y-89722381D01*
X72877143Y-89674762D01*
X72924762Y-89627143D01*
X72972381Y-89531905D01*
X73020000Y-89341429D01*
X73020000Y-89103333D01*
X72972381Y-88912857D01*
X72924762Y-88817619D01*
X72877143Y-88770000D01*
X72781905Y-88722381D01*
X71829524Y-88722381D02*
X71734285Y-88722381D01*
X71639047Y-88770000D01*
X71591428Y-88817619D01*
X71543809Y-88912857D01*
X71496190Y-89103333D01*
X71496190Y-89341429D01*
X71543809Y-89531905D01*
X71591428Y-89627143D01*
X71639047Y-89674762D01*
X71734285Y-89722381D01*
X71829524Y-89722381D01*
X71924762Y-89674762D01*
X71972381Y-89627143D01*
X72020000Y-89531905D01*
X72067619Y-89341429D01*
X72067619Y-89103333D01*
X72020000Y-88912857D01*
X71972381Y-88817619D01*
X71924762Y-88770000D01*
X71829524Y-88722381D01*
X70877143Y-88722381D02*
X70781904Y-88722381D01*
X70686666Y-88770000D01*
X70639047Y-88817619D01*
X70591428Y-88912857D01*
X70543809Y-89103333D01*
X70543809Y-89341429D01*
X70591428Y-89531905D01*
X70639047Y-89627143D01*
X70686666Y-89674762D01*
X70781904Y-89722381D01*
X70877143Y-89722381D01*
X70972381Y-89674762D01*
X71020000Y-89627143D01*
X71067619Y-89531905D01*
X71115238Y-89341429D01*
X71115238Y-89103333D01*
X71067619Y-88912857D01*
X71020000Y-88817619D01*
X70972381Y-88770000D01*
X70877143Y-88722381D01*
X69591428Y-89722381D02*
X70162857Y-89722381D01*
X69877143Y-89722381D02*
X69877143Y-88722381D01*
X69972381Y-88865238D01*
X70067619Y-88960476D01*
X70162857Y-89008095D01*
X68686666Y-89722381D02*
X69162857Y-89722381D01*
X69162857Y-88722381D01*
X68019999Y-89198571D02*
X68353333Y-89198571D01*
X68353333Y-89722381D02*
X68353333Y-88722381D01*
X67877142Y-88722381D01*
X95821333Y-90914762D02*
X95678476Y-90962381D01*
X95440380Y-90962381D01*
X95345142Y-90914762D01*
X95297523Y-90867143D01*
X95249904Y-90771905D01*
X95249904Y-90676667D01*
X95297523Y-90581429D01*
X95345142Y-90533810D01*
X95440380Y-90486190D01*
X95630857Y-90438571D01*
X95726095Y-90390952D01*
X95773714Y-90343333D01*
X95821333Y-90248095D01*
X95821333Y-90152857D01*
X95773714Y-90057619D01*
X95726095Y-90010000D01*
X95630857Y-89962381D01*
X95392761Y-89962381D01*
X95249904Y-90010000D01*
X94916571Y-89962381D02*
X94678476Y-90962381D01*
X94487999Y-90248095D01*
X94297523Y-90962381D01*
X94059428Y-89962381D01*
X93773714Y-89962381D02*
X93107047Y-89962381D01*
X93535619Y-90962381D01*
X98559428Y-96414762D02*
X98416571Y-96462381D01*
X98178475Y-96462381D01*
X98083237Y-96414762D01*
X98035618Y-96367143D01*
X97987999Y-96271905D01*
X97987999Y-96176667D01*
X98035618Y-96081429D01*
X98083237Y-96033810D01*
X98178475Y-95986190D01*
X98368952Y-95938571D01*
X98464190Y-95890952D01*
X98511809Y-95843333D01*
X98559428Y-95748095D01*
X98559428Y-95652857D01*
X98511809Y-95557619D01*
X98464190Y-95510000D01*
X98368952Y-95462381D01*
X98130856Y-95462381D01*
X97987999Y-95510000D01*
X97654666Y-95462381D02*
X97416571Y-96462381D01*
X97226094Y-95748095D01*
X97035618Y-96462381D01*
X96797523Y-95462381D01*
X96416571Y-96462381D02*
X96416571Y-95462381D01*
X96083238Y-95462381D02*
X95511809Y-95462381D01*
X95797524Y-96462381D02*
X95797524Y-95462381D01*
X94607047Y-96367143D02*
X94654666Y-96414762D01*
X94797523Y-96462381D01*
X94892761Y-96462381D01*
X95035619Y-96414762D01*
X95130857Y-96319524D01*
X95178476Y-96224286D01*
X95226095Y-96033810D01*
X95226095Y-95890952D01*
X95178476Y-95700476D01*
X95130857Y-95605238D01*
X95035619Y-95510000D01*
X94892761Y-95462381D01*
X94797523Y-95462381D01*
X94654666Y-95510000D01*
X94607047Y-95557619D01*
X94178476Y-96462381D02*
X94178476Y-95462381D01*
X94178476Y-95938571D02*
X93607047Y-95938571D01*
X93607047Y-96462381D02*
X93607047Y-95462381D01*
X93368952Y-96557619D02*
X92607047Y-96557619D01*
X92368952Y-96462381D02*
X92368952Y-95462381D01*
X91892762Y-96462381D02*
X91892762Y-95462381D01*
X91321333Y-96462381D01*
X91321333Y-95462381D01*
X90988000Y-95462381D02*
X90654667Y-96462381D01*
X90321333Y-95462381D01*
X87399714Y-42926571D02*
X87256857Y-42974190D01*
X87209238Y-43021810D01*
X87161619Y-43117048D01*
X87161619Y-43259905D01*
X87209238Y-43355143D01*
X87256857Y-43402762D01*
X87352095Y-43450381D01*
X87733048Y-43450381D01*
X87733048Y-42450381D01*
X87399714Y-42450381D01*
X87304476Y-42498000D01*
X87256857Y-42545619D01*
X87209238Y-42640857D01*
X87209238Y-42736095D01*
X87256857Y-42831333D01*
X87304476Y-42878952D01*
X87399714Y-42926571D01*
X87733048Y-42926571D01*
X86875905Y-42450381D02*
X86304476Y-42450381D01*
X86590191Y-43450381D02*
X86590191Y-42450381D01*
X85447333Y-43450381D02*
X86018762Y-43450381D01*
X85733048Y-43450381D02*
X85733048Y-42450381D01*
X85828286Y-42593238D01*
X85923524Y-42688476D01*
X86018762Y-42736095D01*
X87399714Y-68182571D02*
X87256857Y-68230190D01*
X87209238Y-68277810D01*
X87161619Y-68373048D01*
X87161619Y-68515905D01*
X87209238Y-68611143D01*
X87256857Y-68658762D01*
X87352095Y-68706381D01*
X87733048Y-68706381D01*
X87733048Y-67706381D01*
X87399714Y-67706381D01*
X87304476Y-67754000D01*
X87256857Y-67801619D01*
X87209238Y-67896857D01*
X87209238Y-67992095D01*
X87256857Y-68087333D01*
X87304476Y-68134952D01*
X87399714Y-68182571D01*
X87733048Y-68182571D01*
X86875905Y-67706381D02*
X86304476Y-67706381D01*
X86590191Y-68706381D02*
X86590191Y-67706381D01*
X86018762Y-67801619D02*
X85971143Y-67754000D01*
X85875905Y-67706381D01*
X85637809Y-67706381D01*
X85542571Y-67754000D01*
X85494952Y-67801619D01*
X85447333Y-67896857D01*
X85447333Y-67992095D01*
X85494952Y-68134952D01*
X86066381Y-68706381D01*
X85447333Y-68706381D01*
M02*
