G04 #@! TF.FileFunction,Copper,L1,Top,Signal*
%FSLAX46Y46*%
G04 Gerber Fmt 4.6, Leading zero omitted, Abs format (unit mm)*
G04 Created by KiCad (PCBNEW 4.0.2+dfsg1-stable) date Sun 09 Sep 2018 01:37:12 AM EDT*
%MOMM*%
G01*
G04 APERTURE LIST*
%ADD10C,0.100000*%
%ADD11O,3.000000X1.000000*%
%ADD12O,1.000000X3.000000*%
%ADD13R,1.000000X1.250000*%
%ADD14R,0.700000X1.300000*%
%ADD15R,1.300000X0.700000*%
%ADD16R,1.000000X3.100000*%
%ADD17O,0.900000X1.560000*%
%ADD18O,1.250000X0.850000*%
%ADD19C,1.200000*%
%ADD20R,0.450000X1.000000*%
%ADD21R,0.600000X1.000000*%
%ADD22R,0.350000X1.000000*%
%ADD23R,0.500000X1.000000*%
%ADD24R,1.060000X0.650000*%
%ADD25R,1.300000X1.300000*%
%ADD26C,1.300000*%
%ADD27C,1.524000*%
%ADD28C,4.470400*%
%ADD29R,4.470400X4.470400*%
%ADD30C,0.600000*%
%ADD31C,0.381000*%
%ADD32C,0.254000*%
G04 APERTURE END LIST*
D10*
D11*
X76836000Y-40434000D03*
X76836000Y-42434000D03*
X76836000Y-44434000D03*
X76836000Y-46434000D03*
X76836000Y-48434000D03*
X76836000Y-50434000D03*
X76836000Y-52434000D03*
X76836000Y-54434000D03*
D12*
X79836000Y-55434000D03*
X81836000Y-55434000D03*
X83836000Y-55434000D03*
X85836000Y-55434000D03*
X87836000Y-55434000D03*
X89836000Y-55434000D03*
D11*
X92836000Y-54434000D03*
X92836000Y-52434000D03*
X92836000Y-50434000D03*
X92836000Y-48434000D03*
X92836000Y-46434000D03*
X92836000Y-44434000D03*
X92836000Y-42434000D03*
X92836000Y-40434000D03*
D10*
G36*
X103508462Y-62621266D02*
X104133462Y-61538734D01*
X104999488Y-62038734D01*
X104374488Y-63121266D01*
X103508462Y-62621266D01*
X103508462Y-62621266D01*
G37*
G36*
X105240512Y-63621266D02*
X105865512Y-62538734D01*
X106731538Y-63038734D01*
X106106538Y-64121266D01*
X105240512Y-63621266D01*
X105240512Y-63621266D01*
G37*
G36*
X76597281Y-68558602D02*
X75713398Y-67674719D01*
X76420505Y-66967612D01*
X77304388Y-67851495D01*
X76597281Y-68558602D01*
X76597281Y-68558602D01*
G37*
G36*
X78011495Y-67144388D02*
X77127612Y-66260505D01*
X77834719Y-65553398D01*
X78718602Y-66437281D01*
X78011495Y-67144388D01*
X78011495Y-67144388D01*
G37*
D13*
X70170000Y-55550000D03*
X68170000Y-55550000D03*
D10*
G36*
X69408858Y-48069619D02*
X68489619Y-48988858D01*
X67994644Y-48493883D01*
X68913883Y-47574644D01*
X69408858Y-48069619D01*
X69408858Y-48069619D01*
G37*
G36*
X68065356Y-46726117D02*
X67146117Y-47645356D01*
X66651142Y-47150381D01*
X67570381Y-46231142D01*
X68065356Y-46726117D01*
X68065356Y-46726117D01*
G37*
G36*
X101700776Y-64053296D02*
X102995829Y-64166598D01*
X102934820Y-64863934D01*
X101639767Y-64750632D01*
X101700776Y-64053296D01*
X101700776Y-64053296D01*
G37*
G36*
X101535180Y-65946066D02*
X102830233Y-66059368D01*
X102769224Y-66756704D01*
X101474171Y-66643402D01*
X101535180Y-65946066D01*
X101535180Y-65946066D01*
G37*
D14*
X73472000Y-64008000D03*
X75372000Y-64008000D03*
X71440000Y-67310000D03*
X73340000Y-67310000D03*
X68900000Y-64516000D03*
X70800000Y-64516000D03*
X74488000Y-60706000D03*
X76388000Y-60706000D03*
D15*
X72390000Y-56962000D03*
X72390000Y-58862000D03*
X66802000Y-62926000D03*
X66802000Y-61026000D03*
D10*
G36*
X103740482Y-72591538D02*
X104240482Y-73457564D01*
X101555804Y-75007564D01*
X101055804Y-74141538D01*
X103740482Y-72591538D01*
X103740482Y-72591538D01*
G37*
G36*
X101740482Y-69127436D02*
X102240482Y-69993462D01*
X99555804Y-71543462D01*
X99055804Y-70677436D01*
X101740482Y-69127436D01*
X101740482Y-69127436D01*
G37*
G36*
X94024196Y-73582436D02*
X94524196Y-74448462D01*
X91839518Y-75998462D01*
X91339518Y-75132436D01*
X94024196Y-73582436D01*
X94024196Y-73582436D01*
G37*
G36*
X96024196Y-77046538D02*
X96524196Y-77912564D01*
X93839518Y-79462564D01*
X93339518Y-78596538D01*
X96024196Y-77046538D01*
X96024196Y-77046538D01*
G37*
D16*
X64738000Y-50663000D03*
X60738000Y-50663000D03*
X60738000Y-59573000D03*
X64738000Y-59573000D03*
X108236000Y-59827000D03*
X112236000Y-59827000D03*
X112236000Y-50917000D03*
X108236000Y-50917000D03*
D10*
G36*
X80015482Y-78596538D02*
X79515482Y-79462564D01*
X76830804Y-77912564D01*
X77330804Y-77046538D01*
X80015482Y-78596538D01*
X80015482Y-78596538D01*
G37*
G36*
X82015482Y-75132436D02*
X81515482Y-75998462D01*
X78830804Y-74448462D01*
X79330804Y-73582436D01*
X82015482Y-75132436D01*
X82015482Y-75132436D01*
G37*
G36*
X74299196Y-70677436D02*
X73799196Y-71543462D01*
X71114518Y-69993462D01*
X71614518Y-69127436D01*
X74299196Y-70677436D01*
X74299196Y-70677436D01*
G37*
G36*
X72299196Y-74141538D02*
X71799196Y-75007564D01*
X69114518Y-73457564D01*
X69614518Y-72591538D01*
X72299196Y-74141538D01*
X72299196Y-74141538D01*
G37*
D17*
X73208000Y-95410000D03*
X80208000Y-95410000D03*
D18*
X74208000Y-92710000D03*
X79208000Y-92710000D03*
D19*
X97888000Y-95510000D03*
X91088000Y-95510000D03*
D20*
X85085000Y-30472000D03*
D21*
X86060000Y-30472000D03*
D22*
X86935000Y-30472000D03*
D23*
X87760000Y-30472000D03*
D10*
G36*
X106587974Y-41618962D02*
X107454000Y-41118962D01*
X107679000Y-41508674D01*
X106812974Y-42008674D01*
X106587974Y-41618962D01*
X106587974Y-41618962D01*
G37*
G36*
X107037974Y-42398384D02*
X107904000Y-41898384D01*
X108204000Y-42418000D01*
X107337974Y-42918000D01*
X107037974Y-42398384D01*
X107037974Y-42398384D01*
G37*
G36*
X107537974Y-43264411D02*
X108404000Y-42764411D01*
X108579000Y-43067519D01*
X107712974Y-43567519D01*
X107537974Y-43264411D01*
X107537974Y-43264411D01*
G37*
G36*
X107912974Y-43913930D02*
X108779000Y-43413930D01*
X109029000Y-43846942D01*
X108162974Y-44346942D01*
X107912974Y-43913930D01*
X107912974Y-43913930D01*
G37*
G36*
X107833974Y-66018962D02*
X108700000Y-66518962D01*
X108475000Y-66908674D01*
X107608974Y-66408674D01*
X107833974Y-66018962D01*
X107833974Y-66018962D01*
G37*
G36*
X107383974Y-66798384D02*
X108250000Y-67298384D01*
X107950000Y-67818000D01*
X107083974Y-67318000D01*
X107383974Y-66798384D01*
X107383974Y-66798384D01*
G37*
G36*
X106883974Y-67664411D02*
X107750000Y-68164411D01*
X107575000Y-68467519D01*
X106708974Y-67967519D01*
X106883974Y-67664411D01*
X106883974Y-67664411D01*
G37*
G36*
X106508974Y-68313930D02*
X107375000Y-68813930D01*
X107125000Y-69246942D01*
X106258974Y-68746942D01*
X106508974Y-68313930D01*
X106508974Y-68313930D01*
G37*
D20*
X87889000Y-79510000D03*
D21*
X86914000Y-79510000D03*
D22*
X86039000Y-79510000D03*
D23*
X85214000Y-79510000D03*
D10*
G36*
X67148026Y-69379038D02*
X66282000Y-69879038D01*
X66057000Y-69489326D01*
X66923026Y-68989326D01*
X67148026Y-69379038D01*
X67148026Y-69379038D01*
G37*
G36*
X66698026Y-68599616D02*
X65832000Y-69099616D01*
X65532000Y-68580000D01*
X66398026Y-68080000D01*
X66698026Y-68599616D01*
X66698026Y-68599616D01*
G37*
G36*
X66198026Y-67733589D02*
X65332000Y-68233589D01*
X65157000Y-67930481D01*
X66023026Y-67430481D01*
X66198026Y-67733589D01*
X66198026Y-67733589D01*
G37*
G36*
X65823026Y-67084070D02*
X64957000Y-67584070D01*
X64707000Y-67151058D01*
X65573026Y-66651058D01*
X65823026Y-67084070D01*
X65823026Y-67084070D01*
G37*
G36*
X64886026Y-44471038D02*
X64020000Y-43971038D01*
X64245000Y-43581326D01*
X65111026Y-44081326D01*
X64886026Y-44471038D01*
X64886026Y-44471038D01*
G37*
G36*
X65336026Y-43691616D02*
X64470000Y-43191616D01*
X64770000Y-42672000D01*
X65636026Y-43172000D01*
X65336026Y-43691616D01*
X65336026Y-43691616D01*
G37*
G36*
X65836026Y-42825589D02*
X64970000Y-42325589D01*
X65145000Y-42022481D01*
X66011026Y-42522481D01*
X65836026Y-42825589D01*
X65836026Y-42825589D01*
G37*
G36*
X66211026Y-42176070D02*
X65345000Y-41676070D01*
X65595000Y-41243058D01*
X66461026Y-41743058D01*
X66211026Y-42176070D01*
X66211026Y-42176070D01*
G37*
D24*
X68750000Y-60518000D03*
X68750000Y-61468000D03*
X68750000Y-62418000D03*
X70950000Y-62418000D03*
X70950000Y-60518000D03*
D10*
G36*
X90493290Y-65670397D02*
X91930131Y-64233556D01*
X94516444Y-66819869D01*
X93079603Y-68256710D01*
X90493290Y-65670397D01*
X90493290Y-65670397D01*
G37*
G36*
X86757502Y-71274077D02*
X88194343Y-69837236D01*
X88912764Y-70555657D01*
X87475923Y-71992498D01*
X86757502Y-71274077D01*
X86757502Y-71274077D01*
G37*
G36*
X88373949Y-72890523D02*
X89810790Y-71453682D01*
X90529211Y-72172103D01*
X89092370Y-73608944D01*
X88373949Y-72890523D01*
X88373949Y-72890523D01*
G37*
G36*
X85141056Y-69657630D02*
X86577897Y-68220789D01*
X87296318Y-68939210D01*
X85859477Y-70376051D01*
X85141056Y-69657630D01*
X85141056Y-69657630D01*
G37*
D25*
X80010000Y-62992000D03*
D26*
X83810000Y-62992000D03*
D10*
G36*
X104626602Y-37448719D02*
X103742719Y-38332602D01*
X103035612Y-37625495D01*
X103919495Y-36741612D01*
X104626602Y-37448719D01*
X104626602Y-37448719D01*
G37*
G36*
X103212388Y-36034505D02*
X102328505Y-36918388D01*
X101621398Y-36211281D01*
X102505281Y-35327398D01*
X103212388Y-36034505D01*
X103212388Y-36034505D01*
G37*
D27*
X114464000Y-47498000D03*
X58764000Y-47498000D03*
X58764000Y-63754000D03*
X114464000Y-63754000D03*
D28*
X72898000Y-31242000D03*
X72898000Y-78740000D03*
X100330000Y-78740000D03*
X100330000Y-31242000D03*
D13*
X74025000Y-52070000D03*
X72025000Y-52070000D03*
D28*
X103505000Y-84455000D03*
X52705000Y-55245000D03*
X120650000Y-55245000D03*
X69850000Y-84455000D03*
X69215000Y-25400000D03*
X103505000Y-25400000D03*
D29*
X85050000Y-44760000D03*
D13*
X87500000Y-76020000D03*
X85500000Y-76020000D03*
D14*
X77140000Y-58480000D03*
X79040000Y-58480000D03*
D30*
X87980000Y-80940000D03*
X110260000Y-71100000D03*
X88090000Y-82330000D03*
X78810000Y-29540000D03*
X69920000Y-50490000D03*
X74460000Y-50890000D03*
X71030000Y-45770000D03*
X74840000Y-45170000D03*
X104220000Y-56380000D03*
X104500000Y-49960000D03*
X106850000Y-66790000D03*
X105280000Y-65080000D03*
X89510000Y-28730000D03*
X85710000Y-29020000D03*
X103130000Y-41160000D03*
X104380000Y-38790000D03*
X92330000Y-30290000D03*
X72840000Y-62000000D03*
X74570000Y-56440000D03*
X88850000Y-78150000D03*
X78870000Y-76810000D03*
X83710000Y-78090000D03*
X79270000Y-68980000D03*
X92150000Y-73030000D03*
X65880000Y-60260000D03*
X61760000Y-59730000D03*
X68780000Y-53630000D03*
X70940000Y-52550000D03*
X79630000Y-43530000D03*
X88640000Y-47330000D03*
X88470000Y-49620000D03*
X70140000Y-70450000D03*
X67850000Y-61710000D03*
X66070000Y-66410000D03*
X87050000Y-67990000D03*
X107430000Y-64090000D03*
X112930000Y-53530000D03*
X106450000Y-39170000D03*
X107500000Y-44610000D03*
X67350000Y-40570000D03*
X101600000Y-34925000D03*
X77470000Y-63530000D03*
X97720000Y-38790000D03*
X95250000Y-41910000D03*
X94330000Y-28830000D03*
X97290000Y-31800000D03*
X89230000Y-80450000D03*
X91660000Y-80410000D03*
X98630000Y-57400000D03*
X97410000Y-54170000D03*
X68840000Y-46250000D03*
X80910000Y-48000000D03*
X97060000Y-48310000D03*
X68610000Y-63010000D03*
X72110000Y-60010000D03*
X97260000Y-41910000D03*
X101820000Y-49340000D03*
X108550000Y-62870000D03*
X111230000Y-62950000D03*
X78960000Y-90550000D03*
X86700000Y-73340000D03*
X99590000Y-93100000D03*
X78560000Y-53110000D03*
X81980000Y-58250000D03*
X79240000Y-52160000D03*
D31*
X96125000Y-63240000D02*
X96125000Y-62605000D01*
X96125000Y-62605000D02*
X96760000Y-61970000D01*
X96760000Y-61970000D02*
X97395000Y-61970000D01*
X97395000Y-61970000D02*
X97395000Y-61335000D01*
X97395000Y-61335000D02*
X98030000Y-61970000D01*
X98030000Y-61970000D02*
X97395000Y-61970000D01*
X97395000Y-61970000D02*
X97395000Y-62605000D01*
X97395000Y-62605000D02*
X96760000Y-63240000D01*
X96760000Y-63240000D02*
X96125000Y-63240000D01*
X77140000Y-58480000D02*
X76836000Y-54434000D01*
X110260000Y-71100000D02*
X110300000Y-68840000D01*
X110300000Y-68840000D02*
X107666987Y-67308192D01*
X88090000Y-82330000D02*
X86154094Y-81248068D01*
X78810000Y-29540000D02*
X77710000Y-29585000D01*
X70940000Y-37300000D02*
X75805000Y-32125000D01*
X75805000Y-32125000D02*
X76440000Y-30220000D01*
X76440000Y-30220000D02*
X76948000Y-29966000D01*
X76948000Y-29966000D02*
X77710000Y-29585000D01*
X86914000Y-79510000D02*
X86810000Y-80750000D01*
X86810000Y-80750000D02*
X86154094Y-81248068D01*
X86154094Y-81248068D02*
X84940000Y-82170000D01*
X84940000Y-82170000D02*
X75330000Y-82170000D01*
X75330000Y-82170000D02*
X70630000Y-81080000D01*
X70630000Y-81080000D02*
X65350000Y-69480000D01*
X65350000Y-69480000D02*
X65390000Y-69000000D01*
X65390000Y-69000000D02*
X66115013Y-68589808D01*
X65810000Y-64880000D02*
X63870000Y-61660000D01*
X63870000Y-61660000D02*
X63650000Y-60620000D01*
X63650000Y-60620000D02*
X63720000Y-57740000D01*
X63720000Y-57740000D02*
X68701751Y-48281751D01*
X66115013Y-68589808D02*
X67280000Y-67640000D01*
X67280000Y-67640000D02*
X67160000Y-66090000D01*
X67160000Y-66090000D02*
X65810000Y-64880000D01*
X74025000Y-52070000D02*
X74870000Y-54060000D01*
X74870000Y-54060000D02*
X76836000Y-54434000D01*
X68701751Y-48281751D02*
X69920000Y-50490000D01*
X74460000Y-50890000D02*
X74025000Y-52070000D01*
X70583365Y-46027947D02*
X71030000Y-45770000D01*
X74840000Y-45170000D02*
X76836000Y-44434000D01*
X104253975Y-62330000D02*
X104220000Y-56380000D01*
X104500000Y-49960000D02*
X103130000Y-41160000D01*
X102317798Y-64458615D02*
X104253975Y-62330000D01*
X107666987Y-67308192D02*
X106850000Y-66790000D01*
X105280000Y-65080000D02*
X102317798Y-64458615D01*
X96850000Y-39702143D02*
X94710000Y-32610000D01*
X94710000Y-32610000D02*
X92880000Y-29380000D01*
X92880000Y-29380000D02*
X89510000Y-28730000D01*
X86060000Y-30472000D02*
X85710000Y-29020000D01*
X96970000Y-39730000D02*
X96850000Y-39702143D01*
X96850000Y-39702143D02*
X103130000Y-41160000D01*
X107620987Y-42408192D02*
X105960000Y-42470000D01*
X105960000Y-42470000D02*
X103130000Y-41160000D01*
X104380000Y-38790000D02*
X103831107Y-37537107D01*
X70940000Y-37300000D02*
X69430192Y-45434478D01*
X70583365Y-46027947D02*
X69430192Y-45434478D01*
X69430192Y-45434478D02*
X65053013Y-43181808D01*
X68701751Y-48281751D02*
X70583365Y-46027947D01*
X70583365Y-46027947D02*
X70590000Y-46020000D01*
X87760000Y-30472000D02*
X90700000Y-30010000D01*
X90700000Y-30010000D02*
X92330000Y-30290000D01*
X72840000Y-62000000D02*
X74400000Y-62420000D01*
X74570000Y-56440000D02*
X74570000Y-56410000D01*
X83710000Y-78090000D02*
X88850000Y-78150000D01*
X79270000Y-68980000D02*
X77670000Y-76020000D01*
X77670000Y-76020000D02*
X78870000Y-76810000D01*
X85322144Y-78190341D02*
X83710000Y-78090000D01*
X83810000Y-62992000D02*
X79270000Y-68980000D01*
X85214000Y-79510000D02*
X85322144Y-78190341D01*
X85322144Y-78190341D02*
X85500000Y-76020000D01*
X92931857Y-74790449D02*
X92150000Y-73030000D01*
X85500000Y-76020000D02*
X86218687Y-69298420D01*
X66802000Y-61026000D02*
X65880000Y-60260000D01*
X61760000Y-59730000D02*
X60738000Y-59573000D01*
X68170000Y-55550000D02*
X68780000Y-53630000D01*
X70940000Y-52550000D02*
X72025000Y-52070000D01*
X68170000Y-55550000D02*
X66802000Y-61026000D01*
X85050000Y-44760000D02*
X79630000Y-43530000D01*
X85050000Y-44760000D02*
X88640000Y-47330000D01*
X88470000Y-49620000D02*
X91070000Y-52140000D01*
X91070000Y-52140000D02*
X92836000Y-52434000D01*
X52705000Y-55245000D02*
X60738000Y-59573000D01*
X72706857Y-70335449D02*
X70140000Y-70450000D01*
X67821530Y-61257331D02*
X67850000Y-61710000D01*
X66070000Y-66410000D02*
X65265013Y-67117564D01*
X68750000Y-61468000D02*
X67821530Y-61257331D01*
X67821530Y-61257331D02*
X66802000Y-61026000D01*
X86218687Y-69298420D02*
X87050000Y-67990000D01*
X92836000Y-52434000D02*
X92836000Y-54434000D01*
X106816987Y-68780436D02*
X106000000Y-67730000D01*
X106000000Y-67730000D02*
X105950000Y-65830000D01*
X105950000Y-65830000D02*
X107430000Y-64090000D01*
X107430000Y-64090000D02*
X105986025Y-63330000D01*
X112236000Y-50917000D02*
X112930000Y-53530000D01*
X102416893Y-36122893D02*
X104160000Y-35870000D01*
X104160000Y-35870000D02*
X105390000Y-36770000D01*
X105390000Y-36770000D02*
X106450000Y-39170000D01*
X107500000Y-44610000D02*
X108470987Y-43880436D01*
X65903013Y-41709564D02*
X67350000Y-40570000D01*
X100330000Y-31242000D02*
X101600000Y-34925000D01*
X101600000Y-34925000D02*
X102416893Y-36122893D01*
X73340000Y-67310000D02*
X75372000Y-64008000D01*
X75372000Y-64008000D02*
X76508893Y-67763107D01*
X77470000Y-63530000D02*
X77923107Y-66348893D01*
X77470000Y-63530000D02*
X76388000Y-60706000D01*
X76836000Y-48434000D02*
X73940000Y-49350000D01*
X73940000Y-49350000D02*
X73000000Y-51070000D01*
X73000000Y-51070000D02*
X73000000Y-53330000D01*
X73000000Y-53330000D02*
X72390000Y-56962000D01*
X70170000Y-55550000D02*
X71602731Y-56461269D01*
X71602731Y-56461269D02*
X72390000Y-56962000D01*
X70950000Y-60518000D02*
X71590000Y-61010000D01*
X71590000Y-61010000D02*
X74488000Y-60706000D01*
X70950000Y-60518000D02*
X70830000Y-58570000D01*
X70830000Y-58570000D02*
X72390000Y-56962000D01*
X96560000Y-32930000D02*
X94700000Y-26880000D01*
X94700000Y-26880000D02*
X91560000Y-26190000D01*
X91560000Y-26190000D02*
X85460000Y-27220000D01*
X85460000Y-27220000D02*
X84830000Y-28760000D01*
X84830000Y-28760000D02*
X85085000Y-30472000D01*
X97720000Y-38790000D02*
X97599922Y-38160155D01*
X97599922Y-38160155D02*
X97599922Y-38160154D01*
X97599922Y-38160154D02*
X97510000Y-38070000D01*
X97510000Y-38070000D02*
X96560000Y-32930000D01*
X92836000Y-42434000D02*
X95250000Y-41910000D01*
X86935000Y-30472000D02*
X86950000Y-28390000D01*
X86950000Y-28390000D02*
X89040000Y-27350000D01*
X89040000Y-27350000D02*
X92310000Y-27380000D01*
X92310000Y-27380000D02*
X94330000Y-28830000D01*
X97290000Y-31800000D02*
X97860000Y-32940000D01*
X97860000Y-32940000D02*
X100720000Y-36170000D01*
X100720000Y-36170000D02*
X104570000Y-40700000D01*
X104570000Y-40700000D02*
X107133487Y-41563818D01*
X108058487Y-43165965D02*
X106780000Y-43720000D01*
X106780000Y-43720000D02*
X106480000Y-44820000D01*
X106480000Y-44820000D02*
X107210000Y-45830000D01*
X107210000Y-45830000D02*
X108460000Y-47780000D01*
X108460000Y-47780000D02*
X110450000Y-50790000D01*
X110450000Y-50790000D02*
X109970000Y-61940000D01*
X109970000Y-61940000D02*
X108154487Y-66463818D01*
X87889000Y-79510000D02*
X89230000Y-80450000D01*
X91660000Y-80410000D02*
X95770000Y-79780000D01*
X95770000Y-79780000D02*
X97540000Y-77560000D01*
X97540000Y-77560000D02*
X99000000Y-76280000D01*
X99000000Y-76280000D02*
X100500000Y-75790000D01*
X100500000Y-75790000D02*
X102860000Y-75120000D01*
X102860000Y-75120000D02*
X105790000Y-72910000D01*
X105790000Y-72910000D02*
X108030000Y-69070000D01*
X108030000Y-69070000D02*
X107960000Y-68570000D01*
X107960000Y-68570000D02*
X107229487Y-68065965D01*
X74660000Y-76420000D02*
X72560000Y-73200000D01*
X72560000Y-73200000D02*
X68590000Y-70830000D01*
X68590000Y-70830000D02*
X66602513Y-69434182D01*
X86039000Y-79510000D02*
X86010000Y-80470000D01*
X86010000Y-80470000D02*
X84580000Y-80880000D01*
X84580000Y-80880000D02*
X77650000Y-80130000D01*
X77650000Y-80130000D02*
X74660000Y-76420000D01*
X74660000Y-76420000D02*
X74630000Y-76390000D01*
X62810000Y-67400000D02*
X62740000Y-58660000D01*
X62740000Y-58660000D02*
X63280000Y-52330000D01*
X63280000Y-52330000D02*
X63860000Y-45570000D01*
X63860000Y-45570000D02*
X64565513Y-44026182D01*
X65677513Y-67832035D02*
X64500000Y-68400000D01*
X64500000Y-68400000D02*
X62810000Y-67400000D01*
X76836000Y-46434000D02*
X78810000Y-45460000D01*
X78810000Y-45460000D02*
X78820000Y-43020000D01*
X78820000Y-43020000D02*
X78750000Y-41090000D01*
X78750000Y-41090000D02*
X76836000Y-40434000D01*
X76836000Y-42434000D02*
X74350000Y-43140000D01*
X74350000Y-43140000D02*
X70120000Y-52430000D01*
X70120000Y-52430000D02*
X69270000Y-54480000D01*
X69270000Y-54480000D02*
X69200000Y-55350000D01*
X69200000Y-55350000D02*
X68750000Y-60518000D01*
X68900000Y-64516000D02*
X69860000Y-62780000D01*
X69860000Y-62780000D02*
X69860000Y-61530000D01*
X69860000Y-61530000D02*
X69710000Y-60600000D01*
X69710000Y-60600000D02*
X68750000Y-60518000D01*
X102152202Y-66351385D02*
X100380000Y-64170000D01*
X100380000Y-64170000D02*
X98630000Y-57400000D01*
X97410000Y-54170000D02*
X95120000Y-51040000D01*
X95120000Y-51040000D02*
X92836000Y-50434000D01*
X102152202Y-66351385D02*
X103290000Y-68780000D01*
X103290000Y-68780000D02*
X102648143Y-73799551D01*
X67358249Y-46938249D02*
X68840000Y-46250000D01*
X80910000Y-48000000D02*
X92836000Y-48434000D01*
X97060000Y-48310000D02*
X92836000Y-48434000D01*
X67358249Y-46938249D02*
X64738000Y-50663000D01*
X92836000Y-46434000D02*
X96700000Y-46600000D01*
X96700000Y-46600000D02*
X98980000Y-47780000D01*
X98980000Y-47780000D02*
X99480000Y-51660000D01*
X99480000Y-51660000D02*
X96090000Y-59890000D01*
X96090000Y-59890000D02*
X89650000Y-63400000D01*
X89650000Y-63400000D02*
X83440000Y-69680000D01*
X83440000Y-69680000D02*
X83170000Y-74940000D01*
X83170000Y-74940000D02*
X80730000Y-78450000D01*
X80730000Y-78450000D02*
X78423143Y-78254551D01*
X92836000Y-44434000D02*
X96340000Y-45390000D01*
X96340000Y-45390000D02*
X102340000Y-48770000D01*
X102340000Y-48770000D02*
X108236000Y-59827000D01*
X70800000Y-64516000D02*
X73472000Y-64008000D01*
X70800000Y-64516000D02*
X70950000Y-62418000D01*
X71440000Y-67310000D02*
X68270000Y-66000000D01*
X68270000Y-66000000D02*
X66802000Y-62926000D01*
X68750000Y-62418000D02*
X68610000Y-63010000D01*
X72110000Y-60010000D02*
X72390000Y-58862000D01*
X66802000Y-62926000D02*
X68750000Y-62418000D01*
X92836000Y-40434000D02*
X95630000Y-40990000D01*
X95630000Y-40990000D02*
X97260000Y-41910000D01*
X87500000Y-76020000D02*
X89884165Y-75610000D01*
X89884165Y-75610000D02*
X89884165Y-75609998D01*
X89451580Y-72531313D02*
X89884165Y-75609998D01*
X89884165Y-75609998D02*
X90390000Y-79210000D01*
X90390000Y-79210000D02*
X92348676Y-90380575D01*
X101820000Y-49340000D02*
X105390000Y-55990000D01*
X105390000Y-55990000D02*
X106280000Y-59790000D01*
X106280000Y-59790000D02*
X107710000Y-62730000D01*
X107710000Y-62730000D02*
X108550000Y-62870000D01*
X111230000Y-62950000D02*
X114390000Y-62140000D01*
X114390000Y-62140000D02*
X115620000Y-62560000D01*
X115620000Y-62560000D02*
X115760000Y-64040000D01*
X115760000Y-64040000D02*
X114860000Y-65700000D01*
X114860000Y-65700000D02*
X110000000Y-76500000D01*
X110000000Y-76500000D02*
X106170000Y-86540000D01*
X106170000Y-86540000D02*
X102560000Y-89830000D01*
X102560000Y-89830000D02*
X92348676Y-90380575D01*
X92348676Y-90380575D02*
X88650000Y-90580000D01*
X88650000Y-90580000D02*
X78960000Y-90550000D01*
X86700000Y-73340000D02*
X87835133Y-70914867D01*
X87835133Y-70914867D02*
X92504867Y-66245133D01*
X114464000Y-47498000D02*
X116670000Y-51970000D01*
X116670000Y-51970000D02*
X116510000Y-55940000D01*
X116510000Y-55940000D02*
X116450000Y-64090000D01*
X116450000Y-64090000D02*
X110970000Y-76840000D01*
X110970000Y-76840000D02*
X106580000Y-87340000D01*
X106580000Y-87340000D02*
X99590000Y-93100000D01*
X76836000Y-52434000D02*
X78560000Y-53110000D01*
X79040000Y-58480000D02*
X81980000Y-58250000D01*
X76836000Y-50434000D02*
X78990000Y-51740000D01*
X78990000Y-51740000D02*
X79240000Y-52160000D01*
D32*
G36*
X106054208Y-21415157D02*
X125500126Y-55096474D01*
X108207489Y-85048200D01*
X111538519Y-77081044D01*
X117017318Y-64333836D01*
X117017702Y-64332030D01*
X117018741Y-64330500D01*
X117042760Y-64214225D01*
X117067446Y-64098172D01*
X117067109Y-64096355D01*
X117067483Y-64094546D01*
X117117579Y-57289787D01*
X118784818Y-57289787D01*
X119034253Y-57684951D01*
X120090973Y-58117541D01*
X121232800Y-58112812D01*
X122265747Y-57684951D01*
X122515182Y-57289787D01*
X120650000Y-55424605D01*
X118784818Y-57289787D01*
X117117579Y-57289787D01*
X117127408Y-55954714D01*
X117178541Y-54685973D01*
X117777459Y-54685973D01*
X117782188Y-55827800D01*
X118210049Y-56860747D01*
X118605213Y-57110182D01*
X120470395Y-55245000D01*
X120829605Y-55245000D01*
X122694787Y-57110182D01*
X123089951Y-56860747D01*
X123522541Y-55804027D01*
X123517812Y-54662200D01*
X123089951Y-53629253D01*
X122694787Y-53379818D01*
X120829605Y-55245000D01*
X120470395Y-55245000D01*
X118605213Y-53379818D01*
X118210049Y-53629253D01*
X117777459Y-54685973D01*
X117178541Y-54685973D01*
X117238420Y-53200213D01*
X118784818Y-53200213D01*
X120650000Y-55065395D01*
X122515182Y-53200213D01*
X122265747Y-52805049D01*
X121209027Y-52372459D01*
X120067200Y-52377188D01*
X119034253Y-52805049D01*
X118784818Y-53200213D01*
X117238420Y-53200213D01*
X117286999Y-51994866D01*
X117281869Y-51962266D01*
X117286174Y-51929541D01*
X117263287Y-51844165D01*
X117249549Y-51756858D01*
X117232333Y-51728700D01*
X117223787Y-51696822D01*
X115477713Y-48157183D01*
X115652793Y-47735544D01*
X115653206Y-47262531D01*
X115472573Y-46825365D01*
X115138394Y-46490603D01*
X114701544Y-46309207D01*
X114228531Y-46308794D01*
X113791365Y-46489427D01*
X113456603Y-46823606D01*
X113275207Y-47260456D01*
X113274794Y-47733469D01*
X113455427Y-48170635D01*
X113789606Y-48505397D01*
X114226456Y-48686793D01*
X114361936Y-48686911D01*
X116046671Y-52102203D01*
X115893001Y-55915134D01*
X115894607Y-55925338D01*
X115892517Y-55935454D01*
X115847928Y-61992086D01*
X115819542Y-61975629D01*
X114589541Y-61555629D01*
X114532010Y-61547949D01*
X114477252Y-61528695D01*
X114413755Y-61532164D01*
X114350723Y-61523750D01*
X114294632Y-61538672D01*
X114236674Y-61541838D01*
X111452942Y-62255389D01*
X111375244Y-62223126D01*
X111086025Y-62222874D01*
X110818725Y-62333320D01*
X110614039Y-62537650D01*
X110503126Y-62804756D01*
X110502874Y-63093975D01*
X110613320Y-63361275D01*
X110817650Y-63565961D01*
X111084756Y-63676874D01*
X111373975Y-63677126D01*
X111641275Y-63566680D01*
X111755353Y-63452801D01*
X113222372Y-63076761D01*
X113054856Y-63546302D01*
X113082638Y-64101368D01*
X113241603Y-64485143D01*
X113483787Y-64554608D01*
X114284395Y-63754000D01*
X114270253Y-63739858D01*
X114449858Y-63560253D01*
X114464000Y-63574395D01*
X114478143Y-63560253D01*
X114657748Y-63739858D01*
X114643605Y-63754000D01*
X114657748Y-63768143D01*
X114478143Y-63947748D01*
X114464000Y-63933605D01*
X113663392Y-64734213D01*
X113732857Y-64976397D01*
X114256302Y-65163144D01*
X114454014Y-65153248D01*
X114317151Y-65405684D01*
X114310307Y-65427772D01*
X114296889Y-65446599D01*
X109436888Y-76246600D01*
X109432781Y-76264423D01*
X109423054Y-76279910D01*
X106374466Y-84271509D01*
X106372812Y-83872200D01*
X105944951Y-82839253D01*
X105549787Y-82589818D01*
X103684605Y-84455000D01*
X103698748Y-84469143D01*
X103519143Y-84648748D01*
X103505000Y-84634605D01*
X101639818Y-86499787D01*
X101889253Y-86894951D01*
X102945973Y-87327541D01*
X104087800Y-87322812D01*
X104649705Y-87090063D01*
X102306837Y-89225254D01*
X92862310Y-89734484D01*
X91838571Y-83895973D01*
X100632459Y-83895973D01*
X100637188Y-85037800D01*
X101065049Y-86070747D01*
X101460213Y-86320182D01*
X103325395Y-84455000D01*
X101460213Y-82589818D01*
X101065049Y-82839253D01*
X100632459Y-83895973D01*
X91838571Y-83895973D01*
X91578054Y-82410213D01*
X101639818Y-82410213D01*
X103505000Y-84275395D01*
X105370182Y-82410213D01*
X105120747Y-82015049D01*
X104064027Y-81582459D01*
X102922200Y-81587188D01*
X101889253Y-82015049D01*
X101639818Y-82410213D01*
X91578054Y-82410213D01*
X91342221Y-81065231D01*
X91514756Y-81136874D01*
X91803975Y-81137126D01*
X92071275Y-81026680D01*
X92136377Y-80961691D01*
X93290465Y-80784787D01*
X98464818Y-80784787D01*
X98714253Y-81179951D01*
X99770973Y-81612541D01*
X100912800Y-81607812D01*
X101945747Y-81179951D01*
X102195182Y-80784787D01*
X100330000Y-78919605D01*
X98464818Y-80784787D01*
X93290465Y-80784787D01*
X95863560Y-80390371D01*
X95965465Y-80353352D01*
X96068755Y-80320419D01*
X96078289Y-80312366D01*
X96090017Y-80308106D01*
X96169989Y-80234915D01*
X96252822Y-80164953D01*
X97459408Y-78651608D01*
X97462188Y-79322800D01*
X97890049Y-80355747D01*
X98285213Y-80605182D01*
X100150395Y-78740000D01*
X100509605Y-78740000D01*
X102374787Y-80605182D01*
X102769951Y-80355747D01*
X103202541Y-79299027D01*
X103197812Y-78157200D01*
X102769951Y-77124253D01*
X102374787Y-76874818D01*
X100509605Y-78740000D01*
X100150395Y-78740000D01*
X100136253Y-78725858D01*
X100315858Y-78546253D01*
X100330000Y-78560395D01*
X102195182Y-76695213D01*
X101945747Y-76300049D01*
X101543895Y-76135543D01*
X103028643Y-75714025D01*
X103129650Y-75662339D01*
X103231845Y-75612989D01*
X106161845Y-73402988D01*
X106162640Y-73402097D01*
X106163714Y-73401573D01*
X106242720Y-73312293D01*
X106322199Y-73223163D01*
X106322593Y-73222033D01*
X106323383Y-73221140D01*
X108563383Y-69381140D01*
X108590944Y-69301127D01*
X108627749Y-69224926D01*
X108629856Y-69188161D01*
X108641851Y-69153339D01*
X108636694Y-69068869D01*
X108641536Y-68984385D01*
X108581358Y-68554541D01*
X109676183Y-69191477D01*
X109649804Y-70681895D01*
X109644039Y-70687650D01*
X109533126Y-70954756D01*
X109532874Y-71243975D01*
X109643320Y-71511275D01*
X109847650Y-71715961D01*
X110114756Y-71826874D01*
X110403975Y-71827126D01*
X110671275Y-71716680D01*
X110875961Y-71512350D01*
X110986874Y-71245244D01*
X110987126Y-70956025D01*
X110884539Y-70707745D01*
X110917403Y-68850927D01*
X110902272Y-68767136D01*
X110896984Y-68682154D01*
X110881039Y-68649548D01*
X110874588Y-68613826D01*
X110828544Y-68542204D01*
X110791137Y-68465712D01*
X110763924Y-68441688D01*
X110744297Y-68411157D01*
X110674349Y-68362607D01*
X110610518Y-68306254D01*
X108760524Y-67229983D01*
X108852037Y-67126356D01*
X109077037Y-66736644D01*
X109130370Y-66584720D01*
X109122047Y-66412101D01*
X109047221Y-66256321D01*
X108940836Y-66162372D01*
X110543072Y-62169988D01*
X110562249Y-62067685D01*
X110586929Y-61966558D01*
X110745761Y-58277000D01*
X111300635Y-58277000D01*
X111300635Y-61377000D01*
X111330409Y-61535237D01*
X111423927Y-61680567D01*
X111566619Y-61778064D01*
X111736000Y-61812365D01*
X112736000Y-61812365D01*
X112894237Y-61782591D01*
X113039567Y-61689073D01*
X113137064Y-61546381D01*
X113171365Y-61377000D01*
X113171365Y-58277000D01*
X113141591Y-58118763D01*
X113048073Y-57973433D01*
X112905381Y-57875936D01*
X112736000Y-57841635D01*
X111736000Y-57841635D01*
X111577763Y-57871409D01*
X111432433Y-57964927D01*
X111334936Y-58107619D01*
X111300635Y-58277000D01*
X110745761Y-58277000D01*
X111050303Y-51202750D01*
X111101000Y-51202750D01*
X111101000Y-52593309D01*
X111197673Y-52826698D01*
X111376301Y-53005327D01*
X111609690Y-53102000D01*
X111950250Y-53102000D01*
X112109000Y-52943250D01*
X112109000Y-51044000D01*
X112363000Y-51044000D01*
X112363000Y-52943250D01*
X112521750Y-53102000D01*
X112862310Y-53102000D01*
X113095699Y-53005327D01*
X113274327Y-52826698D01*
X113371000Y-52593309D01*
X113371000Y-51202750D01*
X113212250Y-51044000D01*
X112363000Y-51044000D01*
X112109000Y-51044000D01*
X111259750Y-51044000D01*
X111101000Y-51202750D01*
X111050303Y-51202750D01*
X111066929Y-50816558D01*
X111055862Y-50744947D01*
X111056217Y-50672494D01*
X111037637Y-50627010D01*
X111030132Y-50578448D01*
X110992503Y-50516523D01*
X110965103Y-50449449D01*
X110165958Y-49240691D01*
X111101000Y-49240691D01*
X111101000Y-50631250D01*
X111259750Y-50790000D01*
X112109000Y-50790000D01*
X112109000Y-48890750D01*
X112363000Y-48890750D01*
X112363000Y-50790000D01*
X113212250Y-50790000D01*
X113371000Y-50631250D01*
X113371000Y-49240691D01*
X113274327Y-49007302D01*
X113095699Y-48828673D01*
X112862310Y-48732000D01*
X112521750Y-48732000D01*
X112363000Y-48890750D01*
X112109000Y-48890750D01*
X111950250Y-48732000D01*
X111609690Y-48732000D01*
X111376301Y-48828673D01*
X111197673Y-49007302D01*
X111101000Y-49240691D01*
X110165958Y-49240691D01*
X108977494Y-47443065D01*
X107729860Y-45496756D01*
X107717741Y-45484167D01*
X107710464Y-45468279D01*
X107153436Y-44697597D01*
X107154506Y-44693671D01*
X107629923Y-44693671D01*
X107676203Y-44773829D01*
X107876618Y-44927613D01*
X108120629Y-44992997D01*
X108371087Y-44960023D01*
X108589861Y-44833714D01*
X108666020Y-44789743D01*
X108724127Y-44572887D01*
X108423502Y-44052189D01*
X107688030Y-44476814D01*
X107629923Y-44693671D01*
X107154506Y-44693671D01*
X107297696Y-44168644D01*
X107320975Y-44158556D01*
X107346173Y-44202201D01*
X107563030Y-44260308D01*
X108143473Y-43925189D01*
X108643472Y-43925189D01*
X108944097Y-44445887D01*
X109160954Y-44503993D01*
X109237113Y-44460023D01*
X109455887Y-44333713D01*
X109609672Y-44133298D01*
X109675054Y-43889286D01*
X109642080Y-43638829D01*
X109595801Y-43558671D01*
X109378944Y-43500564D01*
X108643472Y-43925189D01*
X108143473Y-43925189D01*
X108298502Y-43835683D01*
X108287502Y-43816630D01*
X108507472Y-43689630D01*
X108518472Y-43708683D01*
X109253944Y-43284058D01*
X109312051Y-43067201D01*
X109265771Y-42987043D01*
X109065356Y-42833259D01*
X108924707Y-42795571D01*
X108781037Y-42546728D01*
X108676134Y-42424579D01*
X108633115Y-42402433D01*
X108636023Y-42364157D01*
X108581037Y-42200318D01*
X108281037Y-41680702D01*
X108176134Y-41558552D01*
X108105891Y-41522391D01*
X108111023Y-41454831D01*
X108056037Y-41290992D01*
X107831037Y-40901280D01*
X107726134Y-40779130D01*
X107572480Y-40700029D01*
X107400157Y-40686939D01*
X107236318Y-40741925D01*
X107012186Y-40871328D01*
X104929559Y-40169545D01*
X104374965Y-39516996D01*
X104523975Y-39517126D01*
X104791275Y-39406680D01*
X104995961Y-39202350D01*
X105106874Y-38935244D01*
X105107126Y-38646025D01*
X104996680Y-38378725D01*
X104792350Y-38174039D01*
X104782518Y-38169956D01*
X104702869Y-37988152D01*
X104934452Y-37756569D01*
X105025288Y-37623625D01*
X105061925Y-37454733D01*
X105029968Y-37284894D01*
X104934452Y-37140869D01*
X104227345Y-36433762D01*
X104094401Y-36342926D01*
X103925509Y-36306289D01*
X103775434Y-36334527D01*
X103847388Y-36160814D01*
X103847388Y-35908195D01*
X103750715Y-35674806D01*
X103509903Y-35433994D01*
X103285397Y-35433994D01*
X102596498Y-36122893D01*
X102610641Y-36137035D01*
X102431035Y-36316641D01*
X102416893Y-36302498D01*
X102402751Y-36316641D01*
X102223146Y-36137036D01*
X102237288Y-36122893D01*
X101636777Y-35522383D01*
X101412271Y-35522383D01*
X101178414Y-35756240D01*
X100613526Y-35118271D01*
X101816383Y-35118271D01*
X101816383Y-35342777D01*
X102416893Y-35943288D01*
X103105792Y-35254389D01*
X103105792Y-35029883D01*
X102864980Y-34789071D01*
X102631591Y-34692398D01*
X102378972Y-34692398D01*
X102145583Y-34789070D01*
X101966955Y-34967699D01*
X101816383Y-35118271D01*
X100613526Y-35118271D01*
X99698506Y-34084875D01*
X99770973Y-34114541D01*
X100912800Y-34109812D01*
X101945747Y-33681951D01*
X102195182Y-33286787D01*
X100330000Y-31421605D01*
X100315858Y-31435748D01*
X100136253Y-31256143D01*
X100150395Y-31242000D01*
X100509605Y-31242000D01*
X102374787Y-33107182D01*
X102769951Y-32857747D01*
X103202541Y-31801027D01*
X103197812Y-30659200D01*
X102769951Y-29626253D01*
X102374787Y-29376818D01*
X100509605Y-31242000D01*
X100150395Y-31242000D01*
X98285213Y-29376818D01*
X97890049Y-29626253D01*
X97457459Y-30682973D01*
X97459116Y-31083039D01*
X97435244Y-31073126D01*
X97146025Y-31072874D01*
X96878725Y-31183320D01*
X96718272Y-31343494D01*
X96058424Y-29197213D01*
X98464818Y-29197213D01*
X100330000Y-31062395D01*
X102195182Y-29197213D01*
X101945747Y-28802049D01*
X100889027Y-28369459D01*
X99747200Y-28374188D01*
X98714253Y-28802049D01*
X98464818Y-29197213D01*
X96058424Y-29197213D01*
X95519662Y-27444787D01*
X101639818Y-27444787D01*
X101889253Y-27839951D01*
X102945973Y-28272541D01*
X104087800Y-28267812D01*
X105120747Y-27839951D01*
X105370182Y-27444787D01*
X103505000Y-25579605D01*
X101639818Y-27444787D01*
X95519662Y-27444787D01*
X95290236Y-26698539D01*
X95250588Y-26625025D01*
X95220176Y-26547250D01*
X95193883Y-26519886D01*
X95175865Y-26486478D01*
X95111105Y-26433736D01*
X95053242Y-26373516D01*
X95018473Y-26358295D01*
X94989047Y-26334329D01*
X94909039Y-26310385D01*
X94832530Y-26276890D01*
X91692531Y-25586890D01*
X91574832Y-25584540D01*
X91457189Y-25581119D01*
X85357189Y-26611119D01*
X85290797Y-26636384D01*
X85221197Y-26650546D01*
X85179276Y-26678823D01*
X85132006Y-26696811D01*
X85080339Y-26745558D01*
X85021453Y-26785278D01*
X84993540Y-26827452D01*
X84956758Y-26862155D01*
X84927680Y-26926960D01*
X84888475Y-26986194D01*
X84258475Y-28526194D01*
X84249965Y-28569980D01*
X84230915Y-28610319D01*
X84227186Y-28687178D01*
X84212506Y-28762705D01*
X84221400Y-28806415D01*
X84219238Y-28850972D01*
X84424635Y-30229951D01*
X84424635Y-30728000D01*
X77075000Y-30728000D01*
X77027211Y-30737334D01*
X76985197Y-30765197D01*
X76871157Y-30879237D01*
X76944928Y-30657922D01*
X77867636Y-30196568D01*
X78439137Y-30173188D01*
X78664756Y-30266874D01*
X78953975Y-30267126D01*
X79221275Y-30156680D01*
X79425961Y-29952350D01*
X79536874Y-29685244D01*
X79537126Y-29396025D01*
X79426680Y-29128725D01*
X79222350Y-28924039D01*
X78955244Y-28813126D01*
X78666025Y-28812874D01*
X78398725Y-28923320D01*
X78382547Y-28939470D01*
X77684760Y-28968016D01*
X77675589Y-28970233D01*
X77666226Y-28969053D01*
X77558808Y-28998470D01*
X77450572Y-29024640D01*
X77442947Y-29030199D01*
X77433846Y-29032691D01*
X76671847Y-29413690D01*
X76671845Y-29413691D01*
X76163846Y-29667691D01*
X76053273Y-29753507D01*
X75973507Y-29815413D01*
X75854188Y-30024730D01*
X75697595Y-30494509D01*
X75337951Y-29626253D01*
X74942787Y-29376818D01*
X73077605Y-31242000D01*
X73091748Y-31256143D01*
X72912143Y-31435748D01*
X72898000Y-31421605D01*
X71032818Y-33286787D01*
X71282253Y-33681951D01*
X72338973Y-34114541D01*
X73090039Y-34111430D01*
X70490094Y-36877045D01*
X70460805Y-36923951D01*
X70422207Y-36963552D01*
X70397613Y-37025152D01*
X70362483Y-37081412D01*
X70353374Y-37135955D01*
X70332869Y-37187313D01*
X68974566Y-44505519D01*
X66188128Y-43071508D01*
X66213063Y-43043272D01*
X66356733Y-42794429D01*
X66497382Y-42756741D01*
X66697797Y-42602957D01*
X66744077Y-42522799D01*
X66685970Y-42305942D01*
X65950498Y-41881317D01*
X65939498Y-41900370D01*
X65719528Y-41773370D01*
X65730528Y-41754317D01*
X65575500Y-41664811D01*
X66075498Y-41664811D01*
X66810970Y-42089436D01*
X67027827Y-42031329D01*
X67074106Y-41951171D01*
X67107080Y-41700714D01*
X67041698Y-41456702D01*
X66887913Y-41256287D01*
X66669139Y-41129977D01*
X66592980Y-41086007D01*
X66376123Y-41144113D01*
X66075498Y-41664811D01*
X65575500Y-41664811D01*
X64995056Y-41329692D01*
X64778199Y-41387799D01*
X64731920Y-41467957D01*
X64698946Y-41718414D01*
X64736633Y-41859064D01*
X64592963Y-42107906D01*
X64539630Y-42259831D01*
X64541960Y-42308159D01*
X64507359Y-42324779D01*
X64392963Y-42454318D01*
X64092963Y-42973934D01*
X64039630Y-43125858D01*
X64043435Y-43204768D01*
X63982359Y-43234105D01*
X63867963Y-43363644D01*
X63642963Y-43753356D01*
X63589630Y-43905280D01*
X63597953Y-44077899D01*
X63672779Y-44233679D01*
X63757552Y-44308542D01*
X63298368Y-45313338D01*
X63274097Y-45415929D01*
X63244760Y-45517213D01*
X62664760Y-52277213D01*
X62664777Y-52277367D01*
X62664735Y-52277513D01*
X62124735Y-58607513D01*
X62127961Y-58636396D01*
X62122520Y-58664945D01*
X62192520Y-67404945D01*
X62207756Y-67478461D01*
X62211864Y-67553425D01*
X62231980Y-67595341D01*
X62241415Y-67640868D01*
X62283622Y-67702953D01*
X62316107Y-67770644D01*
X62350736Y-67801675D01*
X62376873Y-67840121D01*
X62439626Y-67881328D01*
X62495542Y-67931434D01*
X64185541Y-68931434D01*
X64243494Y-68951801D01*
X64296416Y-68982974D01*
X64356039Y-68991354D01*
X64412849Y-69011319D01*
X64474180Y-69007958D01*
X64535008Y-69016507D01*
X64593308Y-69001430D01*
X64653425Y-68998135D01*
X64708797Y-68971562D01*
X64768270Y-68956181D01*
X64774252Y-68953296D01*
X64734633Y-69428719D01*
X64738771Y-69465116D01*
X64732866Y-69501268D01*
X64752268Y-69583834D01*
X64761850Y-69668114D01*
X64779603Y-69700160D01*
X64787982Y-69735815D01*
X70067981Y-81335815D01*
X70091671Y-81368754D01*
X70106006Y-81406704D01*
X70161398Y-81465705D01*
X70208658Y-81531417D01*
X70243148Y-81552782D01*
X70270917Y-81582360D01*
X70272389Y-81583025D01*
X69267200Y-81587188D01*
X68234253Y-82015049D01*
X67984818Y-82410213D01*
X69850000Y-84275395D01*
X71715182Y-82410213D01*
X71465747Y-82015049D01*
X70860872Y-81767431D01*
X75190495Y-82771535D01*
X75260906Y-82773757D01*
X75330000Y-82787500D01*
X84940000Y-82787500D01*
X85017718Y-82772041D01*
X85096816Y-82767257D01*
X85134835Y-82748745D01*
X85176307Y-82740496D01*
X85242193Y-82696472D01*
X85313439Y-82661782D01*
X86205651Y-81984274D01*
X87447247Y-82678172D01*
X87473320Y-82741275D01*
X87677650Y-82945961D01*
X87944756Y-83056874D01*
X88233975Y-83057126D01*
X88501275Y-82946680D01*
X88705961Y-82742350D01*
X88816874Y-82475244D01*
X88817126Y-82186025D01*
X88706680Y-81918725D01*
X88502350Y-81714039D01*
X88257002Y-81612161D01*
X88391275Y-81556680D01*
X88595961Y-81352350D01*
X88706874Y-81085244D01*
X88706987Y-80955106D01*
X88817650Y-81065961D01*
X89084756Y-81176874D01*
X89373975Y-81177126D01*
X89641275Y-81066680D01*
X89845961Y-80862350D01*
X89956874Y-80595244D01*
X89957117Y-80316620D01*
X91620211Y-89801456D01*
X88634326Y-89962449D01*
X79371706Y-89933772D01*
X79105244Y-89823126D01*
X78816025Y-89822874D01*
X78548725Y-89933320D01*
X78344039Y-90137650D01*
X78233126Y-90404756D01*
X78232874Y-90693975D01*
X78343320Y-90961275D01*
X78547650Y-91165961D01*
X78814756Y-91276874D01*
X79103975Y-91277126D01*
X79366239Y-91168761D01*
X88648088Y-91197497D01*
X88665592Y-91194072D01*
X88683246Y-91196604D01*
X92381922Y-90997179D01*
X101786195Y-90490119D01*
X99501334Y-92372922D01*
X99446025Y-92372874D01*
X99178725Y-92483320D01*
X98974039Y-92687650D01*
X98863126Y-92954756D01*
X98862874Y-93243975D01*
X98973320Y-93511275D01*
X99177650Y-93715961D01*
X99444756Y-93826874D01*
X99733975Y-93827126D01*
X100001275Y-93716680D01*
X100205961Y-93512350D01*
X100281570Y-93330264D01*
X106279292Y-88387935D01*
X105989479Y-88889906D01*
X105974636Y-88899824D01*
X105865816Y-89062685D01*
X105827604Y-89254792D01*
X105827604Y-97006047D01*
X67388977Y-97006047D01*
X67388977Y-95537000D01*
X72123000Y-95537000D01*
X72123000Y-95867000D01*
X72254192Y-96272544D01*
X72530592Y-96597013D01*
X72913999Y-96784408D01*
X73081000Y-96657502D01*
X73081000Y-95537000D01*
X73335000Y-95537000D01*
X73335000Y-96657502D01*
X73502001Y-96784408D01*
X73885408Y-96597013D01*
X74161808Y-96272544D01*
X74293000Y-95867000D01*
X74293000Y-95537000D01*
X79123000Y-95537000D01*
X79123000Y-95867000D01*
X79254192Y-96272544D01*
X79530592Y-96597013D01*
X79913999Y-96784408D01*
X80081000Y-96657502D01*
X80081000Y-95537000D01*
X80335000Y-95537000D01*
X80335000Y-96657502D01*
X80502001Y-96784408D01*
X80885408Y-96597013D01*
X81161808Y-96272544D01*
X81293000Y-95867000D01*
X81293000Y-95713387D01*
X90060822Y-95713387D01*
X90216844Y-96090989D01*
X90505492Y-96380140D01*
X90882821Y-96536821D01*
X91291387Y-96537178D01*
X91668989Y-96381156D01*
X91958140Y-96092508D01*
X92114821Y-95715179D01*
X92114822Y-95713387D01*
X96860822Y-95713387D01*
X97016844Y-96090989D01*
X97305492Y-96380140D01*
X97682821Y-96536821D01*
X98091387Y-96537178D01*
X98468989Y-96381156D01*
X98758140Y-96092508D01*
X98914821Y-95715179D01*
X98915178Y-95306613D01*
X98759156Y-94929011D01*
X98470508Y-94639860D01*
X98093179Y-94483179D01*
X97684613Y-94482822D01*
X97307011Y-94638844D01*
X97017860Y-94927492D01*
X96861179Y-95304821D01*
X96860822Y-95713387D01*
X92114822Y-95713387D01*
X92115178Y-95306613D01*
X91959156Y-94929011D01*
X91670508Y-94639860D01*
X91293179Y-94483179D01*
X90884613Y-94482822D01*
X90507011Y-94638844D01*
X90217860Y-94927492D01*
X90061179Y-95304821D01*
X90060822Y-95713387D01*
X81293000Y-95713387D01*
X81293000Y-95537000D01*
X80335000Y-95537000D01*
X80081000Y-95537000D01*
X79123000Y-95537000D01*
X74293000Y-95537000D01*
X73335000Y-95537000D01*
X73081000Y-95537000D01*
X72123000Y-95537000D01*
X67388977Y-95537000D01*
X67388977Y-94953000D01*
X72123000Y-94953000D01*
X72123000Y-95283000D01*
X73081000Y-95283000D01*
X73081000Y-94162498D01*
X73335000Y-94162498D01*
X73335000Y-95283000D01*
X74293000Y-95283000D01*
X74293000Y-94953000D01*
X79123000Y-94953000D01*
X79123000Y-95283000D01*
X80081000Y-95283000D01*
X80081000Y-94162498D01*
X80335000Y-94162498D01*
X80335000Y-95283000D01*
X81293000Y-95283000D01*
X81293000Y-94953000D01*
X81161808Y-94547456D01*
X80885408Y-94222987D01*
X80502001Y-94035592D01*
X80335000Y-94162498D01*
X80081000Y-94162498D01*
X79913999Y-94035592D01*
X79530592Y-94222987D01*
X79254192Y-94547456D01*
X79123000Y-94953000D01*
X74293000Y-94953000D01*
X74161808Y-94547456D01*
X73885408Y-94222987D01*
X73502001Y-94035592D01*
X73335000Y-94162498D01*
X73081000Y-94162498D01*
X72913999Y-94035592D01*
X72530592Y-94222987D01*
X72254192Y-94547456D01*
X72123000Y-94953000D01*
X67388977Y-94953000D01*
X67388977Y-93000062D01*
X72988460Y-93000062D01*
X72990094Y-93029452D01*
X73189826Y-93394671D01*
X73514118Y-93655655D01*
X73913599Y-93772672D01*
X74081000Y-93615606D01*
X74081000Y-92837000D01*
X74335000Y-92837000D01*
X74335000Y-93615606D01*
X74502401Y-93772672D01*
X74901882Y-93655655D01*
X75226174Y-93394671D01*
X75425906Y-93029452D01*
X75427540Y-93000062D01*
X77988460Y-93000062D01*
X77990094Y-93029452D01*
X78189826Y-93394671D01*
X78514118Y-93655655D01*
X78913599Y-93772672D01*
X79081000Y-93615606D01*
X79081000Y-92837000D01*
X79335000Y-92837000D01*
X79335000Y-93615606D01*
X79502401Y-93772672D01*
X79901882Y-93655655D01*
X80226174Y-93394671D01*
X80425906Y-93029452D01*
X80427540Y-93000062D01*
X80300257Y-92837000D01*
X79335000Y-92837000D01*
X79081000Y-92837000D01*
X78115743Y-92837000D01*
X77988460Y-93000062D01*
X75427540Y-93000062D01*
X75300257Y-92837000D01*
X74335000Y-92837000D01*
X74081000Y-92837000D01*
X73115743Y-92837000D01*
X72988460Y-93000062D01*
X67388977Y-93000062D01*
X67388977Y-92419938D01*
X72988460Y-92419938D01*
X73115743Y-92583000D01*
X74081000Y-92583000D01*
X74081000Y-91804394D01*
X74335000Y-91804394D01*
X74335000Y-92583000D01*
X75300257Y-92583000D01*
X75427540Y-92419938D01*
X77988460Y-92419938D01*
X78115743Y-92583000D01*
X79081000Y-92583000D01*
X79081000Y-91804394D01*
X79335000Y-91804394D01*
X79335000Y-92583000D01*
X80300257Y-92583000D01*
X80427540Y-92419938D01*
X80425906Y-92390548D01*
X80226174Y-92025329D01*
X79901882Y-91764345D01*
X79502401Y-91647328D01*
X79335000Y-91804394D01*
X79081000Y-91804394D01*
X78913599Y-91647328D01*
X78514118Y-91764345D01*
X78189826Y-92025329D01*
X77990094Y-92390548D01*
X77988460Y-92419938D01*
X75427540Y-92419938D01*
X75425906Y-92390548D01*
X75226174Y-92025329D01*
X74901882Y-91764345D01*
X74502401Y-91647328D01*
X74335000Y-91804394D01*
X74081000Y-91804394D01*
X73913599Y-91647328D01*
X73514118Y-91764345D01*
X73189826Y-92025329D01*
X72990094Y-92390548D01*
X72988460Y-92419938D01*
X67388977Y-92419938D01*
X67388977Y-89254792D01*
X67350765Y-89062685D01*
X67241945Y-88899824D01*
X67227102Y-88889906D01*
X65847166Y-86499787D01*
X67984818Y-86499787D01*
X68234253Y-86894951D01*
X69290973Y-87327541D01*
X70432800Y-87322812D01*
X71465747Y-86894951D01*
X71715182Y-86499787D01*
X69850000Y-84634605D01*
X67984818Y-86499787D01*
X65847166Y-86499787D01*
X64343853Y-83895973D01*
X66977459Y-83895973D01*
X66982188Y-85037800D01*
X67410049Y-86070747D01*
X67805213Y-86320182D01*
X69670395Y-84455000D01*
X70029605Y-84455000D01*
X71894787Y-86320182D01*
X72289951Y-86070747D01*
X72722541Y-85014027D01*
X72717812Y-83872200D01*
X72289951Y-82839253D01*
X71894787Y-82589818D01*
X70029605Y-84455000D01*
X69670395Y-84455000D01*
X67805213Y-82589818D01*
X67410049Y-82839253D01*
X66977459Y-83895973D01*
X64343853Y-83895973D01*
X52850823Y-63989469D01*
X57574794Y-63989469D01*
X57755427Y-64426635D01*
X58089606Y-64761397D01*
X58526456Y-64942793D01*
X58999469Y-64943206D01*
X59436635Y-64762573D01*
X59771397Y-64428394D01*
X59952793Y-63991544D01*
X59953206Y-63518531D01*
X59772573Y-63081365D01*
X59438394Y-62746603D01*
X59001544Y-62565207D01*
X58528531Y-62564794D01*
X58091365Y-62745427D01*
X57756603Y-63079606D01*
X57575207Y-63516456D01*
X57574794Y-63989469D01*
X52850823Y-63989469D01*
X50465951Y-59858750D01*
X59603000Y-59858750D01*
X59603000Y-61249309D01*
X59699673Y-61482698D01*
X59878301Y-61661327D01*
X60111690Y-61758000D01*
X60452250Y-61758000D01*
X60611000Y-61599250D01*
X60611000Y-59700000D01*
X60865000Y-59700000D01*
X60865000Y-61599250D01*
X61023750Y-61758000D01*
X61364310Y-61758000D01*
X61597699Y-61661327D01*
X61776327Y-61482698D01*
X61873000Y-61249309D01*
X61873000Y-59858750D01*
X61714250Y-59700000D01*
X60865000Y-59700000D01*
X60611000Y-59700000D01*
X59761750Y-59700000D01*
X59603000Y-59858750D01*
X50465951Y-59858750D01*
X48982758Y-57289787D01*
X50839818Y-57289787D01*
X51089253Y-57684951D01*
X52145973Y-58117541D01*
X53287800Y-58112812D01*
X53809561Y-57896691D01*
X59603000Y-57896691D01*
X59603000Y-59287250D01*
X59761750Y-59446000D01*
X60611000Y-59446000D01*
X60611000Y-57546750D01*
X60865000Y-57546750D01*
X60865000Y-59446000D01*
X61714250Y-59446000D01*
X61873000Y-59287250D01*
X61873000Y-57896691D01*
X61776327Y-57663302D01*
X61597699Y-57484673D01*
X61364310Y-57388000D01*
X61023750Y-57388000D01*
X60865000Y-57546750D01*
X60611000Y-57546750D01*
X60452250Y-57388000D01*
X60111690Y-57388000D01*
X59878301Y-57484673D01*
X59699673Y-57663302D01*
X59603000Y-57896691D01*
X53809561Y-57896691D01*
X54320747Y-57684951D01*
X54570182Y-57289787D01*
X52705000Y-55424605D01*
X50839818Y-57289787D01*
X48982758Y-57289787D01*
X47716447Y-55096474D01*
X47953449Y-54685973D01*
X49832459Y-54685973D01*
X49837188Y-55827800D01*
X50265049Y-56860747D01*
X50660213Y-57110182D01*
X52525395Y-55245000D01*
X52884605Y-55245000D01*
X54749787Y-57110182D01*
X55144951Y-56860747D01*
X55577541Y-55804027D01*
X55572812Y-54662200D01*
X55144951Y-53629253D01*
X54749787Y-53379818D01*
X52884605Y-55245000D01*
X52525395Y-55245000D01*
X50660213Y-53379818D01*
X50265049Y-53629253D01*
X49832459Y-54685973D01*
X47953449Y-54685973D01*
X48811253Y-53200213D01*
X50839818Y-53200213D01*
X52705000Y-55065395D01*
X54570182Y-53200213D01*
X54320747Y-52805049D01*
X53264027Y-52372459D01*
X52122200Y-52377188D01*
X51089253Y-52805049D01*
X50839818Y-53200213D01*
X48811253Y-53200213D01*
X51171007Y-49113000D01*
X59802635Y-49113000D01*
X59802635Y-52213000D01*
X59832409Y-52371237D01*
X59925927Y-52516567D01*
X60068619Y-52614064D01*
X60238000Y-52648365D01*
X61238000Y-52648365D01*
X61396237Y-52618591D01*
X61541567Y-52525073D01*
X61639064Y-52382381D01*
X61673365Y-52213000D01*
X61673365Y-49113000D01*
X61643591Y-48954763D01*
X61550073Y-48809433D01*
X61407381Y-48711936D01*
X61238000Y-48677635D01*
X60238000Y-48677635D01*
X60079763Y-48707409D01*
X59934433Y-48800927D01*
X59836936Y-48943619D01*
X59802635Y-49113000D01*
X51171007Y-49113000D01*
X51967481Y-47733469D01*
X57574794Y-47733469D01*
X57755427Y-48170635D01*
X58089606Y-48505397D01*
X58526456Y-48686793D01*
X58999469Y-48687206D01*
X59436635Y-48506573D01*
X59771397Y-48172394D01*
X59952793Y-47735544D01*
X59953206Y-47262531D01*
X59772573Y-46825365D01*
X59438394Y-46490603D01*
X59001544Y-46309207D01*
X58528531Y-46308794D01*
X58091365Y-46489427D01*
X57756603Y-46823606D01*
X57575207Y-47260456D01*
X57574794Y-47733469D01*
X51967481Y-47733469D01*
X55914908Y-40896329D01*
X65061949Y-40896329D01*
X65120056Y-41113186D01*
X65855528Y-41537811D01*
X66156153Y-41017113D01*
X66098046Y-40800257D01*
X66021887Y-40756286D01*
X65803113Y-40629977D01*
X65552655Y-40597003D01*
X65308644Y-40662387D01*
X65108229Y-40816171D01*
X65061949Y-40896329D01*
X55914908Y-40896329D01*
X61811595Y-30682973D01*
X70025459Y-30682973D01*
X70030188Y-31824800D01*
X70458049Y-32857747D01*
X70853213Y-33107182D01*
X72718395Y-31242000D01*
X70853213Y-29376818D01*
X70458049Y-29626253D01*
X70025459Y-30682973D01*
X61811595Y-30682973D01*
X62669399Y-29197213D01*
X71032818Y-29197213D01*
X72898000Y-31062395D01*
X74763182Y-29197213D01*
X74513747Y-28802049D01*
X73457027Y-28369459D01*
X72315200Y-28374188D01*
X71282253Y-28802049D01*
X71032818Y-29197213D01*
X62669399Y-29197213D01*
X63681164Y-27444787D01*
X67349818Y-27444787D01*
X67599253Y-27839951D01*
X68655973Y-28272541D01*
X69797800Y-28267812D01*
X70830747Y-27839951D01*
X71080182Y-27444787D01*
X69215000Y-25579605D01*
X67349818Y-27444787D01*
X63681164Y-27444787D01*
X65184478Y-24840973D01*
X66342459Y-24840973D01*
X66347188Y-25982800D01*
X66775049Y-27015747D01*
X67170213Y-27265182D01*
X69035395Y-25400000D01*
X69394605Y-25400000D01*
X71259787Y-27265182D01*
X71654951Y-27015747D01*
X72087541Y-25959027D01*
X72082911Y-24840973D01*
X100632459Y-24840973D01*
X100637188Y-25982800D01*
X101065049Y-27015747D01*
X101460213Y-27265182D01*
X103325395Y-25400000D01*
X103684605Y-25400000D01*
X105549787Y-27265182D01*
X105944951Y-27015747D01*
X106377541Y-25959027D01*
X106372812Y-24817200D01*
X105944951Y-23784253D01*
X105549787Y-23534818D01*
X103684605Y-25400000D01*
X103325395Y-25400000D01*
X101460213Y-23534818D01*
X101065049Y-23784253D01*
X100632459Y-24840973D01*
X72082911Y-24840973D01*
X72082812Y-24817200D01*
X71654951Y-23784253D01*
X71259787Y-23534818D01*
X69394605Y-25400000D01*
X69035395Y-25400000D01*
X67170213Y-23534818D01*
X66775049Y-23784253D01*
X66342459Y-24840973D01*
X65184478Y-24840973D01*
X66042282Y-23355213D01*
X67349818Y-23355213D01*
X69215000Y-25220395D01*
X71080182Y-23355213D01*
X101639818Y-23355213D01*
X103505000Y-25220395D01*
X105370182Y-23355213D01*
X105120747Y-22960049D01*
X104064027Y-22527459D01*
X102922200Y-22532188D01*
X101889253Y-22960049D01*
X101639818Y-23355213D01*
X71080182Y-23355213D01*
X70830747Y-22960049D01*
X69774027Y-22527459D01*
X68632200Y-22532188D01*
X67599253Y-22960049D01*
X67349818Y-23355213D01*
X66042282Y-23355213D01*
X67162376Y-21415156D01*
X106054208Y-21415157D01*
X106054208Y-21415157D01*
G37*
X106054208Y-21415157D02*
X125500126Y-55096474D01*
X108207489Y-85048200D01*
X111538519Y-77081044D01*
X117017318Y-64333836D01*
X117017702Y-64332030D01*
X117018741Y-64330500D01*
X117042760Y-64214225D01*
X117067446Y-64098172D01*
X117067109Y-64096355D01*
X117067483Y-64094546D01*
X117117579Y-57289787D01*
X118784818Y-57289787D01*
X119034253Y-57684951D01*
X120090973Y-58117541D01*
X121232800Y-58112812D01*
X122265747Y-57684951D01*
X122515182Y-57289787D01*
X120650000Y-55424605D01*
X118784818Y-57289787D01*
X117117579Y-57289787D01*
X117127408Y-55954714D01*
X117178541Y-54685973D01*
X117777459Y-54685973D01*
X117782188Y-55827800D01*
X118210049Y-56860747D01*
X118605213Y-57110182D01*
X120470395Y-55245000D01*
X120829605Y-55245000D01*
X122694787Y-57110182D01*
X123089951Y-56860747D01*
X123522541Y-55804027D01*
X123517812Y-54662200D01*
X123089951Y-53629253D01*
X122694787Y-53379818D01*
X120829605Y-55245000D01*
X120470395Y-55245000D01*
X118605213Y-53379818D01*
X118210049Y-53629253D01*
X117777459Y-54685973D01*
X117178541Y-54685973D01*
X117238420Y-53200213D01*
X118784818Y-53200213D01*
X120650000Y-55065395D01*
X122515182Y-53200213D01*
X122265747Y-52805049D01*
X121209027Y-52372459D01*
X120067200Y-52377188D01*
X119034253Y-52805049D01*
X118784818Y-53200213D01*
X117238420Y-53200213D01*
X117286999Y-51994866D01*
X117281869Y-51962266D01*
X117286174Y-51929541D01*
X117263287Y-51844165D01*
X117249549Y-51756858D01*
X117232333Y-51728700D01*
X117223787Y-51696822D01*
X115477713Y-48157183D01*
X115652793Y-47735544D01*
X115653206Y-47262531D01*
X115472573Y-46825365D01*
X115138394Y-46490603D01*
X114701544Y-46309207D01*
X114228531Y-46308794D01*
X113791365Y-46489427D01*
X113456603Y-46823606D01*
X113275207Y-47260456D01*
X113274794Y-47733469D01*
X113455427Y-48170635D01*
X113789606Y-48505397D01*
X114226456Y-48686793D01*
X114361936Y-48686911D01*
X116046671Y-52102203D01*
X115893001Y-55915134D01*
X115894607Y-55925338D01*
X115892517Y-55935454D01*
X115847928Y-61992086D01*
X115819542Y-61975629D01*
X114589541Y-61555629D01*
X114532010Y-61547949D01*
X114477252Y-61528695D01*
X114413755Y-61532164D01*
X114350723Y-61523750D01*
X114294632Y-61538672D01*
X114236674Y-61541838D01*
X111452942Y-62255389D01*
X111375244Y-62223126D01*
X111086025Y-62222874D01*
X110818725Y-62333320D01*
X110614039Y-62537650D01*
X110503126Y-62804756D01*
X110502874Y-63093975D01*
X110613320Y-63361275D01*
X110817650Y-63565961D01*
X111084756Y-63676874D01*
X111373975Y-63677126D01*
X111641275Y-63566680D01*
X111755353Y-63452801D01*
X113222372Y-63076761D01*
X113054856Y-63546302D01*
X113082638Y-64101368D01*
X113241603Y-64485143D01*
X113483787Y-64554608D01*
X114284395Y-63754000D01*
X114270253Y-63739858D01*
X114449858Y-63560253D01*
X114464000Y-63574395D01*
X114478143Y-63560253D01*
X114657748Y-63739858D01*
X114643605Y-63754000D01*
X114657748Y-63768143D01*
X114478143Y-63947748D01*
X114464000Y-63933605D01*
X113663392Y-64734213D01*
X113732857Y-64976397D01*
X114256302Y-65163144D01*
X114454014Y-65153248D01*
X114317151Y-65405684D01*
X114310307Y-65427772D01*
X114296889Y-65446599D01*
X109436888Y-76246600D01*
X109432781Y-76264423D01*
X109423054Y-76279910D01*
X106374466Y-84271509D01*
X106372812Y-83872200D01*
X105944951Y-82839253D01*
X105549787Y-82589818D01*
X103684605Y-84455000D01*
X103698748Y-84469143D01*
X103519143Y-84648748D01*
X103505000Y-84634605D01*
X101639818Y-86499787D01*
X101889253Y-86894951D01*
X102945973Y-87327541D01*
X104087800Y-87322812D01*
X104649705Y-87090063D01*
X102306837Y-89225254D01*
X92862310Y-89734484D01*
X91838571Y-83895973D01*
X100632459Y-83895973D01*
X100637188Y-85037800D01*
X101065049Y-86070747D01*
X101460213Y-86320182D01*
X103325395Y-84455000D01*
X101460213Y-82589818D01*
X101065049Y-82839253D01*
X100632459Y-83895973D01*
X91838571Y-83895973D01*
X91578054Y-82410213D01*
X101639818Y-82410213D01*
X103505000Y-84275395D01*
X105370182Y-82410213D01*
X105120747Y-82015049D01*
X104064027Y-81582459D01*
X102922200Y-81587188D01*
X101889253Y-82015049D01*
X101639818Y-82410213D01*
X91578054Y-82410213D01*
X91342221Y-81065231D01*
X91514756Y-81136874D01*
X91803975Y-81137126D01*
X92071275Y-81026680D01*
X92136377Y-80961691D01*
X93290465Y-80784787D01*
X98464818Y-80784787D01*
X98714253Y-81179951D01*
X99770973Y-81612541D01*
X100912800Y-81607812D01*
X101945747Y-81179951D01*
X102195182Y-80784787D01*
X100330000Y-78919605D01*
X98464818Y-80784787D01*
X93290465Y-80784787D01*
X95863560Y-80390371D01*
X95965465Y-80353352D01*
X96068755Y-80320419D01*
X96078289Y-80312366D01*
X96090017Y-80308106D01*
X96169989Y-80234915D01*
X96252822Y-80164953D01*
X97459408Y-78651608D01*
X97462188Y-79322800D01*
X97890049Y-80355747D01*
X98285213Y-80605182D01*
X100150395Y-78740000D01*
X100509605Y-78740000D01*
X102374787Y-80605182D01*
X102769951Y-80355747D01*
X103202541Y-79299027D01*
X103197812Y-78157200D01*
X102769951Y-77124253D01*
X102374787Y-76874818D01*
X100509605Y-78740000D01*
X100150395Y-78740000D01*
X100136253Y-78725858D01*
X100315858Y-78546253D01*
X100330000Y-78560395D01*
X102195182Y-76695213D01*
X101945747Y-76300049D01*
X101543895Y-76135543D01*
X103028643Y-75714025D01*
X103129650Y-75662339D01*
X103231845Y-75612989D01*
X106161845Y-73402988D01*
X106162640Y-73402097D01*
X106163714Y-73401573D01*
X106242720Y-73312293D01*
X106322199Y-73223163D01*
X106322593Y-73222033D01*
X106323383Y-73221140D01*
X108563383Y-69381140D01*
X108590944Y-69301127D01*
X108627749Y-69224926D01*
X108629856Y-69188161D01*
X108641851Y-69153339D01*
X108636694Y-69068869D01*
X108641536Y-68984385D01*
X108581358Y-68554541D01*
X109676183Y-69191477D01*
X109649804Y-70681895D01*
X109644039Y-70687650D01*
X109533126Y-70954756D01*
X109532874Y-71243975D01*
X109643320Y-71511275D01*
X109847650Y-71715961D01*
X110114756Y-71826874D01*
X110403975Y-71827126D01*
X110671275Y-71716680D01*
X110875961Y-71512350D01*
X110986874Y-71245244D01*
X110987126Y-70956025D01*
X110884539Y-70707745D01*
X110917403Y-68850927D01*
X110902272Y-68767136D01*
X110896984Y-68682154D01*
X110881039Y-68649548D01*
X110874588Y-68613826D01*
X110828544Y-68542204D01*
X110791137Y-68465712D01*
X110763924Y-68441688D01*
X110744297Y-68411157D01*
X110674349Y-68362607D01*
X110610518Y-68306254D01*
X108760524Y-67229983D01*
X108852037Y-67126356D01*
X109077037Y-66736644D01*
X109130370Y-66584720D01*
X109122047Y-66412101D01*
X109047221Y-66256321D01*
X108940836Y-66162372D01*
X110543072Y-62169988D01*
X110562249Y-62067685D01*
X110586929Y-61966558D01*
X110745761Y-58277000D01*
X111300635Y-58277000D01*
X111300635Y-61377000D01*
X111330409Y-61535237D01*
X111423927Y-61680567D01*
X111566619Y-61778064D01*
X111736000Y-61812365D01*
X112736000Y-61812365D01*
X112894237Y-61782591D01*
X113039567Y-61689073D01*
X113137064Y-61546381D01*
X113171365Y-61377000D01*
X113171365Y-58277000D01*
X113141591Y-58118763D01*
X113048073Y-57973433D01*
X112905381Y-57875936D01*
X112736000Y-57841635D01*
X111736000Y-57841635D01*
X111577763Y-57871409D01*
X111432433Y-57964927D01*
X111334936Y-58107619D01*
X111300635Y-58277000D01*
X110745761Y-58277000D01*
X111050303Y-51202750D01*
X111101000Y-51202750D01*
X111101000Y-52593309D01*
X111197673Y-52826698D01*
X111376301Y-53005327D01*
X111609690Y-53102000D01*
X111950250Y-53102000D01*
X112109000Y-52943250D01*
X112109000Y-51044000D01*
X112363000Y-51044000D01*
X112363000Y-52943250D01*
X112521750Y-53102000D01*
X112862310Y-53102000D01*
X113095699Y-53005327D01*
X113274327Y-52826698D01*
X113371000Y-52593309D01*
X113371000Y-51202750D01*
X113212250Y-51044000D01*
X112363000Y-51044000D01*
X112109000Y-51044000D01*
X111259750Y-51044000D01*
X111101000Y-51202750D01*
X111050303Y-51202750D01*
X111066929Y-50816558D01*
X111055862Y-50744947D01*
X111056217Y-50672494D01*
X111037637Y-50627010D01*
X111030132Y-50578448D01*
X110992503Y-50516523D01*
X110965103Y-50449449D01*
X110165958Y-49240691D01*
X111101000Y-49240691D01*
X111101000Y-50631250D01*
X111259750Y-50790000D01*
X112109000Y-50790000D01*
X112109000Y-48890750D01*
X112363000Y-48890750D01*
X112363000Y-50790000D01*
X113212250Y-50790000D01*
X113371000Y-50631250D01*
X113371000Y-49240691D01*
X113274327Y-49007302D01*
X113095699Y-48828673D01*
X112862310Y-48732000D01*
X112521750Y-48732000D01*
X112363000Y-48890750D01*
X112109000Y-48890750D01*
X111950250Y-48732000D01*
X111609690Y-48732000D01*
X111376301Y-48828673D01*
X111197673Y-49007302D01*
X111101000Y-49240691D01*
X110165958Y-49240691D01*
X108977494Y-47443065D01*
X107729860Y-45496756D01*
X107717741Y-45484167D01*
X107710464Y-45468279D01*
X107153436Y-44697597D01*
X107154506Y-44693671D01*
X107629923Y-44693671D01*
X107676203Y-44773829D01*
X107876618Y-44927613D01*
X108120629Y-44992997D01*
X108371087Y-44960023D01*
X108589861Y-44833714D01*
X108666020Y-44789743D01*
X108724127Y-44572887D01*
X108423502Y-44052189D01*
X107688030Y-44476814D01*
X107629923Y-44693671D01*
X107154506Y-44693671D01*
X107297696Y-44168644D01*
X107320975Y-44158556D01*
X107346173Y-44202201D01*
X107563030Y-44260308D01*
X108143473Y-43925189D01*
X108643472Y-43925189D01*
X108944097Y-44445887D01*
X109160954Y-44503993D01*
X109237113Y-44460023D01*
X109455887Y-44333713D01*
X109609672Y-44133298D01*
X109675054Y-43889286D01*
X109642080Y-43638829D01*
X109595801Y-43558671D01*
X109378944Y-43500564D01*
X108643472Y-43925189D01*
X108143473Y-43925189D01*
X108298502Y-43835683D01*
X108287502Y-43816630D01*
X108507472Y-43689630D01*
X108518472Y-43708683D01*
X109253944Y-43284058D01*
X109312051Y-43067201D01*
X109265771Y-42987043D01*
X109065356Y-42833259D01*
X108924707Y-42795571D01*
X108781037Y-42546728D01*
X108676134Y-42424579D01*
X108633115Y-42402433D01*
X108636023Y-42364157D01*
X108581037Y-42200318D01*
X108281037Y-41680702D01*
X108176134Y-41558552D01*
X108105891Y-41522391D01*
X108111023Y-41454831D01*
X108056037Y-41290992D01*
X107831037Y-40901280D01*
X107726134Y-40779130D01*
X107572480Y-40700029D01*
X107400157Y-40686939D01*
X107236318Y-40741925D01*
X107012186Y-40871328D01*
X104929559Y-40169545D01*
X104374965Y-39516996D01*
X104523975Y-39517126D01*
X104791275Y-39406680D01*
X104995961Y-39202350D01*
X105106874Y-38935244D01*
X105107126Y-38646025D01*
X104996680Y-38378725D01*
X104792350Y-38174039D01*
X104782518Y-38169956D01*
X104702869Y-37988152D01*
X104934452Y-37756569D01*
X105025288Y-37623625D01*
X105061925Y-37454733D01*
X105029968Y-37284894D01*
X104934452Y-37140869D01*
X104227345Y-36433762D01*
X104094401Y-36342926D01*
X103925509Y-36306289D01*
X103775434Y-36334527D01*
X103847388Y-36160814D01*
X103847388Y-35908195D01*
X103750715Y-35674806D01*
X103509903Y-35433994D01*
X103285397Y-35433994D01*
X102596498Y-36122893D01*
X102610641Y-36137035D01*
X102431035Y-36316641D01*
X102416893Y-36302498D01*
X102402751Y-36316641D01*
X102223146Y-36137036D01*
X102237288Y-36122893D01*
X101636777Y-35522383D01*
X101412271Y-35522383D01*
X101178414Y-35756240D01*
X100613526Y-35118271D01*
X101816383Y-35118271D01*
X101816383Y-35342777D01*
X102416893Y-35943288D01*
X103105792Y-35254389D01*
X103105792Y-35029883D01*
X102864980Y-34789071D01*
X102631591Y-34692398D01*
X102378972Y-34692398D01*
X102145583Y-34789070D01*
X101966955Y-34967699D01*
X101816383Y-35118271D01*
X100613526Y-35118271D01*
X99698506Y-34084875D01*
X99770973Y-34114541D01*
X100912800Y-34109812D01*
X101945747Y-33681951D01*
X102195182Y-33286787D01*
X100330000Y-31421605D01*
X100315858Y-31435748D01*
X100136253Y-31256143D01*
X100150395Y-31242000D01*
X100509605Y-31242000D01*
X102374787Y-33107182D01*
X102769951Y-32857747D01*
X103202541Y-31801027D01*
X103197812Y-30659200D01*
X102769951Y-29626253D01*
X102374787Y-29376818D01*
X100509605Y-31242000D01*
X100150395Y-31242000D01*
X98285213Y-29376818D01*
X97890049Y-29626253D01*
X97457459Y-30682973D01*
X97459116Y-31083039D01*
X97435244Y-31073126D01*
X97146025Y-31072874D01*
X96878725Y-31183320D01*
X96718272Y-31343494D01*
X96058424Y-29197213D01*
X98464818Y-29197213D01*
X100330000Y-31062395D01*
X102195182Y-29197213D01*
X101945747Y-28802049D01*
X100889027Y-28369459D01*
X99747200Y-28374188D01*
X98714253Y-28802049D01*
X98464818Y-29197213D01*
X96058424Y-29197213D01*
X95519662Y-27444787D01*
X101639818Y-27444787D01*
X101889253Y-27839951D01*
X102945973Y-28272541D01*
X104087800Y-28267812D01*
X105120747Y-27839951D01*
X105370182Y-27444787D01*
X103505000Y-25579605D01*
X101639818Y-27444787D01*
X95519662Y-27444787D01*
X95290236Y-26698539D01*
X95250588Y-26625025D01*
X95220176Y-26547250D01*
X95193883Y-26519886D01*
X95175865Y-26486478D01*
X95111105Y-26433736D01*
X95053242Y-26373516D01*
X95018473Y-26358295D01*
X94989047Y-26334329D01*
X94909039Y-26310385D01*
X94832530Y-26276890D01*
X91692531Y-25586890D01*
X91574832Y-25584540D01*
X91457189Y-25581119D01*
X85357189Y-26611119D01*
X85290797Y-26636384D01*
X85221197Y-26650546D01*
X85179276Y-26678823D01*
X85132006Y-26696811D01*
X85080339Y-26745558D01*
X85021453Y-26785278D01*
X84993540Y-26827452D01*
X84956758Y-26862155D01*
X84927680Y-26926960D01*
X84888475Y-26986194D01*
X84258475Y-28526194D01*
X84249965Y-28569980D01*
X84230915Y-28610319D01*
X84227186Y-28687178D01*
X84212506Y-28762705D01*
X84221400Y-28806415D01*
X84219238Y-28850972D01*
X84424635Y-30229951D01*
X84424635Y-30728000D01*
X77075000Y-30728000D01*
X77027211Y-30737334D01*
X76985197Y-30765197D01*
X76871157Y-30879237D01*
X76944928Y-30657922D01*
X77867636Y-30196568D01*
X78439137Y-30173188D01*
X78664756Y-30266874D01*
X78953975Y-30267126D01*
X79221275Y-30156680D01*
X79425961Y-29952350D01*
X79536874Y-29685244D01*
X79537126Y-29396025D01*
X79426680Y-29128725D01*
X79222350Y-28924039D01*
X78955244Y-28813126D01*
X78666025Y-28812874D01*
X78398725Y-28923320D01*
X78382547Y-28939470D01*
X77684760Y-28968016D01*
X77675589Y-28970233D01*
X77666226Y-28969053D01*
X77558808Y-28998470D01*
X77450572Y-29024640D01*
X77442947Y-29030199D01*
X77433846Y-29032691D01*
X76671847Y-29413690D01*
X76671845Y-29413691D01*
X76163846Y-29667691D01*
X76053273Y-29753507D01*
X75973507Y-29815413D01*
X75854188Y-30024730D01*
X75697595Y-30494509D01*
X75337951Y-29626253D01*
X74942787Y-29376818D01*
X73077605Y-31242000D01*
X73091748Y-31256143D01*
X72912143Y-31435748D01*
X72898000Y-31421605D01*
X71032818Y-33286787D01*
X71282253Y-33681951D01*
X72338973Y-34114541D01*
X73090039Y-34111430D01*
X70490094Y-36877045D01*
X70460805Y-36923951D01*
X70422207Y-36963552D01*
X70397613Y-37025152D01*
X70362483Y-37081412D01*
X70353374Y-37135955D01*
X70332869Y-37187313D01*
X68974566Y-44505519D01*
X66188128Y-43071508D01*
X66213063Y-43043272D01*
X66356733Y-42794429D01*
X66497382Y-42756741D01*
X66697797Y-42602957D01*
X66744077Y-42522799D01*
X66685970Y-42305942D01*
X65950498Y-41881317D01*
X65939498Y-41900370D01*
X65719528Y-41773370D01*
X65730528Y-41754317D01*
X65575500Y-41664811D01*
X66075498Y-41664811D01*
X66810970Y-42089436D01*
X67027827Y-42031329D01*
X67074106Y-41951171D01*
X67107080Y-41700714D01*
X67041698Y-41456702D01*
X66887913Y-41256287D01*
X66669139Y-41129977D01*
X66592980Y-41086007D01*
X66376123Y-41144113D01*
X66075498Y-41664811D01*
X65575500Y-41664811D01*
X64995056Y-41329692D01*
X64778199Y-41387799D01*
X64731920Y-41467957D01*
X64698946Y-41718414D01*
X64736633Y-41859064D01*
X64592963Y-42107906D01*
X64539630Y-42259831D01*
X64541960Y-42308159D01*
X64507359Y-42324779D01*
X64392963Y-42454318D01*
X64092963Y-42973934D01*
X64039630Y-43125858D01*
X64043435Y-43204768D01*
X63982359Y-43234105D01*
X63867963Y-43363644D01*
X63642963Y-43753356D01*
X63589630Y-43905280D01*
X63597953Y-44077899D01*
X63672779Y-44233679D01*
X63757552Y-44308542D01*
X63298368Y-45313338D01*
X63274097Y-45415929D01*
X63244760Y-45517213D01*
X62664760Y-52277213D01*
X62664777Y-52277367D01*
X62664735Y-52277513D01*
X62124735Y-58607513D01*
X62127961Y-58636396D01*
X62122520Y-58664945D01*
X62192520Y-67404945D01*
X62207756Y-67478461D01*
X62211864Y-67553425D01*
X62231980Y-67595341D01*
X62241415Y-67640868D01*
X62283622Y-67702953D01*
X62316107Y-67770644D01*
X62350736Y-67801675D01*
X62376873Y-67840121D01*
X62439626Y-67881328D01*
X62495542Y-67931434D01*
X64185541Y-68931434D01*
X64243494Y-68951801D01*
X64296416Y-68982974D01*
X64356039Y-68991354D01*
X64412849Y-69011319D01*
X64474180Y-69007958D01*
X64535008Y-69016507D01*
X64593308Y-69001430D01*
X64653425Y-68998135D01*
X64708797Y-68971562D01*
X64768270Y-68956181D01*
X64774252Y-68953296D01*
X64734633Y-69428719D01*
X64738771Y-69465116D01*
X64732866Y-69501268D01*
X64752268Y-69583834D01*
X64761850Y-69668114D01*
X64779603Y-69700160D01*
X64787982Y-69735815D01*
X70067981Y-81335815D01*
X70091671Y-81368754D01*
X70106006Y-81406704D01*
X70161398Y-81465705D01*
X70208658Y-81531417D01*
X70243148Y-81552782D01*
X70270917Y-81582360D01*
X70272389Y-81583025D01*
X69267200Y-81587188D01*
X68234253Y-82015049D01*
X67984818Y-82410213D01*
X69850000Y-84275395D01*
X71715182Y-82410213D01*
X71465747Y-82015049D01*
X70860872Y-81767431D01*
X75190495Y-82771535D01*
X75260906Y-82773757D01*
X75330000Y-82787500D01*
X84940000Y-82787500D01*
X85017718Y-82772041D01*
X85096816Y-82767257D01*
X85134835Y-82748745D01*
X85176307Y-82740496D01*
X85242193Y-82696472D01*
X85313439Y-82661782D01*
X86205651Y-81984274D01*
X87447247Y-82678172D01*
X87473320Y-82741275D01*
X87677650Y-82945961D01*
X87944756Y-83056874D01*
X88233975Y-83057126D01*
X88501275Y-82946680D01*
X88705961Y-82742350D01*
X88816874Y-82475244D01*
X88817126Y-82186025D01*
X88706680Y-81918725D01*
X88502350Y-81714039D01*
X88257002Y-81612161D01*
X88391275Y-81556680D01*
X88595961Y-81352350D01*
X88706874Y-81085244D01*
X88706987Y-80955106D01*
X88817650Y-81065961D01*
X89084756Y-81176874D01*
X89373975Y-81177126D01*
X89641275Y-81066680D01*
X89845961Y-80862350D01*
X89956874Y-80595244D01*
X89957117Y-80316620D01*
X91620211Y-89801456D01*
X88634326Y-89962449D01*
X79371706Y-89933772D01*
X79105244Y-89823126D01*
X78816025Y-89822874D01*
X78548725Y-89933320D01*
X78344039Y-90137650D01*
X78233126Y-90404756D01*
X78232874Y-90693975D01*
X78343320Y-90961275D01*
X78547650Y-91165961D01*
X78814756Y-91276874D01*
X79103975Y-91277126D01*
X79366239Y-91168761D01*
X88648088Y-91197497D01*
X88665592Y-91194072D01*
X88683246Y-91196604D01*
X92381922Y-90997179D01*
X101786195Y-90490119D01*
X99501334Y-92372922D01*
X99446025Y-92372874D01*
X99178725Y-92483320D01*
X98974039Y-92687650D01*
X98863126Y-92954756D01*
X98862874Y-93243975D01*
X98973320Y-93511275D01*
X99177650Y-93715961D01*
X99444756Y-93826874D01*
X99733975Y-93827126D01*
X100001275Y-93716680D01*
X100205961Y-93512350D01*
X100281570Y-93330264D01*
X106279292Y-88387935D01*
X105989479Y-88889906D01*
X105974636Y-88899824D01*
X105865816Y-89062685D01*
X105827604Y-89254792D01*
X105827604Y-97006047D01*
X67388977Y-97006047D01*
X67388977Y-95537000D01*
X72123000Y-95537000D01*
X72123000Y-95867000D01*
X72254192Y-96272544D01*
X72530592Y-96597013D01*
X72913999Y-96784408D01*
X73081000Y-96657502D01*
X73081000Y-95537000D01*
X73335000Y-95537000D01*
X73335000Y-96657502D01*
X73502001Y-96784408D01*
X73885408Y-96597013D01*
X74161808Y-96272544D01*
X74293000Y-95867000D01*
X74293000Y-95537000D01*
X79123000Y-95537000D01*
X79123000Y-95867000D01*
X79254192Y-96272544D01*
X79530592Y-96597013D01*
X79913999Y-96784408D01*
X80081000Y-96657502D01*
X80081000Y-95537000D01*
X80335000Y-95537000D01*
X80335000Y-96657502D01*
X80502001Y-96784408D01*
X80885408Y-96597013D01*
X81161808Y-96272544D01*
X81293000Y-95867000D01*
X81293000Y-95713387D01*
X90060822Y-95713387D01*
X90216844Y-96090989D01*
X90505492Y-96380140D01*
X90882821Y-96536821D01*
X91291387Y-96537178D01*
X91668989Y-96381156D01*
X91958140Y-96092508D01*
X92114821Y-95715179D01*
X92114822Y-95713387D01*
X96860822Y-95713387D01*
X97016844Y-96090989D01*
X97305492Y-96380140D01*
X97682821Y-96536821D01*
X98091387Y-96537178D01*
X98468989Y-96381156D01*
X98758140Y-96092508D01*
X98914821Y-95715179D01*
X98915178Y-95306613D01*
X98759156Y-94929011D01*
X98470508Y-94639860D01*
X98093179Y-94483179D01*
X97684613Y-94482822D01*
X97307011Y-94638844D01*
X97017860Y-94927492D01*
X96861179Y-95304821D01*
X96860822Y-95713387D01*
X92114822Y-95713387D01*
X92115178Y-95306613D01*
X91959156Y-94929011D01*
X91670508Y-94639860D01*
X91293179Y-94483179D01*
X90884613Y-94482822D01*
X90507011Y-94638844D01*
X90217860Y-94927492D01*
X90061179Y-95304821D01*
X90060822Y-95713387D01*
X81293000Y-95713387D01*
X81293000Y-95537000D01*
X80335000Y-95537000D01*
X80081000Y-95537000D01*
X79123000Y-95537000D01*
X74293000Y-95537000D01*
X73335000Y-95537000D01*
X73081000Y-95537000D01*
X72123000Y-95537000D01*
X67388977Y-95537000D01*
X67388977Y-94953000D01*
X72123000Y-94953000D01*
X72123000Y-95283000D01*
X73081000Y-95283000D01*
X73081000Y-94162498D01*
X73335000Y-94162498D01*
X73335000Y-95283000D01*
X74293000Y-95283000D01*
X74293000Y-94953000D01*
X79123000Y-94953000D01*
X79123000Y-95283000D01*
X80081000Y-95283000D01*
X80081000Y-94162498D01*
X80335000Y-94162498D01*
X80335000Y-95283000D01*
X81293000Y-95283000D01*
X81293000Y-94953000D01*
X81161808Y-94547456D01*
X80885408Y-94222987D01*
X80502001Y-94035592D01*
X80335000Y-94162498D01*
X80081000Y-94162498D01*
X79913999Y-94035592D01*
X79530592Y-94222987D01*
X79254192Y-94547456D01*
X79123000Y-94953000D01*
X74293000Y-94953000D01*
X74161808Y-94547456D01*
X73885408Y-94222987D01*
X73502001Y-94035592D01*
X73335000Y-94162498D01*
X73081000Y-94162498D01*
X72913999Y-94035592D01*
X72530592Y-94222987D01*
X72254192Y-94547456D01*
X72123000Y-94953000D01*
X67388977Y-94953000D01*
X67388977Y-93000062D01*
X72988460Y-93000062D01*
X72990094Y-93029452D01*
X73189826Y-93394671D01*
X73514118Y-93655655D01*
X73913599Y-93772672D01*
X74081000Y-93615606D01*
X74081000Y-92837000D01*
X74335000Y-92837000D01*
X74335000Y-93615606D01*
X74502401Y-93772672D01*
X74901882Y-93655655D01*
X75226174Y-93394671D01*
X75425906Y-93029452D01*
X75427540Y-93000062D01*
X77988460Y-93000062D01*
X77990094Y-93029452D01*
X78189826Y-93394671D01*
X78514118Y-93655655D01*
X78913599Y-93772672D01*
X79081000Y-93615606D01*
X79081000Y-92837000D01*
X79335000Y-92837000D01*
X79335000Y-93615606D01*
X79502401Y-93772672D01*
X79901882Y-93655655D01*
X80226174Y-93394671D01*
X80425906Y-93029452D01*
X80427540Y-93000062D01*
X80300257Y-92837000D01*
X79335000Y-92837000D01*
X79081000Y-92837000D01*
X78115743Y-92837000D01*
X77988460Y-93000062D01*
X75427540Y-93000062D01*
X75300257Y-92837000D01*
X74335000Y-92837000D01*
X74081000Y-92837000D01*
X73115743Y-92837000D01*
X72988460Y-93000062D01*
X67388977Y-93000062D01*
X67388977Y-92419938D01*
X72988460Y-92419938D01*
X73115743Y-92583000D01*
X74081000Y-92583000D01*
X74081000Y-91804394D01*
X74335000Y-91804394D01*
X74335000Y-92583000D01*
X75300257Y-92583000D01*
X75427540Y-92419938D01*
X77988460Y-92419938D01*
X78115743Y-92583000D01*
X79081000Y-92583000D01*
X79081000Y-91804394D01*
X79335000Y-91804394D01*
X79335000Y-92583000D01*
X80300257Y-92583000D01*
X80427540Y-92419938D01*
X80425906Y-92390548D01*
X80226174Y-92025329D01*
X79901882Y-91764345D01*
X79502401Y-91647328D01*
X79335000Y-91804394D01*
X79081000Y-91804394D01*
X78913599Y-91647328D01*
X78514118Y-91764345D01*
X78189826Y-92025329D01*
X77990094Y-92390548D01*
X77988460Y-92419938D01*
X75427540Y-92419938D01*
X75425906Y-92390548D01*
X75226174Y-92025329D01*
X74901882Y-91764345D01*
X74502401Y-91647328D01*
X74335000Y-91804394D01*
X74081000Y-91804394D01*
X73913599Y-91647328D01*
X73514118Y-91764345D01*
X73189826Y-92025329D01*
X72990094Y-92390548D01*
X72988460Y-92419938D01*
X67388977Y-92419938D01*
X67388977Y-89254792D01*
X67350765Y-89062685D01*
X67241945Y-88899824D01*
X67227102Y-88889906D01*
X65847166Y-86499787D01*
X67984818Y-86499787D01*
X68234253Y-86894951D01*
X69290973Y-87327541D01*
X70432800Y-87322812D01*
X71465747Y-86894951D01*
X71715182Y-86499787D01*
X69850000Y-84634605D01*
X67984818Y-86499787D01*
X65847166Y-86499787D01*
X64343853Y-83895973D01*
X66977459Y-83895973D01*
X66982188Y-85037800D01*
X67410049Y-86070747D01*
X67805213Y-86320182D01*
X69670395Y-84455000D01*
X70029605Y-84455000D01*
X71894787Y-86320182D01*
X72289951Y-86070747D01*
X72722541Y-85014027D01*
X72717812Y-83872200D01*
X72289951Y-82839253D01*
X71894787Y-82589818D01*
X70029605Y-84455000D01*
X69670395Y-84455000D01*
X67805213Y-82589818D01*
X67410049Y-82839253D01*
X66977459Y-83895973D01*
X64343853Y-83895973D01*
X52850823Y-63989469D01*
X57574794Y-63989469D01*
X57755427Y-64426635D01*
X58089606Y-64761397D01*
X58526456Y-64942793D01*
X58999469Y-64943206D01*
X59436635Y-64762573D01*
X59771397Y-64428394D01*
X59952793Y-63991544D01*
X59953206Y-63518531D01*
X59772573Y-63081365D01*
X59438394Y-62746603D01*
X59001544Y-62565207D01*
X58528531Y-62564794D01*
X58091365Y-62745427D01*
X57756603Y-63079606D01*
X57575207Y-63516456D01*
X57574794Y-63989469D01*
X52850823Y-63989469D01*
X50465951Y-59858750D01*
X59603000Y-59858750D01*
X59603000Y-61249309D01*
X59699673Y-61482698D01*
X59878301Y-61661327D01*
X60111690Y-61758000D01*
X60452250Y-61758000D01*
X60611000Y-61599250D01*
X60611000Y-59700000D01*
X60865000Y-59700000D01*
X60865000Y-61599250D01*
X61023750Y-61758000D01*
X61364310Y-61758000D01*
X61597699Y-61661327D01*
X61776327Y-61482698D01*
X61873000Y-61249309D01*
X61873000Y-59858750D01*
X61714250Y-59700000D01*
X60865000Y-59700000D01*
X60611000Y-59700000D01*
X59761750Y-59700000D01*
X59603000Y-59858750D01*
X50465951Y-59858750D01*
X48982758Y-57289787D01*
X50839818Y-57289787D01*
X51089253Y-57684951D01*
X52145973Y-58117541D01*
X53287800Y-58112812D01*
X53809561Y-57896691D01*
X59603000Y-57896691D01*
X59603000Y-59287250D01*
X59761750Y-59446000D01*
X60611000Y-59446000D01*
X60611000Y-57546750D01*
X60865000Y-57546750D01*
X60865000Y-59446000D01*
X61714250Y-59446000D01*
X61873000Y-59287250D01*
X61873000Y-57896691D01*
X61776327Y-57663302D01*
X61597699Y-57484673D01*
X61364310Y-57388000D01*
X61023750Y-57388000D01*
X60865000Y-57546750D01*
X60611000Y-57546750D01*
X60452250Y-57388000D01*
X60111690Y-57388000D01*
X59878301Y-57484673D01*
X59699673Y-57663302D01*
X59603000Y-57896691D01*
X53809561Y-57896691D01*
X54320747Y-57684951D01*
X54570182Y-57289787D01*
X52705000Y-55424605D01*
X50839818Y-57289787D01*
X48982758Y-57289787D01*
X47716447Y-55096474D01*
X47953449Y-54685973D01*
X49832459Y-54685973D01*
X49837188Y-55827800D01*
X50265049Y-56860747D01*
X50660213Y-57110182D01*
X52525395Y-55245000D01*
X52884605Y-55245000D01*
X54749787Y-57110182D01*
X55144951Y-56860747D01*
X55577541Y-55804027D01*
X55572812Y-54662200D01*
X55144951Y-53629253D01*
X54749787Y-53379818D01*
X52884605Y-55245000D01*
X52525395Y-55245000D01*
X50660213Y-53379818D01*
X50265049Y-53629253D01*
X49832459Y-54685973D01*
X47953449Y-54685973D01*
X48811253Y-53200213D01*
X50839818Y-53200213D01*
X52705000Y-55065395D01*
X54570182Y-53200213D01*
X54320747Y-52805049D01*
X53264027Y-52372459D01*
X52122200Y-52377188D01*
X51089253Y-52805049D01*
X50839818Y-53200213D01*
X48811253Y-53200213D01*
X51171007Y-49113000D01*
X59802635Y-49113000D01*
X59802635Y-52213000D01*
X59832409Y-52371237D01*
X59925927Y-52516567D01*
X60068619Y-52614064D01*
X60238000Y-52648365D01*
X61238000Y-52648365D01*
X61396237Y-52618591D01*
X61541567Y-52525073D01*
X61639064Y-52382381D01*
X61673365Y-52213000D01*
X61673365Y-49113000D01*
X61643591Y-48954763D01*
X61550073Y-48809433D01*
X61407381Y-48711936D01*
X61238000Y-48677635D01*
X60238000Y-48677635D01*
X60079763Y-48707409D01*
X59934433Y-48800927D01*
X59836936Y-48943619D01*
X59802635Y-49113000D01*
X51171007Y-49113000D01*
X51967481Y-47733469D01*
X57574794Y-47733469D01*
X57755427Y-48170635D01*
X58089606Y-48505397D01*
X58526456Y-48686793D01*
X58999469Y-48687206D01*
X59436635Y-48506573D01*
X59771397Y-48172394D01*
X59952793Y-47735544D01*
X59953206Y-47262531D01*
X59772573Y-46825365D01*
X59438394Y-46490603D01*
X59001544Y-46309207D01*
X58528531Y-46308794D01*
X58091365Y-46489427D01*
X57756603Y-46823606D01*
X57575207Y-47260456D01*
X57574794Y-47733469D01*
X51967481Y-47733469D01*
X55914908Y-40896329D01*
X65061949Y-40896329D01*
X65120056Y-41113186D01*
X65855528Y-41537811D01*
X66156153Y-41017113D01*
X66098046Y-40800257D01*
X66021887Y-40756286D01*
X65803113Y-40629977D01*
X65552655Y-40597003D01*
X65308644Y-40662387D01*
X65108229Y-40816171D01*
X65061949Y-40896329D01*
X55914908Y-40896329D01*
X61811595Y-30682973D01*
X70025459Y-30682973D01*
X70030188Y-31824800D01*
X70458049Y-32857747D01*
X70853213Y-33107182D01*
X72718395Y-31242000D01*
X70853213Y-29376818D01*
X70458049Y-29626253D01*
X70025459Y-30682973D01*
X61811595Y-30682973D01*
X62669399Y-29197213D01*
X71032818Y-29197213D01*
X72898000Y-31062395D01*
X74763182Y-29197213D01*
X74513747Y-28802049D01*
X73457027Y-28369459D01*
X72315200Y-28374188D01*
X71282253Y-28802049D01*
X71032818Y-29197213D01*
X62669399Y-29197213D01*
X63681164Y-27444787D01*
X67349818Y-27444787D01*
X67599253Y-27839951D01*
X68655973Y-28272541D01*
X69797800Y-28267812D01*
X70830747Y-27839951D01*
X71080182Y-27444787D01*
X69215000Y-25579605D01*
X67349818Y-27444787D01*
X63681164Y-27444787D01*
X65184478Y-24840973D01*
X66342459Y-24840973D01*
X66347188Y-25982800D01*
X66775049Y-27015747D01*
X67170213Y-27265182D01*
X69035395Y-25400000D01*
X69394605Y-25400000D01*
X71259787Y-27265182D01*
X71654951Y-27015747D01*
X72087541Y-25959027D01*
X72082911Y-24840973D01*
X100632459Y-24840973D01*
X100637188Y-25982800D01*
X101065049Y-27015747D01*
X101460213Y-27265182D01*
X103325395Y-25400000D01*
X103684605Y-25400000D01*
X105549787Y-27265182D01*
X105944951Y-27015747D01*
X106377541Y-25959027D01*
X106372812Y-24817200D01*
X105944951Y-23784253D01*
X105549787Y-23534818D01*
X103684605Y-25400000D01*
X103325395Y-25400000D01*
X101460213Y-23534818D01*
X101065049Y-23784253D01*
X100632459Y-24840973D01*
X72082911Y-24840973D01*
X72082812Y-24817200D01*
X71654951Y-23784253D01*
X71259787Y-23534818D01*
X69394605Y-25400000D01*
X69035395Y-25400000D01*
X67170213Y-23534818D01*
X66775049Y-23784253D01*
X66342459Y-24840973D01*
X65184478Y-24840973D01*
X66042282Y-23355213D01*
X67349818Y-23355213D01*
X69215000Y-25220395D01*
X71080182Y-23355213D01*
X101639818Y-23355213D01*
X103505000Y-25220395D01*
X105370182Y-23355213D01*
X105120747Y-22960049D01*
X104064027Y-22527459D01*
X102922200Y-22532188D01*
X101889253Y-22960049D01*
X101639818Y-23355213D01*
X71080182Y-23355213D01*
X70830747Y-22960049D01*
X69774027Y-22527459D01*
X68632200Y-22532188D01*
X67599253Y-22960049D01*
X67349818Y-23355213D01*
X66042282Y-23355213D01*
X67162376Y-21415156D01*
X106054208Y-21415157D01*
G36*
X68235107Y-71335329D02*
X68256291Y-71344686D01*
X68273478Y-71360208D01*
X69620036Y-72164073D01*
X69507657Y-72169491D01*
X69351877Y-72244317D01*
X69237481Y-72373856D01*
X68737481Y-73239882D01*
X68684148Y-73391805D01*
X68692471Y-73564424D01*
X68767297Y-73720205D01*
X68896835Y-73834601D01*
X71581513Y-75384601D01*
X71733438Y-75437934D01*
X71906057Y-75429611D01*
X72061837Y-75354785D01*
X72176233Y-75225246D01*
X72630480Y-74438467D01*
X73600821Y-75926324D01*
X73457027Y-75867459D01*
X72315200Y-75872188D01*
X71282253Y-76300049D01*
X71032818Y-76695213D01*
X72898000Y-78560395D01*
X72912143Y-78546253D01*
X73091748Y-78725858D01*
X73077605Y-78740000D01*
X74942787Y-80605182D01*
X75337951Y-80355747D01*
X75770541Y-79299027D01*
X75768389Y-78779346D01*
X77169207Y-80517485D01*
X77262030Y-80595052D01*
X77353681Y-80671758D01*
X77353907Y-80671829D01*
X77354089Y-80671981D01*
X77468401Y-80707768D01*
X77583559Y-80743915D01*
X84513559Y-81493915D01*
X84631840Y-81483415D01*
X84750188Y-81473584D01*
X84888125Y-81434036D01*
X84732119Y-81552500D01*
X75400665Y-81552500D01*
X74255502Y-81286920D01*
X74513747Y-81179951D01*
X74763182Y-80784787D01*
X72898000Y-78919605D01*
X72883858Y-78933748D01*
X72704253Y-78754143D01*
X72718395Y-78740000D01*
X70853213Y-76874818D01*
X70458049Y-77124253D01*
X70025459Y-78180973D01*
X70025795Y-78262027D01*
X66397340Y-70290422D01*
X66499682Y-70256075D01*
X66608727Y-70193118D01*
X68235107Y-71335329D01*
X68235107Y-71335329D01*
G37*
X68235107Y-71335329D02*
X68256291Y-71344686D01*
X68273478Y-71360208D01*
X69620036Y-72164073D01*
X69507657Y-72169491D01*
X69351877Y-72244317D01*
X69237481Y-72373856D01*
X68737481Y-73239882D01*
X68684148Y-73391805D01*
X68692471Y-73564424D01*
X68767297Y-73720205D01*
X68896835Y-73834601D01*
X71581513Y-75384601D01*
X71733438Y-75437934D01*
X71906057Y-75429611D01*
X72061837Y-75354785D01*
X72176233Y-75225246D01*
X72630480Y-74438467D01*
X73600821Y-75926324D01*
X73457027Y-75867459D01*
X72315200Y-75872188D01*
X71282253Y-76300049D01*
X71032818Y-76695213D01*
X72898000Y-78560395D01*
X72912143Y-78546253D01*
X73091748Y-78725858D01*
X73077605Y-78740000D01*
X74942787Y-80605182D01*
X75337951Y-80355747D01*
X75770541Y-79299027D01*
X75768389Y-78779346D01*
X77169207Y-80517485D01*
X77262030Y-80595052D01*
X77353681Y-80671758D01*
X77353907Y-80671829D01*
X77354089Y-80671981D01*
X77468401Y-80707768D01*
X77583559Y-80743915D01*
X84513559Y-81493915D01*
X84631840Y-81483415D01*
X84750188Y-81473584D01*
X84888125Y-81434036D01*
X84732119Y-81552500D01*
X75400665Y-81552500D01*
X74255502Y-81286920D01*
X74513747Y-81179951D01*
X74763182Y-80784787D01*
X72898000Y-78919605D01*
X72883858Y-78933748D01*
X72704253Y-78754143D01*
X72718395Y-78740000D01*
X70853213Y-76874818D01*
X70458049Y-77124253D01*
X70025459Y-78180973D01*
X70025795Y-78262027D01*
X66397340Y-70290422D01*
X66499682Y-70256075D01*
X66608727Y-70193118D01*
X68235107Y-71335329D01*
G36*
X101260927Y-48870861D02*
X101204039Y-48927650D01*
X101093126Y-49194756D01*
X101092874Y-49483975D01*
X101203320Y-49751275D01*
X101407650Y-49955961D01*
X101461915Y-49978494D01*
X104549334Y-55729567D01*
X104365244Y-55653126D01*
X104076025Y-55652874D01*
X103808725Y-55763320D01*
X103604039Y-55967650D01*
X103493126Y-56234756D01*
X103492874Y-56523975D01*
X103603320Y-56791275D01*
X103604847Y-56792805D01*
X103631935Y-61536675D01*
X103131425Y-62403584D01*
X103078092Y-62555508D01*
X103084940Y-62697526D01*
X102208826Y-63660717D01*
X101738720Y-63619588D01*
X101578491Y-63635457D01*
X101425563Y-63715953D01*
X101316000Y-63849604D01*
X101267068Y-64015351D01*
X101245961Y-64256607D01*
X100944157Y-63885120D01*
X99325113Y-57621733D01*
X99356874Y-57545244D01*
X99357126Y-57256025D01*
X99246680Y-56988725D01*
X99042350Y-56784039D01*
X98775244Y-56673126D01*
X98486025Y-56672874D01*
X98218725Y-56783320D01*
X98014039Y-56987650D01*
X97903126Y-57254756D01*
X97902874Y-57543975D01*
X98013320Y-57811275D01*
X98128285Y-57926440D01*
X99782151Y-64324540D01*
X99787139Y-64334884D01*
X99788208Y-64346321D01*
X99839291Y-64443040D01*
X99886799Y-64541564D01*
X99895368Y-64549214D01*
X99900731Y-64559368D01*
X101091265Y-66024784D01*
X101040463Y-66605457D01*
X101056332Y-66765687D01*
X101136828Y-66918615D01*
X101270479Y-67028178D01*
X101436227Y-67077110D01*
X101826281Y-67111235D01*
X102654740Y-68879569D01*
X102554170Y-69666057D01*
X102117519Y-68909754D01*
X102012616Y-68787604D01*
X101858961Y-68708502D01*
X101686638Y-68695413D01*
X101522799Y-68750399D01*
X98838121Y-70300399D01*
X98715972Y-70405302D01*
X98636871Y-70558956D01*
X98623781Y-70731279D01*
X98678767Y-70895118D01*
X99178767Y-71761144D01*
X99283670Y-71883294D01*
X99437325Y-71962396D01*
X99609648Y-71975485D01*
X99773487Y-71920499D01*
X102458165Y-70370499D01*
X102464824Y-70364780D01*
X102125111Y-73021457D01*
X100838121Y-73764501D01*
X100715972Y-73869404D01*
X100636871Y-74023058D01*
X100623781Y-74195381D01*
X100678767Y-74359220D01*
X101044910Y-74993399D01*
X100331357Y-75195975D01*
X100320435Y-75201564D01*
X100308255Y-75203025D01*
X98808255Y-75693025D01*
X98805142Y-75694775D01*
X98801598Y-75695241D01*
X98700212Y-75753756D01*
X98598225Y-75811083D01*
X98596018Y-75813892D01*
X98592923Y-75815678D01*
X97132923Y-77095678D01*
X97099328Y-77139446D01*
X97057178Y-77175047D01*
X96792656Y-77506821D01*
X96401233Y-76828856D01*
X96296330Y-76706706D01*
X96142675Y-76627604D01*
X95970352Y-76614515D01*
X95806513Y-76669501D01*
X93121835Y-78219501D01*
X92999686Y-78324404D01*
X92920585Y-78478058D01*
X92907495Y-78650381D01*
X92962481Y-78814220D01*
X93371648Y-79522918D01*
X91945780Y-79741482D01*
X91805244Y-79683126D01*
X91516025Y-79682874D01*
X91248725Y-79793320D01*
X91138496Y-79903358D01*
X91000031Y-79113678D01*
X90580855Y-76130416D01*
X91182466Y-76130416D01*
X91226437Y-76206575D01*
X91352746Y-76425349D01*
X91553162Y-76579134D01*
X91797174Y-76644516D01*
X92047631Y-76611542D01*
X93251890Y-75916263D01*
X93309997Y-75699406D01*
X92885372Y-74963934D01*
X91240573Y-75913559D01*
X91182466Y-76130416D01*
X90580855Y-76130416D01*
X90495658Y-75524077D01*
X90495658Y-75524076D01*
X90434679Y-75090091D01*
X90693463Y-75090091D01*
X90726436Y-75340549D01*
X90852746Y-75559323D01*
X90896716Y-75635482D01*
X91113573Y-75693589D01*
X92597343Y-74836934D01*
X93105342Y-74836934D01*
X93529967Y-75572406D01*
X93746824Y-75630513D01*
X94951083Y-74935233D01*
X95104867Y-74734818D01*
X95170251Y-74490807D01*
X95137278Y-74240349D01*
X95010968Y-74021575D01*
X94966998Y-73945416D01*
X94750141Y-73887309D01*
X93105342Y-74836934D01*
X92597343Y-74836934D01*
X92758372Y-74743964D01*
X92333747Y-74008492D01*
X92116890Y-73950385D01*
X90912631Y-74645665D01*
X90758847Y-74846080D01*
X90693463Y-75090091D01*
X90434679Y-75090091D01*
X90264859Y-73881492D01*
X92553717Y-73881492D01*
X92978342Y-74616964D01*
X94623141Y-73667339D01*
X94681248Y-73450482D01*
X94637277Y-73374323D01*
X94510968Y-73155549D01*
X94310552Y-73001764D01*
X94066540Y-72936382D01*
X93816083Y-72969356D01*
X92611824Y-73664635D01*
X92553717Y-73881492D01*
X90264859Y-73881492D01*
X90162685Y-73154329D01*
X90837061Y-72479953D01*
X90927897Y-72347009D01*
X90964534Y-72178117D01*
X90932577Y-72008278D01*
X90837061Y-71864253D01*
X90118640Y-71145832D01*
X89985696Y-71054996D01*
X89816804Y-71018359D01*
X89646965Y-71050316D01*
X89502940Y-71145832D01*
X88066099Y-72582673D01*
X87975263Y-72715617D01*
X87938626Y-72884509D01*
X87970583Y-73054348D01*
X88066099Y-73198373D01*
X88784520Y-73916794D01*
X88917464Y-74007630D01*
X89039160Y-74034029D01*
X89189350Y-75102922D01*
X88405762Y-75237674D01*
X88405591Y-75236763D01*
X88312073Y-75091433D01*
X88169381Y-74993936D01*
X88000000Y-74959635D01*
X87000000Y-74959635D01*
X86841763Y-74989409D01*
X86696433Y-75082927D01*
X86610281Y-75209014D01*
X86538327Y-75035301D01*
X86359698Y-74856673D01*
X86126309Y-74760000D01*
X85785750Y-74760000D01*
X85627000Y-74918750D01*
X85627000Y-75893000D01*
X85647000Y-75893000D01*
X85647000Y-76147000D01*
X85627000Y-76147000D01*
X85627000Y-77121250D01*
X85785750Y-77280000D01*
X86126309Y-77280000D01*
X86359698Y-77183327D01*
X86538327Y-77004699D01*
X86611058Y-76829110D01*
X86687927Y-76948567D01*
X86830619Y-77046064D01*
X87000000Y-77080365D01*
X88000000Y-77080365D01*
X88158237Y-77050591D01*
X88303567Y-76957073D01*
X88401064Y-76814381D01*
X88435365Y-76645000D01*
X88435365Y-76485711D01*
X89361273Y-76326485D01*
X89778507Y-79295921D01*
X89782022Y-79305987D01*
X89781779Y-79316647D01*
X89953883Y-80298175D01*
X89846680Y-80038725D01*
X89642350Y-79834039D01*
X89375244Y-79723126D01*
X89268705Y-79723033D01*
X88549365Y-79218798D01*
X88549365Y-79010000D01*
X88519591Y-78851763D01*
X88426073Y-78706433D01*
X88283381Y-78608936D01*
X88114000Y-78574635D01*
X87664000Y-78574635D01*
X87505763Y-78604409D01*
X87439325Y-78647161D01*
X87383381Y-78608936D01*
X87214000Y-78574635D01*
X86614000Y-78574635D01*
X86455763Y-78604409D01*
X86415075Y-78630591D01*
X86383381Y-78608936D01*
X86214000Y-78574635D01*
X85926661Y-78574635D01*
X85823698Y-78471673D01*
X85590309Y-78375000D01*
X85497750Y-78375000D01*
X85339000Y-78533750D01*
X85339000Y-79383000D01*
X85361000Y-79383000D01*
X85361000Y-79637000D01*
X85339000Y-79637000D01*
X85339000Y-79657000D01*
X85089000Y-79657000D01*
X85089000Y-79637000D01*
X84487750Y-79637000D01*
X84329000Y-79795750D01*
X84329000Y-80136310D01*
X84370379Y-80236208D01*
X79835010Y-79745367D01*
X79892519Y-79680246D01*
X80267628Y-79030538D01*
X80677869Y-79065296D01*
X80758342Y-79056259D01*
X80839293Y-79057750D01*
X80877016Y-79042933D01*
X80917301Y-79038409D01*
X80988186Y-78999266D01*
X81063550Y-78969664D01*
X81092737Y-78941533D01*
X81128217Y-78921941D01*
X81158745Y-78883690D01*
X84329000Y-78883690D01*
X84329000Y-79224250D01*
X84487750Y-79383000D01*
X85089000Y-79383000D01*
X85089000Y-78533750D01*
X84930250Y-78375000D01*
X84837691Y-78375000D01*
X84604302Y-78471673D01*
X84425673Y-78650301D01*
X84329000Y-78883690D01*
X81158745Y-78883690D01*
X81178723Y-78858658D01*
X81237027Y-78802463D01*
X82972633Y-76305750D01*
X84365000Y-76305750D01*
X84365000Y-76771310D01*
X84461673Y-77004699D01*
X84640302Y-77183327D01*
X84873691Y-77280000D01*
X85214250Y-77280000D01*
X85373000Y-77121250D01*
X85373000Y-76147000D01*
X84523750Y-76147000D01*
X84365000Y-76305750D01*
X82972633Y-76305750D01*
X83677027Y-75292463D01*
X83687391Y-75268690D01*
X84365000Y-75268690D01*
X84365000Y-75734250D01*
X84523750Y-75893000D01*
X85373000Y-75893000D01*
X85373000Y-74918750D01*
X85214250Y-74760000D01*
X84873691Y-74760000D01*
X84640302Y-74856673D01*
X84461673Y-75035301D01*
X84365000Y-75268690D01*
X83687391Y-75268690D01*
X83697310Y-75245939D01*
X83727632Y-75205242D01*
X83744998Y-75136553D01*
X83773314Y-75071603D01*
X83774248Y-75020858D01*
X83786688Y-74971655D01*
X83863051Y-73483975D01*
X85972874Y-73483975D01*
X86083320Y-73751275D01*
X86287650Y-73955961D01*
X86554756Y-74066874D01*
X86843975Y-74067126D01*
X87111275Y-73956680D01*
X87315961Y-73752350D01*
X87426874Y-73485244D01*
X87427085Y-73243245D01*
X87942918Y-72141203D01*
X89220614Y-70863507D01*
X89311450Y-70730563D01*
X89348087Y-70561671D01*
X89316130Y-70391832D01*
X89282362Y-70340914D01*
X91915235Y-67708042D01*
X92771753Y-68564560D01*
X92904697Y-68655396D01*
X93073589Y-68692033D01*
X93243428Y-68660076D01*
X93387453Y-68564560D01*
X94824294Y-67127719D01*
X94915130Y-66994775D01*
X94951767Y-66825883D01*
X94919810Y-66656044D01*
X94824294Y-66512019D01*
X92237981Y-63925706D01*
X92105037Y-63834870D01*
X91936145Y-63798233D01*
X91766306Y-63830190D01*
X91622281Y-63925706D01*
X90185440Y-65362547D01*
X90094604Y-65495491D01*
X90057967Y-65664383D01*
X90089924Y-65834222D01*
X90185440Y-65978247D01*
X91041958Y-66834765D01*
X88410196Y-69466528D01*
X88369249Y-69438550D01*
X88200357Y-69401913D01*
X88030518Y-69433870D01*
X87886493Y-69529386D01*
X86449652Y-70966227D01*
X86358816Y-71099171D01*
X86322179Y-71268063D01*
X86354136Y-71437902D01*
X86449652Y-71581927D01*
X86716297Y-71848572D01*
X86311200Y-72714034D01*
X86288725Y-72723320D01*
X86084039Y-72927650D01*
X85973126Y-73194756D01*
X85972874Y-73483975D01*
X83863051Y-73483975D01*
X84019126Y-70443403D01*
X85253309Y-70443403D01*
X85253309Y-70667909D01*
X85499778Y-70914377D01*
X85733167Y-71011050D01*
X85985786Y-71011051D01*
X86219175Y-70914378D01*
X86397804Y-70735750D01*
X86824854Y-70308699D01*
X86824854Y-70084192D01*
X86218687Y-69478025D01*
X85253309Y-70443403D01*
X84019126Y-70443403D01*
X84044619Y-69946778D01*
X84542538Y-69443247D01*
X84506056Y-69531321D01*
X84506057Y-69783940D01*
X84602730Y-70017329D01*
X84849198Y-70263798D01*
X85073704Y-70263798D01*
X86039082Y-69298420D01*
X86398292Y-69298420D01*
X87004459Y-69904587D01*
X87228966Y-69904587D01*
X87656017Y-69477537D01*
X87834645Y-69298908D01*
X87931318Y-69065519D01*
X87931317Y-68812900D01*
X87834644Y-68579511D01*
X87588176Y-68333042D01*
X87363670Y-68333042D01*
X86398292Y-69298420D01*
X86039082Y-69298420D01*
X86024940Y-69284278D01*
X86204545Y-69104673D01*
X86218687Y-69118815D01*
X87184065Y-68153437D01*
X87184065Y-67928931D01*
X86937596Y-67682463D01*
X86704207Y-67585790D01*
X86451588Y-67585789D01*
X86329135Y-67636511D01*
X90025237Y-63898745D01*
X92398946Y-62605000D01*
X95507500Y-62605000D01*
X95507500Y-63240000D01*
X95554504Y-63476307D01*
X95688362Y-63676638D01*
X95888693Y-63810496D01*
X96125000Y-63857500D01*
X96760000Y-63857500D01*
X96996307Y-63810496D01*
X97196638Y-63676638D01*
X97831639Y-63041638D01*
X97965496Y-62841307D01*
X98012500Y-62605000D01*
X98012500Y-62587500D01*
X98030000Y-62587500D01*
X98266308Y-62540496D01*
X98466639Y-62406639D01*
X98600496Y-62206308D01*
X98647500Y-61970000D01*
X98600496Y-61733693D01*
X98466639Y-61533362D01*
X97831638Y-60898362D01*
X97631307Y-60764504D01*
X97395000Y-60717500D01*
X97158693Y-60764504D01*
X96958362Y-60898362D01*
X96824504Y-61098693D01*
X96777500Y-61335000D01*
X96777500Y-61352500D01*
X96760000Y-61352500D01*
X96523693Y-61399504D01*
X96323362Y-61533361D01*
X95688363Y-62168361D01*
X95688362Y-62168362D01*
X95554504Y-62368693D01*
X95507500Y-62605000D01*
X92398946Y-62605000D01*
X96385514Y-60432197D01*
X96453729Y-60375278D01*
X96527498Y-60325778D01*
X96545523Y-60298686D01*
X96570510Y-60277837D01*
X96611750Y-60199147D01*
X96660960Y-60125183D01*
X100050960Y-51895182D01*
X100058548Y-51856640D01*
X100076019Y-51821455D01*
X100081620Y-51739440D01*
X100097499Y-51658783D01*
X100089759Y-51620270D01*
X100092436Y-51581078D01*
X99624377Y-47948938D01*
X101260927Y-48870861D01*
X101260927Y-48870861D01*
G37*
X101260927Y-48870861D02*
X101204039Y-48927650D01*
X101093126Y-49194756D01*
X101092874Y-49483975D01*
X101203320Y-49751275D01*
X101407650Y-49955961D01*
X101461915Y-49978494D01*
X104549334Y-55729567D01*
X104365244Y-55653126D01*
X104076025Y-55652874D01*
X103808725Y-55763320D01*
X103604039Y-55967650D01*
X103493126Y-56234756D01*
X103492874Y-56523975D01*
X103603320Y-56791275D01*
X103604847Y-56792805D01*
X103631935Y-61536675D01*
X103131425Y-62403584D01*
X103078092Y-62555508D01*
X103084940Y-62697526D01*
X102208826Y-63660717D01*
X101738720Y-63619588D01*
X101578491Y-63635457D01*
X101425563Y-63715953D01*
X101316000Y-63849604D01*
X101267068Y-64015351D01*
X101245961Y-64256607D01*
X100944157Y-63885120D01*
X99325113Y-57621733D01*
X99356874Y-57545244D01*
X99357126Y-57256025D01*
X99246680Y-56988725D01*
X99042350Y-56784039D01*
X98775244Y-56673126D01*
X98486025Y-56672874D01*
X98218725Y-56783320D01*
X98014039Y-56987650D01*
X97903126Y-57254756D01*
X97902874Y-57543975D01*
X98013320Y-57811275D01*
X98128285Y-57926440D01*
X99782151Y-64324540D01*
X99787139Y-64334884D01*
X99788208Y-64346321D01*
X99839291Y-64443040D01*
X99886799Y-64541564D01*
X99895368Y-64549214D01*
X99900731Y-64559368D01*
X101091265Y-66024784D01*
X101040463Y-66605457D01*
X101056332Y-66765687D01*
X101136828Y-66918615D01*
X101270479Y-67028178D01*
X101436227Y-67077110D01*
X101826281Y-67111235D01*
X102654740Y-68879569D01*
X102554170Y-69666057D01*
X102117519Y-68909754D01*
X102012616Y-68787604D01*
X101858961Y-68708502D01*
X101686638Y-68695413D01*
X101522799Y-68750399D01*
X98838121Y-70300399D01*
X98715972Y-70405302D01*
X98636871Y-70558956D01*
X98623781Y-70731279D01*
X98678767Y-70895118D01*
X99178767Y-71761144D01*
X99283670Y-71883294D01*
X99437325Y-71962396D01*
X99609648Y-71975485D01*
X99773487Y-71920499D01*
X102458165Y-70370499D01*
X102464824Y-70364780D01*
X102125111Y-73021457D01*
X100838121Y-73764501D01*
X100715972Y-73869404D01*
X100636871Y-74023058D01*
X100623781Y-74195381D01*
X100678767Y-74359220D01*
X101044910Y-74993399D01*
X100331357Y-75195975D01*
X100320435Y-75201564D01*
X100308255Y-75203025D01*
X98808255Y-75693025D01*
X98805142Y-75694775D01*
X98801598Y-75695241D01*
X98700212Y-75753756D01*
X98598225Y-75811083D01*
X98596018Y-75813892D01*
X98592923Y-75815678D01*
X97132923Y-77095678D01*
X97099328Y-77139446D01*
X97057178Y-77175047D01*
X96792656Y-77506821D01*
X96401233Y-76828856D01*
X96296330Y-76706706D01*
X96142675Y-76627604D01*
X95970352Y-76614515D01*
X95806513Y-76669501D01*
X93121835Y-78219501D01*
X92999686Y-78324404D01*
X92920585Y-78478058D01*
X92907495Y-78650381D01*
X92962481Y-78814220D01*
X93371648Y-79522918D01*
X91945780Y-79741482D01*
X91805244Y-79683126D01*
X91516025Y-79682874D01*
X91248725Y-79793320D01*
X91138496Y-79903358D01*
X91000031Y-79113678D01*
X90580855Y-76130416D01*
X91182466Y-76130416D01*
X91226437Y-76206575D01*
X91352746Y-76425349D01*
X91553162Y-76579134D01*
X91797174Y-76644516D01*
X92047631Y-76611542D01*
X93251890Y-75916263D01*
X93309997Y-75699406D01*
X92885372Y-74963934D01*
X91240573Y-75913559D01*
X91182466Y-76130416D01*
X90580855Y-76130416D01*
X90495658Y-75524077D01*
X90495658Y-75524076D01*
X90434679Y-75090091D01*
X90693463Y-75090091D01*
X90726436Y-75340549D01*
X90852746Y-75559323D01*
X90896716Y-75635482D01*
X91113573Y-75693589D01*
X92597343Y-74836934D01*
X93105342Y-74836934D01*
X93529967Y-75572406D01*
X93746824Y-75630513D01*
X94951083Y-74935233D01*
X95104867Y-74734818D01*
X95170251Y-74490807D01*
X95137278Y-74240349D01*
X95010968Y-74021575D01*
X94966998Y-73945416D01*
X94750141Y-73887309D01*
X93105342Y-74836934D01*
X92597343Y-74836934D01*
X92758372Y-74743964D01*
X92333747Y-74008492D01*
X92116890Y-73950385D01*
X90912631Y-74645665D01*
X90758847Y-74846080D01*
X90693463Y-75090091D01*
X90434679Y-75090091D01*
X90264859Y-73881492D01*
X92553717Y-73881492D01*
X92978342Y-74616964D01*
X94623141Y-73667339D01*
X94681248Y-73450482D01*
X94637277Y-73374323D01*
X94510968Y-73155549D01*
X94310552Y-73001764D01*
X94066540Y-72936382D01*
X93816083Y-72969356D01*
X92611824Y-73664635D01*
X92553717Y-73881492D01*
X90264859Y-73881492D01*
X90162685Y-73154329D01*
X90837061Y-72479953D01*
X90927897Y-72347009D01*
X90964534Y-72178117D01*
X90932577Y-72008278D01*
X90837061Y-71864253D01*
X90118640Y-71145832D01*
X89985696Y-71054996D01*
X89816804Y-71018359D01*
X89646965Y-71050316D01*
X89502940Y-71145832D01*
X88066099Y-72582673D01*
X87975263Y-72715617D01*
X87938626Y-72884509D01*
X87970583Y-73054348D01*
X88066099Y-73198373D01*
X88784520Y-73916794D01*
X88917464Y-74007630D01*
X89039160Y-74034029D01*
X89189350Y-75102922D01*
X88405762Y-75237674D01*
X88405591Y-75236763D01*
X88312073Y-75091433D01*
X88169381Y-74993936D01*
X88000000Y-74959635D01*
X87000000Y-74959635D01*
X86841763Y-74989409D01*
X86696433Y-75082927D01*
X86610281Y-75209014D01*
X86538327Y-75035301D01*
X86359698Y-74856673D01*
X86126309Y-74760000D01*
X85785750Y-74760000D01*
X85627000Y-74918750D01*
X85627000Y-75893000D01*
X85647000Y-75893000D01*
X85647000Y-76147000D01*
X85627000Y-76147000D01*
X85627000Y-77121250D01*
X85785750Y-77280000D01*
X86126309Y-77280000D01*
X86359698Y-77183327D01*
X86538327Y-77004699D01*
X86611058Y-76829110D01*
X86687927Y-76948567D01*
X86830619Y-77046064D01*
X87000000Y-77080365D01*
X88000000Y-77080365D01*
X88158237Y-77050591D01*
X88303567Y-76957073D01*
X88401064Y-76814381D01*
X88435365Y-76645000D01*
X88435365Y-76485711D01*
X89361273Y-76326485D01*
X89778507Y-79295921D01*
X89782022Y-79305987D01*
X89781779Y-79316647D01*
X89953883Y-80298175D01*
X89846680Y-80038725D01*
X89642350Y-79834039D01*
X89375244Y-79723126D01*
X89268705Y-79723033D01*
X88549365Y-79218798D01*
X88549365Y-79010000D01*
X88519591Y-78851763D01*
X88426073Y-78706433D01*
X88283381Y-78608936D01*
X88114000Y-78574635D01*
X87664000Y-78574635D01*
X87505763Y-78604409D01*
X87439325Y-78647161D01*
X87383381Y-78608936D01*
X87214000Y-78574635D01*
X86614000Y-78574635D01*
X86455763Y-78604409D01*
X86415075Y-78630591D01*
X86383381Y-78608936D01*
X86214000Y-78574635D01*
X85926661Y-78574635D01*
X85823698Y-78471673D01*
X85590309Y-78375000D01*
X85497750Y-78375000D01*
X85339000Y-78533750D01*
X85339000Y-79383000D01*
X85361000Y-79383000D01*
X85361000Y-79637000D01*
X85339000Y-79637000D01*
X85339000Y-79657000D01*
X85089000Y-79657000D01*
X85089000Y-79637000D01*
X84487750Y-79637000D01*
X84329000Y-79795750D01*
X84329000Y-80136310D01*
X84370379Y-80236208D01*
X79835010Y-79745367D01*
X79892519Y-79680246D01*
X80267628Y-79030538D01*
X80677869Y-79065296D01*
X80758342Y-79056259D01*
X80839293Y-79057750D01*
X80877016Y-79042933D01*
X80917301Y-79038409D01*
X80988186Y-78999266D01*
X81063550Y-78969664D01*
X81092737Y-78941533D01*
X81128217Y-78921941D01*
X81158745Y-78883690D01*
X84329000Y-78883690D01*
X84329000Y-79224250D01*
X84487750Y-79383000D01*
X85089000Y-79383000D01*
X85089000Y-78533750D01*
X84930250Y-78375000D01*
X84837691Y-78375000D01*
X84604302Y-78471673D01*
X84425673Y-78650301D01*
X84329000Y-78883690D01*
X81158745Y-78883690D01*
X81178723Y-78858658D01*
X81237027Y-78802463D01*
X82972633Y-76305750D01*
X84365000Y-76305750D01*
X84365000Y-76771310D01*
X84461673Y-77004699D01*
X84640302Y-77183327D01*
X84873691Y-77280000D01*
X85214250Y-77280000D01*
X85373000Y-77121250D01*
X85373000Y-76147000D01*
X84523750Y-76147000D01*
X84365000Y-76305750D01*
X82972633Y-76305750D01*
X83677027Y-75292463D01*
X83687391Y-75268690D01*
X84365000Y-75268690D01*
X84365000Y-75734250D01*
X84523750Y-75893000D01*
X85373000Y-75893000D01*
X85373000Y-74918750D01*
X85214250Y-74760000D01*
X84873691Y-74760000D01*
X84640302Y-74856673D01*
X84461673Y-75035301D01*
X84365000Y-75268690D01*
X83687391Y-75268690D01*
X83697310Y-75245939D01*
X83727632Y-75205242D01*
X83744998Y-75136553D01*
X83773314Y-75071603D01*
X83774248Y-75020858D01*
X83786688Y-74971655D01*
X83863051Y-73483975D01*
X85972874Y-73483975D01*
X86083320Y-73751275D01*
X86287650Y-73955961D01*
X86554756Y-74066874D01*
X86843975Y-74067126D01*
X87111275Y-73956680D01*
X87315961Y-73752350D01*
X87426874Y-73485244D01*
X87427085Y-73243245D01*
X87942918Y-72141203D01*
X89220614Y-70863507D01*
X89311450Y-70730563D01*
X89348087Y-70561671D01*
X89316130Y-70391832D01*
X89282362Y-70340914D01*
X91915235Y-67708042D01*
X92771753Y-68564560D01*
X92904697Y-68655396D01*
X93073589Y-68692033D01*
X93243428Y-68660076D01*
X93387453Y-68564560D01*
X94824294Y-67127719D01*
X94915130Y-66994775D01*
X94951767Y-66825883D01*
X94919810Y-66656044D01*
X94824294Y-66512019D01*
X92237981Y-63925706D01*
X92105037Y-63834870D01*
X91936145Y-63798233D01*
X91766306Y-63830190D01*
X91622281Y-63925706D01*
X90185440Y-65362547D01*
X90094604Y-65495491D01*
X90057967Y-65664383D01*
X90089924Y-65834222D01*
X90185440Y-65978247D01*
X91041958Y-66834765D01*
X88410196Y-69466528D01*
X88369249Y-69438550D01*
X88200357Y-69401913D01*
X88030518Y-69433870D01*
X87886493Y-69529386D01*
X86449652Y-70966227D01*
X86358816Y-71099171D01*
X86322179Y-71268063D01*
X86354136Y-71437902D01*
X86449652Y-71581927D01*
X86716297Y-71848572D01*
X86311200Y-72714034D01*
X86288725Y-72723320D01*
X86084039Y-72927650D01*
X85973126Y-73194756D01*
X85972874Y-73483975D01*
X83863051Y-73483975D01*
X84019126Y-70443403D01*
X85253309Y-70443403D01*
X85253309Y-70667909D01*
X85499778Y-70914377D01*
X85733167Y-71011050D01*
X85985786Y-71011051D01*
X86219175Y-70914378D01*
X86397804Y-70735750D01*
X86824854Y-70308699D01*
X86824854Y-70084192D01*
X86218687Y-69478025D01*
X85253309Y-70443403D01*
X84019126Y-70443403D01*
X84044619Y-69946778D01*
X84542538Y-69443247D01*
X84506056Y-69531321D01*
X84506057Y-69783940D01*
X84602730Y-70017329D01*
X84849198Y-70263798D01*
X85073704Y-70263798D01*
X86039082Y-69298420D01*
X86398292Y-69298420D01*
X87004459Y-69904587D01*
X87228966Y-69904587D01*
X87656017Y-69477537D01*
X87834645Y-69298908D01*
X87931318Y-69065519D01*
X87931317Y-68812900D01*
X87834644Y-68579511D01*
X87588176Y-68333042D01*
X87363670Y-68333042D01*
X86398292Y-69298420D01*
X86039082Y-69298420D01*
X86024940Y-69284278D01*
X86204545Y-69104673D01*
X86218687Y-69118815D01*
X87184065Y-68153437D01*
X87184065Y-67928931D01*
X86937596Y-67682463D01*
X86704207Y-67585790D01*
X86451588Y-67585789D01*
X86329135Y-67636511D01*
X90025237Y-63898745D01*
X92398946Y-62605000D01*
X95507500Y-62605000D01*
X95507500Y-63240000D01*
X95554504Y-63476307D01*
X95688362Y-63676638D01*
X95888693Y-63810496D01*
X96125000Y-63857500D01*
X96760000Y-63857500D01*
X96996307Y-63810496D01*
X97196638Y-63676638D01*
X97831639Y-63041638D01*
X97965496Y-62841307D01*
X98012500Y-62605000D01*
X98012500Y-62587500D01*
X98030000Y-62587500D01*
X98266308Y-62540496D01*
X98466639Y-62406639D01*
X98600496Y-62206308D01*
X98647500Y-61970000D01*
X98600496Y-61733693D01*
X98466639Y-61533362D01*
X97831638Y-60898362D01*
X97631307Y-60764504D01*
X97395000Y-60717500D01*
X97158693Y-60764504D01*
X96958362Y-60898362D01*
X96824504Y-61098693D01*
X96777500Y-61335000D01*
X96777500Y-61352500D01*
X96760000Y-61352500D01*
X96523693Y-61399504D01*
X96323362Y-61533361D01*
X95688363Y-62168361D01*
X95688362Y-62168362D01*
X95554504Y-62368693D01*
X95507500Y-62605000D01*
X92398946Y-62605000D01*
X96385514Y-60432197D01*
X96453729Y-60375278D01*
X96527498Y-60325778D01*
X96545523Y-60298686D01*
X96570510Y-60277837D01*
X96611750Y-60199147D01*
X96660960Y-60125183D01*
X100050960Y-51895182D01*
X100058548Y-51856640D01*
X100076019Y-51821455D01*
X100081620Y-51739440D01*
X100097499Y-51658783D01*
X100089759Y-51620270D01*
X100092436Y-51581078D01*
X99624377Y-47948938D01*
X101260927Y-48870861D01*
G36*
X96258827Y-39880525D02*
X96297147Y-39952471D01*
X96325935Y-40028734D01*
X96353293Y-40057887D01*
X96372090Y-40093179D01*
X96435026Y-40144983D01*
X96490808Y-40204426D01*
X96527248Y-40220894D01*
X96558113Y-40246300D01*
X96636076Y-40270076D01*
X96710365Y-40303648D01*
X102584020Y-41667175D01*
X103830819Y-49675816D01*
X103773126Y-49814756D01*
X103772874Y-50103975D01*
X103847716Y-50285106D01*
X102884875Y-48479453D01*
X102850443Y-48437413D01*
X102825893Y-48388929D01*
X102774839Y-48345103D01*
X102732211Y-48293055D01*
X102684312Y-48267392D01*
X102643077Y-48231994D01*
X96643077Y-44851994D01*
X96570695Y-44828274D01*
X96502533Y-44794274D01*
X94778873Y-44324006D01*
X94730188Y-44079252D01*
X94529240Y-43778512D01*
X94228500Y-43577564D01*
X93873752Y-43507000D01*
X91798248Y-43507000D01*
X91443500Y-43577564D01*
X91142760Y-43778512D01*
X90941812Y-44079252D01*
X90871248Y-44434000D01*
X90941812Y-44788748D01*
X91142760Y-45089488D01*
X91443500Y-45290436D01*
X91798248Y-45361000D01*
X93873752Y-45361000D01*
X93881805Y-45359398D01*
X96063299Y-45954577D01*
X94605023Y-45891929D01*
X94529240Y-45778512D01*
X94228500Y-45577564D01*
X93873752Y-45507000D01*
X91798248Y-45507000D01*
X91443500Y-45577564D01*
X91142760Y-45778512D01*
X90941812Y-46079252D01*
X90871248Y-46434000D01*
X90941812Y-46788748D01*
X91142760Y-47089488D01*
X91443500Y-47290436D01*
X91798248Y-47361000D01*
X93873752Y-47361000D01*
X94228500Y-47290436D01*
X94479567Y-47122678D01*
X96537269Y-47211079D01*
X97462723Y-47690041D01*
X97205244Y-47583126D01*
X96916025Y-47582874D01*
X96648725Y-47693320D01*
X96637385Y-47704640D01*
X94512058Y-47767032D01*
X94228500Y-47577564D01*
X93873752Y-47507000D01*
X91798248Y-47507000D01*
X91443500Y-47577564D01*
X91176880Y-47755714D01*
X87437058Y-47619617D01*
X87644898Y-47533527D01*
X87823527Y-47354899D01*
X87920200Y-47121510D01*
X87920200Y-45045750D01*
X87761450Y-44887000D01*
X85177000Y-44887000D01*
X85177000Y-44907000D01*
X84923000Y-44907000D01*
X84923000Y-44887000D01*
X82338550Y-44887000D01*
X82179800Y-45045750D01*
X82179800Y-47121510D01*
X82276473Y-47354899D01*
X82356298Y-47434723D01*
X81335876Y-47397589D01*
X81322350Y-47384039D01*
X81055244Y-47273126D01*
X80766025Y-47272874D01*
X80498725Y-47383320D01*
X80294039Y-47587650D01*
X80183126Y-47854756D01*
X80182874Y-48143975D01*
X80293320Y-48411275D01*
X80497650Y-48615961D01*
X80764756Y-48726874D01*
X81053975Y-48727126D01*
X81285251Y-48631565D01*
X91074826Y-48987818D01*
X91142760Y-49089488D01*
X91443500Y-49290436D01*
X91798248Y-49361000D01*
X93873752Y-49361000D01*
X94228500Y-49290436D01*
X94529240Y-49089488D01*
X94588827Y-49000310D01*
X96678937Y-48938952D01*
X96914756Y-49036874D01*
X97203975Y-49037126D01*
X97471275Y-48926680D01*
X97675961Y-48722350D01*
X97786874Y-48455244D01*
X97787126Y-48166025D01*
X97676680Y-47898725D01*
X97474384Y-47696077D01*
X98408906Y-48179732D01*
X98846616Y-51576366D01*
X97970760Y-53702707D01*
X97822350Y-53554039D01*
X97681754Y-53495658D01*
X95618360Y-50675385D01*
X95553195Y-50615547D01*
X95494708Y-50549184D01*
X95465145Y-50534695D01*
X95440893Y-50512426D01*
X95357796Y-50482084D01*
X95278358Y-50443151D01*
X94776063Y-50309880D01*
X94730188Y-50079252D01*
X94529240Y-49778512D01*
X94228500Y-49577564D01*
X93873752Y-49507000D01*
X91798248Y-49507000D01*
X91443500Y-49577564D01*
X91142760Y-49778512D01*
X90941812Y-50079252D01*
X90871248Y-50434000D01*
X90941812Y-50788748D01*
X91142760Y-51089488D01*
X91443500Y-51290436D01*
X91623381Y-51326217D01*
X91284322Y-51433998D01*
X90943632Y-51721237D01*
X90741881Y-52132126D01*
X90868046Y-52307000D01*
X92709000Y-52307000D01*
X92709000Y-52287000D01*
X92963000Y-52287000D01*
X92963000Y-52307000D01*
X94803954Y-52307000D01*
X94930119Y-52132126D01*
X94728368Y-51721237D01*
X94475192Y-51507782D01*
X94750578Y-51580849D01*
X96682954Y-54222044D01*
X96682874Y-54313975D01*
X96793320Y-54581275D01*
X96997650Y-54785961D01*
X97264756Y-54896874D01*
X97478796Y-54897060D01*
X95602371Y-59452512D01*
X89354486Y-62857803D01*
X89285422Y-62915429D01*
X89210921Y-62965816D01*
X83000921Y-69245816D01*
X82944046Y-69331977D01*
X82882368Y-69414758D01*
X82878002Y-69432029D01*
X82868189Y-69446894D01*
X82848617Y-69548253D01*
X82823312Y-69648345D01*
X82562349Y-74732287D01*
X82405223Y-74958317D01*
X82362703Y-74869795D01*
X82233165Y-74755399D01*
X79548487Y-73205399D01*
X79396562Y-73152066D01*
X79223943Y-73160389D01*
X79068163Y-73235215D01*
X78953767Y-73364754D01*
X78453767Y-74230780D01*
X78400434Y-74382703D01*
X78408757Y-74555322D01*
X78483583Y-74711103D01*
X78613121Y-74825499D01*
X81297799Y-76375499D01*
X81396076Y-76409999D01*
X80426622Y-77804583D01*
X79357635Y-77714013D01*
X77548487Y-76669501D01*
X77396562Y-76616168D01*
X77223943Y-76624491D01*
X77068163Y-76699317D01*
X76953767Y-76828856D01*
X76464943Y-77675524D01*
X75160267Y-76056679D01*
X73077225Y-72862680D01*
X73063658Y-72848807D01*
X73055330Y-72831279D01*
X72979864Y-72763123D01*
X72908767Y-72690423D01*
X72890923Y-72682798D01*
X72876522Y-72669792D01*
X70488850Y-71244406D01*
X72328717Y-71244406D01*
X72386824Y-71461263D01*
X73591083Y-72156542D01*
X73841540Y-72189516D01*
X74085552Y-72124134D01*
X74285968Y-71970349D01*
X74412277Y-71751575D01*
X74456248Y-71675416D01*
X74398141Y-71458559D01*
X72753342Y-70508934D01*
X72328717Y-71244406D01*
X70488850Y-71244406D01*
X68926164Y-70311518D01*
X68533583Y-70035807D01*
X70468463Y-70035807D01*
X70533847Y-70279818D01*
X70687631Y-70480233D01*
X71891890Y-71175513D01*
X72108747Y-71117406D01*
X72533372Y-70381934D01*
X72372344Y-70288964D01*
X72880342Y-70288964D01*
X74525141Y-71238589D01*
X74741998Y-71180482D01*
X74785968Y-71104323D01*
X74912278Y-70885549D01*
X74945251Y-70635091D01*
X74879867Y-70391080D01*
X74726083Y-70190665D01*
X73521824Y-69495385D01*
X73304967Y-69553492D01*
X72880342Y-70288964D01*
X72372344Y-70288964D01*
X70888573Y-69432309D01*
X70671716Y-69490416D01*
X70627746Y-69566575D01*
X70501436Y-69785349D01*
X70468463Y-70035807D01*
X68533583Y-70035807D01*
X67577096Y-69364064D01*
X67580049Y-69325195D01*
X67525063Y-69161356D01*
X67429296Y-68995482D01*
X70957466Y-68995482D01*
X71015573Y-69212339D01*
X72660372Y-70161964D01*
X73084997Y-69426492D01*
X73026890Y-69209635D01*
X71822631Y-68514356D01*
X71572174Y-68481382D01*
X71328162Y-68546764D01*
X71127746Y-68700549D01*
X71001437Y-68919323D01*
X70957466Y-68995482D01*
X67429296Y-68995482D01*
X67300063Y-68771644D01*
X67195160Y-68649494D01*
X67124917Y-68613333D01*
X67128980Y-68559846D01*
X67670196Y-68118595D01*
X67705484Y-68075878D01*
X67749039Y-68041632D01*
X67781468Y-67983899D01*
X67823645Y-67932843D01*
X67839900Y-67879873D01*
X67867034Y-67831566D01*
X67874901Y-67765813D01*
X67894328Y-67702507D01*
X67889075Y-67647352D01*
X67895658Y-67592336D01*
X67802615Y-66390526D01*
X67833721Y-66436998D01*
X67847274Y-66446038D01*
X67857028Y-66459087D01*
X67947047Y-66512585D01*
X68034163Y-66570690D01*
X70654635Y-67653598D01*
X70654635Y-67960000D01*
X70684409Y-68118237D01*
X70777927Y-68263567D01*
X70920619Y-68361064D01*
X71090000Y-68395365D01*
X71790000Y-68395365D01*
X71948237Y-68365591D01*
X72093567Y-68272073D01*
X72191064Y-68129381D01*
X72225365Y-67960000D01*
X72225365Y-66660000D01*
X72195591Y-66501763D01*
X72102073Y-66356433D01*
X71959381Y-66258936D01*
X71790000Y-66224635D01*
X71090000Y-66224635D01*
X70931763Y-66254409D01*
X70786433Y-66347927D01*
X70773732Y-66366516D01*
X68922184Y-65601365D01*
X69250000Y-65601365D01*
X69408237Y-65571591D01*
X69553567Y-65478073D01*
X69651064Y-65335381D01*
X69685365Y-65166000D01*
X69685365Y-64371809D01*
X70043270Y-63724597D01*
X70014635Y-63866000D01*
X70014635Y-65166000D01*
X70044409Y-65324237D01*
X70137927Y-65469567D01*
X70280619Y-65567064D01*
X70450000Y-65601365D01*
X71150000Y-65601365D01*
X71308237Y-65571591D01*
X71453567Y-65478073D01*
X71551064Y-65335381D01*
X71585365Y-65166000D01*
X71585365Y-64995248D01*
X72709865Y-64781458D01*
X72716409Y-64816237D01*
X72809927Y-64961567D01*
X72952619Y-65059064D01*
X73122000Y-65093365D01*
X73822000Y-65093365D01*
X73980237Y-65063591D01*
X74008569Y-65045360D01*
X73282861Y-66224635D01*
X72990000Y-66224635D01*
X72831763Y-66254409D01*
X72686433Y-66347927D01*
X72588936Y-66490619D01*
X72554635Y-66660000D01*
X72554635Y-67960000D01*
X72584409Y-68118237D01*
X72677927Y-68263567D01*
X72820619Y-68361064D01*
X72990000Y-68395365D01*
X73690000Y-68395365D01*
X73848237Y-68365591D01*
X73993567Y-68272073D01*
X74091064Y-68129381D01*
X74125365Y-67960000D01*
X74125365Y-67211998D01*
X75178657Y-65500399D01*
X75665151Y-67107266D01*
X75405548Y-67366869D01*
X75314712Y-67499813D01*
X75278075Y-67668705D01*
X75310032Y-67838544D01*
X75405548Y-67982569D01*
X76289431Y-68866452D01*
X76422375Y-68957288D01*
X76591267Y-68993925D01*
X76761106Y-68961968D01*
X76905131Y-68866452D01*
X77612238Y-68159345D01*
X77703074Y-68026401D01*
X77739711Y-67857509D01*
X77707754Y-67687670D01*
X77612238Y-67543645D01*
X76859831Y-66791238D01*
X76769327Y-66492305D01*
X76819762Y-66568355D01*
X77703645Y-67452238D01*
X77836589Y-67543074D01*
X78005481Y-67579711D01*
X78175320Y-67547754D01*
X78319345Y-67452238D01*
X79026452Y-66745131D01*
X79117288Y-66612187D01*
X79153925Y-66443295D01*
X79121968Y-66273456D01*
X79026452Y-66129431D01*
X78414967Y-65517946D01*
X78140569Y-63810841D01*
X78196874Y-63675244D01*
X78197126Y-63386025D01*
X78086680Y-63118725D01*
X77903319Y-62935045D01*
X77676098Y-62342000D01*
X78924635Y-62342000D01*
X78924635Y-63642000D01*
X78954409Y-63800237D01*
X79047927Y-63945567D01*
X79190619Y-64043064D01*
X79360000Y-64077365D01*
X80660000Y-64077365D01*
X80818237Y-64047591D01*
X80963567Y-63954073D01*
X81006651Y-63891016D01*
X83090590Y-63891016D01*
X83146271Y-64121611D01*
X83629078Y-64289622D01*
X84139428Y-64260083D01*
X84473729Y-64121611D01*
X84529410Y-63891016D01*
X83810000Y-63171605D01*
X83090590Y-63891016D01*
X81006651Y-63891016D01*
X81061064Y-63811381D01*
X81095365Y-63642000D01*
X81095365Y-62811078D01*
X82512378Y-62811078D01*
X82541917Y-63321428D01*
X82680389Y-63655729D01*
X82910984Y-63711410D01*
X83630395Y-62992000D01*
X83989605Y-62992000D01*
X84709016Y-63711410D01*
X84939611Y-63655729D01*
X85107622Y-63172922D01*
X85078083Y-62662572D01*
X84939611Y-62328271D01*
X84709016Y-62272590D01*
X83989605Y-62992000D01*
X83630395Y-62992000D01*
X82910984Y-62272590D01*
X82680389Y-62328271D01*
X82512378Y-62811078D01*
X81095365Y-62811078D01*
X81095365Y-62342000D01*
X81065591Y-62183763D01*
X81007176Y-62092984D01*
X83090590Y-62092984D01*
X83810000Y-62812395D01*
X84529410Y-62092984D01*
X84473729Y-61862389D01*
X83990922Y-61694378D01*
X83480572Y-61723917D01*
X83146271Y-61862389D01*
X83090590Y-62092984D01*
X81007176Y-62092984D01*
X80972073Y-62038433D01*
X80829381Y-61940936D01*
X80660000Y-61906635D01*
X79360000Y-61906635D01*
X79201763Y-61936409D01*
X79056433Y-62029927D01*
X78958936Y-62172619D01*
X78924635Y-62342000D01*
X77676098Y-62342000D01*
X77173365Y-61029877D01*
X77173365Y-60056000D01*
X77143591Y-59897763D01*
X77050073Y-59752433D01*
X76907381Y-59654936D01*
X76738000Y-59620635D01*
X76038000Y-59620635D01*
X75879763Y-59650409D01*
X75734433Y-59743927D01*
X75636936Y-59886619D01*
X75602635Y-60056000D01*
X75602635Y-61356000D01*
X75632409Y-61514237D01*
X75725927Y-61659567D01*
X75868619Y-61757064D01*
X76038000Y-61791365D01*
X76142578Y-61791365D01*
X76748302Y-63372292D01*
X76743126Y-63384756D01*
X76742874Y-63673975D01*
X76853320Y-63941275D01*
X76921691Y-64009765D01*
X77176627Y-65595790D01*
X76819762Y-65952655D01*
X76728926Y-66085599D01*
X76694392Y-66244798D01*
X76157365Y-64471023D01*
X76157365Y-63358000D01*
X76127591Y-63199763D01*
X76034073Y-63054433D01*
X75891381Y-62956936D01*
X75722000Y-62922635D01*
X75022000Y-62922635D01*
X74863763Y-62952409D01*
X74718433Y-63045927D01*
X74620936Y-63188619D01*
X74586635Y-63358000D01*
X74586635Y-64106002D01*
X74257365Y-64641066D01*
X74257365Y-63358000D01*
X74227591Y-63199763D01*
X74134073Y-63054433D01*
X73991381Y-62956936D01*
X73822000Y-62922635D01*
X73122000Y-62922635D01*
X72963763Y-62952409D01*
X72818433Y-63045927D01*
X72720936Y-63188619D01*
X72686635Y-63358000D01*
X72686635Y-63528752D01*
X71562135Y-63742542D01*
X71555591Y-63707763D01*
X71484735Y-63597651D01*
X71515186Y-63171744D01*
X71638237Y-63148591D01*
X71783567Y-63055073D01*
X71881064Y-62912381D01*
X71915365Y-62743000D01*
X71915365Y-62093000D01*
X71885591Y-61934763D01*
X71792073Y-61789433D01*
X71649381Y-61691936D01*
X71480000Y-61657635D01*
X70477500Y-61657635D01*
X70477500Y-61530000D01*
X70467812Y-61481296D01*
X70469621Y-61431674D01*
X70444894Y-61278365D01*
X70925919Y-61278365D01*
X71213651Y-61499559D01*
X71314737Y-61549522D01*
X71414501Y-61602036D01*
X71422470Y-61602770D01*
X71429645Y-61606316D01*
X71542131Y-61613789D01*
X71654422Y-61624130D01*
X73712465Y-61408241D01*
X73732409Y-61514237D01*
X73825927Y-61659567D01*
X73968619Y-61757064D01*
X74138000Y-61791365D01*
X74838000Y-61791365D01*
X74996237Y-61761591D01*
X75141567Y-61668073D01*
X75239064Y-61525381D01*
X75273365Y-61356000D01*
X75273365Y-60056000D01*
X75243591Y-59897763D01*
X75150073Y-59752433D01*
X75007381Y-59654936D01*
X74838000Y-59620635D01*
X74138000Y-59620635D01*
X73979763Y-59650409D01*
X73834433Y-59743927D01*
X73736936Y-59886619D01*
X73702635Y-60056000D01*
X73702635Y-60167497D01*
X72792126Y-60263009D01*
X72836874Y-60155244D01*
X72837126Y-59866025D01*
X72801656Y-59780180D01*
X72834049Y-59647365D01*
X73040000Y-59647365D01*
X73198237Y-59617591D01*
X73343567Y-59524073D01*
X73441064Y-59381381D01*
X73475365Y-59212000D01*
X73475365Y-58512000D01*
X73445591Y-58353763D01*
X73352073Y-58208433D01*
X73209381Y-58110936D01*
X73040000Y-58076635D01*
X72168979Y-58076635D01*
X72488420Y-57747365D01*
X73040000Y-57747365D01*
X73198237Y-57717591D01*
X73343567Y-57624073D01*
X73441064Y-57481381D01*
X73475365Y-57312000D01*
X73475365Y-56612000D01*
X73445591Y-56453763D01*
X73352073Y-56308433D01*
X73209381Y-56210936D01*
X73144498Y-56197797D01*
X73608971Y-53432278D01*
X73607424Y-53380654D01*
X73617500Y-53330000D01*
X73617500Y-53130365D01*
X73804392Y-53130365D01*
X74301618Y-54301347D01*
X74335772Y-54351495D01*
X74359455Y-54407345D01*
X74402921Y-54450091D01*
X74437243Y-54500486D01*
X74487982Y-54533742D01*
X74531240Y-54576284D01*
X74587767Y-54599146D01*
X74638752Y-54632564D01*
X74698353Y-54643872D01*
X74754600Y-54666621D01*
X74923927Y-54698833D01*
X74941812Y-54788748D01*
X75142760Y-55089488D01*
X75443500Y-55290436D01*
X75798248Y-55361000D01*
X76286411Y-55361000D01*
X76452234Y-57567979D01*
X76388936Y-57660619D01*
X76354635Y-57830000D01*
X76354635Y-59130000D01*
X76384409Y-59288237D01*
X76477927Y-59433567D01*
X76620619Y-59531064D01*
X76790000Y-59565365D01*
X77490000Y-59565365D01*
X77648237Y-59535591D01*
X77793567Y-59442073D01*
X77891064Y-59299381D01*
X77925365Y-59130000D01*
X77925365Y-57830000D01*
X78254635Y-57830000D01*
X78254635Y-59130000D01*
X78284409Y-59288237D01*
X78377927Y-59433567D01*
X78520619Y-59531064D01*
X78690000Y-59565365D01*
X79390000Y-59565365D01*
X79548237Y-59535591D01*
X79693567Y-59442073D01*
X79791064Y-59299381D01*
X79825365Y-59130000D01*
X79825365Y-59037947D01*
X81639963Y-58895988D01*
X81834756Y-58976874D01*
X82123975Y-58977126D01*
X82391275Y-58866680D01*
X82595961Y-58662350D01*
X82706874Y-58395244D01*
X82707126Y-58106025D01*
X82596680Y-57838725D01*
X82392350Y-57634039D01*
X82125244Y-57523126D01*
X81836025Y-57522874D01*
X81568725Y-57633320D01*
X81536696Y-57665294D01*
X79819649Y-57799620D01*
X79795591Y-57671763D01*
X79702073Y-57526433D01*
X79559381Y-57428936D01*
X79390000Y-57394635D01*
X78690000Y-57394635D01*
X78531763Y-57424409D01*
X78386433Y-57517927D01*
X78288936Y-57660619D01*
X78254635Y-57830000D01*
X77925365Y-57830000D01*
X77895591Y-57671763D01*
X77802073Y-57526433D01*
X77681398Y-57443979D01*
X77524891Y-55361000D01*
X77873752Y-55361000D01*
X78228500Y-55290436D01*
X78529240Y-55089488D01*
X78730188Y-54788748D01*
X78800752Y-54434000D01*
X78793243Y-54396248D01*
X78909000Y-54396248D01*
X78909000Y-56471752D01*
X78979564Y-56826500D01*
X79180512Y-57127240D01*
X79481252Y-57328188D01*
X79836000Y-57398752D01*
X80190748Y-57328188D01*
X80491488Y-57127240D01*
X80692436Y-56826500D01*
X80763000Y-56471752D01*
X80763000Y-54396248D01*
X80909000Y-54396248D01*
X80909000Y-56471752D01*
X80979564Y-56826500D01*
X81180512Y-57127240D01*
X81481252Y-57328188D01*
X81836000Y-57398752D01*
X82190748Y-57328188D01*
X82491488Y-57127240D01*
X82692436Y-56826500D01*
X82763000Y-56471752D01*
X82763000Y-54396248D01*
X82909000Y-54396248D01*
X82909000Y-56471752D01*
X82979564Y-56826500D01*
X83180512Y-57127240D01*
X83481252Y-57328188D01*
X83836000Y-57398752D01*
X84190748Y-57328188D01*
X84491488Y-57127240D01*
X84692436Y-56826500D01*
X84763000Y-56471752D01*
X84763000Y-54396248D01*
X84909000Y-54396248D01*
X84909000Y-56471752D01*
X84979564Y-56826500D01*
X85180512Y-57127240D01*
X85481252Y-57328188D01*
X85836000Y-57398752D01*
X86190748Y-57328188D01*
X86491488Y-57127240D01*
X86692436Y-56826500D01*
X86763000Y-56471752D01*
X86763000Y-54396248D01*
X86909000Y-54396248D01*
X86909000Y-56471752D01*
X86979564Y-56826500D01*
X87180512Y-57127240D01*
X87481252Y-57328188D01*
X87836000Y-57398752D01*
X88190748Y-57328188D01*
X88491488Y-57127240D01*
X88692436Y-56826500D01*
X88763000Y-56471752D01*
X88763000Y-54396248D01*
X88909000Y-54396248D01*
X88909000Y-56471752D01*
X88979564Y-56826500D01*
X89180512Y-57127240D01*
X89481252Y-57328188D01*
X89836000Y-57398752D01*
X90190748Y-57328188D01*
X90491488Y-57127240D01*
X90692436Y-56826500D01*
X90763000Y-56471752D01*
X90763000Y-54778885D01*
X90943632Y-55146763D01*
X91284322Y-55434002D01*
X91709000Y-55569000D01*
X92709000Y-55569000D01*
X92709000Y-54561000D01*
X92963000Y-54561000D01*
X92963000Y-55569000D01*
X93963000Y-55569000D01*
X94387678Y-55434002D01*
X94728368Y-55146763D01*
X94930119Y-54735874D01*
X94803954Y-54561000D01*
X92963000Y-54561000D01*
X92709000Y-54561000D01*
X92689000Y-54561000D01*
X92689000Y-54307000D01*
X92709000Y-54307000D01*
X92709000Y-52561000D01*
X92963000Y-52561000D01*
X92963000Y-54307000D01*
X94803954Y-54307000D01*
X94930119Y-54132126D01*
X94728368Y-53721237D01*
X94387680Y-53434000D01*
X94728368Y-53146763D01*
X94930119Y-52735874D01*
X94803954Y-52561000D01*
X92963000Y-52561000D01*
X92709000Y-52561000D01*
X90868046Y-52561000D01*
X90741881Y-52735874D01*
X90943632Y-53146763D01*
X91284320Y-53434000D01*
X90943632Y-53721237D01*
X90741881Y-54132126D01*
X90868045Y-54306998D01*
X90745247Y-54306998D01*
X90692436Y-54041500D01*
X90491488Y-53740760D01*
X90190748Y-53539812D01*
X89836000Y-53469248D01*
X89481252Y-53539812D01*
X89180512Y-53740760D01*
X88979564Y-54041500D01*
X88909000Y-54396248D01*
X88763000Y-54396248D01*
X88692436Y-54041500D01*
X88491488Y-53740760D01*
X88190748Y-53539812D01*
X87836000Y-53469248D01*
X87481252Y-53539812D01*
X87180512Y-53740760D01*
X86979564Y-54041500D01*
X86909000Y-54396248D01*
X86763000Y-54396248D01*
X86692436Y-54041500D01*
X86491488Y-53740760D01*
X86190748Y-53539812D01*
X85836000Y-53469248D01*
X85481252Y-53539812D01*
X85180512Y-53740760D01*
X84979564Y-54041500D01*
X84909000Y-54396248D01*
X84763000Y-54396248D01*
X84692436Y-54041500D01*
X84491488Y-53740760D01*
X84190748Y-53539812D01*
X83836000Y-53469248D01*
X83481252Y-53539812D01*
X83180512Y-53740760D01*
X82979564Y-54041500D01*
X82909000Y-54396248D01*
X82763000Y-54396248D01*
X82692436Y-54041500D01*
X82491488Y-53740760D01*
X82190748Y-53539812D01*
X81836000Y-53469248D01*
X81481252Y-53539812D01*
X81180512Y-53740760D01*
X80979564Y-54041500D01*
X80909000Y-54396248D01*
X80763000Y-54396248D01*
X80692436Y-54041500D01*
X80491488Y-53740760D01*
X80190748Y-53539812D01*
X79836000Y-53469248D01*
X79481252Y-53539812D01*
X79180512Y-53740760D01*
X78979564Y-54041500D01*
X78909000Y-54396248D01*
X78793243Y-54396248D01*
X78730188Y-54079252D01*
X78568326Y-53837008D01*
X78703975Y-53837126D01*
X78971275Y-53726680D01*
X79175961Y-53522350D01*
X79286874Y-53255244D01*
X79287126Y-52966025D01*
X79254479Y-52887013D01*
X79383975Y-52887126D01*
X79651275Y-52776680D01*
X79855961Y-52572350D01*
X79966874Y-52305244D01*
X79967126Y-52016025D01*
X79856680Y-51748725D01*
X79652350Y-51544039D01*
X79572147Y-51510735D01*
X79520613Y-51424159D01*
X79500536Y-51401871D01*
X79487846Y-51374683D01*
X79420482Y-51313001D01*
X79359356Y-51245144D01*
X79332275Y-51232234D01*
X79310149Y-51211975D01*
X78696146Y-50839696D01*
X78730188Y-50788748D01*
X78800752Y-50434000D01*
X78730188Y-50079252D01*
X78529240Y-49778512D01*
X78228500Y-49577564D01*
X77873752Y-49507000D01*
X75798248Y-49507000D01*
X75443500Y-49577564D01*
X75142760Y-49778512D01*
X74941812Y-50079252D01*
X74897963Y-50299696D01*
X74872350Y-50274039D01*
X74605244Y-50163126D01*
X74316025Y-50162874D01*
X74165454Y-50225089D01*
X74362844Y-49863908D01*
X75952822Y-49361000D01*
X77873752Y-49361000D01*
X78228500Y-49290436D01*
X78529240Y-49089488D01*
X78730188Y-48788748D01*
X78800752Y-48434000D01*
X78730188Y-48079252D01*
X78529240Y-47778512D01*
X78228500Y-47577564D01*
X77873752Y-47507000D01*
X75798248Y-47507000D01*
X75443500Y-47577564D01*
X75142760Y-47778512D01*
X74941812Y-48079252D01*
X74876810Y-48406036D01*
X73753779Y-48761249D01*
X73653804Y-48816215D01*
X73552712Y-48869048D01*
X73548458Y-48874134D01*
X73542649Y-48877328D01*
X73471338Y-48966346D01*
X73398140Y-49053867D01*
X72458140Y-50773867D01*
X72448117Y-50805837D01*
X72445335Y-50810000D01*
X72310750Y-50810000D01*
X72152000Y-50968750D01*
X72152000Y-51943000D01*
X72172000Y-51943000D01*
X72172000Y-52197000D01*
X72152000Y-52197000D01*
X72152000Y-53171250D01*
X72310750Y-53330000D01*
X72373851Y-53330000D01*
X71935331Y-55940995D01*
X71934130Y-55940231D01*
X71105365Y-55413106D01*
X71105365Y-54925000D01*
X71075591Y-54766763D01*
X70982073Y-54621433D01*
X70839381Y-54523936D01*
X70670000Y-54489635D01*
X69934482Y-54489635D01*
X70686372Y-52676254D01*
X70904589Y-52197002D01*
X71048748Y-52197002D01*
X70890000Y-52355750D01*
X70890000Y-52821310D01*
X70986673Y-53054699D01*
X71165302Y-53233327D01*
X71398691Y-53330000D01*
X71739250Y-53330000D01*
X71898000Y-53171250D01*
X71898000Y-52197000D01*
X71878000Y-52197000D01*
X71878000Y-51943000D01*
X71898000Y-51943000D01*
X71898000Y-50968750D01*
X71739250Y-50810000D01*
X71536130Y-50810000D01*
X74113016Y-45150597D01*
X74112874Y-45313975D01*
X74223320Y-45581275D01*
X74427650Y-45785961D01*
X74694756Y-45896874D01*
X74983975Y-45897126D01*
X75093836Y-45851733D01*
X74941812Y-46079252D01*
X74871248Y-46434000D01*
X74941812Y-46788748D01*
X75142760Y-47089488D01*
X75443500Y-47290436D01*
X75798248Y-47361000D01*
X77873752Y-47361000D01*
X78228500Y-47290436D01*
X78529240Y-47089488D01*
X78730188Y-46788748D01*
X78800752Y-46434000D01*
X78749878Y-46178242D01*
X79083233Y-46013760D01*
X79162028Y-45953271D01*
X79244845Y-45898424D01*
X79257041Y-45880333D01*
X79274349Y-45867046D01*
X79323995Y-45781012D01*
X79379523Y-45698643D01*
X79383868Y-45677258D01*
X79394772Y-45658362D01*
X79407715Y-45559885D01*
X79427495Y-45462531D01*
X79437495Y-43022531D01*
X79435077Y-43010109D01*
X79437094Y-42997618D01*
X79415364Y-42398490D01*
X82179800Y-42398490D01*
X82179800Y-44474250D01*
X82338550Y-44633000D01*
X84923000Y-44633000D01*
X84923000Y-42048550D01*
X85177000Y-42048550D01*
X85177000Y-44633000D01*
X87761450Y-44633000D01*
X87920200Y-44474250D01*
X87920200Y-42398490D01*
X87823527Y-42165101D01*
X87644898Y-41986473D01*
X87411509Y-41889800D01*
X85335750Y-41889800D01*
X85177000Y-42048550D01*
X84923000Y-42048550D01*
X84764250Y-41889800D01*
X82688491Y-41889800D01*
X82455102Y-41986473D01*
X82276473Y-42165101D01*
X82179800Y-42398490D01*
X79415364Y-42398490D01*
X79367094Y-41067618D01*
X79365194Y-41059597D01*
X79366294Y-41051426D01*
X79337497Y-40942677D01*
X79311556Y-40833170D01*
X79306728Y-40826483D01*
X79304619Y-40818517D01*
X79236387Y-40729051D01*
X79170525Y-40637823D01*
X79163511Y-40633496D01*
X79158510Y-40626938D01*
X79061216Y-40570383D01*
X78965474Y-40511314D01*
X78957335Y-40510000D01*
X78950208Y-40505857D01*
X78796910Y-40453316D01*
X78800752Y-40434000D01*
X78730188Y-40079252D01*
X78591707Y-39872000D01*
X91080293Y-39872000D01*
X90941812Y-40079252D01*
X90871248Y-40434000D01*
X90941812Y-40788748D01*
X91142760Y-41089488D01*
X91443500Y-41290436D01*
X91798248Y-41361000D01*
X93873752Y-41361000D01*
X94102149Y-41315569D01*
X94610992Y-41416827D01*
X94041688Y-41540405D01*
X93873752Y-41507000D01*
X91798248Y-41507000D01*
X91443500Y-41577564D01*
X91142760Y-41778512D01*
X90941812Y-42079252D01*
X90871248Y-42434000D01*
X90941812Y-42788748D01*
X91142760Y-43089488D01*
X91443500Y-43290436D01*
X91798248Y-43361000D01*
X93873752Y-43361000D01*
X94228500Y-43290436D01*
X94529240Y-43089488D01*
X94730188Y-42788748D01*
X94758052Y-42648666D01*
X95004384Y-42595195D01*
X95104756Y-42636874D01*
X95393975Y-42637126D01*
X95661275Y-42526680D01*
X95865961Y-42322350D01*
X95976874Y-42055244D01*
X95977014Y-41894929D01*
X96616231Y-42255714D01*
X96643320Y-42321275D01*
X96847650Y-42525961D01*
X97114756Y-42636874D01*
X97403975Y-42637126D01*
X97671275Y-42526680D01*
X97875961Y-42322350D01*
X97986874Y-42055244D01*
X97987126Y-41766025D01*
X97876680Y-41498725D01*
X97672350Y-41294039D01*
X97405244Y-41183126D01*
X97228180Y-41182972D01*
X95933519Y-40452243D01*
X95840739Y-40421754D01*
X95750518Y-40384375D01*
X94751330Y-40185539D01*
X94730188Y-40079252D01*
X94529240Y-39778512D01*
X94347000Y-39656743D01*
X94347000Y-33544567D01*
X96258827Y-39880525D01*
X96258827Y-39880525D01*
G37*
X96258827Y-39880525D02*
X96297147Y-39952471D01*
X96325935Y-40028734D01*
X96353293Y-40057887D01*
X96372090Y-40093179D01*
X96435026Y-40144983D01*
X96490808Y-40204426D01*
X96527248Y-40220894D01*
X96558113Y-40246300D01*
X96636076Y-40270076D01*
X96710365Y-40303648D01*
X102584020Y-41667175D01*
X103830819Y-49675816D01*
X103773126Y-49814756D01*
X103772874Y-50103975D01*
X103847716Y-50285106D01*
X102884875Y-48479453D01*
X102850443Y-48437413D01*
X102825893Y-48388929D01*
X102774839Y-48345103D01*
X102732211Y-48293055D01*
X102684312Y-48267392D01*
X102643077Y-48231994D01*
X96643077Y-44851994D01*
X96570695Y-44828274D01*
X96502533Y-44794274D01*
X94778873Y-44324006D01*
X94730188Y-44079252D01*
X94529240Y-43778512D01*
X94228500Y-43577564D01*
X93873752Y-43507000D01*
X91798248Y-43507000D01*
X91443500Y-43577564D01*
X91142760Y-43778512D01*
X90941812Y-44079252D01*
X90871248Y-44434000D01*
X90941812Y-44788748D01*
X91142760Y-45089488D01*
X91443500Y-45290436D01*
X91798248Y-45361000D01*
X93873752Y-45361000D01*
X93881805Y-45359398D01*
X96063299Y-45954577D01*
X94605023Y-45891929D01*
X94529240Y-45778512D01*
X94228500Y-45577564D01*
X93873752Y-45507000D01*
X91798248Y-45507000D01*
X91443500Y-45577564D01*
X91142760Y-45778512D01*
X90941812Y-46079252D01*
X90871248Y-46434000D01*
X90941812Y-46788748D01*
X91142760Y-47089488D01*
X91443500Y-47290436D01*
X91798248Y-47361000D01*
X93873752Y-47361000D01*
X94228500Y-47290436D01*
X94479567Y-47122678D01*
X96537269Y-47211079D01*
X97462723Y-47690041D01*
X97205244Y-47583126D01*
X96916025Y-47582874D01*
X96648725Y-47693320D01*
X96637385Y-47704640D01*
X94512058Y-47767032D01*
X94228500Y-47577564D01*
X93873752Y-47507000D01*
X91798248Y-47507000D01*
X91443500Y-47577564D01*
X91176880Y-47755714D01*
X87437058Y-47619617D01*
X87644898Y-47533527D01*
X87823527Y-47354899D01*
X87920200Y-47121510D01*
X87920200Y-45045750D01*
X87761450Y-44887000D01*
X85177000Y-44887000D01*
X85177000Y-44907000D01*
X84923000Y-44907000D01*
X84923000Y-44887000D01*
X82338550Y-44887000D01*
X82179800Y-45045750D01*
X82179800Y-47121510D01*
X82276473Y-47354899D01*
X82356298Y-47434723D01*
X81335876Y-47397589D01*
X81322350Y-47384039D01*
X81055244Y-47273126D01*
X80766025Y-47272874D01*
X80498725Y-47383320D01*
X80294039Y-47587650D01*
X80183126Y-47854756D01*
X80182874Y-48143975D01*
X80293320Y-48411275D01*
X80497650Y-48615961D01*
X80764756Y-48726874D01*
X81053975Y-48727126D01*
X81285251Y-48631565D01*
X91074826Y-48987818D01*
X91142760Y-49089488D01*
X91443500Y-49290436D01*
X91798248Y-49361000D01*
X93873752Y-49361000D01*
X94228500Y-49290436D01*
X94529240Y-49089488D01*
X94588827Y-49000310D01*
X96678937Y-48938952D01*
X96914756Y-49036874D01*
X97203975Y-49037126D01*
X97471275Y-48926680D01*
X97675961Y-48722350D01*
X97786874Y-48455244D01*
X97787126Y-48166025D01*
X97676680Y-47898725D01*
X97474384Y-47696077D01*
X98408906Y-48179732D01*
X98846616Y-51576366D01*
X97970760Y-53702707D01*
X97822350Y-53554039D01*
X97681754Y-53495658D01*
X95618360Y-50675385D01*
X95553195Y-50615547D01*
X95494708Y-50549184D01*
X95465145Y-50534695D01*
X95440893Y-50512426D01*
X95357796Y-50482084D01*
X95278358Y-50443151D01*
X94776063Y-50309880D01*
X94730188Y-50079252D01*
X94529240Y-49778512D01*
X94228500Y-49577564D01*
X93873752Y-49507000D01*
X91798248Y-49507000D01*
X91443500Y-49577564D01*
X91142760Y-49778512D01*
X90941812Y-50079252D01*
X90871248Y-50434000D01*
X90941812Y-50788748D01*
X91142760Y-51089488D01*
X91443500Y-51290436D01*
X91623381Y-51326217D01*
X91284322Y-51433998D01*
X90943632Y-51721237D01*
X90741881Y-52132126D01*
X90868046Y-52307000D01*
X92709000Y-52307000D01*
X92709000Y-52287000D01*
X92963000Y-52287000D01*
X92963000Y-52307000D01*
X94803954Y-52307000D01*
X94930119Y-52132126D01*
X94728368Y-51721237D01*
X94475192Y-51507782D01*
X94750578Y-51580849D01*
X96682954Y-54222044D01*
X96682874Y-54313975D01*
X96793320Y-54581275D01*
X96997650Y-54785961D01*
X97264756Y-54896874D01*
X97478796Y-54897060D01*
X95602371Y-59452512D01*
X89354486Y-62857803D01*
X89285422Y-62915429D01*
X89210921Y-62965816D01*
X83000921Y-69245816D01*
X82944046Y-69331977D01*
X82882368Y-69414758D01*
X82878002Y-69432029D01*
X82868189Y-69446894D01*
X82848617Y-69548253D01*
X82823312Y-69648345D01*
X82562349Y-74732287D01*
X82405223Y-74958317D01*
X82362703Y-74869795D01*
X82233165Y-74755399D01*
X79548487Y-73205399D01*
X79396562Y-73152066D01*
X79223943Y-73160389D01*
X79068163Y-73235215D01*
X78953767Y-73364754D01*
X78453767Y-74230780D01*
X78400434Y-74382703D01*
X78408757Y-74555322D01*
X78483583Y-74711103D01*
X78613121Y-74825499D01*
X81297799Y-76375499D01*
X81396076Y-76409999D01*
X80426622Y-77804583D01*
X79357635Y-77714013D01*
X77548487Y-76669501D01*
X77396562Y-76616168D01*
X77223943Y-76624491D01*
X77068163Y-76699317D01*
X76953767Y-76828856D01*
X76464943Y-77675524D01*
X75160267Y-76056679D01*
X73077225Y-72862680D01*
X73063658Y-72848807D01*
X73055330Y-72831279D01*
X72979864Y-72763123D01*
X72908767Y-72690423D01*
X72890923Y-72682798D01*
X72876522Y-72669792D01*
X70488850Y-71244406D01*
X72328717Y-71244406D01*
X72386824Y-71461263D01*
X73591083Y-72156542D01*
X73841540Y-72189516D01*
X74085552Y-72124134D01*
X74285968Y-71970349D01*
X74412277Y-71751575D01*
X74456248Y-71675416D01*
X74398141Y-71458559D01*
X72753342Y-70508934D01*
X72328717Y-71244406D01*
X70488850Y-71244406D01*
X68926164Y-70311518D01*
X68533583Y-70035807D01*
X70468463Y-70035807D01*
X70533847Y-70279818D01*
X70687631Y-70480233D01*
X71891890Y-71175513D01*
X72108747Y-71117406D01*
X72533372Y-70381934D01*
X72372344Y-70288964D01*
X72880342Y-70288964D01*
X74525141Y-71238589D01*
X74741998Y-71180482D01*
X74785968Y-71104323D01*
X74912278Y-70885549D01*
X74945251Y-70635091D01*
X74879867Y-70391080D01*
X74726083Y-70190665D01*
X73521824Y-69495385D01*
X73304967Y-69553492D01*
X72880342Y-70288964D01*
X72372344Y-70288964D01*
X70888573Y-69432309D01*
X70671716Y-69490416D01*
X70627746Y-69566575D01*
X70501436Y-69785349D01*
X70468463Y-70035807D01*
X68533583Y-70035807D01*
X67577096Y-69364064D01*
X67580049Y-69325195D01*
X67525063Y-69161356D01*
X67429296Y-68995482D01*
X70957466Y-68995482D01*
X71015573Y-69212339D01*
X72660372Y-70161964D01*
X73084997Y-69426492D01*
X73026890Y-69209635D01*
X71822631Y-68514356D01*
X71572174Y-68481382D01*
X71328162Y-68546764D01*
X71127746Y-68700549D01*
X71001437Y-68919323D01*
X70957466Y-68995482D01*
X67429296Y-68995482D01*
X67300063Y-68771644D01*
X67195160Y-68649494D01*
X67124917Y-68613333D01*
X67128980Y-68559846D01*
X67670196Y-68118595D01*
X67705484Y-68075878D01*
X67749039Y-68041632D01*
X67781468Y-67983899D01*
X67823645Y-67932843D01*
X67839900Y-67879873D01*
X67867034Y-67831566D01*
X67874901Y-67765813D01*
X67894328Y-67702507D01*
X67889075Y-67647352D01*
X67895658Y-67592336D01*
X67802615Y-66390526D01*
X67833721Y-66436998D01*
X67847274Y-66446038D01*
X67857028Y-66459087D01*
X67947047Y-66512585D01*
X68034163Y-66570690D01*
X70654635Y-67653598D01*
X70654635Y-67960000D01*
X70684409Y-68118237D01*
X70777927Y-68263567D01*
X70920619Y-68361064D01*
X71090000Y-68395365D01*
X71790000Y-68395365D01*
X71948237Y-68365591D01*
X72093567Y-68272073D01*
X72191064Y-68129381D01*
X72225365Y-67960000D01*
X72225365Y-66660000D01*
X72195591Y-66501763D01*
X72102073Y-66356433D01*
X71959381Y-66258936D01*
X71790000Y-66224635D01*
X71090000Y-66224635D01*
X70931763Y-66254409D01*
X70786433Y-66347927D01*
X70773732Y-66366516D01*
X68922184Y-65601365D01*
X69250000Y-65601365D01*
X69408237Y-65571591D01*
X69553567Y-65478073D01*
X69651064Y-65335381D01*
X69685365Y-65166000D01*
X69685365Y-64371809D01*
X70043270Y-63724597D01*
X70014635Y-63866000D01*
X70014635Y-65166000D01*
X70044409Y-65324237D01*
X70137927Y-65469567D01*
X70280619Y-65567064D01*
X70450000Y-65601365D01*
X71150000Y-65601365D01*
X71308237Y-65571591D01*
X71453567Y-65478073D01*
X71551064Y-65335381D01*
X71585365Y-65166000D01*
X71585365Y-64995248D01*
X72709865Y-64781458D01*
X72716409Y-64816237D01*
X72809927Y-64961567D01*
X72952619Y-65059064D01*
X73122000Y-65093365D01*
X73822000Y-65093365D01*
X73980237Y-65063591D01*
X74008569Y-65045360D01*
X73282861Y-66224635D01*
X72990000Y-66224635D01*
X72831763Y-66254409D01*
X72686433Y-66347927D01*
X72588936Y-66490619D01*
X72554635Y-66660000D01*
X72554635Y-67960000D01*
X72584409Y-68118237D01*
X72677927Y-68263567D01*
X72820619Y-68361064D01*
X72990000Y-68395365D01*
X73690000Y-68395365D01*
X73848237Y-68365591D01*
X73993567Y-68272073D01*
X74091064Y-68129381D01*
X74125365Y-67960000D01*
X74125365Y-67211998D01*
X75178657Y-65500399D01*
X75665151Y-67107266D01*
X75405548Y-67366869D01*
X75314712Y-67499813D01*
X75278075Y-67668705D01*
X75310032Y-67838544D01*
X75405548Y-67982569D01*
X76289431Y-68866452D01*
X76422375Y-68957288D01*
X76591267Y-68993925D01*
X76761106Y-68961968D01*
X76905131Y-68866452D01*
X77612238Y-68159345D01*
X77703074Y-68026401D01*
X77739711Y-67857509D01*
X77707754Y-67687670D01*
X77612238Y-67543645D01*
X76859831Y-66791238D01*
X76769327Y-66492305D01*
X76819762Y-66568355D01*
X77703645Y-67452238D01*
X77836589Y-67543074D01*
X78005481Y-67579711D01*
X78175320Y-67547754D01*
X78319345Y-67452238D01*
X79026452Y-66745131D01*
X79117288Y-66612187D01*
X79153925Y-66443295D01*
X79121968Y-66273456D01*
X79026452Y-66129431D01*
X78414967Y-65517946D01*
X78140569Y-63810841D01*
X78196874Y-63675244D01*
X78197126Y-63386025D01*
X78086680Y-63118725D01*
X77903319Y-62935045D01*
X77676098Y-62342000D01*
X78924635Y-62342000D01*
X78924635Y-63642000D01*
X78954409Y-63800237D01*
X79047927Y-63945567D01*
X79190619Y-64043064D01*
X79360000Y-64077365D01*
X80660000Y-64077365D01*
X80818237Y-64047591D01*
X80963567Y-63954073D01*
X81006651Y-63891016D01*
X83090590Y-63891016D01*
X83146271Y-64121611D01*
X83629078Y-64289622D01*
X84139428Y-64260083D01*
X84473729Y-64121611D01*
X84529410Y-63891016D01*
X83810000Y-63171605D01*
X83090590Y-63891016D01*
X81006651Y-63891016D01*
X81061064Y-63811381D01*
X81095365Y-63642000D01*
X81095365Y-62811078D01*
X82512378Y-62811078D01*
X82541917Y-63321428D01*
X82680389Y-63655729D01*
X82910984Y-63711410D01*
X83630395Y-62992000D01*
X83989605Y-62992000D01*
X84709016Y-63711410D01*
X84939611Y-63655729D01*
X85107622Y-63172922D01*
X85078083Y-62662572D01*
X84939611Y-62328271D01*
X84709016Y-62272590D01*
X83989605Y-62992000D01*
X83630395Y-62992000D01*
X82910984Y-62272590D01*
X82680389Y-62328271D01*
X82512378Y-62811078D01*
X81095365Y-62811078D01*
X81095365Y-62342000D01*
X81065591Y-62183763D01*
X81007176Y-62092984D01*
X83090590Y-62092984D01*
X83810000Y-62812395D01*
X84529410Y-62092984D01*
X84473729Y-61862389D01*
X83990922Y-61694378D01*
X83480572Y-61723917D01*
X83146271Y-61862389D01*
X83090590Y-62092984D01*
X81007176Y-62092984D01*
X80972073Y-62038433D01*
X80829381Y-61940936D01*
X80660000Y-61906635D01*
X79360000Y-61906635D01*
X79201763Y-61936409D01*
X79056433Y-62029927D01*
X78958936Y-62172619D01*
X78924635Y-62342000D01*
X77676098Y-62342000D01*
X77173365Y-61029877D01*
X77173365Y-60056000D01*
X77143591Y-59897763D01*
X77050073Y-59752433D01*
X76907381Y-59654936D01*
X76738000Y-59620635D01*
X76038000Y-59620635D01*
X75879763Y-59650409D01*
X75734433Y-59743927D01*
X75636936Y-59886619D01*
X75602635Y-60056000D01*
X75602635Y-61356000D01*
X75632409Y-61514237D01*
X75725927Y-61659567D01*
X75868619Y-61757064D01*
X76038000Y-61791365D01*
X76142578Y-61791365D01*
X76748302Y-63372292D01*
X76743126Y-63384756D01*
X76742874Y-63673975D01*
X76853320Y-63941275D01*
X76921691Y-64009765D01*
X77176627Y-65595790D01*
X76819762Y-65952655D01*
X76728926Y-66085599D01*
X76694392Y-66244798D01*
X76157365Y-64471023D01*
X76157365Y-63358000D01*
X76127591Y-63199763D01*
X76034073Y-63054433D01*
X75891381Y-62956936D01*
X75722000Y-62922635D01*
X75022000Y-62922635D01*
X74863763Y-62952409D01*
X74718433Y-63045927D01*
X74620936Y-63188619D01*
X74586635Y-63358000D01*
X74586635Y-64106002D01*
X74257365Y-64641066D01*
X74257365Y-63358000D01*
X74227591Y-63199763D01*
X74134073Y-63054433D01*
X73991381Y-62956936D01*
X73822000Y-62922635D01*
X73122000Y-62922635D01*
X72963763Y-62952409D01*
X72818433Y-63045927D01*
X72720936Y-63188619D01*
X72686635Y-63358000D01*
X72686635Y-63528752D01*
X71562135Y-63742542D01*
X71555591Y-63707763D01*
X71484735Y-63597651D01*
X71515186Y-63171744D01*
X71638237Y-63148591D01*
X71783567Y-63055073D01*
X71881064Y-62912381D01*
X71915365Y-62743000D01*
X71915365Y-62093000D01*
X71885591Y-61934763D01*
X71792073Y-61789433D01*
X71649381Y-61691936D01*
X71480000Y-61657635D01*
X70477500Y-61657635D01*
X70477500Y-61530000D01*
X70467812Y-61481296D01*
X70469621Y-61431674D01*
X70444894Y-61278365D01*
X70925919Y-61278365D01*
X71213651Y-61499559D01*
X71314737Y-61549522D01*
X71414501Y-61602036D01*
X71422470Y-61602770D01*
X71429645Y-61606316D01*
X71542131Y-61613789D01*
X71654422Y-61624130D01*
X73712465Y-61408241D01*
X73732409Y-61514237D01*
X73825927Y-61659567D01*
X73968619Y-61757064D01*
X74138000Y-61791365D01*
X74838000Y-61791365D01*
X74996237Y-61761591D01*
X75141567Y-61668073D01*
X75239064Y-61525381D01*
X75273365Y-61356000D01*
X75273365Y-60056000D01*
X75243591Y-59897763D01*
X75150073Y-59752433D01*
X75007381Y-59654936D01*
X74838000Y-59620635D01*
X74138000Y-59620635D01*
X73979763Y-59650409D01*
X73834433Y-59743927D01*
X73736936Y-59886619D01*
X73702635Y-60056000D01*
X73702635Y-60167497D01*
X72792126Y-60263009D01*
X72836874Y-60155244D01*
X72837126Y-59866025D01*
X72801656Y-59780180D01*
X72834049Y-59647365D01*
X73040000Y-59647365D01*
X73198237Y-59617591D01*
X73343567Y-59524073D01*
X73441064Y-59381381D01*
X73475365Y-59212000D01*
X73475365Y-58512000D01*
X73445591Y-58353763D01*
X73352073Y-58208433D01*
X73209381Y-58110936D01*
X73040000Y-58076635D01*
X72168979Y-58076635D01*
X72488420Y-57747365D01*
X73040000Y-57747365D01*
X73198237Y-57717591D01*
X73343567Y-57624073D01*
X73441064Y-57481381D01*
X73475365Y-57312000D01*
X73475365Y-56612000D01*
X73445591Y-56453763D01*
X73352073Y-56308433D01*
X73209381Y-56210936D01*
X73144498Y-56197797D01*
X73608971Y-53432278D01*
X73607424Y-53380654D01*
X73617500Y-53330000D01*
X73617500Y-53130365D01*
X73804392Y-53130365D01*
X74301618Y-54301347D01*
X74335772Y-54351495D01*
X74359455Y-54407345D01*
X74402921Y-54450091D01*
X74437243Y-54500486D01*
X74487982Y-54533742D01*
X74531240Y-54576284D01*
X74587767Y-54599146D01*
X74638752Y-54632564D01*
X74698353Y-54643872D01*
X74754600Y-54666621D01*
X74923927Y-54698833D01*
X74941812Y-54788748D01*
X75142760Y-55089488D01*
X75443500Y-55290436D01*
X75798248Y-55361000D01*
X76286411Y-55361000D01*
X76452234Y-57567979D01*
X76388936Y-57660619D01*
X76354635Y-57830000D01*
X76354635Y-59130000D01*
X76384409Y-59288237D01*
X76477927Y-59433567D01*
X76620619Y-59531064D01*
X76790000Y-59565365D01*
X77490000Y-59565365D01*
X77648237Y-59535591D01*
X77793567Y-59442073D01*
X77891064Y-59299381D01*
X77925365Y-59130000D01*
X77925365Y-57830000D01*
X78254635Y-57830000D01*
X78254635Y-59130000D01*
X78284409Y-59288237D01*
X78377927Y-59433567D01*
X78520619Y-59531064D01*
X78690000Y-59565365D01*
X79390000Y-59565365D01*
X79548237Y-59535591D01*
X79693567Y-59442073D01*
X79791064Y-59299381D01*
X79825365Y-59130000D01*
X79825365Y-59037947D01*
X81639963Y-58895988D01*
X81834756Y-58976874D01*
X82123975Y-58977126D01*
X82391275Y-58866680D01*
X82595961Y-58662350D01*
X82706874Y-58395244D01*
X82707126Y-58106025D01*
X82596680Y-57838725D01*
X82392350Y-57634039D01*
X82125244Y-57523126D01*
X81836025Y-57522874D01*
X81568725Y-57633320D01*
X81536696Y-57665294D01*
X79819649Y-57799620D01*
X79795591Y-57671763D01*
X79702073Y-57526433D01*
X79559381Y-57428936D01*
X79390000Y-57394635D01*
X78690000Y-57394635D01*
X78531763Y-57424409D01*
X78386433Y-57517927D01*
X78288936Y-57660619D01*
X78254635Y-57830000D01*
X77925365Y-57830000D01*
X77895591Y-57671763D01*
X77802073Y-57526433D01*
X77681398Y-57443979D01*
X77524891Y-55361000D01*
X77873752Y-55361000D01*
X78228500Y-55290436D01*
X78529240Y-55089488D01*
X78730188Y-54788748D01*
X78800752Y-54434000D01*
X78793243Y-54396248D01*
X78909000Y-54396248D01*
X78909000Y-56471752D01*
X78979564Y-56826500D01*
X79180512Y-57127240D01*
X79481252Y-57328188D01*
X79836000Y-57398752D01*
X80190748Y-57328188D01*
X80491488Y-57127240D01*
X80692436Y-56826500D01*
X80763000Y-56471752D01*
X80763000Y-54396248D01*
X80909000Y-54396248D01*
X80909000Y-56471752D01*
X80979564Y-56826500D01*
X81180512Y-57127240D01*
X81481252Y-57328188D01*
X81836000Y-57398752D01*
X82190748Y-57328188D01*
X82491488Y-57127240D01*
X82692436Y-56826500D01*
X82763000Y-56471752D01*
X82763000Y-54396248D01*
X82909000Y-54396248D01*
X82909000Y-56471752D01*
X82979564Y-56826500D01*
X83180512Y-57127240D01*
X83481252Y-57328188D01*
X83836000Y-57398752D01*
X84190748Y-57328188D01*
X84491488Y-57127240D01*
X84692436Y-56826500D01*
X84763000Y-56471752D01*
X84763000Y-54396248D01*
X84909000Y-54396248D01*
X84909000Y-56471752D01*
X84979564Y-56826500D01*
X85180512Y-57127240D01*
X85481252Y-57328188D01*
X85836000Y-57398752D01*
X86190748Y-57328188D01*
X86491488Y-57127240D01*
X86692436Y-56826500D01*
X86763000Y-56471752D01*
X86763000Y-54396248D01*
X86909000Y-54396248D01*
X86909000Y-56471752D01*
X86979564Y-56826500D01*
X87180512Y-57127240D01*
X87481252Y-57328188D01*
X87836000Y-57398752D01*
X88190748Y-57328188D01*
X88491488Y-57127240D01*
X88692436Y-56826500D01*
X88763000Y-56471752D01*
X88763000Y-54396248D01*
X88909000Y-54396248D01*
X88909000Y-56471752D01*
X88979564Y-56826500D01*
X89180512Y-57127240D01*
X89481252Y-57328188D01*
X89836000Y-57398752D01*
X90190748Y-57328188D01*
X90491488Y-57127240D01*
X90692436Y-56826500D01*
X90763000Y-56471752D01*
X90763000Y-54778885D01*
X90943632Y-55146763D01*
X91284322Y-55434002D01*
X91709000Y-55569000D01*
X92709000Y-55569000D01*
X92709000Y-54561000D01*
X92963000Y-54561000D01*
X92963000Y-55569000D01*
X93963000Y-55569000D01*
X94387678Y-55434002D01*
X94728368Y-55146763D01*
X94930119Y-54735874D01*
X94803954Y-54561000D01*
X92963000Y-54561000D01*
X92709000Y-54561000D01*
X92689000Y-54561000D01*
X92689000Y-54307000D01*
X92709000Y-54307000D01*
X92709000Y-52561000D01*
X92963000Y-52561000D01*
X92963000Y-54307000D01*
X94803954Y-54307000D01*
X94930119Y-54132126D01*
X94728368Y-53721237D01*
X94387680Y-53434000D01*
X94728368Y-53146763D01*
X94930119Y-52735874D01*
X94803954Y-52561000D01*
X92963000Y-52561000D01*
X92709000Y-52561000D01*
X90868046Y-52561000D01*
X90741881Y-52735874D01*
X90943632Y-53146763D01*
X91284320Y-53434000D01*
X90943632Y-53721237D01*
X90741881Y-54132126D01*
X90868045Y-54306998D01*
X90745247Y-54306998D01*
X90692436Y-54041500D01*
X90491488Y-53740760D01*
X90190748Y-53539812D01*
X89836000Y-53469248D01*
X89481252Y-53539812D01*
X89180512Y-53740760D01*
X88979564Y-54041500D01*
X88909000Y-54396248D01*
X88763000Y-54396248D01*
X88692436Y-54041500D01*
X88491488Y-53740760D01*
X88190748Y-53539812D01*
X87836000Y-53469248D01*
X87481252Y-53539812D01*
X87180512Y-53740760D01*
X86979564Y-54041500D01*
X86909000Y-54396248D01*
X86763000Y-54396248D01*
X86692436Y-54041500D01*
X86491488Y-53740760D01*
X86190748Y-53539812D01*
X85836000Y-53469248D01*
X85481252Y-53539812D01*
X85180512Y-53740760D01*
X84979564Y-54041500D01*
X84909000Y-54396248D01*
X84763000Y-54396248D01*
X84692436Y-54041500D01*
X84491488Y-53740760D01*
X84190748Y-53539812D01*
X83836000Y-53469248D01*
X83481252Y-53539812D01*
X83180512Y-53740760D01*
X82979564Y-54041500D01*
X82909000Y-54396248D01*
X82763000Y-54396248D01*
X82692436Y-54041500D01*
X82491488Y-53740760D01*
X82190748Y-53539812D01*
X81836000Y-53469248D01*
X81481252Y-53539812D01*
X81180512Y-53740760D01*
X80979564Y-54041500D01*
X80909000Y-54396248D01*
X80763000Y-54396248D01*
X80692436Y-54041500D01*
X80491488Y-53740760D01*
X80190748Y-53539812D01*
X79836000Y-53469248D01*
X79481252Y-53539812D01*
X79180512Y-53740760D01*
X78979564Y-54041500D01*
X78909000Y-54396248D01*
X78793243Y-54396248D01*
X78730188Y-54079252D01*
X78568326Y-53837008D01*
X78703975Y-53837126D01*
X78971275Y-53726680D01*
X79175961Y-53522350D01*
X79286874Y-53255244D01*
X79287126Y-52966025D01*
X79254479Y-52887013D01*
X79383975Y-52887126D01*
X79651275Y-52776680D01*
X79855961Y-52572350D01*
X79966874Y-52305244D01*
X79967126Y-52016025D01*
X79856680Y-51748725D01*
X79652350Y-51544039D01*
X79572147Y-51510735D01*
X79520613Y-51424159D01*
X79500536Y-51401871D01*
X79487846Y-51374683D01*
X79420482Y-51313001D01*
X79359356Y-51245144D01*
X79332275Y-51232234D01*
X79310149Y-51211975D01*
X78696146Y-50839696D01*
X78730188Y-50788748D01*
X78800752Y-50434000D01*
X78730188Y-50079252D01*
X78529240Y-49778512D01*
X78228500Y-49577564D01*
X77873752Y-49507000D01*
X75798248Y-49507000D01*
X75443500Y-49577564D01*
X75142760Y-49778512D01*
X74941812Y-50079252D01*
X74897963Y-50299696D01*
X74872350Y-50274039D01*
X74605244Y-50163126D01*
X74316025Y-50162874D01*
X74165454Y-50225089D01*
X74362844Y-49863908D01*
X75952822Y-49361000D01*
X77873752Y-49361000D01*
X78228500Y-49290436D01*
X78529240Y-49089488D01*
X78730188Y-48788748D01*
X78800752Y-48434000D01*
X78730188Y-48079252D01*
X78529240Y-47778512D01*
X78228500Y-47577564D01*
X77873752Y-47507000D01*
X75798248Y-47507000D01*
X75443500Y-47577564D01*
X75142760Y-47778512D01*
X74941812Y-48079252D01*
X74876810Y-48406036D01*
X73753779Y-48761249D01*
X73653804Y-48816215D01*
X73552712Y-48869048D01*
X73548458Y-48874134D01*
X73542649Y-48877328D01*
X73471338Y-48966346D01*
X73398140Y-49053867D01*
X72458140Y-50773867D01*
X72448117Y-50805837D01*
X72445335Y-50810000D01*
X72310750Y-50810000D01*
X72152000Y-50968750D01*
X72152000Y-51943000D01*
X72172000Y-51943000D01*
X72172000Y-52197000D01*
X72152000Y-52197000D01*
X72152000Y-53171250D01*
X72310750Y-53330000D01*
X72373851Y-53330000D01*
X71935331Y-55940995D01*
X71934130Y-55940231D01*
X71105365Y-55413106D01*
X71105365Y-54925000D01*
X71075591Y-54766763D01*
X70982073Y-54621433D01*
X70839381Y-54523936D01*
X70670000Y-54489635D01*
X69934482Y-54489635D01*
X70686372Y-52676254D01*
X70904589Y-52197002D01*
X71048748Y-52197002D01*
X70890000Y-52355750D01*
X70890000Y-52821310D01*
X70986673Y-53054699D01*
X71165302Y-53233327D01*
X71398691Y-53330000D01*
X71739250Y-53330000D01*
X71898000Y-53171250D01*
X71898000Y-52197000D01*
X71878000Y-52197000D01*
X71878000Y-51943000D01*
X71898000Y-51943000D01*
X71898000Y-50968750D01*
X71739250Y-50810000D01*
X71536130Y-50810000D01*
X74113016Y-45150597D01*
X74112874Y-45313975D01*
X74223320Y-45581275D01*
X74427650Y-45785961D01*
X74694756Y-45896874D01*
X74983975Y-45897126D01*
X75093836Y-45851733D01*
X74941812Y-46079252D01*
X74871248Y-46434000D01*
X74941812Y-46788748D01*
X75142760Y-47089488D01*
X75443500Y-47290436D01*
X75798248Y-47361000D01*
X77873752Y-47361000D01*
X78228500Y-47290436D01*
X78529240Y-47089488D01*
X78730188Y-46788748D01*
X78800752Y-46434000D01*
X78749878Y-46178242D01*
X79083233Y-46013760D01*
X79162028Y-45953271D01*
X79244845Y-45898424D01*
X79257041Y-45880333D01*
X79274349Y-45867046D01*
X79323995Y-45781012D01*
X79379523Y-45698643D01*
X79383868Y-45677258D01*
X79394772Y-45658362D01*
X79407715Y-45559885D01*
X79427495Y-45462531D01*
X79437495Y-43022531D01*
X79435077Y-43010109D01*
X79437094Y-42997618D01*
X79415364Y-42398490D01*
X82179800Y-42398490D01*
X82179800Y-44474250D01*
X82338550Y-44633000D01*
X84923000Y-44633000D01*
X84923000Y-42048550D01*
X85177000Y-42048550D01*
X85177000Y-44633000D01*
X87761450Y-44633000D01*
X87920200Y-44474250D01*
X87920200Y-42398490D01*
X87823527Y-42165101D01*
X87644898Y-41986473D01*
X87411509Y-41889800D01*
X85335750Y-41889800D01*
X85177000Y-42048550D01*
X84923000Y-42048550D01*
X84764250Y-41889800D01*
X82688491Y-41889800D01*
X82455102Y-41986473D01*
X82276473Y-42165101D01*
X82179800Y-42398490D01*
X79415364Y-42398490D01*
X79367094Y-41067618D01*
X79365194Y-41059597D01*
X79366294Y-41051426D01*
X79337497Y-40942677D01*
X79311556Y-40833170D01*
X79306728Y-40826483D01*
X79304619Y-40818517D01*
X79236387Y-40729051D01*
X79170525Y-40637823D01*
X79163511Y-40633496D01*
X79158510Y-40626938D01*
X79061216Y-40570383D01*
X78965474Y-40511314D01*
X78957335Y-40510000D01*
X78950208Y-40505857D01*
X78796910Y-40453316D01*
X78800752Y-40434000D01*
X78730188Y-40079252D01*
X78591707Y-39872000D01*
X91080293Y-39872000D01*
X90941812Y-40079252D01*
X90871248Y-40434000D01*
X90941812Y-40788748D01*
X91142760Y-41089488D01*
X91443500Y-41290436D01*
X91798248Y-41361000D01*
X93873752Y-41361000D01*
X94102149Y-41315569D01*
X94610992Y-41416827D01*
X94041688Y-41540405D01*
X93873752Y-41507000D01*
X91798248Y-41507000D01*
X91443500Y-41577564D01*
X91142760Y-41778512D01*
X90941812Y-42079252D01*
X90871248Y-42434000D01*
X90941812Y-42788748D01*
X91142760Y-43089488D01*
X91443500Y-43290436D01*
X91798248Y-43361000D01*
X93873752Y-43361000D01*
X94228500Y-43290436D01*
X94529240Y-43089488D01*
X94730188Y-42788748D01*
X94758052Y-42648666D01*
X95004384Y-42595195D01*
X95104756Y-42636874D01*
X95393975Y-42637126D01*
X95661275Y-42526680D01*
X95865961Y-42322350D01*
X95976874Y-42055244D01*
X95977014Y-41894929D01*
X96616231Y-42255714D01*
X96643320Y-42321275D01*
X96847650Y-42525961D01*
X97114756Y-42636874D01*
X97403975Y-42637126D01*
X97671275Y-42526680D01*
X97875961Y-42322350D01*
X97986874Y-42055244D01*
X97987126Y-41766025D01*
X97876680Y-41498725D01*
X97672350Y-41294039D01*
X97405244Y-41183126D01*
X97228180Y-41182972D01*
X95933519Y-40452243D01*
X95840739Y-40421754D01*
X95750518Y-40384375D01*
X94751330Y-40185539D01*
X94730188Y-40079252D01*
X94529240Y-39778512D01*
X94347000Y-39656743D01*
X94347000Y-33544567D01*
X96258827Y-39880525D01*
G36*
X105678770Y-59930814D02*
X105707245Y-59993494D01*
X105724702Y-60060094D01*
X106855015Y-62383954D01*
X106646635Y-62439790D01*
X106159510Y-63283515D01*
X106894982Y-63708140D01*
X107111839Y-63650033D01*
X107218309Y-63465621D01*
X107344619Y-63246846D01*
X107348032Y-63220922D01*
X107383119Y-63253885D01*
X107448237Y-63278507D01*
X107508330Y-63313639D01*
X107559844Y-63320707D01*
X107608484Y-63339098D01*
X108067394Y-63415583D01*
X108137650Y-63485961D01*
X108404756Y-63596874D01*
X108639604Y-63597079D01*
X107839192Y-65591511D01*
X107727113Y-65596915D01*
X107571333Y-65671741D01*
X107456937Y-65801280D01*
X107245713Y-66167131D01*
X106995244Y-66063126D01*
X106706025Y-66062874D01*
X106438725Y-66173320D01*
X106234039Y-66377650D01*
X106123126Y-66644756D01*
X106122874Y-66933975D01*
X106233320Y-67201275D01*
X106437650Y-67405961D01*
X106514689Y-67437950D01*
X106506937Y-67446728D01*
X106363267Y-67695571D01*
X106222618Y-67733259D01*
X106022203Y-67887043D01*
X105975923Y-67967201D01*
X106034030Y-68184058D01*
X106769502Y-68608683D01*
X106780502Y-68589630D01*
X107000472Y-68716630D01*
X106989472Y-68735683D01*
X107006793Y-68745683D01*
X106881793Y-68962189D01*
X106864472Y-68952189D01*
X106563847Y-69472887D01*
X106621954Y-69689743D01*
X106698113Y-69733714D01*
X106870046Y-69832980D01*
X105319122Y-72491709D01*
X104529446Y-73087335D01*
X104117519Y-72373856D01*
X104012616Y-72251706D01*
X103858961Y-72172604D01*
X103686638Y-72159515D01*
X103522799Y-72214501D01*
X103469412Y-72245324D01*
X103902513Y-68858323D01*
X103898812Y-68804897D01*
X103901186Y-68789286D01*
X105612920Y-68789286D01*
X105678302Y-69033298D01*
X105832087Y-69233713D01*
X106050861Y-69360023D01*
X106127020Y-69403993D01*
X106343877Y-69345887D01*
X106644502Y-68825189D01*
X105909030Y-68400564D01*
X105692173Y-68458671D01*
X105645894Y-68538829D01*
X105612920Y-68789286D01*
X103901186Y-68789286D01*
X103906863Y-68751956D01*
X103890565Y-68685869D01*
X103885861Y-68617963D01*
X103861997Y-68570022D01*
X103849175Y-68518028D01*
X103132002Y-66987231D01*
X103154000Y-66960396D01*
X103202932Y-66794649D01*
X103263941Y-66097313D01*
X103248072Y-65937083D01*
X103167576Y-65784155D01*
X103033925Y-65674592D01*
X102868177Y-65625660D01*
X102319187Y-65577630D01*
X102030112Y-65221810D01*
X102896876Y-65297642D01*
X103057105Y-65281773D01*
X103107548Y-65255222D01*
X104777343Y-65605497D01*
X104867650Y-65695961D01*
X105134756Y-65806874D01*
X105423975Y-65807126D01*
X105691275Y-65696680D01*
X105895961Y-65492350D01*
X106006874Y-65225244D01*
X106007126Y-64936025D01*
X105925254Y-64737879D01*
X106148882Y-64767320D01*
X106392893Y-64701938D01*
X106593309Y-64548154D01*
X106719618Y-64329379D01*
X106826089Y-64144967D01*
X106767982Y-63928110D01*
X106032510Y-63503485D01*
X106022510Y-63520806D01*
X105802540Y-63393806D01*
X105812540Y-63376485D01*
X105795219Y-63366485D01*
X105922219Y-63146515D01*
X105939540Y-63156515D01*
X106426665Y-62312790D01*
X106368558Y-62095933D01*
X106073625Y-61925653D01*
X105823168Y-61892680D01*
X105579157Y-61958062D01*
X105428376Y-62073760D01*
X105421535Y-61931873D01*
X105346709Y-61776093D01*
X105217170Y-61661697D01*
X104866513Y-61459245D01*
X104839812Y-56783076D01*
X104904852Y-56626444D01*
X105678770Y-59930814D01*
X105678770Y-59930814D01*
G37*
X105678770Y-59930814D02*
X105707245Y-59993494D01*
X105724702Y-60060094D01*
X106855015Y-62383954D01*
X106646635Y-62439790D01*
X106159510Y-63283515D01*
X106894982Y-63708140D01*
X107111839Y-63650033D01*
X107218309Y-63465621D01*
X107344619Y-63246846D01*
X107348032Y-63220922D01*
X107383119Y-63253885D01*
X107448237Y-63278507D01*
X107508330Y-63313639D01*
X107559844Y-63320707D01*
X107608484Y-63339098D01*
X108067394Y-63415583D01*
X108137650Y-63485961D01*
X108404756Y-63596874D01*
X108639604Y-63597079D01*
X107839192Y-65591511D01*
X107727113Y-65596915D01*
X107571333Y-65671741D01*
X107456937Y-65801280D01*
X107245713Y-66167131D01*
X106995244Y-66063126D01*
X106706025Y-66062874D01*
X106438725Y-66173320D01*
X106234039Y-66377650D01*
X106123126Y-66644756D01*
X106122874Y-66933975D01*
X106233320Y-67201275D01*
X106437650Y-67405961D01*
X106514689Y-67437950D01*
X106506937Y-67446728D01*
X106363267Y-67695571D01*
X106222618Y-67733259D01*
X106022203Y-67887043D01*
X105975923Y-67967201D01*
X106034030Y-68184058D01*
X106769502Y-68608683D01*
X106780502Y-68589630D01*
X107000472Y-68716630D01*
X106989472Y-68735683D01*
X107006793Y-68745683D01*
X106881793Y-68962189D01*
X106864472Y-68952189D01*
X106563847Y-69472887D01*
X106621954Y-69689743D01*
X106698113Y-69733714D01*
X106870046Y-69832980D01*
X105319122Y-72491709D01*
X104529446Y-73087335D01*
X104117519Y-72373856D01*
X104012616Y-72251706D01*
X103858961Y-72172604D01*
X103686638Y-72159515D01*
X103522799Y-72214501D01*
X103469412Y-72245324D01*
X103902513Y-68858323D01*
X103898812Y-68804897D01*
X103901186Y-68789286D01*
X105612920Y-68789286D01*
X105678302Y-69033298D01*
X105832087Y-69233713D01*
X106050861Y-69360023D01*
X106127020Y-69403993D01*
X106343877Y-69345887D01*
X106644502Y-68825189D01*
X105909030Y-68400564D01*
X105692173Y-68458671D01*
X105645894Y-68538829D01*
X105612920Y-68789286D01*
X103901186Y-68789286D01*
X103906863Y-68751956D01*
X103890565Y-68685869D01*
X103885861Y-68617963D01*
X103861997Y-68570022D01*
X103849175Y-68518028D01*
X103132002Y-66987231D01*
X103154000Y-66960396D01*
X103202932Y-66794649D01*
X103263941Y-66097313D01*
X103248072Y-65937083D01*
X103167576Y-65784155D01*
X103033925Y-65674592D01*
X102868177Y-65625660D01*
X102319187Y-65577630D01*
X102030112Y-65221810D01*
X102896876Y-65297642D01*
X103057105Y-65281773D01*
X103107548Y-65255222D01*
X104777343Y-65605497D01*
X104867650Y-65695961D01*
X105134756Y-65806874D01*
X105423975Y-65807126D01*
X105691275Y-65696680D01*
X105895961Y-65492350D01*
X106006874Y-65225244D01*
X106007126Y-64936025D01*
X105925254Y-64737879D01*
X106148882Y-64767320D01*
X106392893Y-64701938D01*
X106593309Y-64548154D01*
X106719618Y-64329379D01*
X106826089Y-64144967D01*
X106767982Y-63928110D01*
X106032510Y-63503485D01*
X106022510Y-63520806D01*
X105802540Y-63393806D01*
X105812540Y-63376485D01*
X105795219Y-63366485D01*
X105922219Y-63146515D01*
X105939540Y-63156515D01*
X106426665Y-62312790D01*
X106368558Y-62095933D01*
X106073625Y-61925653D01*
X105823168Y-61892680D01*
X105579157Y-61958062D01*
X105428376Y-62073760D01*
X105421535Y-61931873D01*
X105346709Y-61776093D01*
X105217170Y-61661697D01*
X104866513Y-61459245D01*
X104839812Y-56783076D01*
X104904852Y-56626444D01*
X105678770Y-59930814D01*
G36*
X65281079Y-65198667D02*
X65342818Y-65266473D01*
X65397856Y-65339830D01*
X66563456Y-66384553D01*
X66639404Y-67365554D01*
X66536633Y-67449344D01*
X66431393Y-67267064D01*
X66469080Y-67126414D01*
X66436106Y-66875957D01*
X66389827Y-66795799D01*
X66172970Y-66737692D01*
X65437498Y-67162317D01*
X65448498Y-67181370D01*
X65228528Y-67308370D01*
X65217528Y-67289317D01*
X65200207Y-67299317D01*
X65075207Y-67082811D01*
X65092528Y-67072811D01*
X64791903Y-66552113D01*
X64575046Y-66494007D01*
X64498887Y-66537977D01*
X64280113Y-66664287D01*
X64126328Y-66864702D01*
X64060946Y-67108714D01*
X64093920Y-67359171D01*
X64140199Y-67439329D01*
X64354321Y-67496703D01*
X64269131Y-67545888D01*
X63424686Y-67046216D01*
X63419712Y-66425113D01*
X65011873Y-66425113D01*
X65312498Y-66945811D01*
X66047970Y-66521186D01*
X66106077Y-66304329D01*
X66059797Y-66224171D01*
X65859382Y-66070387D01*
X65615371Y-66005003D01*
X65364913Y-66037977D01*
X65146139Y-66164286D01*
X65069980Y-66208257D01*
X65011873Y-66425113D01*
X63419712Y-66425113D01*
X63384679Y-62051034D01*
X65281079Y-65198667D01*
X65281079Y-65198667D01*
G37*
X65281079Y-65198667D02*
X65342818Y-65266473D01*
X65397856Y-65339830D01*
X66563456Y-66384553D01*
X66639404Y-67365554D01*
X66536633Y-67449344D01*
X66431393Y-67267064D01*
X66469080Y-67126414D01*
X66436106Y-66875957D01*
X66389827Y-66795799D01*
X66172970Y-66737692D01*
X65437498Y-67162317D01*
X65448498Y-67181370D01*
X65228528Y-67308370D01*
X65217528Y-67289317D01*
X65200207Y-67299317D01*
X65075207Y-67082811D01*
X65092528Y-67072811D01*
X64791903Y-66552113D01*
X64575046Y-66494007D01*
X64498887Y-66537977D01*
X64280113Y-66664287D01*
X64126328Y-66864702D01*
X64060946Y-67108714D01*
X64093920Y-67359171D01*
X64140199Y-67439329D01*
X64354321Y-67496703D01*
X64269131Y-67545888D01*
X63424686Y-67046216D01*
X63419712Y-66425113D01*
X65011873Y-66425113D01*
X65312498Y-66945811D01*
X66047970Y-66521186D01*
X66106077Y-66304329D01*
X66059797Y-66224171D01*
X65859382Y-66070387D01*
X65615371Y-66005003D01*
X65364913Y-66037977D01*
X65146139Y-66164286D01*
X65069980Y-66208257D01*
X65011873Y-66425113D01*
X63419712Y-66425113D01*
X63384679Y-62051034D01*
X65281079Y-65198667D01*
G36*
X69193034Y-50450610D02*
X69192874Y-50633975D01*
X69303320Y-50901275D01*
X69507650Y-51105961D01*
X69774756Y-51216874D01*
X69993786Y-51217065D01*
X69558015Y-52174112D01*
X69555558Y-52184562D01*
X69549589Y-52193488D01*
X68699589Y-54243488D01*
X68690320Y-54290000D01*
X68455750Y-54290000D01*
X68297000Y-54448750D01*
X68297000Y-55423000D01*
X68317000Y-55423000D01*
X68317000Y-55677000D01*
X68297000Y-55677000D01*
X68297000Y-56651250D01*
X68453253Y-56807503D01*
X68195978Y-59762155D01*
X68061763Y-59787409D01*
X67916433Y-59880927D01*
X67818936Y-60023619D01*
X67797067Y-60131612D01*
X67578310Y-60041000D01*
X67087750Y-60041000D01*
X66929000Y-60199750D01*
X66929000Y-60899000D01*
X66949000Y-60899000D01*
X66949000Y-61153000D01*
X66929000Y-61153000D01*
X66929000Y-61852250D01*
X67087750Y-62011000D01*
X67578310Y-62011000D01*
X67616438Y-61995207D01*
X67646438Y-62067635D01*
X67366510Y-62140635D01*
X66152000Y-62140635D01*
X65993763Y-62170409D01*
X65848433Y-62263927D01*
X65750936Y-62406619D01*
X65716635Y-62576000D01*
X65716635Y-63276000D01*
X65746409Y-63434237D01*
X65839927Y-63579567D01*
X65982619Y-63677064D01*
X66152000Y-63711365D01*
X66492754Y-63711365D01*
X67287064Y-65374654D01*
X66291120Y-64481993D01*
X64529679Y-61558365D01*
X65238000Y-61558365D01*
X65396237Y-61528591D01*
X65517000Y-61450882D01*
X65517000Y-61502309D01*
X65613673Y-61735698D01*
X65792301Y-61914327D01*
X66025690Y-62011000D01*
X66516250Y-62011000D01*
X66675000Y-61852250D01*
X66675000Y-61153000D01*
X66655000Y-61153000D01*
X66655000Y-60899000D01*
X66675000Y-60899000D01*
X66675000Y-60199750D01*
X66516250Y-60041000D01*
X66025690Y-60041000D01*
X65792301Y-60137673D01*
X65673365Y-60256610D01*
X65673365Y-58023000D01*
X65643591Y-57864763D01*
X65550073Y-57719433D01*
X65407381Y-57621936D01*
X65238000Y-57587635D01*
X64498170Y-57587635D01*
X65420904Y-55835750D01*
X67035000Y-55835750D01*
X67035000Y-56301310D01*
X67131673Y-56534699D01*
X67310302Y-56713327D01*
X67543691Y-56810000D01*
X67884250Y-56810000D01*
X68043000Y-56651250D01*
X68043000Y-55677000D01*
X67193750Y-55677000D01*
X67035000Y-55835750D01*
X65420904Y-55835750D01*
X65967133Y-54798690D01*
X67035000Y-54798690D01*
X67035000Y-55264250D01*
X67193750Y-55423000D01*
X68043000Y-55423000D01*
X68043000Y-54448750D01*
X67884250Y-54290000D01*
X67543691Y-54290000D01*
X67310302Y-54386673D01*
X67131673Y-54565301D01*
X67035000Y-54798690D01*
X65967133Y-54798690D01*
X68714338Y-49582906D01*
X69193034Y-50450610D01*
X69193034Y-50450610D01*
G37*
X69193034Y-50450610D02*
X69192874Y-50633975D01*
X69303320Y-50901275D01*
X69507650Y-51105961D01*
X69774756Y-51216874D01*
X69993786Y-51217065D01*
X69558015Y-52174112D01*
X69555558Y-52184562D01*
X69549589Y-52193488D01*
X68699589Y-54243488D01*
X68690320Y-54290000D01*
X68455750Y-54290000D01*
X68297000Y-54448750D01*
X68297000Y-55423000D01*
X68317000Y-55423000D01*
X68317000Y-55677000D01*
X68297000Y-55677000D01*
X68297000Y-56651250D01*
X68453253Y-56807503D01*
X68195978Y-59762155D01*
X68061763Y-59787409D01*
X67916433Y-59880927D01*
X67818936Y-60023619D01*
X67797067Y-60131612D01*
X67578310Y-60041000D01*
X67087750Y-60041000D01*
X66929000Y-60199750D01*
X66929000Y-60899000D01*
X66949000Y-60899000D01*
X66949000Y-61153000D01*
X66929000Y-61153000D01*
X66929000Y-61852250D01*
X67087750Y-62011000D01*
X67578310Y-62011000D01*
X67616438Y-61995207D01*
X67646438Y-62067635D01*
X67366510Y-62140635D01*
X66152000Y-62140635D01*
X65993763Y-62170409D01*
X65848433Y-62263927D01*
X65750936Y-62406619D01*
X65716635Y-62576000D01*
X65716635Y-63276000D01*
X65746409Y-63434237D01*
X65839927Y-63579567D01*
X65982619Y-63677064D01*
X66152000Y-63711365D01*
X66492754Y-63711365D01*
X67287064Y-65374654D01*
X66291120Y-64481993D01*
X64529679Y-61558365D01*
X65238000Y-61558365D01*
X65396237Y-61528591D01*
X65517000Y-61450882D01*
X65517000Y-61502309D01*
X65613673Y-61735698D01*
X65792301Y-61914327D01*
X66025690Y-62011000D01*
X66516250Y-62011000D01*
X66675000Y-61852250D01*
X66675000Y-61153000D01*
X66655000Y-61153000D01*
X66655000Y-60899000D01*
X66675000Y-60899000D01*
X66675000Y-60199750D01*
X66516250Y-60041000D01*
X66025690Y-60041000D01*
X65792301Y-60137673D01*
X65673365Y-60256610D01*
X65673365Y-58023000D01*
X65643591Y-57864763D01*
X65550073Y-57719433D01*
X65407381Y-57621936D01*
X65238000Y-57587635D01*
X64498170Y-57587635D01*
X65420904Y-55835750D01*
X67035000Y-55835750D01*
X67035000Y-56301310D01*
X67131673Y-56534699D01*
X67310302Y-56713327D01*
X67543691Y-56810000D01*
X67884250Y-56810000D01*
X68043000Y-56651250D01*
X68043000Y-55677000D01*
X67193750Y-55677000D01*
X67035000Y-55835750D01*
X65420904Y-55835750D01*
X65967133Y-54798690D01*
X67035000Y-54798690D01*
X67035000Y-55264250D01*
X67193750Y-55423000D01*
X68043000Y-55423000D01*
X68043000Y-54448750D01*
X67884250Y-54290000D01*
X67543691Y-54290000D01*
X67310302Y-54386673D01*
X67131673Y-54565301D01*
X67035000Y-54798690D01*
X65967133Y-54798690D01*
X68714338Y-49582906D01*
X69193034Y-50450610D01*
G36*
X68877000Y-61341000D02*
X68897000Y-61341000D01*
X68897000Y-61595000D01*
X68877000Y-61595000D01*
X68877000Y-61615000D01*
X68623000Y-61615000D01*
X68623000Y-61595000D01*
X68603000Y-61595000D01*
X68603000Y-61341000D01*
X68623000Y-61341000D01*
X68623000Y-61321000D01*
X68877000Y-61321000D01*
X68877000Y-61341000D01*
X68877000Y-61341000D01*
G37*
X68877000Y-61341000D02*
X68897000Y-61341000D01*
X68897000Y-61595000D01*
X68877000Y-61595000D01*
X68877000Y-61615000D01*
X68623000Y-61615000D01*
X68623000Y-61595000D01*
X68603000Y-61595000D01*
X68603000Y-61341000D01*
X68623000Y-61341000D01*
X68623000Y-61321000D01*
X68877000Y-61321000D01*
X68877000Y-61341000D01*
G36*
X92108781Y-27995680D02*
X93658207Y-29107891D01*
X93713320Y-29241275D01*
X93917650Y-29445961D01*
X94184756Y-29556874D01*
X94473975Y-29557126D01*
X94741275Y-29446680D01*
X94819166Y-29368924D01*
X95959273Y-33077336D01*
X96691599Y-37039606D01*
X95301173Y-32431618D01*
X95268842Y-32370916D01*
X95247263Y-32305607D01*
X93417262Y-29075607D01*
X93401057Y-29056823D01*
X93391430Y-29033958D01*
X93322860Y-28966180D01*
X93259880Y-28893176D01*
X93237720Y-28882023D01*
X93220075Y-28864582D01*
X93130777Y-28828200D01*
X93044663Y-28784860D01*
X93019924Y-28783036D01*
X92996947Y-28773675D01*
X90004704Y-28196536D01*
X89922350Y-28114039D01*
X89655244Y-28003126D01*
X89366025Y-28002874D01*
X89098725Y-28113320D01*
X88894039Y-28317650D01*
X88783126Y-28584756D01*
X88782874Y-28873975D01*
X88893320Y-29141275D01*
X89097650Y-29345961D01*
X89364756Y-29456874D01*
X89653975Y-29457126D01*
X89770257Y-29409079D01*
X92483222Y-29932352D01*
X93674374Y-32034768D01*
X92404803Y-30765197D01*
X92364410Y-30738006D01*
X92315000Y-30728000D01*
X88615250Y-30728000D01*
X88486250Y-30599000D01*
X87885000Y-30599000D01*
X87885000Y-30619000D01*
X87635000Y-30619000D01*
X87635000Y-30599000D01*
X87613000Y-30599000D01*
X87613000Y-30345000D01*
X87635000Y-30345000D01*
X87635000Y-29495750D01*
X87885000Y-29495750D01*
X87885000Y-30345000D01*
X88486250Y-30345000D01*
X88645000Y-30186250D01*
X88645000Y-29845690D01*
X88548327Y-29612301D01*
X88369698Y-29433673D01*
X88136309Y-29337000D01*
X88043750Y-29337000D01*
X87885000Y-29495750D01*
X87635000Y-29495750D01*
X87560089Y-29420839D01*
X87564751Y-28773822D01*
X89182469Y-27968833D01*
X92108781Y-27995680D01*
X92108781Y-27995680D01*
G37*
X92108781Y-27995680D02*
X93658207Y-29107891D01*
X93713320Y-29241275D01*
X93917650Y-29445961D01*
X94184756Y-29556874D01*
X94473975Y-29557126D01*
X94741275Y-29446680D01*
X94819166Y-29368924D01*
X95959273Y-33077336D01*
X96691599Y-37039606D01*
X95301173Y-32431618D01*
X95268842Y-32370916D01*
X95247263Y-32305607D01*
X93417262Y-29075607D01*
X93401057Y-29056823D01*
X93391430Y-29033958D01*
X93322860Y-28966180D01*
X93259880Y-28893176D01*
X93237720Y-28882023D01*
X93220075Y-28864582D01*
X93130777Y-28828200D01*
X93044663Y-28784860D01*
X93019924Y-28783036D01*
X92996947Y-28773675D01*
X90004704Y-28196536D01*
X89922350Y-28114039D01*
X89655244Y-28003126D01*
X89366025Y-28002874D01*
X89098725Y-28113320D01*
X88894039Y-28317650D01*
X88783126Y-28584756D01*
X88782874Y-28873975D01*
X88893320Y-29141275D01*
X89097650Y-29345961D01*
X89364756Y-29456874D01*
X89653975Y-29457126D01*
X89770257Y-29409079D01*
X92483222Y-29932352D01*
X93674374Y-32034768D01*
X92404803Y-30765197D01*
X92364410Y-30738006D01*
X92315000Y-30728000D01*
X88615250Y-30728000D01*
X88486250Y-30599000D01*
X87885000Y-30599000D01*
X87885000Y-30619000D01*
X87635000Y-30619000D01*
X87635000Y-30599000D01*
X87613000Y-30599000D01*
X87613000Y-30345000D01*
X87635000Y-30345000D01*
X87635000Y-29495750D01*
X87885000Y-29495750D01*
X87885000Y-30345000D01*
X88486250Y-30345000D01*
X88645000Y-30186250D01*
X88645000Y-29845690D01*
X88548327Y-29612301D01*
X88369698Y-29433673D01*
X88136309Y-29337000D01*
X88043750Y-29337000D01*
X87885000Y-29495750D01*
X87635000Y-29495750D01*
X87560089Y-29420839D01*
X87564751Y-28773822D01*
X89182469Y-27968833D01*
X92108781Y-27995680D01*
M02*
